<?xml version="1.0" encoding="utf-8"?>
<!-- Generator: Adobe Illustrator 19.2.1, SVG Export Plug-In . SVG Version: 6.00 Build 0)  -->
<!DOCTYPE svg PUBLIC "-//W3C//DTD SVG 1.1//EN" "http://www.w3.org/Graphics/SVG/1.1/DTD/svg11.dtd">
<svg version="1.1" id="Layer_1" xmlns="http://www.w3.org/2000/svg" xmlns:xlink="http://www.w3.org/1999/xlink" x="0px" y="0px"
	 width="392.4px" height="312.1px" viewBox="0 0 392.4 312.1" style="enable-background:new 0 0 392.4 312.1;" xml:space="preserve"
	>
<style type="text/css">
	.Drop_x0020_Shadow{fill:none;}
	.Outer_x0020_Glow_x0020_5_x0020_pt{fill:none;}
	.Blue_x0020_Neon{fill:none;stroke:#8AACDA;stroke-width:7;stroke-linecap:round;stroke-linejoin:round;}
	.Chrome_x0020_Highlight{fill:url(#SVGID_1_);stroke:#FFFFFF;stroke-width:0.3629;stroke-miterlimit:1;}
	.Jive_GS{fill:#FFDD00;}
	.Alyssa_GS{fill:#A6D0E4;}
	.st0{opacity:0.8;fill:#0A3656;}
	.st1{fill:#ED5A49;}
	.st2{fill:#ED5A49;stroke:#221F1F;stroke-width:0.1836;stroke-miterlimit:10;}
	.st3{fill:#0A3656;}
	
		.st4{fill:none;stroke:#ED5A49;stroke-width:2;stroke-linecap:round;stroke-linejoin:round;stroke-miterlimit:10;stroke-dasharray:0,8;}
	.st5{fill:#E9F5FC;}
	.st6{fill:none;stroke:#E9F5FC;stroke-width:0.1274;stroke-linecap:round;stroke-linejoin:round;stroke-miterlimit:10;}
	.st7{fill:#C12944;}
	.st8{fill:#F5F1ED;}
	.st9{fill:#542337;}
	.st10{fill:#FFFFFF;}
	.st11{fill:none;stroke:#C12944;stroke-width:0.8464;stroke-linecap:round;stroke-linejoin:round;stroke-miterlimit:10;}
	.st12{fill:#C12944;stroke:#C12944;stroke-width:0.7245;stroke-linecap:round;stroke-linejoin:round;stroke-miterlimit:10;}
	.st13{fill:none;stroke:#542337;stroke-width:0.378;stroke-linecap:round;stroke-linejoin:round;stroke-miterlimit:10;}
	.st14{fill:#DDE8F0;}
	.st15{fill:#491B2E;}
	.st16{clip-path:url(#SVGID_3_);}
	.st17{fill:#E6E7E8;}
	.st18{clip-path:url(#SVGID_5_);}
</style>
<linearGradient id="SVGID_1_" gradientUnits="userSpaceOnUse" x1="-11.6364" y1="-114.8182" x2="-11.6364" y2="-115.8182">
	<stop  offset="0" style="stop-color:#656565"/>
	<stop  offset="0.618" style="stop-color:#1B1B1B"/>
	<stop  offset="0.6292" style="stop-color:#545454"/>
	<stop  offset="0.9831" style="stop-color:#3E3E3E"/>
</linearGradient>
<g>
	<g id="leader">
		<path class="st0" d="M378.4,26.8c0-0.2,0-0.4-0.1-0.7c-1.1-3.4-3.7-4.2-5.5-4.2c0,0-0.1,0-0.1,0c-0.1,0-0.2,0-0.3,0h-7.8
			c0.1,0,0.2,0,0.3,0c0,0,0.1,0,0.1,0c1.8,0.1,4.5,0.8,5.5,4.2c0.1,0.2,0.1,0.4,0.1,0.7l0.3,16.5c0,0.2,0,0.5-0.1,0.7
			c-0.2,0.6,0,1.3-1.6,1.3c0,0,0,0,0,0c0,0,0,0,0,0c0,0.1,0,0.3,0,0.4h0.1v21.2c0,1.2,1,2.2,2.2,2.2h0.8c1.2,0,2.2-1,2.2-2.2V44.4
			c0-0.2,0-0.3,0-0.5c0-0.1,0-0.3,0-0.5V28.7c0.1,0,0.2,0,0.3,0c1,0,0.1,12.9,0.1,14.5c0,2.4,0.8,2.2,2.1,2.2c1.5,0,1.4-0.7,1.6-1.3
			c0.1-0.2,0.1-0.5,0.1-0.7L378.4,26.8z"/>
		<path class="st0" d="M363.9,17.7c0.9,1.2,2.3,2,3.9,2c2.7,0,4.8-2.2,4.8-4.8s-2.2-4.8-4.8-4.8c-1.6,0-3,0.8-3.9,2
			c0.6,0.8,1,1.8,1,2.9S364.5,16.9,363.9,17.7z"/>
		<g>
			<path class="st1" d="M355.9,69.1h-0.8c-1.2,0-2.2-1-2.2-2.2V44.4c0-1.2,1-2.2,2.2-2.2h0.8c1.2,0,2.2,1,2.2,2.2v22.5
				C358.1,68.1,357.1,69.1,355.9,69.1z"/>
			<path class="st1" d="M363.6,69.1h-0.8c-1.2,0-2.2-1-2.2-2.2V44.4c0-1.2,1-2.2,2.2-2.2h0.8c1.2,0,2.2,1,2.2,2.2v22.5
				C365.8,68.1,364.8,69.1,363.6,69.1z"/>
			<path class="st1" d="M354.6,21.9c-1.8,0.1-4.5,0.8-5.5,4.2c-0.1,0.2-0.1,0.4-0.1,0.7l-0.3,16.5c0,0.2,0,0.5,0.1,0.7
				c0.2,0.6,0,1.3,1.6,1.3c1.3,0,2.1,0.2,2.1-2.2c0-1.6-0.9-14.5,0.1-14.5c1,0,2.1-0.6,2.1,1.1c0,0.5,0.4,0.7,0.9,0.8
				c1.6,0.2,2.8-1.4,2.4-2.9l-1.1-4.1C356.6,22.6,355.6,21.9,354.6,21.9z"/>
			<path class="st1" d="M364.1,21.9c1.8,0.1,4.5,0.8,5.5,4.2c0.1,0.2,0.1,0.4,0.1,0.7l0.3,16.5c0,0.2,0,0.5-0.1,0.7
				c-0.2,0.6,0,1.3-1.6,1.3c-1.3,0-2.1,0.2-2.1-2.2c0-1.6,0.9-14.5-0.1-14.5c-1,0-2.1-0.6-2.1,1.1c0,0.5-0.4,0.7-0.9,0.8
				c-1.6,0.2-2.8-1.4-2.4-2.9l1.1-4.1C362.1,22.6,363,21.9,364.1,21.9z"/>
			<path class="st1" d="M363.6,45.7h-8.5c-1.2,0-2.2-1-2.2-2.2V24.1c0-1.2,1-2.2,2.2-2.2h8.5c1.2,0,2.2,1,2.2,2.2v19.4
				C365.8,44.7,364.8,45.7,363.6,45.7z"/>
			<circle class="st1" cx="359.4" cy="14.8" r="4.8"/>
		</g>
		<path class="st0" d="M340.3,26.8c0-0.2,0-0.4,0.1-0.7c1.1-3.4,3.7-4.2,5.5-4.2c0,0,0.1,0,0.1,0c0.1,0,0.2,0,0.3,0h7.8
			c-0.1,0-0.2,0-0.3,0c0,0-0.1,0-0.1,0c-1.8,0.1-4.5,0.8-5.5,4.2c-0.1,0.2-0.1,0.4-0.1,0.7l-0.3,16.5c0,0.2,0,0.5,0.1,0.7
			c0.2,0.6,0,1.3,1.6,1.3c0,0,0,0,0,0c0,0,0,0,0,0c0,0.1,0,0.3,0,0.4h-0.1v21.2c0,1.2-1,2.2-2.2,2.2h-0.8c-1.2,0-2.2-1-2.2-2.2V44.4
			c0-0.2,0-0.3,0-0.5c0-0.1,0-0.3,0-0.5V28.7c-0.1,0-0.2,0-0.3,0c-1,0-0.1,12.9-0.1,14.5c0,2.4-0.8,2.2-2.1,2.2
			c-1.5,0-1.4-0.7-1.6-1.3c-0.1-0.2-0.1-0.5-0.1-0.7L340.3,26.8z"/>
		<path class="st0" d="M354.8,17.7c-0.9,1.2-2.3,2-3.9,2c-2.7,0-4.8-2.2-4.8-4.8s2.2-4.8,4.8-4.8c1.6,0,3,0.8,3.9,2
			c-0.6,0.8-1,1.8-1,2.9S354.2,16.9,354.8,17.7z"/>
	</g>
	<g>
		<path class="st3" d="M15.6,48.9v-7.2h1.5v7.2H15.6z"/>
		<path class="st3" d="M20.5,42.6c-0.6,0-0.7,0.2-0.7,0.7v0.6h0.7v0.9h-0.7v4.2h-1.4v-4.2h-0.6v-0.9h0.6c0-1.4-0.1-2.2,1.6-2.2
			c0.2,0,0.3,0,0.5,0V42.6z"/>
		<path class="st3" d="M24.2,49l-1.4-5.1h1.4l0.7,3.5h0l0.8-3.5h1.4l-1.9,7h-1.5L24.2,49z"/>
		<path class="st3" d="M27.6,46.3c0-1.4,0.2-2.6,2.1-2.6s2.1,1.2,2.1,2.6c0,1.6-0.2,2.7-2.1,2.7S27.6,47.9,27.6,46.3z M30.3,46.3
			c0-1-0.1-1.6-0.6-1.6S29,45.2,29,46.3c0,1.5,0.1,1.9,0.6,1.9C30.2,48.1,30.3,47.8,30.3,46.3z"/>
		<path class="st3" d="M35.2,48.4L35.2,48.4c-0.2,0.2-0.3,0.4-0.5,0.5C34.5,49,34.3,49,34,49c-0.7,0-1.3-0.4-1.3-1.1v-4h1.4v3.5
			c0,0.4,0.1,0.8,0.5,0.8s0.5-0.3,0.5-0.8v-3.5h1.4v4c0,0.3,0,0.7,0,1h-1.5V48.4z"/>
		<path class="st3" d="M41.5,41.7v7.2h-1.4v-7.2H41.5z"/>
		<path class="st3" d="M44.3,41.7v1.1h-1.4v-1.1H44.3z M44.3,48.9h-1.4v-5h1.4V48.9z"/>
		<path class="st3" d="M45.5,48.9v-7.2h1.4V46h0l1.3-2.1h1.5l-1.4,2.2l1.6,2.8h-1.6l-1.3-2.7h0v2.7H45.5z"/>
		<path class="st3" d="M51.8,46.6c0,0.6,0,1.5,0.6,1.5c0.5,0,0.6-0.5,0.6-0.9h1.4c0,0.5-0.2,1-0.5,1.3c-0.3,0.3-0.8,0.5-1.5,0.5
			c-1.8,0-2.1-1.1-2.1-2.7c0-1.4,0.2-2.6,2.1-2.6c1.9,0,2.1,1.2,2.1,2.8H51.8z M53.1,45.8c0-0.5,0-1.2-0.6-1.2
			c-0.6,0-0.6,0.8-0.6,1.2H53.1z"/>
		<path class="st3" d="M57.2,43.9h0.6v-0.8l1.4-0.6v1.4h0.7v0.9h-0.7v2.7c0,0.4,0,0.6,0.4,0.6c0.1,0,0.2,0,0.2,0v0.9
			c-0.2,0-0.4,0-0.7,0c-1.2,0-1.4-0.8-1.4-1.1v-3.1h-0.6V43.9z"/>
		<path class="st3" d="M60.4,46.3c0-1.4,0.2-2.6,2.1-2.6c1.9,0,2.1,1.2,2.1,2.6c0,1.6-0.2,2.7-2.1,2.7C60.7,49,60.4,47.9,60.4,46.3z
			 M63.1,46.3c0-1-0.1-1.6-0.6-1.6s-0.6,0.5-0.6,1.6c0,1.5,0.1,1.9,0.6,1.9C63,48.1,63.1,47.8,63.1,46.3z"/>
		<path class="st3" d="M67.8,41.7h1.4v2.6h0c0.3-0.4,0.6-0.6,1.1-0.6c1.4,0,1.4,1.6,1.4,2.6c0,1,0,2.7-1.4,2.7
			c-0.5,0-0.9-0.2-1.2-0.7h0v0.6h-1.3V41.7z M70.3,46.4c0-1,0-1.7-0.6-1.7c-0.6,0-0.6,0.7-0.6,1.7c0,1.3,0.1,1.8,0.6,1.8
			C70.2,48.2,70.3,47.6,70.3,46.4z"/>
		<path class="st3" d="M74.1,46.6c0,0.6,0,1.5,0.6,1.5c0.5,0,0.6-0.5,0.6-0.9h1.4c0,0.5-0.2,1-0.5,1.3c-0.3,0.3-0.8,0.5-1.5,0.5
			c-1.8,0-2.1-1.1-2.1-2.7c0-1.4,0.2-2.6,2.1-2.6c1.9,0,2.1,1.2,2.1,2.8H74.1z M75.3,45.8c0-0.5,0-1.2-0.6-1.2
			c-0.6,0-0.6,0.8-0.6,1.2H75.3z"/>
		<path class="st3" d="M81.5,41.7v1.1h-1.4v-1.1H81.5z M81.5,48.9h-1.4v-5h1.4V48.9z"/>
		<path class="st3" d="M84.2,44.4L84.2,44.4c0.2-0.2,0.3-0.4,0.5-0.5c0.2-0.1,0.4-0.1,0.7-0.1c0.7,0,1.3,0.4,1.3,1.1v4h-1.4v-3.5
			c0-0.4-0.1-0.8-0.5-0.8s-0.5,0.3-0.5,0.8v3.5h-1.4v-5h1.4V44.4z"/>
		<path class="st3" d="M92.5,45.7c0-0.8-0.2-1-0.6-1c-0.6,0-0.6,0.5-0.6,1.6c0,1.5,0.1,1.9,0.6,1.9c0.4,0,0.6-0.4,0.6-1.1H94
			c0,1.4-0.7,2-2.1,2c-1.8,0-2.1-1.1-2.1-2.7c0-1.4,0.2-2.6,2.1-2.6c1.3,0,2,0.6,2,1.9H92.5z"/>
		<path class="st3" d="M94.9,46.3c0-1.4,0.2-2.6,2.1-2.6S99,45,99,46.3c0,1.6-0.2,2.7-2.1,2.7C95.1,49,94.9,47.9,94.9,46.3z
			 M97.6,46.3c0-1-0.1-1.6-0.6-1.6s-0.6,0.5-0.6,1.6c0,1.5,0.1,1.9,0.6,1.9C97.4,48.1,97.6,47.8,97.6,46.3z"/>
		<path class="st3" d="M101.4,44.4L101.4,44.4c0.2-0.2,0.3-0.4,0.5-0.5c0.2-0.1,0.4-0.1,0.7-0.1c0.7,0,1.3,0.4,1.3,1.1v4h-1.4v-3.5
			c0-0.4-0.1-0.8-0.5-0.8s-0.5,0.3-0.5,0.8v3.5H100v-5h1.4V44.4z"/>
		<path class="st3" d="M104.4,43.9h0.6v-0.8l1.4-0.6v1.4h0.7v0.9h-0.7v2.7c0,0.4,0,0.6,0.4,0.6c0.1,0,0.2,0,0.2,0v0.9
			c-0.2,0-0.4,0-0.7,0c-1.2,0-1.4-0.8-1.4-1.1v-3.1h-0.6V43.9z"/>
		<path class="st3" d="M109.1,43.9v0.6h0c0.3-0.6,0.7-0.8,1.3-0.8V45c-1.2-0.1-1.3,0.6-1.3,1.1v2.7h-1.4v-5H109.1z"/>
		<path class="st3" d="M111,46.3c0-1.4,0.2-2.6,2.1-2.6s2.1,1.2,2.1,2.6c0,1.6-0.2,2.7-2.1,2.7S111,47.9,111,46.3z M113.7,46.3
			c0-1-0.1-1.6-0.6-1.6s-0.6,0.5-0.6,1.6c0,1.5,0.1,1.9,0.6,1.9C113.5,48.1,113.7,47.8,113.7,46.3z"/>
		<path class="st3" d="M117.6,41.7v7.2h-1.4v-7.2H117.6z"/>
		<path class="st3" d="M119,47.6h1.3l-0.8,2.3h-1L119,47.6z"/>
		<path class="st3" d="M122.8,43.9h1.4l0.7,3.8h0l0.7-3.8h1.4l-1.4,5h-1.5L122.8,43.9z"/>
		<path class="st3" d="M127.6,46.3c0-1.4,0.2-2.6,2.1-2.6c1.9,0,2.1,1.2,2.1,2.6c0,1.6-0.2,2.7-2.1,2.7
			C127.9,49,127.6,47.9,127.6,46.3z M130.3,46.3c0-1-0.1-1.6-0.6-1.6s-0.6,0.5-0.6,1.6c0,1.5,0.1,1.9,0.6,1.9
			C130.2,48.1,130.3,47.8,130.3,46.3z"/>
		<path class="st3" d="M134.3,41.7v7.2h-1.4v-7.2H134.3z"/>
		<path class="st3" d="M138,48.4L138,48.4c-0.2,0.2-0.3,0.4-0.5,0.5c-0.2,0.1-0.4,0.1-0.7,0.1c-0.7,0-1.3-0.4-1.3-1.1v-4h1.4v3.5
			c0,0.4,0.1,0.8,0.5,0.8s0.5-0.3,0.5-0.8v-3.5h1.4v4c0,0.3,0,0.7,0,1H138V48.4z"/>
		<path class="st3" d="M141.9,44.4L141.9,44.4c0.2-0.2,0.3-0.4,0.5-0.5c0.2-0.1,0.4-0.1,0.7-0.1c0.7,0,1.3,0.4,1.3,1.1v4H143v-3.5
			c0-0.4-0.1-0.8-0.5-0.8s-0.5,0.3-0.5,0.8v3.5h-1.4v-5h1.4V44.4z"/>
		<path class="st3" d="M145,43.9h0.6v-0.8l1.4-0.6v1.4h0.7v0.9h-0.7v2.7c0,0.4,0,0.6,0.4,0.6c0.1,0,0.2,0,0.2,0v0.9
			c-0.2,0-0.4,0-0.7,0c-1.2,0-1.4-0.8-1.4-1.1v-3.1H145V43.9z"/>
		<path class="st3" d="M149.6,46.6c0,0.6,0,1.5,0.6,1.5c0.5,0,0.6-0.5,0.6-0.9h1.4c0,0.5-0.2,1-0.5,1.3c-0.3,0.3-0.8,0.5-1.5,0.5
			c-1.8,0-2.1-1.1-2.1-2.7c0-1.4,0.2-2.6,2.1-2.6c1.9,0,2.1,1.2,2.1,2.8H149.6z M150.9,45.8c0-0.5,0-1.2-0.6-1.2
			c-0.6,0-0.6,0.8-0.6,1.2H150.9z"/>
		<path class="st3" d="M154.6,46.6c0,0.6,0,1.5,0.6,1.5c0.5,0,0.6-0.5,0.6-0.9h1.4c0,0.5-0.2,1-0.5,1.3c-0.3,0.3-0.8,0.5-1.5,0.5
			c-1.8,0-2.1-1.1-2.1-2.7c0-1.4,0.2-2.6,2.1-2.6c1.9,0,2.1,1.2,2.1,2.8H154.6z M155.9,45.8c0-0.5,0-1.2-0.6-1.2
			c-0.6,0-0.6,0.8-0.6,1.2H155.9z"/>
		<path class="st3" d="M159.6,43.9v0.6h0c0.3-0.6,0.7-0.8,1.3-0.8V45c-1.2-0.1-1.3,0.6-1.3,1.1v2.7h-1.4v-5H159.6z"/>
		<path class="st3" d="M163.3,43.9h0.6v-0.8l1.4-0.6v1.4h0.7v0.9h-0.7v2.7c0,0.4,0,0.6,0.4,0.6c0.1,0,0.2,0,0.2,0v0.9
			c-0.2,0-0.4,0-0.7,0c-1.2,0-1.4-0.8-1.4-1.1v-3.1h-0.6V43.9z"/>
		<path class="st3" d="M166.5,46.3c0-1.4,0.2-2.6,2.1-2.6s2.1,1.2,2.1,2.6c0,1.6-0.2,2.7-2.1,2.7C166.8,49,166.5,47.9,166.5,46.3z
			 M169.2,46.3c0-1-0.1-1.6-0.6-1.6s-0.6,0.5-0.6,1.6c0,1.5,0.1,1.9,0.6,1.9C169.1,48.1,169.2,47.8,169.2,46.3z"/>
		<path class="st3" d="M173.9,41.7h1.4v2.6h0c0.3-0.4,0.6-0.6,1.1-0.6c1.4,0,1.4,1.6,1.4,2.6c0,1,0,2.7-1.4,2.7
			c-0.5,0-0.9-0.2-1.2-0.7h0v0.6h-1.3V41.7z M176.4,46.4c0-1,0-1.7-0.6-1.7c-0.6,0-0.6,0.7-0.6,1.7c0,1.3,0.1,1.8,0.6,1.8
			C176.3,48.2,176.4,47.6,176.4,46.4z"/>
		<path class="st3" d="M180.2,46.6c0,0.6,0,1.5,0.6,1.5c0.5,0,0.6-0.5,0.6-0.9h1.4c0,0.5-0.2,1-0.5,1.3c-0.3,0.3-0.8,0.5-1.5,0.5
			c-1.8,0-2.1-1.1-2.1-2.7c0-1.4,0.2-2.6,2.1-2.6c1.9,0,2.1,1.2,2.1,2.8H180.2z M181.4,45.8c0-0.5,0-1.2-0.6-1.2
			c-0.6,0-0.6,0.8-0.6,1.2H181.4z"/>
		<path class="st3" d="M185.5,43.9h0.6v-0.8l1.4-0.6v1.4h0.7v0.9h-0.7v2.7c0,0.4,0,0.6,0.4,0.6c0.1,0,0.2,0,0.2,0v0.9
			c-0.2,0-0.4,0-0.7,0c-1.2,0-1.4-0.8-1.4-1.1v-3.1h-0.6V43.9z"/>
		<path class="st3" d="M191.3,48.9v-3.5c0-0.4-0.1-0.8-0.5-0.8s-0.5,0.3-0.5,0.8v3.5h-1.4v-7.2h1.4v2.7h0c0.1-0.2,0.3-0.4,0.5-0.5
			c0.2-0.1,0.4-0.1,0.7-0.1c0.7,0,1.3,0.4,1.3,1.1v4H191.3z"/>
		<path class="st3" d="M195.2,46.6c0,0.6,0,1.5,0.6,1.5c0.5,0,0.6-0.5,0.6-0.9h1.4c0,0.5-0.2,1-0.5,1.3c-0.3,0.3-0.8,0.5-1.5,0.5
			c-1.8,0-2.1-1.1-2.1-2.7c0-1.4,0.2-2.6,2.1-2.6c1.9,0,2.1,1.2,2.1,2.8H195.2z M196.4,45.8c0-0.5,0-1.2-0.6-1.2
			c-0.6,0-0.6,0.8-0.6,1.2H196.4z"/>
		<path class="st3" d="M15,55.9h0.6v-0.8l1.4-0.6v1.4h0.7v0.9h-0.7v2.7c0,0.4,0,0.6,0.4,0.6c0.1,0,0.2,0,0.2,0v0.9
			c-0.2,0-0.4,0-0.7,0c-1.2,0-1.4-0.8-1.4-1.1v-3.1H15V55.9z"/>
		<path class="st3" d="M19.6,58.6c0,0.6,0,1.5,0.6,1.5c0.5,0,0.6-0.5,0.6-0.9h1.4c0,0.5-0.2,1-0.5,1.3c-0.3,0.3-0.8,0.5-1.5,0.5
			c-1.8,0-2.1-1.1-2.1-2.7c0-1.4,0.2-2.6,2.1-2.6c1.9,0,2.1,1.2,2.1,2.8H19.6z M20.9,57.8c0-0.5,0-1.2-0.6-1.2
			c-0.6,0-0.6,0.8-0.6,1.2H20.9z"/>
		<path class="st3" d="M27.1,60c0,0.3,0,0.6,0.1,0.9h-1.3l-0.1-0.7h0c-0.3,0.5-0.7,0.8-1.3,0.8c-1,0-1.3-0.7-1.3-1.6
			c0-1.7,1.3-1.7,2.6-1.7v-0.4c0-0.4-0.1-0.7-0.6-0.7c-0.5,0-0.5,0.4-0.5,0.8h-1.4c0-0.6,0.2-1,0.5-1.2c0.3-0.2,0.8-0.3,1.3-0.3
			c1.8,0,2,0.8,2,1.7V60z M24.5,59.4c0,0.4,0.1,0.8,0.5,0.8c0.8,0,0.7-1.1,0.7-1.7C25.1,58.5,24.5,58.5,24.5,59.4z"/>
		<path class="st3" d="M29.6,56.4L29.6,56.4c0.3-0.5,0.7-0.6,1.2-0.6c0.5,0,0.9,0.2,1.1,0.6c0.3-0.4,0.7-0.6,1.3-0.6
			c0.7,0,1.3,0.4,1.3,1.1v4h-1.4v-3.5c0-0.4-0.1-0.8-0.5-0.8s-0.5,0.3-0.5,0.8v3.5h-1.4v-3.5c0-0.4-0.1-0.8-0.5-0.8
			s-0.5,0.3-0.5,0.8v3.5h-1.4v-5h1.4V56.4z"/>
		<path class="st3" d="M39.3,53.7v7.2h-1.4v-7.2H39.3z"/>
		<path class="st3" d="M41.8,58.6c0,0.6,0,1.5,0.6,1.5c0.5,0,0.6-0.5,0.6-0.9h1.4c0,0.5-0.2,1-0.5,1.3c-0.3,0.3-0.8,0.5-1.5,0.5
			c-1.8,0-2.1-1.1-2.1-2.7c0-1.4,0.2-2.6,2.1-2.6c1.9,0,2.1,1.2,2.1,2.8H41.8z M43.1,57.8c0-0.5,0-1.2-0.6-1.2
			c-0.6,0-0.6,0.8-0.6,1.2H43.1z"/>
		<path class="st3" d="M49.4,60c0,0.3,0,0.6,0.1,0.9h-1.3l-0.1-0.7h0c-0.3,0.5-0.7,0.8-1.3,0.8c-1,0-1.3-0.7-1.3-1.6
			c0-1.7,1.3-1.7,2.6-1.7v-0.4c0-0.4-0.1-0.7-0.6-0.7c-0.5,0-0.5,0.4-0.5,0.8h-1.4c0-0.6,0.2-1,0.5-1.2c0.3-0.2,0.8-0.3,1.3-0.3
			c1.8,0,2,0.8,2,1.7V60z M46.8,59.4c0,0.4,0.1,0.8,0.5,0.8c0.8,0,0.7-1.1,0.7-1.7C47.3,58.5,46.8,58.5,46.8,59.4z"/>
		<path class="st3" d="M53.1,60.9v-0.6h0c-0.3,0.5-0.6,0.7-1.2,0.7c-1.5,0-1.4-1.6-1.4-2.7c0-1,0-2.6,1.4-2.6c0.5,0,0.9,0.2,1.1,0.6
			h0v-2.6h1.4v7.2H53.1z M53,58.4c0-1,0-1.7-0.6-1.7c-0.6,0-0.6,0.7-0.6,1.7c0,1.3,0.1,1.8,0.6,1.8C52.9,60.2,53,59.6,53,58.4z"/>
		<path class="st3" d="M56.8,58.6c0,0.6,0,1.5,0.6,1.5c0.5,0,0.6-0.5,0.6-0.9h1.4c0,0.5-0.2,1-0.5,1.3c-0.3,0.3-0.8,0.5-1.5,0.5
			c-1.8,0-2.1-1.1-2.1-2.7c0-1.4,0.2-2.6,2.1-2.6c1.9,0,2.1,1.2,2.1,2.8H56.8z M58.1,57.8c0-0.5,0-1.2-0.6-1.2
			c-0.6,0-0.6,0.8-0.6,1.2H58.1z"/>
		<path class="st3" d="M61.9,55.9v0.6h0c0.3-0.6,0.7-0.8,1.3-0.8V57c-1.2-0.1-1.3,0.6-1.3,1.1v2.7h-1.4v-5H61.9z"/>
		<path class="st3" d="M68.3,54.6c-0.6,0-0.7,0.2-0.7,0.7v0.6h0.7v0.9h-0.7v4.2h-1.4v-4.2h-0.6v-0.9h0.6c0-1.4-0.1-2.2,1.6-2.2
			c0.2,0,0.3,0,0.5,0V54.6z"/>
		<path class="st3" d="M68.7,58.3c0-1.4,0.2-2.6,2.1-2.6s2.1,1.2,2.1,2.6c0,1.6-0.2,2.7-2.1,2.7C69,61,68.7,59.9,68.7,58.3z
			 M71.5,58.3c0-1-0.1-1.6-0.6-1.6s-0.6,0.5-0.6,1.6c0,1.5,0.1,1.9,0.6,1.9C71.3,60.1,71.5,59.8,71.5,58.3z"/>
		<path class="st3" d="M75.2,55.9v0.6h0c0.3-0.6,0.7-0.8,1.3-0.8V57c-1.2-0.1-1.3,0.6-1.3,1.1v2.7h-1.4v-5H75.2z"/>
		<path class="st3" d="M80.5,59.3c0,0.2,0,0.5,0.1,0.6c0.1,0.2,0.2,0.2,0.5,0.2c0.3,0,0.5-0.2,0.5-0.5c0-1.1-2.5-0.8-2.5-2.4
			c0-1.1,1.1-1.4,2-1.4c1,0,1.8,0.5,1.7,1.5h-1.4c0-0.4,0-0.6-0.1-0.7c-0.1-0.1-0.2-0.1-0.4-0.1c-0.3,0-0.5,0.2-0.5,0.5
			c0,0.8,2.5,0.8,2.5,2.4c0,0.9-0.7,1.5-1.9,1.5c-1.2,0-2-0.3-2-1.7H80.5z"/>
		<path class="st3" d="M83.3,55.9h0.6v-0.8l1.4-0.6v1.4H86v0.9h-0.7v2.7c0,0.4,0,0.6,0.4,0.6c0.1,0,0.2,0,0.2,0v0.9
			c-0.2,0-0.4,0-0.7,0c-1.2,0-1.4-0.8-1.4-1.1v-3.1h-0.6V55.9z"/>
		<path class="st3" d="M89.1,60.4L89.1,60.4c-0.2,0.2-0.3,0.4-0.5,0.5C88.4,61,88.2,61,87.9,61c-0.7,0-1.3-0.4-1.3-1.1v-4H88v3.5
			c0,0.4,0.1,0.8,0.5,0.8s0.5-0.3,0.5-0.8v-3.5h1.4v4c0,0.3,0,0.7,0,1h-1.5V60.4z"/>
		<path class="st3" d="M94.2,60.9v-0.6h0c-0.3,0.5-0.6,0.7-1.2,0.7c-1.5,0-1.4-1.6-1.4-2.7c0-1,0-2.6,1.4-2.6c0.5,0,0.9,0.2,1.1,0.6
			h0v-2.6h1.4v7.2H94.2z M94.1,58.4c0-1,0-1.7-0.6-1.7c-0.6,0-0.6,0.7-0.6,1.7c0,1.3,0.1,1.8,0.6,1.8C94,60.2,94.1,59.6,94.1,58.4z"
			/>
		<path class="st3" d="M97.5,61l-1.4-5.1h1.4l0.7,3.5h0l0.8-3.5h1.4l-1.9,7H97L97.5,61z"/>
		<path class="st3" d="M107.2,55.9v5.3c0,0.3,0,1.7-1.9,1.7c-1,0-1.9-0.3-2-1.5h1.4c0,0.2,0,0.4,0.1,0.5c0.1,0.1,0.2,0.2,0.5,0.2
			c0.3,0,0.5-0.3,0.5-0.8v-1h0c-0.2,0.4-0.6,0.6-1.1,0.6c-1.5,0-1.5-1.4-1.5-2.6c0-1.1,0-2.5,1.5-2.5c0.5,0,0.9,0.2,1.1,0.7h0v-0.6
			H107.2z M105.2,60c0.5,0,0.6-0.5,0.6-1.6c0-1.1,0-1.7-0.6-1.7c-0.5,0-0.6,0.4-0.6,1.9C104.6,59,104.5,60,105.2,60z"/>
		<path class="st3" d="M109.6,55.9v0.6h0c0.3-0.6,0.7-0.8,1.3-0.8V57c-1.2-0.1-1.3,0.6-1.3,1.1v2.7h-1.4v-5H109.6z"/>
		<path class="st3" d="M111.5,58.3c0-1.4,0.2-2.6,2.1-2.6s2.1,1.2,2.1,2.6c0,1.6-0.2,2.7-2.1,2.7S111.5,59.9,111.5,58.3z
			 M114.2,58.3c0-1-0.1-1.6-0.6-1.6s-0.6,0.5-0.6,1.6c0,1.5,0.1,1.9,0.6,1.9C114.1,60.1,114.2,59.8,114.2,58.3z"/>
		<path class="st3" d="M119.1,60.4L119.1,60.4c-0.2,0.2-0.3,0.4-0.5,0.5c-0.2,0.1-0.4,0.1-0.7,0.1c-0.7,0-1.3-0.4-1.3-1.1v-4h1.4
			v3.5c0,0.4,0.1,0.8,0.5,0.8s0.5-0.3,0.5-0.8v-3.5h1.4v4c0,0.3,0,0.7,0,1h-1.5V60.4z"/>
		<path class="st3" d="M123,55.9v0.6h0c0.3-0.5,0.6-0.7,1.2-0.7c1.5,0,1.4,1.6,1.4,2.7c0,1,0,2.6-1.4,2.6c-0.5,0-0.9-0.1-1.1-0.6h0
			v2.6h-1.4v-7.2H123z M124.2,58.4c0-1,0-1.7-0.6-1.7c-0.6,0-0.6,0.7-0.6,1.7c0,1.3,0.1,1.8,0.6,1.8
			C124.1,60.2,124.2,59.6,124.2,58.4z"/>
		<path class="st3" d="M127.7,59.3c0,0.2,0,0.5,0.1,0.6c0.1,0.2,0.2,0.2,0.5,0.2c0.3,0,0.5-0.2,0.5-0.5c0-1.1-2.5-0.8-2.5-2.4
			c0-1.1,1.1-1.4,2-1.4c1,0,1.8,0.5,1.7,1.5h-1.4c0-0.4,0-0.6-0.1-0.7c-0.1-0.1-0.2-0.1-0.4-0.1c-0.3,0-0.5,0.2-0.5,0.5
			c0,0.8,2.5,0.8,2.5,2.4c0,0.9-0.7,1.5-1.9,1.5c-1.2,0-2-0.3-2-1.7H127.7z"/>
		<path class="st3" d="M137.1,60c0,0.3,0,0.6,0.1,0.9h-1.3l-0.1-0.7h0c-0.3,0.5-0.7,0.8-1.3,0.8c-1,0-1.3-0.7-1.3-1.6
			c0-1.7,1.3-1.7,2.6-1.7v-0.4c0-0.4-0.1-0.7-0.6-0.7c-0.5,0-0.5,0.4-0.5,0.8h-1.4c0-0.6,0.2-1,0.5-1.2c0.3-0.2,0.8-0.3,1.3-0.3
			c1.8,0,2,0.8,2,1.7V60z M134.5,59.4c0,0.4,0.1,0.8,0.5,0.8c0.8,0,0.7-1.1,0.7-1.7C135,58.5,134.5,58.5,134.5,59.4z"/>
		<path class="st3" d="M139.7,56.4L139.7,56.4c0.2-0.2,0.3-0.4,0.5-0.5c0.2-0.1,0.4-0.1,0.7-0.1c0.7,0,1.3,0.4,1.3,1.1v4h-1.4v-3.5
			c0-0.4-0.1-0.8-0.5-0.8s-0.5,0.3-0.5,0.8v3.5h-1.4v-5h1.4V56.4z"/>
		<path class="st3" d="M145.8,60.9v-0.6h0c-0.3,0.5-0.6,0.7-1.2,0.7c-1.5,0-1.4-1.6-1.4-2.7c0-1,0-2.6,1.4-2.6
			c0.5,0,0.9,0.2,1.1,0.6h0v-2.6h1.4v7.2H145.8z M145.7,58.4c0-1,0-1.7-0.6-1.7c-0.6,0-0.6,0.7-0.6,1.7c0,1.3,0.1,1.8,0.6,1.8
			C145.6,60.2,145.7,59.6,145.7,58.4z"/>
		<path class="st3" d="M151.8,55.9v0.6h0c0.3-0.5,0.6-0.7,1.2-0.7c1.5,0,1.4,1.6,1.4,2.7c0,1,0,2.6-1.4,2.6c-0.5,0-0.9-0.1-1.1-0.6
			h0v2.6h-1.4v-7.2H151.8z M153.1,58.4c0-1,0-1.7-0.6-1.7c-0.6,0-0.6,0.7-0.6,1.7c0,1.3,0.1,1.8,0.6,1.8
			C153,60.2,153.1,59.6,153.1,58.4z"/>
		<path class="st3" d="M156.8,55.9v0.6h0c0.3-0.6,0.7-0.8,1.3-0.8V57c-1.2-0.1-1.3,0.6-1.3,1.1v2.7h-1.4v-5H156.8z"/>
		<path class="st3" d="M158.7,58.3c0-1.4,0.2-2.6,2.1-2.6s2.1,1.2,2.1,2.6c0,1.6-0.2,2.7-2.1,2.7C159,61,158.7,59.9,158.7,58.3z
			 M161.4,58.3c0-1-0.1-1.6-0.6-1.6s-0.6,0.5-0.6,1.6c0,1.5,0.1,1.9,0.6,1.9C161.3,60.1,161.4,59.8,161.4,58.3z"/>
		<path class="st3" d="M165.4,55.9v5.5c0,1-0.4,1.4-1.3,1.4c-0.2,0-0.3,0-0.5,0v-0.9c0.2,0,0.4,0,0.4-0.4v-5.6H165.4z M165.4,53.7
			v1.1H164v-1.1H165.4z"/>
		<path class="st3" d="M167.9,58.6c0,0.6,0,1.5,0.6,1.5c0.5,0,0.6-0.5,0.6-0.9h1.4c0,0.5-0.2,1-0.5,1.3c-0.3,0.3-0.8,0.5-1.5,0.5
			c-1.8,0-2.1-1.1-2.1-2.7c0-1.4,0.2-2.6,2.1-2.6c1.9,0,2.1,1.2,2.1,2.8H167.9z M169.2,57.8c0-0.5,0-1.2-0.6-1.2
			c-0.6,0-0.6,0.8-0.6,1.2H169.2z"/>
		<path class="st3" d="M174.2,57.7c0-0.8-0.2-1-0.6-1c-0.6,0-0.6,0.5-0.6,1.6c0,1.5,0.1,1.9,0.6,1.9c0.4,0,0.6-0.4,0.6-1.1h1.4
			c0,1.4-0.7,2-2.1,2c-1.8,0-2.1-1.1-2.1-2.7c0-1.4,0.2-2.6,2.1-2.6c1.3,0,2,0.6,2,1.9H174.2z"/>
		<path class="st3" d="M177.7,59.3c0,0.2,0,0.5,0.1,0.6c0.1,0.2,0.2,0.2,0.5,0.2c0.3,0,0.5-0.2,0.5-0.5c0-1.1-2.5-0.8-2.5-2.4
			c0-1.1,1.1-1.4,2-1.4c1,0,1.8,0.5,1.7,1.5h-1.4c0-0.4,0-0.6-0.1-0.7c-0.1-0.1-0.2-0.1-0.4-0.1c-0.3,0-0.5,0.2-0.5,0.5
			c0,0.8,2.5,0.8,2.5,2.4c0,0.9-0.7,1.5-1.9,1.5c-1.2,0-2-0.3-2-1.7H177.7z"/>
	</g>
	<line class="st4" x1="186.1" y1="63.5" x2="340.2" y2="63.5"/>
</g>
<g>
	<g id="folder">
		<path class="st3" d="M18.4,76h30.2c0.8,0,1.5,0.6,1.5,1.5v9.4H17.2v-9.6C17.2,76.6,17.7,76,18.4,76z"/>
		<path class="st5" d="M48.6,84H18.7v-5c0-0.5,0.4-1,1-1h27.9c0.6,0,1,0.5,1,1V84z"/>
		<path class="st3" d="M15.6,84c-0.1-0.9,0.6-1.6,1.5-1.6c3.2,0.1,9.6-0.3,10.9-0.7c1.4-0.5,4.3-2.5,6.6-2.5h15.8
			c1.1,0,1.9,0.9,1.9,2l-1.4,19.6c-0.1,0.9-0.8,1.7-1.8,1.7H18.4c-0.8,0-1.5-0.6-1.6-1.4L15.6,84z"/>
	</g>
	<g>
		<path class="st3" d="M215.4,91c-1.9,0-2.2-1.1-2.1-2.3h1.5c0,0.7,0,1.3,0.9,1.3c0.5,0,0.8-0.3,0.8-0.8c0-1.3-3-1.4-3-3.5
			c0-1.1,0.5-2,2.4-2c1.5,0,2.2,0.7,2.1,2.2h-1.5c0-0.5-0.1-1.1-0.7-1.1c-0.5,0-0.8,0.3-0.8,0.8c0,1.4,3,1.2,3,3.5
			C217.9,90.8,216.5,91,215.4,91z"/>
		<path class="st3" d="M220.4,83.7v1.1H219v-1.1H220.4z M220.4,90.9H219v-5h1.4V90.9z"/>
		<path class="st3" d="M223.1,86.3L223.1,86.3c0.2-0.2,0.3-0.4,0.5-0.5c0.2-0.1,0.4-0.1,0.7-0.1c0.7,0,1.3,0.4,1.3,1.1v4h-1.4v-3.5
			c0-0.4-0.1-0.8-0.5-0.8s-0.5,0.3-0.5,0.8v3.5h-1.4v-5h1.4V86.3z"/>
		<path class="st3" d="M229.2,87.6c0-0.8-0.2-1-0.6-1c-0.6,0-0.6,0.5-0.6,1.6c0,1.5,0.1,1.9,0.6,1.9c0.4,0,0.6-0.4,0.6-1.1h1.4
			c0,1.4-0.7,2-2.1,2c-1.8,0-2.1-1.1-2.1-2.7c0-1.4,0.2-2.6,2.1-2.6c1.3,0,2,0.6,2,1.9H229.2z"/>
		<path class="st3" d="M233,88.6c0,0.6,0,1.5,0.6,1.5c0.5,0,0.6-0.5,0.6-0.9h1.4c0,0.5-0.2,1-0.5,1.3c-0.3,0.3-0.8,0.5-1.5,0.5
			c-1.8,0-2.1-1.1-2.1-2.7c0-1.4,0.2-2.6,2.1-2.6c1.9,0,2.1,1.2,2.1,2.8H233z M234.3,87.8c0-0.5,0-1.2-0.6-1.2
			c-0.6,0-0.6,0.8-0.6,1.2H234.3z"/>
		<path class="st3" d="M239.8,90.9l-1.4-5.1h1.4l0.7,3.5h0l0.8-3.5h1.4l-1.9,7h-1.5L239.8,90.9z"/>
		<path class="st3" d="M243.2,88.3c0-1.4,0.2-2.6,2.1-2.6s2.1,1.2,2.1,2.6c0,1.6-0.2,2.7-2.1,2.7C243.5,91,243.2,89.9,243.2,88.3z
			 M245.9,88.2c0-1-0.1-1.6-0.6-1.6s-0.6,0.5-0.6,1.6c0,1.5,0.1,1.9,0.6,1.9C245.8,90.1,245.9,89.7,245.9,88.2z"/>
		<path class="st3" d="M250.8,90.4L250.8,90.4c-0.2,0.2-0.3,0.4-0.5,0.5c-0.2,0.1-0.4,0.1-0.7,0.1c-0.7,0-1.3-0.4-1.3-1.1v-4h1.4
			v3.5c0,0.4,0.1,0.8,0.5,0.8s0.5-0.3,0.5-0.8v-3.5h1.4v4c0,0.3,0,0.7,0,1h-1.5V90.4z"/>
		<path class="st3" d="M259.4,89.9c0,0.3,0,0.6,0.1,0.9h-1.3l-0.1-0.7h0c-0.3,0.5-0.7,0.8-1.3,0.8c-1,0-1.3-0.7-1.3-1.6
			c0-1.7,1.3-1.7,2.6-1.7v-0.4c0-0.4-0.1-0.7-0.6-0.7c-0.5,0-0.5,0.4-0.5,0.8h-1.4c0-0.6,0.2-1,0.5-1.2c0.3-0.2,0.8-0.3,1.3-0.3
			c1.8,0,2,0.8,2,1.7V89.9z M256.8,89.3c0,0.4,0.1,0.8,0.5,0.8c0.8,0,0.7-1.1,0.7-1.7C257.3,88.5,256.8,88.4,256.8,89.3z"/>
		<path class="st3" d="M261.9,85.8v0.6h0c0.3-0.6,0.7-0.8,1.3-0.8V87c-1.2-0.1-1.3,0.6-1.3,1.1v2.7h-1.4v-5H261.9z"/>
		<path class="st3" d="M265.2,88.6c0,0.6,0,1.5,0.6,1.5c0.5,0,0.6-0.5,0.6-0.9h1.4c0,0.5-0.2,1-0.5,1.3c-0.3,0.3-0.8,0.5-1.5,0.5
			c-1.8,0-2.1-1.1-2.1-2.7c0-1.4,0.2-2.6,2.1-2.6c1.9,0,2.1,1.2,2.1,2.8H265.2z M266.5,87.8c0-0.5,0-1.2-0.6-1.2
			c-0.6,0-0.6,0.8-0.6,1.2H266.5z"/>
		<path class="st3" d="M275,85.8v5.3c0,0.3,0,1.7-1.9,1.7c-1,0-1.9-0.3-2-1.5h1.4c0,0.2,0,0.4,0.1,0.5c0.1,0.1,0.2,0.2,0.5,0.2
			c0.3,0,0.5-0.3,0.5-0.8v-1h0c-0.2,0.4-0.6,0.6-1.1,0.6c-1.5,0-1.5-1.4-1.5-2.6c0-1.1,0-2.5,1.5-2.5c0.5,0,0.9,0.2,1.1,0.7h0v-0.6
			H275z M273,89.9c0.5,0,0.6-0.5,0.6-1.6c0-1.1,0-1.7-0.6-1.7c-0.5,0-0.6,0.4-0.6,1.9C272.4,89,272.3,89.9,273,89.9z"/>
		<path class="st3" d="M276,88.3c0-1.4,0.2-2.6,2.1-2.6s2.1,1.2,2.1,2.6c0,1.6-0.2,2.7-2.1,2.7S276,89.9,276,88.3z M278.7,88.2
			c0-1-0.1-1.6-0.6-1.6s-0.6,0.5-0.6,1.6c0,1.5,0.1,1.9,0.6,1.9C278.6,90.1,278.7,89.7,278.7,88.2z"/>
		<path class="st3" d="M281,88.3c0-1.4,0.2-2.6,2.1-2.6s2.1,1.2,2.1,2.6c0,1.6-0.2,2.7-2.1,2.7S281,89.9,281,88.3z M283.7,88.2
			c0-1-0.1-1.6-0.6-1.6s-0.6,0.5-0.6,1.6c0,1.5,0.1,1.9,0.6,1.9C283.6,90.1,283.7,89.7,283.7,88.2z"/>
		<path class="st3" d="M288.6,90.9v-0.6h0c-0.3,0.5-0.6,0.7-1.2,0.7c-1.5,0-1.4-1.6-1.4-2.7c0-1,0-2.6,1.4-2.6
			c0.5,0,0.9,0.2,1.1,0.6h0v-2.6h1.4v7.2H288.6z M288.6,88.3c0-1,0-1.7-0.6-1.7c-0.6,0-0.6,0.7-0.6,1.7c0,1.3,0.1,1.8,0.6,1.8
			C288.5,90.1,288.6,89.6,288.6,88.3z"/>
		<path class="st3" d="M297.2,89.9c0,0.3,0,0.6,0.1,0.9h-1.3l-0.1-0.7h0c-0.3,0.5-0.7,0.8-1.3,0.8c-1,0-1.3-0.7-1.3-1.6
			c0-1.7,1.3-1.7,2.6-1.7v-0.4c0-0.4-0.1-0.7-0.6-0.7c-0.5,0-0.5,0.4-0.5,0.8h-1.4c0-0.6,0.2-1,0.5-1.2c0.3-0.2,0.8-0.3,1.3-0.3
			c1.8,0,2,0.8,2,1.7V89.9z M294.6,89.3c0,0.4,0.1,0.8,0.5,0.8c0.8,0,0.7-1.1,0.7-1.7C295.1,88.5,294.6,88.4,294.6,89.3z"/>
		<path class="st3" d="M297.8,85.8h0.6V85l1.4-0.6v1.4h0.7v0.9h-0.7v2.7c0,0.4,0,0.6,0.4,0.6c0.1,0,0.2,0,0.2,0v0.9
			c-0.2,0-0.4,0-0.7,0c-1.2,0-1.4-0.8-1.4-1.1v-3.1h-0.6V85.8z"/>
		<path class="st3" d="M303.2,88.3c0-1.4,0.2-2.6,2.1-2.6s2.1,1.2,2.1,2.6c0,1.6-0.2,2.7-2.1,2.7S303.2,89.9,303.2,88.3z
			 M305.9,88.2c0-1-0.1-1.6-0.6-1.6s-0.6,0.5-0.6,1.6c0,1.5,0.1,1.9,0.6,1.9C305.8,90.1,305.9,89.7,305.9,88.2z"/>
		<path class="st3" d="M309.7,85.8v0.6h0c0.3-0.6,0.7-0.8,1.3-0.8V87c-1.2-0.1-1.3,0.6-1.3,1.1v2.7h-1.4v-5H309.7z"/>
		<path class="st3" d="M315.5,85.8v5.3c0,0.3,0,1.7-1.9,1.7c-1,0-1.9-0.3-2-1.5h1.4c0,0.2,0,0.4,0.1,0.5c0.1,0.1,0.2,0.2,0.5,0.2
			c0.3,0,0.5-0.3,0.5-0.8v-1h0c-0.2,0.4-0.6,0.6-1.1,0.6c-1.5,0-1.5-1.4-1.5-2.6c0-1.1,0-2.5,1.5-2.5c0.5,0,0.9,0.2,1.1,0.7h0v-0.6
			H315.5z M313.5,89.9c0.5,0,0.6-0.5,0.6-1.6c0-1.1,0-1.7-0.6-1.7c-0.5,0-0.6,0.4-0.6,1.9C312.9,89,312.8,89.9,313.5,89.9z"/>
		<path class="st3" d="M320.5,89.9c0,0.3,0,0.6,0.1,0.9h-1.3l-0.1-0.7h0c-0.3,0.5-0.7,0.8-1.3,0.8c-1,0-1.3-0.7-1.3-1.6
			c0-1.7,1.3-1.7,2.6-1.7v-0.4c0-0.4-0.1-0.7-0.6-0.7c-0.5,0-0.5,0.4-0.5,0.8h-1.4c0-0.6,0.2-1,0.5-1.2c0.3-0.2,0.8-0.3,1.3-0.3
			c1.8,0,2,0.8,2,1.7V89.9z M317.9,89.3c0,0.4,0.1,0.8,0.5,0.8c0.8,0,0.7-1.1,0.7-1.7C318.4,88.5,317.9,88.4,317.9,89.3z"/>
		<path class="st3" d="M323.1,86.3L323.1,86.3c0.2-0.2,0.3-0.4,0.5-0.5c0.2-0.1,0.4-0.1,0.7-0.1c0.7,0,1.3,0.4,1.3,1.1v4h-1.4v-3.5
			c0-0.4-0.1-0.8-0.5-0.8s-0.5,0.3-0.5,0.8v3.5h-1.4v-5h1.4V86.3z"/>
		<path class="st3" d="M328.2,83.7v1.1h-1.4v-1.1H328.2z M328.2,90.9h-1.4v-5h1.4V90.9z"/>
		<path class="st3" d="M332.5,86.8l-2,3.1h2v0.9h-3.4v-1l2-3.1h-1.9v-0.9h3.3V86.8z"/>
		<path class="st3" d="M334.9,83.7v1.1h-1.4v-1.1H334.9z M334.9,90.9h-1.4v-5h1.4V90.9z"/>
		<path class="st3" d="M337.5,86.3L337.5,86.3c0.2-0.2,0.3-0.4,0.5-0.5c0.2-0.1,0.4-0.1,0.7-0.1c0.7,0,1.3,0.4,1.3,1.1v4h-1.4v-3.5
			c0-0.4-0.1-0.8-0.5-0.8s-0.5,0.3-0.5,0.8v3.5h-1.4v-5h1.4V86.3z"/>
		<path class="st3" d="M345,85.8v5.3c0,0.3,0,1.7-1.9,1.7c-1,0-1.9-0.3-2-1.5h1.4c0,0.2,0,0.4,0.1,0.5c0.1,0.1,0.2,0.2,0.5,0.2
			c0.3,0,0.5-0.3,0.5-0.8v-1h0c-0.2,0.4-0.6,0.6-1.1,0.6c-1.5,0-1.5-1.4-1.5-2.6c0-1.1,0-2.5,1.5-2.5c0.5,0,0.9,0.2,1.1,0.7h0v-0.6
			H345z M343,89.9c0.5,0,0.6-0.5,0.6-1.6c0-1.1,0-1.7-0.6-1.7c-0.5,0-0.6,0.4-0.6,1.9C342.4,89,342.3,89.9,343,89.9z"/>
		<path class="st3" d="M347.8,85.8h0.6V85l1.4-0.6v1.4h0.7v0.9h-0.7v2.7c0,0.4,0,0.6,0.4,0.6c0.1,0,0.2,0,0.2,0v0.9
			c-0.2,0-0.4,0-0.7,0c-1.2,0-1.4-0.8-1.4-1.1v-3.1h-0.6V85.8z"/>
		<path class="st3" d="M353.6,90.9v-3.5c0-0.4-0.1-0.8-0.5-0.8s-0.5,0.3-0.5,0.8v3.5h-1.4v-7.2h1.4v2.7h0c0.1-0.2,0.3-0.4,0.5-0.5
			c0.2-0.1,0.4-0.1,0.7-0.1c0.7,0,1.3,0.4,1.3,1.1v4H353.6z"/>
		<path class="st3" d="M357.6,83.7v1.1h-1.4v-1.1H357.6z M357.6,90.9h-1.4v-5h1.4V90.9z"/>
		<path class="st3" d="M360.3,86.3L360.3,86.3c0.2-0.2,0.3-0.4,0.5-0.5c0.2-0.1,0.4-0.1,0.7-0.1c0.7,0,1.3,0.4,1.3,1.1v4h-1.4v-3.5
			c0-0.4-0.1-0.8-0.5-0.8s-0.5,0.3-0.5,0.8v3.5h-1.4v-5h1.4V86.3z"/>
		<path class="st3" d="M367.7,85.8v5.3c0,0.3,0,1.7-1.9,1.7c-1,0-1.9-0.3-2-1.5h1.4c0,0.2,0,0.4,0.1,0.5c0.1,0.1,0.2,0.2,0.5,0.2
			c0.3,0,0.5-0.3,0.5-0.8v-1h0c-0.2,0.4-0.6,0.6-1.1,0.6c-1.5,0-1.5-1.4-1.5-2.6c0-1.1,0-2.5,1.5-2.5c0.5,0,0.9,0.2,1.1,0.7h0v-0.6
			H367.7z M365.8,89.9c0.5,0,0.6-0.5,0.6-1.6c0-1.1,0-1.7-0.6-1.7c-0.5,0-0.6,0.4-0.6,1.9C365.1,89,365.1,89.9,365.8,89.9z"/>
		<path class="st3" d="M370,89.3c0,0.2,0,0.5,0.1,0.6c0.1,0.2,0.2,0.2,0.5,0.2c0.3,0,0.5-0.2,0.5-0.5c0-1.1-2.5-0.8-2.5-2.4
			c0-1.1,1.1-1.4,2-1.4c1,0,1.8,0.5,1.7,1.5H371c0-0.4,0-0.6-0.1-0.7c-0.1-0.1-0.2-0.1-0.4-0.1c-0.3,0-0.5,0.2-0.5,0.5
			c0,0.8,2.5,0.8,2.5,2.4c0,0.9-0.7,1.5-1.9,1.5c-1.2,0-2-0.3-2-1.7H370z"/>
		<path class="st3" d="M373.4,89.6h1.3l-0.8,2.3h-1L373.4,89.6z"/>
		<path class="st3" d="M213.3,95.7h1.4v2.6h0c0.3-0.4,0.6-0.6,1.1-0.6c1.4,0,1.4,1.6,1.4,2.6c0,1,0,2.7-1.4,2.7
			c-0.5,0-0.9-0.2-1.2-0.7h0v0.6h-1.3V95.7z M215.9,100.3c0-1,0-1.7-0.6-1.7c-0.6,0-0.6,0.7-0.6,1.7c0,1.3,0.1,1.8,0.6,1.8
			C215.8,102.1,215.9,101.6,215.9,100.3z"/>
		<path class="st3" d="M219.6,100.6c0,0.6,0,1.5,0.6,1.5c0.5,0,0.6-0.5,0.6-0.9h1.4c0,0.5-0.2,1-0.5,1.3c-0.3,0.3-0.8,0.5-1.5,0.5
			c-1.8,0-2.1-1.1-2.1-2.7c0-1.4,0.2-2.6,2.1-2.6c1.9,0,2.1,1.2,2.1,2.8H219.6z M220.9,99.8c0-0.5,0-1.2-0.6-1.2
			c-0.6,0-0.6,0.8-0.6,1.2H220.9z"/>
		<path class="st3" d="M226.7,101.3c0,0.2,0,0.5,0.1,0.6c0.1,0.2,0.2,0.2,0.5,0.2c0.3,0,0.5-0.2,0.5-0.5c0-1.1-2.5-0.8-2.5-2.4
			c0-1.1,1.1-1.4,2-1.4c1,0,1.8,0.5,1.7,1.5h-1.4c0-0.4,0-0.6-0.1-0.7c-0.1-0.1-0.2-0.1-0.4-0.1c-0.3,0-0.5,0.2-0.5,0.5
			c0,0.8,2.5,0.8,2.5,2.4c0,0.9-0.7,1.5-1.9,1.5c-1.2,0-2-0.3-2-1.7H226.7z"/>
		<path class="st3" d="M232.5,102.4L232.5,102.4c-0.2,0.2-0.3,0.4-0.5,0.5c-0.2,0.1-0.4,0.1-0.7,0.1c-0.7,0-1.3-0.4-1.3-1.1v-4h1.4
			v3.5c0,0.4,0.1,0.8,0.5,0.8s0.5-0.3,0.5-0.8v-3.5h1.4v4c0,0.3,0,0.7,0,1h-1.5V102.4z"/>
		<path class="st3" d="M236.3,97.8v0.6h0c0.3-0.6,0.7-0.8,1.3-0.8V99c-1.2-0.1-1.3,0.6-1.3,1.1v2.7H235v-5H236.3z"/>
		<path class="st3" d="M239.6,100.6c0,0.6,0,1.5,0.6,1.5c0.5,0,0.6-0.5,0.6-0.9h1.4c0,0.5-0.2,1-0.5,1.3c-0.3,0.3-0.8,0.5-1.5,0.5
			c-1.8,0-2.1-1.1-2.1-2.7c0-1.4,0.2-2.6,2.1-2.6c1.9,0,2.1,1.2,2.1,2.8H239.6z M240.9,99.8c0-0.5,0-1.2-0.6-1.2
			c-0.6,0-0.6,0.8-0.6,1.2H240.9z"/>
		<path class="st3" d="M245,97.8h0.6V97l1.4-0.6v1.4h0.7v0.9H247v2.7c0,0.4,0,0.6,0.4,0.6c0.1,0,0.2,0,0.2,0v0.9c-0.2,0-0.4,0-0.7,0
			c-1.2,0-1.4-0.8-1.4-1.1v-3.1H245V97.8z"/>
		<path class="st3" d="M248.2,100.3c0-1.4,0.2-2.6,2.1-2.6s2.1,1.2,2.1,2.6c0,1.6-0.2,2.7-2.1,2.7S248.2,101.9,248.2,100.3z
			 M250.9,100.2c0-1-0.1-1.6-0.6-1.6s-0.6,0.5-0.6,1.6c0,1.5,0.1,1.9,0.6,1.9C250.8,102.1,250.9,101.7,250.9,100.2z"/>
		<path class="st3" d="M255.4,100.3c0-1.4,0.2-2.6,2.1-2.6c1.9,0,2.1,1.2,2.1,2.6c0,1.6-0.2,2.7-2.1,2.7
			C255.7,103,255.4,101.9,255.4,100.3z M258.1,100.2c0-1-0.1-1.6-0.6-1.6s-0.6,0.5-0.6,1.6c0,1.5,0.1,1.9,0.6,1.9
			C258,102.1,258.1,101.7,258.1,100.2z"/>
		<path class="st3" d="M261.9,97.8v0.6h0c0.3-0.6,0.7-0.8,1.3-0.8V99c-1.2-0.1-1.3,0.6-1.3,1.1v2.7h-1.4v-5H261.9z"/>
		<path class="st3" d="M267.7,97.8v5.3c0,0.3,0,1.7-1.9,1.7c-1,0-1.9-0.3-2-1.5h1.4c0,0.2,0,0.4,0.1,0.5c0.1,0.1,0.2,0.2,0.5,0.2
			c0.3,0,0.5-0.3,0.5-0.8v-1h0c-0.2,0.4-0.6,0.6-1.1,0.6c-1.5,0-1.5-1.4-1.5-2.6c0-1.1,0-2.5,1.5-2.5c0.5,0,0.9,0.2,1.1,0.7h0v-0.6
			H267.7z M265.7,101.9c0.5,0,0.6-0.5,0.6-1.6c0-1.1,0-1.7-0.6-1.7c-0.5,0-0.6,0.4-0.6,1.9C265.1,101,265.1,101.9,265.7,101.9z"/>
		<path class="st3" d="M272.7,101.9c0,0.3,0,0.6,0.1,0.9h-1.3l-0.1-0.7h0c-0.3,0.5-0.7,0.8-1.3,0.8c-1,0-1.3-0.7-1.3-1.6
			c0-1.7,1.3-1.7,2.6-1.7v-0.4c0-0.4-0.1-0.7-0.6-0.7c-0.5,0-0.5,0.4-0.5,0.8h-1.4c0-0.6,0.2-1,0.5-1.2c0.3-0.2,0.8-0.3,1.3-0.3
			c1.8,0,2,0.8,2,1.7V101.9z M270.1,101.3c0,0.4,0.1,0.8,0.5,0.8c0.8,0,0.7-1.1,0.7-1.7C270.6,100.5,270.1,100.4,270.1,101.3z"/>
		<path class="st3" d="M276.9,98.8l-2,3.1h2v0.9h-3.4v-1l2-3.1h-1.9v-0.9h3.3V98.8z"/>
		<path class="st3" d="M279.2,98.3L279.2,98.3c0.2-0.2,0.3-0.4,0.5-0.5c0.2-0.1,0.4-0.1,0.7-0.1c0.7,0,1.3,0.4,1.3,1.1v4h-1.4v-3.5
			c0-0.4-0.1-0.8-0.5-0.8s-0.5,0.3-0.5,0.8v3.5h-1.4v-5h1.4V98.3z"/>
		<path class="st3" d="M284.3,95.7v1.1h-1.4v-1.1H284.3z M284.3,102.9h-1.4v-5h1.4V102.9z"/>
		<path class="st3" d="M288.6,98.8l-2,3.1h2v0.9h-3.4v-1l2-3.1h-1.9v-0.9h3.3V98.8z"/>
		<path class="st3" d="M290.7,100.6c0,0.6,0,1.5,0.6,1.5c0.5,0,0.6-0.5,0.6-0.9h1.4c0,0.5-0.2,1-0.5,1.3c-0.3,0.3-0.8,0.5-1.5,0.5
			c-1.8,0-2.1-1.1-2.1-2.7c0-1.4,0.2-2.6,2.1-2.6c1.9,0,2.1,1.2,2.1,2.8H290.7z M292,99.8c0-0.5,0-1.2-0.6-1.2
			c-0.6,0-0.6,0.8-0.6,1.2H292z"/>
		<path class="st3" d="M297.6,102.9l-1.4-5.1h1.4l0.7,3.5h0l0.8-3.5h1.4l-1.9,7H297L297.6,102.9z"/>
		<path class="st3" d="M301,100.3c0-1.4,0.2-2.6,2.1-2.6s2.1,1.2,2.1,2.6c0,1.6-0.2,2.7-2.1,2.7S301,101.9,301,100.3z M303.7,100.2
			c0-1-0.1-1.6-0.6-1.6s-0.6,0.5-0.6,1.6c0,1.5,0.1,1.9,0.6,1.9C303.6,102.1,303.7,101.7,303.7,100.2z"/>
		<path class="st3" d="M308.6,102.4L308.6,102.4c-0.2,0.2-0.3,0.4-0.5,0.5c-0.2,0.1-0.4,0.1-0.7,0.1c-0.7,0-1.3-0.4-1.3-1.1v-4h1.4
			v3.5c0,0.4,0.1,0.8,0.5,0.8s0.5-0.3,0.5-0.8v-3.5h1.4v4c0,0.3,0,0.7,0,1h-1.5V102.4z"/>
		<path class="st3" d="M312.4,97.8v0.6h0c0.3-0.6,0.7-0.8,1.3-0.8V99c-1.2-0.1-1.3,0.6-1.3,1.1v2.7h-1.4v-5H312.4z"/>
		<path class="st3" d="M318.1,98.3L318.1,98.3c0.2-0.2,0.3-0.4,0.5-0.5c0.2-0.1,0.4-0.1,0.7-0.1c0.7,0,1.3,0.4,1.3,1.1v4h-1.4v-3.5
			c0-0.4-0.1-0.8-0.5-0.8s-0.5,0.3-0.5,0.8v3.5h-1.4v-5h1.4V98.3z"/>
		<path class="st3" d="M321.5,100.3c0-1.4,0.2-2.6,2.1-2.6s2.1,1.2,2.1,2.6c0,1.6-0.2,2.7-2.1,2.7S321.5,101.9,321.5,100.3z
			 M324.2,100.2c0-1-0.1-1.6-0.6-1.6s-0.6,0.5-0.6,1.6c0,1.5,0.1,1.9,0.6,1.9C324.1,102.1,324.2,101.7,324.2,100.2z"/>
		<path class="st3" d="M326.1,97.8h0.6V97l1.4-0.6v1.4h0.7v0.9h-0.7v2.7c0,0.4,0,0.6,0.4,0.6c0.1,0,0.2,0,0.2,0v0.9
			c-0.2,0-0.4,0-0.7,0c-1.2,0-1.4-0.8-1.4-1.1v-3.1h-0.6V97.8z"/>
		<path class="st3" d="M330.7,100.6c0,0.6,0,1.5,0.6,1.5c0.5,0,0.6-0.5,0.6-0.9h1.4c0,0.5-0.2,1-0.5,1.3c-0.3,0.3-0.8,0.5-1.5,0.5
			c-1.8,0-2.1-1.1-2.1-2.7c0-1.4,0.2-2.6,2.1-2.6c1.9,0,2.1,1.2,2.1,2.8H330.7z M332,99.8c0-0.5,0-1.2-0.6-1.2
			c-0.6,0-0.6,0.8-0.6,1.2H332z"/>
		<path class="st3" d="M335.5,101.3c0,0.2,0,0.5,0.1,0.6c0.1,0.2,0.2,0.2,0.5,0.2c0.3,0,0.5-0.2,0.5-0.5c0-1.1-2.5-0.8-2.5-2.4
			c0-1.1,1.1-1.4,2-1.4c1,0,1.8,0.5,1.7,1.5h-1.4c0-0.4,0-0.6-0.1-0.7c-0.1-0.1-0.2-0.1-0.4-0.1c-0.3,0-0.5,0.2-0.5,0.5
			c0,0.8,2.5,0.8,2.5,2.4c0,0.9-0.7,1.5-1.9,1.5c-1.2,0-2-0.3-2-1.7H335.5z"/>
		<path class="st3" d="M340.6,97.8h1.4l0.7,3.8h0l1-3.8h1.5l0.9,3.8h0l0.8-3.8h1.3l-1.4,5h-1.5l-0.9-3.4h0l-1,3.4h-1.5L340.6,97.8z"
			/>
		<path class="st3" d="M350.2,100.6c0,0.6,0,1.5,0.6,1.5c0.5,0,0.6-0.5,0.6-0.9h1.4c0,0.5-0.2,1-0.5,1.3c-0.3,0.3-0.8,0.5-1.5,0.5
			c-1.8,0-2.1-1.1-2.1-2.7c0-1.4,0.2-2.6,2.1-2.6c1.9,0,2.1,1.2,2.1,2.8H350.2z M351.5,99.8c0-0.5,0-1.2-0.6-1.2
			c-0.6,0-0.6,0.8-0.6,1.2H351.5z"/>
		<path class="st3" d="M355.4,95.7v7.2H354v-7.2H355.4z"/>
		<path class="st3" d="M358.2,95.7v7.2h-1.4v-7.2H358.2z"/>
	</g>
	<line class="st4" x1="59.8" y1="101.4" x2="204.4" y2="101.4"/>
</g>
<g>
	<g id="audio">
		<path class="st1" d="M339,123v4.1c0,2.3,1.9,4.2,4.2,4.2h2.3c1.2,0,2.5,0.4,3.5,1.1l8.2,5.9c1,0.7,2.5,0,2.5-1.3V114
			c0-1.2-1.3-1.8-2.3-1.2l-7.8,5.3c-1.1,0.7-2.4,1.1-3.7,1.1h-3.1C340.8,119.2,339,120.9,339,123z"/>
		<path class="st1" d="M374.4,131.9c-0.5,0.5-1.4,0.5-1.9,0l-4.6-4.6l-4.3,4.3c-0.5,0.5-1.4,0.5-1.9,0c-0.5-0.5-0.5-1.4,0-1.9
			l4.3-4.3l-3.6-3.6c-0.5-0.5-0.5-1.4,0-1.9c0.3-0.3,0.6-0.4,0.9-0.4c0.3,0,0.7,0.1,0.9,0.4l3.6,3.6l4-4c0.5-0.5,1.4-0.5,1.9,0
			c0.3,0.3,0.4,0.6,0.4,0.9c0,0.3-0.1,0.7-0.4,0.9l-4,4l4.6,4.6C374.9,130.6,374.9,131.4,374.4,131.9z"/>
	</g>
	<g>
		<path class="st3" d="M19.9,130v1.2h-1.7v6h-1.5v-6H15V130H19.9z"/>
		<path class="st3" d="M21.1,132.2v0.6h0c0.3-0.6,0.7-0.8,1.3-0.8v1.3c-1.2-0.1-1.3,0.6-1.3,1.1v2.7h-1.4v-5H21.1z"/>
		<path class="st3" d="M24,137.3l-1.4-5.1h1.4l0.7,3.5h0l0.8-3.5h1.4l-1.9,7h-1.5L24,137.3z"/>
		<path class="st3" d="M31.2,132.7L31.2,132.7c0.2-0.2,0.3-0.4,0.5-0.5c0.2-0.1,0.4-0.1,0.7-0.1c0.7,0,1.3,0.4,1.3,1.1v4h-1.4v-3.5
			c0-0.4-0.1-0.8-0.5-0.8s-0.5,0.3-0.5,0.8v3.5h-1.4v-5h1.4V132.7z"/>
		<path class="st3" d="M34.7,134.7c0-1.4,0.2-2.6,2.1-2.6s2.1,1.2,2.1,2.6c0,1.6-0.2,2.7-2.1,2.7C34.9,137.4,34.7,136.2,34.7,134.7z
			 M37.4,134.6c0-1-0.1-1.6-0.6-1.6s-0.6,0.5-0.6,1.6c0,1.5,0.1,1.9,0.6,1.9C37.2,136.5,37.4,136.1,37.4,134.6z"/>
		<path class="st3" d="M39.2,132.2h0.6v-0.8l1.4-0.6v1.4h0.7v0.9h-0.7v2.7c0,0.4,0,0.6,0.4,0.6c0.1,0,0.2,0,0.2,0v0.9
			c-0.2,0-0.4,0-0.7,0c-1.2,0-1.4-0.8-1.4-1.1v-3.1h-0.6V132.2z"/>
		<path class="st3" d="M44.2,132.2h0.6v-0.8l1.4-0.6v1.4h0.7v0.9h-0.7v2.7c0,0.4,0,0.6,0.4,0.6c0.1,0,0.2,0,0.2,0v0.9
			c-0.2,0-0.4,0-0.7,0c-1.2,0-1.4-0.8-1.4-1.1v-3.1h-0.6V132.2z"/>
		<path class="st3" d="M47.4,134.7c0-1.4,0.2-2.6,2.1-2.6s2.1,1.2,2.1,2.6c0,1.6-0.2,2.7-2.1,2.7C47.7,137.4,47.4,136.2,47.4,134.7z
			 M50.2,134.6c0-1-0.1-1.6-0.6-1.6s-0.6,0.5-0.6,1.6c0,1.5,0.1,1.9,0.6,1.9C50,136.5,50.2,136.1,50.2,134.6z"/>
		<path class="st3" d="M58.6,136.3c0,0.3,0,0.6,0.1,0.9h-1.3l-0.1-0.7h0c-0.3,0.5-0.7,0.8-1.3,0.8c-1,0-1.3-0.7-1.3-1.6
			c0-1.7,1.3-1.7,2.6-1.7v-0.4c0-0.4-0.1-0.7-0.6-0.7c-0.5,0-0.5,0.4-0.5,0.8h-1.4c0-0.6,0.2-1,0.5-1.2c0.3-0.2,0.8-0.3,1.3-0.3
			c1.8,0,2,0.8,2,1.7V136.3z M56,135.7c0,0.4,0.1,0.8,0.5,0.8c0.8,0,0.7-1.1,0.7-1.7C56.5,134.8,56,134.8,56,135.7z"/>
		<path class="st3" d="M61.1,132.2v0.6h0c0.3-0.6,0.7-0.8,1.3-0.8v1.3c-1.2-0.1-1.3,0.6-1.3,1.1v2.7h-1.4v-5H61.1z"/>
		<path class="st3" d="M67,132.2v5.3c0,0.3,0,1.7-1.9,1.7c-1,0-1.9-0.3-2-1.5h1.4c0,0.2,0,0.4,0.1,0.5c0.1,0.1,0.2,0.2,0.5,0.2
			c0.3,0,0.5-0.3,0.5-0.8v-1h0c-0.2,0.4-0.6,0.6-1.1,0.6c-1.5,0-1.5-1.4-1.5-2.6c0-1.1,0-2.5,1.5-2.5c0.5,0,0.9,0.2,1.1,0.7h0v-0.6
			H67z M65,136.3c0.5,0,0.6-0.5,0.6-1.6c0-1.1,0-1.7-0.6-1.7c-0.5,0-0.6,0.4-0.6,1.9C64.4,135.4,64.3,136.3,65,136.3z"/>
		<path class="st3" d="M70.6,136.7L70.6,136.7c-0.2,0.2-0.3,0.4-0.5,0.5c-0.2,0.1-0.4,0.1-0.7,0.1c-0.7,0-1.3-0.4-1.3-1.1v-4h1.4
			v3.5c0,0.4,0.1,0.8,0.5,0.8s0.5-0.3,0.5-0.8v-3.5H72v4c0,0.3,0,0.7,0,1h-1.5V136.7z"/>
		<path class="st3" d="M74.4,135c0,0.6,0,1.5,0.6,1.5c0.5,0,0.6-0.5,0.6-0.9h1.4c0,0.5-0.2,1-0.5,1.3c-0.3,0.3-0.8,0.5-1.5,0.5
			c-1.8,0-2.1-1.1-2.1-2.7c0-1.4,0.2-2.6,2.1-2.6c1.9,0,2.1,1.2,2.1,2.8H74.4z M75.7,134.2c0-0.5,0-1.2-0.6-1.2
			c-0.6,0-0.6,0.8-0.6,1.2H75.7z"/>
		<path class="st3" d="M79.9,132.2h1.4L82,136h0l1-3.8h1.5l0.9,3.8h0l0.8-3.8h1.3l-1.4,5h-1.5l-0.9-3.4h0l-1,3.4h-1.5L79.9,132.2z"
			/>
		<path class="st3" d="M89.6,130v1.1h-1.4V130H89.6z M89.6,137.3h-1.4v-5h1.4V137.3z"/>
		<path class="st3" d="M90.3,132.2h0.6v-0.8l1.4-0.6v1.4H93v0.9h-0.7v2.7c0,0.4,0,0.6,0.4,0.6c0.1,0,0.2,0,0.2,0v0.9
			c-0.2,0-0.4,0-0.7,0c-1.2,0-1.4-0.8-1.4-1.1v-3.1h-0.6V132.2z"/>
		<path class="st3" d="M96.1,137.3v-3.5c0-0.4-0.1-0.8-0.5-0.8s-0.5,0.3-0.5,0.8v3.5h-1.4V130h1.4v2.7h0c0.1-0.2,0.3-0.4,0.5-0.5
			c0.2-0.1,0.4-0.1,0.7-0.1c0.7,0,1.3,0.4,1.3,1.1v4H96.1z"/>
		<path class="st3" d="M100.3,132.2h0.6v-0.8l1.4-0.6v1.4h0.7v0.9h-0.7v2.7c0,0.4,0,0.6,0.4,0.6c0.1,0,0.2,0,0.2,0v0.9
			c-0.2,0-0.4,0-0.7,0c-1.2,0-1.4-0.8-1.4-1.1v-3.1h-0.6V132.2z"/>
		<path class="st3" d="M106.1,137.3v-3.5c0-0.4-0.1-0.8-0.5-0.8s-0.5,0.3-0.5,0.8v3.5h-1.4V130h1.4v2.7h0c0.1-0.2,0.3-0.4,0.5-0.5
			c0.2-0.1,0.4-0.1,0.7-0.1c0.7,0,1.3,0.4,1.3,1.1v4H106.1z"/>
		<path class="st3" d="M110,135c0,0.6,0,1.5,0.6,1.5c0.5,0,0.6-0.5,0.6-0.9h1.4c0,0.5-0.2,1-0.5,1.3c-0.3,0.3-0.8,0.5-1.5,0.5
			c-1.8,0-2.1-1.1-2.1-2.7c0-1.4,0.2-2.6,2.1-2.6c1.9,0,2.1,1.2,2.1,2.8H110z M111.3,134.2c0-0.5,0-1.2-0.6-1.2
			c-0.6,0-0.6,0.8-0.6,1.2H111.3z"/>
		<path class="st3" d="M115.3,132.2h0.6v-0.8l1.4-0.6v1.4h0.7v0.9h-0.7v2.7c0,0.4,0,0.6,0.4,0.6c0.1,0,0.2,0,0.2,0v0.9
			c-0.2,0-0.4,0-0.7,0c-1.2,0-1.4-0.8-1.4-1.1v-3.1h-0.6V132.2z"/>
		<path class="st3" d="M120,135c0,0.6,0,1.5,0.6,1.5c0.5,0,0.6-0.5,0.6-0.9h1.4c0,0.5-0.2,1-0.5,1.3c-0.3,0.3-0.8,0.5-1.5,0.5
			c-1.8,0-2.1-1.1-2.1-2.7c0-1.4,0.2-2.6,2.1-2.6c1.9,0,2.1,1.2,2.1,2.8H120z M121.3,134.2c0-0.5,0-1.2-0.6-1.2
			c-0.6,0-0.6,0.8-0.6,1.2H121.3z"/>
		<path class="st3" d="M127.5,136.3c0,0.3,0,0.6,0.1,0.9h-1.3l-0.1-0.7h0c-0.3,0.5-0.7,0.8-1.3,0.8c-1,0-1.3-0.7-1.3-1.6
			c0-1.7,1.3-1.7,2.6-1.7v-0.4c0-0.4-0.1-0.7-0.6-0.7c-0.5,0-0.5,0.4-0.5,0.8h-1.4c0-0.6,0.2-1,0.5-1.2c0.3-0.2,0.8-0.3,1.3-0.3
			c1.8,0,2,0.8,2,1.7V136.3z M124.9,135.7c0,0.4,0.1,0.8,0.5,0.8c0.8,0,0.7-1.1,0.7-1.7C125.4,134.8,124.9,134.8,124.9,135.7z"/>
		<path class="st3" d="M131.2,134c0-0.8-0.2-1-0.6-1c-0.6,0-0.6,0.5-0.6,1.6c0,1.5,0.1,1.9,0.6,1.9c0.4,0,0.6-0.4,0.6-1.1h1.4
			c0,1.4-0.7,2-2.1,2c-1.8,0-2.1-1.1-2.1-2.7c0-1.4,0.2-2.6,2.1-2.6c1.3,0,2,0.6,2,1.9H131.2z"/>
		<path class="st3" d="M136.1,137.3v-3.5c0-0.4-0.1-0.8-0.5-0.8s-0.5,0.3-0.5,0.8v3.5h-1.4V130h1.4v2.7h0c0.1-0.2,0.3-0.4,0.5-0.5
			c0.2-0.1,0.4-0.1,0.7-0.1c0.7,0,1.3,0.4,1.3,1.1v4H136.1z"/>
		<path class="st3" d="M140,135c0,0.6,0,1.5,0.6,1.5c0.5,0,0.6-0.5,0.6-0.9h1.4c0,0.5-0.2,1-0.5,1.3c-0.3,0.3-0.8,0.5-1.5,0.5
			c-1.8,0-2.1-1.1-2.1-2.7c0-1.4,0.2-2.6,2.1-2.6c1.9,0,2.1,1.2,2.1,2.8H140z M141.3,134.2c0-0.5,0-1.2-0.6-1.2
			c-0.6,0-0.6,0.8-0.6,1.2H141.3z"/>
		<path class="st3" d="M145,132.2v0.6h0c0.3-0.6,0.7-0.8,1.3-0.8v1.3c-1.2-0.1-1.3,0.6-1.3,1.1v2.7h-1.4v-5H145z"/>
		<path class="st3" d="M148.7,132.2h0.6v-0.8l1.4-0.6v1.4h0.7v0.9h-0.7v2.7c0,0.4,0,0.6,0.4,0.6c0.1,0,0.2,0,0.2,0v0.9
			c-0.2,0-0.4,0-0.7,0c-1.2,0-1.4-0.8-1.4-1.1v-3.1h-0.6V132.2z"/>
		<path class="st3" d="M151.9,134.7c0-1.4,0.2-2.6,2.1-2.6s2.1,1.2,2.1,2.6c0,1.6-0.2,2.7-2.1,2.7S151.9,136.2,151.9,134.7z
			 M154.6,134.6c0-1-0.1-1.6-0.6-1.6s-0.6,0.5-0.6,1.6c0,1.5,0.1,1.9,0.6,1.9C154.5,136.5,154.6,136.1,154.6,134.6z"/>
		<path class="st3" d="M156.9,134.7c0-1.4,0.2-2.6,2.1-2.6s2.1,1.2,2.1,2.6c0,1.6-0.2,2.7-2.1,2.7S156.9,136.2,156.9,134.7z
			 M159.6,134.6c0-1-0.1-1.6-0.6-1.6s-0.6,0.5-0.6,1.6c0,1.5,0.1,1.9,0.6,1.9C159.5,136.5,159.6,136.1,159.6,134.6z"/>
		<path class="st3" d="M164.1,134.7c0-1.4,0.2-2.6,2.1-2.6s2.1,1.2,2.1,2.6c0,1.6-0.2,2.7-2.1,2.7S164.1,136.2,164.1,134.7z
			 M166.8,134.6c0-1-0.1-1.6-0.6-1.6s-0.6,0.5-0.6,1.6c0,1.5,0.1,1.9,0.6,1.9C166.7,136.5,166.8,136.1,166.8,134.6z"/>
		<path class="st3" d="M171.4,130.9c-0.6,0-0.7,0.2-0.7,0.7v0.6h0.7v0.9h-0.7v4.2h-1.4v-4.2h-0.6v-0.9h0.6c0-1.4-0.1-2.2,1.6-2.2
			c0.2,0,0.3,0,0.5,0V130.9z"/>
		<path class="st3" d="M171.4,132.2h0.6v-0.8l1.4-0.6v1.4h0.7v0.9h-0.7v2.7c0,0.4,0,0.6,0.4,0.6c0.1,0,0.2,0,0.2,0v0.9
			c-0.2,0-0.4,0-0.7,0c-1.2,0-1.4-0.8-1.4-1.1v-3.1h-0.6V132.2z"/>
		<path class="st3" d="M176.1,135c0,0.6,0,1.5,0.6,1.5c0.5,0,0.6-0.5,0.6-0.9h1.4c0,0.5-0.2,1-0.5,1.3c-0.3,0.3-0.8,0.5-1.5,0.5
			c-1.8,0-2.1-1.1-2.1-2.7c0-1.4,0.2-2.6,2.1-2.6c1.9,0,2.1,1.2,2.1,2.8H176.1z M177.4,134.2c0-0.5,0-1.2-0.6-1.2
			c-0.6,0-0.6,0.8-0.6,1.2H177.4z"/>
		<path class="st3" d="M181.2,132.7L181.2,132.7c0.2-0.2,0.3-0.4,0.5-0.5c0.2-0.1,0.4-0.1,0.7-0.1c0.7,0,1.3,0.4,1.3,1.1v4h-1.4
			v-3.5c0-0.4-0.1-0.8-0.5-0.8s-0.5,0.3-0.5,0.8v3.5h-1.4v-5h1.4V132.7z"/>
	</g>
	<line class="st4" x1="188.5" y1="138.3" x2="340.2" y2="138.3"/>
</g>
<g>
	<g id="free">
		<g>
			
				<rect x="357.6" y="204.5" transform="matrix(0.7071 0.7071 -0.7071 0.7071 256.0709 -190.9464)" class="st1" width="1.9" height="18.3"/>
			<polygon class="st1" points="362.6,204.7 367.2,209.4 367.8,204.1 			"/>
		</g>
		<g>
			
				<rect x="349" y="201.2" transform="matrix(0.9659 -0.2588 0.2588 0.9659 -42.5227 97.7329)" class="st1" width="1.9" height="18.3"/>
			<polygon class="st1" points="344.2,202.4 350.6,200.7 346.3,197.6 			"/>
		</g>
		<g>
			
				<rect x="341.8" y="207" transform="matrix(0.2588 -0.9659 0.9659 0.2588 45.2421 491.3318)" class="st1" width="1.9" height="18.3"/>
			<polygon class="st1" points="333,217.2 334.7,210.8 329.9,212.9 			"/>
		</g>
		<g>
			
				<rect x="343.3" y="216.1" transform="matrix(-0.7071 -0.7071 0.7071 -0.7071 428.3818 627.9982)" class="st1" width="1.9" height="18.3"/>
			<polygon class="st1" points="340.2,234.2 335.6,229.5 335,234.8 			"/>
		</g>
		<g>
			
				<rect x="351.9" y="219.4" transform="matrix(-0.9659 0.2588 -0.2588 -0.9659 752.8596 357.9797)" class="st1" width="1.9" height="18.3"/>
			<polygon class="st1" points="358.6,236.5 352.2,238.2 356.5,241.4 			"/>
		</g>
		<g>
			
				<rect x="359.1" y="213.6" transform="matrix(-0.2588 0.9659 -0.9659 -0.2588 668.3135 -67.3661)" class="st1" width="1.9" height="18.3"/>
			<polygon class="st1" points="369.8,221.8 368,228.1 372.9,226 			"/>
		</g>
	</g>
	<g>
		<path class="st3" d="M16.7,232.4l2-7.2h2l2,7.2h-1.6l-0.4-1.6h-2.1l-0.4,1.6H16.7z M19.6,226.6L19.6,226.6l-0.7,3.1h1.4
			L19.6,226.6z"/>
		<path class="st3" d="M22.6,227.4h1.4l0.7,3.8h0l0.7-3.8h1.4l-1.4,5H24L22.6,227.4z"/>
		<path class="st3" d="M27.4,229.8c0-1.4,0.2-2.6,2.1-2.6c1.9,0,2.1,1.2,2.1,2.6c0,1.6-0.2,2.7-2.1,2.7
			C27.7,232.5,27.4,231.4,27.4,229.8z M30.1,229.7c0-1-0.1-1.6-0.7-1.6s-0.6,0.5-0.6,1.6c0,1.5,0.1,1.9,0.6,1.9
			C30,231.6,30.1,231.3,30.1,229.7z"/>
		<path class="st3" d="M34.1,225.2v1.1h-1.4v-1.1H34.1z M34.1,232.4h-1.4v-5h1.4V232.4z"/>
		<path class="st3" d="M37.9,232.4v-0.6h0c-0.3,0.5-0.6,0.7-1.2,0.7c-1.5,0-1.4-1.6-1.4-2.7c0-1,0-2.6,1.4-2.6
			c0.5,0,0.9,0.2,1.1,0.6h0v-2.6h1.4v7.2H37.9z M37.8,229.8c0-1,0-1.7-0.6-1.7c-0.6,0-0.6,0.7-0.6,1.7c0,1.3,0.1,1.8,0.6,1.8
			C37.7,231.6,37.8,231.1,37.8,229.8z"/>
		<path class="st3" d="M46.1,226.1c-0.6,0-0.7,0.2-0.8,0.7l-0.1,0.6h0.7l-0.2,0.9h-0.7l-0.9,4.2h-1.4l0.9-4.2h-0.6l0.2-0.9h0.6
			c0.3-1.4,0.3-2.2,2.1-2.2c0.2,0,0.3,0,0.5,0L46.1,226.1z"/>
		<path class="st3" d="M47.7,227.4l-0.1,0.6h0c0.4-0.6,0.9-0.8,1.5-0.8l-0.3,1.3c-1.2-0.1-1.4,0.6-1.5,1.1l-0.6,2.7h-1.4l1.1-5H47.7
			z"/>
		<path class="st3" d="M50.5,230.1c-0.1,0.6-0.3,1.5,0.3,1.5c0.5,0,0.7-0.5,0.8-0.9H53c-0.1,0.5-0.4,1-0.8,1.3
			c-0.4,0.3-0.9,0.5-1.6,0.5c-1.8,0-1.8-1.1-1.5-2.7c0.3-1.4,0.7-2.6,2.6-2.6c1.9,0,1.8,1.2,1.5,2.8H50.5z M51.9,229.3
			c0.1-0.5,0.3-1.2-0.4-1.2c-0.6,0-0.8,0.8-0.9,1.2H51.9z"/>
		<path class="st3" d="M55.5,230.1c-0.1,0.6-0.3,1.5,0.3,1.5c0.5,0,0.7-0.5,0.8-0.9H58c-0.1,0.5-0.4,1-0.8,1.3
			c-0.4,0.3-0.9,0.5-1.6,0.5c-1.8,0-1.8-1.1-1.5-2.7c0.3-1.4,0.7-2.6,2.6-2.6c1.9,0,1.8,1.2,1.5,2.8H55.5z M56.9,229.3
			c0.1-0.5,0.3-1.2-0.4-1.2c-0.6,0-0.8,0.8-0.9,1.2H56.9z"/>
		<path class="st3" d="M61.4,227.4H62l0.2-0.8l1.5-0.6l-0.3,1.4h0.7l-0.2,0.9h-0.7l-0.6,2.7c-0.1,0.4-0.1,0.6,0.3,0.6
			c0.1,0,0.2,0,0.2,0l-0.2,0.9c-0.2,0-0.4,0-0.7,0c-1.2,0-1.2-0.8-1.1-1.1l0.7-3.1h-0.6L61.4,227.4z"/>
		<path class="st3" d="M66.1,232.4l0.7-3.5c0.1-0.4,0.1-0.8-0.4-0.8c-0.4,0-0.6,0.3-0.7,0.8l-0.7,3.5h-1.4l1.5-7.2h1.4l-0.6,2.7h0
			c0.2-0.2,0.4-0.4,0.6-0.5c0.2-0.1,0.5-0.1,0.7-0.1c0.7,0,1.2,0.4,1,1.1l-0.9,4H66.1z"/>
		<path class="st3" d="M70.2,232.4h-1.4l1.1-5h1.4L70.2,232.4z M71.7,225.2l-0.2,1.1h-1.4l0.2-1.1H71.7z"/>
		<path class="st3" d="M73.8,227.9L73.8,227.9c0.2-0.2,0.4-0.4,0.6-0.5c0.2-0.1,0.5-0.1,0.7-0.1c0.7,0,1.2,0.4,1,1.1l-0.9,4h-1.4
			l0.7-3.5c0.1-0.4,0.1-0.8-0.4-0.8c-0.5,0-0.6,0.3-0.7,0.8l-0.7,3.5h-1.4l1.1-5h1.4L73.8,227.9z"/>
		<path class="st3" d="M76.4,232.4l1.5-7.2h1.4l-0.9,4.3h0l1.7-2.1h1.5l-1.9,2.2l1,2.8h-1.6l-0.7-2.7h0l-0.6,2.7H76.4z"/>
		<path class="st3" d="M83,232.4h-1.4l1.1-5H84L83,232.4z M84.5,225.2l-0.2,1.1h-1.4l0.2-1.1H84.5z"/>
		<path class="st3" d="M86.6,227.9L86.6,227.9c0.2-0.2,0.4-0.4,0.6-0.5c0.2-0.1,0.5-0.1,0.7-0.1c0.7,0,1.2,0.4,1,1.1l-0.9,4h-1.4
			l0.7-3.5c0.1-0.4,0.1-0.8-0.4-0.8c-0.5,0-0.6,0.3-0.7,0.8l-0.7,3.5h-1.4l1.1-5h1.4L86.6,227.9z"/>
		<path class="st3" d="M94.1,227.4l-1.1,5.3c-0.1,0.3-0.3,1.7-2.3,1.7c-1,0-1.9-0.3-1.7-1.5h1.4c0,0.2-0.1,0.4,0,0.5
			c0.1,0.1,0.2,0.2,0.4,0.2c0.4,0,0.6-0.3,0.7-0.8l0.2-1h0c-0.3,0.4-0.7,0.6-1.2,0.6c-1.5,0-1.2-1.4-0.9-2.6c0.2-1.1,0.5-2.5,2-2.5
			c0.5,0,0.9,0.2,1,0.7h0l0.1-0.6H94.1z M91.3,231.5c0.5,0,0.7-0.5,0.9-1.6c0.2-1.1,0.3-1.7-0.2-1.7c-0.5,0-0.7,0.4-1,1.9
			C90.9,230.5,90.6,231.5,91.3,231.5z"/>
		<path class="st3" d="M95.9,227.4h0.6v-0.8l1.4-0.6v1.4h0.7v0.9h-0.7v2.7c0,0.4,0,0.6,0.4,0.6c0.1,0,0.2,0,0.2,0v0.9
			c-0.2,0-0.4,0-0.7,0c-1.2,0-1.4-0.8-1.4-1.1v-3.1h-0.6V227.4z"/>
		<path class="st3" d="M100.5,230.1c0,0.6,0,1.5,0.6,1.5c0.5,0,0.6-0.5,0.6-0.9h1.4c0,0.5-0.2,1-0.5,1.3c-0.3,0.3-0.8,0.5-1.5,0.5
			c-1.8,0-2.1-1.1-2.1-2.7c0-1.4,0.2-2.6,2.1-2.6c1.9,0,2.1,1.2,2.1,2.8H100.5z M101.8,229.3c0-0.5,0-1.2-0.7-1.2
			c-0.6,0-0.6,0.8-0.6,1.2H101.8z"/>
		<path class="st3" d="M108.1,231.5c0,0.3,0,0.6,0.1,0.9h-1.3l-0.1-0.7h0c-0.3,0.5-0.7,0.8-1.3,0.8c-1,0-1.3-0.7-1.3-1.6
			c0-1.7,1.3-1.7,2.6-1.7v-0.4c0-0.4-0.1-0.7-0.6-0.7c-0.5,0-0.5,0.4-0.5,0.8h-1.4c0-0.6,0.2-1,0.5-1.2c0.3-0.2,0.8-0.3,1.3-0.3
			c1.8,0,2,0.8,2,1.7V231.5z M105.5,230.8c0,0.4,0.1,0.8,0.5,0.8c0.8,0,0.7-1.1,0.7-1.7C106,230,105.5,229.9,105.5,230.8z"/>
		<path class="st3" d="M111.8,229.2c0-0.8-0.2-1-0.6-1c-0.6,0-0.6,0.5-0.6,1.6c0,1.5,0.1,1.9,0.6,1.9c0.4,0,0.7-0.4,0.7-1.1h1.4
			c0,1.4-0.7,2-2.1,2c-1.8,0-2.1-1.1-2.1-2.7c0-1.4,0.2-2.6,2.1-2.6c1.3,0,2,0.6,2,1.9H111.8z"/>
		<path class="st3" d="M116.7,232.4v-3.5c0-0.4-0.1-0.8-0.5-0.8c-0.4,0-0.5,0.3-0.5,0.8v3.5h-1.4v-7.2h1.4v2.7h0
			c0.1-0.2,0.3-0.4,0.5-0.5c0.2-0.1,0.4-0.1,0.7-0.1c0.7,0,1.3,0.4,1.3,1.1v4H116.7z"/>
		<path class="st3" d="M120.5,230.1c0,0.6,0,1.5,0.6,1.5c0.5,0,0.6-0.5,0.6-0.9h1.4c0,0.5-0.2,1-0.5,1.3c-0.3,0.3-0.8,0.5-1.5,0.5
			c-1.8,0-2.1-1.1-2.1-2.7c0-1.4,0.2-2.6,2.1-2.6c1.9,0,2.1,1.2,2.1,2.8H120.5z M121.8,229.3c0-0.5,0-1.2-0.7-1.2
			c-0.6,0-0.6,0.8-0.6,1.2H121.8z"/>
		<path class="st3" d="M125.6,227.4v0.6h0c0.3-0.6,0.7-0.8,1.3-0.8v1.3c-1.2-0.1-1.3,0.6-1.3,1.1v2.7h-1.4v-5H125.6z"/>
		<path class="st3" d="M128.7,230.8c0,0.2,0,0.5,0.1,0.6c0.1,0.2,0.2,0.2,0.5,0.2s0.5-0.2,0.5-0.5c0-1.1-2.5-0.8-2.5-2.4
			c0-1.1,1.1-1.4,2-1.4c1,0,1.8,0.5,1.7,1.5h-1.4c0-0.4,0-0.6-0.1-0.7c-0.1-0.1-0.2-0.1-0.4-0.1c-0.3,0-0.5,0.2-0.5,0.5
			c0,0.8,2.5,0.8,2.5,2.4c0,0.9-0.7,1.5-1.9,1.5c-1.2,0-2-0.3-2-1.7H128.7z"/>
		<path class="st3" d="M135.7,225.2v1.1h-1.4v-1.1H135.7z M135.7,232.4h-1.4v-5h1.4V232.4z"/>
		<path class="st3" d="M139.2,226.1c-0.6,0-0.7,0.2-0.7,0.7v0.6h0.7v0.9h-0.7v4.2h-1.4v-4.2h-0.6v-0.9h0.6c0-1.4-0.1-2.2,1.6-2.2
			c0.2,0,0.3,0,0.5,0V226.1z"/>
		<path class="st3" d="M141.4,227.4h0.6v-0.8l1.4-0.6v1.4h0.7v0.9h-0.7v2.7c0,0.4,0,0.6,0.5,0.6c0.1,0,0.2,0,0.2,0v0.9
			c-0.2,0-0.4,0-0.7,0c-1.2,0-1.4-0.8-1.4-1.1v-3.1h-0.6V227.4z"/>
		<path class="st3" d="M147.2,232.4v-3.5c0-0.4-0.1-0.8-0.5-0.8c-0.5,0-0.5,0.3-0.5,0.8v3.5h-1.4v-7.2h1.4v2.7h0
			c0.1-0.2,0.3-0.4,0.5-0.5c0.2-0.1,0.4-0.1,0.7-0.1c0.7,0,1.3,0.4,1.3,1.1v4H147.2z"/>
		<path class="st3" d="M151.1,230.1c0,0.6,0,1.5,0.6,1.5c0.5,0,0.6-0.5,0.6-0.9h1.4c0,0.5-0.2,1-0.5,1.3c-0.3,0.3-0.8,0.5-1.5,0.5
			c-1.8,0-2.1-1.1-2.1-2.7c0-1.4,0.2-2.6,2.1-2.6c1.9,0,2.1,1.2,2.1,2.8H151.1z M152.4,229.3c0-0.5,0-1.2-0.6-1.2
			c-0.6,0-0.6,0.8-0.6,1.2H152.4z"/>
		<path class="st3" d="M155.7,232.5l-1.4-5.1h1.4l0.7,3.5h0l0.8-3.5h1.4l-1.9,7h-1.5L155.7,232.5z"/>
		<path class="st3" d="M164,229.2c0-0.8-0.2-1-0.6-1c-0.6,0-0.6,0.5-0.6,1.6c0,1.5,0.1,1.9,0.6,1.9c0.4,0,0.7-0.4,0.7-1.1h1.4
			c0,1.4-0.7,2-2.1,2c-1.8,0-2.1-1.1-2.1-2.7c0-1.4,0.2-2.6,2.1-2.6c1.3,0,2,0.6,2,1.9H164z"/>
		<path class="st3" d="M166.3,229.8c0-1.4,0.2-2.6,2.1-2.6c1.9,0,2.1,1.2,2.1,2.6c0,1.6-0.2,2.7-2.1,2.7
			C166.6,232.5,166.3,231.4,166.3,229.8z M169,229.7c0-1-0.1-1.6-0.7-1.6s-0.6,0.5-0.6,1.6c0,1.5,0.1,1.9,0.6,1.9
			C168.9,231.6,169,231.3,169,229.7z"/>
		<path class="st3" d="M172.8,227.9L172.8,227.9c0.2-0.2,0.3-0.4,0.5-0.5c0.2-0.1,0.4-0.1,0.7-0.1c0.7,0,1.3,0.4,1.3,1.1v4h-1.4
			v-3.5c0-0.4-0.1-0.8-0.5-0.8c-0.4,0-0.5,0.3-0.5,0.8v3.5h-1.4v-5h1.4V227.9z"/>
		<path class="st3" d="M178.6,226.1c-0.6,0-0.7,0.2-0.7,0.7v0.6h0.7v0.9h-0.7v4.2h-1.4v-4.2h-0.6v-0.9h0.6c0-1.4-0.1-2.2,1.6-2.2
			c0.2,0,0.3,0,0.5,0V226.1z"/>
		<path class="st3" d="M181.7,231.9L181.7,231.9c-0.2,0.2-0.3,0.4-0.5,0.5c-0.2,0.1-0.4,0.1-0.7,0.1c-0.7,0-1.3-0.4-1.3-1.1v-4h1.4
			v3.5c0,0.4,0.1,0.8,0.5,0.8c0.4,0,0.5-0.3,0.5-0.8v-3.5h1.4v4c0,0.3,0,0.7,0,1h-1.5V231.9z"/>
		<path class="st3" d="M185.3,230.8c0,0.2,0,0.5,0.1,0.6c0.1,0.2,0.2,0.2,0.5,0.2s0.5-0.2,0.5-0.5c0-1.1-2.5-0.8-2.5-2.4
			c0-1.1,1.1-1.4,2-1.4c1,0,1.8,0.5,1.7,1.5h-1.4c0-0.4,0-0.6-0.1-0.7c-0.1-0.1-0.2-0.1-0.4-0.1c-0.3,0-0.5,0.2-0.5,0.5
			c0,0.8,2.5,0.8,2.5,2.4c0,0.9-0.7,1.5-1.9,1.5c-1.2,0-2-0.3-2-1.7H185.3z"/>
		<path class="st3" d="M190,230.1c0,0.6,0,1.5,0.6,1.5c0.5,0,0.6-0.5,0.6-0.9h1.4c0,0.5-0.2,1-0.5,1.3c-0.3,0.3-0.8,0.5-1.5,0.5
			c-1.8,0-2.1-1.1-2.1-2.7c0-1.4,0.2-2.6,2.1-2.6c1.9,0,2.1,1.2,2.1,2.8H190z M191.2,229.3c0-0.5,0-1.2-0.7-1.2
			c-0.6,0-0.6,0.8-0.6,1.2H191.2z"/>
		<path class="st3" d="M196.8,232.5l-1.4-5.1h1.4l0.7,3.5h0l0.8-3.5h1.4l-1.9,7h-1.5L196.8,232.5z"/>
		<path class="st3" d="M200.2,229.8c0-1.4,0.2-2.6,2.1-2.6c1.9,0,2.1,1.2,2.1,2.6c0,1.6-0.2,2.7-2.1,2.7S200.2,231.4,200.2,229.8z
			 M202.9,229.7c0-1,0-1.6-0.6-1.6s-0.6,0.5-0.6,1.6c0,1.5,0.1,1.9,0.6,1.9S202.9,231.3,202.9,229.7z"/>
		<path class="st3" d="M207.8,231.9L207.8,231.9c-0.2,0.2-0.3,0.4-0.5,0.5c-0.2,0.1-0.4,0.1-0.7,0.1c-0.7,0-1.3-0.4-1.3-1.1v-4h1.4
			v3.5c0,0.4,0.1,0.8,0.5,0.8c0.4,0,0.5-0.3,0.5-0.8v-3.5h1.4v4c0,0.3,0,0.7,0,1h-1.5V231.9z"/>
		<path class="st3" d="M216.4,231.5c0,0.3,0,0.6,0.1,0.9h-1.3l-0.1-0.7h0c-0.3,0.5-0.7,0.8-1.3,0.8c-1,0-1.3-0.7-1.3-1.6
			c0-1.7,1.3-1.7,2.6-1.7v-0.4c0-0.4-0.1-0.7-0.6-0.7c-0.5,0-0.5,0.4-0.5,0.8h-1.4c0-0.6,0.2-1,0.5-1.2c0.3-0.2,0.8-0.3,1.3-0.3
			c1.8,0,2,0.8,2,1.7V231.5z M213.8,230.8c0,0.4,0.1,0.8,0.5,0.8c0.8,0,0.7-1.1,0.7-1.7C214.3,230,213.8,229.9,213.8,230.8z"/>
		<path class="st3" d="M219.1,225.2v7.2h-1.4v-7.2H219.1z"/>
		<path class="st3" d="M220.2,229.8c0-1.4,0.2-2.6,2.1-2.6c1.9,0,2.1,1.2,2.1,2.6c0,1.6-0.2,2.7-2.1,2.7S220.2,231.4,220.2,229.8z
			 M222.9,229.7c0-1,0-1.6-0.6-1.6s-0.6,0.5-0.6,1.6c0,1.5,0.1,1.9,0.6,1.9S222.9,231.3,222.9,229.7z"/>
		<path class="st3" d="M224.7,227.4h0.6v-0.8l1.4-0.6v1.4h0.7v0.9h-0.7v2.7c0,0.4,0,0.6,0.5,0.6c0.1,0,0.2,0,0.2,0v0.9
			c-0.2,0-0.4,0-0.7,0c-1.2,0-1.4-0.8-1.4-1.1v-3.1h-0.6V227.4z"/>
	</g>
	<line class="st4" x1="235" y1="233.1" x2="323" y2="233.1"/>
</g>
<g>
	<g id="alone">
		<path class="st3" d="M25.9,259.6L25.9,259.6c0,0-0.6-6.8,1.4-8.8c2-2,4.9-3.2,7.6-3.2s5.9,1.7,7.2,3c1.3,1.3,1.8,6,1.8,8.7l0,0
			c0,0,1.3,0,1.6,0.8c0.3,1-0.5,5.4-1.7,5.4l0,0c0,0-3.8,10.3-8.9,9.1h0c0,0-5.4,0.6-8.5-8.9l0,0c0,0-2-1.2-2-4.5
			C24.4,260.3,25,259.6,25.9,259.6C25.9,259.6,25.9,259.6,25.9,259.6z"/>
		<path class="st3" d="M32.6,277h4.3c0,0,1,0,0.6,1.5c-0.5,1.5-1.2,1.8-1.2,1.8l1.3,11.6h-6l1.7-11.4l0,0
			C33.2,280.5,31.2,278.3,32.6,277z"/>
		<path class="st3" d="M26.5,276.4c0.8-0.3,1.7,0.1,1.9,0.9c0.8,3.2,2.6,10.2,4,11.6c1.8,1.8,2.5,1.2,2.5,1.2s3.2-0.6,4.7-5.5
			c1-3,1.6-5.7,1.9-7.3c0.2-0.8,1-1.3,1.8-1c3.2,1.1,10.4,3.8,11.4,6.7c1.3,3.8,1.5,8.9-2.6,9.7s-34.3,1-36.2-1s-1.9-10.1,1.2-11.4
			C19.4,279.4,24.1,277.4,26.5,276.4z"/>
	</g>
	<g>
		<path class="st3" d="M164.8,273.3h1.5l0.9,5.1h0l1.1-5.1h1.8l1.1,5.1h0l0.9-5.1h1.5l-1.6,7.2h-1.7l-1.1-5.3h0l-1.2,5.3h-1.6
			L164.8,273.3z"/>
		<path class="st3" d="M173.9,278c0-1.4,0.2-2.6,2.1-2.6s2.1,1.2,2.1,2.6c0,1.6-0.2,2.7-2.1,2.7C174.1,280.6,173.9,279.5,173.9,278z
			 M176.6,277.9c0-1-0.1-1.6-0.6-1.6s-0.6,0.5-0.6,1.6c0,1.5,0.1,1.9,0.6,1.9C176.5,279.7,176.6,279.4,176.6,277.9z"/>
		<path class="st3" d="M180.3,275.5v0.7h0c0.3-0.6,0.7-0.8,1.3-0.8v1.3c-1.2-0.1-1.3,0.6-1.3,1.1v2.7H179v-5H180.3z"/>
		<path class="st3" d="M182.3,280.5v-7.2h1.4v4.3h0l1.3-2.1h1.5l-1.4,2.2l1.6,2.8H185l-1.3-2.7h0v2.7H182.3z"/>
		<path class="st3" d="M193.4,279.6c0,0.3,0,0.6,0.1,0.9h-1.3l-0.1-0.7h0c-0.3,0.5-0.7,0.8-1.3,0.8c-1,0-1.3-0.7-1.3-1.6
			c0-1.7,1.3-1.7,2.6-1.7v-0.4c0-0.4-0.1-0.7-0.6-0.7c-0.5,0-0.5,0.4-0.5,0.8h-1.4c0-0.6,0.2-1,0.5-1.2c0.3-0.2,0.8-0.3,1.3-0.3
			c1.8,0,2,0.8,2,1.7V279.6z M190.8,279c0,0.4,0.1,0.8,0.5,0.8c0.8,0,0.7-1.1,0.7-1.7C191.3,278.1,190.8,278.1,190.8,279z"/>
		<path class="st3" d="M196.1,273.3v7.2h-1.4v-7.2H196.1z"/>
		<path class="st3" d="M197.2,278c0-1.4,0.2-2.6,2.1-2.6s2.1,1.2,2.1,2.6c0,1.6-0.2,2.7-2.1,2.7S197.2,279.5,197.2,278z
			 M199.9,277.9c0-1-0.1-1.6-0.6-1.6s-0.6,0.5-0.6,1.6c0,1.5,0.1,1.9,0.6,1.9C199.8,279.7,199.9,279.4,199.9,277.9z"/>
		<path class="st3" d="M203.7,276L203.7,276c0.2-0.2,0.3-0.4,0.5-0.5c0.2-0.1,0.4-0.1,0.7-0.1c0.7,0,1.3,0.4,1.3,1.1v4h-1.4v-3.5
			c0-0.4-0.1-0.8-0.5-0.8s-0.5,0.3-0.5,0.8v3.5h-1.4v-5h1.4V276z"/>
		<path class="st3" d="M208.6,278.2c0,0.6,0,1.5,0.6,1.5c0.5,0,0.6-0.5,0.6-0.9h1.4c0,0.6-0.2,1-0.5,1.3c-0.3,0.3-0.8,0.5-1.5,0.5
			c-1.8,0-2.1-1.1-2.1-2.7c0-1.4,0.2-2.6,2.1-2.6c1.9,0,2.1,1.2,2.1,2.8H208.6z M209.9,277.5c0-0.5,0-1.2-0.6-1.2
			c-0.6,0-0.6,0.8-0.6,1.2H209.9z"/>
		<path class="st3" d="M214.1,275.5h1.4l0.7,3.8h0l1-3.8h1.5l0.9,3.8h0l0.8-3.8h1.3l-1.4,5h-1.5l-0.9-3.4h0l-1,3.4h-1.5L214.1,275.5
			z"/>
		<path class="st3" d="M224.8,280.5v-3.5c0-0.4-0.1-0.8-0.5-0.8s-0.5,0.3-0.5,0.8v3.5h-1.4v-7.2h1.4v2.7h0c0.1-0.2,0.3-0.4,0.5-0.5
			c0.2-0.1,0.4-0.1,0.7-0.1c0.7,0,1.3,0.4,1.3,1.1v4H224.8z"/>
		<path class="st3" d="M228.6,278.2c0,0.6,0,1.5,0.6,1.5c0.5,0,0.6-0.5,0.6-0.9h1.4c0,0.6-0.2,1-0.5,1.3c-0.3,0.3-0.8,0.5-1.5,0.5
			c-1.8,0-2.1-1.1-2.1-2.7c0-1.4,0.2-2.6,2.1-2.6c1.9,0,2.1,1.2,2.1,2.8H228.6z M229.9,277.5c0-0.5,0-1.2-0.6-1.2
			c-0.6,0-0.6,0.8-0.6,1.2H229.9z"/>
		<path class="st3" d="M233.7,276L233.7,276c0.2-0.2,0.3-0.4,0.5-0.5c0.2-0.1,0.4-0.1,0.7-0.1c0.7,0,1.3,0.4,1.3,1.1v4h-1.4v-3.5
			c0-0.4-0.1-0.8-0.5-0.8s-0.5,0.3-0.5,0.8v3.5h-1.4v-5h1.4V276z"/>
		<path class="st3" d="M240.5,280.6l-1.4-5.1h1.4l0.7,3.5h0l0.8-3.5h1.4l-1.9,7h-1.5L240.5,280.6z"/>
		<path class="st3" d="M243.9,278c0-1.4,0.2-2.6,2.1-2.6s2.1,1.2,2.1,2.6c0,1.6-0.2,2.7-2.1,2.7C244.1,280.6,243.9,279.5,243.9,278z
			 M246.6,277.9c0-1-0.1-1.6-0.6-1.6s-0.6,0.5-0.6,1.6c0,1.5,0.1,1.9,0.6,1.9C246.5,279.7,246.6,279.4,246.6,277.9z"/>
		<path class="st3" d="M251.5,280L251.5,280c-0.2,0.2-0.3,0.4-0.5,0.5c-0.2,0.1-0.4,0.1-0.7,0.1c-0.7,0-1.3-0.4-1.3-1.1v-4h1.4v3.5
			c0,0.4,0.1,0.8,0.5,0.8s0.5-0.3,0.5-0.8v-3.5h1.4v4c0,0.3,0,0.7,0,1h-1.5V280z"/>
		<path class="st3" d="M258.7,280.5v-3.5c0-0.4-0.1-0.8-0.5-0.8s-0.5,0.3-0.5,0.8v3.5h-1.4v-7.2h1.4v2.7h0c0.1-0.2,0.3-0.4,0.5-0.5
			c0.2-0.1,0.4-0.1,0.7-0.1c0.7,0,1.3,0.4,1.3,1.1v4H258.7z"/>
		<path class="st3" d="M265,279.6c0,0.3,0,0.6,0.1,0.9h-1.3l-0.1-0.7h0c-0.3,0.5-0.7,0.8-1.3,0.8c-1,0-1.3-0.7-1.3-1.6
			c0-1.7,1.3-1.7,2.6-1.7v-0.4c0-0.4-0.1-0.7-0.6-0.7c-0.5,0-0.5,0.4-0.5,0.8h-1.4c0-0.6,0.2-1,0.5-1.2c0.3-0.2,0.8-0.3,1.3-0.3
			c1.8,0,2,0.8,2,1.7V279.6z M262.4,279c0,0.4,0.1,0.8,0.5,0.8c0.8,0,0.7-1.1,0.7-1.7C263,278.1,262.4,278.1,262.4,279z"/>
		<path class="st3" d="M265.7,275.5h1.4l0.7,3.8h0l0.7-3.8h1.4l-1.4,5h-1.5L265.7,275.5z"/>
		<path class="st3" d="M272,278.2c0,0.6,0,1.5,0.6,1.5c0.5,0,0.6-0.5,0.6-0.9h1.4c0,0.6-0.2,1-0.5,1.3c-0.3,0.3-0.8,0.5-1.5,0.5
			c-1.8,0-2.1-1.1-2.1-2.7c0-1.4,0.2-2.6,2.1-2.6c1.9,0,2.1,1.2,2.1,2.8H272z M273.2,277.5c0-0.5,0-1.2-0.6-1.2
			c-0.6,0-0.6,0.8-0.6,1.2H273.2z"/>
		<path class="st3" d="M281.7,279.6c0,0.3,0,0.6,0.1,0.9h-1.3l-0.1-0.7h0c-0.3,0.5-0.7,0.8-1.3,0.8c-1,0-1.3-0.7-1.3-1.6
			c0-1.7,1.3-1.7,2.6-1.7v-0.4c0-0.4-0.1-0.7-0.6-0.7c-0.5,0-0.5,0.4-0.5,0.8h-1.4c0-0.6,0.2-1,0.5-1.2c0.3-0.2,0.8-0.3,1.3-0.3
			c1.8,0,2,0.8,2,1.7V279.6z M279.1,279c0,0.4,0.1,0.8,0.5,0.8c0.8,0,0.7-1.1,0.7-1.7C279.6,278.1,279.1,278.1,279.1,279z"/>
		<path class="st3" d="M287.7,277.3c0-0.8-0.2-1-0.6-1c-0.6,0-0.6,0.5-0.6,1.6c0,1.5,0.1,1.9,0.6,1.9c0.4,0,0.6-0.4,0.6-1.1h1.4
			c0,1.4-0.7,2-2.1,2c-1.8,0-2.1-1.1-2.1-2.7c0-1.4,0.2-2.6,2.1-2.6c1.3,0,2,0.6,2,1.9H287.7z"/>
		<path class="st3" d="M292.6,280.5v-3.5c0-0.4-0.1-0.8-0.5-0.8s-0.5,0.3-0.5,0.8v3.5h-1.4v-7.2h1.4v2.7h0c0.1-0.2,0.3-0.4,0.5-0.5
			c0.2-0.1,0.4-0.1,0.7-0.1c0.7,0,1.3,0.4,1.3,1.1v4H292.6z"/>
		<path class="st3" d="M295,278c0-1.4,0.2-2.6,2.1-2.6s2.1,1.2,2.1,2.6c0,1.6-0.2,2.7-2.1,2.7S295,279.5,295,278z M297.7,277.9
			c0-1-0.1-1.6-0.6-1.6s-0.6,0.5-0.6,1.6c0,1.5,0.1,1.9,0.6,1.9C297.6,279.7,297.7,279.4,297.7,277.9z"/>
		<path class="st3" d="M301.6,273.3v1.1h-1.4v-1.1H301.6z M301.6,280.5h-1.4v-5h1.4V280.5z"/>
		<path class="st3" d="M305.4,277.3c0-0.8-0.2-1-0.6-1c-0.6,0-0.6,0.5-0.6,1.6c0,1.5,0.1,1.9,0.6,1.9c0.4,0,0.6-0.4,0.6-1.1h1.4
			c0,1.4-0.7,2-2.1,2c-1.8,0-2.1-1.1-2.1-2.7c0-1.4,0.2-2.6,2.1-2.6c1.3,0,2,0.6,2,1.9H305.4z"/>
		<path class="st3" d="M309.2,278.2c0,0.6,0,1.5,0.6,1.5c0.5,0,0.6-0.5,0.6-0.9h1.4c0,0.6-0.2,1-0.5,1.3c-0.3,0.3-0.8,0.5-1.5,0.5
			c-1.8,0-2.1-1.1-2.1-2.7c0-1.4,0.2-2.6,2.1-2.6c1.9,0,2.1,1.2,2.1,2.8H309.2z M310.5,277.5c0-0.5,0-1.2-0.6-1.2
			c-0.6,0-0.6,0.8-0.6,1.2H310.5z"/>
		<path class="st3" d="M314,279.2v1.3h-1.2v-1.3H314z"/>
		<path class="st3" d="M166.8,290l-1.9-4.7h1.6l1.1,3l1.1-3h1.5l-2,4.7v2.5h-1.5V290z"/>
		<path class="st3" d="M170.2,290c0-1.4,0.2-2.6,2.1-2.6s2.1,1.2,2.1,2.6c0,1.6-0.2,2.7-2.1,2.7S170.2,291.5,170.2,290z
			 M172.9,289.9c0-1-0.1-1.6-0.6-1.6s-0.6,0.5-0.6,1.6c0,1.5,0.1,1.9,0.6,1.9C172.7,291.7,172.9,291.4,172.9,289.9z"/>
		<path class="st3" d="M177.7,292L177.7,292c-0.2,0.2-0.3,0.4-0.5,0.5c-0.2,0.1-0.4,0.1-0.7,0.1c-0.7,0-1.3-0.4-1.3-1.1v-4h1.4v3.5
			c0,0.4,0.1,0.8,0.5,0.8s0.5-0.3,0.5-0.8v-3.5h1.4v4c0,0.3,0,0.7,0,1h-1.5V292z"/>
		<path class="st3" d="M186.4,287.5v5.3c0,0.3,0,1.7-1.9,1.7c-1,0-1.9-0.3-2-1.5h1.4c0,0.2,0,0.4,0.1,0.5c0.1,0.1,0.2,0.2,0.5,0.2
			c0.3,0,0.5-0.3,0.5-0.8v-1h0c-0.2,0.4-0.6,0.6-1.1,0.6c-1.5,0-1.5-1.4-1.5-2.6c0-1.1,0-2.5,1.5-2.5c0.5,0,0.9,0.2,1.1,0.7h0v-0.6
			H186.4z M184.4,291.6c0.5,0,0.6-0.5,0.6-1.6c0-1.1,0-1.7-0.6-1.7c-0.5,0-0.6,0.4-0.6,1.9C183.8,290.6,183.7,291.6,184.4,291.6z"/>
		<path class="st3" d="M188.8,290.2c0,0.6,0,1.5,0.6,1.5c0.5,0,0.6-0.5,0.6-0.9h1.4c0,0.6-0.2,1-0.5,1.3c-0.3,0.3-0.8,0.5-1.5,0.5
			c-1.8,0-2.1-1.1-2.1-2.7c0-1.4,0.2-2.6,2.1-2.6c1.9,0,2.1,1.2,2.1,2.8H188.8z M190.1,289.5c0-0.5,0-1.2-0.6-1.2
			c-0.6,0-0.6,0.8-0.6,1.2H190.1z"/>
		<path class="st3" d="M191.9,287.5h0.6v-0.8l1.4-0.6v1.4h0.7v0.9h-0.7v2.7c0,0.4,0,0.6,0.4,0.6c0.1,0,0.2,0,0.2,0v0.9
			c-0.2,0-0.4,0.1-0.7,0.1c-1.2,0-1.4-0.8-1.4-1.1v-3.1h-0.6V287.5z"/>
		<path class="st3" d="M199.7,286.2c-0.6,0-0.7,0.2-0.7,0.7v0.6h0.7v0.9H199v4.2h-1.4v-4.2h-0.6v-0.9h0.6c0-1.4-0.1-2.2,1.6-2.2
			c0.2,0,0.3,0,0.5,0V286.2z"/>
		<path class="st3" d="M202.7,292L202.7,292c-0.2,0.2-0.3,0.4-0.5,0.5c-0.2,0.1-0.4,0.1-0.7,0.1c-0.7,0-1.3-0.4-1.3-1.1v-4h1.4v3.5
			c0,0.4,0.1,0.8,0.5,0.8s0.5-0.3,0.5-0.8v-3.5h1.4v4c0,0.3,0,0.7,0,1h-1.5V292z"/>
		<path class="st3" d="M206.4,290.9c0,0.2,0,0.5,0.1,0.6c0.1,0.2,0.2,0.2,0.5,0.2c0.3,0,0.5-0.2,0.5-0.5c0-1.1-2.5-0.8-2.5-2.4
			c0-1.1,1.1-1.4,2-1.4c1,0,1.8,0.5,1.7,1.5h-1.4c0-0.3,0-0.6-0.1-0.7c-0.1-0.1-0.2-0.1-0.4-0.1c-0.3,0-0.5,0.2-0.5,0.5
			c0,0.8,2.5,0.8,2.5,2.4c0,0.9-0.7,1.5-1.9,1.5c-1.2,0-2-0.3-2-1.7H206.4z"/>
		<path class="st3" d="M209.2,287.5h0.6v-0.8l1.4-0.6v1.4h0.7v0.9h-0.7v2.7c0,0.4,0,0.6,0.4,0.6c0.1,0,0.2,0,0.2,0v0.9
			c-0.2,0-0.4,0.1-0.7,0.1c-1.2,0-1.4-0.8-1.4-1.1v-3.1h-0.6V287.5z"/>
		<path class="st3" d="M213.8,287.5v0.7h0c0.3-0.6,0.7-0.8,1.3-0.8v1.3c-1.2-0.1-1.3,0.6-1.3,1.1v2.7h-1.4v-5H213.8z"/>
		<path class="st3" d="M219.7,291.6c0,0.3,0,0.6,0.1,0.9h-1.3l-0.1-0.7h0c-0.3,0.5-0.7,0.8-1.3,0.8c-1,0-1.3-0.7-1.3-1.6
			c0-1.7,1.3-1.7,2.6-1.7v-0.4c0-0.4-0.1-0.7-0.6-0.7c-0.5,0-0.5,0.4-0.5,0.8h-1.4c0-0.6,0.2-1,0.5-1.2c0.3-0.2,0.8-0.3,1.3-0.3
			c1.8,0,2,0.8,2,1.7V291.6z M217.1,291c0,0.4,0.1,0.8,0.5,0.8c0.8,0,0.7-1.1,0.7-1.7C217.6,290.1,217.1,290.1,217.1,291z"/>
		<path class="st3" d="M220.3,287.5h0.6v-0.8l1.4-0.6v1.4h0.7v0.9h-0.7v2.7c0,0.4,0,0.6,0.4,0.6c0.1,0,0.2,0,0.2,0v0.9
			c-0.2,0-0.4,0.1-0.7,0.1c-1.2,0-1.4-0.8-1.4-1.1v-3.1h-0.6V287.5z"/>
		<path class="st3" d="M224.9,290.2c0,0.6,0,1.5,0.6,1.5c0.5,0,0.6-0.5,0.6-0.9h1.4c0,0.6-0.2,1-0.5,1.3c-0.3,0.3-0.8,0.5-1.5,0.5
			c-1.8,0-2.1-1.1-2.1-2.7c0-1.4,0.2-2.6,2.1-2.6c1.9,0,2.1,1.2,2.1,2.8H224.9z M226.2,289.5c0-0.5,0-1.2-0.6-1.2
			c-0.6,0-0.6,0.8-0.6,1.2H226.2z"/>
		<path class="st3" d="M231.1,292.5V292h0c-0.3,0.5-0.6,0.7-1.2,0.7c-1.5,0-1.4-1.6-1.4-2.7c0-1,0-2.6,1.4-2.6
			c0.5,0,0.9,0.2,1.1,0.6h0v-2.6h1.4v7.2H231.1z M231.1,290c0-1,0-1.7-0.6-1.7c-0.6,0-0.6,0.7-0.6,1.7c0,1.3,0.1,1.8,0.6,1.8
			C231,291.8,231.1,291.2,231.1,290z"/>
		<path class="st3" d="M235.4,287.5h1.4l0.7,3.8h0l1-3.8h1.5l0.9,3.8h0l0.8-3.8h1.3l-1.4,5h-1.5l-0.9-3.4h0l-1,3.4h-1.5L235.4,287.5
			z"/>
		<path class="st3" d="M245.1,285.3v1.1h-1.4v-1.1H245.1z M245.1,292.5h-1.4v-5h1.4V292.5z"/>
		<path class="st3" d="M245.8,287.5h0.6v-0.8l1.4-0.6v1.4h0.7v0.9h-0.7v2.7c0,0.4,0,0.6,0.4,0.6c0.1,0,0.2,0,0.2,0v0.9
			c-0.2,0-0.4,0.1-0.7,0.1c-1.2,0-1.4-0.8-1.4-1.1v-3.1h-0.6V287.5z"/>
		<path class="st3" d="M251.6,292.5v-3.5c0-0.4-0.1-0.8-0.5-0.8s-0.5,0.3-0.5,0.8v3.5h-1.4v-7.2h1.4v2.7h0c0.1-0.2,0.3-0.4,0.5-0.5
			c0.2-0.1,0.4-0.1,0.7-0.1c0.7,0,1.3,0.4,1.3,1.1v4H251.6z"/>
		<path class="st3" d="M256.3,290c0-1.4,0.2-2.6,2.1-2.6s2.1,1.2,2.1,2.6c0,1.6-0.2,2.7-2.1,2.7S256.3,291.5,256.3,290z M259,289.9
			c0-1-0.1-1.6-0.6-1.6s-0.6,0.5-0.6,1.6c0,1.5,0.1,1.9,0.6,1.9C258.8,291.7,259,291.4,259,289.9z"/>
		<path class="st3" d="M260.8,287.5h0.6v-0.8l1.4-0.6v1.4h0.7v0.9h-0.7v2.7c0,0.4,0,0.6,0.4,0.6c0.1,0,0.2,0,0.2,0v0.9
			c-0.2,0-0.4,0.1-0.7,0.1c-1.2,0-1.4-0.8-1.4-1.1v-3.1h-0.6V287.5z"/>
		<path class="st3" d="M266.6,292.5v-3.5c0-0.4-0.1-0.8-0.5-0.8s-0.5,0.3-0.5,0.8v3.5h-1.4v-7.2h1.4v2.7h0c0.1-0.2,0.3-0.4,0.5-0.5
			c0.2-0.1,0.4-0.1,0.7-0.1c0.7,0,1.3,0.4,1.3,1.1v4H266.6z"/>
		<path class="st3" d="M270.5,290.2c0,0.6,0,1.5,0.6,1.5c0.5,0,0.6-0.5,0.6-0.9h1.4c0,0.6-0.2,1-0.5,1.3c-0.3,0.3-0.8,0.5-1.5,0.5
			c-1.8,0-2.1-1.1-2.1-2.7c0-1.4,0.2-2.6,2.1-2.6c1.9,0,2.1,1.2,2.1,2.8H270.5z M271.8,289.5c0-0.5,0-1.2-0.6-1.2
			c-0.6,0-0.6,0.8-0.6,1.2H271.8z"/>
		<path class="st3" d="M275.5,287.5v0.7h0c0.3-0.6,0.7-0.8,1.3-0.8v1.3c-1.2-0.1-1.3,0.6-1.3,1.1v2.7h-1.4v-5H275.5z"/>
		<path class="st3" d="M278.6,290.9c0,0.2,0,0.5,0.1,0.6c0.1,0.2,0.2,0.2,0.5,0.2c0.3,0,0.5-0.2,0.5-0.5c0-1.1-2.5-0.8-2.5-2.4
			c0-1.1,1.1-1.4,2-1.4c1,0,1.8,0.5,1.7,1.5h-1.4c0-0.3,0-0.6-0.1-0.7c-0.1-0.1-0.2-0.1-0.4-0.1c-0.3,0-0.5,0.2-0.5,0.5
			c0,0.8,2.5,0.8,2.5,2.4c0,0.9-0.7,1.5-1.9,1.5c-1.2,0-2-0.3-2-1.7H278.6z"/>
		<path class="st3" d="M283.7,287.5h1.4l0.7,3.8h0l1-3.8h1.5l0.9,3.8h0l0.8-3.8h1.3l-1.4,5h-1.5l-0.9-3.4h0l-1,3.4H285L283.7,287.5z
			"/>
		<path class="st3" d="M294.4,292.5v-3.5c0-0.4-0.1-0.8-0.5-0.8s-0.5,0.3-0.5,0.8v3.5h-1.4v-7.2h1.4v2.7h0c0.1-0.2,0.3-0.4,0.5-0.5
			c0.2-0.1,0.4-0.1,0.7-0.1c0.7,0,1.3,0.4,1.3,1.1v4H294.4z"/>
		<path class="st3" d="M296.8,290c0-1.4,0.2-2.6,2.1-2.6s2.1,1.2,2.1,2.6c0,1.6-0.2,2.7-2.1,2.7C297.1,292.6,296.8,291.5,296.8,290z
			 M299.5,289.9c0-1-0.1-1.6-0.6-1.6s-0.6,0.5-0.6,1.6c0,1.5,0.1,1.9,0.6,1.9C299.4,291.7,299.5,291.4,299.5,289.9z"/>
		<path class="st3" d="M308,291.6c0,0.3,0,0.6,0.1,0.9h-1.3l-0.1-0.7h0c-0.3,0.5-0.7,0.8-1.3,0.8c-1,0-1.3-0.7-1.3-1.6
			c0-1.7,1.3-1.7,2.6-1.7v-0.4c0-0.4-0.1-0.7-0.6-0.7c-0.5,0-0.5,0.4-0.5,0.8h-1.4c0-0.6,0.2-1,0.5-1.2c0.3-0.2,0.8-0.3,1.3-0.3
			c1.8,0,2,0.8,2,1.7V291.6z M305.4,291c0,0.4,0.1,0.8,0.5,0.8c0.8,0,0.7-1.1,0.7-1.7C305.9,290.1,305.4,290.1,305.4,291z"/>
		<path class="st3" d="M310.5,287.5v0.7h0c0.3-0.6,0.7-0.8,1.3-0.8v1.3c-1.2-0.1-1.3,0.6-1.3,1.1v2.7h-1.4v-5H310.5z"/>
		<path class="st3" d="M313.8,290.2c0,0.6,0,1.5,0.6,1.5c0.5,0,0.6-0.5,0.6-0.9h1.4c0,0.6-0.2,1-0.5,1.3c-0.3,0.3-0.8,0.5-1.5,0.5
			c-1.8,0-2.1-1.1-2.1-2.7c0-1.4,0.2-2.6,2.1-2.6c1.9,0,2.1,1.2,2.1,2.8H313.8z M315.1,289.5c0-0.5,0-1.2-0.6-1.2
			c-0.6,0-0.6,0.8-0.6,1.2H315.1z"/>
		<path class="st3" d="M318.9,288L318.9,288c0.2-0.2,0.3-0.4,0.5-0.5c0.2-0.1,0.4-0.1,0.7-0.1c0.7,0,1.3,0.4,1.3,1.1v4H320v-3.5
			c0-0.4-0.1-0.8-0.5-0.8s-0.5,0.3-0.5,0.8v3.5h-1.4v-5h1.4V288z"/>
		<path class="st3" d="M322.5,285.3h1.3l-0.7,2h-1L322.5,285.3z"/>
		<path class="st3" d="M324,287.5h0.6v-0.8l1.4-0.6v1.4h0.7v0.9h-0.7v2.7c0,0.4,0,0.6,0.4,0.6c0.1,0,0.2,0,0.2,0v0.9
			c-0.2,0-0.4,0.1-0.7,0.1c-1.2,0-1.4-0.8-1.4-1.1v-3.1H324V287.5z"/>
		<path class="st3" d="M333.4,291.6c0,0.3,0,0.6,0.1,0.9h-1.3l-0.1-0.7h0c-0.3,0.5-0.7,0.8-1.3,0.8c-1,0-1.3-0.7-1.3-1.6
			c0-1.7,1.3-1.7,2.6-1.7v-0.4c0-0.4-0.1-0.7-0.6-0.7c-0.5,0-0.5,0.4-0.5,0.8h-1.4c0-0.6,0.2-1,0.5-1.2c0.3-0.2,0.8-0.3,1.3-0.3
			c1.8,0,2,0.8,2,1.7V291.6z M330.8,291c0,0.4,0.1,0.8,0.5,0.8c0.8,0,0.7-1.1,0.7-1.7C331.3,290.1,330.8,290.1,330.8,291z"/>
		<path class="st3" d="M335.6,290.9c0,0.2,0,0.5,0.1,0.6c0.1,0.2,0.2,0.2,0.5,0.2c0.3,0,0.5-0.2,0.5-0.5c0-1.1-2.5-0.8-2.5-2.4
			c0-1.1,1.1-1.4,2-1.4c1,0,1.8,0.5,1.7,1.5h-1.4c0-0.3,0-0.6-0.1-0.7c-0.1-0.1-0.2-0.1-0.4-0.1c-0.3,0-0.5,0.2-0.5,0.5
			c0,0.8,2.5,0.8,2.5,2.4c0,0.9-0.7,1.5-1.9,1.5c-1.2,0-2-0.3-2-1.7H335.6z"/>
		<path class="st3" d="M342.3,290.9c0,0.2,0,0.5,0.1,0.6c0.1,0.2,0.2,0.2,0.5,0.2c0.3,0,0.5-0.2,0.5-0.5c0-1.1-2.5-0.8-2.5-2.4
			c0-1.1,1.1-1.4,2-1.4c1,0,1.8,0.5,1.7,1.5h-1.4c0-0.3,0-0.6-0.1-0.7c-0.1-0.1-0.2-0.1-0.4-0.1c-0.3,0-0.5,0.2-0.5,0.5
			c0,0.8,2.5,0.8,2.5,2.4c0,0.9-0.7,1.5-1.9,1.5c-1.2,0-2-0.3-2-1.7H342.3z"/>
		<path class="st3" d="M346.9,290.2c0,0.6,0,1.5,0.6,1.5c0.5,0,0.6-0.5,0.6-0.9h1.4c0,0.6-0.2,1-0.5,1.3c-0.3,0.3-0.8,0.5-1.5,0.5
			c-1.8,0-2.1-1.1-2.1-2.7c0-1.4,0.2-2.6,2.1-2.6c1.9,0,2.1,1.2,2.1,2.8H346.9z M348.2,289.5c0-0.5,0-1.2-0.6-1.2
			c-0.6,0-0.6,0.8-0.6,1.2H348.2z"/>
		<path class="st3" d="M352,287.5v0.7h0c0.3-0.6,0.7-0.8,1.3-0.8v1.3c-1.2-0.1-1.3,0.6-1.3,1.1v2.7h-1.4v-5H352z"/>
		<path class="st3" d="M355.5,285.3v1.1h-1.4v-1.1H355.5z M355.5,292.5h-1.4v-5h1.4V292.5z"/>
		<path class="st3" d="M356.6,290c0-1.4,0.2-2.6,2.1-2.6s2.1,1.2,2.1,2.6c0,1.6-0.2,2.7-2.1,2.7S356.6,291.5,356.6,290z
			 M359.3,289.9c0-1-0.1-1.6-0.6-1.6s-0.6,0.5-0.6,1.6c0,1.5,0.1,1.9,0.6,1.9C359.2,291.7,359.3,291.4,359.3,289.9z"/>
		<path class="st3" d="M364.2,292L364.2,292c-0.2,0.2-0.3,0.4-0.5,0.5c-0.2,0.1-0.4,0.1-0.7,0.1c-0.7,0-1.3-0.4-1.3-1.1v-4h1.4v3.5
			c0,0.4,0.1,0.8,0.5,0.8s0.5-0.3,0.5-0.8v-3.5h1.4v4c0,0.3,0,0.7,0,1h-1.5V292z"/>
		<path class="st3" d="M367.8,290.9c0,0.2,0,0.5,0.1,0.6c0.1,0.2,0.2,0.2,0.5,0.2c0.3,0,0.5-0.2,0.5-0.5c0-1.1-2.5-0.8-2.5-2.4
			c0-1.1,1.1-1.4,2-1.4c1,0,1.8,0.5,1.7,1.5h-1.4c0-0.3,0-0.6-0.1-0.7c-0.1-0.1-0.2-0.1-0.4-0.1c-0.3,0-0.5,0.2-0.5,0.5
			c0,0.8,2.5,0.8,2.5,2.4c0,0.9-0.7,1.5-1.9,1.5c-1.2,0-2-0.3-2-1.7H367.8z"/>
	</g>
	<line class="st4" x1="65.8" y1="291.1" x2="159" y2="291.1"/>
</g>
<g>
	<g id="graph">
		<path class="st3" d="M43.7,185.6H18.2c-1.8,0-3.3-1.5-3.3-3.3V159c0-1.8,1.5-3.3,3.3-3.3h25.5c1.8,0,3.3,1.5,3.3,3.3v23.3
			C47,184.1,45.5,185.6,43.7,185.6z"/>
		<line class="st6" x1="15.8" y1="180.4" x2="46.1" y2="180.4"/>
		<line class="st6" x1="15.8" y1="177.7" x2="46.1" y2="177.7"/>
		<line class="st6" x1="15.8" y1="174.9" x2="46.1" y2="174.9"/>
		<line class="st6" x1="15.8" y1="172.2" x2="46.1" y2="172.2"/>
		<line class="st6" x1="15.8" y1="169.5" x2="46.1" y2="169.5"/>
		<rect x="18" y="164.4" class="st5" width="2.1" height="16"/>
		<rect x="34.5" y="164.4" class="st5" width="2.1" height="16"/>
		<rect x="22.2" y="164.4" class="st5" width="2.1" height="16"/>
		<rect x="26.3" y="163.3" class="st5" width="2.1" height="17.1"/>
		<rect x="30.4" y="159" class="st5" width="2.1" height="21.4"/>
	</g>
	<line class="st4" x1="52.1" y1="184.1" x2="181.2" y2="184.1"/>
	<g>
		<path class="st3" d="M189.2,174.9v-7.2h1.5v7.2H189.2z"/>
		<path class="st3" d="M194,168.6c-0.6,0-0.7,0.2-0.7,0.7v0.6h0.7v0.9h-0.7v4.2h-1.4v-4.2h-0.6v-0.9h0.6c0-1.4-0.1-2.2,1.6-2.2
			c0.2,0,0.3,0,0.5,0V168.6z"/>
		<path class="st3" d="M200.7,169.9v5.3c0,0.3,0,1.7-1.9,1.7c-1,0-1.9-0.3-2-1.5h1.4c0,0.2,0,0.4,0.1,0.5c0.1,0.1,0.2,0.2,0.5,0.2
			c0.3,0,0.5-0.3,0.5-0.8v-1h0c-0.2,0.4-0.6,0.6-1.1,0.6c-1.5,0-1.5-1.4-1.5-2.6c0-1.1,0-2.5,1.5-2.5c0.5,0,0.9,0.2,1.1,0.7h0v-0.6
			H200.7z M198.7,174c0.5,0,0.6-0.5,0.6-1.6c0-1.1,0-1.7-0.6-1.7c-0.5,0-0.6,0.4-0.6,1.9C198.1,173,198.1,174,198.7,174z"/>
		<path class="st3" d="M203.4,167.7v1.1H202v-1.1H203.4z M203.4,174.9H202v-5h1.4V174.9z"/>
		<path class="st3" d="M204.2,169.9h1.4l0.7,3.8h0l0.7-3.8h1.4l-1.4,5h-1.5L204.2,169.9z"/>
		<path class="st3" d="M210.4,172.7c0,0.6,0,1.5,0.6,1.5c0.5,0,0.6-0.5,0.6-0.9h1.4c0,0.5-0.2,1-0.5,1.3c-0.3,0.3-0.8,0.5-1.5,0.5
			c-1.8,0-2.1-1.1-2.1-2.7c0-1.4,0.2-2.6,2.1-2.6c1.9,0,2.1,1.2,2.1,2.8H210.4z M211.7,171.9c0-0.5,0-1.2-0.6-1.2
			c-0.6,0-0.6,0.8-0.6,1.2H211.7z"/>
		<path class="st3" d="M215.5,170.4L215.5,170.4c0.2-0.2,0.3-0.4,0.5-0.5c0.2-0.1,0.4-0.1,0.7-0.1c0.7,0,1.3,0.4,1.3,1.1v4h-1.4
			v-3.5c0-0.4-0.1-0.8-0.5-0.8s-0.5,0.3-0.5,0.8v3.5h-1.4v-5h1.4V170.4z"/>
		<path class="st3" d="M225.1,174c0,0.3,0,0.6,0.1,0.9h-1.3l-0.1-0.7h0c-0.3,0.5-0.7,0.8-1.3,0.8c-1,0-1.3-0.7-1.3-1.6
			c0-1.7,1.3-1.7,2.6-1.7v-0.4c0-0.4-0.1-0.7-0.6-0.7c-0.5,0-0.5,0.4-0.5,0.8h-1.4c0-0.6,0.2-1,0.5-1.2c0.3-0.2,0.8-0.3,1.3-0.3
			c1.8,0,2,0.8,2,1.7V174z M222.5,173.4c0,0.4,0.1,0.8,0.5,0.8c0.8,0,0.7-1.1,0.7-1.7C223.1,172.5,222.5,172.5,222.5,173.4z"/>
		<path class="st3" d="M231.1,171.7c0-0.8-0.2-1-0.6-1c-0.6,0-0.6,0.5-0.6,1.6c0,1.5,0.1,1.9,0.6,1.9c0.4,0,0.6-0.4,0.6-1.1h1.4
			c0,1.4-0.7,2-2.1,2c-1.8,0-2.1-1.1-2.1-2.7c0-1.4,0.2-2.6,2.1-2.6c1.3,0,2,0.6,2,1.9H231.1z"/>
		<path class="st3" d="M236,174.9v-3.5c0-0.4-0.1-0.8-0.5-0.8s-0.5,0.3-0.5,0.8v3.5h-1.4v-7.2h1.4v2.7h0c0.1-0.2,0.3-0.4,0.5-0.5
			c0.2-0.1,0.4-0.1,0.7-0.1c0.7,0,1.3,0.4,1.3,1.1v4H236z"/>
		<path class="st3" d="M238.4,172.4c0-1.4,0.2-2.6,2.1-2.6s2.1,1.2,2.1,2.6c0,1.6-0.2,2.7-2.1,2.7S238.4,173.9,238.4,172.4z
			 M241.1,172.3c0-1-0.1-1.6-0.6-1.6s-0.6,0.5-0.6,1.6c0,1.5,0.1,1.9,0.6,1.9C241,174.1,241.1,173.8,241.1,172.3z"/>
		<path class="st3" d="M245.1,167.7v1.1h-1.4v-1.1H245.1z M245.1,174.9h-1.4v-5h1.4V174.9z"/>
		<path class="st3" d="M248.9,171.7c0-0.8-0.2-1-0.6-1c-0.6,0-0.6,0.5-0.6,1.6c0,1.5,0.1,1.9,0.6,1.9c0.4,0,0.6-0.4,0.6-1.1h1.4
			c0,1.4-0.7,2-2.1,2c-1.8,0-2.1-1.1-2.1-2.7c0-1.4,0.2-2.6,2.1-2.6c1.3,0,2,0.6,2,1.9H248.9z"/>
		<path class="st3" d="M252.6,172.7c0,0.6,0,1.5,0.6,1.5c0.5,0,0.6-0.5,0.6-0.9h1.4c0,0.5-0.2,1-0.5,1.3c-0.3,0.3-0.8,0.5-1.5,0.5
			c-1.8,0-2.1-1.1-2.1-2.7c0-1.4,0.2-2.6,2.1-2.6c1.9,0,2.1,1.2,2.1,2.8H252.6z M253.9,171.9c0-0.5,0-1.2-0.6-1.2
			c-0.6,0-0.6,0.8-0.6,1.2H253.9z"/>
		<path class="st3" d="M256.4,173.6h1.3l-0.8,2.3h-1L256.4,173.6z"/>
		<path class="st3" d="M263.3,171.7c0-0.8-0.2-1-0.6-1c-0.6,0-0.6,0.5-0.6,1.6c0,1.5,0.1,1.9,0.6,1.9c0.4,0,0.6-0.4,0.6-1.1h1.4
			c0,1.4-0.7,2-2.1,2c-1.8,0-2.1-1.1-2.1-2.7c0-1.4,0.2-2.6,2.1-2.6c1.3,0,2,0.6,2,1.9H263.3z"/>
		<path class="st3" d="M268.2,174.9v-3.5c0-0.4-0.1-0.8-0.5-0.8s-0.5,0.3-0.5,0.8v3.5h-1.4v-7.2h1.4v2.7h0c0.1-0.2,0.3-0.4,0.5-0.5
			c0.2-0.1,0.4-0.1,0.7-0.1c0.7,0,1.3,0.4,1.3,1.1v4H268.2z"/>
		<path class="st3" d="M270.6,172.4c0-1.4,0.2-2.6,2.1-2.6s2.1,1.2,2.1,2.6c0,1.6-0.2,2.7-2.1,2.7S270.6,173.9,270.6,172.4z
			 M273.3,172.3c0-1-0.1-1.6-0.6-1.6s-0.6,0.5-0.6,1.6c0,1.5,0.1,1.9,0.6,1.9C273.2,174.1,273.3,173.8,273.3,172.3z"/>
		<path class="st3" d="M275.6,172.4c0-1.4,0.2-2.6,2.1-2.6s2.1,1.2,2.1,2.6c0,1.6-0.2,2.7-2.1,2.7S275.6,173.9,275.6,172.4z
			 M278.3,172.3c0-1-0.1-1.6-0.6-1.6s-0.6,0.5-0.6,1.6c0,1.5,0.1,1.9,0.6,1.9C278.2,174.1,278.3,173.8,278.3,172.3z"/>
		<path class="st3" d="M281.9,173.3c0,0.2,0,0.5,0.1,0.6c0.1,0.2,0.2,0.2,0.5,0.2c0.3,0,0.5-0.2,0.5-0.5c0-1.1-2.5-0.8-2.5-2.4
			c0-1.1,1.1-1.4,2-1.4c1,0,1.8,0.5,1.7,1.5h-1.4c0-0.4,0-0.6-0.1-0.7c-0.1-0.1-0.2-0.1-0.4-0.1c-0.3,0-0.5,0.2-0.5,0.5
			c0,0.8,2.5,0.8,2.5,2.4c0,0.9-0.7,1.5-1.9,1.5c-1.2,0-2-0.3-2-1.7H281.9z"/>
		<path class="st3" d="M286.5,172.7c0,0.6,0,1.5,0.6,1.5c0.5,0,0.6-0.5,0.6-0.9h1.4c0,0.5-0.2,1-0.5,1.3c-0.3,0.3-0.8,0.5-1.5,0.5
			c-1.8,0-2.1-1.1-2.1-2.7c0-1.4,0.2-2.6,2.1-2.6c1.9,0,2.1,1.2,2.1,2.8H286.5z M287.8,171.9c0-0.5,0-1.2-0.6-1.2
			c-0.6,0-0.6,0.8-0.6,1.2H287.8z"/>
		<path class="st3" d="M294.6,168.6c-0.6,0-0.7,0.2-0.7,0.7v0.6h0.7v0.9h-0.7v4.2h-1.4v-4.2h-0.6v-0.9h0.6c0-1.4-0.1-2.2,1.6-2.2
			c0.2,0,0.3,0,0.5,0V168.6z"/>
		<path class="st3" d="M299,174c0,0.3,0,0.6,0.1,0.9h-1.3l-0.1-0.7h0c-0.3,0.5-0.7,0.8-1.3,0.8c-1,0-1.3-0.7-1.3-1.6
			c0-1.7,1.3-1.7,2.6-1.7v-0.4c0-0.4-0.1-0.7-0.6-0.7c-0.5,0-0.5,0.4-0.5,0.8h-1.4c0-0.6,0.2-1,0.5-1.2c0.3-0.2,0.8-0.3,1.3-0.3
			c1.8,0,2,0.8,2,1.7V174z M296.4,173.4c0,0.4,0.1,0.8,0.5,0.8c0.8,0,0.7-1.1,0.7-1.7C296.9,172.5,296.4,172.5,296.4,173.4z"/>
		<path class="st3" d="M302.8,171.7c0-0.8-0.2-1-0.6-1c-0.6,0-0.6,0.5-0.6,1.6c0,1.5,0.1,1.9,0.6,1.9c0.4,0,0.6-0.4,0.6-1.1h1.4
			c0,1.4-0.7,2-2.1,2c-1.8,0-2.1-1.1-2.1-2.7c0-1.4,0.2-2.6,2.1-2.6c1.3,0,2,0.6,2,1.9H302.8z"/>
		<path class="st3" d="M304.6,169.9h0.6v-0.8l1.4-0.6v1.4h0.7v0.9h-0.7v2.7c0,0.4,0,0.6,0.4,0.6c0.1,0,0.2,0,0.2,0v0.9
			c-0.2,0-0.4,0-0.7,0c-1.2,0-1.4-0.8-1.4-1.1v-3.1h-0.6V169.9z"/>
		<path class="st3" d="M310.4,174.4L310.4,174.4c-0.2,0.2-0.3,0.4-0.5,0.5c-0.2,0.1-0.4,0.1-0.7,0.1c-0.7,0-1.3-0.4-1.3-1.1v-4h1.4
			v3.5c0,0.4,0.1,0.8,0.5,0.8s0.5-0.3,0.5-0.8v-3.5h1.4v4c0,0.3,0,0.7,0,1h-1.5V174.4z"/>
		<path class="st3" d="M316.8,174c0,0.3,0,0.6,0.1,0.9h-1.3l-0.1-0.7h0c-0.3,0.5-0.7,0.8-1.3,0.8c-1,0-1.3-0.7-1.3-1.6
			c0-1.7,1.3-1.7,2.6-1.7v-0.4c0-0.4-0.1-0.7-0.6-0.7c-0.5,0-0.5,0.4-0.5,0.8h-1.4c0-0.6,0.2-1,0.5-1.2c0.3-0.2,0.8-0.3,1.3-0.3
			c1.8,0,2,0.8,2,1.7V174z M314.2,173.4c0,0.4,0.1,0.8,0.5,0.8c0.8,0,0.7-1.1,0.7-1.7C314.7,172.5,314.2,172.5,314.2,173.4z"/>
		<path class="st3" d="M319.5,167.7v7.2h-1.4v-7.2H319.5z"/>
		<path class="st3" d="M326.8,174c0,0.3,0,0.6,0.1,0.9h-1.3l-0.1-0.7h0c-0.3,0.5-0.7,0.8-1.3,0.8c-1,0-1.3-0.7-1.3-1.6
			c0-1.7,1.3-1.7,2.6-1.7v-0.4c0-0.4-0.1-0.7-0.6-0.7c-0.5,0-0.5,0.4-0.5,0.8h-1.4c0-0.6,0.2-1,0.5-1.2c0.3-0.2,0.8-0.3,1.3-0.3
			c1.8,0,2,0.8,2,1.7V174z M324.2,173.4c0,0.4,0.1,0.8,0.5,0.8c0.8,0,0.7-1.1,0.7-1.7C324.7,172.5,324.2,172.5,324.2,173.4z"/>
		<path class="st3" d="M329.1,173.3c0,0.2,0,0.5,0.1,0.6c0.1,0.2,0.2,0.2,0.5,0.2c0.3,0,0.5-0.2,0.5-0.5c0-1.1-2.5-0.8-2.5-2.4
			c0-1.1,1.1-1.4,2-1.4c1,0,1.8,0.5,1.7,1.5h-1.4c0-0.4,0-0.6-0.1-0.7c-0.1-0.1-0.2-0.1-0.4-0.1c-0.3,0-0.5,0.2-0.5,0.5
			c0,0.8,2.5,0.8,2.5,2.4c0,0.9-0.7,1.5-1.9,1.5c-1.2,0-2-0.3-2-1.7H329.1z"/>
		<path class="st3" d="M333.5,173.3c0,0.2,0,0.5,0.1,0.6c0.1,0.2,0.2,0.2,0.5,0.2c0.3,0,0.5-0.2,0.5-0.5c0-1.1-2.5-0.8-2.5-2.4
			c0-1.1,1.1-1.4,2-1.4c1,0,1.8,0.5,1.7,1.5h-1.4c0-0.4,0-0.6-0.1-0.7c-0.1-0.1-0.2-0.1-0.4-0.1c-0.3,0-0.5,0.2-0.5,0.5
			c0,0.8,2.5,0.8,2.5,2.4c0,0.9-0.7,1.5-1.9,1.5c-1.2,0-2-0.3-2-1.7H333.5z"/>
		<path class="st3" d="M338.4,167.7v1.1H337v-1.1H338.4z M338.4,174.9H337v-5h1.4V174.9z"/>
		<path class="st3" d="M343.5,169.9v5.3c0,0.3,0,1.7-1.9,1.7c-1,0-1.9-0.3-2-1.5h1.4c0,0.2,0,0.4,0.1,0.5c0.1,0.1,0.2,0.2,0.5,0.2
			c0.3,0,0.5-0.3,0.5-0.8v-1h0c-0.2,0.4-0.6,0.6-1.1,0.6c-1.5,0-1.5-1.4-1.5-2.6c0-1.1,0-2.5,1.5-2.5c0.5,0,0.9,0.2,1.1,0.7h0v-0.6
			H343.5z M341.5,174c0.5,0,0.6-0.5,0.6-1.6c0-1.1,0-1.7-0.6-1.7c-0.5,0-0.6,0.4-0.6,1.9C340.9,173,340.8,174,341.5,174z"/>
		<path class="st3" d="M346,170.4L346,170.4c0.2-0.2,0.3-0.4,0.5-0.5c0.2-0.1,0.4-0.1,0.7-0.1c0.7,0,1.3,0.4,1.3,1.1v4h-1.4v-3.5
			c0-0.4-0.1-0.8-0.5-0.8s-0.5,0.3-0.5,0.8v3.5h-1.4v-5h1.4V170.4z"/>
		<path class="st3" d="M350.9,170.4L350.9,170.4c0.3-0.5,0.7-0.6,1.2-0.6c0.5,0,0.9,0.2,1.1,0.6c0.3-0.4,0.7-0.6,1.3-0.6
			c0.7,0,1.3,0.4,1.3,1.1v4h-1.4v-3.5c0-0.4-0.1-0.8-0.5-0.8c-0.4,0-0.5,0.3-0.5,0.8v3.5H352v-3.5c0-0.4-0.1-0.8-0.5-0.8
			s-0.5,0.3-0.5,0.8v3.5h-1.4v-5h1.4V170.4z"/>
		<path class="st3" d="M358.2,172.7c0,0.6,0,1.5,0.6,1.5c0.5,0,0.6-0.5,0.6-0.9h1.4c0,0.5-0.2,1-0.5,1.3c-0.3,0.3-0.8,0.5-1.5,0.5
			c-1.8,0-2.1-1.1-2.1-2.7c0-1.4,0.2-2.6,2.1-2.6c1.9,0,2.1,1.2,2.1,2.8H358.2z M359.4,171.9c0-0.5,0-1.2-0.6-1.2
			c-0.6,0-0.6,0.8-0.6,1.2H359.4z"/>
		<path class="st3" d="M363.3,170.4L363.3,170.4c0.2-0.2,0.3-0.4,0.5-0.5c0.2-0.1,0.4-0.1,0.7-0.1c0.7,0,1.3,0.4,1.3,1.1v4h-1.4
			v-3.5c0-0.4-0.1-0.8-0.5-0.8s-0.5,0.3-0.5,0.8v3.5h-1.4v-5h1.4V170.4z"/>
		<path class="st3" d="M366.3,169.9h0.6v-0.8l1.4-0.6v1.4h0.7v0.9h-0.7v2.7c0,0.4,0,0.6,0.4,0.6c0.1,0,0.2,0,0.2,0v0.9
			c-0.2,0-0.4,0-0.7,0c-1.2,0-1.4-0.8-1.4-1.1v-3.1h-0.6V169.9z"/>
		<path class="st3" d="M370.7,173.3c0,0.2,0,0.5,0.1,0.6c0.1,0.2,0.2,0.2,0.5,0.2c0.3,0,0.5-0.2,0.5-0.5c0-1.1-2.5-0.8-2.5-2.4
			c0-1.1,1.1-1.4,2-1.4c1,0,1.8,0.5,1.7,1.5h-1.4c0-0.4,0-0.6-0.1-0.7c-0.1-0.1-0.2-0.1-0.4-0.1c-0.3,0-0.5,0.2-0.5,0.5
			c0,0.8,2.5,0.8,2.5,2.4c0,0.9-0.7,1.5-1.9,1.5c-1.2,0-2-0.3-2-1.7H370.7z"/>
		<path class="st3" d="M192.9,186c0,0.3,0,0.6,0.1,0.9h-1.3l-0.1-0.7h0c-0.3,0.5-0.7,0.8-1.3,0.8c-1,0-1.3-0.7-1.3-1.6
			c0-1.7,1.3-1.7,2.6-1.7v-0.4c0-0.4-0.1-0.7-0.6-0.7c-0.5,0-0.5,0.4-0.5,0.8h-1.4c0-0.6,0.2-1,0.5-1.2c0.3-0.2,0.8-0.3,1.3-0.3
			c1.8,0,2,0.8,2,1.7V186z M190.3,185.4c0,0.4,0.1,0.8,0.5,0.8c0.8,0,0.7-1.1,0.7-1.7C190.8,184.5,190.3,184.5,190.3,185.4z"/>
		<path class="st3" d="M195.2,185.3c0,0.2,0,0.5,0.1,0.6c0.1,0.2,0.2,0.2,0.5,0.2c0.3,0,0.5-0.2,0.5-0.5c0-1.1-2.5-0.8-2.5-2.4
			c0-1.1,1.1-1.4,2-1.4c1,0,1.8,0.5,1.7,1.5h-1.4c0-0.4,0-0.6-0.1-0.7c-0.1-0.1-0.2-0.1-0.4-0.1c-0.3,0-0.5,0.2-0.5,0.5
			c0,0.8,2.5,0.8,2.5,2.4c0,0.9-0.7,1.5-1.9,1.5c-1.2,0-2-0.3-2-1.7H195.2z"/>
		<path class="st3" d="M200.6,184.4c0-1.4,0.2-2.6,2.1-2.6s2.1,1.2,2.1,2.6c0,1.6-0.2,2.7-2.1,2.7
			C200.9,187,200.6,185.9,200.6,184.4z M203.3,184.3c0-1-0.1-1.6-0.6-1.6s-0.6,0.5-0.6,1.6c0,1.5,0.1,1.9,0.6,1.9
			C203.2,186.1,203.3,185.8,203.3,184.3z"/>
		<path class="st3" d="M207.1,181.9v0.6h0c0.3-0.5,0.6-0.7,1.2-0.7c1.5,0,1.4,1.6,1.4,2.7c0,1,0,2.6-1.4,2.6c-0.5,0-0.9-0.1-1.1-0.6
			h0v2.6h-1.4v-7.2H207.1z M208.3,184.4c0-1,0-1.7-0.6-1.7c-0.6,0-0.6,0.7-0.6,1.7c0,1.3,0.1,1.8,0.6,1.8
			C208.2,186.2,208.3,185.7,208.3,184.4z"/>
		<path class="st3" d="M212.1,181.9v0.6h0c0.3-0.5,0.6-0.7,1.2-0.7c1.5,0,1.4,1.6,1.4,2.7c0,1,0,2.6-1.4,2.6c-0.5,0-0.9-0.1-1.1-0.6
			h0v2.6h-1.4v-7.2H212.1z M213.3,184.4c0-1,0-1.7-0.6-1.7c-0.6,0-0.6,0.7-0.6,1.7c0,1.3,0.1,1.8,0.6,1.8
			C213.2,186.2,213.3,185.7,213.3,184.4z"/>
		<path class="st3" d="M215.6,184.4c0-1.4,0.2-2.6,2.1-2.6s2.1,1.2,2.1,2.6c0,1.6-0.2,2.7-2.1,2.7
			C215.9,187,215.6,185.9,215.6,184.4z M218.3,184.3c0-1-0.1-1.6-0.6-1.6s-0.6,0.5-0.6,1.6c0,1.5,0.1,1.9,0.6,1.9
			C218.2,186.1,218.3,185.8,218.3,184.3z"/>
		<path class="st3" d="M221.9,185.3c0,0.2,0,0.5,0.1,0.6c0.1,0.2,0.2,0.2,0.5,0.2c0.3,0,0.5-0.2,0.5-0.5c0-1.1-2.5-0.8-2.5-2.4
			c0-1.1,1.1-1.4,2-1.4c1,0,1.8,0.5,1.7,1.5h-1.4c0-0.4,0-0.6-0.1-0.7c-0.1-0.1-0.2-0.1-0.4-0.1c-0.3,0-0.5,0.2-0.5,0.5
			c0,0.8,2.5,0.8,2.5,2.4c0,0.9-0.7,1.5-1.9,1.5c-1.2,0-2-0.3-2-1.7H221.9z"/>
		<path class="st3" d="M226.5,184.7c0,0.6,0,1.5,0.6,1.5c0.5,0,0.6-0.5,0.6-0.9h1.4c0,0.5-0.2,1-0.5,1.3c-0.3,0.3-0.8,0.5-1.5,0.5
			c-1.8,0-2.1-1.1-2.1-2.7c0-1.4,0.2-2.6,2.1-2.6c1.9,0,2.1,1.2,2.1,2.8H226.5z M227.8,183.9c0-0.5,0-1.2-0.6-1.2
			c-0.6,0-0.6,0.8-0.6,1.2H227.8z"/>
		<path class="st3" d="M232.7,186.9v-0.6h0c-0.3,0.5-0.6,0.7-1.2,0.7c-1.5,0-1.4-1.6-1.4-2.7c0-1,0-2.6,1.4-2.6
			c0.5,0,0.9,0.2,1.1,0.6h0v-2.6h1.4v7.2H232.7z M232.6,184.4c0-1,0-1.7-0.6-1.7c-0.6,0-0.6,0.7-0.6,1.7c0,1.3,0.1,1.8,0.6,1.8
			C232.6,186.2,232.6,185.7,232.6,184.4z"/>
		<path class="st3" d="M236.8,181.9h0.6v-0.8l1.4-0.6v1.4h0.7v0.9h-0.7v2.7c0,0.4,0,0.6,0.4,0.6c0.1,0,0.2,0,0.2,0v0.9
			c-0.2,0-0.4,0-0.7,0c-1.2,0-1.4-0.8-1.4-1.1v-3.1h-0.6V181.9z"/>
		<path class="st3" d="M240.1,184.4c0-1.4,0.2-2.6,2.1-2.6s2.1,1.2,2.1,2.6c0,1.6-0.2,2.7-2.1,2.7S240.1,185.9,240.1,184.4z
			 M242.8,184.3c0-1-0.1-1.6-0.6-1.6s-0.6,0.5-0.6,1.6c0,1.5,0.1,1.9,0.6,1.9C242.7,186.1,242.8,185.8,242.8,184.3z"/>
		<path class="st3" d="M247.3,184.4c0-1.4,0.2-2.6,2.1-2.6s2.1,1.2,2.1,2.6c0,1.6-0.2,2.7-2.1,2.7S247.3,185.9,247.3,184.4z
			 M250,184.3c0-1-0.1-1.6-0.6-1.6s-0.6,0.5-0.6,1.6c0,1.5,0.1,1.9,0.6,1.9C249.9,186.1,250,185.8,250,184.3z"/>
		<path class="st3" d="M253.8,181.9v0.6h0c0.3-0.5,0.6-0.7,1.2-0.7c1.5,0,1.4,1.6,1.4,2.7c0,1,0,2.6-1.4,2.6c-0.5,0-0.9-0.1-1.1-0.6
			h0v2.6h-1.4v-7.2H253.8z M255,184.4c0-1,0-1.7-0.6-1.7c-0.6,0-0.6,0.7-0.6,1.7c0,1.3,0.1,1.8,0.6,1.8
			C254.9,186.2,255,185.7,255,184.4z"/>
		<path class="st3" d="M258.7,184.7c0,0.6,0,1.5,0.6,1.5c0.5,0,0.6-0.5,0.6-0.9h1.4c0,0.5-0.2,1-0.5,1.3c-0.3,0.3-0.8,0.5-1.5,0.5
			c-1.8,0-2.1-1.1-2.1-2.7c0-1.4,0.2-2.6,2.1-2.6c1.9,0,2.1,1.2,2.1,2.8H258.7z M260,183.9c0-0.5,0-1.2-0.6-1.2
			c-0.6,0-0.6,0.8-0.6,1.2H260z"/>
		<path class="st3" d="M263.8,182.4L263.8,182.4c0.2-0.2,0.3-0.4,0.5-0.5c0.2-0.1,0.4-0.1,0.7-0.1c0.7,0,1.3,0.4,1.3,1.1v4h-1.4
			v-3.5c0-0.4-0.1-0.8-0.5-0.8s-0.5,0.3-0.5,0.8v3.5h-1.4v-5h1.4V182.4z"/>
		<path class="st3" d="M269.7,183.7v1h-2.4v-1H269.7z"/>
		<path class="st3" d="M272,184.7c0,0.6,0,1.5,0.6,1.5c0.5,0,0.6-0.5,0.6-0.9h1.4c0,0.5-0.2,1-0.5,1.3c-0.3,0.3-0.8,0.5-1.5,0.5
			c-1.8,0-2.1-1.1-2.1-2.7c0-1.4,0.2-2.6,2.1-2.6c1.9,0,2.1,1.2,2.1,2.8H272z M273.3,183.9c0-0.5,0-1.2-0.6-1.2
			c-0.6,0-0.6,0.8-0.6,1.2H273.3z"/>
		<path class="st3" d="M277.2,182.4L277.2,182.4c0.2-0.2,0.3-0.4,0.5-0.5c0.2-0.1,0.4-0.1,0.7-0.1c0.7,0,1.3,0.4,1.3,1.1v4h-1.4
			v-3.5c0-0.4-0.1-0.8-0.5-0.8s-0.5,0.3-0.5,0.8v3.5h-1.4v-5h1.4V182.4z"/>
		<path class="st3" d="M283.3,186.9v-0.6h0c-0.3,0.5-0.6,0.7-1.2,0.7c-1.5,0-1.4-1.6-1.4-2.7c0-1,0-2.6,1.4-2.6
			c0.5,0,0.9,0.2,1.1,0.6h0v-2.6h1.4v7.2H283.3z M283.2,184.4c0-1,0-1.7-0.6-1.7c-0.6,0-0.6,0.7-0.6,1.7c0,1.3,0.1,1.8,0.6,1.8
			C283.1,186.2,283.2,185.7,283.2,184.4z"/>
		<path class="st3" d="M287,184.7c0,0.6,0,1.5,0.6,1.5c0.5,0,0.6-0.5,0.6-0.9h1.4c0,0.5-0.2,1-0.5,1.3c-0.3,0.3-0.8,0.5-1.5,0.5
			c-1.8,0-2.1-1.1-2.1-2.7c0-1.4,0.2-2.6,2.1-2.6c1.9,0,2.1,1.2,2.1,2.8H287z M288.3,183.9c0-0.5,0-1.2-0.6-1.2
			c-0.6,0-0.6,0.8-0.6,1.2H288.3z"/>
		<path class="st3" d="M293.3,186.9v-0.6h0c-0.3,0.5-0.6,0.7-1.2,0.7c-1.5,0-1.4-1.6-1.4-2.7c0-1,0-2.6,1.4-2.6
			c0.5,0,0.9,0.2,1.1,0.6h0v-2.6h1.4v7.2H293.3z M293.2,184.4c0-1,0-1.7-0.6-1.7c-0.6,0-0.6,0.7-0.6,1.7c0,1.3,0.1,1.8,0.6,1.8
			C293.1,186.2,293.2,185.7,293.2,184.4z"/>
		<path class="st3" d="M301.8,186c0,0.3,0,0.6,0.1,0.9h-1.3l-0.1-0.7h0c-0.3,0.5-0.7,0.8-1.3,0.8c-1,0-1.3-0.7-1.3-1.6
			c0-1.7,1.3-1.7,2.6-1.7v-0.4c0-0.4-0.1-0.7-0.6-0.7c-0.5,0-0.5,0.4-0.5,0.8h-1.4c0-0.6,0.2-1,0.5-1.2c0.3-0.2,0.8-0.3,1.3-0.3
			c1.8,0,2,0.8,2,1.7V186z M299.2,185.4c0,0.4,0.1,0.8,0.5,0.8c0.8,0,0.7-1.1,0.7-1.7C299.7,184.5,299.2,184.5,299.2,185.4z"/>
		<path class="st3" d="M304.1,185.3c0,0.2,0,0.5,0.1,0.6c0.1,0.2,0.2,0.2,0.5,0.2c0.3,0,0.5-0.2,0.5-0.5c0-1.1-2.5-0.8-2.5-2.4
			c0-1.1,1.1-1.4,2-1.4c1,0,1.8,0.5,1.7,1.5h-1.4c0-0.4,0-0.6-0.1-0.7c-0.1-0.1-0.2-0.1-0.4-0.1c-0.3,0-0.5,0.2-0.5,0.5
			c0,0.8,2.5,0.8,2.5,2.4c0,0.9-0.7,1.5-1.9,1.5c-1.2,0-2-0.3-2-1.7H304.1z"/>
		<path class="st3" d="M308.5,185.3c0,0.2,0,0.5,0.1,0.6c0.1,0.2,0.2,0.2,0.5,0.2c0.3,0,0.5-0.2,0.5-0.5c0-1.1-2.5-0.8-2.5-2.4
			c0-1.1,1.1-1.4,2-1.4c1,0,1.8,0.5,1.7,1.5h-1.4c0-0.4,0-0.6-0.1-0.7c-0.1-0.1-0.2-0.1-0.4-0.1c-0.3,0-0.5,0.2-0.5,0.5
			c0,0.8,2.5,0.8,2.5,2.4c0,0.9-0.7,1.5-1.9,1.5c-1.2,0-2-0.3-2-1.7H308.5z"/>
		<path class="st3" d="M313.4,179.7v1.1H312v-1.1H313.4z M313.4,186.9H312v-5h1.4V186.9z"/>
		<path class="st3" d="M318.5,181.9v5.3c0,0.3,0,1.7-1.9,1.7c-1,0-1.9-0.3-2-1.5h1.4c0,0.2,0,0.4,0.1,0.5c0.1,0.1,0.2,0.2,0.5,0.2
			c0.3,0,0.5-0.3,0.5-0.8v-1h0c-0.2,0.4-0.6,0.6-1.1,0.6c-1.5,0-1.5-1.4-1.5-2.6c0-1.1,0-2.5,1.5-2.5c0.5,0,0.9,0.2,1.1,0.7h0v-0.6
			H318.5z M316.5,186c0.5,0,0.6-0.5,0.6-1.6c0-1.1,0-1.7-0.6-1.7c-0.5,0-0.6,0.4-0.6,1.9C315.9,185,315.8,186,316.5,186z"/>
		<path class="st3" d="M321,182.4L321,182.4c0.2-0.2,0.3-0.4,0.5-0.5c0.2-0.1,0.4-0.1,0.7-0.1c0.7,0,1.3,0.4,1.3,1.1v4h-1.4v-3.5
			c0-0.4-0.1-0.8-0.5-0.8s-0.5,0.3-0.5,0.8v3.5h-1.4v-5h1.4V182.4z"/>
		<path class="st3" d="M325.9,182.4L325.9,182.4c0.3-0.5,0.7-0.6,1.2-0.6c0.5,0,0.9,0.2,1.1,0.6c0.3-0.4,0.7-0.6,1.3-0.6
			c0.7,0,1.3,0.4,1.3,1.1v4h-1.4v-3.5c0-0.4-0.1-0.8-0.5-0.8s-0.5,0.3-0.5,0.8v3.5H327v-3.5c0-0.4-0.1-0.8-0.5-0.8s-0.5,0.3-0.5,0.8
			v3.5h-1.4v-5h1.4V182.4z"/>
		<path class="st3" d="M333.1,184.7c0,0.6,0,1.5,0.6,1.5c0.5,0,0.6-0.5,0.6-0.9h1.4c0,0.5-0.2,1-0.5,1.3c-0.3,0.3-0.8,0.5-1.5,0.5
			c-1.8,0-2.1-1.1-2.1-2.7c0-1.4,0.2-2.6,2.1-2.6c1.9,0,2.1,1.2,2.1,2.8H333.1z M334.4,183.9c0-0.5,0-1.2-0.6-1.2
			c-0.6,0-0.6,0.8-0.6,1.2H334.4z"/>
		<path class="st3" d="M338.3,182.4L338.3,182.4c0.2-0.2,0.3-0.4,0.5-0.5c0.2-0.1,0.4-0.1,0.7-0.1c0.7,0,1.3,0.4,1.3,1.1v4h-1.4
			v-3.5c0-0.4-0.1-0.8-0.5-0.8s-0.5,0.3-0.5,0.8v3.5h-1.4v-5h1.4V182.4z"/>
		<path class="st3" d="M341.3,181.9h0.6v-0.8l1.4-0.6v1.4h0.7v0.9h-0.7v2.7c0,0.4,0,0.6,0.4,0.6c0.1,0,0.2,0,0.2,0v0.9
			c-0.2,0-0.4,0-0.7,0c-1.2,0-1.4-0.8-1.4-1.1v-3.1h-0.6V181.9z"/>
		<path class="st3" d="M345.7,185.3c0,0.2,0,0.5,0.1,0.6c0.1,0.2,0.2,0.2,0.5,0.2c0.3,0,0.5-0.2,0.5-0.5c0-1.1-2.5-0.8-2.5-2.4
			c0-1.1,1.1-1.4,2-1.4c1,0,1.8,0.5,1.7,1.5h-1.4c0-0.4,0-0.6-0.1-0.7c-0.1-0.1-0.2-0.1-0.4-0.1c-0.3,0-0.5,0.2-0.5,0.5
			c0,0.8,2.5,0.8,2.5,2.4c0,0.9-0.7,1.5-1.9,1.5c-1.2,0-2-0.3-2-1.7H345.7z"/>
	</g>
</g>
</svg>
