<svg xmlns="http://www.w3.org/2000/svg" id="Layer_1" xmlns:xlink="http://www.w3.org/1999/xlink" viewBox="0 0 383.3 312.1">
  <style>
    .Drop_x0020_Shadow{fill:none;} .Outer_x0020_Glow_x0020_5_x0020_pt{fill:none;} .Blue_x0020_Neon{fill:none;stroke:#8AACDA;stroke-width:7;stroke-linecap:round;stroke-linejoin:round;} .Chrome_x0020_Highlight{fill:url(#SVGID_1_);stroke:#FFFFFF;stroke-width:0.3629;stroke-miterlimit:1;} .Jive_GS{fill:#FFDD00;} .Alyssa_GS{fill:#A6D0E4;} .st0{opacity:0.8;fill:#0A3656;} .st1{fill:#ED5A49;} .st2{fill:#ED5A49;stroke:#221F1F;stroke-width:0.1836;stroke-miterlimit:10;} .st3{fill:#0A3656;} .st4{fill:none;stroke:#ED5A49;stroke-width:2;stroke-linecap:round;stroke-linejoin:round;stroke-miterlimit:10;stroke-dasharray:0,8;} .st5{fill:#E9F5FC;} .st6{fill:none;stroke:#E9F5FC;stroke-width:0.1274;stroke-linecap:round;stroke-linejoin:round;stroke-miterlimit:10;} .st7{fill:#C12944;} .st8{fill:#F5F1ED;} .st9{fill:#542337;} .st10{fill:#FFFFFF;} .st11{fill:none;stroke:#C12944;stroke-width:0.8464;stroke-linecap:round;stroke-linejoin:round;stroke-miterlimit:10;} .st12{fill:#C12944;stroke:#C12944;stroke-width:0.7245;stroke-linecap:round;stroke-linejoin:round;stroke-miterlimit:10;} .st13{fill:none;stroke:#542337;stroke-width:0.378;stroke-linecap:round;stroke-linejoin:round;stroke-miterlimit:10;} .st14{fill:#DDE8F0;} .st15{fill:#491B2E;} .st16{clip-path:url(#SVGID_3_);} .st17{fill:#E6E7E8;} .st18{clip-path:url(#SVGID_5_);}
  </style>
  <linearGradient id="SVGID_1_" x1="-444.212" x2="-444.212" y1="-114.818" y2="-115.818" gradientUnits="userSpaceOnUse">
    <stop offset="0" stop-color="#656565"/>
    <stop offset=".618" stop-color="#1B1B1B"/>
    <stop offset=".629" stop-color="#545454"/>
    <stop offset=".983" stop-color="#3E3E3E"/>
  </linearGradient>
  <path d="M243.8 40.9h-1.5v-7.2h2.8c1 0 1.7.7 1.7 1.9 0 .9-.4 1.6-1.3 1.8.3 0 1.3.1 1.3 1.4 0 .5 0 1.8.2 2.1h-1.5c-.2-.4-.2-.9-.2-1.4 0-.9.1-1.6-1.1-1.6h-.4v3zm0-4.1h.7c.6 0 .8-.6.8-1.1 0-.7-.3-.9-.8-.9h-.7v2zm5.4 1.8c0 .6 0 1.5.6 1.5.5 0 .6-.5.6-.9h1.4c0 .5-.2 1-.5 1.3-.3.3-.8.5-1.5.5-1.8 0-2.1-1.1-2.1-2.7 0-1.4.2-2.6 2.1-2.6 1.9 0 2.1 1.2 2.1 2.8h-2.7zm1.2-.8c0-.5 0-1.2-.6-1.2-.7 0-.6.8-.6 1.2h1.2zm3.8-1.5c.3-.5.7-.6 1.2-.6s.9.2 1.1.6c.3-.4.7-.6 1.3-.6.7 0 1.3.4 1.3 1.1v4h-1.4v-3.5c0-.4-.1-.8-.5-.8s-.5.3-.5.8v3.5h-1.4v-3.5c0-.4-.1-.8-.5-.8s-.5.3-.5.8v3.5h-1.4v-5h1.4v.5zm7.2 2.3c0 .6 0 1.5.6 1.5.5 0 .6-.5.6-.9h1.4c0 .5-.2 1-.5 1.3-.3.3-.8.5-1.5.5-1.8 0-2.1-1.1-2.1-2.7 0-1.4.2-2.6 2.1-2.6 1.9 0 2.1 1.2 2.1 2.8h-2.7zm1.3-.8c0-.5 0-1.2-.6-1.2-.7 0-.6.8-.6 1.2h1.2zm3.7-1.5c.3-.5.7-.6 1.2-.6s.9.2 1.1.6c.3-.4.7-.6 1.3-.6.7 0 1.3.4 1.3 1.1v4h-1.4v-3.5c0-.4-.1-.8-.5-.8s-.5.3-.5.8v3.5h-1.4v-3.5c0-.4-.1-.8-.5-.8s-.5.3-.5.8v3.5H265v-5h1.4v.5zm5.9-2.6h1.4v2.6c.3-.4.6-.6 1.1-.6 1.4 0 1.4 1.6 1.4 2.6s0 2.7-1.4 2.7c-.5 0-.9-.2-1.2-.7v.6h-1.3v-7.2zm2.6 4.6c0-1 0-1.7-.6-1.7s-.6.7-.6 1.7c0 1.3.1 1.8.6 1.8s.6-.5.6-1.8zm3.7.3c0 .6 0 1.5.6 1.5.5 0 .6-.5.6-.9h1.4c0 .5-.2 1-.5 1.3-.3.3-.8.5-1.5.5-1.8 0-2.1-1.1-2.1-2.7 0-1.4.2-2.6 2.1-2.6 1.9 0 2.1 1.2 2.1 2.8h-2.7zm1.3-.8c0-.5 0-1.2-.6-1.2-.7 0-.6.8-.6 1.2h1.2zm3.7-2v.6c.3-.6.7-.8 1.3-.8V37c-1.2-.1-1.3.6-1.3 1.1v2.7h-1.4v-5h1.4zm3.7 0h.6V35l1.4-.6v1.4h.7v.9h-.7v2.7c0 .4 0 .6.5.6h.2v.9h-.7c-1.2 0-1.4-.8-1.4-1.1v-3.1h-.6v-.9zm3.2 2.5c0-1.4.2-2.6 2.1-2.6 1.9 0 2.1 1.2 2.1 2.6 0 1.6-.2 2.7-2.1 2.7-1.9 0-2.1-1.1-2.1-2.7zm2.7-.1c0-1 0-1.6-.6-1.6s-.7.5-.7 1.6c0 1.5.1 1.9.7 1.9.5 0 .6-.3.6-1.9zm8.5 1.7c0 .3 0 .6.1.9h-1.3l-.1-.7c-.3.5-.7.8-1.3.8-1 0-1.3-.7-1.3-1.6 0-1.7 1.3-1.7 2.6-1.7v-.4c0-.4-.1-.7-.6-.7s-.5.4-.5.8h-1.4c0-.6.2-1 .5-1.2.3-.2.8-.3 1.3-.3 1.8 0 2 .8 2 1.7v2.4zm-2.6-.6c0 .4.1.8.5.8.8 0 .7-1.1.7-1.7-.7.1-1.2 0-1.2.9zm5.3-5.6v7.2H303v-7.2h1.4zm.8 2.1h1.4l.7 3.8 1-3.8h1.5l.9 3.8.8-3.8h1.3l-1.4 5h-1.5l-.9-3.4-1 3.4h-1.5l-1.3-5zm12 4.1c0 .3 0 .6.1.9H316l-.1-.7c-.3.5-.7.8-1.3.8-1 0-1.3-.7-1.3-1.6 0-1.7 1.3-1.7 2.6-1.7v-.4c0-.4-.1-.7-.6-.7s-.5.4-.5.8h-1.4c0-.6.2-1 .5-1.2.3-.2.8-.3 1.3-.3 1.8 0 2 .8 2 1.7v2.4zm-2.6-.6c0 .4.1.8.5.8.8 0 .7-1.1.7-1.7-.6.1-1.2 0-1.2.9zm4.7 1.6l-1.4-5.1h1.4l.7 3.5.8-3.5h1.4l-1.9 7h-1.5l.5-1.9zm4.7-1.6c0 .2 0 .5.1.6.1.2.2.2.5.2s.5-.2.5-.5c0-1.1-2.5-.8-2.5-2.4 0-1.1 1.1-1.4 2-1.4 1 0 1.8.5 1.7 1.5h-1.4c0-.4 0-.6-.1-.7-.1-.1-.2-.1-.4-.1-.3 0-.5.2-.5.5 0 .8 2.5.8 2.5 2.4 0 .9-.7 1.5-1.9 1.5s-2-.3-2-1.7h1.5zm6.8-3.5v.6c.3-.5.6-.7 1.2-.7 1.5 0 1.4 1.6 1.4 2.7 0 1 0 2.6-1.4 2.6-.5 0-.9-.1-1.1-.6V43h-1.4v-7.2h1.3zm1.3 2.5c0-1 0-1.7-.6-1.7s-.6.7-.6 1.7c0 1.3.1 1.8.6 1.8s.6-.5.6-1.8zm3.7-2.5v.6c.3-.6.7-.8 1.3-.8V37c-1.2-.1-1.3.6-1.3 1.1v2.7h-1.4v-5h1.4zm3.6-2.1v1.1H338v-1.1h1.4zm0 7.2H338v-5h1.4v5zm1.1-2.6c0-1.4.2-2.6 2.1-2.6 1.9 0 2.1 1.2 2.1 2.6 0 1.6-.2 2.7-2.1 2.7-1.9 0-2.1-1.1-2.1-2.7zm2.7-.1c0-1 0-1.6-.6-1.6s-.7.5-.7 1.6c0 1.5.1 1.9.7 1.9.5 0 .6-.3.6-1.9zm3.8-2.4v.6c.3-.6.7-.8 1.3-.8V37c-1.2-.1-1.3.6-1.3 1.1v2.7h-1.4v-5h1.4zm3.5-2.1v1.1h-1.4v-1.1h1.4zm0 7.2h-1.4v-5h1.4v5zm.7-5.1h.6V35l1.4-.6v1.4h.7v.9h-.7v2.7c0 .4 0 .6.5.6h.2v.9h-.7c-1.2 0-1.4-.8-1.4-1.1v-3.1h-.6v-.9zm4.8-2.1v1.1h-1.4v-1.1h1.4zm0 7.2h-1.4v-5h1.4v5zm4.4-4.1l-2 3.1h2v.9H357v-1l2-3.1h-2v-.9h3.3v1zm2.1 1.8c0 .6 0 1.5.6 1.5.5 0 .6-.5.6-.9h1.4c0 .5-.2 1-.5 1.3-.3.3-.8.5-1.5.5-1.8 0-2.1-1.1-2.1-2.7 0-1.4.2-2.6 2.1-2.6 1.9 0 2.1 1.2 2.1 2.8h-2.7zm1.3-.8c0-.5 0-1.2-.6-1.2-.7 0-.6.8-.6 1.2h1.2zm-119.3 8.7c-.6 0-.7.2-.7.7v.6h.7v.9h-.7v4.2h-1.4v-4.2h-.6v-.9h.6c0-1.4-.1-2.2 1.6-2.2h.5v.9zm1.7-.8v1.1h-1.4v-1.1h1.4zm0 7.2h-1.4v-5h1.4v5zm2.5-4.6c.2-.2.3-.4.5-.5.2-.1.4-.1.7-.1.7 0 1.3.4 1.3 1.1v4h-1.4v-3.5c0-.4-.1-.8-.5-.8-.5 0-.5.3-.5.8v3.5h-1.4v-5h1.4v.5zm5.1-2.6v1.1h-1.4v-1.1h1.4zm0 7.2h-1.4v-5h1.4v5zm2.4-1.6c0 .2 0 .5.1.6.1.2.2.2.5.2s.5-.2.5-.5c0-1.1-2.5-.8-2.5-2.4 0-1.1 1.1-1.4 2-1.4 1 0 1.8.5 1.7 1.5h-1.4c0-.4 0-.6-.1-.7-.1-.1-.2-.1-.4-.1-.3 0-.5.2-.5.5 0 .8 2.5.8 2.5 2.4 0 .9-.7 1.5-1.9 1.5s-2-.3-2-1.7h1.5zm5.8 1.6v-3.5c0-.4-.1-.8-.5-.8-.5 0-.5.3-.5.8v3.5h-1.4v-7.2h1.4v2.7c.1-.2.3-.4.5-.5.2-.1.4-.1.7-.1.7 0 1.3.4 1.3 1.1v4H262zm4-7.2v1.1h-1.4v-1.1h1.4zm0 7.2h-1.4v-5h1.4v5zm2.7-4.6c.2-.2.3-.4.5-.5.2-.1.4-.1.7-.1.7 0 1.3.4 1.3 1.1v4h-1.4v-3.5c0-.4-.1-.8-.5-.8-.5 0-.5.3-.5.8v3.5h-1.4v-5h1.4v.5zm7.5-.5v5.3c0 .3 0 1.7-1.9 1.7-1 0-1.9-.3-2-1.5h1.4c0 .2 0 .4.1.5.1.1.2.2.5.2.4 0 .5-.3.5-.8v-1c-.2.4-.6.6-1.1.6-1.5 0-1.5-1.4-1.5-2.6 0-1.1 0-2.5 1.5-2.5.5 0 .9.2 1.1.7v-.6h1.4zm-2 4.1c.5 0 .6-.5.6-1.6s-.1-1.7-.6-1.7-.6.4-.6 1.9c0 .5-.1 1.4.6 1.4zm6.2 1l-1.4-5.1h1.4l.7 3.5.8-3.5h1.4l-1.9 7h-1.5l.5-1.9zm3.4-2.6c0-1.4.2-2.6 2.1-2.6 1.9 0 2.1 1.2 2.1 2.6 0 1.6-.2 2.7-2.1 2.7-1.8 0-2.1-1.1-2.1-2.7zm2.7-.1c0-1 0-1.6-.6-1.6s-.7.5-.7 1.6c0 1.5.1 1.9.7 1.9.5 0 .6-.3.6-1.9zm4.9 2.2c-.2.2-.3.4-.5.5-.2.1-.4.1-.7.1-.7 0-1.3-.4-1.3-1.1v-4h1.4v3.5c0 .4.1.8.5.8s.5-.3.5-.8v-3.5h1.4v5h-1.5v-.5zm3.9-4.6v.6c.3-.6.7-.8 1.3-.8V49c-1.2-.1-1.3.6-1.3 1.1v2.7H294v-5h1.3zm5.5 0v.6c.3-.5.6-.7 1.2-.7 1.5 0 1.4 1.6 1.4 2.7 0 1 0 2.6-1.4 2.6-.5 0-.9-.1-1.1-.6V55h-1.4v-7.2h1.3zm1.3 2.5c0-1 0-1.7-.6-1.7s-.6.7-.6 1.7c0 1.3.1 1.8.6 1.8s.6-.5.6-1.8zm3.7-2.5v.6c.3-.6.7-.8 1.3-.8V49c-1.2-.1-1.3.6-1.3 1.1v2.7h-1.4v-5h1.4zm1.9 2.5c0-1.4.2-2.6 2.1-2.6 1.9 0 2.1 1.2 2.1 2.6 0 1.6-.2 2.7-2.1 2.7-1.8 0-2.1-1.1-2.1-2.7zm2.7-.1c0-1 0-1.6-.6-1.6s-.7.5-.7 1.6c0 1.5.1 1.9.7 1.9.5 0 .6-.3.6-1.9zm4-2.4v5.5c0 1-.5 1.4-1.3 1.4h-.5v-.9c.2 0 .4 0 .4-.4v-5.6h1.4zm0-2.1v1.1H313v-1.1h1.4zm2.5 4.9c0 .6 0 1.5.6 1.5.5 0 .6-.5.6-.9h1.4c0 .5-.2 1-.5 1.3-.3.3-.8.5-1.5.5-1.8 0-2.1-1.1-2.1-2.7 0-1.4.2-2.6 2.1-2.6 1.9 0 2.1 1.2 2.1 2.8h-2.7zm1.3-.8c0-.5 0-1.2-.6-1.2-.7 0-.6.8-.6 1.2h1.2zm5-.2c0-.8-.2-1-.6-1-.6 0-.7.5-.7 1.6 0 1.5.1 1.9.7 1.9.4 0 .6-.4.6-1.1h1.4c0 1.4-.7 2-2.1 2-1.8 0-2.1-1.1-2.1-2.7 0-1.4.2-2.6 2.1-2.6 1.3 0 2 .6 2 1.9h-1.3zm1.8-1.8h.6V47l1.4-.6v1.4h.7v.9h-.7v2.7c0 .4 0 .6.5.6h.2v.9h-.7c-1.2 0-1.4-.8-1.4-1.1v-3.1h-.6v-.9zm4.5 3.5c0 .2 0 .5.1.6.1.2.2.2.5.2s.5-.2.5-.5c0-1.1-2.5-.8-2.5-2.4 0-1.1 1.1-1.4 2-1.4 1 0 1.8.5 1.7 1.5h-1.4c0-.4 0-.6-.1-.7-.1-.1-.2-.1-.4-.1-.3 0-.5.2-.5.5 0 .8 2.5.8 2.5 2.4 0 .9-.7 1.5-1.9 1.5s-2-.3-2-1.7h1.5z" class="st3"/>
  <g id="hourglass">
    <path d="M39.7 13.1H13.9c-1 0-1.9-.8-1.9-1.9 0-1 .8-1.9 1.9-1.9h25.8c1 0 1.9.8 1.9 1.9 0 1.1-.8 1.9-1.9 1.9zm0 42.4H13.9c-1 0-1.9-.8-1.9-1.9 0-1 .8-1.9 1.9-1.9h25.8c1 0 1.9.8 1.9 1.9 0 1.1-.8 1.9-1.9 1.9z" class="st7"/>
    <path d="M13.3 12.1s1.3 9.4 3.9 14.1c2.4 4.3 7.8 6.2 5.2 9.2-3.8 4.4-8.8 9.4-9.2 15.9-.1 1.3.9 2.3 2.2 2.3H38c1.1 0 2-1 1.7-2.1C39 48 36.9 41.1 32 36.2c0 0-3.8-2.9 1.4-8S41 15 40.2 12.1H13.3z" class="st8"/>
    <path d="M16.6 19.8s7.9 11.1 10.1 11.1 6.6-5.6 6.6-5.6-3.7-.8-7.7 0-9-5.5-9-5.5zm1.7 30.1c-1.3 0-2-1.5-1.2-2.6 2.3-2.7 6.1-6.6 9.5-6.6 3.4 0 7.3 3.9 9.6 6.6.9 1 .1 2.6-1.2 2.6H18.3z" class="st9"/>
  </g>
  <path d="M38.1 54.8h191.4" class="st4"/>
  <path d="M15.6 79.5v-7.2h2.7c1.1 0 2.1.3 2.1 1.9 0 .8-.4 1.4-1.2 1.6 1.1.2 1.3.8 1.3 1.8 0 1.8-1.6 1.9-2.2 1.9h-2.7zm1.5-4.3h1c.3 0 .8-.2.8-.9 0-.5-.4-.9-.9-.9h-.9v1.8zm0 3.2h.9c.3 0 1 0 1-1 0-.6-.2-1-1-1h-.9v2zm5.8-1.2c0 .6 0 1.5.6 1.5.5 0 .6-.5.6-.9h1.4c0 .5-.2 1-.5 1.3-.3.3-.8.5-1.5.5-1.8 0-2.1-1.1-2.1-2.7 0-1.4.2-2.6 2.1-2.6 1.9 0 2.1 1.2 2.1 2.8h-2.7zm1.3-.8c0-.5 0-1.2-.6-1.2-.7 0-.6.8-.6 1.2h1.2zm7.2-.2c0-.8-.2-1-.6-1-.6 0-.7.5-.7 1.6 0 1.5.1 1.9.7 1.9.4 0 .6-.4.6-1.1h1.4c0 1.4-.7 2-2.1 2-1.8 0-2.1-1.1-2.1-2.7 0-1.4.2-2.6 2.1-2.6 1.3 0 2 .6 2 1.9h-1.3zm3.8-1.8v.6c.3-.6.7-.8 1.3-.8v1.3c-1.2-.1-1.3.6-1.3 1.1v2.7h-1.4v-5h1.4zm3.3 2.8c0 .6 0 1.5.6 1.5.5 0 .6-.5.6-.9h1.4c0 .5-.2 1-.5 1.3-.3.3-.8.5-1.5.5-1.8 0-2.1-1.1-2.1-2.7 0-1.4.2-2.6 2.1-2.6 1.9 0 2.1 1.2 2.1 2.8h-2.7zm1.3-.8c0-.5 0-1.2-.6-1.2-.7 0-.6.8-.6 1.2h1.2zm6.2 2.2c0 .3 0 .6.1.9h-1.3l-.1-.7c-.3.5-.7.8-1.3.8-1 0-1.3-.7-1.3-1.6 0-1.7 1.3-1.7 2.6-1.7v-.4c0-.4-.1-.7-.6-.7s-.5.4-.5.8h-1.4c0-.6.2-1 .5-1.2.3-.2.8-.3 1.3-.3 1.8 0 2 .8 2 1.7v2.4zm-2.6-.7c0 .4.1.8.5.8.8 0 .7-1.1.7-1.7-.7.1-1.2 0-1.2.9zm3.2-3.5h.6v-.8l1.4-.6v1.4h.7v.9h-.7V78c0 .4 0 .6.5.6h.2v.9h-.7c-1.2 0-1.4-.8-1.4-1.1v-3.1h-.6v-.9zm4.9-2.1v1.1h-1.4v-1.1h1.4zm0 7.2h-1.4v-5h1.4v5zm.8-5.1h1.4l.7 3.8.7-3.8h1.4l-1.4 5h-1.5l-1.3-5zm6.2 2.8c0 .6 0 1.5.6 1.5.5 0 .6-.5.6-.9h1.4c0 .5-.2 1-.5 1.3-.3.3-.8.5-1.5.5-1.8 0-2.1-1.1-2.1-2.7 0-1.4.2-2.6 2.1-2.6 1.9 0 2.1 1.2 2.1 2.8h-2.7zm1.3-.8c0-.5 0-1.2-.6-1.2-.7 0-.6.8-.6 1.2h1.2zm6.1-4.1v1.1h-1.4v-1.1h1.4zm0 7.2h-1.4v-5h1.4v5zm2.7-4.5c.2-.2.3-.4.5-.5.2-.1.4-.1.7-.1.7 0 1.3.4 1.3 1.1v4h-1.4V76c0-.4-.1-.8-.5-.8-.5 0-.5.3-.5.8v3.5h-1.4v-5h1.4v.5zm7.1 2.2c0 .6 0 1.5.6 1.5.5 0 .6-.5.6-.9h1.4c0 .5-.2 1-.5 1.3-.3.3-.8.5-1.5.5-1.8 0-2.1-1.1-2.1-2.7 0-1.4.2-2.6 2.1-2.6 1.9 0 2.1 1.2 2.1 2.8h-2.7zm1.3-.8c0-.5 0-1.2-.6-1.2-.7 0-.6.8-.6 1.2H77zm3.5 1.5c0 .2 0 .5.1.6.1.2.2.2.5.2s.5-.2.5-.5c0-1.1-2.5-.8-2.5-2.4 0-1.1 1.1-1.4 2-1.4 1 0 1.8.5 1.7 1.5h-1.4c0-.4 0-.6-.1-.7-.1-.1-.2-.1-.4-.1-.3 0-.5.2-.5.5 0 .8 2.5.8 2.5 2.4 0 .9-.7 1.5-1.9 1.5s-2-.3-2-1.7h1.5zm4.5 0c0 .2 0 .5.1.6.1.2.2.2.5.2s.5-.2.5-.5c0-1.1-2.5-.8-2.5-2.4 0-1.1 1.1-1.4 2-1.4 1 0 1.8.5 1.7 1.5h-1.4c0-.4 0-.6-.1-.7-.1-.1-.2-.1-.4-.1-.3 0-.5.2-.5.5 0 .8 2.5.8 2.5 2.4 0 .9-.7 1.5-1.9 1.5s-2-.3-2-1.7H85zm7.1.7c0 .3 0 .6.1.9h-1.3l-.1-.7c-.3.5-.7.8-1.3.8-1 0-1.3-.7-1.3-1.6 0-1.7 1.3-1.7 2.6-1.7v-.4c0-.4-.1-.7-.6-.7s-.5.4-.5.8h-1.4c0-.6.2-1 .5-1.2.3-.2.8-.3 1.3-.3 1.8 0 2 .8 2 1.7v2.4zm-2.6-.7c0 .4.1.8.5.8.8 0 .7-1.1.7-1.7-.7.1-1.2 0-1.2.9zm4.7 1.6l-1.4-5.1h1.4l.7 3.5.8-3.5h1.4l-1.9 7h-1.5l.5-1.9zm4.6-1.6c0 .2 0 .5.1.6.1.2.2.2.5.2s.5-.2.5-.5c0-1.1-2.5-.8-2.5-2.4 0-1.1 1.1-1.4 2-1.4 1 0 1.8.5 1.7 1.5h-1.4c0-.4 0-.6-.1-.7-.1-.1-.2-.1-.4-.1-.3 0-.5.2-.5.5 0 .8 2.5.8 2.5 2.4 0 .9-.7 1.5-1.9 1.5s-2-.3-2-1.7h1.5zm5.6-5.6h1.4v2.6c.3-.4.6-.6 1.1-.6 1.4 0 1.4 1.6 1.4 2.6s0 2.7-1.4 2.7c-.5 0-.9-.2-1.2-.7v.6h-1.3v-7.2zm2.6 4.6c0-1 0-1.7-.6-1.7s-.6.7-.6 1.7c0 1.3.1 1.8.6 1.8s.6-.5.6-1.8zm3.3 2.6l-1.4-5.1h1.4l.7 3.6.8-3.5h1.4l-1.9 7h-1.5l.5-2zm8.2-.5c-.2.2-.3.4-.5.5-.2.1-.4.1-.7.1-.7 0-1.3-.4-1.3-1.1v-4h1.4V78c0 .4.1.8.5.8s.5-.3.5-.8v-3.5h1.4v5h-1.5V79zm3.7-1.1c0 .2 0 .5.1.6.1.2.2.2.5.2s.5-.2.5-.5c0-1.1-2.5-.8-2.5-2.4 0-1.1 1.1-1.4 2-1.4 1 0 1.8.5 1.7 1.5h-1.4c0-.4 0-.6-.1-.7-.1-.1-.2-.1-.4-.1-.3 0-.5.2-.5.5 0 .8 2.5.8 2.5 2.4 0 .9-.7 1.5-1.9 1.5s-2-.3-2-1.7h1.5zm4.8-5.6v1.1h-1.4v-1.1h1.4zm0 7.2h-1.4v-5h1.4v5zm2.7-4.5c.2-.2.3-.4.5-.5.2-.1.4-.1.7-.1.7 0 1.3.4 1.3 1.1v4h-1.4V76c0-.4-.1-.8-.5-.8-.5 0-.5.3-.5.8v3.5h-1.4v-5h1.4v.5zm7.4-.6v5.3c0 .3 0 1.7-1.9 1.7-1 0-1.9-.3-2-1.5h1.4c0 .2 0 .4.1.5.1.1.2.2.5.2.4 0 .5-.3.5-.8v-1c-.2.4-.6.6-1.1.6-1.5 0-1.5-1.4-1.5-2.6 0-1.1 0-2.5 1.5-2.5.5 0 .9.2 1.1.7v-.6h1.4zm-2 4.2c.5 0 .6-.5.6-1.6s-.1-1.7-.6-1.7-.6.4-.6 1.9c0 .4 0 1.4.6 1.4zm-117 9.6c0-.8-.2-1-.6-1-.6 0-.7.5-.7 1.6 0 1.5.1 1.9.7 1.9.4 0 .6-.4.6-1.1h1.4c0 1.4-.7 2-2.1 2-1.8 0-2.1-1.1-2.1-2.7 0-1.4.2-2.6 2.1-2.6 1.3 0 2 .6 2 1.9h-1.3zm2.3.7c0-1.4.2-2.6 2.1-2.6 1.9 0 2.1 1.2 2.1 2.6 0 1.6-.2 2.7-2.1 2.7-1.8 0-2.1-1.1-2.1-2.7zm2.7-.1c0-1 0-1.6-.6-1.6s-.7.5-.7 1.6c0 1.5.1 1.9.7 1.9.5 0 .6-.3.6-1.9zm4-4.5v7.2h-1.4v-7.2h1.4zm1.1 4.6c0-1.4.2-2.6 2.1-2.6 1.9 0 2.1 1.2 2.1 2.6 0 1.6-.2 2.7-2.1 2.7-1.9 0-2.1-1.1-2.1-2.7zm2.7-.1c0-1 0-1.6-.6-1.6s-.7.5-.7 1.6c0 1.5.1 1.9.7 1.9.5 0 .6-.3.6-1.9zm4.9 2.2c-.2.2-.3.4-.5.5-.2.1-.4.1-.7.1-.7 0-1.3-.4-1.3-1.1v-4h1.4V90c0 .4.1.8.5.8s.5-.3.5-.8v-3.5h1.4v5h-1.5V91zm3.9-4.6v.6c.3-.6.7-.8 1.3-.8v1.3c-1.2-.1-1.3.6-1.3 1.1v2.7h-1.4v-5h1.4zm4.1-1.3c-.6 0-.7.2-.7.7v.6h.7v.9h-.7v4.2h-1.4v-4.2h-.6v-.9h.6c0-1.4-.1-2.2 1.6-2.2h.5v.9zm3.1 5.9c-.2.2-.3.4-.5.5-.2.1-.4.1-.7.1-.7 0-1.3-.4-1.3-1.1v-4h1.4V90c0 .4.1.8.5.8s.5-.3.5-.8v-3.5h1.4v5h-1.5V91zm4.1-6.7v7.2h-1.4v-7.2H51zm5 0v7.2h-1.4v-7.2H56zm5 6.3c0 .3 0 .6.1.9h-1.3l-.1-.7c-.3.5-.7.8-1.3.8-1 0-1.3-.7-1.3-1.6 0-1.7 1.3-1.7 2.6-1.7v-.4c0-.4-.1-.7-.6-.7s-.5.4-.5.8h-1.4c0-.6.2-1 .5-1.2.3-.2.8-.3 1.3-.3 1.8 0 2 .8 2 1.7v2.4zm-2.6-.7c0 .4.1.8.5.8.8 0 .7-1.1.7-1.7-.6.1-1.2 0-1.2.9zm5.2-2.9c.2-.2.3-.4.5-.5.2-.1.4-.1.7-.1.7 0 1.3.4 1.3 1.1v4h-1.4V88c0-.4-.1-.8-.5-.8-.5 0-.5.3-.5.8v3.5h-1.4v-5h1.4v.5zm7.5-.6v5.3c0 .3 0 1.7-1.9 1.7-1 0-1.9-.3-2-1.5h1.4c0 .2 0 .4.1.5.1.1.2.2.5.2.4 0 .5-.3.5-.8v-1c-.2.4-.6.6-1.1.6-1.5 0-1.5-1.4-1.5-2.6 0-1.1 0-2.5 1.5-2.5.5 0 .9.2 1.1.7v-.6h1.4zm-2 4.2c.5 0 .6-.5.6-1.6s-.1-1.7-.6-1.7-.6.4-.6 1.9c0 .4-.1 1.4.6 1.4zm5.6.4c-.2.2-.3.4-.5.5-.2.1-.4.1-.7.1-.7 0-1.3-.4-1.3-1.1v-4h1.4V90c0 .4.1.8.5.8s.5-.3.5-.8v-3.5H76v5h-1.5V91zm6.3-.4c0 .3 0 .6.1.9h-1.3l-.1-.7c-.3.5-.7.8-1.3.8-1 0-1.3-.7-1.3-1.6 0-1.7 1.3-1.7 2.6-1.7v-.4c0-.4-.1-.7-.6-.7s-.5.4-.5.8h-1.4c0-.6.2-1 .5-1.2.3-.2.8-.3 1.3-.3 1.8 0 2 .8 2 1.7v2.4zm-2.6-.7c0 .4.1.8.5.8.8 0 .7-1.1.7-1.7-.6.1-1.2 0-1.2.9zm7.7-3.5v5.3c0 .3 0 1.7-1.9 1.7-1 0-1.9-.3-2-1.5h1.4c0 .2 0 .4.1.5.1.1.2.2.5.2.4 0 .5-.3.5-.8v-1c-.2.4-.6.6-1.1.6-1.5 0-1.5-1.4-1.5-2.6 0-1.1 0-2.5 1.5-2.5.5 0 .9.2 1.1.7v-.6h1.4zm-2 4.2c.5 0 .6-.5.6-1.6s-.1-1.7-.6-1.7-.6.4-.6 1.9c0 .4-.1 1.4.6 1.4zm4.4-1.4c0 .6 0 1.5.6 1.5.5 0 .6-.5.6-.9h1.4c0 .5-.2 1-.5 1.3-.3.3-.8.5-1.5.5-1.8 0-2.1-1.1-2.1-2.7 0-1.4.2-2.6 2.1-2.6 1.9 0 2.1 1.2 2.1 2.8h-2.7zm1.3-.8c0-.5 0-1.2-.6-1.2-.7 0-.6.8-.6 1.2h1.2z" class="st3"/>
  <g id="letter">
    <path d="M335.5 59h25.6v29.1h-7.5v7.7h-18.1z" class="st10"/>
    <path d="M353.6 95.8l7.5-7.7h-7.5z" class="st7"/>
    <path d="M338.6 65.5h17.5m-17.5 3h17.5m-17.5 2.9h17.5m-17.5 2.9h17.5" class="st11"/>
  </g>
  <path d="M95.6 91.7h221.1" class="st4"/>
  <path d="M203.9 127.6c-1.9 0-2.2-1.1-2.1-2.3h1.5c0 .7 0 1.3.9 1.3.5 0 .8-.3.8-.8 0-1.3-3-1.4-3-3.5 0-1.1.5-2 2.4-2 1.5 0 2.2.7 2.1 2.2H205c0-.5-.1-1.1-.7-1.1-.5 0-.8.3-.8.8 0 1.4 3 1.2 3 3.5-.1 1.7-1.5 1.9-2.6 1.9zm2.9-5.2h.6v-.8l1.4-.6v1.4h.7v.9h-.7v2.7c0 .4 0 .6.5.6h.2v.9h-.7c-1.2 0-1.4-.8-1.4-1.1v-3.1h-.6v-.9zm7.2 4.1c0 .3 0 .6.1.9h-1.3l-.1-.7c-.3.5-.7.8-1.3.8-1 0-1.3-.7-1.3-1.6 0-1.7 1.3-1.7 2.6-1.7v-.4c0-.4-.1-.7-.6-.7s-.5.4-.5.8h-1.4c0-.6.2-1 .5-1.2.3-.2.8-.3 1.3-.3 1.8 0 2 .8 2 1.7v2.4zm-2.6-.6c0 .4.1.8.5.8.8 0 .7-1.1.7-1.7-.7.1-1.2 0-1.2.9zm4.7 1.6l-1.4-5.1h1.4l.7 3.5.8-3.5h1.4l-1.9 7h-1.5l.5-1.9zm5.6-2.6c0-1.4.2-2.6 2.1-2.6 1.9 0 2.1 1.2 2.1 2.6 0 1.6-.2 2.7-2.1 2.7-1.8 0-2.1-1.1-2.1-2.7zm2.7-.1c0-1 0-1.6-.6-1.6s-.7.5-.7 1.6c0 1.5.1 1.9.7 1.9.5 0 .6-.3.6-1.9zm3.9-1.9c.2-.2.3-.4.5-.5.2-.1.4-.1.7-.1.7 0 1.3.4 1.3 1.1v4h-1.4V124c0-.4-.1-.8-.5-.8-.5 0-.5.3-.5.8v3.5H227v-5h1.4v.4zm5.2-.5h.6v-.8l1.4-.6v1.4h.7v.9h-.7v2.7c0 .4 0 .6.5.6h.2v.9h-.7c-1.2 0-1.4-.8-1.4-1.1v-3.1h-.6v-.9zm4.7 0v.6c.3-.6.7-.8 1.3-.8v1.3c-1.2-.1-1.3.6-1.3 1.1v2.7h-1.4v-5h1.4zm5.8 4.1c0 .3 0 .6.1.9h-1.3l-.1-.7c-.3.5-.7.8-1.3.8-1 0-1.3-.7-1.3-1.6 0-1.7 1.3-1.7 2.6-1.7v-.4c0-.4-.1-.7-.6-.7s-.5.4-.5.8h-1.4c0-.6.2-1 .5-1.2.3-.2.8-.3 1.3-.3 1.8 0 2 .8 2 1.7v2.4zm-2.6-.6c0 .4.1.8.5.8.8 0 .7-1.1.7-1.7-.7.1-1.2 0-1.2.9zm6.3-1.7c0-.8-.2-1-.6-1-.6 0-.7.5-.7 1.6 0 1.5.1 1.9.7 1.9.4 0 .6-.4.6-1.1h1.4c0 1.4-.7 2-2.1 2-1.8 0-2.1-1.1-2.1-2.7 0-1.4.2-2.6 2.1-2.6 1.3 0 2 .6 2 1.9h-1.3zm2.4 3.3v-7.2h1.4v4.3l1.3-2.1h1.5l-1.4 2.2 1.6 2.8h-1.6l-1.3-2.7v2.7h-1.5zm7.3-7.2h1.4v2.6c.3-.4.6-.6 1.1-.6 1.4 0 1.4 1.6 1.4 2.6s0 2.7-1.4 2.7c-.5 0-.9-.2-1.2-.7v.6h-1.3v-7.2zm2.6 4.6c0-1 0-1.7-.6-1.7s-.6.7-.6 1.7c0 1.3.1 1.8.6 1.8s.6-.5.6-1.8zm3.3 2.6l-1.4-5.1h1.4l.7 3.5.8-3.5h1.4l-1.9 7h-1.5l.5-1.9zm5.3-5.1h1.4l.7 3.8 1-3.8h1.5l.9 3.8.8-3.8h1.3l-1.4 5h-1.5l-.9-3.4-1 3.4h-1.5l-1.3-5zm9.6 0v.6c.3-.6.7-.8 1.3-.8v1.3c-1.2-.1-1.3.6-1.3 1.1v2.7h-1.4v-5h1.4zm3.5-2.1v1.1h-1.4v-1.1h1.4zm0 7.2h-1.4v-5h1.4v5zm.7-5.1h.6v-.8l1.4-.6v1.4h.7v.9h-.7v2.7c0 .4 0 .6.5.6h.2v.9h-.7c-1.2 0-1.4-.8-1.4-1.1v-3.1h-.6v-.9zm4.9-2.1v1.1h-1.4v-1.1h1.4zm0 7.2h-1.4v-5h1.4v5zm2.6-4.6c.2-.2.3-.4.5-.5.2-.1.4-.1.7-.1.7 0 1.3.4 1.3 1.1v4H291V124c0-.4-.1-.8-.5-.8-.5 0-.5.3-.5.8v3.5h-1.4v-5h1.4v.4zm7.5-.5v5.3c0 .3 0 1.7-1.9 1.7-1 0-1.9-.3-2-1.5h1.4c0 .2 0 .4.1.5.1.1.2.2.5.2.4 0 .5-.3.5-.8v-1c-.2.4-.6.6-1.1.6-1.5 0-1.5-1.4-1.5-2.6 0-1.1 0-2.5 1.5-2.5.5 0 .9.2 1.1.7v-.6h1.4zm-2 4.1c.5 0 .6-.5.6-1.6s-.1-1.7-.6-1.7-.6.4-.6 1.9c0 .5-.1 1.4.6 1.4zm7.8 1v-.6c-.3.5-.7.7-1.2.7-1.5 0-1.4-1.6-1.4-2.7 0-1 0-2.6 1.4-2.6.5 0 .9.2 1.1.6v-2.6h1.4v7.2h-1.3zm0-2.6c0-1 0-1.7-.6-1.7s-.6.7-.6 1.7c0 1.3.1 1.8.6 1.8s.6-.5.6-1.8zm2.4 0c0-1.4.2-2.6 2.1-2.6 1.9 0 2.1 1.2 2.1 2.6 0 1.6-.2 2.7-2.1 2.7-1.9 0-2.1-1.1-2.1-2.7zm2.7-.1c0-1 0-1.6-.6-1.6s-.7.5-.7 1.6c0 1.5.1 1.9.7 1.9.5 0 .6-.3.6-1.9zm2-2.4h1.4l.7 3.8 1-3.8h1.5l.9 3.8.8-3.8h1.3l-1.4 5H315l-.9-3.4-1 3.4h-1.5l-1.3-5zm9.6.5c.2-.2.3-.4.5-.5.2-.1.4-.1.7-.1.7 0 1.3.4 1.3 1.1v4H321V124c0-.4-.1-.8-.5-.8-.5 0-.5.3-.5.8v3.5h-1.4v-5h1.4v.4zm8.3 4.6v-.6c-.3.5-.7.7-1.2.7-1.5 0-1.4-1.6-1.4-2.7 0-1 0-2.6 1.4-2.6.5 0 .9.2 1.1.6v-2.6h1.4v7.2h-1.3zm0-2.6c0-1 0-1.7-.6-1.7s-.6.7-.6 1.7c0 1.3.1 1.8.6 1.8s.6-.5.6-1.8zm4.1-4.6v1.1h-1.4v-1.1h1.4zm0 7.2h-1.4v-5h1.4v5zm2.5-5.1v.6c.3-.6.7-.8 1.3-.8v1.3c-1.2-.1-1.3.6-1.3 1.1v2.7h-1.4v-5h1.4zm3.3 2.8c0 .6 0 1.5.6 1.5.5 0 .6-.5.6-.9h1.4c0 .5-.2 1-.5 1.3-.3.3-.8.5-1.5.5-1.8 0-2.1-1.1-2.1-2.7 0-1.4.2-2.6 2.1-2.6 1.9 0 2.1 1.2 2.1 2.8h-2.7zm1.3-.8c0-.5 0-1.2-.6-1.2-.7 0-.6.8-.6 1.2h1.2zm5-.2c0-.8-.2-1-.6-1-.6 0-.7.5-.7 1.6 0 1.5.1 1.9.7 1.9.4 0 .6-.4.6-1.1h1.4c0 1.4-.7 2-2.1 2-1.8 0-2.1-1.1-2.1-2.7 0-1.4.2-2.6 2.1-2.6 1.3 0 2 .6 2 1.9h-1.3zm1.9-1.8h.6v-.8l1.4-.6v1.4h.7v.9h-.7v2.7c0 .4 0 .6.5.6h.2v.9h-.7c-1.2 0-1.4-.8-1.4-1.1v-3.1h-.6v-.9zm4.8-2.1v1.1h-1.4v-1.1h1.4zm0 7.2h-1.4v-5h1.4v5zm1.2-2.6c0-1.4.2-2.6 2.1-2.6 1.9 0 2.1 1.2 2.1 2.6 0 1.6-.2 2.7-2.1 2.7-1.9 0-2.1-1.1-2.1-2.7zm2.7-.1c0-1 0-1.6-.6-1.6s-.7.5-.7 1.6c0 1.5.1 1.9.7 1.9.5 0 .6-.3.6-1.9zm3.8-1.9c.2-.2.3-.4.5-.5.2-.1.4-.1.7-.1.7 0 1.3.4 1.3 1.1v4h-1.4V124c0-.4-.1-.8-.5-.8-.5 0-.5.3-.5.8v3.5h-1.4v-5h1.4v.4zm4.7 3c0 .2 0 .5.1.6.1.2.2.2.5.2s.5-.2.5-.5c0-1.1-2.5-.8-2.5-2.4 0-1.1 1.1-1.4 2-1.4 1 0 1.8.5 1.7 1.5h-1.4c0-.4 0-.6-.1-.7-.1-.1-.2-.1-.4-.1-.3 0-.5.2-.5.5 0 .8 2.5.8 2.5 2.4 0 .9-.7 1.5-1.9 1.5s-2-.3-2-1.7h1.5z" class="st3"/>
  <g id="direction">
    <path d="M34.4 141c-.9 0-1.7-.3-2.4-.9l-17.7-15.4c-.7-.6-1.2-1.5-1.2-2.5s.2-1.9.9-2.6L29.4 102c.7-.8 1.7-1.2 2.7-1.2.9 0 1.7.3 2.4.9L52.2 117c.7.6 1.2 1.5 1.2 2.5.1 1-.2 1.9-.9 2.6l-15.4 17.7c-.7.8-1.7 1.2-2.7 1.2z" class="st5"/>
    <path d="M32.1 101c.8 0 1.6.3 2.2.8L52 117.2c1.4 1.2 1.5 3.3.3 4.7l-15.4 17.7c-.7.8-1.6 1.2-2.5 1.2-.8 0-1.6-.3-2.2-.8l-17.7-15.4c-1.4-1.2-1.5-3.3-.3-4.7l15.4-17.7c.7-.8 1.6-1.2 2.5-1.2m0-.5c-1.1 0-2.2.5-2.9 1.3l-15.4 17.7c-1.4 1.6-1.2 4 .4 5.4l17.7 15.4c.7.6 1.6.9 2.5.9 1.1 0 2.2-.5 2.9-1.3l15.4-17.7c1.4-1.6 1.2-4-.4-5.4l-17.7-15.4c-.6-.6-1.5-.9-2.5-.9z" class="st7"/>
    <path d="M39.1 113.7v8.4l3.9-3.8c.2-.2.2-.6 0-.8l-3.9-3.8z" class="st12"/>
    <path d="M29.9 128.4c-1.1 0-1.9-.9-1.9-1.9v-8.7c0-1.1.9-1.9 1.9-1.9 1.1 0 1.9.9 1.9 1.9v8.7c0 1.1-.9 1.9-1.9 1.9z" class="st7"/>
    <path d="M28.1 117.8c0-1.1.9-1.9 1.9-1.9h8.7c1.1 0 1.9.9 1.9 1.9 0 1.1-.9 1.9-2 2h-8.7c-1 0-1.8-.9-1.8-2z" class="st7"/>
  </g>
  <path d="M53.2 128.9h140.3" class="st4"/>
  <path d="M18.5 150.5v1.2h-1.7v6h-1.5v-6h-1.7v-1.2h4.9zm1.2 2.2v.6c.3-.6.7-.8 1.3-.8v1.3c-1.2-.1-1.3.6-1.3 1.1v2.7h-1.4v-5h1.4zm2.9 5.1l-1.4-5.1h1.4l.7 3.5.8-3.5h1.4l-1.9 7h-1.5l.5-1.9zm5.2-5.1h.6v-.8l1.4-.6v1.4h.7v.9h-.7v2.7c0 .4 0 .6.5.6h.2v.9h-.7c-1.2 0-1.4-.8-1.4-1.1v-3.1h-.6v-.9zm3.2 2.4c0-1.4.2-2.6 2.1-2.6 1.9 0 2.1 1.2 2.1 2.6 0 1.6-.2 2.7-2.1 2.7-1.8 0-2.1-1.1-2.1-2.7zm2.7 0c0-1 0-1.6-.6-1.6s-.7.5-.7 1.6c0 1.5.1 1.9.7 1.9.5-.1.6-.4.6-1.9zm4.7-4.6h1.4v2.6c.3-.4.6-.6 1.1-.6 1.4 0 1.4 1.6 1.4 2.6s0 2.7-1.4 2.7c-.5 0-.9-.2-1.2-.7v.6h-1.3v-7.2zm2.5 4.7c0-1 0-1.7-.6-1.7s-.6.7-.6 1.7c0 1.3.1 1.8.6 1.8.6 0 .6-.6.6-1.8zm3.8.2c0 .6 0 1.5.6 1.5.5 0 .6-.5.6-.9h1.4c0 .5-.2 1-.5 1.3-.3.3-.8.5-1.5.5-1.8 0-2.1-1.1-2.1-2.7 0-1.4.2-2.6 2.1-2.6 1.9 0 2.1 1.2 2.1 2.8h-2.7zm1.3-.8c0-.5 0-1.2-.6-1.2-.7 0-.6.8-.6 1.2H46zm5.9-1.4c.3-.5.7-.6 1.2-.6s.9.2 1.1.6c.3-.4.7-.6 1.3-.6.7 0 1.3.4 1.3 1.1v4h-1.4v-3.5c0-.4-.1-.8-.5-.8s-.5.3-.5.8v3.5H53v-3.5c0-.4-.1-.8-.5-.8s-.5.3-.5.8v3.5h-1.4v-5H52v.5zm5.8 1.9c0-1.4.2-2.6 2.1-2.6 1.9 0 2.1 1.2 2.1 2.6 0 1.6-.2 2.7-2.1 2.7-1.9 0-2.1-1.1-2.1-2.7zm2.7 0c0-1 0-1.6-.6-1.6s-.7.5-.7 1.6c0 1.5.1 1.9.7 1.9.5-.1.6-.4.6-1.9zm3.7-2.4v.6c.3-.6.7-.8 1.3-.8v1.3c-1.2-.1-1.3.6-1.3 1.1v2.7h-1.4v-5h1.4zm3.3 2.7c0 .6 0 1.5.6 1.5.5 0 .6-.5.6-.9H70c0 .5-.2 1-.5 1.3-.3.3-.8.5-1.5.5-1.8 0-2.1-1.1-2.1-2.7 0-1.4.2-2.6 2.1-2.6 1.9 0 2.1 1.2 2.1 2.8h-2.7zm1.3-.8c0-.5 0-1.2-.6-1.2-.7 0-.6.8-.6 1.2h1.2zm4.5.5c0-1.4.2-2.6 2.1-2.6 1.9 0 2.1 1.2 2.1 2.6 0 1.6-.2 2.7-2.1 2.7-1.8 0-2.1-1.1-2.1-2.7zm2.7 0c0-1 0-1.6-.6-1.6s-.7.5-.7 1.6c0 1.5.1 1.9.7 1.9.5-.1.6-.4.6-1.9zm3.8-2.4v.6c.3-.6.7-.8 1.3-.8v1.3c-1.2-.1-1.3.6-1.3 1.1v2.7h-1.4v-5h1.4zm5.8 0v5.3c0 .3 0 1.7-1.9 1.7-1 0-1.9-.3-2-1.5H83c0 .2 0 .4.1.5.1.1.2.2.5.2.4 0 .5-.3.5-.8v-1c-.2.4-.6.6-1.1.6-1.5 0-1.5-1.4-1.5-2.6 0-1.1 0-2.5 1.5-2.5.5 0 .9.2 1.1.7v-.6h1.4zm-1.9 4.1c.5 0 .6-.5.6-1.6s-.1-1.7-.6-1.7-.6.4-.6 1.9c-.1.4-.1 1.4.6 1.4zm6.9 0c0 .3 0 .6.1.9h-1.3l-.1-.7c-.3.5-.7.8-1.3.8-1 0-1.3-.7-1.3-1.6 0-1.7 1.3-1.7 2.6-1.7v-.4c0-.4-.1-.7-.6-.7s-.5.4-.5.8h-1.4c0-.6.2-1 .5-1.2.3-.2.8-.3 1.3-.3 1.8 0 2 .8 2 1.7v2.4zm-2.6-.6c0 .4.1.8.5.8.8 0 .7-1.1.7-1.7-.7 0-1.2 0-1.2.9zm5.2-3c.2-.2.3-.4.5-.5.2-.1.4-.1.7-.1.7 0 1.3.4 1.3 1.1v4h-1.4v-3.5c0-.4-.1-.8-.5-.8-.5 0-.5.3-.5.8v3.5h-1.4v-5h1.4v.5zm5.1-2.7v1.1h-1.4v-1.1h1.4zm0 7.2h-1.4v-5h1.4v5zm4.3-4l-2 3.1h2v.9h-3.4v-1l2-3.1h-1.9v-.9h3.3v1zm2.2 1.7c0 .6 0 1.5.6 1.5.5 0 .6-.5.6-.9h1.4c0 .5-.2 1-.5 1.3-.3.3-.8.5-1.5.5-1.8 0-2.1-1.1-2.1-2.7 0-1.4.2-2.6 2.1-2.6 1.9 0 2.1 1.2 2.1 2.8h-2.7zm1.2-.8c0-.5 0-1.2-.6-1.2-.7 0-.6.8-.6 1.2h1.2zm5 3.1v-.6c-.3.5-.7.7-1.2.7-1.5 0-1.4-1.6-1.4-2.7 0-1 0-2.6 1.4-2.6.5 0 .9.2 1.1.6v-2.6h1.4v7.2h-1.3zm-.1-2.5c0-1 0-1.7-.6-1.7s-.6.7-.6 1.7c0 1.3.1 1.8.6 1.8s.6-.6.6-1.8zm4.8-4.7h1.4v2.6c.3-.4.6-.6 1.1-.6 1.4 0 1.4 1.6 1.4 2.6s0 2.7-1.4 2.7c-.5 0-.9-.2-1.2-.7v.6h-1.3v-7.2zm2.6 4.7c0-1 0-1.7-.6-1.7s-.6.7-.6 1.7c0 1.3.1 1.8.6 1.8s.6-.6.6-1.8zm3.3 2.6l-1.4-5.1h1.4l.7 3.5.8-3.5h1.4l-1.9 7H121l.5-1.9zM14 167.1c0-1.4.2-2.6 2.1-2.6 1.9 0 2.1 1.2 2.1 2.6 0 1.6-.2 2.7-2.1 2.7-1.9 0-2.1-1.1-2.1-2.7zm2.7 0c0-1 0-1.6-.6-1.6s-.7.5-.7 1.6c0 1.5.1 1.9.7 1.9.5-.1.6-.4.6-1.9zm3.8-2.4v.6c.3-.6.7-.8 1.3-.8v1.3c-1.2-.1-1.3.6-1.3 1.1v2.7h-1.4v-5h1.4zm5.8 0v5.3c0 .3 0 1.7-1.9 1.7-1 0-1.9-.3-2-1.5h1.4c0 .2 0 .4.1.5.1.1.2.2.5.2.4 0 .5-.3.5-.8v-1c-.2.4-.6.6-1.1.6-1.5 0-1.5-1.4-1.5-2.6 0-1.1 0-2.5 1.5-2.5.5 0 .9.2 1.1.7v-.6h1.4zm-2 4.1c.5 0 .6-.5.6-1.6s-.1-1.7-.6-1.7-.6.4-.6 1.9c0 .4-.1 1.4.6 1.4zm7 0c0 .3 0 .6.1.9H30l-.1-.7c-.3.5-.7.8-1.3.8-1 0-1.3-.7-1.3-1.6 0-1.7 1.3-1.7 2.6-1.7v-.4c0-.4-.1-.7-.6-.7s-.5.4-.5.8h-1.4c0-.6.2-1 .5-1.2.3-.2.8-.3 1.3-.3 1.8 0 2 .8 2 1.7v2.4zm-2.6-.6c0 .4.1.8.5.8.8 0 .7-1.1.7-1.7-.7 0-1.2 0-1.2.9zm5.2-3c.2-.2.3-.4.5-.5.2-.1.4-.1.7-.1.7 0 1.3.4 1.3 1.1v4H35v-3.5c0-.4-.1-.8-.5-.8-.5 0-.5.3-.5.8v3.5h-1.4v-5H34v.5zm5.1-2.7v1.1h-1.4v-1.1H39zm0 7.2h-1.4v-5H39v5zm4.3-4l-2 3.1h2v.9h-3.4v-1l2-3.1H40v-.9h3.3v1zm2.3-3.2v1.1h-1.4v-1.1h1.4zm0 7.2h-1.4v-5h1.4v5zm2.7-4.5c.2-.2.3-.4.5-.5.2-.1.4-.1.7-.1.7 0 1.3.4 1.3 1.1v4h-1.4v-3.5c0-.4-.1-.8-.5-.8-.5 0-.5.3-.5.8v3.5H47v-5h1.4v.5zm7.5-.5v5.3c0 .3 0 1.7-1.9 1.7-1 0-1.9-.3-2-1.5h1.4c0 .2 0 .4.1.5.1.1.2.2.5.2.4 0 .5-.3.5-.8v-1c-.2.4-.6.6-1.1.6-1.5 0-1.5-1.4-1.5-2.6 0-1.1 0-2.5 1.5-2.5.5 0 .9.2 1.1.7v-.6h1.4zm-2 4.1c.5 0 .6-.5.6-1.6s-.1-1.7-.6-1.7-.6.4-.6 1.9c0 .4-.1 1.4.6 1.4zm6.7-4.1v.6c.3-.5.6-.7 1.2-.7 1.5 0 1.4 1.6 1.4 2.7 0 1 0 2.6-1.4 2.6-.5 0-.9-.1-1.1-.6v2.6h-1.4v-7.2h1.3zm1.2 2.5c0-1 0-1.7-.6-1.7s-.6.7-.6 1.7c0 1.3.1 1.8.6 1.8s.6-.6.6-1.8zm3.9-4.7v7.2h-1.4v-7.2h1.4zm5.1 6.3c0 .3 0 .6.1.9h-1.3l-.1-.7c-.3.5-.7.8-1.3.8-1 0-1.3-.7-1.3-1.6 0-1.7 1.3-1.7 2.6-1.7v-.4c0-.4-.1-.7-.6-.7s-.5.4-.5.8h-1.4c0-.6.2-1 .5-1.2.3-.2.8-.3 1.3-.3 1.8 0 2 .8 2 1.7v2.4zm-2.6-.6c0 .4.1.8.5.8.8 0 .7-1.1.7-1.7-.7 0-1.2 0-1.2.9zm5.2-3c.2-.2.3-.4.5-.5.2-.1.4-.1.7-.1.7 0 1.3.4 1.3 1.1v4h-1.4v-3.5c0-.4-.1-.8-.5-.8-.5 0-.5.3-.5.8v3.5H72v-5h1.4v.5zm4.7 2.9c0 .2 0 .5.1.6.1.2.2.2.5.2s.5-.2.5-.5c0-1.1-2.5-.8-2.5-2.4 0-1.1 1.1-1.4 2-1.4 1 0 1.8.5 1.7 1.5H79c0-.4 0-.6-.1-.7-.1-.1-.2-.1-.4-.1-.3 0-.5.2-.5.5 0 .8 2.5.8 2.5 2.4 0 .9-.7 1.5-1.9 1.5s-2-.3-2-1.7H78zm9.4.7c0 .3 0 .6.1.9h-1.3l-.1-.7c-.3.5-.7.8-1.3.8-1 0-1.3-.7-1.3-1.6 0-1.7 1.3-1.7 2.6-1.7v-.4c0-.4-.1-.7-.6-.7s-.5.4-.5.8h-1.4c0-.6.2-1 .5-1.2.3-.2.8-.3 1.3-.3 1.8 0 2 .8 2 1.7v2.4zm-2.6-.6c0 .4.1.8.5.8.8 0 .7-1.1.7-1.7-.7 0-1.2 0-1.2.9zm5.2-3c.2-.2.3-.4.5-.5.2-.1.4-.1.7-.1.7 0 1.3.4 1.3 1.1v4H91v-3.5c0-.4-.1-.8-.5-.8-.5 0-.5.3-.5.8v3.5h-1.4v-5H90v.5zm6.1 4.5v-.6c-.3.5-.7.7-1.2.7-1.5 0-1.4-1.6-1.4-2.7 0-1 0-2.6 1.4-2.6.5 0 .9.2 1.1.6v-2.6h1.4v7.2h-1.3zm-.1-2.5c0-1 0-1.7-.6-1.7s-.6.7-.6 1.7c0 1.3.1 1.8.6 1.8s.6-.6.6-1.8zm4.2-2.5h.6v-.8l1.4-.6v1.4h.7v.9h-.7v2.7c0 .4 0 .6.5.6h.2v.9h-.7c-1.2 0-1.4-.8-1.4-1.1v-3.1h-.6v-.9zm5.8 5v-3.5c0-.4-.1-.8-.5-.8-.5 0-.5.3-.5.8v3.5h-1.4v-7.2h1.4v2.7c.1-.2.3-.4.5-.5.2-.1.4-.1.7-.1.7 0 1.3.4 1.3 1.1v4H106zm2.4-2.6c0-1.4.2-2.6 2.1-2.6 1.9 0 2.1 1.2 2.1 2.6 0 1.6-.2 2.7-2.1 2.7-1.8 0-2.1-1.1-2.1-2.7zm2.7 0c0-1 0-1.6-.6-1.6s-.7.5-.7 1.6c0 1.5.1 1.9.7 1.9.5-.1.6-.4.6-1.9zm4.9 2.1c-.2.2-.3.4-.5.5-.2.1-.4.1-.7.1-.7 0-1.3-.4-1.3-1.1v-4h1.4v3.5c0 .4.1.8.5.8s.5-.3.5-.8v-3.5h1.4v5H116v-.5zm6.4-4.5v5.3c0 .3 0 1.7-1.9 1.7-1 0-1.9-.3-2-1.5h1.4c0 .2 0 .4.1.5.1.1.2.2.5.2.4 0 .5-.3.5-.8v-1c-.2.4-.6.6-1.1.6-1.5 0-1.5-1.4-1.5-2.6 0-1.1 0-2.5 1.5-2.5.5 0 .9.2 1.1.7v-.6h1.4zm-2 4.1c.5 0 .6-.5.6-1.6s-.1-1.7-.6-1.7-.6.4-.6 1.9c0 .4-.1 1.4.6 1.4zm5.6.9v-3.5c0-.4-.1-.8-.5-.8-.5 0-.5.3-.5.8v3.5h-1.4v-7.2h1.4v2.7c.1-.2.3-.4.5-.5.2-.1.4-.1.7-.1.7 0 1.3.4 1.3 1.1v4H126zm2-5h.6v-.8l1.4-.6v1.4h.7v.9h-.7v2.7c0 .4 0 .6.5.6h.2v.9h-.7c-1.2 0-1.4-.8-1.4-1.1v-3.1h-.6v-.9zm4.4 3.4c0 .2 0 .5.1.6.1.2.2.2.5.2s.5-.2.5-.5c0-1.1-2.5-.8-2.5-2.4 0-1.1 1.1-1.4 2-1.4 1 0 1.8.5 1.7 1.5h-1.4c0-.4 0-.6-.1-.7-.1-.1-.2-.1-.4-.1-.3 0-.5.2-.5.5 0 .8 2.5.8 2.5 2.4 0 .9-.7 1.5-1.9 1.5s-2-.3-2-1.7h1.5z" class="st3"/>
  <g id="chart">
    <path d="M362.7 179.3h-37.4v-22c0-2 1.6-3.5 3.5-3.5h30.9c1.6 0 3 1.3 3 3v22.5z" class="st8"/>
    <path d="M362.8 180.8h-37.3c-.4 0-.7-.3-.7-.7 0-.4.3-.7.7-.7h37.3c.4 0 .7.3.7.7.1.3-.2.7-.7.7z" class="st9"/>
    <path d="M347.4 167.9l7.1-4.1m-14.6 0l7.5 4.1m-14.1-1.4l6.6-2.7" class="st13"/>
    <path d="M333.3 167.9c-.8 0-1.4-.6-1.4-1.4 0-.8.6-1.4 1.4-1.4.8 0 1.4.6 1.4 1.4 0 .8-.6 1.4-1.4 1.4zm6.6-2.7c-.8 0-1.4-.6-1.4-1.4 0-.8.6-1.4 1.4-1.4.8 0 1.4.6 1.4 1.4 0 .8-.7 1.4-1.4 1.4zm7.5 4.1c-.8 0-1.4-.6-1.4-1.4 0-.8.6-1.4 1.4-1.4.8 0 1.4.6 1.4 1.4 0 .8-.6 1.4-1.4 1.4zm7.1-3.7c-.8 0-1.4-.6-1.4-1.4 0-.8.6-1.4 1.4-1.4.8 0 1.4.6 1.4 1.4 0 .8-.7 1.4-1.4 1.4z" class="st7"/>
  </g>
  <path d="M139.2 169.8h180.5" class="st4"/>
  <path d="M13.9 267.7l2-7.2h2l2 7.2h-1.6l-.4-1.6h-2.1l-.4 1.6h-1.5zm2.9-5.9l-.7 3.1h1.4l-.7-3.1zm3 .8h1.4l.7 3.8.7-3.8H24l-1.4 5h-1.5l-1.3-5zm4.8 2.5c0-1.4.2-2.6 2.1-2.6 1.9 0 2.1 1.2 2.1 2.6 0 1.6-.2 2.7-2.1 2.7-1.9 0-2.1-1.2-2.1-2.7zm2.7-.1c0-1 0-1.6-.6-1.6s-.7.5-.7 1.6c0 1.5.1 1.9.7 1.9.5 0 .6-.4.6-1.9zm3.9-4.6v1.1h-1.4v-1.1h1.4zm0 7.3h-1.4v-5h1.4v5zm3.8 0v-.6c-.3.5-.7.7-1.2.7-1.5 0-1.4-1.6-1.4-2.7 0-1 0-2.6 1.4-2.6.5 0 .9.2 1.1.6v-2.6h1.4v7.2H35zm-.1-2.6c0-1 0-1.7-.6-1.7s-.6.7-.6 1.7c0 1.3.1 1.8.6 1.8s.6-.5.6-1.8zm8.7-2.5v5.3c0 .3 0 1.7-1.9 1.7-1 0-1.9-.3-2-1.5H41c0 .2 0 .4.1.5.1.1.2.2.5.2.4 0 .5-.3.5-.8v-1c-.2.4-.6.6-1.1.6-1.5 0-1.5-1.4-1.5-2.6 0-1.1 0-2.5 1.5-2.5.5 0 .9.2 1.1.7v-.6h1.5zm-2 4.1c.5 0 .6-.5.6-1.6s-.1-1.7-.6-1.7-.6.4-.6 1.9c0 .5-.1 1.4.6 1.4zm4.4-1.3c0 .6 0 1.5.6 1.5.5 0 .6-.5.6-.9h1.4c0 .5-.2 1-.5 1.3-.3.3-.8.5-1.5.5-1.8 0-2.1-1.1-2.1-2.7 0-1.4.2-2.6 2.1-2.6 1.9 0 2.1 1.2 2.1 2.8H46zm1.3-.8c0-.5 0-1.2-.6-1.2-.7 0-.6.8-.6 1.2h1.2zm1.8-2h.6v-.8l1.4-.6v1.4h.7v.9h-.7v2.7c0 .4 0 .6.5.6h.2v.9h-.7c-1.2 0-1.4-.8-1.4-1.1v-3.1h-.6v-.9zm2.8 0h.6v-.8l1.4-.6v1.4h.7v.9h-.7v2.7c0 .4 0 .6.5.6h.2v.9h-.7c-1.2 0-1.4-.8-1.4-1.1v-3.1h-.6v-.9zm4.9-2.2v1.1h-1.4v-1.1h1.4zm0 7.3h-1.4v-5h1.4v5zm2.7-4.6c.2-.2.3-.4.5-.5.2-.1.4-.1.7-.1.7 0 1.3.4 1.3 1.1v4h-1.4v-3.5c0-.4-.1-.8-.5-.8-.5 0-.5.3-.5.8v3.5H58v-5h1.4v.5zm7.4-.5v5.3c0 .3 0 1.7-1.9 1.7-1 0-1.9-.3-2-1.5h1.4c0 .2 0 .4.1.5.1.1.2.2.5.2.4 0 .5-.3.5-.8v-1c-.2.4-.6.6-1.1.6-1.5 0-1.5-1.4-1.5-2.6 0-1.1 0-2.5 1.5-2.5.5 0 .9.2 1.1.7v-.6h1.4zm-2 4.1c.5 0 .6-.5.6-1.6s-.1-1.7-.6-1.7-.6.4-.6 1.9c0 .5-.1 1.4.6 1.4zm5.4-6.3h1.4v2.6c.3-.4.6-.6 1.1-.6 1.4 0 1.4 1.6 1.4 2.6s0 2.7-1.4 2.7c-.5 0-.9-.2-1.2-.7v.6h-1.3v-7.2zm2.5 4.7c0-1 0-1.7-.6-1.7s-.6.7-.6 1.7c0 1.3.1 1.8.6 1.8.6 0 .6-.5.6-1.8zm2.3 0c0-1.4.2-2.6 2.1-2.6 1.9 0 2.1 1.2 2.1 2.6 0 1.6-.2 2.7-2.1 2.7-1.8 0-2.1-1.2-2.1-2.7zm2.8-.1c0-1 0-1.6-.6-1.6s-.7.5-.7 1.6c0 1.5.1 1.9.7 1.9.4 0 .6-.4.6-1.9zm6.2-2.4v5.3c0 .3 0 1.7-1.9 1.7-1 0-1.9-.3-2-1.5h1.4c0 .2 0 .4.1.5.1.1.2.2.5.2.4 0 .5-.3.5-.8v-1c-.2.4-.6.6-1.1.6-1.5 0-1.5-1.4-1.5-2.6 0-1.1 0-2.5 1.5-2.5.5 0 .9.2 1.1.7v-.6h1.4zm-2 4.1c.5 0 .6-.5.6-1.6s-.1-1.7-.6-1.7-.6.4-.6 1.9c0 .5 0 1.4.6 1.4zm7-4.1v5.3c0 .3 0 1.7-1.9 1.7-1 0-1.9-.3-2-1.5h1.4c0 .2 0 .4.1.5.1.1.2.2.5.2.4 0 .5-.3.5-.8v-1c-.2.4-.6.6-1.1.6-1.5 0-1.5-1.4-1.5-2.6 0-1.1 0-2.5 1.5-2.5.5 0 .9.2 1.1.7v-.6h1.4zm-2 4.1c.5 0 .6-.5.6-1.6s-.1-1.7-.6-1.7-.6.4-.6 1.9c0 .5 0 1.4.6 1.4zm4.5-1.3c0 .6 0 1.5.6 1.5.5 0 .6-.5.6-.9h1.4c0 .5-.2 1-.5 1.3-.3.3-.8.5-1.5.5-1.8 0-2.1-1.1-2.1-2.7 0-1.4.2-2.6 2.1-2.6 1.9 0 2.1 1.2 2.1 2.8h-2.7zm1.3-.8c0-.5 0-1.2-.6-1.2-.7 0-.6.8-.6 1.2h1.2zm4.9 3.1v-.6c-.3.5-.7.7-1.2.7-1.5 0-1.4-1.6-1.4-2.7 0-1 0-2.6 1.4-2.6.5 0 .9.2 1.1.6v-2.6h1.4v7.2h-1.3zm-.1-2.6c0-1 0-1.7-.6-1.7s-.6.7-.6 1.7c0 1.3.1 1.8.6 1.8s.6-.5.6-1.8zm7.3 2.6v-.6c-.3.5-.7.7-1.2.7-1.5 0-1.4-1.6-1.4-2.7 0-1 0-2.6 1.4-2.6.5 0 .9.2 1.1.6v-2.6h1.4v7.2H105zm-.1-2.6c0-1 0-1.7-.6-1.7s-.6.7-.6 1.7c0 1.3.1 1.8.6 1.8s.6-.5.6-1.8zm2.5 0c0-1.4.2-2.6 2.1-2.6 1.9 0 2.1 1.2 2.1 2.6 0 1.6-.2 2.7-2.1 2.7-1.9 0-2.1-1.2-2.1-2.7zm2.7-.1c0-1 0-1.6-.6-1.6s-.7.5-.7 1.6c0 1.5.1 1.9.7 1.9.4 0 .6-.4.6-1.9zm1.9-2.4h1.4l.7 3.8 1-3.8h1.5l.9 3.8.8-3.8h1.3l-1.4 5h-1.5l-.9-3.4-1 3.4h-1.5l-1.3-5zm9.7.5c.2-.2.3-.4.5-.5.2-.1.4-.1.7-.1.7 0 1.3.4 1.3 1.1v4h-1.4v-3.5c0-.4-.1-.8-.5-.8-.5 0-.5.3-.5.8v3.5h-1.4v-5h1.4v.5zm5.8-2.7h1.4v2.6c.3-.4.6-.6 1.1-.6 1.4 0 1.4 1.6 1.4 2.6s0 2.7-1.4 2.7c-.5 0-.9-.2-1.2-.7v.6h-1.3v-7.2zm2.6 4.7c0-1 0-1.7-.6-1.7s-.6.7-.6 1.7c0 1.3.1 1.8.6 1.8s.6-.5.6-1.8zm3.3 2.6l-1.4-5.1h1.4l.7 3.5.8-3.5h1.4l-1.9 7h-1.5l.5-1.9zm5.2-5.1h.6v-.8l1.4-.6v1.4h.7v.9h-.7v2.7c0 .4 0 .6.5.6h.2v.9h-.7c-1.2 0-1.4-.8-1.4-1.1v-3.1h-.6v-.9zm5.8 5.1v-3.5c0-.4-.1-.8-.5-.8-.5 0-.5.3-.5.8v3.5H142v-7.2h1.4v2.7c.1-.2.3-.4.5-.5.2-.1.4-.1.7-.1.7 0 1.3.4 1.3 1.1v4h-1.5zm4.1-7.3v1.1H147v-1.1h1.5zm0 7.3H147v-5h1.4v5zm2.6-4.6c.2-.2.3-.4.5-.5.2-.1.4-.1.7-.1.7 0 1.3.4 1.3 1.1v4h-1.4v-3.5c0-.4-.1-.8-.5-.8-.5 0-.5.3-.5.8v3.5h-1.4v-5h1.4v.5zm3.6 4.6v-7.2h1.4v4.3l1.3-2.1h1.5l-1.4 2.2 1.6 2.8h-1.6l-1.3-2.7v2.7h-1.5zm6.5-7.3v1.1h-1.4v-1.1h1.4zm0 7.3h-1.4v-5h1.4v5zm2.7-4.6c.2-.2.3-.4.5-.5.2-.1.4-.1.7-.1.7 0 1.3.4 1.3 1.1v4H165v-3.5c0-.4-.1-.8-.5-.8-.5 0-.5.3-.5.8v3.5h-1.4v-5h1.4v.5zm7.4-.5v5.3c0 .3 0 1.7-1.9 1.7-1 0-1.9-.3-2-1.5h1.4c0 .2 0 .4.1.5.1.1.2.2.5.2.4 0 .5-.3.5-.8v-1c-.2.4-.6.6-1.1.6-1.5 0-1.5-1.4-1.5-2.6 0-1.1 0-2.5 1.5-2.5.5 0 .9.2 1.1.7v-.6h1.4zm-1.9 4.1c.5 0 .6-.5.6-1.6s-.1-1.7-.6-1.7-.6.4-.6 1.9c-.1.5-.1 1.4.6 1.4zm5.2-1.6c0-1.4.2-2.6 2.1-2.6 1.9 0 2.1 1.2 2.1 2.6 0 1.6-.2 2.7-2.1 2.7-1.9 0-2.1-1.2-2.1-2.7zm2.7-.1c0-1 0-1.6-.6-1.6s-.7.5-.7 1.6c0 1.5.1 1.9.7 1.9.5 0 .6-.4.6-1.9zm4.6-3.7c-.6 0-.7.2-.7.7v.6h.7v.9h-.7v4.2h-1.4v-4.2h-.6v-.9h.6c0-1.4-.1-2.2 1.6-2.2h.5v.9zM18.2 278.7c0 .3 0 .6.1.9H17l-.1-.7c-.3.5-.7.8-1.3.8-1 0-1.3-.7-1.3-1.6 0-1.7 1.3-1.7 2.6-1.7v-.4c0-.4-.1-.7-.6-.7s-.5.4-.5.8h-1.4c0-.6.2-1 .5-1.2.3-.2.8-.3 1.3-.3 1.8 0 2 .8 2 1.7v2.4zm-2.6-.6c0 .4.1.8.5.8.8 0 .7-1.1.7-1.7-.7 0-1.2 0-1.2.9zm5.3-5.7v7.2h-1.4v-7.2h1.4zm2.7 0v7.2h-1.4v-7.2h1.4zm2.9 2.2h.6v-.8l1.4-.6v1.4h.7v.9h-.7v2.7c0 .4 0 .6.5.6h.2v.9h-.7c-1.2 0-1.4-.8-1.4-1.1v-3.1h-.6v-.9zm5.9 5.1v-3.5c0-.4-.1-.8-.5-.8-.5 0-.5.3-.5.8v3.5H30v-7.2h1.4v2.7c.1-.2.3-.4.5-.5.2-.1.4-.1.7-.1.7 0 1.3.4 1.3 1.1v4h-1.5zm3.8-2.3c0 .6 0 1.5.6 1.5.5 0 .6-.5.6-.9h1.4c0 .5-.2 1-.5 1.3-.3.3-.8.5-1.5.5-1.8 0-2.1-1.1-2.1-2.7 0-1.4.2-2.6 2.1-2.6 1.9 0 2.1 1.2 2.1 2.8h-2.7zm1.3-.8c0-.5 0-1.2-.6-1.2-.7 0-.6.8-.6 1.2h1.2zm6-2v.6c.3-.5.6-.7 1.2-.7 1.5 0 1.4 1.6 1.4 2.7 0 1 0 2.6-1.4 2.6-.5 0-.9-.1-1.1-.6v2.6h-1.4v-7.2h1.3zm1.2 2.5c0-1 0-1.7-.6-1.7s-.6.7-.6 1.7c0 1.3.1 1.8.6 1.8s.6-.5.6-1.8zm2.3 0c0-1.4.2-2.6 2.1-2.6 1.9 0 2.1 1.2 2.1 2.6 0 1.6-.2 2.7-2.1 2.7-1.9 0-2.1-1.2-2.1-2.7zm2.7-.1c0-1 0-1.6-.6-1.6s-.7.5-.7 1.6c0 1.5.1 1.9.7 1.9.5 0 .6-.4.6-1.9zm3.5 1c0 .2 0 .5.1.6.1.2.2.2.5.2s.5-.2.5-.5c0-1.1-2.5-.8-2.5-2.4 0-1.1 1.1-1.4 2-1.4 1 0 1.8.5 1.7 1.5h-1.4c0-.4 0-.6-.1-.7-.1-.1-.2-.1-.4-.1-.3 0-.5.2-.5.5 0 .8 2.5.8 2.5 2.4 0 .9-.7 1.5-1.9 1.5s-2-.3-2-1.7h1.5zm4.5 0c0 .2 0 .5.1.6.1.2.2.2.5.2s.5-.2.5-.5c0-1.1-2.5-.8-2.5-2.4 0-1.1 1.1-1.4 2-1.4 1 0 1.8.5 1.7 1.5h-1.4c0-.4 0-.6-.1-.7-.1-.1-.2-.1-.4-.1-.3 0-.5.2-.5.5 0 .8 2.5.8 2.5 2.4 0 .9-.7 1.5-1.9 1.5s-2-.3-2-1.7h1.5zm4.8-5.6v1.1h-1.4v-1.1h1.4zm0 7.3h-1.4v-5h1.4v5zm1.3-7.3h1.4v2.6c.3-.4.6-.6 1.1-.6 1.4 0 1.4 1.6 1.4 2.6s0 2.7-1.4 2.7c-.5 0-.9-.2-1.2-.7v.6h-1.3v-7.2zm2.6 4.7c0-1 0-1.7-.6-1.7s-.6.7-.6 1.7c0 1.3.1 1.8.6 1.8s.6-.5.6-1.8zm3.9-4.7v1.1h-1.4v-1.1h1.4zm0 7.3h-1.4v-5h1.4v5zm2.8-7.3v7.2h-1.4v-7.2h1.4zm2.8 0v1.1h-1.4v-1.1h1.4zm0 7.3h-1.4v-5h1.4v5zm.6-5.1h.6v-.8l1.4-.6v1.4h.7v.9h-.7v2.7c0 .4 0 .6.5.6h.2v.9h-.7c-1.2 0-1.4-.8-1.4-1.1v-3.1h-.6v-.9zm4.9-2.2v1.1H80v-1.1h1.4zm0 7.3H80v-5h1.4v5zm2.6-2.3c0 .6 0 1.5.6 1.5.5 0 .6-.5.6-.9h1.4c0 .5-.2 1-.5 1.3-.3.3-.8.5-1.5.5-1.8 0-2.1-1.1-2.1-2.7 0-1.4.2-2.6 2.1-2.6 1.9 0 2.1 1.2 2.1 2.8H84zm1.3-.8c0-.5 0-1.2-.6-1.2-.7 0-.6.8-.6 1.2h1.2zm3.5 1.4c0 .2 0 .5.1.6.1.2.2.2.5.2s.5-.2.5-.5c0-1.1-2.5-.8-2.5-2.4 0-1.1 1.1-1.4 2-1.4 1 0 1.8.5 1.7 1.5h-1.4c0-.4 0-.6-.1-.7-.1-.1-.2-.1-.4-.1-.3 0-.5.2-.5.5 0 .8 2.5.8 2.5 2.4 0 .9-.7 1.5-1.9 1.5s-2-.3-2-1.7h1.5zm5.1-3.4h1.4l.7 3.8 1-3.8h1.5l.9 3.8.8-3.8h1.3l-1.4 5h-1.5l-.9-3.4-1 3.4h-1.5l-1.3-5zm10.7 5.1v-3.5c0-.4-.1-.8-.5-.8-.5 0-.5.3-.5.8v3.5h-1.4v-7.2h1.4v2.7c.1-.2.3-.4.5-.5.2-.1.4-.1.7-.1.7 0 1.3.4 1.3 1.1v4h-1.5zm3.8-2.3c0 .6 0 1.5.6 1.5.5 0 .6-.5.6-.9h1.4c0 .5-.2 1-.5 1.3-.3.3-.8.5-1.5.5-1.8 0-2.1-1.1-2.1-2.7 0-1.4.2-2.6 2.1-2.6 1.9 0 2.1 1.2 2.1 2.8h-2.7zm1.3-.8c0-.5 0-1.2-.6-1.2-.7 0-.6.8-.6 1.2h1.2zm3.8-1.5c.2-.2.3-.4.5-.5.2-.1.4-.1.7-.1.7 0 1.3.4 1.3 1.1v4h-1.4v-3.5c0-.4-.1-.8-.5-.8-.5 0-.5.3-.5.8v3.5h-1.4v-5h1.4v.5zm9.7 3.6c0 .3 0 .6.1.9H122l-.1-.7c-.3.5-.7.8-1.3.8-1 0-1.3-.7-1.3-1.6 0-1.7 1.3-1.7 2.6-1.7v-.4c0-.4-.1-.7-.6-.7s-.5.4-.5.8h-1.4c0-.6.2-1 .5-1.2.3-.2.8-.3 1.3-.3 1.8 0 2 .8 2 1.7v2.4zm-2.6-.6c0 .4.1.8.5.8.8 0 .7-1.1.7-1.7-.7 0-1.2 0-1.2.9zm5.1-3c.2-.2.3-.4.5-.5.2-.1.4-.1.7-.1.7 0 1.3.4 1.3 1.1v4h-1.4v-3.5c0-.4-.1-.8-.5-.8-.5 0-.5.3-.5.8v3.5h-1.4v-5h1.4v.5zm4.7 2.9c0 .2 0 .5.1.6.1.2.2.2.5.2s.5-.2.5-.5c0-1.1-2.5-.8-2.5-2.4 0-1.1 1.1-1.4 2-1.4 1 0 1.8.5 1.7 1.5h-1.4c0-.4 0-.6-.1-.7-.1-.1-.2-.1-.4-.1-.3 0-.5.2-.5.5 0 .8 2.5.8 2.5 2.4 0 .9-.7 1.5-1.9 1.5s-2-.3-2-1.7h1.5zm2.9-3.4h1.4l.7 3.8 1-3.8h1.5l.9 3.8.8-3.8h1.3l-1.4 5H138l-.9-3.4-1 3.4h-1.5l-1.3-5zm9.6 2.8c0 .6 0 1.5.6 1.5.5 0 .6-.5.6-.9h1.4c0 .5-.2 1-.5 1.3-.3.3-.8.5-1.5.5-1.8 0-2.1-1.1-2.1-2.7 0-1.4.2-2.6 2.1-2.6 1.9 0 2.1 1.2 2.1 2.8h-2.7zm1.2-.8c0-.5 0-1.2-.6-1.2-.7 0-.6.8-.6 1.2h1.2zm3.8-2v.6c.3-.6.7-.8 1.3-.8v1.3c-1.2-.1-1.3.6-1.3 1.1v2.7h-1.4v-5h1.4zm3.5-2.2v1.1H150v-1.1h1.4zm0 7.3H150v-5h1.4v5zm2.7-4.6c.2-.2.3-.4.5-.5.2-.1.4-.1.7-.1.7 0 1.3.4 1.3 1.1v4h-1.4v-3.5c0-.4-.1-.8-.5-.8-.5 0-.5.3-.5.8v3.5h-1.4v-5h1.4v.5zm7.4-.5v5.3c0 .3 0 1.7-1.9 1.7-1 0-1.9-.3-2-1.5h1.4c0 .2 0 .4.1.5.1.1.2.2.5.2.4 0 .5-.3.5-.8v-1c-.2.4-.6.6-1.1.6-1.5 0-1.5-1.4-1.5-2.6 0-1.1 0-2.5 1.5-2.5.5 0 .9.2 1.1.7v-.6h1.4zm-2 4.1c.5 0 .6-.5.6-1.6s-.1-1.7-.6-1.7-.6.4-.6 1.9c0 .5 0 1.4.6 1.4zm9.3 3.1h-1.4v-2.6c-.3.4-.6.6-1.1.6-1.4 0-1.4-1.6-1.4-2.6s0-2.7 1.4-2.7c.5 0 .9.2 1.2.7v-.6h1.3v7.2zm-1.4-4.7c0-1 0-1.7-.6-1.7s-.6.7-.6 1.7c0 1.3.1 1.8.6 1.8s.6-.5.6-1.8zm5 2c-.2.2-.3.4-.5.5-.2.1-.4.1-.7.1-.7 0-1.3-.4-1.3-1.1v-4h1.4v3.5c0 .4.1.8.5.8s.5-.3.5-.8v-3.5h1.4v5h-1.5v-.5zm3.8-1.7c0 .6 0 1.5.6 1.5.5 0 .6-.5.6-.9h1.4c0 .5-.2 1-.5 1.3-.3.3-.8.5-1.5.5-1.8 0-2.1-1.1-2.1-2.7 0-1.4.2-2.6 2.1-2.6 1.9 0 2.1 1.2 2.1 2.8h-2.7zm1.3-.8c0-.5 0-1.2-.6-1.2-.7 0-.6.8-.6 1.2h1.2zm3.5 1.4c0 .2 0 .5.1.6.1.2.2.2.5.2s.5-.2.5-.5c0-1.1-2.5-.8-2.5-2.4 0-1.1 1.1-1.4 2-1.4 1 0 1.8.5 1.7 1.5H182c0-.4 0-.6-.1-.7-.1-.1-.2-.1-.4-.1-.3 0-.5.2-.5.5 0 .8 2.5.8 2.5 2.4 0 .9-.7 1.5-1.9 1.5s-2-.3-2-1.7h1.4zm2.8-3.4h.6v-.8l1.4-.6v1.4h.7v.9h-.7v2.7c0 .4 0 .6.5.6h.2v.9h-.7c-1.2 0-1.4-.8-1.4-1.1v-3.1h-.6v-.9zm4.8-2.2v1.1h-1.4v-1.1h1.4zm0 7.3h-1.4v-5h1.4v5zm1.2-2.6c0-1.4.2-2.6 2.1-2.6 1.9 0 2.1 1.2 2.1 2.6 0 1.6-.2 2.7-2.1 2.7-1.9 0-2.1-1.2-2.1-2.7zm2.7-.1c0-1 0-1.6-.6-1.6s-.7.5-.7 1.6c0 1.5.1 1.9.7 1.9.4 0 .6-.4.6-1.9zm3.8-1.9c.2-.2.3-.4.5-.5.2-.1.4-.1.7-.1.7 0 1.3.4 1.3 1.1v4h-1.4v-3.5c0-.4-.1-.8-.5-.8-.5 0-.5.3-.5.8v3.5H195v-5h1.4v.5zm4.7 2.9c0 .2 0 .5.1.6.1.2.2.2.5.2s.5-.2.5-.5c0-1.1-2.5-.8-2.5-2.4 0-1.1 1.1-1.4 2-1.4 1 0 1.8.5 1.7 1.5H202c0-.4 0-.6-.1-.7-.1-.1-.2-.1-.4-.1-.3 0-.5.2-.5.5 0 .8 2.5.8 2.5 2.4 0 .9-.7 1.5-1.9 1.5s-2-.3-2-1.7h1.4z" class="st3"/>
  <g id="cloud">
    <path d="M360 272.8v.8c0 4.2-3.4 7.7-7.7 7.7-.7 0-1.3-.1-1.9-.2-1.4 1.6-3.5 2.6-5.8 2.6-2.5 0-4.8-1.2-6.2-3.1-1.1.5-2.3.7-3.5.7-4.1-.2-7.4-3.6-7.4-7.8 0-.7.1-1.4.3-2-1.5-1.4-2.4-3.4-2.4-5.5 0-2.4 1.1-4.6 2.9-6-.6-1.1-.9-2.5-.8-3.9.2-3.9 3.3-7.1 7.3-7.3 1.7-.1 3.2.4 4.5 1.2 1.2-2.6 3.9-4.4 6.9-4.4 3.4 0 6.3 2.2 7.3 5.2 1.2-.3 2.4-.3 3.7.1 2.5.6 4.5 2.5 5.3 5 .6 1.9.5 3.7-.2 5.3 1.1 1.3 1.7 3 1.7 4.8.1 2.9-1.6 5.5-4 6.8z" class="st8"/>
    <circle cx="327" cy="280.3" r="1.5" class="st8"/>
    <circle cx="322.4" cy="283.5" r="1.7" class="st8"/>
    <path d="M356.4 267.3v.5c0 2.5-2.1 4.6-4.6 4.6-.4 0-.8 0-1.1-.1-.8 1-2.1 1.6-3.5 1.6-1.5 0-2.9-.7-3.7-1.9-.6.3-1.4.4-2.1.4-2.5-.1-4.5-2.2-4.4-4.7 0-.4.1-.8.2-1.2-.9-.8-1.4-2-1.4-3.3 0-1.5.7-2.8 1.7-3.6-.4-.7-.5-1.5-.5-2.3.1-2.4 2-4.3 4.4-4.4 1-.1 1.9.2 2.7.7.7-1.6 2.3-2.6 4.2-2.6 2 0 3.8 1.3 4.4 3.1.7-.2 1.5-.2 2.2 0 1.5.4 2.7 1.5 3.2 3 .4 1.1.3 2.2-.1 3.2.6.8 1 1.8 1 2.9-.1 1.8-1.2 3.3-2.6 4.1z" class="st14"/>
    <circle cx="336.6" cy="271.8" r=".9" class="st14"/>
    <circle cx="333.8" cy="273.7" r="1" class="st14"/>
  </g>
  <path d="M217.4 279h95.8" class="st4"/>
  <path d="M211.1 214.7v1.2h-1.7v6h-1.5v-6h-1.7v-1.2h4.9zm1.2 2.1v.6c.3-.6.7-.8 1.3-.8v1.3c-1.2-.1-1.3.6-1.3 1.1v2.7h-1.4v-5h1.4zm2.9 5.1l-1.4-5.1h1.4l.7 3.5.8-3.5h1.4l-1.9 7h-1.5l.5-1.9zm5.2-5.1h.6v-.8l1.4-.6v1.4h.7v.9h-.7v2.7c0 .4 0 .6.5.6h.2v.9h-.7c-1.2 0-1.4-.8-1.4-1.1v-3.1h-.6v-.9zm3.2 2.5c0-1.4.2-2.6 2.1-2.6 1.9 0 2.1 1.2 2.1 2.6 0 1.6-.2 2.7-2.1 2.7-1.9 0-2.1-1.1-2.1-2.7zm2.7-.1c0-1 0-1.6-.6-1.6s-.7.5-.7 1.6c0 1.5.1 1.9.7 1.9.5 0 .6-.3.6-1.9zm8.5 1.8c0 .3 0 .6.1.9h-1.3l-.1-.7c-.3.5-.7.8-1.3.8-1 0-1.3-.7-1.3-1.6 0-1.7 1.3-1.7 2.6-1.7v-.4c0-.4-.1-.7-.6-.7s-.5.4-.5.8H231c0-.6.2-1 .5-1.2.3-.2.8-.3 1.3-.3 1.8 0 2 .8 2 1.7v2.4zm-2.6-.7c0 .4.1.8.5.8.8 0 .7-1.1.7-1.7-.7.1-1.2 0-1.2.9zm3.3-3.5h1.4l.7 3.8.7-3.8h1.4l-1.4 5h-1.5l-1.3-5zm4.8 2.5c0-1.4.2-2.6 2.1-2.6 1.9 0 2.1 1.2 2.1 2.6 0 1.6-.2 2.7-2.1 2.7-1.9 0-2.1-1.1-2.1-2.7zm2.7-.1c0-1 0-1.6-.6-1.6s-.7.5-.7 1.6c0 1.5.1 1.9.7 1.9.4 0 .6-.3.6-1.9zm3.9-4.5v1.1h-1.4v-1.1h1.4zm0 7.2h-1.4v-5h1.4v5zm3.8 0v-.6c-.3.5-.7.7-1.2.7-1.5 0-1.4-1.6-1.4-2.7 0-1 0-2.6 1.4-2.6.5 0 .9.2 1.1.6v-2.6h1.4v7.2h-1.3zm-.1-2.6c0-1 0-1.7-.6-1.7s-.6.7-.6 1.7c0 1.3.1 1.8.6 1.8s.6-.5.6-1.8zm4.2-2.5h.6v-.8l1.4-.6v1.4h.7v.9h-.7v2.7c0 .4 0 .6.5.6h.2v.9h-.7c-1.2 0-1.4-.8-1.4-1.1v-3.1h-.6v-.9zm4.7 2.8c0 .6 0 1.5.6 1.5.5 0 .6-.5.6-.9h1.4c0 .5-.2 1-.5 1.3-.3.3-.8.5-1.5.5-1.8 0-2.1-1.1-2.1-2.7 0-1.4.2-2.6 2.1-2.6 1.9 0 2.1 1.2 2.1 2.8h-2.7zm1.2-.8c0-.5 0-1.2-.6-1.2-.7 0-.6.8-.6 1.2h1.2zm6.3 2.2c0 .3 0 .6.1.9h-1.3l-.1-.7c-.3.5-.7.8-1.3.8-1 0-1.3-.7-1.3-1.6 0-1.7 1.3-1.7 2.6-1.7v-.4c0-.4-.1-.7-.6-.7s-.5.4-.5.8h-1.4c0-.6.2-1 .5-1.2.3-.2.8-.3 1.3-.3 1.8 0 2 .8 2 1.7v2.4zm-2.6-.7c0 .4.1.8.5.8.8 0 .7-1.1.7-1.7-.7.1-1.2 0-1.2.9zm6.3-1.7c0-.8-.2-1-.6-1-.6 0-.7.5-.7 1.6 0 1.5.1 1.9.7 1.9.4 0 .6-.4.6-1.1h1.4c0 1.4-.7 2-2.1 2-1.8 0-2.1-1.1-2.1-2.7 0-1.4.2-2.6 2.1-2.6 1.3 0 2 .6 2 1.9h-1.3zm4.9 3.3v-3.5c0-.4-.1-.8-.5-.8-.5 0-.5.3-.5.8v3.5h-1.4v-7.2h1.4v2.7c.1-.2.3-.4.5-.5.2-.1.4-.1.7-.1.7 0 1.3.4 1.3 1.1v4h-1.5zm3.9-2.3c0 .6 0 1.5.6 1.5.5 0 .6-.5.6-.9h1.4c0 .5-.2 1-.5 1.3-.3.3-.8.5-1.5.5-1.8 0-2.1-1.1-2.1-2.7 0-1.4.2-2.6 2.1-2.6 1.9 0 2.1 1.2 2.1 2.8h-2.7zm1.2-.8c0-.5 0-1.2-.6-1.2-.7 0-.6.8-.6 1.2h1.2zm3.8-2v.6c.3-.6.7-.8 1.3-.8v1.3c-1.2-.1-1.3.6-1.3 1.1v2.7h-1.4v-5h1.4zm3.1 3.5c0 .2 0 .5.1.6.1.2.2.2.5.2s.5-.2.5-.5c0-1.1-2.5-.8-2.5-2.4 0-1.1 1.1-1.4 2-1.4 1 0 1.8.5 1.7 1.5h-1.4c0-.4 0-.6-.1-.7-.1-.1-.2-.1-.4-.1-.3 0-.5.2-.5.5 0 .8 2.5.8 2.5 2.4 0 .9-.7 1.5-1.9 1.5s-2-.3-2-1.7h1.5zm5.1-3.5h1.4l.7 3.8 1-3.8h1.5l.9 3.8.8-3.8h1.3l-1.4 5h-1.5l-.9-3.4-1 3.4H294l-1.3-5zm10.7 5.1v-3.5c0-.4-.1-.8-.5-.8-.5 0-.5.3-.5.8v3.5H301v-7.2h1.4v2.7c.1-.2.3-.4.5-.5.2-.1.4-.1.7-.1.7 0 1.3.4 1.3 1.1v4h-1.5zm2.4-2.6c0-1.4.2-2.6 2.1-2.6 1.9 0 2.1 1.2 2.1 2.6 0 1.6-.2 2.7-2.1 2.7-1.9 0-2.1-1.1-2.1-2.7zm2.7-.1c0-1 0-1.6-.6-1.6s-.7.5-.7 1.6c0 1.5.1 1.9.7 1.9.5 0 .6-.3.6-1.9zm6.2-4.5v7.2h-1.4v-7.2h1.4zm2.5 4.9c0 .6 0 1.5.6 1.5.5 0 .6-.5.6-.9h1.4c0 .5-.2 1-.5 1.3-.3.3-.8.5-1.5.5-1.8 0-2.1-1.1-2.1-2.7 0-1.4.2-2.6 2.1-2.6 1.9 0 2.1 1.2 2.1 2.8h-2.7zm1.3-.8c0-.5 0-1.2-.6-1.2-.7 0-.6.8-.6 1.2h1.2zm5-.2c0-.8-.2-1-.6-1-.6 0-.7.5-.7 1.6 0 1.5.1 1.9.7 1.9.4 0 .6-.4.6-1.1h1.4c0 1.4-.7 2-2.1 2-1.8 0-2.1-1.1-2.1-2.7 0-1.4.2-2.6 2.1-2.6 1.3 0 2 .6 2 1.9h-1.3zm1.9-1.8h.6v-.8l1.4-.6v1.4h.7v.9h-.7v2.7c0 .4 0 .6.5.6h.2v.9h-.7c-1.2 0-1.4-.8-1.4-1.1v-3.1h-.6v-.9zm5.8 4.6c-.2.2-.3.4-.5.5-.2.1-.4.1-.7.1-.7 0-1.3-.4-1.3-1.1v-4h1.4v3.5c0 .4.1.8.5.8s.5-.3.5-.8v-3.5h1.4v5H331v-.5zm3.8-4.6v.6c.3-.6.7-.8 1.3-.8v1.3c-1.2-.1-1.3.6-1.3 1.1v2.7h-1.4v-5h1.4zm3.3 2.8c0 .6 0 1.5.6 1.5.5 0 .6-.5.6-.9h1.4c0 .5-.2 1-.5 1.3-.3.3-.8.5-1.5.5-1.8 0-2.1-1.1-2.1-2.7 0-1.4.2-2.6 2.1-2.6 1.9 0 2.1 1.2 2.1 2.8h-2.7zm1.3-.8c0-.5 0-1.2-.6-1.2-.7 0-.6.8-.6 1.2h1.2zm8.5 2.2c0 .3 0 .6.1.9h-1.3l-.1-.7c-.3.5-.7.8-1.3.8-1 0-1.3-.7-1.3-1.6 0-1.7 1.3-1.7 2.6-1.7v-.4c0-.4-.1-.7-.6-.7s-.5.4-.5.8h-1.4c0-.6.2-1 .5-1.2.3-.2.8-.3 1.3-.3 1.8 0 2 .8 2 1.7v2.4zm-2.6-.7c0 .4.1.8.5.8.8 0 .7-1.1.7-1.7-.7.1-1.2 0-1.2.9zm7.5-5.6v7.2h-1.4v-7.2h1.4zm1.1 4.6c0-1.4.2-2.6 2.1-2.6 1.9 0 2.1 1.2 2.1 2.6 0 1.6-.2 2.7-2.1 2.7-1.8 0-2.1-1.1-2.1-2.7zm2.7-.1c0-1 0-1.6-.6-1.6s-.7.5-.7 1.6c0 1.5.1 1.9.7 1.9.5 0 .6-.3.6-1.9zm1.9-2.4h.6v-.8l1.4-.6v1.4h.7v.9h-.7v2.7c0 .4 0 .6.5.6h.2v.9h-.7c-1.2 0-1.4-.8-1.4-1.1v-3.1h-.6v-.9z" class="st3"/>
  <g id="microphone">
    <path d="M30.4 207.5L8.9 232.2c-.8.9-.8 2.3.1 3.2l.9.9c.9.9 2.3.9 3.3.1l24.4-21.8c1-.9 1.1-2.5.1-3.4l-3.7-3.7c-1.1-1-2.7-1-3.6 0z" class="st9"/>
    <path d="M23.5 222c-.5-.5-.5-1.2 0-1.7l4.1-4.1c.5-.5 1.2-.5 1.7 0s.5 1.2 0 1.7l-4.1 4.1c-.5.5-1.3.5-1.7 0z" class="st15"/>
    <path d="M25.2 220.3c-.3-.3-.3-.8 0-1.2l2.8-2.8c.3-.3.8-.3 1.2 0 .3.3.3.8 0 1.2l-2.8 2.8c-.4.4-.9.4-1.2 0z" class="st5"/>
    <path d="M33.6 197.4c-2.7 3.8-2.4 9.2 1.1 12.6 3.4 3.4 8.8 3.8 12.6 1.1l-13.7-13.7zm14.9-1.2c-3.8-3.8-10.1-3.8-13.9 0l13.9 13.9c3.9-3.9 3.9-10.1 0-13.9z" class="st9"/>
    <defs>
      <path id="SVGID_2_" d="M48.5 196.2c-3.8-3.8-10.1-3.8-13.9 0l13.9 13.9c3.9-3.9 3.9-10.1 0-13.9z"/>
    </defs>
    <clipPath id="SVGID_3_">
      <use xlink:href="#SVGID_2_" overflow="visible"/>
    </clipPath>
    <g class="st16">
      <path d="M55.2 195.7c0 .3-.2.5-.5.5H27c-.3 0-.5-.2-.5-.5s.2-.5.5-.5h27.7c.3 0 .5.3.5.5z" class="st5"/>
      <path d="M58.8 209.4c-.2.2-.5.2-.7 0l-19.6-19.6c-.2-.2-.2-.5 0-.7.2-.2.5-.2.7 0l19.6 19.6c.2.2.2.5 0 .7zm-2.3 1.2c-.2.2-.5.2-.7 0L36.2 191c-.2-.2-.2-.5 0-.7.2-.2.5-.2.7 0l19.6 19.6c.2.2.2.5 0 .7zm-2.2 1.1c-.2.2-.5.2-.7 0L34 192.1c-.2-.2-.2-.5 0-.7.2-.2.5-.2.7 0L54.3 211c.2.2.2.6 0 .7zm-2.3 1.2c-.2.2-.5.2-.7 0l-19.6-19.6c-.2-.2-.2-.5 0-.7.2-.2.5-.2.7 0L52 212.2c.2.2.2.5 0 .7zm-2.3 1.2c-.2.2-.5.2-.7 0l-19.6-19.6c-.2-.2-.2-.5 0-.7.2-.2.5-.2.7 0l19.6 19.6c.2.2.2.5 0 .7zm-2.2 1.2c-.2.2-.5.2-.7 0l-19.6-19.6c-.2-.2-.2-.5 0-.7.2-.2.5-.2.7 0l19.6 19.6c.2.1.2.5 0 .7zm-2.3 1.1c-.2.2-.5.2-.7 0l-19.6-19.6c-.2-.2-.2-.5 0-.7.2-.2.5-.2.7 0l19.6 19.6c.2.2.2.5 0 .7zm-2.3 1.2c-.2.2-.5.2-.7 0L22.6 198c-.2-.2-.2-.5 0-.7.2-.2.5-.2.7 0l19.6 19.6c.2.2.2.5 0 .7z" class="st5"/>
      <path d="M55.7 198.3c0 .3-.2.5-.5.5H27.5c-.3 0-.5-.2-.5-.5s.2-.5.5-.5h27.7c.3 0 .5.2.5.5zm.5 2.5c0 .3-.2.5-.5.5H28c-.3 0-.5-.2-.5-.5s.2-.5.5-.5h27.7c.3 0 .5.2.5.5zm.5 2.5c0 .3-.2.5-.5.5H28.5c-.3 0-.5-.2-.5-.5s.2-.5.5-.5h27.7c.3 0 .5.3.5.5zm.5 2.6c0 .3-.2.5-.5.5H29c-.3 0-.5-.2-.5-.5s.2-.5.5-.5h27.7c.3 0 .5.2.5.5zm.6 2.5c0 .3-.2.5-.5.5H29.5c-.3 0-.5-.2-.5-.5s.2-.5.5-.5h27.7c.3 0 .6.2.6.5zm.5 2.5c0 .3-.2.5-.5.5H30.1c-.3 0-.5-.2-.5-.5s.2-.5.5-.5h27.7c.3.1.5.3.5.5z" class="st5"/>
      <path d="M55.2 195.7c0 .3-.2.5-.5.5H27c-.3 0-.5-.2-.5-.5s.2-.5.5-.5h27.7c.3 0 .5.3.5.5z" class="st17"/>
      <path d="M58.8 209.4c-.2.2-.5.2-.7 0l-19.6-19.6c-.2-.2-.2-.5 0-.7.2-.2.5-.2.7 0l19.6 19.6c.2.2.2.5 0 .7zm-2.3 1.2c-.2.2-.5.2-.7 0L36.2 191c-.2-.2-.2-.5 0-.7.2-.2.5-.2.7 0l19.6 19.6c.2.2.2.5 0 .7zm-2.2 1.1c-.2.2-.5.2-.7 0L34 192.1c-.2-.2-.2-.5 0-.7.2-.2.5-.2.7 0L54.3 211c.2.2.2.6 0 .7zm-2.3 1.2c-.2.2-.5.2-.7 0l-19.6-19.6c-.2-.2-.2-.5 0-.7.2-.2.5-.2.7 0L52 212.2c.2.2.2.5 0 .7zm-2.3 1.2c-.2.2-.5.2-.7 0l-19.6-19.6c-.2-.2-.2-.5 0-.7.2-.2.5-.2.7 0l19.6 19.6c.2.2.2.5 0 .7zm-2.2 1.2c-.2.2-.5.2-.7 0l-19.6-19.6c-.2-.2-.2-.5 0-.7.2-.2.5-.2.7 0l19.6 19.6c.2.1.2.5 0 .7zm-2.3 1.1c-.2.2-.5.2-.7 0l-19.6-19.6c-.2-.2-.2-.5 0-.7.2-.2.5-.2.7 0l19.6 19.6c.2.2.2.5 0 .7zm-2.3 1.2c-.2.2-.5.2-.7 0L22.6 198c-.2-.2-.2-.5 0-.7.2-.2.5-.2.7 0l19.6 19.6c.2.2.2.5 0 .7z" class="st17"/>
      <path d="M55.7 198.3c0 .3-.2.5-.5.5H27.5c-.3 0-.5-.2-.5-.5s.2-.5.5-.5h27.7c.3 0 .5.2.5.5zm.5 2.5c0 .3-.2.5-.5.5H28c-.3 0-.5-.2-.5-.5s.2-.5.5-.5h27.7c.3 0 .5.2.5.5zm.5 2.5c0 .3-.2.5-.5.5H28.5c-.3 0-.5-.2-.5-.5s.2-.5.5-.5h27.7c.3 0 .5.3.5.5zm.5 2.6c0 .3-.2.5-.5.5H29c-.3 0-.5-.2-.5-.5s.2-.5.5-.5h27.7c.3 0 .5.2.5.5zm.6 2.5c0 .3-.2.5-.5.5H29.5c-.3 0-.5-.2-.5-.5s.2-.5.5-.5h27.7c.3 0 .6.2.6.5zm.5 2.5c0 .3-.2.5-.5.5H30.1c-.3 0-.5-.2-.5-.5s.2-.5.5-.5h27.7c.3.1.5.3.5.5z" class="st17"/>
    </g>
    <defs>
      <path id="SVGID_4_" d="M33.6 197.4c-2.7 3.8-2.4 9.2 1.1 12.6 3.4 3.4 8.8 3.8 12.6 1.1l-13.7-13.7z"/>
    </defs>
    <clipPath id="SVGID_5_">
      <use xlink:href="#SVGID_4_" overflow="visible"/>
    </clipPath>
    <g class="st18">
      <path d="M55.2 195.8c0 .3-.2.5-.5.5H27c-.3 0-.5-.2-.5-.5s.2-.5.5-.5h27.7c.3 0 .5.2.5.5z" class="st5"/>
      <path d="M58.8 209.4c-.2.2-.5.2-.7 0l-19.6-19.6c-.2-.2-.2-.5 0-.7.2-.2.5-.2.7 0l19.6 19.6c.2.2.2.5 0 .7zm-2.2 1.2c-.2.2-.5.2-.7 0L36.3 191c-.2-.2-.2-.5 0-.7.2-.2.5-.2.7 0l19.6 19.6c.1.2.1.5 0 .7zm-2.3 1.2c-.2.2-.5.2-.7 0L34 192.2c-.2-.2-.2-.5 0-.7.2-.2.5-.2.7 0l19.6 19.6c.2.2.2.5 0 .7zm-2.3 1.1c-.2.2-.5.2-.7 0l-19.6-19.6c-.2-.2-.2-.5 0-.7.2-.2.5-.2.7 0L52 212.2c.2.2.2.5 0 .7zm-2.3 1.2c-.2.2-.5.2-.7 0l-19.6-19.6c-.2-.2-.2-.5 0-.7.2-.2.5-.2.7 0l19.6 19.6c.2.2.2.5 0 .7zm-2.2 1.2c-.2.2-.5.2-.7 0l-19.6-19.6c-.2-.2-.2-.5 0-.7.2-.2.5-.2.7 0l19.6 19.6c.2.2.2.5 0 .7zm-2.3 1.1c-.2.2-.5.2-.7 0l-19.6-19.6c-.2-.2-.2-.5 0-.7.2-.2.5-.2.7 0l19.6 19.6c.2.2.2.5 0 .7zm-2.3 1.2c-.2.2-.5.2-.7 0L22.6 198c-.2-.2-.2-.5 0-.7.2-.2.5-.2.7 0l19.6 19.6c.2.2.2.5 0 .7z" class="st5"/>
      <path d="M55.7 198.3c0 .3-.2.5-.5.5H27.5c-.3 0-.5-.2-.5-.5s.2-.5.5-.5h27.7c.3 0 .5.2.5.5zm.5 2.5c0 .3-.2.5-.5.5H28c-.3 0-.5-.2-.5-.5s.2-.5.5-.5h27.7c.3 0 .5.3.5.5zm.6 2.6c0 .3-.2.5-.5.5H28.5c-.3 0-.5-.2-.5-.5s.2-.5.5-.5h27.7c.3 0 .6.2.6.5zm.5 2.5c0 .3-.2.5-.5.5H29.1c-.3 0-.5-.2-.5-.5s.2-.5.5-.5h27.7c.2 0 .5.2.5.5zm.5 2.5c0 .3-.2.5-.5.5H29.6c-.3 0-.5-.2-.5-.5s.2-.5.5-.5h27.7c.3 0 .5.3.5.5zm.5 2.6c0 .3-.2.5-.5.5H30.1c-.3 0-.5-.2-.5-.5s.2-.5.5-.5h27.7c.3 0 .5.2.5.5z" class="st5"/>
      <path d="M55.2 195.8c0 .3-.2.5-.5.5H27c-.3 0-.5-.2-.5-.5s.2-.5.5-.5h27.7c.3 0 .5.2.5.5z" class="st17"/>
      <path d="M58.8 209.4c-.2.2-.5.2-.7 0l-19.6-19.6c-.2-.2-.2-.5 0-.7.2-.2.5-.2.7 0l19.6 19.6c.2.2.2.5 0 .7zm-2.2 1.2c-.2.2-.5.2-.7 0L36.3 191c-.2-.2-.2-.5 0-.7.2-.2.5-.2.7 0l19.6 19.6c.1.2.1.5 0 .7zm-2.3 1.2c-.2.2-.5.2-.7 0L34 192.2c-.2-.2-.2-.5 0-.7.2-.2.5-.2.7 0l19.6 19.6c.2.2.2.5 0 .7zm-2.3 1.1c-.2.2-.5.2-.7 0l-19.6-19.6c-.2-.2-.2-.5 0-.7.2-.2.5-.2.7 0L52 212.2c.2.2.2.5 0 .7zm-2.3 1.2c-.2.2-.5.2-.7 0l-19.6-19.6c-.2-.2-.2-.5 0-.7.2-.2.5-.2.7 0l19.6 19.6c.2.2.2.5 0 .7zm-2.2 1.2c-.2.2-.5.2-.7 0l-19.6-19.6c-.2-.2-.2-.5 0-.7.2-.2.5-.2.7 0l19.6 19.6c.2.2.2.5 0 .7zm-2.3 1.1c-.2.2-.5.2-.7 0l-19.6-19.6c-.2-.2-.2-.5 0-.7.2-.2.5-.2.7 0l19.6 19.6c.2.2.2.5 0 .7zm-2.3 1.2c-.2.2-.5.2-.7 0L22.6 198c-.2-.2-.2-.5 0-.7.2-.2.5-.2.7 0l19.6 19.6c.2.2.2.5 0 .7z" class="st17"/>
      <path d="M55.7 198.3c0 .3-.2.5-.5.5H27.5c-.3 0-.5-.2-.5-.5s.2-.5.5-.5h27.7c.3 0 .5.2.5.5zm.5 2.5c0 .3-.2.5-.5.5H28c-.3 0-.5-.2-.5-.5s.2-.5.5-.5h27.7c.3 0 .5.3.5.5zm.6 2.6c0 .3-.2.5-.5.5H28.5c-.3 0-.5-.2-.5-.5s.2-.5.5-.5h27.7c.3 0 .6.2.6.5zm.5 2.5c0 .3-.2.5-.5.5H29.1c-.3 0-.5-.2-.5-.5s.2-.5.5-.5h27.7c.2 0 .5.2.5.5zm.5 2.5c0 .3-.2.5-.5.5H29.6c-.3 0-.5-.2-.5-.5s.2-.5.5-.5h27.7c.3 0 .5.3.5.5zm.5 2.6c0 .3-.2.5-.5.5H30.1c-.3 0-.5-.2-.5-.5s.2-.5.5-.5h27.7c.3 0 .5.2.5.5z" class="st17"/>
    </g>
  </g>
  <path d="M51.2 221.7h150" class="st4"/>
</svg>
