<svg xmlns="http://www.w3.org/2000/svg" id="Layer_1" viewBox="0 0 392.4 312.1">
  <style>
    .Drop_x0020_Shadow{fill:none;} .Outer_x0020_Glow_x0020_5_x0020_pt{fill:none;} .Blue_x0020_Neon{fill:none;stroke:#8AACDA;stroke-width:7;stroke-linecap:round;stroke-linejoin:round;} .Chrome_x0020_Highlight{fill:url(#SVGID_1_);stroke:#FFFFFF;stroke-width:0.3629;stroke-miterlimit:1;} .Jive_GS{fill:#FFDD00;} .Alyssa_GS{fill:#A6D0E4;} .st0{opacity:0.8;fill:#0A3656;} .st1{fill:#ED5A49;} .st2{fill:#ED5A49;stroke:#221F1F;stroke-width:0.1836;stroke-miterlimit:10;} .st3{fill:#0A3656;} .st4{fill:none;stroke:#ED5A49;stroke-width:2;stroke-linecap:round;stroke-linejoin:round;stroke-miterlimit:10;stroke-dasharray:0,8;} .st5{fill:#E9F5FC;} .st6{fill:none;stroke:#E9F5FC;stroke-width:0.1274;stroke-linecap:round;stroke-linejoin:round;stroke-miterlimit:10;} .st7{fill:#C12944;} .st8{fill:#F5F1ED;} .st9{fill:#542337;} .st10{fill:#FFFFFF;} .st11{fill:none;stroke:#C12944;stroke-width:0.8464;stroke-linecap:round;stroke-linejoin:round;stroke-miterlimit:10;} .st12{fill:#C12944;stroke:#C12944;stroke-width:0.7245;stroke-linecap:round;stroke-linejoin:round;stroke-miterlimit:10;} .st13{fill:none;stroke:#542337;stroke-width:0.378;stroke-linecap:round;stroke-linejoin:round;stroke-miterlimit:10;} .st14{fill:#DDE8F0;} .st15{fill:#491B2E;} .st16{clip-path:url(#SVGID_3_);} .st17{fill:#E6E7E8;} .st18{clip-path:url(#SVGID_5_);}
  </style>
  <linearGradient id="SVGID_1_" x1="-11.636" x2="-11.636" y1="-114.818" y2="-115.818" gradientUnits="userSpaceOnUse">
    <stop offset="0" stop-color="#656565"/>
    <stop offset=".618" stop-color="#1B1B1B"/>
    <stop offset=".629" stop-color="#545454"/>
    <stop offset=".983" stop-color="#3E3E3E"/>
  </linearGradient>
  <g id="leader">
    <path d="M378.4 26.8c0-.2 0-.4-.1-.7-1.1-3.4-3.7-4.2-5.5-4.2h-8.2.4c1.8.1 4.5.8 5.5 4.2.1.2.1.4.1.7l.3 16.5c0 .2 0 .5-.1.7-.2.6 0 1.3-1.6 1.3v.4h.1v21.2c0 1.2 1 2.2 2.2 2.2h.8c1.2 0 2.2-1 2.2-2.2V28.7h.3c1 0 .1 12.9.1 14.5 0 2.4.8 2.2 2.1 2.2 1.5 0 1.4-.7 1.6-1.3.1-.2.1-.5.1-.7l-.3-16.6zm-14.5-9.1c.9 1.2 2.3 2 3.9 2 2.7 0 4.8-2.2 4.8-4.8s-2.2-4.8-4.8-4.8c-1.6 0-3 .8-3.9 2 .6.8 1 1.8 1 2.9s-.4 1.9-1 2.7z" class="st0"/>
    <path d="M355.9 69.1h-.8c-1.2 0-2.2-1-2.2-2.2V44.4c0-1.2 1-2.2 2.2-2.2h.8c1.2 0 2.2 1 2.2 2.2v22.5c0 1.2-1 2.2-2.2 2.2zm7.7 0h-.8c-1.2 0-2.2-1-2.2-2.2V44.4c0-1.2 1-2.2 2.2-2.2h.8c1.2 0 2.2 1 2.2 2.2v22.5c0 1.2-1 2.2-2.2 2.2zm-9-47.2c-1.8.1-4.5.8-5.5 4.2-.1.2-.1.4-.1.7l-.3 16.5c0 .2 0 .5.1.7.2.6 0 1.3 1.6 1.3 1.3 0 2.1.2 2.1-2.2 0-1.6-.9-14.5.1-14.5s2.1-.6 2.1 1.1c0 .5.4.7.9.8 1.6.2 2.8-1.4 2.4-2.9l-1.1-4.1c-.3-.9-1.3-1.6-2.3-1.6zm9.5 0c1.8.1 4.5.8 5.5 4.2.1.2.1.4.1.7l.3 16.5c0 .2 0 .5-.1.7-.2.6 0 1.3-1.6 1.3-1.3 0-2.1.2-2.1-2.2 0-1.6.9-14.5-.1-14.5s-2.1-.6-2.1 1.1c0 .5-.4.7-.9.8-1.6.2-2.8-1.4-2.4-2.9l1.1-4.1c.3-.9 1.2-1.6 2.3-1.6z" class="st1"/>
    <path d="M363.6 45.7h-8.5c-1.2 0-2.2-1-2.2-2.2V24.1c0-1.2 1-2.2 2.2-2.2h8.5c1.2 0 2.2 1 2.2 2.2v19.4c0 1.2-1 2.2-2.2 2.2z" class="st1"/>
    <circle cx="359.4" cy="14.8" r="4.8" class="st1"/>
    <path d="M340.3 26.8c0-.2 0-.4.1-.7 1.1-3.4 3.7-4.2 5.5-4.2h8.2-.4c-1.8.1-4.5.8-5.5 4.2-.1.2-.1.4-.1.7l-.3 16.5c0 .2 0 .5.1.7.2.6 0 1.3 1.6 1.3v.4h-.1v21.2c0 1.2-1 2.2-2.2 2.2h-.8c-1.2 0-2.2-1-2.2-2.2V28.7h-.3c-1 0-.1 12.9-.1 14.5 0 2.4-.8 2.2-2.1 2.2-1.5 0-1.4-.7-1.6-1.3-.1-.2-.1-.5-.1-.7l.3-16.6zm14.5-9.1c-.9 1.2-2.3 2-3.9 2-2.7 0-4.8-2.2-4.8-4.8s2.2-4.8 4.8-4.8c1.6 0 3 .8 3.9 2-.6.8-1 1.8-1 2.9s.4 1.9 1 2.7z" class="st0"/>
  </g>
  <path d="M15.6 48.9v-7.2h1.5v7.2h-1.5zm4.9-6.3c-.6 0-.7.2-.7.7v.6h.7v.9h-.7V49h-1.4v-4.2h-.6v-.9h.6c0-1.4-.1-2.2 1.6-2.2h.5v.9zm3.7 6.4l-1.4-5.1h1.4l.7 3.5.8-3.5h1.4l-1.9 7h-1.5l.5-1.9zm3.4-2.7c0-1.4.2-2.6 2.1-2.6s2.1 1.2 2.1 2.6c0 1.6-.2 2.7-2.1 2.7s-2.1-1.1-2.1-2.7zm2.7 0c0-1-.1-1.6-.6-1.6s-.7.5-.7 1.6c0 1.5.1 1.9.6 1.9.6-.1.7-.4.7-1.9zm4.9 2.1c-.2.2-.3.4-.5.5-.2.1-.4.1-.7.1-.7 0-1.3-.4-1.3-1.1v-4h1.4v3.5c0 .4.1.8.5.8s.5-.3.5-.8v-3.5h1.4v5H35v-.5zm6.3-6.7v7.2h-1.4v-7.2h1.4zm2.8 0v1.1h-1.4v-1.1h1.4zm0 7.2h-1.4v-5h1.4v5zm1.2 0v-7.2h1.4V46l1.3-2.1h1.5l-1.4 2.2 1.6 2.8h-1.6L47 46.2v2.7h-1.5zm6.3-2.3c0 .6 0 1.5.6 1.5.5 0 .6-.5.6-.9h1.4c0 .5-.2 1-.5 1.3-.3.3-.8.5-1.5.5-1.8 0-2.1-1.1-2.1-2.7 0-1.4.2-2.6 2.1-2.6 1.9 0 2.1 1.2 2.1 2.8h-2.7zm1.3-.8c0-.5 0-1.2-.6-1.2s-.6.8-.6 1.2h1.2zm4.1-1.9h.6v-.8l1.4-.6v1.4h.7v.9h-.7v2.7c0 .4 0 .6.4.6h.2v.9h-.7c-1.2 0-1.4-.8-1.4-1.1v-3.1h-.6v-.9zm3.2 2.4c0-1.4.2-2.6 2.1-2.6 1.9 0 2.1 1.2 2.1 2.6 0 1.6-.2 2.7-2.1 2.7-1.8 0-2.1-1.1-2.1-2.7zm2.7 0c0-1-.1-1.6-.6-1.6s-.6.5-.6 1.6c0 1.5.1 1.9.6 1.9.5-.1.6-.4.6-1.9zm4.7-4.6h1.4v2.6c.3-.4.6-.6 1.1-.6 1.4 0 1.4 1.6 1.4 2.6s0 2.7-1.4 2.7c-.5 0-.9-.2-1.2-.7v.6h-1.3v-7.2zm2.5 4.7c0-1 0-1.7-.6-1.7s-.6.7-.6 1.7c0 1.3.1 1.8.6 1.8s.6-.6.6-1.8zm3.8.2c0 .6 0 1.5.6 1.5.5 0 .6-.5.6-.9h1.4c0 .5-.2 1-.5 1.3-.3.3-.8.5-1.5.5-1.8 0-2.1-1.1-2.1-2.7 0-1.4.2-2.6 2.1-2.6 1.9 0 2.1 1.2 2.1 2.8h-2.7zm1.2-.8c0-.5 0-1.2-.6-1.2s-.6.8-.6 1.2h1.2zm6.2-4.1v1.1h-1.4v-1.1h1.4zm0 7.2h-1.4v-5h1.4v5zm2.7-4.5c.2-.2.3-.4.5-.5.2-.1.4-.1.7-.1.7 0 1.3.4 1.3 1.1v4h-1.4v-3.5c0-.4-.1-.8-.5-.8s-.5.3-.5.8v3.5h-1.4v-5h1.4v.5zm8.3 1.3c0-.8-.2-1-.6-1-.6 0-.6.5-.6 1.6 0 1.5.1 1.9.6 1.9.4 0 .6-.4.6-1.1H94c0 1.4-.7 2-2.1 2-1.8 0-2.1-1.1-2.1-2.7 0-1.4.2-2.6 2.1-2.6 1.3 0 2 .6 2 1.9h-1.4zm2.4.6c0-1.4.2-2.6 2.1-2.6s2 1.3 2 2.6c0 1.6-.2 2.7-2.1 2.7-1.8 0-2-1.1-2-2.7zm2.7 0c0-1-.1-1.6-.6-1.6s-.6.5-.6 1.6c0 1.5.1 1.9.6 1.9.4-.1.6-.4.6-1.9zm3.8-1.9c.2-.2.3-.4.5-.5.2-.1.4-.1.7-.1.7 0 1.3.4 1.3 1.1v4h-1.4v-3.5c0-.4-.1-.8-.5-.8s-.5.3-.5.8v3.5H100v-5h1.4v.5zm3-.5h.6v-.8l1.4-.6v1.4h.7v.9h-.7v2.7c0 .4 0 .6.4.6h.2v.9h-.7c-1.2 0-1.4-.8-1.4-1.1v-3.1h-.6v-.9zm4.7 0v.6c.3-.6.7-.8 1.3-.8V45c-1.2-.1-1.3.6-1.3 1.1v2.7h-1.4v-5h1.4zm1.9 2.4c0-1.4.2-2.6 2.1-2.6s2.1 1.2 2.1 2.6c0 1.6-.2 2.7-2.1 2.7s-2.1-1.1-2.1-2.7zm2.7 0c0-1-.1-1.6-.6-1.6s-.6.5-.6 1.6c0 1.5.1 1.9.6 1.9.4-.1.6-.4.6-1.9zm3.9-4.6v7.2h-1.4v-7.2h1.4zm1.4 5.9h1.3l-.8 2.3h-1l.5-2.3zm3.8-3.7h1.4l.7 3.8.7-3.8h1.4l-1.4 5h-1.5l-1.3-5zm4.8 2.4c0-1.4.2-2.6 2.1-2.6 1.9 0 2.1 1.2 2.1 2.6 0 1.6-.2 2.7-2.1 2.7-1.8 0-2.1-1.1-2.1-2.7zm2.7 0c0-1-.1-1.6-.6-1.6s-.6.5-.6 1.6c0 1.5.1 1.9.6 1.9.5-.1.6-.4.6-1.9zm4-4.6v7.2h-1.4v-7.2h1.4zm3.7 6.7c-.2.2-.3.4-.5.5-.2.1-.4.1-.7.1-.7 0-1.3-.4-1.3-1.1v-4h1.4v3.5c0 .4.1.8.5.8s.5-.3.5-.8v-3.5h1.4v5H138v-.5zm3.9-4c.2-.2.3-.4.5-.5.2-.1.4-.1.7-.1.7 0 1.3.4 1.3 1.1v4H143v-3.5c0-.4-.1-.8-.5-.8s-.5.3-.5.8v3.5h-1.4v-5h1.4v.5zm3.1-.5h.6v-.8l1.4-.6v1.4h.7v.9h-.7v2.7c0 .4 0 .6.4.6h.2v.9h-.7c-1.2 0-1.4-.8-1.4-1.1v-3.1h-.5v-.9zm4.6 2.7c0 .6 0 1.5.6 1.5.5 0 .6-.5.6-.9h1.4c0 .5-.2 1-.5 1.3-.3.3-.8.5-1.5.5-1.8 0-2.1-1.1-2.1-2.7 0-1.4.2-2.6 2.1-2.6 1.9 0 2.1 1.2 2.1 2.8h-2.7zm1.3-.8c0-.5 0-1.2-.6-1.2s-.6.8-.6 1.2h1.2zm3.7.8c0 .6 0 1.5.6 1.5.5 0 .6-.5.6-.9h1.4c0 .5-.2 1-.5 1.3-.3.3-.8.5-1.5.5-1.8 0-2.1-1.1-2.1-2.7 0-1.4.2-2.6 2.1-2.6 1.9 0 2.1 1.2 2.1 2.8h-2.7zm1.3-.8c0-.5 0-1.2-.6-1.2s-.6.8-.6 1.2h1.2zm3.7-1.9v.6c.3-.6.7-.8 1.3-.8V45c-1.2-.1-1.3.6-1.3 1.1v2.7h-1.4v-5h1.4zm3.7 0h.6v-.8l1.4-.6v1.4h.7v.9h-.7v2.7c0 .4 0 .6.4.6h.2v.9h-.7c-1.2 0-1.4-.8-1.4-1.1v-3.1h-.6v-.9zm3.2 2.4c0-1.4.2-2.6 2.1-2.6s2.1 1.2 2.1 2.6c0 1.6-.2 2.7-2.1 2.7-1.8 0-2.1-1.1-2.1-2.7zm2.7 0c0-1-.1-1.6-.6-1.6s-.6.5-.6 1.6c0 1.5.1 1.9.6 1.9.5-.1.6-.4.6-1.9zm4.7-4.6h1.4v2.6c.3-.4.6-.6 1.1-.6 1.4 0 1.4 1.6 1.4 2.6s0 2.7-1.4 2.7c-.5 0-.9-.2-1.2-.7v.6h-1.3v-7.2zm2.5 4.7c0-1 0-1.7-.6-1.7s-.6.7-.6 1.7c0 1.3.1 1.8.6 1.8s.6-.6.6-1.8zm3.8.2c0 .6 0 1.5.6 1.5.5 0 .6-.5.6-.9h1.4c0 .5-.2 1-.5 1.3-.3.3-.8.5-1.5.5-1.8 0-2.1-1.1-2.1-2.7 0-1.4.2-2.6 2.1-2.6 1.9 0 2.1 1.2 2.1 2.8h-2.7zm1.2-.8c0-.5 0-1.2-.6-1.2s-.6.8-.6 1.2h1.2zm4.1-1.9h.6v-.8l1.4-.6v1.4h.7v.9h-.7v2.7c0 .4 0 .6.4.6h.2v.9h-.7c-1.2 0-1.4-.8-1.4-1.1v-3.1h-.6v-.9zm5.8 5v-3.5c0-.4-.1-.8-.5-.8s-.5.3-.5.8v3.5h-1.4v-7.2h1.4v2.7c.1-.2.3-.4.5-.5.2-.1.4-.1.7-.1.7 0 1.3.4 1.3 1.1v4h-1.5zm3.9-2.3c0 .6 0 1.5.6 1.5.5 0 .6-.5.6-.9h1.4c0 .5-.2 1-.5 1.3-.3.3-.8.5-1.5.5-1.8 0-2.1-1.1-2.1-2.7 0-1.4.2-2.6 2.1-2.6 1.9 0 2.1 1.2 2.1 2.8h-2.7zm1.2-.8c0-.5 0-1.2-.6-1.2s-.6.8-.6 1.2h1.2zM15 55.9h.6v-.8l1.4-.6v1.4h.7v.9H17v2.7c0 .4 0 .6.4.6h.2v.9h-.7c-1.2 0-1.4-.8-1.4-1.1v-3.1H15v-.9zm4.6 2.7c0 .6 0 1.5.6 1.5.5 0 .6-.5.6-.9h1.4c0 .5-.2 1-.5 1.3-.3.3-.8.5-1.5.5-1.8 0-2.1-1.1-2.1-2.7 0-1.4.2-2.6 2.1-2.6 1.9 0 2.1 1.2 2.1 2.8h-2.7zm1.3-.8c0-.5 0-1.2-.6-1.2s-.6.8-.6 1.2h1.2zm6.2 2.2c0 .3 0 .6.1.9h-1.3l-.1-.7c-.3.5-.7.8-1.3.8-1 0-1.3-.7-1.3-1.6 0-1.7 1.3-1.7 2.6-1.7v-.4c0-.4-.1-.7-.6-.7s-.5.4-.5.8h-1.4c0-.6.2-1 .5-1.2.3-.2.8-.3 1.3-.3 1.8 0 2 .8 2 1.7V60zm-2.6-.6c0 .4.1.8.5.8.8 0 .7-1.1.7-1.7-.6 0-1.2 0-1.2.9zm5.1-3c.3-.5.7-.6 1.2-.6s.9.2 1.1.6c.3-.4.7-.6 1.3-.6.7 0 1.3.4 1.3 1.1v4h-1.4v-3.5c0-.4-.1-.8-.5-.8s-.5.3-.5.8v3.5h-1.4v-3.5c0-.4-.1-.8-.5-.8s-.5.3-.5.8v3.5h-1.4v-5h1.4v.5zm9.7-2.7v7.2h-1.4v-7.2h1.4zm2.5 4.9c0 .6 0 1.5.6 1.5.5 0 .6-.5.6-.9h1.4c0 .5-.2 1-.5 1.3-.3.3-.8.5-1.5.5-1.8 0-2.1-1.1-2.1-2.7 0-1.4.2-2.6 2.1-2.6 1.9 0 2.1 1.2 2.1 2.8h-2.7zm1.3-.8c0-.5 0-1.2-.6-1.2s-.6.8-.6 1.2h1.2zm6.3 2.2c0 .3 0 .6.1.9h-1.3l-.1-.7c-.3.5-.7.8-1.3.8-1 0-1.3-.7-1.3-1.6 0-1.7 1.3-1.7 2.6-1.7v-.4c0-.4-.1-.7-.6-.7s-.5.4-.5.8h-1.4c0-.6.2-1 .5-1.2.3-.2.8-.3 1.3-.3 1.8 0 2 .8 2 1.7V60zm-2.6-.6c0 .4.1.8.5.8.8 0 .7-1.1.7-1.7-.7 0-1.2 0-1.2.9zm6.3 1.5v-.6c-.3.5-.6.7-1.2.7-1.5 0-1.4-1.6-1.4-2.7 0-1 0-2.6 1.4-2.6.5 0 .9.2 1.1.6v-2.6h1.4v7.2h-1.3zm-.1-2.5c0-1 0-1.7-.6-1.7s-.6.7-.6 1.7c0 1.3.1 1.8.6 1.8s.6-.6.6-1.8zm3.8.2c0 .6 0 1.5.6 1.5.5 0 .6-.5.6-.9h1.4c0 .5-.2 1-.5 1.3-.3.3-.8.5-1.5.5-1.8 0-2.1-1.1-2.1-2.7 0-1.4.2-2.6 2.1-2.6 1.9 0 2.1 1.2 2.1 2.8h-2.7zm1.3-.8c0-.5 0-1.2-.6-1.2s-.6.8-.6 1.2h1.2zm3.8-1.9v.6c.3-.6.7-.8 1.3-.8V57c-1.2-.1-1.3.6-1.3 1.1v2.7h-1.4v-5h1.4zm6.4-1.3c-.6 0-.7.2-.7.7v.6h.7v.9h-.7V61h-1.4v-4.2h-.6v-.9h.6c0-1.4-.1-2.2 1.6-2.2h.5v.9zm.4 3.7c0-1.4.2-2.6 2.1-2.6s2.1 1.2 2.1 2.6c0 1.6-.2 2.7-2.1 2.7-1.8 0-2.1-1.1-2.1-2.7zm2.8 0c0-1-.1-1.6-.6-1.6s-.6.5-.6 1.6c0 1.5.1 1.9.6 1.9.4-.1.6-.4.6-1.9zm3.7-2.4v.6c.3-.6.7-.8 1.3-.8V57c-1.2-.1-1.3.6-1.3 1.1v2.7h-1.4v-5h1.4zm5.3 3.4c0 .2 0 .5.1.6.1.2.2.2.5.2s.5-.2.5-.5c0-1.1-2.5-.8-2.5-2.4 0-1.1 1.1-1.4 2-1.4 1 0 1.8.5 1.7 1.5h-1.4c0-.4 0-.6-.1-.7-.1-.1-.2-.1-.4-.1-.3 0-.5.2-.5.5 0 .8 2.5.8 2.5 2.4 0 .9-.7 1.5-1.9 1.5s-2-.3-2-1.7h1.5zm2.8-3.4h.6v-.8l1.4-.6v1.4h.7v.9h-.7v2.7c0 .4 0 .6.4.6h.2v.9h-.7c-1.2 0-1.4-.8-1.4-1.1v-3.1h-.6v-.9zm5.8 4.5c-.2.2-.3.4-.5.5-.2.1-.4.1-.7.1-.7 0-1.3-.4-1.3-1.1v-4H88v3.5c0 .4.1.8.5.8s.5-.3.5-.8v-3.5h1.4v5h-1.5v-.5zm5.1.5v-.6c-.3.5-.6.7-1.2.7-1.5 0-1.4-1.6-1.4-2.7 0-1 0-2.6 1.4-2.6.5 0 .9.2 1.1.6v-2.6h1.4v7.2h-1.3zm-.1-2.5c0-1 0-1.7-.6-1.7s-.6.7-.6 1.7c0 1.3.1 1.8.6 1.8s.6-.6.6-1.8zm3.4 2.6l-1.4-5.1h1.4l.7 3.5.8-3.5h1.4l-1.9 7H97l.5-1.9zm9.7-5.1v5.3c0 .3 0 1.7-1.9 1.7-1 0-1.9-.3-2-1.5h1.4c0 .2 0 .4.1.5.1.1.2.2.5.2s.5-.3.5-.8v-1c-.2.4-.6.6-1.1.6-1.5 0-1.5-1.4-1.5-2.6 0-1.1 0-2.5 1.5-2.5.5 0 .9.2 1.1.7v-.6h1.4zm-2 4.1c.5 0 .6-.5.6-1.6s0-1.7-.6-1.7c-.5 0-.6.4-.6 1.9 0 .4-.1 1.4.6 1.4zm4.4-4.1v.6c.3-.6.7-.8 1.3-.8V57c-1.2-.1-1.3.6-1.3 1.1v2.7h-1.4v-5h1.4zm1.9 2.4c0-1.4.2-2.6 2.1-2.6s2.1 1.2 2.1 2.6c0 1.6-.2 2.7-2.1 2.7s-2.1-1.1-2.1-2.7zm2.7 0c0-1-.1-1.6-.6-1.6s-.6.5-.6 1.6c0 1.5.1 1.9.6 1.9.5-.1.6-.4.6-1.9zm4.9 2.1c-.2.2-.3.4-.5.5-.2.1-.4.1-.7.1-.7 0-1.3-.4-1.3-1.1v-4h1.4v3.5c0 .4.1.8.5.8s.5-.3.5-.8v-3.5h1.4v5h-1.5v-.5zm3.9-4.5v.6c.3-.5.6-.7 1.2-.7 1.5 0 1.4 1.6 1.4 2.7 0 1 0 2.6-1.4 2.6-.5 0-.9-.1-1.1-.6v2.6h-1.4v-7.2h1.3zm1.2 2.5c0-1 0-1.7-.6-1.7s-.6.7-.6 1.7c0 1.3.1 1.8.6 1.8s.6-.6.6-1.8zm3.5.9c0 .2 0 .5.1.6.1.2.2.2.5.2s.5-.2.5-.5c0-1.1-2.5-.8-2.5-2.4 0-1.1 1.1-1.4 2-1.4 1 0 1.8.5 1.7 1.5h-1.4c0-.4 0-.6-.1-.7-.1-.1-.2-.1-.4-.1-.3 0-.5.2-.5.5 0 .8 2.5.8 2.5 2.4 0 .9-.7 1.5-1.9 1.5s-2-.3-2-1.7h1.5zm9.4.7c0 .3 0 .6.1.9h-1.3l-.1-.7c-.3.5-.7.8-1.3.8-1 0-1.3-.7-1.3-1.6 0-1.7 1.3-1.7 2.6-1.7v-.4c0-.4-.1-.7-.6-.7s-.5.4-.5.8h-1.4c0-.6.2-1 .5-1.2.3-.2.8-.3 1.3-.3 1.8 0 2 .8 2 1.7V60zm-2.6-.6c0 .4.1.8.5.8.8 0 .7-1.1.7-1.7-.7 0-1.2 0-1.2.9zm5.2-3c.2-.2.3-.4.5-.5.2-.1.4-.1.7-.1.7 0 1.3.4 1.3 1.1v4h-1.4v-3.5c0-.4-.1-.8-.5-.8s-.5.3-.5.8v3.5h-1.4v-5h1.4v.5zm6.1 4.5v-.6c-.3.5-.6.7-1.2.7-1.5 0-1.4-1.6-1.4-2.7 0-1 0-2.6 1.4-2.6.5 0 .9.2 1.1.6v-2.6h1.4v7.2h-1.3zm-.1-2.5c0-1 0-1.7-.6-1.7s-.6.7-.6 1.7c0 1.3.1 1.8.6 1.8s.6-.6.6-1.8zm6.1-2.5v.6c.3-.5.6-.7 1.2-.7 1.5 0 1.4 1.6 1.4 2.7 0 1 0 2.6-1.4 2.6-.5 0-.9-.1-1.1-.6v2.6h-1.4v-7.2h1.3zm1.3 2.5c0-1 0-1.7-.6-1.7s-.6.7-.6 1.7c0 1.3.1 1.8.6 1.8s.6-.6.6-1.8zm3.7-2.5v.6c.3-.6.7-.8 1.3-.8V57c-1.2-.1-1.3.6-1.3 1.1v2.7h-1.4v-5h1.4zm1.9 2.4c0-1.4.2-2.6 2.1-2.6s2.1 1.2 2.1 2.6c0 1.6-.2 2.7-2.1 2.7-1.8 0-2.1-1.1-2.1-2.7zm2.7 0c0-1-.1-1.6-.6-1.6s-.6.5-.6 1.6c0 1.5.1 1.9.6 1.9.5-.1.6-.4.6-1.9zm4-2.4v5.5c0 1-.4 1.4-1.3 1.4h-.5v-.9c.2 0 .4 0 .4-.4v-5.6h1.4zm0-2.2v1.1H164v-1.1h1.4zm2.5 4.9c0 .6 0 1.5.6 1.5.5 0 .6-.5.6-.9h1.4c0 .5-.2 1-.5 1.3-.3.3-.8.5-1.5.5-1.8 0-2.1-1.1-2.1-2.7 0-1.4.2-2.6 2.1-2.6 1.9 0 2.1 1.2 2.1 2.8h-2.7zm1.3-.8c0-.5 0-1.2-.6-1.2s-.6.8-.6 1.2h1.2zm5-.1c0-.8-.2-1-.6-1-.6 0-.6.5-.6 1.6 0 1.5.1 1.9.6 1.9.4 0 .6-.4.6-1.1h1.4c0 1.4-.7 2-2.1 2-1.8 0-2.1-1.1-2.1-2.7 0-1.4.2-2.6 2.1-2.6 1.3 0 2 .6 2 1.9h-1.3zm3.5 1.6c0 .2 0 .5.1.6.1.2.2.2.5.2s.5-.2.5-.5c0-1.1-2.5-.8-2.5-2.4 0-1.1 1.1-1.4 2-1.4 1 0 1.8.5 1.7 1.5h-1.4c0-.4 0-.6-.1-.7-.1-.1-.2-.1-.4-.1-.3 0-.5.2-.5.5 0 .8 2.5.8 2.5 2.4 0 .9-.7 1.5-1.9 1.5s-2-.3-2-1.7h1.5z" class="st3"/>
  <path d="M186.1 63.5h154.1" class="st4"/>
  <g id="folder">
    <path d="M18.4 76h30.2c.8 0 1.5.6 1.5 1.5v9.4H17.2v-9.6c0-.7.5-1.3 1.2-1.3z" class="st3"/>
    <path d="M48.6 84H18.7v-5c0-.5.4-1 1-1h27.9c.6 0 1 .5 1 1v5z" class="st5"/>
    <path d="M15.6 84c-.1-.9.6-1.6 1.5-1.6 3.2.1 9.6-.3 10.9-.7 1.4-.5 4.3-2.5 6.6-2.5h15.8c1.1 0 1.9.9 1.9 2l-1.4 19.6c-.1.9-.8 1.7-1.8 1.7H18.4c-.8 0-1.5-.6-1.6-1.4L15.6 84z" class="st3"/>
  </g>
  <path d="M215.4 91c-1.9 0-2.2-1.1-2.1-2.3h1.5c0 .7 0 1.3.9 1.3.5 0 .8-.3.8-.8 0-1.3-3-1.4-3-3.5 0-1.1.5-2 2.4-2 1.5 0 2.2.7 2.1 2.2h-1.5c0-.5-.1-1.1-.7-1.1-.5 0-.8.3-.8.8 0 1.4 3 1.2 3 3.5-.1 1.7-1.5 1.9-2.6 1.9zm5-7.3v1.1H219v-1.1h1.4zm0 7.2H219v-5h1.4v5zm2.7-4.6c.2-.2.3-.4.5-.5.2-.1.4-.1.7-.1.7 0 1.3.4 1.3 1.1v4h-1.4v-3.5c0-.4-.1-.8-.5-.8s-.5.3-.5.8v3.5h-1.4v-5h1.4v.5zm6.1 1.3c0-.8-.2-1-.6-1-.6 0-.6.5-.6 1.6 0 1.5.1 1.9.6 1.9.4 0 .6-.4.6-1.1h1.4c0 1.4-.7 2-2.1 2-1.8 0-2.1-1.1-2.1-2.7 0-1.4.2-2.6 2.1-2.6 1.3 0 2 .6 2 1.9h-1.3zm3.8 1c0 .6 0 1.5.6 1.5.5 0 .6-.5.6-.9h1.4c0 .5-.2 1-.5 1.3-.3.3-.8.5-1.5.5-1.8 0-2.1-1.1-2.1-2.7 0-1.4.2-2.6 2.1-2.6 1.9 0 2.1 1.2 2.1 2.8H233zm1.3-.8c0-.5 0-1.2-.6-1.2s-.6.8-.6 1.2h1.2zm5.5 3.1l-1.4-5.1h1.4l.7 3.5.8-3.5h1.4l-1.9 7h-1.5l.5-1.9zm3.4-2.6c0-1.4.2-2.6 2.1-2.6s2.1 1.2 2.1 2.6c0 1.6-.2 2.7-2.1 2.7-1.8 0-2.1-1.1-2.1-2.7zm2.7-.1c0-1-.1-1.6-.6-1.6s-.6.5-.6 1.6c0 1.5.1 1.9.6 1.9s.6-.4.6-1.9zm4.9 2.2c-.2.2-.3.4-.5.5-.2.1-.4.1-.7.1-.7 0-1.3-.4-1.3-1.1v-4h1.4v3.5c0 .4.1.8.5.8s.5-.3.5-.8v-3.5h1.4v5h-1.5v-.5zm8.6-.5c0 .3 0 .6.1.9h-1.3l-.1-.7c-.3.5-.7.8-1.3.8-1 0-1.3-.7-1.3-1.6 0-1.7 1.3-1.7 2.6-1.7v-.4c0-.4-.1-.7-.6-.7s-.5.4-.5.8h-1.4c0-.6.2-1 .5-1.2.3-.2.8-.3 1.3-.3 1.8 0 2 .8 2 1.7v2.4zm-2.6-.6c0 .4.1.8.5.8.8 0 .7-1.1.7-1.7-.7.1-1.2 0-1.2.9zm5.1-3.5v.6c.3-.6.7-.8 1.3-.8V87c-1.2-.1-1.3.6-1.3 1.1v2.7h-1.4v-5h1.4zm3.3 2.8c0 .6 0 1.5.6 1.5.5 0 .6-.5.6-.9h1.4c0 .5-.2 1-.5 1.3-.3.3-.8.5-1.5.5-1.8 0-2.1-1.1-2.1-2.7 0-1.4.2-2.6 2.1-2.6 1.9 0 2.1 1.2 2.1 2.8h-2.7zm1.3-.8c0-.5 0-1.2-.6-1.2s-.6.8-.6 1.2h1.2zm8.5-2v5.3c0 .3 0 1.7-1.9 1.7-1 0-1.9-.3-2-1.5h1.4c0 .2 0 .4.1.5.1.1.2.2.5.2s.5-.3.5-.8v-1c-.2.4-.6.6-1.1.6-1.5 0-1.5-1.4-1.5-2.6 0-1.1 0-2.5 1.5-2.5.5 0 .9.2 1.1.7v-.6h1.4zm-2 4.1c.5 0 .6-.5.6-1.6s0-1.7-.6-1.7c-.5 0-.6.4-.6 1.9 0 .5-.1 1.4.6 1.4zm3-1.6c0-1.4.2-2.6 2.1-2.6s2.1 1.2 2.1 2.6c0 1.6-.2 2.7-2.1 2.7s-2.1-1.1-2.1-2.7zm2.7-.1c0-1-.1-1.6-.6-1.6s-.6.5-.6 1.6c0 1.5.1 1.9.6 1.9s.6-.4.6-1.9zm2.3.1c0-1.4.2-2.6 2.1-2.6s2.1 1.2 2.1 2.6c0 1.6-.2 2.7-2.1 2.7s-2.1-1.1-2.1-2.7zm2.7-.1c0-1-.1-1.6-.6-1.6s-.6.5-.6 1.6c0 1.5.1 1.9.6 1.9s.6-.4.6-1.9zm4.9 2.7v-.6c-.3.5-.6.7-1.2.7-1.5 0-1.4-1.6-1.4-2.7 0-1 0-2.6 1.4-2.6.5 0 .9.2 1.1.6v-2.6h1.4v7.2h-1.3zm0-2.6c0-1 0-1.7-.6-1.7s-.6.7-.6 1.7c0 1.3.1 1.8.6 1.8s.6-.5.6-1.8zm8.6 1.6c0 .3 0 .6.1.9H296l-.1-.7c-.3.5-.7.8-1.3.8-1 0-1.3-.7-1.3-1.6 0-1.7 1.3-1.7 2.6-1.7v-.4c0-.4-.1-.7-.6-.7s-.5.4-.5.8h-1.4c0-.6.2-1 .5-1.2.3-.2.8-.3 1.3-.3 1.8 0 2 .8 2 1.7v2.4zm-2.6-.6c0 .4.1.8.5.8.8 0 .7-1.1.7-1.7-.7.1-1.2 0-1.2.9zm3.2-3.5h.6V85l1.4-.6v1.4h.7v.9h-.7v2.7c0 .4 0 .6.4.6h.2v.9h-.7c-1.2 0-1.4-.8-1.4-1.1v-3.1h-.6v-.9zm5.4 2.5c0-1.4.2-2.6 2.1-2.6s2.1 1.2 2.1 2.6c0 1.6-.2 2.7-2.1 2.7s-2.1-1.1-2.1-2.7zm2.7-.1c0-1-.1-1.6-.6-1.6s-.6.5-.6 1.6c0 1.5.1 1.9.6 1.9s.6-.4.6-1.9zm3.8-2.4v.6c.3-.6.7-.8 1.3-.8V87c-1.2-.1-1.3.6-1.3 1.1v2.7h-1.4v-5h1.4zm5.8 0v5.3c0 .3 0 1.7-1.9 1.7-1 0-1.9-.3-2-1.5h1.4c0 .2 0 .4.1.5.1.1.2.2.5.2s.5-.3.5-.8v-1c-.2.4-.6.6-1.1.6-1.5 0-1.5-1.4-1.5-2.6 0-1.1 0-2.5 1.5-2.5.5 0 .9.2 1.1.7v-.6h1.4zm-2 4.1c.5 0 .6-.5.6-1.6s0-1.7-.6-1.7c-.5 0-.6.4-.6 1.9 0 .5-.1 1.4.6 1.4zm7 0c0 .3 0 .6.1.9h-1.3l-.1-.7c-.3.5-.7.8-1.3.8-1 0-1.3-.7-1.3-1.6 0-1.7 1.3-1.7 2.6-1.7v-.4c0-.4-.1-.7-.6-.7s-.5.4-.5.8h-1.4c0-.6.2-1 .5-1.2.3-.2.8-.3 1.3-.3 1.8 0 2 .8 2 1.7v2.4zm-2.6-.6c0 .4.1.8.5.8.8 0 .7-1.1.7-1.7-.7.1-1.2 0-1.2.9zm5.2-3c.2-.2.3-.4.5-.5.2-.1.4-.1.7-.1.7 0 1.3.4 1.3 1.1v4h-1.4v-3.5c0-.4-.1-.8-.5-.8s-.5.3-.5.8v3.5h-1.4v-5h1.4v.5zm5.1-2.6v1.1h-1.4v-1.1h1.4zm0 7.2h-1.4v-5h1.4v5zm4.3-4.1l-2 3.1h2v.9h-3.4v-1l2-3.1h-1.9v-.9h3.3v1zm2.4-3.1v1.1h-1.4v-1.1h1.4zm0 7.2h-1.4v-5h1.4v5zm2.6-4.6c.2-.2.3-.4.5-.5.2-.1.4-.1.7-.1.7 0 1.3.4 1.3 1.1v4h-1.4v-3.5c0-.4-.1-.8-.5-.8s-.5.3-.5.8v3.5h-1.4v-5h1.4v.5zm7.5-.5v5.3c0 .3 0 1.7-1.9 1.7-1 0-1.9-.3-2-1.5h1.4c0 .2 0 .4.1.5.1.1.2.2.5.2s.5-.3.5-.8v-1c-.2.4-.6.6-1.1.6-1.5 0-1.5-1.4-1.5-2.6 0-1.1 0-2.5 1.5-2.5.5 0 .9.2 1.1.7v-.6h1.4zm-2 4.1c.5 0 .6-.5.6-1.6s0-1.7-.6-1.7c-.5 0-.6.4-.6 1.9 0 .5-.1 1.4.6 1.4zm4.8-4.1h.6V85l1.4-.6v1.4h.7v.9h-.7v2.7c0 .4 0 .6.4.6h.2v.9h-.7c-1.2 0-1.4-.8-1.4-1.1v-3.1h-.6v-.9zm5.8 5.1v-3.5c0-.4-.1-.8-.5-.8s-.5.3-.5.8v3.5h-1.4v-7.2h1.4v2.7c.1-.2.3-.4.5-.5.2-.1.4-.1.7-.1.7 0 1.3.4 1.3 1.1v4h-1.5zm4-7.2v1.1h-1.4v-1.1h1.4zm0 7.2h-1.4v-5h1.4v5zm2.7-4.6c.2-.2.3-.4.5-.5.2-.1.4-.1.7-.1.7 0 1.3.4 1.3 1.1v4h-1.4v-3.5c0-.4-.1-.8-.5-.8s-.5.3-.5.8v3.5H359v-5h1.4v.5zm7.4-.5v5.3c0 .3 0 1.7-1.9 1.7-1 0-1.9-.3-2-1.5h1.4c0 .2 0 .4.1.5.1.1.2.2.5.2s.5-.3.5-.8v-1c-.2.4-.6.6-1.1.6-1.5 0-1.5-1.4-1.5-2.6 0-1.1 0-2.5 1.5-2.5.5 0 .9.2 1.1.7v-.6h1.4zm-1.9 4.1c.5 0 .6-.5.6-1.6s0-1.7-.6-1.7c-.5 0-.6.4-.6 1.9-.1.5-.1 1.4.6 1.4zm4.2-.6c0 .2 0 .5.1.6.1.2.2.2.5.2s.5-.2.5-.5c0-1.1-2.5-.8-2.5-2.4 0-1.1 1.1-1.4 2-1.4 1 0 1.8.5 1.7 1.5H371c0-.4 0-.6-.1-.7-.1-.1-.2-.1-.4-.1-.3 0-.5.2-.5.5 0 .8 2.5.8 2.5 2.4 0 .9-.7 1.5-1.9 1.5s-2-.3-2-1.7h1.4zm3.4.3h1.3l-.8 2.3h-1l.5-2.3zm-160.1 6.1h1.4v2.6c.3-.4.6-.6 1.1-.6 1.4 0 1.4 1.6 1.4 2.6s0 2.7-1.4 2.7c-.5 0-.9-.2-1.2-.7v.6h-1.3v-7.2zm2.6 4.6c0-1 0-1.7-.6-1.7s-.6.7-.6 1.7c0 1.3.1 1.8.6 1.8s.6-.5.6-1.8zm3.7.3c0 .6 0 1.5.6 1.5.5 0 .6-.5.6-.9h1.4c0 .5-.2 1-.5 1.3-.3.3-.8.5-1.5.5-1.8 0-2.1-1.1-2.1-2.7 0-1.4.2-2.6 2.1-2.6 1.9 0 2.1 1.2 2.1 2.8h-2.7zm1.3-.8c0-.5 0-1.2-.6-1.2s-.6.8-.6 1.2h1.2zm5.8 1.5c0 .2 0 .5.1.6.1.2.2.2.5.2s.5-.2.5-.5c0-1.1-2.5-.8-2.5-2.4 0-1.1 1.1-1.4 2-1.4 1 0 1.8.5 1.7 1.5h-1.4c0-.4 0-.6-.1-.7-.1-.1-.2-.1-.4-.1-.3 0-.5.2-.5.5 0 .8 2.5.8 2.5 2.4 0 .9-.7 1.5-1.9 1.5s-2-.3-2-1.7h1.5zm5.8 1.1c-.2.2-.3.4-.5.5-.2.1-.4.1-.7.1-.7 0-1.3-.4-1.3-1.1v-4h1.4v3.5c0 .4.1.8.5.8s.5-.3.5-.8v-3.5h1.4v5h-1.5v-.5zm3.8-4.6v.6c.3-.6.7-.8 1.3-.8V99c-1.2-.1-1.3.6-1.3 1.1v2.7H235v-5h1.3zm3.3 2.8c0 .6 0 1.5.6 1.5.5 0 .6-.5.6-.9h1.4c0 .5-.2 1-.5 1.3-.3.3-.8.5-1.5.5-1.8 0-2.1-1.1-2.1-2.7 0-1.4.2-2.6 2.1-2.6 1.9 0 2.1 1.2 2.1 2.8h-2.7zm1.3-.8c0-.5 0-1.2-.6-1.2s-.6.8-.6 1.2h1.2zm4.1-2h.6V97l1.4-.6v1.4h.7v.9h-.7v2.7c0 .4 0 .6.4.6h.2v.9h-.7c-1.2 0-1.4-.8-1.4-1.1v-3.1h-.5v-.9zm3.2 2.5c0-1.4.2-2.6 2.1-2.6s2.1 1.2 2.1 2.6c0 1.6-.2 2.7-2.1 2.7s-2.1-1.1-2.1-2.7zm2.7-.1c0-1-.1-1.6-.6-1.6s-.6.5-.6 1.6c0 1.5.1 1.9.6 1.9s.6-.4.6-1.9zm4.5.1c0-1.4.2-2.6 2.1-2.6 1.9 0 2.1 1.2 2.1 2.6 0 1.6-.2 2.7-2.1 2.7-1.8 0-2.1-1.1-2.1-2.7zm2.7-.1c0-1-.1-1.6-.6-1.6s-.6.5-.6 1.6c0 1.5.1 1.9.6 1.9s.6-.4.6-1.9zm3.8-2.4v.6c.3-.6.7-.8 1.3-.8V99c-1.2-.1-1.3.6-1.3 1.1v2.7h-1.4v-5h1.4zm5.8 0v5.3c0 .3 0 1.7-1.9 1.7-1 0-1.9-.3-2-1.5h1.4c0 .2 0 .4.1.5.1.1.2.2.5.2s.5-.3.5-.8v-1c-.2.4-.6.6-1.1.6-1.5 0-1.5-1.4-1.5-2.6 0-1.1 0-2.5 1.5-2.5.5 0 .9.2 1.1.7v-.6h1.4zm-2 4.1c.5 0 .6-.5.6-1.6s0-1.7-.6-1.7c-.5 0-.6.4-.6 1.9 0 .5 0 1.4.6 1.4zm7 0c0 .3 0 .6.1.9h-1.3l-.1-.7c-.3.5-.7.8-1.3.8-1 0-1.3-.7-1.3-1.6 0-1.7 1.3-1.7 2.6-1.7v-.4c0-.4-.1-.7-.6-.7s-.5.4-.5.8h-1.4c0-.6.2-1 .5-1.2.3-.2.8-.3 1.3-.3 1.8 0 2 .8 2 1.7v2.4zm-2.6-.6c0 .4.1.8.5.8.8 0 .7-1.1.7-1.7-.7.1-1.2 0-1.2.9zm6.8-2.5l-2 3.1h2v.9h-3.4v-1l2-3.1h-1.9v-.9h3.3v1zm2.3-.5c.2-.2.3-.4.5-.5.2-.1.4-.1.7-.1.7 0 1.3.4 1.3 1.1v4h-1.4v-3.5c0-.4-.1-.8-.5-.8s-.5.3-.5.8v3.5h-1.4v-5h1.4v.5zm5.1-2.6v1.1h-1.4v-1.1h1.4zm0 7.2h-1.4v-5h1.4v5zm4.3-4.1l-2 3.1h2v.9h-3.4v-1l2-3.1h-1.9v-.9h3.3v1zm2.1 1.8c0 .6 0 1.5.6 1.5.5 0 .6-.5.6-.9h1.4c0 .5-.2 1-.5 1.3-.3.3-.8.5-1.5.5-1.8 0-2.1-1.1-2.1-2.7 0-1.4.2-2.6 2.1-2.6 1.9 0 2.1 1.2 2.1 2.8h-2.7zm1.3-.8c0-.5 0-1.2-.6-1.2s-.6.8-.6 1.2h1.2zm5.6 3.1l-1.4-5.1h1.4l.7 3.5.8-3.5h1.4l-1.9 7H297l.6-1.9zm3.4-2.6c0-1.4.2-2.6 2.1-2.6s2.1 1.2 2.1 2.6c0 1.6-.2 2.7-2.1 2.7s-2.1-1.1-2.1-2.7zm2.7-.1c0-1-.1-1.6-.6-1.6s-.6.5-.6 1.6c0 1.5.1 1.9.6 1.9s.6-.4.6-1.9zm4.9 2.2c-.2.2-.3.4-.5.5-.2.1-.4.1-.7.1-.7 0-1.3-.4-1.3-1.1v-4h1.4v3.5c0 .4.1.8.5.8s.5-.3.5-.8v-3.5h1.4v5h-1.5v-.5zm3.8-4.6v.6c.3-.6.7-.8 1.3-.8V99c-1.2-.1-1.3.6-1.3 1.1v2.7H311v-5h1.4zm5.7.5c.2-.2.3-.4.5-.5.2-.1.4-.1.7-.1.7 0 1.3.4 1.3 1.1v4h-1.4v-3.5c0-.4-.1-.8-.5-.8s-.5.3-.5.8v3.5h-1.4v-5h1.4v.5zm3.4 2c0-1.4.2-2.6 2.1-2.6s2.1 1.2 2.1 2.6c0 1.6-.2 2.7-2.1 2.7s-2.1-1.1-2.1-2.7zm2.7-.1c0-1-.1-1.6-.6-1.6s-.6.5-.6 1.6c0 1.5.1 1.9.6 1.9s.6-.4.6-1.9zm1.9-2.4h.6V97l1.4-.6v1.4h.7v.9h-.7v2.7c0 .4 0 .6.4.6h.2v.9h-.7c-1.2 0-1.4-.8-1.4-1.1v-3.1h-.6v-.9zm4.6 2.8c0 .6 0 1.5.6 1.5.5 0 .6-.5.6-.9h1.4c0 .5-.2 1-.5 1.3-.3.3-.8.5-1.5.5-1.8 0-2.1-1.1-2.1-2.7 0-1.4.2-2.6 2.1-2.6 1.9 0 2.1 1.2 2.1 2.8h-2.7zm1.3-.8c0-.5 0-1.2-.6-1.2s-.6.8-.6 1.2h1.2zm3.5 1.5c0 .2 0 .5.1.6.1.2.2.2.5.2s.5-.2.5-.5c0-1.1-2.5-.8-2.5-2.4 0-1.1 1.1-1.4 2-1.4 1 0 1.8.5 1.7 1.5h-1.4c0-.4 0-.6-.1-.7-.1-.1-.2-.1-.4-.1-.3 0-.5.2-.5.5 0 .8 2.5.8 2.5 2.4 0 .9-.7 1.5-1.9 1.5s-2-.3-2-1.7h1.5zm5.1-3.5h1.4l.7 3.8 1-3.8h1.5l.9 3.8.8-3.8h1.3l-1.4 5h-1.5l-.9-3.4-1 3.4h-1.5l-1.3-5zm9.6 2.8c0 .6 0 1.5.6 1.5.5 0 .6-.5.6-.9h1.4c0 .5-.2 1-.5 1.3-.3.3-.8.5-1.5.5-1.8 0-2.1-1.1-2.1-2.7 0-1.4.2-2.6 2.1-2.6 1.9 0 2.1 1.2 2.1 2.8h-2.7zm1.3-.8c0-.5 0-1.2-.6-1.2s-.6.8-.6 1.2h1.2zm3.9-4.1v7.2H354v-7.2h1.4zm2.8 0v7.2h-1.4v-7.2h1.4z" class="st3"/>
  <path d="M59.8 101.4h144.6" class="st4"/>
  <path id="audio" d="M339 123v4.1c0 2.3 1.9 4.2 4.2 4.2h2.3c1.2 0 2.5.4 3.5 1.1l8.2 5.9c1 .7 2.5 0 2.5-1.3v-23c0-1.2-1.3-1.8-2.3-1.2l-7.8 5.3c-1.1.7-2.4 1.1-3.7 1.1h-3.1c-2 0-3.8 1.7-3.8 3.8zm35.4 8.9c-.5.5-1.4.5-1.9 0l-4.6-4.6-4.3 4.3c-.5.5-1.4.5-1.9 0s-.5-1.4 0-1.9l4.3-4.3-3.6-3.6c-.5-.5-.5-1.4 0-1.9.3-.3.6-.4.9-.4.3 0 .7.1.9.4l3.6 3.6 4-4c.5-.5 1.4-.5 1.9 0 .3.3.4.6.4.9 0 .3-.1.7-.4.9l-4 4 4.6 4.6c.6.7.6 1.5.1 2z" class="st1"/>
  <path d="M19.9 130v1.2h-1.7v6h-1.5v-6H15V130h4.9zm1.2 2.2v.6c.3-.6.7-.8 1.3-.8v1.3c-1.2-.1-1.3.6-1.3 1.1v2.7h-1.4v-5h1.4zm2.9 5.1l-1.4-5.1H24l.7 3.5.8-3.5h1.4l-1.9 7h-1.5l.5-1.9zm7.2-4.6c.2-.2.3-.4.5-.5.2-.1.4-.1.7-.1.7 0 1.3.4 1.3 1.1v4h-1.4v-3.5c0-.4-.1-.8-.5-.8s-.5.3-.5.8v3.5h-1.4v-5h1.4v.5zm3.5 2c0-1.4.2-2.6 2.1-2.6s2.1 1.2 2.1 2.6c0 1.6-.2 2.7-2.1 2.7-1.9 0-2.1-1.2-2.1-2.7zm2.7-.1c0-1-.1-1.6-.6-1.6s-.6.5-.6 1.6c0 1.5.1 1.9.6 1.9.4 0 .6-.4.6-1.9zm1.8-2.4h.6v-.8l1.4-.6v1.4h.7v.9h-.7v2.7c0 .4 0 .6.4.6h.2v.9h-.7c-1.2 0-1.4-.8-1.4-1.1v-3.1h-.6v-.9zm5 0h.6v-.8l1.4-.6v1.4h.7v.9h-.7v2.7c0 .4 0 .6.4.6h.2v.9h-.7c-1.2 0-1.4-.8-1.4-1.1v-3.1h-.6v-.9zm3.2 2.5c0-1.4.2-2.6 2.1-2.6s2.1 1.2 2.1 2.6c0 1.6-.2 2.7-2.1 2.7-1.8 0-2.1-1.2-2.1-2.7zm2.8-.1c0-1-.1-1.6-.6-1.6s-.6.5-.6 1.6c0 1.5.1 1.9.6 1.9.4 0 .6-.4.6-1.9zm8.4 1.7c0 .3 0 .6.1.9h-1.3l-.1-.7c-.3.5-.7.8-1.3.8-1 0-1.3-.7-1.3-1.6 0-1.7 1.3-1.7 2.6-1.7v-.4c0-.4-.1-.7-.6-.7s-.5.4-.5.8h-1.4c0-.6.2-1 .5-1.2.3-.2.8-.3 1.3-.3 1.8 0 2 .8 2 1.7v2.4zm-2.6-.6c0 .4.1.8.5.8.8 0 .7-1.1.7-1.7-.7 0-1.2 0-1.2.9zm5.1-3.5v.6c.3-.6.7-.8 1.3-.8v1.3c-1.2-.1-1.3.6-1.3 1.1v2.7h-1.4v-5h1.4zm5.9 0v5.3c0 .3 0 1.7-1.9 1.7-1 0-1.9-.3-2-1.5h1.4c0 .2 0 .4.1.5.1.1.2.2.5.2s.5-.3.5-.8v-1c-.2.4-.6.6-1.1.6-1.5 0-1.5-1.4-1.5-2.6 0-1.1 0-2.5 1.5-2.5.5 0 .9.2 1.1.7v-.6H67zm-2 4.1c.5 0 .6-.5.6-1.6s0-1.7-.6-1.7c-.5 0-.6.4-.6 1.9 0 .5-.1 1.4.6 1.4zm5.6.4c-.2.2-.3.4-.5.5-.2.1-.4.1-.7.1-.7 0-1.3-.4-1.3-1.1v-4h1.4v3.5c0 .4.1.8.5.8s.5-.3.5-.8v-3.5H72v5h-1.5v-.5zm3.8-1.7c0 .6 0 1.5.6 1.5.5 0 .6-.5.6-.9H77c0 .5-.2 1-.5 1.3-.3.3-.8.5-1.5.5-1.8 0-2.1-1.1-2.1-2.7 0-1.4.2-2.6 2.1-2.6 1.9 0 2.1 1.2 2.1 2.8h-2.7zm1.3-.8c0-.5 0-1.2-.6-1.2s-.6.8-.6 1.2h1.2zm4.2-2h1.4l.7 3.8 1-3.8h1.5l.9 3.8.8-3.8h1.3l-1.4 5h-1.5l-.9-3.4-1 3.4h-1.5l-1.3-5zm9.7-2.2v1.1h-1.4V130h1.4zm0 7.3h-1.4v-5h1.4v5zm.7-5.1h.6v-.8l1.4-.6v1.4h.7v.9h-.7v2.7c0 .4 0 .6.4.6h.2v.9h-.7c-1.2 0-1.4-.8-1.4-1.1v-3.1h-.6v-.9zm5.8 5.1v-3.5c0-.4-.1-.8-.5-.8s-.5.3-.5.8v3.5h-1.4V130h1.4v2.7c.1-.2.3-.4.5-.5.2-.1.4-.1.7-.1.7 0 1.3.4 1.3 1.1v4h-1.5zm4.2-5.1h.6v-.8l1.4-.6v1.4h.7v.9h-.7v2.7c0 .4 0 .6.4.6h.2v.9h-.7c-1.2 0-1.4-.8-1.4-1.1v-3.1h-.6v-.9zm5.8 5.1v-3.5c0-.4-.1-.8-.5-.8s-.5.3-.5.8v3.5h-1.4V130h1.4v2.7c.1-.2.3-.4.5-.5.2-.1.4-.1.7-.1.7 0 1.3.4 1.3 1.1v4h-1.5zm3.9-2.3c0 .6 0 1.5.6 1.5.5 0 .6-.5.6-.9h1.4c0 .5-.2 1-.5 1.3-.3.3-.8.5-1.5.5-1.8 0-2.1-1.1-2.1-2.7 0-1.4.2-2.6 2.1-2.6 1.9 0 2.1 1.2 2.1 2.8H110zm1.3-.8c0-.5 0-1.2-.6-1.2s-.6.8-.6 1.2h1.2zm4-2h.6v-.8l1.4-.6v1.4h.7v.9h-.7v2.7c0 .4 0 .6.4.6h.2v.9h-.7c-1.2 0-1.4-.8-1.4-1.1v-3.1h-.6v-.9zm4.7 2.8c0 .6 0 1.5.6 1.5.5 0 .6-.5.6-.9h1.4c0 .5-.2 1-.5 1.3-.3.3-.8.5-1.5.5-1.8 0-2.1-1.1-2.1-2.7 0-1.4.2-2.6 2.1-2.6 1.9 0 2.1 1.2 2.1 2.8H120zm1.3-.8c0-.5 0-1.2-.6-1.2s-.6.8-.6 1.2h1.2zm6.2 2.1c0 .3 0 .6.1.9h-1.3l-.1-.7c-.3.5-.7.8-1.3.8-1 0-1.3-.7-1.3-1.6 0-1.7 1.3-1.7 2.6-1.7v-.4c0-.4-.1-.7-.6-.7s-.5.4-.5.8h-1.4c0-.6.2-1 .5-1.2.3-.2.8-.3 1.3-.3 1.8 0 2 .8 2 1.7v2.4zm-2.6-.6c0 .4.1.8.5.8.8 0 .7-1.1.7-1.7-.7 0-1.2 0-1.2.9zm6.3-1.7c0-.8-.2-1-.6-1-.6 0-.6.5-.6 1.6 0 1.5.1 1.9.6 1.9.4 0 .6-.4.6-1.1h1.4c0 1.4-.7 2-2.1 2-1.8 0-2.1-1.1-2.1-2.7 0-1.4.2-2.6 2.1-2.6 1.3 0 2 .6 2 1.9h-1.3zm4.9 3.3v-3.5c0-.4-.1-.8-.5-.8s-.5.3-.5.8v3.5h-1.4V130h1.4v2.7c.1-.2.3-.4.5-.5.2-.1.4-.1.7-.1.7 0 1.3.4 1.3 1.1v4h-1.5zm3.9-2.3c0 .6 0 1.5.6 1.5.5 0 .6-.5.6-.9h1.4c0 .5-.2 1-.5 1.3-.3.3-.8.5-1.5.5-1.8 0-2.1-1.1-2.1-2.7 0-1.4.2-2.6 2.1-2.6 1.9 0 2.1 1.2 2.1 2.8H140zm1.3-.8c0-.5 0-1.2-.6-1.2s-.6.8-.6 1.2h1.2zm3.7-2v.6c.3-.6.7-.8 1.3-.8v1.3c-1.2-.1-1.3.6-1.3 1.1v2.7h-1.4v-5h1.4zm3.7 0h.6v-.8l1.4-.6v1.4h.7v.9h-.7v2.7c0 .4 0 .6.4.6h.2v.9h-.7c-1.2 0-1.4-.8-1.4-1.1v-3.1h-.6v-.9zm3.2 2.5c0-1.4.2-2.6 2.1-2.6s2.1 1.2 2.1 2.6c0 1.6-.2 2.7-2.1 2.7s-2.1-1.2-2.1-2.7zm2.7-.1c0-1-.1-1.6-.6-1.6s-.6.5-.6 1.6c0 1.5.1 1.9.6 1.9s.6-.4.6-1.9zm2.3.1c0-1.4.2-2.6 2.1-2.6s2.1 1.2 2.1 2.6c0 1.6-.2 2.7-2.1 2.7s-2.1-1.2-2.1-2.7zm2.7-.1c0-1-.1-1.6-.6-1.6s-.6.5-.6 1.6c0 1.5.1 1.9.6 1.9s.6-.4.6-1.9zm4.5.1c0-1.4.2-2.6 2.1-2.6s2.1 1.2 2.1 2.6c0 1.6-.2 2.7-2.1 2.7s-2.1-1.2-2.1-2.7zm2.7-.1c0-1-.1-1.6-.6-1.6s-.6.5-.6 1.6c0 1.5.1 1.9.6 1.9s.6-.4.6-1.9zm4.6-3.7c-.6 0-.7.2-.7.7v.6h.7v.9h-.7v4.2h-1.4v-4.2h-.6v-.9h.6c0-1.4-.1-2.2 1.6-2.2h.5v.9z" class="st3"/>
  <path d="M171.4 132.2h.6v-.8l1.4-.6v1.4h.7v.9h-.7v2.7c0 .4 0 .6.4.6h.2v.9h-.7c-1.2 0-1.4-.8-1.4-1.1v-3.1h-.6v-.9zm4.7 2.8c0 .6 0 1.5.6 1.5.5 0 .6-.5.6-.9h1.4c0 .5-.2 1-.5 1.3-.3.3-.8.5-1.5.5-1.8 0-2.1-1.1-2.1-2.7 0-1.4.2-2.6 2.1-2.6 1.9 0 2.1 1.2 2.1 2.8h-2.7zm1.3-.8c0-.5 0-1.2-.6-1.2s-.6.8-.6 1.2h1.2zm3.8-1.5c.2-.2.3-.4.5-.5.2-.1.4-.1.7-.1.7 0 1.3.4 1.3 1.1v4h-1.4v-3.5c0-.4-.1-.8-.5-.8s-.5.3-.5.8v3.5h-1.4v-5h1.4v.5z" class="st3"/>
  <path d="M188.5 138.3h151.7" class="st4"/>
  <g id="free">
    <path d="M364.328 206.515l1.343 1.343-12.94 12.94-1.34-1.344zM362.6 204.7l4.6 4.7.6-5.3z" class="st1"/>
    <path d="M346.647 201.75l1.835-.49 4.736 17.675-1.835.492z" class="st1"/>
    <path d="M344.2 202.4l6.4-1.7-4.3-3.1zm-10.56 12.36l.493-1.836 17.676 4.736-.498 1.835z" class="st1"/>
    <path d="M333 217.2l1.7-6.4-4.8 2.1zm5.44 15.246l-1.345-1.343 12.94-12.94 1.344 1.344z" class="st1"/>
    <path d="M340.2 234.2l-4.6-4.7-.6 5.3zm15.98 2.933l-1.837.492-4.736-17.676 1.836-.498zm2.42-.633l-6.4 1.7 4.3 3.2z" class="st1"/>
    <path d="M369.062 224.21l-.492 1.834-17.676-4.736.492-1.835zm.738-2.41l-1.8 6.3 4.9-2.1z" class="st1"/>
  </g>
  <path d="M16.7 232.4l2-7.2h2l2 7.2h-1.6l-.4-1.6h-2.1l-.4 1.6h-1.5zm2.9-5.8l-.7 3.1h1.4l-.7-3.1zm3 .8H24l.7 3.8.7-3.8h1.4l-1.4 5H24l-1.4-5zm4.8 2.4c0-1.4.2-2.6 2.1-2.6 1.9 0 2.1 1.2 2.1 2.6 0 1.6-.2 2.7-2.1 2.7-1.8 0-2.1-1.1-2.1-2.7zm2.7-.1c0-1-.1-1.6-.7-1.6s-.6.5-.6 1.6c0 1.5.1 1.9.6 1.9.6 0 .7-.3.7-1.9zm4-4.5v1.1h-1.4v-1.1h1.4zm0 7.2h-1.4v-5h1.4v5zm3.8 0v-.6c-.3.5-.6.7-1.2.7-1.5 0-1.4-1.6-1.4-2.7 0-1 0-2.6 1.4-2.6.5 0 .9.2 1.1.6v-2.6h1.4v7.2h-1.3zm-.1-2.6c0-1 0-1.7-.6-1.7s-.6.7-.6 1.7c0 1.3.1 1.8.6 1.8s.6-.5.6-1.8zm8.3-3.7c-.6 0-.7.2-.8.7l-.1.6h.7l-.2.9H45l-.9 4.2h-1.4l.9-4.2H43l.2-.9h.6c.3-1.4.3-2.2 2.1-2.2h.5l-.3.9zm1.6 1.3l-.1.6c.4-.6.9-.8 1.5-.8l-.3 1.3c-1.2-.1-1.4.6-1.5 1.1l-.6 2.7h-1.4l1.1-5h1.3zm2.8 2.7c-.1.6-.3 1.5.3 1.5.5 0 .7-.5.8-.9H53c-.1.5-.4 1-.8 1.3-.4.3-.9.5-1.6.5-1.8 0-1.8-1.1-1.5-2.7.3-1.4.7-2.6 2.6-2.6 1.9 0 1.8 1.2 1.5 2.8h-2.7zm1.4-.8c.1-.5.3-1.2-.4-1.2-.6 0-.8.8-.9 1.2h1.3zm3.6.8c-.1.6-.3 1.5.3 1.5.5 0 .7-.5.8-.9H58c-.1.5-.4 1-.8 1.3-.4.3-.9.5-1.6.5-1.8 0-1.8-1.1-1.5-2.7.3-1.4.7-2.6 2.6-2.6 1.9 0 1.8 1.2 1.5 2.8h-2.7zm1.4-.8c.1-.5.3-1.2-.4-1.2-.6 0-.8.8-.9 1.2h1.3zm4.5-1.9h.6l.2-.8 1.5-.6-.3 1.4h.7l-.2.9h-.7l-.6 2.7c-.1.4-.1.6.3.6h.2l-.2.9h-.7c-1.2 0-1.2-.8-1.1-1.1l.7-3.1h-.6l.2-.9zm4.7 5l.7-3.5c.1-.4.1-.8-.4-.8-.4 0-.6.3-.7.8l-.7 3.5h-1.4l1.5-7.2h1.4l-.6 2.7c.2-.2.4-.4.6-.5.2-.1.5-.1.7-.1.7 0 1.2.4 1 1.1l-.9 4h-1.2zm4.1 0h-1.4l1.1-5h1.4l-1.1 5zm1.5-7.2l-.2 1.1h-1.4l.2-1.1h1.4zm2.1 2.7c.2-.2.4-.4.6-.5.2-.1.5-.1.7-.1.7 0 1.2.4 1 1.1l-.9 4h-1.4l.7-3.5c.1-.4.1-.8-.4-.8s-.6.3-.7.8l-.7 3.5h-1.4l1.1-5h1.4v.5zm2.6 4.5l1.5-7.2h1.4l-.9 4.3 1.7-2.1h1.5l-1.9 2.2 1 2.8h-1.6l-.7-2.7-.6 2.7h-1.4zm6.6 0h-1.4l1.1-5H84l-1 5zm1.5-7.2l-.2 1.1h-1.4l.2-1.1h1.4zm2.1 2.7c.2-.2.4-.4.6-.5.2-.1.5-.1.7-.1.7 0 1.2.4 1 1.1l-.9 4h-1.4l.7-3.5c.1-.4.1-.8-.4-.8s-.6.3-.7.8l-.7 3.5h-1.4l1.1-5h1.4v.5zm7.5-.5l-1.1 5.3c-.1.3-.3 1.7-2.3 1.7-1 0-1.9-.3-1.7-1.5h1.4c0 .2-.1.4 0 .5.1.1.2.2.4.2.4 0 .6-.3.7-.8l.2-1c-.3.4-.7.6-1.2.6-1.5 0-1.2-1.4-.9-2.6.2-1.1.5-2.5 2-2.5.5 0 .9.2 1 .7l.1-.6h1.4zm-2.8 4.1c.5 0 .7-.5.9-1.6.2-1.1.3-1.7-.2-1.7s-.7.4-1 1.9c-.1.4-.4 1.4.3 1.4zm4.6-4.1h.6v-.8l1.4-.6v1.4h.7v.9h-.7v2.7c0 .4 0 .6.4.6h.2v.9h-.7c-1.2 0-1.4-.8-1.4-1.1v-3.1h-.6v-.9zm4.6 2.7c0 .6 0 1.5.6 1.5.5 0 .6-.5.6-.9h1.4c0 .5-.2 1-.5 1.3-.3.3-.8.5-1.5.5-1.8 0-2.1-1.1-2.1-2.7 0-1.4.2-2.6 2.1-2.6 1.9 0 2.1 1.2 2.1 2.8h-2.7zm1.3-.8c0-.5 0-1.2-.7-1.2-.6 0-.6.8-.6 1.2h1.3zm6.3 2.2c0 .3 0 .6.1.9h-1.3l-.1-.7c-.3.5-.7.8-1.3.8-1 0-1.3-.7-1.3-1.6 0-1.7 1.3-1.7 2.6-1.7v-.4c0-.4-.1-.7-.6-.7s-.5.4-.5.8h-1.4c0-.6.2-1 .5-1.2.3-.2.8-.3 1.3-.3 1.8 0 2 .8 2 1.7v2.4zm-2.6-.7c0 .4.1.8.5.8.8 0 .7-1.1.7-1.7-.7.1-1.2 0-1.2.9zm6.3-1.6c0-.8-.2-1-.6-1-.6 0-.6.5-.6 1.6 0 1.5.1 1.9.6 1.9.4 0 .7-.4.7-1.1h1.4c0 1.4-.7 2-2.1 2-1.8 0-2.1-1.1-2.1-2.7 0-1.4.2-2.6 2.1-2.6 1.3 0 2 .6 2 1.9h-1.4zm4.9 3.2v-3.5c0-.4-.1-.8-.5-.8s-.5.3-.5.8v3.5h-1.4v-7.2h1.4v2.7c.1-.2.3-.4.5-.5.2-.1.4-.1.7-.1.7 0 1.3.4 1.3 1.1v4h-1.5zm3.8-2.3c0 .6 0 1.5.6 1.5.5 0 .6-.5.6-.9h1.4c0 .5-.2 1-.5 1.3-.3.3-.8.5-1.5.5-1.8 0-2.1-1.1-2.1-2.7 0-1.4.2-2.6 2.1-2.6 1.9 0 2.1 1.2 2.1 2.8h-2.7zm1.3-.8c0-.5 0-1.2-.7-1.2-.6 0-.6.8-.6 1.2h1.3zm3.8-1.9v.6c.3-.6.7-.8 1.3-.8v1.3c-1.2-.1-1.3.6-1.3 1.1v2.7h-1.4v-5h1.4zm3.1 3.4c0 .2 0 .5.1.6.1.2.2.2.5.2s.5-.2.5-.5c0-1.1-2.5-.8-2.5-2.4 0-1.1 1.1-1.4 2-1.4 1 0 1.8.5 1.7 1.5h-1.4c0-.4 0-.6-.1-.7-.1-.1-.2-.1-.4-.1-.3 0-.5.2-.5.5 0 .8 2.5.8 2.5 2.4 0 .9-.7 1.5-1.9 1.5s-2-.3-2-1.7h1.5zm7-5.6v1.1h-1.4v-1.1h1.4zm0 7.2h-1.4v-5h1.4v5zm3.5-6.3c-.6 0-.7.2-.7.7v.6h.7v.9h-.7v4.2h-1.4v-4.2h-.6v-.9h.6c0-1.4-.1-2.2 1.6-2.2h.5v.9zm2.2 1.3h.6v-.8l1.4-.6v1.4h.7v.9h-.7v2.7c0 .4 0 .6.5.6h.2v.9h-.7c-1.2 0-1.4-.8-1.4-1.1v-3.1h-.6v-.9zm5.8 5v-3.5c0-.4-.1-.8-.5-.8-.5 0-.5.3-.5.8v3.5h-1.4v-7.2h1.4v2.7c.1-.2.3-.4.5-.5.2-.1.4-.1.7-.1.7 0 1.3.4 1.3 1.1v4h-1.5zm3.9-2.3c0 .6 0 1.5.6 1.5.5 0 .6-.5.6-.9h1.4c0 .5-.2 1-.5 1.3-.3.3-.8.5-1.5.5-1.8 0-2.1-1.1-2.1-2.7 0-1.4.2-2.6 2.1-2.6 1.9 0 2.1 1.2 2.1 2.8h-2.7zm1.3-.8c0-.5 0-1.2-.6-1.2s-.6.8-.6 1.2h1.2zm3.3 3.2l-1.4-5.1h1.4l.7 3.5.8-3.5h1.4l-1.9 7h-1.5l.5-1.9zm8.3-3.3c0-.8-.2-1-.6-1-.6 0-.6.5-.6 1.6 0 1.5.1 1.9.6 1.9.4 0 .7-.4.7-1.1h1.4c0 1.4-.7 2-2.1 2-1.8 0-2.1-1.1-2.1-2.7 0-1.4.2-2.6 2.1-2.6 1.3 0 2 .6 2 1.9H164zm2.3.6c0-1.4.2-2.6 2.1-2.6 1.9 0 2.1 1.2 2.1 2.6 0 1.6-.2 2.7-2.1 2.7-1.8 0-2.1-1.1-2.1-2.7zm2.7-.1c0-1-.1-1.6-.7-1.6s-.6.5-.6 1.6c0 1.5.1 1.9.6 1.9.6 0 .7-.3.7-1.9zm3.8-1.8c.2-.2.3-.4.5-.5.2-.1.4-.1.7-.1.7 0 1.3.4 1.3 1.1v4h-1.4v-3.5c0-.4-.1-.8-.5-.8s-.5.3-.5.8v3.5h-1.4v-5h1.4v.5zm5.8-1.8c-.6 0-.7.2-.7.7v.6h.7v.9h-.7v4.2h-1.4v-4.2h-.6v-.9h.6c0-1.4-.1-2.2 1.6-2.2h.5v.9zm3.1 5.8c-.2.2-.3.4-.5.5-.2.1-.4.1-.7.1-.7 0-1.3-.4-1.3-1.1v-4h1.4v3.5c0 .4.1.8.5.8s.5-.3.5-.8v-3.5h1.4v5h-1.5v-.5zm3.6-1.1c0 .2 0 .5.1.6.1.2.2.2.5.2s.5-.2.5-.5c0-1.1-2.5-.8-2.5-2.4 0-1.1 1.1-1.4 2-1.4 1 0 1.8.5 1.7 1.5h-1.4c0-.4 0-.6-.1-.7-.1-.1-.2-.1-.4-.1-.3 0-.5.2-.5.5 0 .8 2.5.8 2.5 2.4 0 .9-.7 1.5-1.9 1.5s-2-.3-2-1.7h1.5zm4.7-.7c0 .6 0 1.5.6 1.5.5 0 .6-.5.6-.9h1.4c0 .5-.2 1-.5 1.3-.3.3-.8.5-1.5.5-1.8 0-2.1-1.1-2.1-2.7 0-1.4.2-2.6 2.1-2.6 1.9 0 2.1 1.2 2.1 2.8H190zm1.2-.8c0-.5 0-1.2-.7-1.2-.6 0-.6.8-.6 1.2h1.3zm5.6 3.2l-1.4-5.1h1.4l.7 3.5.8-3.5h1.4l-1.9 7h-1.5l.5-1.9zm3.4-2.7c0-1.4.2-2.6 2.1-2.6 1.9 0 2.1 1.2 2.1 2.6 0 1.6-.2 2.7-2.1 2.7s-2.1-1.1-2.1-2.7zm2.7-.1c0-1 0-1.6-.6-1.6s-.6.5-.6 1.6c0 1.5.1 1.9.6 1.9s.6-.3.6-1.9zm4.9 2.2c-.2.2-.3.4-.5.5-.2.1-.4.1-.7.1-.7 0-1.3-.4-1.3-1.1v-4h1.4v3.5c0 .4.1.8.5.8s.5-.3.5-.8v-3.5h1.4v5h-1.5v-.5zm8.6-.4c0 .3 0 .6.1.9h-1.3l-.1-.7c-.3.5-.7.8-1.3.8-1 0-1.3-.7-1.3-1.6 0-1.7 1.3-1.7 2.6-1.7v-.4c0-.4-.1-.7-.6-.7s-.5.4-.5.8h-1.4c0-.6.2-1 .5-1.2.3-.2.8-.3 1.3-.3 1.8 0 2 .8 2 1.7v2.4zm-2.6-.7c0 .4.1.8.5.8.8 0 .7-1.1.7-1.7-.7.1-1.2 0-1.2.9zm5.3-5.6v7.2h-1.4v-7.2h1.4zm1.1 4.6c0-1.4.2-2.6 2.1-2.6 1.9 0 2.1 1.2 2.1 2.6 0 1.6-.2 2.7-2.1 2.7s-2.1-1.1-2.1-2.7zm2.7-.1c0-1 0-1.6-.6-1.6s-.6.5-.6 1.6c0 1.5.1 1.9.6 1.9s.6-.3.6-1.9zm1.8-2.3h.6v-.8l1.4-.6v1.4h.7v.9h-.7v2.7c0 .4 0 .6.5.6h.2v.9h-.7c-1.2 0-1.4-.8-1.4-1.1v-3.1h-.6v-.9z" class="st3"/>
  <path d="M235 233.1h88" class="st4"/>
  <g id="alone">
    <path d="M25.9 259.6s-.6-6.8 1.4-8.8c2-2 4.9-3.2 7.6-3.2s5.9 1.7 7.2 3c1.3 1.3 1.8 6 1.8 8.7 0 0 1.3 0 1.6.8.3 1-.5 5.4-1.7 5.4 0 0-3.8 10.3-8.9 9.1 0 0-5.4.6-8.5-8.9 0 0-2-1.2-2-4.5 0-.9.6-1.6 1.5-1.6zm6.7 17.4h4.3s1 0 .6 1.5c-.5 1.5-1.2 1.8-1.2 1.8l1.3 11.6h-6l1.7-11.4c-.1 0-2.1-2.2-.7-3.5z" class="st3"/>
    <path d="M26.5 276.4c.8-.3 1.7.1 1.9.9.8 3.2 2.6 10.2 4 11.6 1.8 1.8 2.5 1.2 2.5 1.2s3.2-.6 4.7-5.5c1-3 1.6-5.7 1.9-7.3.2-.8 1-1.3 1.8-1 3.2 1.1 10.4 3.8 11.4 6.7 1.3 3.8 1.5 8.9-2.6 9.7s-34.3 1-36.2-1-1.9-10.1 1.2-11.4c2.3-.9 7-2.9 9.4-3.9z" class="st3"/>
  </g>
  <path d="M164.8 273.3h1.5l.9 5.1 1.1-5.1h1.8l1.1 5.1.9-5.1h1.5l-1.6 7.2h-1.7l-1.1-5.3-1.2 5.3h-1.6l-1.6-7.2zm9.1 4.7c0-1.4.2-2.6 2.1-2.6s2.1 1.2 2.1 2.6c0 1.6-.2 2.7-2.1 2.7-1.9-.1-2.1-1.2-2.1-2.7zm2.7-.1c0-1-.1-1.6-.6-1.6s-.6.5-.6 1.6c0 1.5.1 1.9.6 1.9.5-.1.6-.4.6-1.9zm3.7-2.4v.7c.3-.6.7-.8 1.3-.8v1.3c-1.2-.1-1.3.6-1.3 1.1v2.7H179v-5h1.3zm2 5v-7.2h1.4v4.3l1.3-2.1h1.5l-1.4 2.2 1.6 2.8H185l-1.3-2.7v2.7h-1.4zm11.1-.9c0 .3 0 .6.1.9h-1.3l-.1-.7c-.3.5-.7.8-1.3.8-1 0-1.3-.7-1.3-1.6 0-1.7 1.3-1.7 2.6-1.7v-.4c0-.4-.1-.7-.6-.7s-.5.4-.5.8h-1.4c0-.6.2-1 .5-1.2.3-.2.8-.3 1.3-.3 1.8 0 2 .8 2 1.7v2.4zm-2.6-.6c0 .4.1.8.5.8.8 0 .7-1.1.7-1.7-.7 0-1.2 0-1.2.9zm5.3-5.7v7.2h-1.4v-7.2h1.4zm1.1 4.7c0-1.4.2-2.6 2.1-2.6s2.1 1.2 2.1 2.6c0 1.6-.2 2.7-2.1 2.7s-2.1-1.2-2.1-2.7zm2.7-.1c0-1-.1-1.6-.6-1.6s-.6.5-.6 1.6c0 1.5.1 1.9.6 1.9.5-.1.6-.4.6-1.9zm3.8-1.9c.2-.2.3-.4.5-.5.2-.1.4-.1.7-.1.7 0 1.3.4 1.3 1.1v4h-1.4V277c0-.4-.1-.8-.5-.8s-.5.3-.5.8v3.5h-1.4v-5h1.4v.5zm4.9 2.2c0 .6 0 1.5.6 1.5.5 0 .6-.5.6-.9h1.4c0 .6-.2 1-.5 1.3-.3.3-.8.5-1.5.5-1.8 0-2.1-1.1-2.1-2.7 0-1.4.2-2.6 2.1-2.6 1.9 0 2.1 1.2 2.1 2.8h-2.7zm1.3-.7c0-.5 0-1.2-.6-1.2s-.6.8-.6 1.2h1.2zm4.2-2h1.4l.7 3.8 1-3.8h1.5l.9 3.8.8-3.8h1.3l-1.4 5h-1.5l-.9-3.4-1 3.4h-1.5l-1.3-5zm10.7 5V277c0-.4-.1-.8-.5-.8s-.5.3-.5.8v3.5h-1.4v-7.2h1.4v2.7c.1-.2.3-.4.5-.5.2-.1.4-.1.7-.1.7 0 1.3.4 1.3 1.1v4h-1.5zm3.8-2.3c0 .6 0 1.5.6 1.5.5 0 .6-.5.6-.9h1.4c0 .6-.2 1-.5 1.3-.3.3-.8.5-1.5.5-1.8 0-2.1-1.1-2.1-2.7 0-1.4.2-2.6 2.1-2.6 1.9 0 2.1 1.2 2.1 2.8h-2.7zm1.3-.7c0-.5 0-1.2-.6-1.2s-.6.8-.6 1.2h1.2zm3.8-1.5c.2-.2.3-.4.5-.5.2-.1.4-.1.7-.1.7 0 1.3.4 1.3 1.1v4h-1.4V277c0-.4-.1-.8-.5-.8s-.5.3-.5.8v3.5h-1.4v-5h1.4v.5zm6.8 4.6l-1.4-5.1h1.4l.7 3.5.8-3.5h1.4l-1.9 7H240l.5-1.9zm3.4-2.6c0-1.4.2-2.6 2.1-2.6s2.1 1.2 2.1 2.6c0 1.6-.2 2.7-2.1 2.7-1.9-.1-2.1-1.2-2.1-2.7zm2.7-.1c0-1-.1-1.6-.6-1.6s-.6.5-.6 1.6c0 1.5.1 1.9.6 1.9.5-.1.6-.4.6-1.9zm4.9 2.1c-.2.2-.3.4-.5.5-.2.1-.4.1-.7.1-.7 0-1.3-.4-1.3-1.1v-4h1.4v3.5c0 .4.1.8.5.8s.5-.3.5-.8v-3.5h1.4v5h-1.5v-.5zm7.2.5V277c0-.4-.1-.8-.5-.8s-.5.3-.5.8v3.5h-1.4v-7.2h1.4v2.7c.1-.2.3-.4.5-.5.2-.1.4-.1.7-.1.7 0 1.3.4 1.3 1.1v4h-1.5zm6.3-.9c0 .3 0 .6.1.9h-1.3l-.1-.7c-.3.5-.7.8-1.3.8-1 0-1.3-.7-1.3-1.6 0-1.7 1.3-1.7 2.6-1.7v-.4c0-.4-.1-.7-.6-.7s-.5.4-.5.8h-1.4c0-.6.2-1 .5-1.2.3-.2.8-.3 1.3-.3 1.8 0 2 .8 2 1.7v2.4zm-2.6-.6c0 .4.1.8.5.8.8 0 .7-1.1.7-1.7-.6 0-1.2 0-1.2.9zm3.3-3.5h1.4l.7 3.8.7-3.8h1.4l-1.4 5H267l-1.3-5zm6.3 2.7c0 .6 0 1.5.6 1.5.5 0 .6-.5.6-.9h1.4c0 .6-.2 1-.5 1.3-.3.3-.8.5-1.5.5-1.8 0-2.1-1.1-2.1-2.7 0-1.4.2-2.6 2.1-2.6 1.9 0 2.1 1.2 2.1 2.8H272zm1.2-.7c0-.5 0-1.2-.6-1.2s-.6.8-.6 1.2h1.2zm8.5 2.1c0 .3 0 .6.1.9h-1.3l-.1-.7c-.3.5-.7.8-1.3.8-1 0-1.3-.7-1.3-1.6 0-1.7 1.3-1.7 2.6-1.7v-.4c0-.4-.1-.7-.6-.7s-.5.4-.5.8h-1.4c0-.6.2-1 .5-1.2.3-.2.8-.3 1.3-.3 1.8 0 2 .8 2 1.7v2.4zm-2.6-.6c0 .4.1.8.5.8.8 0 .7-1.1.7-1.7-.7 0-1.2 0-1.2.9zm8.6-1.7c0-.8-.2-1-.6-1-.6 0-.6.5-.6 1.6 0 1.5.1 1.9.6 1.9.4 0 .6-.4.6-1.1h1.4c0 1.4-.7 2-2.1 2-1.8 0-2.1-1.1-2.1-2.7 0-1.4.2-2.6 2.1-2.6 1.3 0 2 .6 2 1.9h-1.3zm4.9 3.2V277c0-.4-.1-.8-.5-.8s-.5.3-.5.8v3.5h-1.4v-7.2h1.4v2.7c.1-.2.3-.4.5-.5.2-.1.4-.1.7-.1.7 0 1.3.4 1.3 1.1v4h-1.5zm2.4-2.5c0-1.4.2-2.6 2.1-2.6s2.1 1.2 2.1 2.6c0 1.6-.2 2.7-2.1 2.7s-2.1-1.2-2.1-2.7zm2.7-.1c0-1-.1-1.6-.6-1.6s-.6.5-.6 1.6c0 1.5.1 1.9.6 1.9.5-.1.6-.4.6-1.9zm3.9-4.6v1.1h-1.4v-1.1h1.4zm0 7.2h-1.4v-5h1.4v5zm3.8-3.2c0-.8-.2-1-.6-1-.6 0-.6.5-.6 1.6 0 1.5.1 1.9.6 1.9.4 0 .6-.4.6-1.1h1.4c0 1.4-.7 2-2.1 2-1.8 0-2.1-1.1-2.1-2.7 0-1.4.2-2.6 2.1-2.6 1.3 0 2 .6 2 1.9h-1.3zm3.8.9c0 .6 0 1.5.6 1.5.5 0 .6-.5.6-.9h1.4c0 .6-.2 1-.5 1.3-.3.3-.8.5-1.5.5-1.8 0-2.1-1.1-2.1-2.7 0-1.4.2-2.6 2.1-2.6 1.9 0 2.1 1.2 2.1 2.8h-2.7zm1.3-.7c0-.5 0-1.2-.6-1.2s-.6.8-.6 1.2h1.2zm3.5 1.7v1.3h-1.2v-1.3h1.2zM166.8 290l-1.9-4.7h1.6l1.1 3 1.1-3h1.5l-2 4.7v2.5h-1.5V290zm3.4 0c0-1.4.2-2.6 2.1-2.6s2.1 1.2 2.1 2.6c0 1.6-.2 2.7-2.1 2.7s-2.1-1.2-2.1-2.7zm2.7-.1c0-1-.1-1.6-.6-1.6s-.6.5-.6 1.6c0 1.5.1 1.9.6 1.9.4-.1.6-.4.6-1.9zm4.8 2.1c-.2.2-.3.4-.5.5-.2.1-.4.1-.7.1-.7 0-1.3-.4-1.3-1.1v-4h1.4v3.5c0 .4.1.8.5.8s.5-.3.5-.8v-3.5h1.4v5h-1.5v-.5zm8.7-4.5v5.3c0 .3 0 1.7-1.9 1.7-1 0-1.9-.3-2-1.5h1.4c0 .2 0 .4.1.5.1.1.2.2.5.2s.5-.3.5-.8v-1c-.2.4-.6.6-1.1.6-1.5 0-1.5-1.4-1.5-2.6 0-1.1 0-2.5 1.5-2.5.5 0 .9.2 1.1.7v-.6h1.4zm-2 4.1c.5 0 .6-.5.6-1.6s0-1.7-.6-1.7c-.5 0-.6.4-.6 1.9 0 .4-.1 1.4.6 1.4zm4.4-1.4c0 .6 0 1.5.6 1.5.5 0 .6-.5.6-.9h1.4c0 .6-.2 1-.5 1.3-.3.3-.8.5-1.5.5-1.8 0-2.1-1.1-2.1-2.7 0-1.4.2-2.6 2.1-2.6 1.9 0 2.1 1.2 2.1 2.8h-2.7zm1.3-.7c0-.5 0-1.2-.6-1.2s-.6.8-.6 1.2h1.2zm1.8-2h.6v-.8l1.4-.6v1.4h.7v.9h-.7v2.7c0 .4 0 .6.4.6h.2v.9c-.2 0-.4.1-.7.1-1.2 0-1.4-.8-1.4-1.1v-3.1h-.6v-1zm7.8-1.3c-.6 0-.7.2-.7.7v.6h.7v.9h-.7v4.2h-1.4v-4.2h-.6v-.9h.6c0-1.4-.1-2.2 1.6-2.2h.5v.9zm3 5.8c-.2.2-.3.4-.5.5-.2.1-.4.1-.7.1-.7 0-1.3-.4-1.3-1.1v-4h1.4v3.5c0 .4.1.8.5.8s.5-.3.5-.8v-3.5h1.4v5h-1.5v-.5zm3.7-1.1c0 .2 0 .5.1.6.1.2.2.2.5.2s.5-.2.5-.5c0-1.1-2.5-.8-2.5-2.4 0-1.1 1.1-1.4 2-1.4 1 0 1.8.5 1.7 1.5h-1.4c0-.3 0-.6-.1-.7-.1-.1-.2-.1-.4-.1-.3 0-.5.2-.5.5 0 .8 2.5.8 2.5 2.4 0 .9-.7 1.5-1.9 1.5s-2-.3-2-1.7h1.5zm2.8-3.4h.6v-.8l1.4-.6v1.4h.7v.9h-.7v2.7c0 .4 0 .6.4.6h.2v.9c-.2 0-.4.1-.7.1-1.2 0-1.4-.8-1.4-1.1v-3.1h-.6v-1zm4.6 0v.7c.3-.6.7-.8 1.3-.8v1.3c-1.2-.1-1.3.6-1.3 1.1v2.7h-1.4v-5h1.4zm5.9 4.1c0 .3 0 .6.1.9h-1.3l-.1-.7c-.3.5-.7.8-1.3.8-1 0-1.3-.7-1.3-1.6 0-1.7 1.3-1.7 2.6-1.7v-.4c0-.4-.1-.7-.6-.7s-.5.4-.5.8h-1.4c0-.6.2-1 .5-1.2.3-.2.8-.3 1.3-.3 1.8 0 2 .8 2 1.7v2.4zm-2.6-.6c0 .4.1.8.5.8.8 0 .7-1.1.7-1.7-.7 0-1.2 0-1.2.9zm3.2-3.5h.6v-.8l1.4-.6v1.4h.7v.9h-.7v2.7c0 .4 0 .6.4.6h.2v.9c-.2 0-.4.1-.7.1-1.2 0-1.4-.8-1.4-1.1v-3.1h-.6v-1zm4.6 2.7c0 .6 0 1.5.6 1.5.5 0 .6-.5.6-.9h1.4c0 .6-.2 1-.5 1.3-.3.3-.8.5-1.5.5-1.8 0-2.1-1.1-2.1-2.7 0-1.4.2-2.6 2.1-2.6 1.9 0 2.1 1.2 2.1 2.8h-2.7zm1.3-.7c0-.5 0-1.2-.6-1.2s-.6.8-.6 1.2h1.2zm4.9 3v-.5c-.3.5-.6.7-1.2.7-1.5 0-1.4-1.6-1.4-2.7 0-1 0-2.6 1.4-2.6.5 0 .9.2 1.1.6v-2.6h1.4v7.2h-1.3zm0-2.5c0-1 0-1.7-.6-1.7s-.6.7-.6 1.7c0 1.3.1 1.8.6 1.8s.6-.6.6-1.8zm4.3-2.5h1.4l.7 3.8 1-3.8h1.5l.9 3.8.8-3.8h1.3l-1.4 5h-1.5l-.9-3.4-1 3.4h-1.5l-1.3-5zm9.7-2.2v1.1h-1.4v-1.1h1.4zm0 7.2h-1.4v-5h1.4v5zm.7-5h.6v-.8l1.4-.6v1.4h.7v.9h-.7v2.7c0 .4 0 .6.4.6h.2v.9c-.2 0-.4.1-.7.1-1.2 0-1.4-.8-1.4-1.1v-3.1h-.6v-1zm5.8 5V289c0-.4-.1-.8-.5-.8s-.5.3-.5.8v3.5h-1.4v-7.2h1.4v2.7c.1-.2.3-.4.5-.5.2-.1.4-.1.7-.1.7 0 1.3.4 1.3 1.1v4h-1.5zm4.7-2.5c0-1.4.2-2.6 2.1-2.6s2.1 1.2 2.1 2.6c0 1.6-.2 2.7-2.1 2.7s-2.1-1.2-2.1-2.7zm2.7-.1c0-1-.1-1.6-.6-1.6s-.6.5-.6 1.6c0 1.5.1 1.9.6 1.9.4-.1.6-.4.6-1.9zm1.8-2.4h.6v-.8l1.4-.6v1.4h.7v.9h-.7v2.7c0 .4 0 .6.4.6h.2v.9c-.2 0-.4.1-.7.1-1.2 0-1.4-.8-1.4-1.1v-3.1h-.6v-1zm5.8 5V289c0-.4-.1-.8-.5-.8s-.5.3-.5.8v3.5h-1.4v-7.2h1.4v2.7c.1-.2.3-.4.5-.5.2-.1.4-.1.7-.1.7 0 1.3.4 1.3 1.1v4h-1.5zm3.9-2.3c0 .6 0 1.5.6 1.5.5 0 .6-.5.6-.9h1.4c0 .6-.2 1-.5 1.3-.3.3-.8.5-1.5.5-1.8 0-2.1-1.1-2.1-2.7 0-1.4.2-2.6 2.1-2.6 1.9 0 2.1 1.2 2.1 2.8h-2.7zm1.3-.7c0-.5 0-1.2-.6-1.2s-.6.8-.6 1.2h1.2zm3.7-2v.7c.3-.6.7-.8 1.3-.8v1.3c-1.2-.1-1.3.6-1.3 1.1v2.7h-1.4v-5h1.4zm3.1 3.4c0 .2 0 .5.1.6.1.2.2.2.5.2s.5-.2.5-.5c0-1.1-2.5-.8-2.5-2.4 0-1.1 1.1-1.4 2-1.4 1 0 1.8.5 1.7 1.5h-1.4c0-.3 0-.6-.1-.7-.1-.1-.2-.1-.4-.1-.3 0-.5.2-.5.5 0 .8 2.5.8 2.5 2.4 0 .9-.7 1.5-1.9 1.5s-2-.3-2-1.7h1.5zm5.1-3.4h1.4l.7 3.8 1-3.8h1.5l.9 3.8.8-3.8h1.3l-1.4 5h-1.5l-.9-3.4-1 3.4H285l-1.3-5zm10.7 5V289c0-.4-.1-.8-.5-.8s-.5.3-.5.8v3.5H292v-7.2h1.4v2.7c.1-.2.3-.4.5-.5.2-.1.4-.1.7-.1.7 0 1.3.4 1.3 1.1v4h-1.5zm2.4-2.5c0-1.4.2-2.6 2.1-2.6s2.1 1.2 2.1 2.6c0 1.6-.2 2.7-2.1 2.7-1.8-.1-2.1-1.2-2.1-2.7zm2.7-.1c0-1-.1-1.6-.6-1.6s-.6.5-.6 1.6c0 1.5.1 1.9.6 1.9.5-.1.6-.4.6-1.9zm8.5 1.7c0 .3 0 .6.1.9h-1.3l-.1-.7c-.3.5-.7.8-1.3.8-1 0-1.3-.7-1.3-1.6 0-1.7 1.3-1.7 2.6-1.7v-.4c0-.4-.1-.7-.6-.7s-.5.4-.5.8h-1.4c0-.6.2-1 .5-1.2.3-.2.8-.3 1.3-.3 1.8 0 2 .8 2 1.7v2.4zm-2.6-.6c0 .4.1.8.5.8.8 0 .7-1.1.7-1.7-.7 0-1.2 0-1.2.9zm5.1-3.5v.7c.3-.6.7-.8 1.3-.8v1.3c-1.2-.1-1.3.6-1.3 1.1v2.7h-1.4v-5h1.4zm3.3 2.7c0 .6 0 1.5.6 1.5.5 0 .6-.5.6-.9h1.4c0 .6-.2 1-.5 1.3-.3.3-.8.5-1.5.5-1.8 0-2.1-1.1-2.1-2.7 0-1.4.2-2.6 2.1-2.6 1.9 0 2.1 1.2 2.1 2.8h-2.7zm1.3-.7c0-.5 0-1.2-.6-1.2s-.6.8-.6 1.2h1.2zm3.8-1.5c.2-.2.3-.4.5-.5.2-.1.4-.1.7-.1.7 0 1.3.4 1.3 1.1v4H320V289c0-.4-.1-.8-.5-.8s-.5.3-.5.8v3.5h-1.4v-5h1.4v.5zm3.6-2.7h1.3l-.7 2h-1l.4-2zm1.5 2.2h.6v-.8l1.4-.6v1.4h.7v.9h-.7v2.7c0 .4 0 .6.4.6h.2v.9c-.2 0-.4.1-.7.1-1.2 0-1.4-.8-1.4-1.1v-3.1h-.5v-1zm9.4 4.1c0 .3 0 .6.1.9h-1.3l-.1-.7c-.3.5-.7.8-1.3.8-1 0-1.3-.7-1.3-1.6 0-1.7 1.3-1.7 2.6-1.7v-.4c0-.4-.1-.7-.6-.7s-.5.4-.5.8h-1.4c0-.6.2-1 .5-1.2.3-.2.8-.3 1.3-.3 1.8 0 2 .8 2 1.7v2.4zm-2.6-.6c0 .4.1.8.5.8.8 0 .7-1.1.7-1.7-.7 0-1.2 0-1.2.9zm4.8-.1c0 .2 0 .5.1.6.1.2.2.2.5.2s.5-.2.5-.5c0-1.1-2.5-.8-2.5-2.4 0-1.1 1.1-1.4 2-1.4 1 0 1.8.5 1.7 1.5h-1.4c0-.3 0-.6-.1-.7-.1-.1-.2-.1-.4-.1-.3 0-.5.2-.5.5 0 .8 2.5.8 2.5 2.4 0 .9-.7 1.5-1.9 1.5s-2-.3-2-1.7h1.5zm6.7 0c0 .2 0 .5.1.6.1.2.2.2.5.2s.5-.2.5-.5c0-1.1-2.5-.8-2.5-2.4 0-1.1 1.1-1.4 2-1.4 1 0 1.8.5 1.7 1.5h-1.4c0-.3 0-.6-.1-.7-.1-.1-.2-.1-.4-.1-.3 0-.5.2-.5.5 0 .8 2.5.8 2.5 2.4 0 .9-.7 1.5-1.9 1.5s-2-.3-2-1.7h1.5zm4.6-.7c0 .6 0 1.5.6 1.5.5 0 .6-.5.6-.9h1.4c0 .6-.2 1-.5 1.3-.3.3-.8.5-1.5.5-1.8 0-2.1-1.1-2.1-2.7 0-1.4.2-2.6 2.1-2.6 1.9 0 2.1 1.2 2.1 2.8h-2.7zm1.3-.7c0-.5 0-1.2-.6-1.2s-.6.8-.6 1.2h1.2zm3.8-2v.7c.3-.6.7-.8 1.3-.8v1.3c-1.2-.1-1.3.6-1.3 1.1v2.7h-1.4v-5h1.4zm3.5-2.2v1.1h-1.4v-1.1h1.4zm0 7.2h-1.4v-5h1.4v5zm1.1-2.5c0-1.4.2-2.6 2.1-2.6s2.1 1.2 2.1 2.6c0 1.6-.2 2.7-2.1 2.7s-2.1-1.2-2.1-2.7zm2.7-.1c0-1-.1-1.6-.6-1.6s-.6.5-.6 1.6c0 1.5.1 1.9.6 1.9.5-.1.6-.4.6-1.9zm4.9 2.1c-.2.2-.3.4-.5.5-.2.1-.4.1-.7.1-.7 0-1.3-.4-1.3-1.1v-4h1.4v3.5c0 .4.1.8.5.8s.5-.3.5-.8v-3.5h1.4v5H364v-.5zm3.6-1.1c0 .2 0 .5.1.6.1.2.2.2.5.2s.5-.2.5-.5c0-1.1-2.5-.8-2.5-2.4 0-1.1 1.1-1.4 2-1.4 1 0 1.8.5 1.7 1.5h-1.4c0-.3 0-.6-.1-.7-.1-.1-.2-.1-.4-.1-.3 0-.5.2-.5.5 0 .8 2.5.8 2.5 2.4 0 .9-.7 1.5-1.9 1.5s-2-.3-2-1.7h1.5z" class="st3"/>
  <path d="M65.8 291.1H159" class="st4"/>
  <g id="graph">
    <path d="M43.7 185.6H18.2c-1.8 0-3.3-1.5-3.3-3.3V159c0-1.8 1.5-3.3 3.3-3.3h25.5c1.8 0 3.3 1.5 3.3 3.3v23.3c0 1.8-1.5 3.3-3.3 3.3z" class="st3"/>
    <path d="M15.8 180.4h30.3m-30.3-2.7h30.3m-30.3-2.8h30.3m-30.3-2.7h30.3m-30.3-2.7h30.3" class="st6"/>
    <path d="M18 164.4h2.1v16H18zm16.5 0h2.1v16h-2.1zm-12.3 0h2.1v16h-2.1zm4.1-1.1h2.1v17.1h-2.1zm4.1-4.3h2.1v21.4h-2.1z" class="st5"/>
  </g>
  <path d="M52.1 184.1h129.1" class="st4"/>
  <path d="M189.2 174.9v-7.2h1.5v7.2h-1.5zm4.8-6.3c-.6 0-.7.2-.7.7v.6h.7v.9h-.7v4.2h-1.4v-4.2h-.6v-.9h.6c0-1.4-.1-2.2 1.6-2.2h.5v.9zm6.7 1.3v5.3c0 .3 0 1.7-1.9 1.7-1 0-1.9-.3-2-1.5h1.4c0 .2 0 .4.1.5.1.1.2.2.5.2s.5-.3.5-.8v-1c-.2.4-.6.6-1.1.6-1.5 0-1.5-1.4-1.5-2.6 0-1.1 0-2.5 1.5-2.5.5 0 .9.2 1.1.7v-.6h1.4zm-2 4.1c.5 0 .6-.5.6-1.6s0-1.7-.6-1.7c-.5 0-.6.4-.6 1.9 0 .4 0 1.4.6 1.4zm4.7-6.3v1.1H202v-1.1h1.4zm0 7.2H202v-5h1.4v5zm.8-5h1.4l.7 3.8.7-3.8h1.4l-1.4 5h-1.5l-1.3-5zm6.2 2.8c0 .6 0 1.5.6 1.5.5 0 .6-.5.6-.9h1.4c0 .5-.2 1-.5 1.3-.3.3-.8.5-1.5.5-1.8 0-2.1-1.1-2.1-2.7 0-1.4.2-2.6 2.1-2.6 1.9 0 2.1 1.2 2.1 2.8h-2.7zm1.3-.8c0-.5 0-1.2-.6-1.2s-.6.8-.6 1.2h1.2zm3.8-1.5c.2-.2.3-.4.5-.5.2-.1.4-.1.7-.1.7 0 1.3.4 1.3 1.1v4h-1.4v-3.5c0-.4-.1-.8-.5-.8s-.5.3-.5.8v3.5h-1.4v-5h1.4v.5zm9.6 3.6c0 .3 0 .6.1.9h-1.3l-.1-.7c-.3.5-.7.8-1.3.8-1 0-1.3-.7-1.3-1.6 0-1.7 1.3-1.7 2.6-1.7v-.4c0-.4-.1-.7-.6-.7s-.5.4-.5.8h-1.4c0-.6.2-1 .5-1.2.3-.2.8-.3 1.3-.3 1.8 0 2 .8 2 1.7v2.4zm-2.6-.6c0 .4.1.8.5.8.8 0 .7-1.1.7-1.7-.6 0-1.2 0-1.2.9zm8.6-1.7c0-.8-.2-1-.6-1-.6 0-.6.5-.6 1.6 0 1.5.1 1.9.6 1.9.4 0 .6-.4.6-1.1h1.4c0 1.4-.7 2-2.1 2-1.8 0-2.1-1.1-2.1-2.7 0-1.4.2-2.6 2.1-2.6 1.3 0 2 .6 2 1.9h-1.3zm4.9 3.2v-3.5c0-.4-.1-.8-.5-.8s-.5.3-.5.8v3.5h-1.4v-7.2h1.4v2.7c.1-.2.3-.4.5-.5.2-.1.4-.1.7-.1.7 0 1.3.4 1.3 1.1v4H236zm2.4-2.5c0-1.4.2-2.6 2.1-2.6s2.1 1.2 2.1 2.6c0 1.6-.2 2.7-2.1 2.7s-2.1-1.2-2.1-2.7zm2.7-.1c0-1-.1-1.6-.6-1.6s-.6.5-.6 1.6c0 1.5.1 1.9.6 1.9.5-.1.6-.4.6-1.9zm4-4.6v1.1h-1.4v-1.1h1.4zm0 7.2h-1.4v-5h1.4v5zm3.8-3.2c0-.8-.2-1-.6-1-.6 0-.6.5-.6 1.6 0 1.5.1 1.9.6 1.9.4 0 .6-.4.6-1.1h1.4c0 1.4-.7 2-2.1 2-1.8 0-2.1-1.1-2.1-2.7 0-1.4.2-2.6 2.1-2.6 1.3 0 2 .6 2 1.9h-1.3zm3.7 1c0 .6 0 1.5.6 1.5.5 0 .6-.5.6-.9h1.4c0 .5-.2 1-.5 1.3-.3.3-.8.5-1.5.5-1.8 0-2.1-1.1-2.1-2.7 0-1.4.2-2.6 2.1-2.6 1.9 0 2.1 1.2 2.1 2.8h-2.7zm1.3-.8c0-.5 0-1.2-.6-1.2s-.6.8-.6 1.2h1.2zm2.5 1.7h1.3l-.8 2.3h-1l.5-2.3zm6.9-1.9c0-.8-.2-1-.6-1-.6 0-.6.5-.6 1.6 0 1.5.1 1.9.6 1.9.4 0 .6-.4.6-1.1h1.4c0 1.4-.7 2-2.1 2-1.8 0-2.1-1.1-2.1-2.7 0-1.4.2-2.6 2.1-2.6 1.3 0 2 .6 2 1.9h-1.3zm4.9 3.2v-3.5c0-.4-.1-.8-.5-.8s-.5.3-.5.8v3.5h-1.4v-7.2h1.4v2.7c.1-.2.3-.4.5-.5.2-.1.4-.1.7-.1.7 0 1.3.4 1.3 1.1v4h-1.5zm2.4-2.5c0-1.4.2-2.6 2.1-2.6s2.1 1.2 2.1 2.6c0 1.6-.2 2.7-2.1 2.7s-2.1-1.2-2.1-2.7zm2.7-.1c0-1-.1-1.6-.6-1.6s-.6.5-.6 1.6c0 1.5.1 1.9.6 1.9.5-.1.6-.4.6-1.9zm2.3.1c0-1.4.2-2.6 2.1-2.6s2.1 1.2 2.1 2.6c0 1.6-.2 2.7-2.1 2.7s-2.1-1.2-2.1-2.7zm2.7-.1c0-1-.1-1.6-.6-1.6s-.6.5-.6 1.6c0 1.5.1 1.9.6 1.9.5-.1.6-.4.6-1.9zm3.6 1c0 .2 0 .5.1.6.1.2.2.2.5.2s.5-.2.5-.5c0-1.1-2.5-.8-2.5-2.4 0-1.1 1.1-1.4 2-1.4 1 0 1.8.5 1.7 1.5h-1.4c0-.4 0-.6-.1-.7-.1-.1-.2-.1-.4-.1-.3 0-.5.2-.5.5 0 .8 2.5.8 2.5 2.4 0 .9-.7 1.5-1.9 1.5s-2-.3-2-1.7h1.5zm4.6-.6c0 .6 0 1.5.6 1.5.5 0 .6-.5.6-.9h1.4c0 .5-.2 1-.5 1.3-.3.3-.8.5-1.5.5-1.8 0-2.1-1.1-2.1-2.7 0-1.4.2-2.6 2.1-2.6 1.9 0 2.1 1.2 2.1 2.8h-2.7zm1.3-.8c0-.5 0-1.2-.6-1.2s-.6.8-.6 1.2h1.2zm6.8-3.3c-.6 0-.7.2-.7.7v.6h.7v.9h-.7v4.2h-1.4v-4.2h-.6v-.9h.6c0-1.4-.1-2.2 1.6-2.2h.5v.9zm4.4 5.4c0 .3 0 .6.1.9h-1.3l-.1-.7c-.3.5-.7.8-1.3.8-1 0-1.3-.7-1.3-1.6 0-1.7 1.3-1.7 2.6-1.7v-.4c0-.4-.1-.7-.6-.7s-.5.4-.5.8h-1.4c0-.6.2-1 .5-1.2.3-.2.8-.3 1.3-.3 1.8 0 2 .8 2 1.7v2.4zm-2.6-.6c0 .4.1.8.5.8.8 0 .7-1.1.7-1.7-.7 0-1.2 0-1.2.9zm6.4-1.7c0-.8-.2-1-.6-1-.6 0-.6.5-.6 1.6 0 1.5.1 1.9.6 1.9.4 0 .6-.4.6-1.1h1.4c0 1.4-.7 2-2.1 2-1.8 0-2.1-1.1-2.1-2.7 0-1.4.2-2.6 2.1-2.6 1.3 0 2 .6 2 1.9h-1.3zm1.8-1.8h.6v-.8l1.4-.6v1.4h.7v.9h-.7v2.7c0 .4 0 .6.4.6h.2v.9h-.7c-1.2 0-1.4-.8-1.4-1.1v-3.1h-.6v-.9zm5.8 4.5c-.2.2-.3.4-.5.5-.2.1-.4.1-.7.1-.7 0-1.3-.4-1.3-1.1v-4h1.4v3.5c0 .4.1.8.5.8s.5-.3.5-.8v-3.5h1.4v5h-1.5v-.5zm6.4-.4c0 .3 0 .6.1.9h-1.3l-.1-.7c-.3.5-.7.8-1.3.8-1 0-1.3-.7-1.3-1.6 0-1.7 1.3-1.7 2.6-1.7v-.4c0-.4-.1-.7-.6-.7s-.5.4-.5.8H313c0-.6.2-1 .5-1.2.3-.2.8-.3 1.3-.3 1.8 0 2 .8 2 1.7v2.4zm-2.6-.6c0 .4.1.8.5.8.8 0 .7-1.1.7-1.7-.7 0-1.2 0-1.2.9zm5.3-5.7v7.2h-1.4v-7.2h1.4zm7.3 6.3c0 .3 0 .6.1.9h-1.3l-.1-.7c-.3.5-.7.8-1.3.8-1 0-1.3-.7-1.3-1.6 0-1.7 1.3-1.7 2.6-1.7v-.4c0-.4-.1-.7-.6-.7s-.5.4-.5.8H323c0-.6.2-1 .5-1.2.3-.2.8-.3 1.3-.3 1.8 0 2 .8 2 1.7v2.4zm-2.6-.6c0 .4.1.8.5.8.8 0 .7-1.1.7-1.7-.7 0-1.2 0-1.2.9zm4.9-.1c0 .2 0 .5.1.6.1.2.2.2.5.2s.5-.2.5-.5c0-1.1-2.5-.8-2.5-2.4 0-1.1 1.1-1.4 2-1.4 1 0 1.8.5 1.7 1.5H330c0-.4 0-.6-.1-.7-.1-.1-.2-.1-.4-.1-.3 0-.5.2-.5.5 0 .8 2.5.8 2.5 2.4 0 .9-.7 1.5-1.9 1.5s-2-.3-2-1.7h1.5zm4.4 0c0 .2 0 .5.1.6.1.2.2.2.5.2s.5-.2.5-.5c0-1.1-2.5-.8-2.5-2.4 0-1.1 1.1-1.4 2-1.4 1 0 1.8.5 1.7 1.5h-1.4c0-.4 0-.6-.1-.7-.1-.1-.2-.1-.4-.1-.3 0-.5.2-.5.5 0 .8 2.5.8 2.5 2.4 0 .9-.7 1.5-1.9 1.5s-2-.3-2-1.7h1.5zm4.9-5.6v1.1H337v-1.1h1.4zm0 7.2H337v-5h1.4v5zm5.1-5v5.3c0 .3 0 1.7-1.9 1.7-1 0-1.9-.3-2-1.5h1.4c0 .2 0 .4.1.5.1.1.2.2.5.2s.5-.3.5-.8v-1c-.2.4-.6.6-1.1.6-1.5 0-1.5-1.4-1.5-2.6 0-1.1 0-2.5 1.5-2.5.5 0 .9.2 1.1.7v-.6h1.4zm-2 4.1c.5 0 .6-.5.6-1.6s0-1.7-.6-1.7c-.5 0-.6.4-.6 1.9 0 .4-.1 1.4.6 1.4zm4.5-3.6c.2-.2.3-.4.5-.5.2-.1.4-.1.7-.1.7 0 1.3.4 1.3 1.1v4h-1.4v-3.5c0-.4-.1-.8-.5-.8s-.5.3-.5.8v3.5h-1.4v-5h1.4v.5zm4.9 0c.3-.5.7-.6 1.2-.6s.9.2 1.1.6c.3-.4.7-.6 1.3-.6.7 0 1.3.4 1.3 1.1v4h-1.4v-3.5c0-.4-.1-.8-.5-.8s-.5.3-.5.8v3.5H352v-3.5c0-.4-.1-.8-.5-.8s-.5.3-.5.8v3.5h-1.4v-5h1.4v.5zm7.3 2.3c0 .6 0 1.5.6 1.5.5 0 .6-.5.6-.9h1.4c0 .5-.2 1-.5 1.3-.3.3-.8.5-1.5.5-1.8 0-2.1-1.1-2.1-2.7 0-1.4.2-2.6 2.1-2.6 1.9 0 2.1 1.2 2.1 2.8h-2.7zm1.2-.8c0-.5 0-1.2-.6-1.2s-.6.8-.6 1.2h1.2zm3.9-1.5c.2-.2.3-.4.5-.5.2-.1.4-.1.7-.1.7 0 1.3.4 1.3 1.1v4h-1.4v-3.5c0-.4-.1-.8-.5-.8s-.5.3-.5.8v3.5H362v-5h1.4v.5zm3-.5h.6v-.8l1.4-.6v1.4h.7v.9h-.7v2.7c0 .4 0 .6.4.6h.2v.9h-.7c-1.2 0-1.4-.8-1.4-1.1v-3.1h-.6v-.9zm4.4 3.4c0 .2 0 .5.1.6.1.2.2.2.5.2s.5-.2.5-.5c0-1.1-2.5-.8-2.5-2.4 0-1.1 1.1-1.4 2-1.4 1 0 1.8.5 1.7 1.5h-1.4c0-.4 0-.6-.1-.7-.1-.1-.2-.1-.4-.1-.3 0-.5.2-.5.5 0 .8 2.5.8 2.5 2.4 0 .9-.7 1.5-1.9 1.5s-2-.3-2-1.7h1.5zM192.9 186c0 .3 0 .6.1.9h-1.3l-.1-.7c-.3.5-.7.8-1.3.8-1 0-1.3-.7-1.3-1.6 0-1.7 1.3-1.7 2.6-1.7v-.4c0-.4-.1-.7-.6-.7s-.5.4-.5.8h-1.4c0-.6.2-1 .5-1.2.3-.2.8-.3 1.3-.3 1.8 0 2 .8 2 1.7v2.4zm-2.6-.6c0 .4.1.8.5.8.8 0 .7-1.1.7-1.7-.7 0-1.2 0-1.2.9zm4.9-.1c0 .2 0 .5.1.6.1.2.2.2.5.2s.5-.2.5-.5c0-1.1-2.5-.8-2.5-2.4 0-1.1 1.1-1.4 2-1.4 1 0 1.8.5 1.7 1.5h-1.4c0-.4 0-.6-.1-.7-.1-.1-.2-.1-.4-.1-.3 0-.5.2-.5.5 0 .8 2.5.8 2.5 2.4 0 .9-.7 1.5-1.9 1.5s-2-.3-2-1.7h1.5zm5.4-.9c0-1.4.2-2.6 2.1-2.6s2.1 1.2 2.1 2.6c0 1.6-.2 2.7-2.1 2.7-1.8-.1-2.1-1.2-2.1-2.7zm2.7-.1c0-1-.1-1.6-.6-1.6s-.6.5-.6 1.6c0 1.5.1 1.9.6 1.9.5-.1.6-.4.6-1.9zm3.8-2.4v.6c.3-.5.6-.7 1.2-.7 1.5 0 1.4 1.6 1.4 2.7 0 1 0 2.6-1.4 2.6-.5 0-.9-.1-1.1-.6v2.6h-1.4v-7.2h1.3zm1.2 2.5c0-1 0-1.7-.6-1.7s-.6.7-.6 1.7c0 1.3.1 1.8.6 1.8s.6-.5.6-1.8zm3.8-2.5v.6c.3-.5.6-.7 1.2-.7 1.5 0 1.4 1.6 1.4 2.7 0 1 0 2.6-1.4 2.6-.5 0-.9-.1-1.1-.6v2.6h-1.4v-7.2h1.3zm1.2 2.5c0-1 0-1.7-.6-1.7s-.6.7-.6 1.7c0 1.3.1 1.8.6 1.8s.6-.5.6-1.8zm2.3 0c0-1.4.2-2.6 2.1-2.6s2.1 1.2 2.1 2.6c0 1.6-.2 2.7-2.1 2.7-1.8-.1-2.1-1.2-2.1-2.7zm2.7-.1c0-1-.1-1.6-.6-1.6s-.6.5-.6 1.6c0 1.5.1 1.9.6 1.9.5-.1.6-.4.6-1.9zm3.6 1c0 .2 0 .5.1.6.1.2.2.2.5.2s.5-.2.5-.5c0-1.1-2.5-.8-2.5-2.4 0-1.1 1.1-1.4 2-1.4 1 0 1.8.5 1.7 1.5h-1.4c0-.4 0-.6-.1-.7-.1-.1-.2-.1-.4-.1-.3 0-.5.2-.5.5 0 .8 2.5.8 2.5 2.4 0 .9-.7 1.5-1.9 1.5s-2-.3-2-1.7h1.5zm4.6-.6c0 .6 0 1.5.6 1.5.5 0 .6-.5.6-.9h1.4c0 .5-.2 1-.5 1.3-.3.3-.8.5-1.5.5-1.8 0-2.1-1.1-2.1-2.7 0-1.4.2-2.6 2.1-2.6 1.9 0 2.1 1.2 2.1 2.8h-2.7zm1.3-.8c0-.5 0-1.2-.6-1.2s-.6.8-.6 1.2h1.2zm4.9 3v-.6c-.3.5-.6.7-1.2.7-1.5 0-1.4-1.6-1.4-2.7 0-1 0-2.6 1.4-2.6.5 0 .9.2 1.1.6v-2.6h1.4v7.2h-1.3zm-.1-2.5c0-1 0-1.7-.6-1.7s-.6.7-.6 1.7c0 1.3.1 1.8.6 1.8.6 0 .6-.5.6-1.8zm4.2-2.5h.6v-.8l1.4-.6v1.4h.7v.9h-.7v2.7c0 .4 0 .6.4.6h.2v.9h-.7c-1.2 0-1.4-.8-1.4-1.1v-3.1h-.6v-.9zm3.3 2.5c0-1.4.2-2.6 2.1-2.6s2.1 1.2 2.1 2.6c0 1.6-.2 2.7-2.1 2.7s-2.1-1.2-2.1-2.7zm2.7-.1c0-1-.1-1.6-.6-1.6s-.6.5-.6 1.6c0 1.5.1 1.9.6 1.9.5-.1.6-.4.6-1.9zm4.5.1c0-1.4.2-2.6 2.1-2.6s2.1 1.2 2.1 2.6c0 1.6-.2 2.7-2.1 2.7s-2.1-1.2-2.1-2.7zm2.7-.1c0-1-.1-1.6-.6-1.6s-.6.5-.6 1.6c0 1.5.1 1.9.6 1.9.5-.1.6-.4.6-1.9zm3.8-2.4v.6c.3-.5.6-.7 1.2-.7 1.5 0 1.4 1.6 1.4 2.7 0 1 0 2.6-1.4 2.6-.5 0-.9-.1-1.1-.6v2.6h-1.4v-7.2h1.3zm1.2 2.5c0-1 0-1.7-.6-1.7s-.6.7-.6 1.7c0 1.3.1 1.8.6 1.8s.6-.5.6-1.8zm3.7.3c0 .6 0 1.5.6 1.5.5 0 .6-.5.6-.9h1.4c0 .5-.2 1-.5 1.3-.3.3-.8.5-1.5.5-1.8 0-2.1-1.1-2.1-2.7 0-1.4.2-2.6 2.1-2.6 1.9 0 2.1 1.2 2.1 2.8h-2.7zm1.3-.8c0-.5 0-1.2-.6-1.2s-.6.8-.6 1.2h1.2zm3.8-1.5c.2-.2.3-.4.5-.5.2-.1.4-.1.7-.1.7 0 1.3.4 1.3 1.1v4h-1.4v-3.5c0-.4-.1-.8-.5-.8s-.5.3-.5.8v3.5h-1.4v-5h1.4v.5zm5.9 1.3v1h-2.4v-1h2.4zm2.3 1c0 .6 0 1.5.6 1.5.5 0 .6-.5.6-.9h1.4c0 .5-.2 1-.5 1.3-.3.3-.8.5-1.5.5-1.8 0-2.1-1.1-2.1-2.7 0-1.4.2-2.6 2.1-2.6 1.9 0 2.1 1.2 2.1 2.8H272zm1.3-.8c0-.5 0-1.2-.6-1.2s-.6.8-.6 1.2h1.2zm3.9-1.5c.2-.2.3-.4.5-.5.2-.1.4-.1.7-.1.7 0 1.3.4 1.3 1.1v4h-1.4v-3.5c0-.4-.1-.8-.5-.8s-.5.3-.5.8v3.5h-1.4v-5h1.4v.5zm6.1 4.5v-.6c-.3.5-.6.7-1.2.7-1.5 0-1.4-1.6-1.4-2.7 0-1 0-2.6 1.4-2.6.5 0 .9.2 1.1.6v-2.6h1.4v7.2h-1.3zm-.1-2.5c0-1 0-1.7-.6-1.7s-.6.7-.6 1.7c0 1.3.1 1.8.6 1.8s.6-.5.6-1.8zm3.8.3c0 .6 0 1.5.6 1.5.5 0 .6-.5.6-.9h1.4c0 .5-.2 1-.5 1.3-.3.3-.8.5-1.5.5-1.8 0-2.1-1.1-2.1-2.7 0-1.4.2-2.6 2.1-2.6 1.9 0 2.1 1.2 2.1 2.8H287zm1.3-.8c0-.5 0-1.2-.6-1.2s-.6.8-.6 1.2h1.2zm5 3v-.6c-.3.5-.6.7-1.2.7-1.5 0-1.4-1.6-1.4-2.7 0-1 0-2.6 1.4-2.6.5 0 .9.2 1.1.6v-2.6h1.4v7.2h-1.3zm-.1-2.5c0-1 0-1.7-.6-1.7s-.6.7-.6 1.7c0 1.3.1 1.8.6 1.8s.6-.5.6-1.8zm8.6 1.6c0 .3 0 .6.1.9h-1.3l-.1-.7c-.3.5-.7.8-1.3.8-1 0-1.3-.7-1.3-1.6 0-1.7 1.3-1.7 2.6-1.7v-.4c0-.4-.1-.7-.6-.7s-.5.4-.5.8H298c0-.6.2-1 .5-1.2.3-.2.8-.3 1.3-.3 1.8 0 2 .8 2 1.7v2.4zm-2.6-.6c0 .4.1.8.5.8.8 0 .7-1.1.7-1.7-.7 0-1.2 0-1.2.9zm4.9-.1c0 .2 0 .5.1.6.1.2.2.2.5.2s.5-.2.5-.5c0-1.1-2.5-.8-2.5-2.4 0-1.1 1.1-1.4 2-1.4 1 0 1.8.5 1.7 1.5H305c0-.4 0-.6-.1-.7-.1-.1-.2-.1-.4-.1-.3 0-.5.2-.5.5 0 .8 2.5.8 2.5 2.4 0 .9-.7 1.5-1.9 1.5s-2-.3-2-1.7h1.5zm4.4 0c0 .2 0 .5.1.6.1.2.2.2.5.2s.5-.2.5-.5c0-1.1-2.5-.8-2.5-2.4 0-1.1 1.1-1.4 2-1.4 1 0 1.8.5 1.7 1.5h-1.4c0-.4 0-.6-.1-.7-.1-.1-.2-.1-.4-.1-.3 0-.5.2-.5.5 0 .8 2.5.8 2.5 2.4 0 .9-.7 1.5-1.9 1.5s-2-.3-2-1.7h1.5zm4.9-5.6v1.1H312v-1.1h1.4zm0 7.2H312v-5h1.4v5zm5.1-5v5.3c0 .3 0 1.7-1.9 1.7-1 0-1.9-.3-2-1.5h1.4c0 .2 0 .4.1.5.1.1.2.2.5.2s.5-.3.5-.8v-1c-.2.4-.6.6-1.1.6-1.5 0-1.5-1.4-1.5-2.6 0-1.1 0-2.5 1.5-2.5.5 0 .9.2 1.1.7v-.6h1.4zm-2 4.1c.5 0 .6-.5.6-1.6s0-1.7-.6-1.7c-.5 0-.6.4-.6 1.9 0 .4-.1 1.4.6 1.4zm4.5-3.6c.2-.2.3-.4.5-.5.2-.1.4-.1.7-.1.7 0 1.3.4 1.3 1.1v4h-1.4v-3.5c0-.4-.1-.8-.5-.8s-.5.3-.5.8v3.5h-1.4v-5h1.4v.5zm4.9 0c.3-.5.7-.6 1.2-.6s.9.2 1.1.6c.3-.4.7-.6 1.3-.6.7 0 1.3.4 1.3 1.1v4h-1.4v-3.5c0-.4-.1-.8-.5-.8s-.5.3-.5.8v3.5H327v-3.5c0-.4-.1-.8-.5-.8s-.5.3-.5.8v3.5h-1.4v-5h1.4v.5zm7.2 2.3c0 .6 0 1.5.6 1.5.5 0 .6-.5.6-.9h1.4c0 .5-.2 1-.5 1.3-.3.3-.8.5-1.5.5-1.8 0-2.1-1.1-2.1-2.7 0-1.4.2-2.6 2.1-2.6 1.9 0 2.1 1.2 2.1 2.8h-2.7zm1.3-.8c0-.5 0-1.2-.6-1.2s-.6.8-.6 1.2h1.2zm3.9-1.5c.2-.2.3-.4.5-.5.2-.1.4-.1.7-.1.7 0 1.3.4 1.3 1.1v4h-1.4v-3.5c0-.4-.1-.8-.5-.8s-.5.3-.5.8v3.5H337v-5h1.4v.5zm3-.5h.6v-.8l1.4-.6v1.4h.7v.9h-.7v2.7c0 .4 0 .6.4.6h.2v.9h-.7c-1.2 0-1.4-.8-1.4-1.1v-3.1h-.6v-.9zm4.4 3.4c0 .2 0 .5.1.6.1.2.2.2.5.2s.5-.2.5-.5c0-1.1-2.5-.8-2.5-2.4 0-1.1 1.1-1.4 2-1.4 1 0 1.8.5 1.7 1.5h-1.4c0-.4 0-.6-.1-.7-.1-.1-.2-.1-.4-.1-.3 0-.5.2-.5.5 0 .8 2.5.8 2.5 2.4 0 .9-.7 1.5-1.9 1.5s-2-.3-2-1.7h1.5z" class="st3"/>
</svg>
