<?xml version="1.0" encoding="utf-8"?>
<!-- Generator: Adobe Illustrator 19.2.1, SVG Export Plug-In . SVG Version: 6.00 Build 0)  -->
<!DOCTYPE svg PUBLIC "-//W3C//DTD SVG 1.1//EN" "http://www.w3.org/Graphics/SVG/1.1/DTD/svg11.dtd">
<svg version="1.1" id="Layer_1" xmlns="http://www.w3.org/2000/svg" xmlns:xlink="http://www.w3.org/1999/xlink" x="0px" y="0px"
	 width="383.3px" height="312.1px" viewBox="0 0 383.3 312.1" style="enable-background:new 0 0 383.3 312.1;" xml:space="preserve"
	>
<style type="text/css">
	.Drop_x0020_Shadow{fill:none;}
	.Outer_x0020_Glow_x0020_5_x0020_pt{fill:none;}
	.Blue_x0020_Neon{fill:none;stroke:#8AACDA;stroke-width:7;stroke-linecap:round;stroke-linejoin:round;}
	.Chrome_x0020_Highlight{fill:url(#SVGID_1_);stroke:#FFFFFF;stroke-width:0.3629;stroke-miterlimit:1;}
	.Jive_GS{fill:#FFDD00;}
	.Alyssa_GS{fill:#A6D0E4;}
	.st0{opacity:0.8;fill:#0A3656;}
	.st1{fill:#ED5A49;}
	.st2{fill:#ED5A49;stroke:#221F1F;stroke-width:0.1836;stroke-miterlimit:10;}
	.st3{fill:#0A3656;}
	
		.st4{fill:none;stroke:#ED5A49;stroke-width:2;stroke-linecap:round;stroke-linejoin:round;stroke-miterlimit:10;stroke-dasharray:0,8;}
	.st5{fill:#E9F5FC;}
	.st6{fill:none;stroke:#E9F5FC;stroke-width:0.1274;stroke-linecap:round;stroke-linejoin:round;stroke-miterlimit:10;}
	.st7{fill:#C12944;}
	.st8{fill:#F5F1ED;}
	.st9{fill:#542337;}
	.st10{fill:#FFFFFF;}
	.st11{fill:none;stroke:#C12944;stroke-width:0.8464;stroke-linecap:round;stroke-linejoin:round;stroke-miterlimit:10;}
	.st12{fill:#C12944;stroke:#C12944;stroke-width:0.7245;stroke-linecap:round;stroke-linejoin:round;stroke-miterlimit:10;}
	.st13{fill:none;stroke:#542337;stroke-width:0.378;stroke-linecap:round;stroke-linejoin:round;stroke-miterlimit:10;}
	.st14{fill:#DDE8F0;}
	.st15{fill:#491B2E;}
	.st16{clip-path:url(#SVGID_3_);}
	.st17{fill:#E6E7E8;}
	.st18{clip-path:url(#SVGID_5_);}
</style>
<linearGradient id="SVGID_1_" gradientUnits="userSpaceOnUse" x1="-444.2121" y1="-114.8182" x2="-444.2121" y2="-115.8182">
	<stop  offset="0" style="stop-color:#656565"/>
	<stop  offset="0.618" style="stop-color:#1B1B1B"/>
	<stop  offset="0.6292" style="stop-color:#545454"/>
	<stop  offset="0.9831" style="stop-color:#3E3E3E"/>
</linearGradient>
<g>
	<g>
		<path class="st3" d="M243.8,40.9h-1.5v-7.2h2.8c1,0,1.7,0.7,1.7,1.9c0,0.9-0.4,1.6-1.3,1.8v0c0.3,0,1.3,0.1,1.3,1.4
			c0,0.5,0,1.8,0.2,2.1h-1.5c-0.2-0.4-0.2-0.9-0.2-1.4c0-0.9,0.1-1.6-1.1-1.6h-0.4V40.9z M243.8,36.8h0.7c0.6,0,0.8-0.6,0.8-1.1
			c0-0.7-0.3-0.9-0.8-0.9h-0.7V36.8z"/>
		<path class="st3" d="M249.2,38.6c0,0.6,0,1.5,0.6,1.5c0.5,0,0.6-0.5,0.6-0.9h1.4c0,0.5-0.2,1-0.5,1.3c-0.3,0.3-0.8,0.5-1.5,0.5
			c-1.8,0-2.1-1.1-2.1-2.7c0-1.4,0.2-2.6,2.1-2.6c1.9,0,2.1,1.2,2.1,2.8H249.2z M250.4,37.8c0-0.5,0-1.2-0.6-1.2
			c-0.7,0-0.6,0.8-0.6,1.2H250.4z"/>
		<path class="st3" d="M254.2,36.3L254.2,36.3c0.3-0.5,0.7-0.6,1.2-0.6c0.5,0,0.9,0.2,1.1,0.6c0.3-0.4,0.7-0.6,1.3-0.6
			c0.7,0,1.3,0.4,1.3,1.1v4h-1.4v-3.5c0-0.4-0.1-0.8-0.5-0.8c-0.4,0-0.5,0.3-0.5,0.8v3.5h-1.4v-3.5c0-0.4-0.1-0.8-0.5-0.8
			s-0.5,0.3-0.5,0.8v3.5h-1.4v-5h1.4V36.3z"/>
		<path class="st3" d="M261.4,38.6c0,0.6,0,1.5,0.6,1.5c0.5,0,0.6-0.5,0.6-0.9h1.4c0,0.5-0.2,1-0.5,1.3c-0.3,0.3-0.8,0.5-1.5,0.5
			c-1.8,0-2.1-1.1-2.1-2.7c0-1.4,0.2-2.6,2.1-2.6c1.9,0,2.1,1.2,2.1,2.8H261.4z M262.7,37.8c0-0.5,0-1.2-0.6-1.2
			c-0.7,0-0.6,0.8-0.6,1.2H262.7z"/>
		<path class="st3" d="M266.4,36.3L266.4,36.3c0.3-0.5,0.7-0.6,1.2-0.6c0.5,0,0.9,0.2,1.1,0.6c0.3-0.4,0.7-0.6,1.3-0.6
			c0.7,0,1.3,0.4,1.3,1.1v4h-1.4v-3.5c0-0.4-0.1-0.8-0.5-0.8c-0.4,0-0.5,0.3-0.5,0.8v3.5h-1.4v-3.5c0-0.4-0.1-0.8-0.5-0.8
			s-0.5,0.3-0.5,0.8v3.5H265v-5h1.4V36.3z"/>
		<path class="st3" d="M272.3,33.7h1.4v2.6h0c0.3-0.4,0.6-0.6,1.1-0.6c1.4,0,1.4,1.6,1.4,2.6c0,1,0,2.7-1.4,2.7
			c-0.5,0-0.9-0.2-1.2-0.7h0v0.6h-1.3V33.7z M274.9,38.3c0-1,0-1.7-0.6-1.7c-0.6,0-0.6,0.7-0.6,1.7c0,1.3,0.1,1.8,0.6,1.8
			C274.8,40.1,274.9,39.6,274.9,38.3z"/>
		<path class="st3" d="M278.6,38.6c0,0.6,0,1.5,0.6,1.5c0.5,0,0.6-0.5,0.6-0.9h1.4c0,0.5-0.2,1-0.5,1.3c-0.3,0.3-0.8,0.5-1.5,0.5
			c-1.8,0-2.1-1.1-2.1-2.7c0-1.4,0.2-2.6,2.1-2.6c1.9,0,2.1,1.2,2.1,2.8H278.6z M279.9,37.8c0-0.5,0-1.2-0.6-1.2
			c-0.7,0-0.6,0.8-0.6,1.2H279.9z"/>
		<path class="st3" d="M283.6,35.8v0.6h0c0.3-0.6,0.7-0.8,1.3-0.8V37c-1.2-0.1-1.3,0.6-1.3,1.1v2.7h-1.4v-5H283.6z"/>
		<path class="st3" d="M287.3,35.8h0.6V35l1.4-0.6v1.4h0.7v0.9h-0.7v2.7c0,0.4,0,0.6,0.5,0.6c0.1,0,0.2,0,0.2,0v0.9
			c-0.2,0-0.4,0-0.7,0c-1.2,0-1.4-0.8-1.4-1.1v-3.1h-0.6V35.8z"/>
		<path class="st3" d="M290.5,38.3c0-1.4,0.2-2.6,2.1-2.6c1.9,0,2.1,1.2,2.1,2.6c0,1.6-0.2,2.7-2.1,2.7
			C290.7,41,290.5,39.9,290.5,38.3z M293.2,38.2c0-1,0-1.6-0.6-1.6s-0.7,0.5-0.7,1.6c0,1.5,0.1,1.9,0.7,1.9
			C293.1,40.1,293.2,39.8,293.2,38.2z"/>
		<path class="st3" d="M301.7,39.9c0,0.3,0,0.6,0.1,0.9h-1.3l-0.1-0.7h0c-0.3,0.5-0.7,0.8-1.3,0.8c-1,0-1.3-0.7-1.3-1.6
			c0-1.7,1.3-1.7,2.6-1.7v-0.4c0-0.4-0.1-0.7-0.6-0.7c-0.5,0-0.5,0.4-0.5,0.8h-1.4c0-0.6,0.2-1,0.5-1.2c0.3-0.2,0.8-0.3,1.3-0.3
			c1.8,0,2,0.8,2,1.7V39.9z M299.1,39.3c0,0.4,0.1,0.8,0.5,0.8c0.8,0,0.7-1.1,0.7-1.7C299.6,38.5,299.1,38.4,299.1,39.3z"/>
		<path class="st3" d="M304.4,33.7v7.2H303v-7.2H304.4z"/>
		<path class="st3" d="M305.2,35.8h1.4l0.7,3.8h0l1-3.8h1.5l0.9,3.8h0l0.8-3.8h1.3l-1.4,5h-1.5l-0.9-3.4h0l-1,3.4h-1.5L305.2,35.8z"
			/>
		<path class="st3" d="M317.2,39.9c0,0.3,0,0.6,0.1,0.9H316l-0.1-0.7h0c-0.3,0.5-0.7,0.8-1.3,0.8c-1,0-1.3-0.7-1.3-1.6
			c0-1.7,1.3-1.7,2.6-1.7v-0.4c0-0.4-0.1-0.7-0.6-0.7c-0.5,0-0.5,0.4-0.5,0.8h-1.4c0-0.6,0.2-1,0.5-1.2c0.3-0.2,0.8-0.3,1.3-0.3
			c1.8,0,2,0.8,2,1.7V39.9z M314.6,39.3c0,0.4,0.1,0.8,0.5,0.8c0.8,0,0.7-1.1,0.7-1.7C315.2,38.5,314.6,38.4,314.6,39.3z"/>
		<path class="st3" d="M319.3,40.9l-1.4-5.1h1.4l0.7,3.5h0l0.8-3.5h1.4l-1.9,7h-1.5L319.3,40.9z"/>
		<path class="st3" d="M324,39.3c0,0.2,0,0.5,0.1,0.6c0.1,0.2,0.2,0.2,0.5,0.2c0.3,0,0.5-0.2,0.5-0.5c0-1.1-2.5-0.8-2.5-2.4
			c0-1.1,1.1-1.4,2-1.4c1,0,1.8,0.5,1.7,1.5h-1.4c0-0.4,0-0.6-0.1-0.7c-0.1-0.1-0.2-0.1-0.4-0.1c-0.3,0-0.5,0.2-0.5,0.5
			c0,0.8,2.5,0.8,2.5,2.4c0,0.9-0.7,1.5-1.9,1.5c-1.2,0-2-0.3-2-1.7H324z"/>
		<path class="st3" d="M330.8,35.8v0.6h0c0.3-0.5,0.6-0.7,1.2-0.7c1.5,0,1.4,1.6,1.4,2.7c0,1,0,2.6-1.4,2.6c-0.5,0-0.9-0.1-1.1-0.6
			h0V43h-1.4v-7.2H330.8z M332.1,38.3c0-1,0-1.7-0.6-1.7c-0.6,0-0.6,0.7-0.6,1.7c0,1.3,0.1,1.8,0.6,1.8
			C332,40.1,332.1,39.6,332.1,38.3z"/>
		<path class="st3" d="M335.8,35.8v0.6h0c0.3-0.6,0.7-0.8,1.3-0.8V37c-1.2-0.1-1.3,0.6-1.3,1.1v2.7h-1.4v-5H335.8z"/>
		<path class="st3" d="M339.4,33.7v1.1H338v-1.1H339.4z M339.4,40.9H338v-5h1.4V40.9z"/>
		<path class="st3" d="M340.5,38.3c0-1.4,0.2-2.6,2.1-2.6c1.9,0,2.1,1.2,2.1,2.6c0,1.6-0.2,2.7-2.1,2.7
			C340.7,41,340.5,39.9,340.5,38.3z M343.2,38.2c0-1,0-1.6-0.6-1.6s-0.7,0.5-0.7,1.6c0,1.5,0.1,1.9,0.7,1.9
			C343.1,40.1,343.2,39.8,343.2,38.2z"/>
		<path class="st3" d="M347,35.8v0.6h0c0.3-0.6,0.7-0.8,1.3-0.8V37c-1.2-0.1-1.3,0.6-1.3,1.1v2.7h-1.4v-5H347z"/>
		<path class="st3" d="M350.5,33.7v1.1h-1.4v-1.1H350.5z M350.5,40.9h-1.4v-5h1.4V40.9z"/>
		<path class="st3" d="M351.2,35.8h0.6V35l1.4-0.6v1.4h0.7v0.9h-0.7v2.7c0,0.4,0,0.6,0.5,0.6c0.1,0,0.2,0,0.2,0v0.9
			c-0.2,0-0.4,0-0.7,0c-1.2,0-1.4-0.8-1.4-1.1v-3.1h-0.6V35.8z"/>
		<path class="st3" d="M356,33.7v1.1h-1.4v-1.1H356z M356,40.9h-1.4v-5h1.4V40.9z"/>
		<path class="st3" d="M360.4,36.8l-2,3.1h2v0.9H357v-1l2-3.1H357v-0.9h3.3V36.8z"/>
		<path class="st3" d="M362.5,38.6c0,0.6,0,1.5,0.6,1.5c0.5,0,0.6-0.5,0.6-0.9h1.4c0,0.5-0.2,1-0.5,1.3c-0.3,0.3-0.8,0.5-1.5,0.5
			c-1.8,0-2.1-1.1-2.1-2.7c0-1.4,0.2-2.6,2.1-2.6c1.9,0,2.1,1.2,2.1,2.8H362.5z M363.8,37.8c0-0.5,0-1.2-0.6-1.2
			c-0.7,0-0.6,0.8-0.6,1.2H363.8z"/>
		<path class="st3" d="M244.5,46.5c-0.6,0-0.7,0.2-0.7,0.7v0.6h0.7v0.9h-0.7v4.2h-1.4v-4.2h-0.6v-0.9h0.6c0-1.4-0.1-2.2,1.6-2.2
			c0.2,0,0.3,0,0.5,0V46.5z M246.2,45.7v1.1h-1.4v-1.1H246.2z M246.2,52.9h-1.4v-5h1.4V52.9z"/>
		<path class="st3" d="M248.7,48.3L248.7,48.3c0.2-0.2,0.3-0.4,0.5-0.5c0.2-0.1,0.4-0.1,0.7-0.1c0.7,0,1.3,0.4,1.3,1.1v4h-1.4v-3.5
			c0-0.4-0.1-0.8-0.5-0.8c-0.5,0-0.5,0.3-0.5,0.8v3.5h-1.4v-5h1.4V48.3z"/>
		<path class="st3" d="M253.8,45.7v1.1h-1.4v-1.1H253.8z M253.8,52.9h-1.4v-5h1.4V52.9z"/>
		<path class="st3" d="M256.2,51.3c0,0.2,0,0.5,0.1,0.6c0.1,0.2,0.2,0.2,0.5,0.2c0.3,0,0.5-0.2,0.5-0.5c0-1.1-2.5-0.8-2.5-2.4
			c0-1.1,1.1-1.4,2-1.4c1,0,1.8,0.5,1.7,1.5h-1.4c0-0.4,0-0.6-0.1-0.7c-0.1-0.1-0.2-0.1-0.4-0.1c-0.3,0-0.5,0.2-0.5,0.5
			c0,0.8,2.5,0.8,2.5,2.4c0,0.9-0.7,1.5-1.9,1.5c-1.2,0-2-0.3-2-1.7H256.2z"/>
		<path class="st3" d="M262,52.9v-3.5c0-0.4-0.1-0.8-0.5-0.8c-0.5,0-0.5,0.3-0.5,0.8v3.5h-1.4v-7.2h1.4v2.7h0
			c0.1-0.2,0.3-0.4,0.5-0.5c0.2-0.1,0.4-0.1,0.7-0.1c0.7,0,1.3,0.4,1.3,1.1v4H262z"/>
		<path class="st3" d="M266,45.7v1.1h-1.4v-1.1H266z M266,52.9h-1.4v-5h1.4V52.9z"/>
		<path class="st3" d="M268.7,48.3L268.7,48.3c0.2-0.2,0.3-0.4,0.5-0.5c0.2-0.1,0.4-0.1,0.7-0.1c0.7,0,1.3,0.4,1.3,1.1v4h-1.4v-3.5
			c0-0.4-0.1-0.8-0.5-0.8c-0.5,0-0.5,0.3-0.5,0.8v3.5h-1.4v-5h1.4V48.3z"/>
		<path class="st3" d="M276.2,47.8v5.3c0,0.3,0,1.7-1.9,1.7c-1,0-1.9-0.3-2-1.5h1.4c0,0.2,0,0.4,0.1,0.5c0.1,0.1,0.2,0.2,0.5,0.2
			c0.4,0,0.5-0.3,0.5-0.8v-1h0c-0.2,0.4-0.6,0.6-1.1,0.6c-1.5,0-1.5-1.4-1.5-2.6c0-1.1,0-2.5,1.5-2.5c0.5,0,0.9,0.2,1.1,0.7h0v-0.6
			H276.2z M274.2,51.9c0.5,0,0.6-0.5,0.6-1.6c0-1.1-0.1-1.7-0.6-1.7c-0.5,0-0.6,0.4-0.6,1.9C273.6,51,273.5,51.9,274.2,51.9z"/>
		<path class="st3" d="M280.4,52.9l-1.4-5.1h1.4l0.7,3.5h0l0.8-3.5h1.4l-1.9,7h-1.5L280.4,52.9z"/>
		<path class="st3" d="M283.8,50.3c0-1.4,0.2-2.6,2.1-2.6c1.9,0,2.1,1.2,2.1,2.6c0,1.6-0.2,2.7-2.1,2.7
			C284.1,53,283.8,51.9,283.8,50.3z M286.5,50.2c0-1,0-1.6-0.6-1.6s-0.7,0.5-0.7,1.6c0,1.5,0.1,1.9,0.7,1.9
			C286.4,52.1,286.5,51.8,286.5,50.2z"/>
		<path class="st3" d="M291.4,52.4L291.4,52.4c-0.2,0.2-0.3,0.4-0.5,0.5c-0.2,0.1-0.4,0.1-0.7,0.1c-0.7,0-1.3-0.4-1.3-1.1v-4h1.4
			v3.5c0,0.4,0.1,0.8,0.5,0.8c0.4,0,0.5-0.3,0.5-0.8v-3.5h1.4v4c0,0.3,0,0.7,0,1h-1.5V52.4z"/>
		<path class="st3" d="M295.3,47.8v0.6h0c0.3-0.6,0.7-0.8,1.3-0.8V49c-1.2-0.1-1.3,0.6-1.3,1.1v2.7H294v-5H295.3z"/>
		<path class="st3" d="M300.8,47.8v0.6h0c0.3-0.5,0.6-0.7,1.2-0.7c1.5,0,1.4,1.6,1.4,2.7c0,1,0,2.6-1.4,2.6c-0.5,0-0.9-0.1-1.1-0.6
			h0V55h-1.4v-7.2H300.8z M302.1,50.3c0-1,0-1.7-0.6-1.7c-0.6,0-0.6,0.7-0.6,1.7c0,1.3,0.1,1.8,0.6,1.8
			C302,52.1,302.1,51.6,302.1,50.3z"/>
		<path class="st3" d="M305.8,47.8v0.6h0c0.3-0.6,0.7-0.8,1.3-0.8V49c-1.2-0.1-1.3,0.6-1.3,1.1v2.7h-1.4v-5H305.8z"/>
		<path class="st3" d="M307.7,50.3c0-1.4,0.2-2.6,2.1-2.6c1.9,0,2.1,1.2,2.1,2.6c0,1.6-0.2,2.7-2.1,2.7
			C308,53,307.7,51.9,307.7,50.3z M310.4,50.2c0-1,0-1.6-0.6-1.6s-0.7,0.5-0.7,1.6c0,1.5,0.1,1.9,0.7,1.9
			C310.3,52.1,310.4,51.8,310.4,50.2z"/>
		<path class="st3" d="M314.4,47.8v5.5c0,1-0.5,1.4-1.3,1.4c-0.2,0-0.3,0-0.5,0v-0.9c0.2,0,0.4,0,0.4-0.4v-5.6H314.4z M314.4,45.7
			v1.1H313v-1.1H314.4z"/>
		<path class="st3" d="M316.9,50.6c0,0.6,0,1.5,0.6,1.5c0.5,0,0.6-0.5,0.6-0.9h1.4c0,0.5-0.2,1-0.5,1.3c-0.3,0.3-0.8,0.5-1.5,0.5
			c-1.8,0-2.1-1.1-2.1-2.7c0-1.4,0.2-2.6,2.1-2.6c1.9,0,2.1,1.2,2.1,2.8H316.9z M318.2,49.8c0-0.5,0-1.2-0.6-1.2
			c-0.7,0-0.6,0.8-0.6,1.2H318.2z"/>
		<path class="st3" d="M323.2,49.6c0-0.8-0.2-1-0.6-1c-0.6,0-0.7,0.5-0.7,1.6c0,1.5,0.1,1.9,0.7,1.9c0.4,0,0.6-0.4,0.6-1.1h1.4
			c0,1.4-0.7,2-2.1,2c-1.8,0-2.1-1.1-2.1-2.7c0-1.4,0.2-2.6,2.1-2.6c1.3,0,2,0.6,2,1.9H323.2z"/>
		<path class="st3" d="M325,47.8h0.6V47l1.4-0.6v1.4h0.7v0.9H327v2.7c0,0.4,0,0.6,0.5,0.6c0.1,0,0.2,0,0.2,0v0.9c-0.2,0-0.4,0-0.7,0
			c-1.2,0-1.4-0.8-1.4-1.1v-3.1H325V47.8z"/>
		<path class="st3" d="M329.5,51.3c0,0.2,0,0.5,0.1,0.6c0.1,0.2,0.2,0.2,0.5,0.2c0.3,0,0.5-0.2,0.5-0.5c0-1.1-2.5-0.8-2.5-2.4
			c0-1.1,1.1-1.4,2-1.4c1,0,1.8,0.5,1.7,1.5h-1.4c0-0.4,0-0.6-0.1-0.7c-0.1-0.1-0.2-0.1-0.4-0.1c-0.3,0-0.5,0.2-0.5,0.5
			c0,0.8,2.5,0.8,2.5,2.4c0,0.9-0.7,1.5-1.9,1.5c-1.2,0-2-0.3-2-1.7H329.5z"/>
	</g>
	<g id="hourglass">
		<g>
			<path class="st7" d="M39.7,13.1H13.9c-1,0-1.9-0.8-1.9-1.9v0c0-1,0.8-1.9,1.9-1.9h25.8c1,0,1.9,0.8,1.9,1.9v0
				C41.6,12.3,40.8,13.1,39.7,13.1z"/>
		</g>
		<g>
			<path class="st7" d="M39.7,55.5H13.9c-1,0-1.9-0.8-1.9-1.9v0c0-1,0.8-1.9,1.9-1.9h25.8c1,0,1.9,0.8,1.9,1.9v0
				C41.6,54.7,40.8,55.5,39.7,55.5z"/>
		</g>
		<g>
			<path class="st8" d="M13.3,12.1c0,0,1.3,9.4,3.9,14.1c2.4,4.3,7.8,6.2,5.2,9.2c-3.8,4.4-8.8,9.4-9.2,15.9
				c-0.1,1.3,0.9,2.3,2.2,2.3h22.6c1.1,0,2-1,1.7-2.1C39,48,36.9,41.1,32,36.2c0,0-3.8-2.9,1.4-8S41,15,40.2,12.1H13.3z"/>
		</g>
		<g>
			<path class="st9" d="M16.6,19.8c0,0,7.9,11.1,10.1,11.1s6.6-5.6,6.6-5.6s-3.7-0.8-7.7,0S16.6,19.8,16.6,19.8z"/>
		</g>
		<g>
			<path class="st9" d="M18.3,49.9c-1.3,0-2-1.5-1.2-2.6c2.3-2.7,6.1-6.6,9.5-6.6c3.4,0,7.3,3.9,9.6,6.6c0.9,1,0.1,2.6-1.2,2.6H18.3
				z"/>
		</g>
	</g>
	<line class="st4" x1="38.1" y1="54.8" x2="229.5" y2="54.8"/>
</g>
<g>
	<g>
		<path class="st3" d="M15.6,79.5v-7.2h2.7c1.1,0,2.1,0.3,2.1,1.9c0,0.8-0.4,1.4-1.2,1.6v0c1.1,0.2,1.3,0.8,1.3,1.8
			c0,1.8-1.6,1.9-2.2,1.9H15.6z M17.1,75.2h1c0.3,0,0.8-0.2,0.8-0.9c0-0.5-0.4-0.9-0.9-0.9h-0.9V75.2z M17.1,78.4H18c0.3,0,1,0,1-1
			c0-0.6-0.2-1-1-1h-0.9V78.4z"/>
		<path class="st3" d="M22.9,77.2c0,0.6,0,1.5,0.6,1.5c0.5,0,0.6-0.5,0.6-0.9h1.4c0,0.5-0.2,1-0.5,1.3c-0.3,0.3-0.8,0.5-1.5,0.5
			c-1.8,0-2.1-1.1-2.1-2.7c0-1.4,0.2-2.6,2.1-2.6c1.9,0,2.1,1.2,2.1,2.8H22.9z M24.2,76.4c0-0.5,0-1.2-0.6-1.2
			c-0.7,0-0.6,0.8-0.6,1.2H24.2z"/>
		<path class="st3" d="M31.4,76.2c0-0.8-0.2-1-0.6-1c-0.6,0-0.7,0.5-0.7,1.6c0,1.5,0.1,1.9,0.7,1.9c0.4,0,0.6-0.4,0.6-1.1h1.4
			c0,1.4-0.7,2-2.1,2c-1.8,0-2.1-1.1-2.1-2.7c0-1.4,0.2-2.6,2.1-2.6c1.3,0,2,0.6,2,1.9H31.4z"/>
		<path class="st3" d="M35.2,74.4v0.6h0c0.3-0.6,0.7-0.8,1.3-0.8v1.3c-1.2-0.1-1.3,0.6-1.3,1.1v2.7h-1.4v-5H35.2z"/>
		<path class="st3" d="M38.5,77.2c0,0.6,0,1.5,0.6,1.5c0.5,0,0.6-0.5,0.6-0.9h1.4c0,0.5-0.2,1-0.5,1.3c-0.3,0.3-0.8,0.5-1.5,0.5
			c-1.8,0-2.1-1.1-2.1-2.7c0-1.4,0.2-2.6,2.1-2.6c1.9,0,2.1,1.2,2.1,2.8H38.5z M39.8,76.4c0-0.5,0-1.2-0.6-1.2
			c-0.7,0-0.6,0.8-0.6,1.2H39.8z"/>
		<path class="st3" d="M46,78.6c0,0.3,0,0.6,0.1,0.9h-1.3l-0.1-0.7h0c-0.3,0.5-0.7,0.8-1.3,0.8c-1,0-1.3-0.7-1.3-1.6
			c0-1.7,1.3-1.7,2.6-1.7v-0.4c0-0.4-0.1-0.7-0.6-0.7c-0.5,0-0.5,0.4-0.5,0.8h-1.4c0-0.6,0.2-1,0.5-1.2c0.3-0.2,0.8-0.3,1.3-0.3
			c1.8,0,2,0.8,2,1.7V78.6z M43.4,77.9c0,0.4,0.1,0.8,0.5,0.8c0.8,0,0.7-1.1,0.7-1.7C43.9,77.1,43.4,77,43.4,77.9z"/>
		<path class="st3" d="M46.6,74.4h0.6v-0.8l1.4-0.6v1.4h0.7v0.9h-0.7V78c0,0.4,0,0.6,0.5,0.6c0.1,0,0.2,0,0.2,0v0.9
			c-0.2,0-0.4,0-0.7,0c-1.2,0-1.4-0.8-1.4-1.1v-3.1h-0.6V74.4z"/>
		<path class="st3" d="M51.5,72.3v1.1h-1.4v-1.1H51.5z M51.5,79.5h-1.4v-5h1.4V79.5z"/>
		<path class="st3" d="M52.3,74.4h1.4l0.7,3.8h0l0.7-3.8h1.4l-1.4,5h-1.5L52.3,74.4z"/>
		<path class="st3" d="M58.5,77.2c0,0.6,0,1.5,0.6,1.5c0.5,0,0.6-0.5,0.6-0.9h1.4c0,0.5-0.2,1-0.5,1.3c-0.3,0.3-0.8,0.5-1.5,0.5
			c-1.8,0-2.1-1.1-2.1-2.7c0-1.4,0.2-2.6,2.1-2.6c1.9,0,2.1,1.2,2.1,2.8H58.5z M59.8,76.4c0-0.5,0-1.2-0.6-1.2
			c-0.7,0-0.6,0.8-0.6,1.2H59.8z"/>
		<path class="st3" d="M65.9,72.3v1.1h-1.4v-1.1H65.9z M65.9,79.5h-1.4v-5h1.4V79.5z"/>
		<path class="st3" d="M68.6,75L68.6,75c0.2-0.2,0.3-0.4,0.5-0.5c0.2-0.1,0.4-0.1,0.7-0.1c0.7,0,1.3,0.4,1.3,1.1v4h-1.4V76
			c0-0.4-0.1-0.8-0.5-0.8c-0.5,0-0.5,0.3-0.5,0.8v3.5h-1.4v-5h1.4V75z"/>
		<path class="st3" d="M75.7,77.2c0,0.6,0,1.5,0.6,1.5c0.5,0,0.6-0.5,0.6-0.9h1.4c0,0.5-0.2,1-0.5,1.3c-0.3,0.3-0.8,0.5-1.5,0.5
			c-1.8,0-2.1-1.1-2.1-2.7c0-1.4,0.2-2.6,2.1-2.6c1.9,0,2.1,1.2,2.1,2.8H75.7z M77,76.4c0-0.5,0-1.2-0.6-1.2c-0.7,0-0.6,0.8-0.6,1.2
			H77z"/>
		<path class="st3" d="M80.5,77.9c0,0.2,0,0.5,0.1,0.6c0.1,0.2,0.2,0.2,0.5,0.2c0.3,0,0.5-0.2,0.5-0.5c0-1.1-2.5-0.8-2.5-2.4
			c0-1.1,1.1-1.4,2-1.4c1,0,1.8,0.5,1.7,1.5h-1.4c0-0.4,0-0.6-0.1-0.7c-0.1-0.1-0.2-0.1-0.4-0.1c-0.3,0-0.5,0.2-0.5,0.5
			c0,0.8,2.5,0.8,2.5,2.4c0,0.9-0.7,1.5-1.9,1.5c-1.2,0-2-0.3-2-1.7H80.5z"/>
		<path class="st3" d="M85,77.9c0,0.2,0,0.5,0.1,0.6c0.1,0.2,0.2,0.2,0.5,0.2c0.3,0,0.5-0.2,0.5-0.5c0-1.1-2.5-0.8-2.5-2.4
			c0-1.1,1.1-1.4,2-1.4c1,0,1.8,0.5,1.7,1.5h-1.4c0-0.4,0-0.6-0.1-0.7c-0.1-0.1-0.2-0.1-0.4-0.1c-0.3,0-0.5,0.2-0.5,0.5
			c0,0.8,2.5,0.8,2.5,2.4c0,0.9-0.7,1.5-1.9,1.5c-1.2,0-2-0.3-2-1.7H85z"/>
		<path class="st3" d="M92.1,78.6c0,0.3,0,0.6,0.1,0.9h-1.3l-0.1-0.7h0c-0.3,0.5-0.7,0.8-1.3,0.8c-1,0-1.3-0.7-1.3-1.6
			c0-1.7,1.3-1.7,2.6-1.7v-0.4c0-0.4-0.1-0.7-0.6-0.7c-0.5,0-0.5,0.4-0.5,0.8h-1.4c0-0.6,0.2-1,0.5-1.2c0.3-0.2,0.8-0.3,1.3-0.3
			c1.8,0,2,0.8,2,1.7V78.6z M89.5,77.9c0,0.4,0.1,0.8,0.5,0.8c0.8,0,0.7-1.1,0.7-1.7C90,77.1,89.5,77,89.5,77.9z"/>
		<path class="st3" d="M94.2,79.5l-1.4-5.1h1.4l0.7,3.5h0l0.8-3.5h1.4l-1.9,7h-1.5L94.2,79.5z"/>
		<path class="st3" d="M98.8,77.9c0,0.2,0,0.5,0.1,0.6c0.1,0.2,0.2,0.2,0.5,0.2c0.3,0,0.5-0.2,0.5-0.5c0-1.1-2.5-0.8-2.5-2.4
			c0-1.1,1.1-1.4,2-1.4c1,0,1.8,0.5,1.7,1.5h-1.4c0-0.4,0-0.6-0.1-0.7c-0.1-0.1-0.2-0.1-0.4-0.1c-0.3,0-0.5,0.2-0.5,0.5
			c0,0.8,2.5,0.8,2.5,2.4c0,0.9-0.7,1.5-1.9,1.5c-1.2,0-2-0.3-2-1.7H98.8z"/>
		<path class="st3" d="M104.4,72.3h1.4v2.6h0c0.3-0.4,0.6-0.6,1.1-0.6c1.4,0,1.4,1.6,1.4,2.6c0,1,0,2.7-1.4,2.7
			c-0.5,0-0.9-0.2-1.2-0.7h0v0.6h-1.3V72.3z M107,76.9c0-1,0-1.7-0.6-1.7c-0.6,0-0.6,0.7-0.6,1.7c0,1.3,0.1,1.8,0.6,1.8
			C106.9,78.7,107,78.2,107,76.9z"/>
		<path class="st3" d="M110.3,79.5l-1.4-5.1h1.4L111,78h0l0.8-3.5h1.4l-1.9,7h-1.5L110.3,79.5z"/>
		<path class="st3" d="M118.5,79L118.5,79c-0.2,0.2-0.3,0.4-0.5,0.5c-0.2,0.1-0.4,0.1-0.7,0.1c-0.7,0-1.3-0.4-1.3-1.1v-4h1.4v3.5
			c0,0.4,0.1,0.8,0.5,0.8c0.4,0,0.5-0.3,0.5-0.8v-3.5h1.4v4c0,0.3,0,0.7,0,1h-1.5V79z"/>
		<path class="st3" d="M122.2,77.9c0,0.2,0,0.5,0.1,0.6c0.1,0.2,0.2,0.2,0.5,0.2c0.3,0,0.5-0.2,0.5-0.5c0-1.1-2.5-0.8-2.5-2.4
			c0-1.1,1.1-1.4,2-1.4c1,0,1.8,0.5,1.7,1.5h-1.4c0-0.4,0-0.6-0.1-0.7c-0.1-0.1-0.2-0.1-0.4-0.1c-0.3,0-0.5,0.2-0.5,0.5
			c0,0.8,2.5,0.8,2.5,2.4c0,0.9-0.7,1.5-1.9,1.5c-1.2,0-2-0.3-2-1.7H122.2z"/>
		<path class="st3" d="M127,72.3v1.1h-1.4v-1.1H127z M127,79.5h-1.4v-5h1.4V79.5z"/>
		<path class="st3" d="M129.7,75L129.7,75c0.2-0.2,0.3-0.4,0.5-0.5c0.2-0.1,0.4-0.1,0.7-0.1c0.7,0,1.3,0.4,1.3,1.1v4h-1.4V76
			c0-0.4-0.1-0.8-0.5-0.8c-0.5,0-0.5,0.3-0.5,0.8v3.5h-1.4v-5h1.4V75z"/>
		<path class="st3" d="M137.1,74.4v5.3c0,0.3,0,1.7-1.9,1.7c-1,0-1.9-0.3-2-1.5h1.4c0,0.2,0,0.4,0.1,0.5c0.1,0.1,0.2,0.2,0.5,0.2
			c0.4,0,0.5-0.3,0.5-0.8v-1h0c-0.2,0.4-0.6,0.6-1.1,0.6c-1.5,0-1.5-1.4-1.5-2.6c0-1.1,0-2.5,1.5-2.5c0.5,0,0.9,0.2,1.1,0.7h0v-0.6
			H137.1z M135.1,78.6c0.5,0,0.6-0.5,0.6-1.6c0-1.1-0.1-1.7-0.6-1.7c-0.5,0-0.6,0.4-0.6,1.9C134.5,77.6,134.5,78.6,135.1,78.6z"/>
		<path class="st3" d="M18.1,88.2c0-0.8-0.2-1-0.6-1c-0.6,0-0.7,0.5-0.7,1.6c0,1.5,0.1,1.9,0.7,1.9c0.4,0,0.6-0.4,0.6-1.1h1.4
			c0,1.4-0.7,2-2.1,2c-1.8,0-2.1-1.1-2.1-2.7c0-1.4,0.2-2.6,2.1-2.6c1.3,0,2,0.6,2,1.9H18.1z"/>
		<path class="st3" d="M20.4,88.9c0-1.4,0.2-2.6,2.1-2.6c1.9,0,2.1,1.2,2.1,2.6c0,1.6-0.2,2.7-2.1,2.7
			C20.7,91.6,20.4,90.5,20.4,88.9z M23.1,88.8c0-1,0-1.6-0.6-1.6s-0.7,0.5-0.7,1.6c0,1.5,0.1,1.9,0.7,1.9
			C23,90.7,23.1,90.4,23.1,88.8z"/>
		<path class="st3" d="M27.1,84.3v7.2h-1.4v-7.2H27.1z"/>
		<path class="st3" d="M28.2,88.9c0-1.4,0.2-2.6,2.1-2.6c1.9,0,2.1,1.2,2.1,2.6c0,1.6-0.2,2.7-2.1,2.7
			C28.4,91.6,28.2,90.5,28.2,88.9z M30.9,88.8c0-1,0-1.6-0.6-1.6s-0.7,0.5-0.7,1.6c0,1.5,0.1,1.9,0.7,1.9
			C30.8,90.7,30.9,90.4,30.9,88.8z"/>
		<path class="st3" d="M35.8,91L35.8,91c-0.2,0.2-0.3,0.4-0.5,0.5c-0.2,0.1-0.4,0.1-0.7,0.1c-0.7,0-1.3-0.4-1.3-1.1v-4h1.4v3.5
			c0,0.4,0.1,0.8,0.5,0.8c0.4,0,0.5-0.3,0.5-0.8v-3.5h1.4v4c0,0.3,0,0.7,0,1h-1.5V91z"/>
		<path class="st3" d="M39.7,86.4v0.6h0c0.3-0.6,0.7-0.8,1.3-0.8v1.3c-1.2-0.1-1.3,0.6-1.3,1.1v2.7h-1.4v-5H39.7z"/>
		<path class="st3" d="M43.8,85.1c-0.6,0-0.7,0.2-0.7,0.7v0.6h0.7v0.9h-0.7v4.2h-1.4v-4.2h-0.6v-0.9h0.6c0-1.4-0.1-2.2,1.6-2.2
			c0.2,0,0.3,0,0.5,0V85.1z"/>
		<path class="st3" d="M46.9,91L46.9,91c-0.2,0.2-0.3,0.4-0.5,0.5c-0.2,0.1-0.4,0.1-0.7,0.1c-0.7,0-1.3-0.4-1.3-1.1v-4h1.4v3.5
			c0,0.4,0.1,0.8,0.5,0.8c0.4,0,0.5-0.3,0.5-0.8v-3.5h1.4v4c0,0.3,0,0.7,0,1h-1.5V91z"/>
		<path class="st3" d="M51,84.3v7.2h-1.4v-7.2H51z"/>
		<path class="st3" d="M56,84.3v7.2h-1.4v-7.2H56z"/>
		<path class="st3" d="M61,90.6c0,0.3,0,0.6,0.1,0.9h-1.3l-0.1-0.7h0c-0.3,0.5-0.7,0.8-1.3,0.8c-1,0-1.3-0.7-1.3-1.6
			c0-1.7,1.3-1.7,2.6-1.7v-0.4c0-0.4-0.1-0.7-0.6-0.7c-0.5,0-0.5,0.4-0.5,0.8h-1.4c0-0.6,0.2-1,0.5-1.2c0.3-0.2,0.8-0.3,1.3-0.3
			c1.8,0,2,0.8,2,1.7V90.6z M58.4,89.9c0,0.4,0.1,0.8,0.5,0.8c0.8,0,0.7-1.1,0.7-1.7C59,89.1,58.4,89,58.4,89.9z"/>
		<path class="st3" d="M63.6,87L63.6,87c0.2-0.2,0.3-0.4,0.5-0.5c0.2-0.1,0.4-0.1,0.7-0.1c0.7,0,1.3,0.4,1.3,1.1v4h-1.4V88
			c0-0.4-0.1-0.8-0.5-0.8c-0.5,0-0.5,0.3-0.5,0.8v3.5h-1.4v-5h1.4V87z"/>
		<path class="st3" d="M71.1,86.4v5.3c0,0.3,0,1.7-1.9,1.7c-1,0-1.9-0.3-2-1.5h1.4c0,0.2,0,0.4,0.1,0.5c0.1,0.1,0.2,0.2,0.5,0.2
			c0.4,0,0.5-0.3,0.5-0.8v-1h0c-0.2,0.4-0.6,0.6-1.1,0.6c-1.5,0-1.5-1.4-1.5-2.6c0-1.1,0-2.5,1.5-2.5c0.5,0,0.9,0.2,1.1,0.7h0v-0.6
			H71.1z M69.1,90.6c0.5,0,0.6-0.5,0.6-1.6c0-1.1-0.1-1.7-0.6-1.7c-0.5,0-0.6,0.4-0.6,1.9C68.5,89.6,68.4,90.6,69.1,90.6z"/>
		<path class="st3" d="M74.7,91L74.7,91c-0.2,0.2-0.3,0.4-0.5,0.5c-0.2,0.1-0.4,0.1-0.7,0.1c-0.7,0-1.3-0.4-1.3-1.1v-4h1.4v3.5
			c0,0.4,0.1,0.8,0.5,0.8c0.4,0,0.5-0.3,0.5-0.8v-3.5h1.4v4c0,0.3,0,0.7,0,1h-1.5V91z"/>
		<path class="st3" d="M81,90.6c0,0.3,0,0.6,0.1,0.9h-1.3l-0.1-0.7h0c-0.3,0.5-0.7,0.8-1.3,0.8c-1,0-1.3-0.7-1.3-1.6
			c0-1.7,1.3-1.7,2.6-1.7v-0.4c0-0.4-0.1-0.7-0.6-0.7c-0.5,0-0.5,0.4-0.5,0.8h-1.4c0-0.6,0.2-1,0.5-1.2c0.3-0.2,0.8-0.3,1.3-0.3
			c1.8,0,2,0.8,2,1.7V90.6z M78.4,89.9c0,0.4,0.1,0.8,0.5,0.8c0.8,0,0.7-1.1,0.7-1.7C79,89.1,78.4,89,78.4,89.9z"/>
		<path class="st3" d="M86.1,86.4v5.3c0,0.3,0,1.7-1.9,1.7c-1,0-1.9-0.3-2-1.5h1.4c0,0.2,0,0.4,0.1,0.5c0.1,0.1,0.2,0.2,0.5,0.2
			c0.4,0,0.5-0.3,0.5-0.8v-1h0c-0.2,0.4-0.6,0.6-1.1,0.6c-1.5,0-1.5-1.4-1.5-2.6c0-1.1,0-2.5,1.5-2.5c0.5,0,0.9,0.2,1.1,0.7h0v-0.6
			H86.1z M84.1,90.6c0.5,0,0.6-0.5,0.6-1.6c0-1.1-0.1-1.7-0.6-1.7c-0.5,0-0.6,0.4-0.6,1.9C83.5,89.6,83.4,90.6,84.1,90.6z"/>
		<path class="st3" d="M88.5,89.2c0,0.6,0,1.5,0.6,1.5c0.5,0,0.6-0.5,0.6-0.9h1.4c0,0.5-0.2,1-0.5,1.3c-0.3,0.3-0.8,0.5-1.5,0.5
			c-1.8,0-2.1-1.1-2.1-2.7c0-1.4,0.2-2.6,2.1-2.6c1.9,0,2.1,1.2,2.1,2.8H88.5z M89.8,88.4c0-0.5,0-1.2-0.6-1.2
			c-0.7,0-0.6,0.8-0.6,1.2H89.8z"/>
	</g>
	<g id="letter">
		<polygon class="st10" points="335.5,59 361.1,59 361.1,88.1 353.6,88.1 353.6,95.8 335.5,95.8 		"/>
		<polygon class="st7" points="353.6,95.8 361.1,88.1 353.6,88.1 		"/>
		<line class="st11" x1="338.6" y1="65.5" x2="356.1" y2="65.5"/>
		<line class="st11" x1="338.6" y1="68.5" x2="356.1" y2="68.5"/>
		<line class="st11" x1="338.6" y1="71.4" x2="356.1" y2="71.4"/>
		<line class="st11" x1="338.6" y1="74.3" x2="356.1" y2="74.3"/>
	</g>
	<line class="st4" x1="95.6" y1="91.7" x2="316.7" y2="91.7"/>
</g>
<g>
	<g>
		<path class="st3" d="M203.9,127.6c-1.9,0-2.2-1.1-2.1-2.3h1.5c0,0.7,0,1.3,0.9,1.3c0.5,0,0.8-0.3,0.8-0.8c0-1.3-3-1.4-3-3.5
			c0-1.1,0.5-2,2.4-2c1.5,0,2.2,0.7,2.1,2.2h-1.5c0-0.5-0.1-1.1-0.7-1.1c-0.5,0-0.8,0.3-0.8,0.8c0,1.4,3,1.2,3,3.5
			C206.4,127.4,205,127.6,203.9,127.6z"/>
		<path class="st3" d="M206.8,122.4h0.6v-0.8l1.4-0.6v1.4h0.7v0.9h-0.7v2.7c0,0.4,0,0.6,0.5,0.6c0.1,0,0.2,0,0.2,0v0.9
			c-0.2,0-0.4,0-0.7,0c-1.2,0-1.4-0.8-1.4-1.1v-3.1h-0.6V122.4z"/>
		<path class="st3" d="M214,126.5c0,0.3,0,0.6,0.1,0.9h-1.3l-0.1-0.7h0c-0.3,0.5-0.7,0.8-1.3,0.8c-1,0-1.3-0.7-1.3-1.6
			c0-1.7,1.3-1.7,2.6-1.7v-0.4c0-0.4-0.1-0.7-0.6-0.7c-0.5,0-0.5,0.4-0.5,0.8h-1.4c0-0.6,0.2-1,0.5-1.2c0.3-0.2,0.8-0.3,1.3-0.3
			c1.8,0,2,0.8,2,1.7V126.5z M211.4,125.9c0,0.4,0.1,0.8,0.5,0.8c0.8,0,0.7-1.1,0.7-1.7C211.9,125.1,211.4,125,211.4,125.9z"/>
		<path class="st3" d="M216.1,127.5l-1.4-5.1h1.4l0.7,3.5h0l0.8-3.5h1.4l-1.9,7h-1.5L216.1,127.5z"/>
		<path class="st3" d="M221.7,124.9c0-1.4,0.2-2.6,2.1-2.6c1.9,0,2.1,1.2,2.1,2.6c0,1.6-0.2,2.7-2.1,2.7
			C222,127.6,221.7,126.5,221.7,124.9z M224.4,124.8c0-1,0-1.6-0.6-1.6s-0.7,0.5-0.7,1.6c0,1.5,0.1,1.9,0.7,1.9
			C224.3,126.7,224.4,126.4,224.4,124.8z"/>
		<path class="st3" d="M228.3,122.9L228.3,122.9c0.2-0.2,0.3-0.4,0.5-0.5c0.2-0.1,0.4-0.1,0.7-0.1c0.7,0,1.3,0.4,1.3,1.1v4h-1.4V124
			c0-0.4-0.1-0.8-0.5-0.8c-0.5,0-0.5,0.3-0.5,0.8v3.5h-1.4v-5h1.4V122.9z"/>
		<path class="st3" d="M233.5,122.4h0.6v-0.8l1.4-0.6v1.4h0.7v0.9h-0.7v2.7c0,0.4,0,0.6,0.5,0.6c0.1,0,0.2,0,0.2,0v0.9
			c-0.2,0-0.4,0-0.7,0c-1.2,0-1.4-0.8-1.4-1.1v-3.1h-0.6V122.4z"/>
		<path class="st3" d="M238.2,122.4v0.6h0c0.3-0.6,0.7-0.8,1.3-0.8v1.3c-1.2-0.1-1.3,0.6-1.3,1.1v2.7h-1.4v-5H238.2z"/>
		<path class="st3" d="M244,126.5c0,0.3,0,0.6,0.1,0.9h-1.3l-0.1-0.7h0c-0.3,0.5-0.7,0.8-1.3,0.8c-1,0-1.3-0.7-1.3-1.6
			c0-1.7,1.3-1.7,2.6-1.7v-0.4c0-0.4-0.1-0.7-0.6-0.7c-0.5,0-0.5,0.4-0.5,0.8h-1.4c0-0.6,0.2-1,0.5-1.2c0.3-0.2,0.8-0.3,1.3-0.3
			c1.8,0,2,0.8,2,1.7V126.5z M241.4,125.9c0,0.4,0.1,0.8,0.5,0.8c0.8,0,0.7-1.1,0.7-1.7C241.9,125.1,241.4,125,241.4,125.9z"/>
		<path class="st3" d="M247.7,124.2c0-0.8-0.2-1-0.6-1c-0.6,0-0.7,0.5-0.7,1.6c0,1.5,0.1,1.9,0.7,1.9c0.4,0,0.6-0.4,0.6-1.1h1.4
			c0,1.4-0.7,2-2.1,2c-1.8,0-2.1-1.1-2.1-2.7c0-1.4,0.2-2.6,2.1-2.6c1.3,0,2,0.6,2,1.9H247.7z"/>
		<path class="st3" d="M250.1,127.5v-7.2h1.4v4.3h0l1.3-2.1h1.5l-1.4,2.2l1.6,2.8h-1.6l-1.3-2.7h0v2.7H250.1z"/>
		<path class="st3" d="M257.4,120.3h1.4v2.6h0c0.3-0.4,0.6-0.6,1.1-0.6c1.4,0,1.4,1.6,1.4,2.6c0,1,0,2.7-1.4,2.7
			c-0.5,0-0.9-0.2-1.2-0.7h0v0.6h-1.3V120.3z M260,124.9c0-1,0-1.7-0.6-1.7c-0.6,0-0.6,0.7-0.6,1.7c0,1.3,0.1,1.8,0.6,1.8
			C259.9,126.7,260,126.2,260,124.9z"/>
		<path class="st3" d="M263.3,127.5l-1.4-5.1h1.4l0.7,3.5h0l0.8-3.5h1.4l-1.9,7h-1.5L263.3,127.5z"/>
		<path class="st3" d="M268.6,122.4h1.4l0.7,3.8h0l1-3.8h1.5l0.9,3.8h0l0.8-3.8h1.3l-1.4,5h-1.5l-0.9-3.4h0l-1,3.4h-1.5L268.6,122.4
			z"/>
		<path class="st3" d="M278.2,122.4v0.6h0c0.3-0.6,0.7-0.8,1.3-0.8v1.3c-1.2-0.1-1.3,0.6-1.3,1.1v2.7h-1.4v-5H278.2z"/>
		<path class="st3" d="M281.7,120.3v1.1h-1.4v-1.1H281.7z M281.7,127.5h-1.4v-5h1.4V127.5z"/>
		<path class="st3" d="M282.4,122.4h0.6v-0.8l1.4-0.6v1.4h0.7v0.9h-0.7v2.7c0,0.4,0,0.6,0.5,0.6c0.1,0,0.2,0,0.2,0v0.9
			c-0.2,0-0.4,0-0.7,0c-1.2,0-1.4-0.8-1.4-1.1v-3.1h-0.6V122.4z"/>
		<path class="st3" d="M287.3,120.3v1.1h-1.4v-1.1H287.3z M287.3,127.5h-1.4v-5h1.4V127.5z"/>
		<path class="st3" d="M289.9,122.9L289.9,122.9c0.2-0.2,0.3-0.4,0.5-0.5c0.2-0.1,0.4-0.1,0.7-0.1c0.7,0,1.3,0.4,1.3,1.1v4H291V124
			c0-0.4-0.1-0.8-0.5-0.8c-0.5,0-0.5,0.3-0.5,0.8v3.5h-1.4v-5h1.4V122.9z"/>
		<path class="st3" d="M297.4,122.4v5.3c0,0.3,0,1.7-1.9,1.7c-1,0-1.9-0.3-2-1.5h1.4c0,0.2,0,0.4,0.1,0.5c0.1,0.1,0.2,0.2,0.5,0.2
			c0.4,0,0.5-0.3,0.5-0.8v-1h0c-0.2,0.4-0.6,0.6-1.1,0.6c-1.5,0-1.5-1.4-1.5-2.6c0-1.1,0-2.5,1.5-2.5c0.5,0,0.9,0.2,1.1,0.7h0v-0.6
			H297.4z M295.4,126.5c0.5,0,0.6-0.5,0.6-1.6c0-1.1-0.1-1.7-0.6-1.7c-0.5,0-0.6,0.4-0.6,1.9C294.8,125.6,294.7,126.5,295.4,126.5z"
			/>
		<path class="st3" d="M303.2,127.5v-0.6h0c-0.3,0.5-0.7,0.7-1.2,0.7c-1.5,0-1.4-1.6-1.4-2.7c0-1,0-2.6,1.4-2.6
			c0.5,0,0.9,0.2,1.1,0.6h0v-2.6h1.4v7.2H303.2z M303.2,124.9c0-1,0-1.7-0.6-1.7c-0.6,0-0.6,0.7-0.6,1.7c0,1.3,0.1,1.8,0.6,1.8
			C303.1,126.7,303.2,126.2,303.2,124.9z"/>
		<path class="st3" d="M305.6,124.9c0-1.4,0.2-2.6,2.1-2.6c1.9,0,2.1,1.2,2.1,2.6c0,1.6-0.2,2.7-2.1,2.7
			C305.8,127.6,305.6,126.5,305.6,124.9z M308.3,124.8c0-1,0-1.6-0.6-1.6s-0.7,0.5-0.7,1.6c0,1.5,0.1,1.9,0.7,1.9
			C308.2,126.7,308.3,126.4,308.3,124.8z"/>
		<path class="st3" d="M310.3,122.4h1.4l0.7,3.8h0l1-3.8h1.5l0.9,3.8h0l0.8-3.8h1.3l-1.4,5H315l-0.9-3.4h0l-1,3.4h-1.5L310.3,122.4z
			"/>
		<path class="st3" d="M319.9,122.9L319.9,122.9c0.2-0.2,0.3-0.4,0.5-0.5c0.2-0.1,0.4-0.1,0.7-0.1c0.7,0,1.3,0.4,1.3,1.1v4H321V124
			c0-0.4-0.1-0.8-0.5-0.8c-0.5,0-0.5,0.3-0.5,0.8v3.5h-1.4v-5h1.4V122.9z"/>
		<path class="st3" d="M328.2,127.5v-0.6h0c-0.3,0.5-0.7,0.7-1.2,0.7c-1.5,0-1.4-1.6-1.4-2.7c0-1,0-2.6,1.4-2.6
			c0.5,0,0.9,0.2,1.1,0.6h0v-2.6h1.4v7.2H328.2z M328.2,124.9c0-1,0-1.7-0.6-1.7c-0.6,0-0.6,0.7-0.6,1.7c0,1.3,0.1,1.8,0.6,1.8
			C328.1,126.7,328.2,126.2,328.2,124.9z"/>
		<path class="st3" d="M332.3,120.3v1.1h-1.4v-1.1H332.3z M332.3,127.5h-1.4v-5h1.4V127.5z"/>
		<path class="st3" d="M334.8,122.4v0.6h0c0.3-0.6,0.7-0.8,1.3-0.8v1.3c-1.2-0.1-1.3,0.6-1.3,1.1v2.7h-1.4v-5H334.8z"/>
		<path class="st3" d="M338.1,125.2c0,0.6,0,1.5,0.6,1.5c0.5,0,0.6-0.5,0.6-0.9h1.4c0,0.5-0.2,1-0.5,1.3c-0.3,0.3-0.8,0.5-1.5,0.5
			c-1.8,0-2.1-1.1-2.1-2.7c0-1.4,0.2-2.6,2.1-2.6c1.9,0,2.1,1.2,2.1,2.8H338.1z M339.4,124.4c0-0.5,0-1.2-0.6-1.2
			c-0.7,0-0.6,0.8-0.6,1.2H339.4z"/>
		<path class="st3" d="M344.4,124.2c0-0.8-0.2-1-0.6-1c-0.6,0-0.7,0.5-0.7,1.6c0,1.5,0.1,1.9,0.7,1.9c0.4,0,0.6-0.4,0.6-1.1h1.4
			c0,1.4-0.7,2-2.1,2c-1.8,0-2.1-1.1-2.1-2.7c0-1.4,0.2-2.6,2.1-2.6c1.3,0,2,0.6,2,1.9H344.4z"/>
		<path class="st3" d="M346.3,122.4h0.6v-0.8l1.4-0.6v1.4h0.7v0.9h-0.7v2.7c0,0.4,0,0.6,0.5,0.6c0.1,0,0.2,0,0.2,0v0.9
			c-0.2,0-0.4,0-0.7,0c-1.2,0-1.4-0.8-1.4-1.1v-3.1h-0.6V122.4z"/>
		<path class="st3" d="M351.1,120.3v1.1h-1.4v-1.1H351.1z M351.1,127.5h-1.4v-5h1.4V127.5z"/>
		<path class="st3" d="M352.3,124.9c0-1.4,0.2-2.6,2.1-2.6c1.9,0,2.1,1.2,2.1,2.6c0,1.6-0.2,2.7-2.1,2.7
			C352.5,127.6,352.3,126.5,352.3,124.9z M355,124.8c0-1,0-1.6-0.6-1.6s-0.7,0.5-0.7,1.6c0,1.5,0.1,1.9,0.7,1.9
			C354.9,126.7,355,126.4,355,124.8z"/>
		<path class="st3" d="M358.8,122.9L358.8,122.9c0.2-0.2,0.3-0.4,0.5-0.5c0.2-0.1,0.4-0.1,0.7-0.1c0.7,0,1.3,0.4,1.3,1.1v4h-1.4V124
			c0-0.4-0.1-0.8-0.5-0.8c-0.5,0-0.5,0.3-0.5,0.8v3.5h-1.4v-5h1.4V122.9z"/>
		<path class="st3" d="M363.5,125.9c0,0.2,0,0.5,0.1,0.6c0.1,0.2,0.2,0.2,0.5,0.2c0.3,0,0.5-0.2,0.5-0.5c0-1.1-2.5-0.8-2.5-2.4
			c0-1.1,1.1-1.4,2-1.4c1,0,1.8,0.5,1.7,1.5h-1.4c0-0.4,0-0.6-0.1-0.7c-0.1-0.1-0.2-0.1-0.4-0.1c-0.3,0-0.5,0.2-0.5,0.5
			c0,0.8,2.5,0.8,2.5,2.4c0,0.9-0.7,1.5-1.9,1.5c-1.2,0-2-0.3-2-1.7H363.5z"/>
	</g>
	<g id="direction">
		<g>
			<path class="st5" d="M34.4,141c-0.9,0-1.7-0.3-2.4-0.9l-17.7-15.4c-0.7-0.6-1.2-1.5-1.2-2.5s0.2-1.9,0.9-2.6L29.4,102
				c0.7-0.8,1.7-1.2,2.7-1.2c0.9,0,1.7,0.3,2.4,0.9L52.2,117c0.7,0.6,1.2,1.5,1.2,2.5c0.1,1-0.2,1.9-0.9,2.6l-15.4,17.7
				C36.4,140.6,35.4,141,34.4,141z"/>
			<path class="st7" d="M32.1,101c0.8,0,1.6,0.3,2.2,0.8L52,117.2c1.4,1.2,1.5,3.3,0.3,4.7l-15.4,17.7c-0.7,0.8-1.6,1.2-2.5,1.2
				c-0.8,0-1.6-0.3-2.2-0.8l-17.7-15.4c-1.4-1.2-1.5-3.3-0.3-4.7l15.4-17.7C30.3,101.4,31.2,101,32.1,101 M32.1,100.5L32.1,100.5
				c-1.1,0-2.2,0.5-2.9,1.3l-15.4,17.7c-1.4,1.6-1.2,4,0.4,5.4l17.7,15.4c0.7,0.6,1.6,0.9,2.5,0.9c1.1,0,2.2-0.5,2.9-1.3l15.4-17.7
				c1.4-1.6,1.2-4-0.4-5.4l-17.7-15.4C34,100.8,33.1,100.5,32.1,100.5L32.1,100.5z"/>
		</g>
		<path class="st12" d="M39.1,113.7v8.4l3.9-3.8c0.2-0.2,0.2-0.6,0-0.8L39.1,113.7z"/>
		<path class="st7" d="M29.9,128.4L29.9,128.4c-1.1,0-1.9-0.9-1.9-1.9v-8.7c0-1.1,0.9-1.9,1.9-1.9h0c1.1,0,1.9,0.9,1.9,1.9v8.7
			C31.8,127.6,30.9,128.4,29.9,128.4z"/>
		<path class="st7" d="M28.1,117.8L28.1,117.8c0-1.1,0.9-1.9,1.9-1.9h8.7c1.1,0,1.9,0.9,1.9,1.9l0,0c0,1.1-0.9,1.9-2,2h-8.7
			C28.9,119.8,28.1,118.9,28.1,117.8z"/>
	</g>
	<line class="st4" x1="53.2" y1="128.9" x2="193.5" y2="128.9"/>
</g>
<g>
	<g>
		<path class="st3" d="M18.5,150.5v1.2h-1.7v6h-1.5v-6h-1.7v-1.2H18.5z"/>
		<path class="st3" d="M19.7,152.7v0.6h0c0.3-0.6,0.7-0.8,1.3-0.8v1.3c-1.2-0.1-1.3,0.6-1.3,1.1v2.7h-1.4v-5H19.7z"/>
		<path class="st3" d="M22.6,157.8l-1.4-5.1h1.4l0.7,3.5h0l0.8-3.5h1.4l-1.9,7h-1.5L22.6,157.8z"/>
		<path class="st3" d="M27.8,152.7h0.6v-0.8l1.4-0.6v1.4h0.7v0.9h-0.7v2.7c0,0.4,0,0.6,0.5,0.6c0.1,0,0.2,0,0.2,0v0.9
			c-0.2,0-0.4,0-0.7,0c-1.2,0-1.4-0.8-1.4-1.1v-3.1h-0.6V152.7z"/>
		<path class="st3" d="M31,155.1c0-1.4,0.2-2.6,2.1-2.6c1.9,0,2.1,1.2,2.1,2.6c0,1.6-0.2,2.7-2.1,2.7C31.3,157.8,31,156.7,31,155.1z
			 M33.7,155.1c0-1,0-1.6-0.6-1.6s-0.7,0.5-0.7,1.6c0,1.5,0.1,1.9,0.7,1.9C33.6,156.9,33.7,156.6,33.7,155.1z"/>
		<path class="st3" d="M38.4,150.5h1.4v2.6h0c0.3-0.4,0.6-0.6,1.1-0.6c1.4,0,1.4,1.6,1.4,2.6c0,1,0,2.7-1.4,2.7
			c-0.5,0-0.9-0.2-1.2-0.7h0v0.6h-1.3V150.5z M40.9,155.2c0-1,0-1.7-0.6-1.7c-0.6,0-0.6,0.7-0.6,1.7c0,1.3,0.1,1.8,0.6,1.8
			C40.9,157,40.9,156.4,40.9,155.2z"/>
		<path class="st3" d="M44.7,155.4c0,0.6,0,1.5,0.6,1.5c0.5,0,0.6-0.5,0.6-0.9h1.4c0,0.5-0.2,1-0.5,1.3c-0.3,0.3-0.8,0.5-1.5,0.5
			c-1.8,0-2.1-1.1-2.1-2.7c0-1.4,0.2-2.6,2.1-2.6c1.9,0,2.1,1.2,2.1,2.8H44.7z M46,154.6c0-0.5,0-1.2-0.6-1.2
			c-0.7,0-0.6,0.8-0.6,1.2H46z"/>
		<path class="st3" d="M51.9,153.2L51.9,153.2c0.3-0.5,0.7-0.6,1.2-0.6c0.5,0,0.9,0.2,1.1,0.6c0.3-0.4,0.7-0.6,1.3-0.6
			c0.7,0,1.3,0.4,1.3,1.1v4h-1.4v-3.5c0-0.4-0.1-0.8-0.5-0.8c-0.4,0-0.5,0.3-0.5,0.8v3.5h-1.4v-3.5c0-0.4-0.1-0.8-0.5-0.8
			s-0.5,0.3-0.5,0.8v3.5h-1.4v-5h1.4V153.2z"/>
		<path class="st3" d="M57.7,155.1c0-1.4,0.2-2.6,2.1-2.6c1.9,0,2.1,1.2,2.1,2.6c0,1.6-0.2,2.7-2.1,2.7
			C57.9,157.8,57.7,156.7,57.7,155.1z M60.4,155.1c0-1,0-1.6-0.6-1.6s-0.7,0.5-0.7,1.6c0,1.5,0.1,1.9,0.7,1.9
			C60.3,156.9,60.4,156.6,60.4,155.1z"/>
		<path class="st3" d="M64.1,152.7v0.6h0c0.3-0.6,0.7-0.8,1.3-0.8v1.3c-1.2-0.1-1.3,0.6-1.3,1.1v2.7h-1.4v-5H64.1z"/>
		<path class="st3" d="M67.4,155.4c0,0.6,0,1.5,0.6,1.5c0.5,0,0.6-0.5,0.6-0.9h1.4c0,0.5-0.2,1-0.5,1.3c-0.3,0.3-0.8,0.5-1.5,0.5
			c-1.8,0-2.1-1.1-2.1-2.7c0-1.4,0.2-2.6,2.1-2.6c1.9,0,2.1,1.2,2.1,2.8H67.4z M68.7,154.6c0-0.5,0-1.2-0.6-1.2
			c-0.7,0-0.6,0.8-0.6,1.2H68.7z"/>
		<path class="st3" d="M73.2,155.1c0-1.4,0.2-2.6,2.1-2.6c1.9,0,2.1,1.2,2.1,2.6c0,1.6-0.2,2.7-2.1,2.7
			C73.5,157.8,73.2,156.7,73.2,155.1z M75.9,155.1c0-1,0-1.6-0.6-1.6s-0.7,0.5-0.7,1.6c0,1.5,0.1,1.9,0.7,1.9
			C75.8,156.9,75.9,156.6,75.9,155.1z"/>
		<path class="st3" d="M79.7,152.7v0.6h0c0.3-0.6,0.7-0.8,1.3-0.8v1.3c-1.2-0.1-1.3,0.6-1.3,1.1v2.7h-1.4v-5H79.7z"/>
		<path class="st3" d="M85.5,152.7v5.3c0,0.3,0,1.7-1.9,1.7c-1,0-1.9-0.3-2-1.5H83c0,0.2,0,0.4,0.1,0.5c0.1,0.1,0.2,0.2,0.5,0.2
			c0.4,0,0.5-0.3,0.5-0.8v-1h0c-0.2,0.4-0.6,0.6-1.1,0.6c-1.5,0-1.5-1.4-1.5-2.6c0-1.1,0-2.5,1.5-2.5c0.5,0,0.9,0.2,1.1,0.7h0v-0.6
			H85.5z M83.6,156.8c0.5,0,0.6-0.5,0.6-1.6c0-1.1-0.1-1.7-0.6-1.7c-0.5,0-0.6,0.4-0.6,1.9C82.9,155.8,82.9,156.8,83.6,156.8z"/>
		<path class="st3" d="M90.5,156.8c0,0.3,0,0.6,0.1,0.9h-1.3l-0.1-0.7h0c-0.3,0.5-0.7,0.8-1.3,0.8c-1,0-1.3-0.7-1.3-1.6
			c0-1.7,1.3-1.7,2.6-1.7v-0.4c0-0.4-0.1-0.7-0.6-0.7c-0.5,0-0.5,0.4-0.5,0.8h-1.4c0-0.6,0.2-1,0.5-1.2c0.3-0.2,0.8-0.3,1.3-0.3
			c1.8,0,2,0.8,2,1.7V156.8z M87.9,156.2c0,0.4,0.1,0.8,0.5,0.8c0.8,0,0.7-1.1,0.7-1.7C88.4,155.3,87.9,155.3,87.9,156.2z"/>
		<path class="st3" d="M93.1,153.2L93.1,153.2c0.2-0.2,0.3-0.4,0.5-0.5c0.2-0.1,0.4-0.1,0.7-0.1c0.7,0,1.3,0.4,1.3,1.1v4h-1.4v-3.5
			c0-0.4-0.1-0.8-0.5-0.8c-0.5,0-0.5,0.3-0.5,0.8v3.5h-1.4v-5h1.4V153.2z"/>
		<path class="st3" d="M98.2,150.5v1.1h-1.4v-1.1H98.2z M98.2,157.7h-1.4v-5h1.4V157.7z"/>
		<path class="st3" d="M102.5,153.7l-2,3.1h2v0.9h-3.4v-1l2-3.1h-1.9v-0.9h3.3V153.7z"/>
		<path class="st3" d="M104.7,155.4c0,0.6,0,1.5,0.6,1.5c0.5,0,0.6-0.5,0.6-0.9h1.4c0,0.5-0.2,1-0.5,1.3c-0.3,0.3-0.8,0.5-1.5,0.5
			c-1.8,0-2.1-1.1-2.1-2.7c0-1.4,0.2-2.6,2.1-2.6c1.9,0,2.1,1.2,2.1,2.8H104.7z M105.9,154.6c0-0.5,0-1.2-0.6-1.2
			c-0.7,0-0.6,0.8-0.6,1.2H105.9z"/>
		<path class="st3" d="M110.9,157.7v-0.6h0c-0.3,0.5-0.7,0.7-1.2,0.7c-1.5,0-1.4-1.6-1.4-2.7c0-1,0-2.6,1.4-2.6
			c0.5,0,0.9,0.2,1.1,0.6h0v-2.6h1.4v7.2H110.9z M110.8,155.2c0-1,0-1.7-0.6-1.7c-0.6,0-0.6,0.7-0.6,1.7c0,1.3,0.1,1.8,0.6,1.8
			C110.7,157,110.8,156.4,110.8,155.2z"/>
		<path class="st3" d="M115.6,150.5h1.4v2.6h0c0.3-0.4,0.6-0.6,1.1-0.6c1.4,0,1.4,1.6,1.4,2.6c0,1,0,2.7-1.4,2.7
			c-0.5,0-0.9-0.2-1.2-0.7h0v0.6h-1.3V150.5z M118.2,155.2c0-1,0-1.7-0.6-1.7c-0.6,0-0.6,0.7-0.6,1.7c0,1.3,0.1,1.8,0.6,1.8
			C118.1,157,118.2,156.4,118.2,155.2z"/>
		<path class="st3" d="M121.5,157.8l-1.4-5.1h1.4l0.7,3.5h0l0.8-3.5h1.4l-1.9,7h-1.5L121.5,157.8z"/>
		<path class="st3" d="M14,167.1c0-1.4,0.2-2.6,2.1-2.6c1.9,0,2.1,1.2,2.1,2.6c0,1.6-0.2,2.7-2.1,2.7C14.2,169.8,14,168.7,14,167.1z
			 M16.7,167.1c0-1,0-1.6-0.6-1.6c-0.6,0-0.7,0.5-0.7,1.6c0,1.5,0.1,1.9,0.7,1.9C16.6,168.9,16.7,168.6,16.7,167.1z"/>
		<path class="st3" d="M20.5,164.7v0.6h0c0.3-0.6,0.7-0.8,1.3-0.8v1.3c-1.2-0.1-1.3,0.6-1.3,1.1v2.7h-1.4v-5H20.5z"/>
		<path class="st3" d="M26.3,164.7v5.3c0,0.3,0,1.7-1.9,1.7c-1,0-1.9-0.3-2-1.5h1.4c0,0.2,0,0.4,0.1,0.5c0.1,0.1,0.2,0.2,0.5,0.2
			c0.4,0,0.5-0.3,0.5-0.8v-1h0c-0.2,0.4-0.6,0.6-1.1,0.6c-1.5,0-1.5-1.4-1.5-2.6c0-1.1,0-2.5,1.5-2.5c0.5,0,0.9,0.2,1.1,0.7h0v-0.6
			H26.3z M24.3,168.8c0.5,0,0.6-0.5,0.6-1.6c0-1.1-0.1-1.7-0.6-1.7c-0.5,0-0.6,0.4-0.6,1.9C23.7,167.8,23.6,168.8,24.3,168.8z"/>
		<path class="st3" d="M31.3,168.8c0,0.3,0,0.6,0.1,0.9H30l-0.1-0.7h0c-0.3,0.5-0.7,0.8-1.3,0.8c-1,0-1.3-0.7-1.3-1.6
			c0-1.7,1.3-1.7,2.6-1.7v-0.4c0-0.4-0.1-0.7-0.6-0.7c-0.5,0-0.5,0.4-0.5,0.8h-1.4c0-0.6,0.2-1,0.5-1.2c0.3-0.2,0.8-0.3,1.3-0.3
			c1.8,0,2,0.8,2,1.7V168.8z M28.7,168.2c0,0.4,0.1,0.8,0.5,0.8c0.8,0,0.7-1.1,0.7-1.7C29.2,167.3,28.7,167.3,28.7,168.2z"/>
		<path class="st3" d="M33.9,165.2L33.9,165.2c0.2-0.2,0.3-0.4,0.5-0.5c0.2-0.1,0.4-0.1,0.7-0.1c0.7,0,1.3,0.4,1.3,1.1v4h-1.4v-3.5
			c0-0.4-0.1-0.8-0.5-0.8c-0.5,0-0.5,0.3-0.5,0.8v3.5h-1.4v-5h1.4V165.2z"/>
		<path class="st3" d="M39,162.5v1.1h-1.4v-1.1H39z M39,169.7h-1.4v-5H39V169.7z"/>
		<path class="st3" d="M43.3,165.7l-2,3.1h2v0.9h-3.4v-1l2-3.1H40v-0.9h3.3V165.7z"/>
		<path class="st3" d="M45.6,162.5v1.1h-1.4v-1.1H45.6z M45.6,169.7h-1.4v-5h1.4V169.7z"/>
		<path class="st3" d="M48.3,165.2L48.3,165.2c0.2-0.2,0.3-0.4,0.5-0.5c0.2-0.1,0.4-0.1,0.7-0.1c0.7,0,1.3,0.4,1.3,1.1v4h-1.4v-3.5
			c0-0.4-0.1-0.8-0.5-0.8c-0.5,0-0.5,0.3-0.5,0.8v3.5h-1.4v-5h1.4V165.2z"/>
		<path class="st3" d="M55.8,164.7v5.3c0,0.3,0,1.7-1.9,1.7c-1,0-1.9-0.3-2-1.5h1.4c0,0.2,0,0.4,0.1,0.5c0.1,0.1,0.2,0.2,0.5,0.2
			c0.4,0,0.5-0.3,0.5-0.8v-1h0c-0.2,0.4-0.6,0.6-1.1,0.6c-1.5,0-1.5-1.4-1.5-2.6c0-1.1,0-2.5,1.5-2.5c0.5,0,0.9,0.2,1.1,0.7h0v-0.6
			H55.8z M53.8,168.8c0.5,0,0.6-0.5,0.6-1.6c0-1.1-0.1-1.7-0.6-1.7c-0.5,0-0.6,0.4-0.6,1.9C53.2,167.8,53.1,168.8,53.8,168.8z"/>
		<path class="st3" d="M60.5,164.7v0.6h0c0.3-0.5,0.6-0.7,1.2-0.7c1.5,0,1.4,1.6,1.4,2.7c0,1,0,2.6-1.4,2.6c-0.5,0-0.9-0.1-1.1-0.6
			h0v2.6h-1.4v-7.2H60.5z M61.7,167.2c0-1,0-1.7-0.6-1.7c-0.6,0-0.6,0.7-0.6,1.7c0,1.3,0.1,1.8,0.6,1.8
			C61.6,169,61.7,168.4,61.7,167.2z"/>
		<path class="st3" d="M65.6,162.5v7.2h-1.4v-7.2H65.6z"/>
		<path class="st3" d="M70.7,168.8c0,0.3,0,0.6,0.1,0.9h-1.3l-0.1-0.7h0c-0.3,0.5-0.7,0.8-1.3,0.8c-1,0-1.3-0.7-1.3-1.6
			c0-1.7,1.3-1.7,2.6-1.7v-0.4c0-0.4-0.1-0.7-0.6-0.7c-0.5,0-0.5,0.4-0.5,0.8h-1.4c0-0.6,0.2-1,0.5-1.2c0.3-0.2,0.8-0.3,1.3-0.3
			c1.8,0,2,0.8,2,1.7V168.8z M68.1,168.2c0,0.4,0.1,0.8,0.5,0.8c0.8,0,0.7-1.1,0.7-1.7C68.6,167.3,68.1,167.3,68.1,168.2z"/>
		<path class="st3" d="M73.3,165.2L73.3,165.2c0.2-0.2,0.3-0.4,0.5-0.5c0.2-0.1,0.4-0.1,0.7-0.1c0.7,0,1.3,0.4,1.3,1.1v4h-1.4v-3.5
			c0-0.4-0.1-0.8-0.5-0.8c-0.5,0-0.5,0.3-0.5,0.8v3.5h-1.4v-5h1.4V165.2z"/>
		<path class="st3" d="M78,168.1c0,0.2,0,0.5,0.1,0.6c0.1,0.2,0.2,0.2,0.5,0.2c0.3,0,0.5-0.2,0.5-0.5c0-1.1-2.5-0.8-2.5-2.4
			c0-1.1,1.1-1.4,2-1.4c1,0,1.8,0.5,1.7,1.5H79c0-0.4,0-0.6-0.1-0.7c-0.1-0.1-0.2-0.1-0.4-0.1c-0.3,0-0.5,0.2-0.5,0.5
			c0,0.8,2.5,0.8,2.5,2.4c0,0.9-0.7,1.5-1.9,1.5c-1.2,0-2-0.3-2-1.7H78z"/>
		<path class="st3" d="M87.4,168.8c0,0.3,0,0.6,0.1,0.9h-1.3l-0.1-0.7h0c-0.3,0.5-0.7,0.8-1.3,0.8c-1,0-1.3-0.7-1.3-1.6
			c0-1.7,1.3-1.7,2.6-1.7v-0.4c0-0.4-0.1-0.7-0.6-0.7c-0.5,0-0.5,0.4-0.5,0.8h-1.4c0-0.6,0.2-1,0.5-1.2c0.3-0.2,0.8-0.3,1.3-0.3
			c1.8,0,2,0.8,2,1.7V168.8z M84.8,168.2c0,0.4,0.1,0.8,0.5,0.8c0.8,0,0.7-1.1,0.7-1.7C85.3,167.3,84.8,167.3,84.8,168.2z"/>
		<path class="st3" d="M90,165.2L90,165.2c0.2-0.2,0.3-0.4,0.5-0.5c0.2-0.1,0.4-0.1,0.7-0.1c0.7,0,1.3,0.4,1.3,1.1v4H91v-3.5
			c0-0.4-0.1-0.8-0.5-0.8c-0.5,0-0.5,0.3-0.5,0.8v3.5h-1.4v-5H90V165.2z"/>
		<path class="st3" d="M96.1,169.7v-0.6h0c-0.3,0.5-0.7,0.7-1.2,0.7c-1.5,0-1.4-1.6-1.4-2.7c0-1,0-2.6,1.4-2.6
			c0.5,0,0.9,0.2,1.1,0.6h0v-2.6h1.4v7.2H96.1z M96,167.2c0-1,0-1.7-0.6-1.7c-0.6,0-0.6,0.7-0.6,1.7c0,1.3,0.1,1.8,0.6,1.8
			C95.9,169,96,168.4,96,167.2z"/>
		<path class="st3" d="M100.2,164.7h0.6v-0.8l1.4-0.6v1.4h0.7v0.9h-0.7v2.7c0,0.4,0,0.6,0.5,0.6c0.1,0,0.2,0,0.2,0v0.9
			c-0.2,0-0.4,0-0.7,0c-1.2,0-1.4-0.8-1.4-1.1v-3.1h-0.6V164.7z"/>
		<path class="st3" d="M106,169.7v-3.5c0-0.4-0.1-0.8-0.5-0.8c-0.5,0-0.5,0.3-0.5,0.8v3.5h-1.4v-7.2h1.4v2.7h0
			c0.1-0.2,0.3-0.4,0.5-0.5c0.2-0.1,0.4-0.1,0.7-0.1c0.7,0,1.3,0.4,1.3,1.1v4H106z"/>
		<path class="st3" d="M108.4,167.1c0-1.4,0.2-2.6,2.1-2.6c1.9,0,2.1,1.2,2.1,2.6c0,1.6-0.2,2.7-2.1,2.7
			C108.7,169.8,108.4,168.7,108.4,167.1z M111.1,167.1c0-1,0-1.6-0.6-1.6s-0.7,0.5-0.7,1.6c0,1.5,0.1,1.9,0.7,1.9
			C111,168.9,111.1,168.6,111.1,167.1z"/>
		<path class="st3" d="M116,169.2L116,169.2c-0.2,0.2-0.3,0.4-0.5,0.5c-0.2,0.1-0.4,0.1-0.7,0.1c-0.7,0-1.3-0.4-1.3-1.1v-4h1.4v3.5
			c0,0.4,0.1,0.8,0.5,0.8c0.4,0,0.5-0.3,0.5-0.8v-3.5h1.4v4c0,0.3,0,0.7,0,1H116V169.2z"/>
		<path class="st3" d="M122.4,164.7v5.3c0,0.3,0,1.7-1.9,1.7c-1,0-1.9-0.3-2-1.5h1.4c0,0.2,0,0.4,0.1,0.5c0.1,0.1,0.2,0.2,0.5,0.2
			c0.4,0,0.5-0.3,0.5-0.8v-1h0c-0.2,0.4-0.6,0.6-1.1,0.6c-1.5,0-1.5-1.4-1.5-2.6c0-1.1,0-2.5,1.5-2.5c0.5,0,0.9,0.2,1.1,0.7h0v-0.6
			H122.4z M120.4,168.8c0.5,0,0.6-0.5,0.6-1.6c0-1.1-0.1-1.7-0.6-1.7c-0.5,0-0.6,0.4-0.6,1.9C119.8,167.8,119.7,168.8,120.4,168.8z"
			/>
		<path class="st3" d="M126,169.7v-3.5c0-0.4-0.1-0.8-0.5-0.8c-0.5,0-0.5,0.3-0.5,0.8v3.5h-1.4v-7.2h1.4v2.7h0
			c0.1-0.2,0.3-0.4,0.5-0.5c0.2-0.1,0.4-0.1,0.7-0.1c0.7,0,1.3,0.4,1.3,1.1v4H126z"/>
		<path class="st3" d="M128,164.7h0.6v-0.8l1.4-0.6v1.4h0.7v0.9H130v2.7c0,0.4,0,0.6,0.5,0.6c0.1,0,0.2,0,0.2,0v0.9
			c-0.2,0-0.4,0-0.7,0c-1.2,0-1.4-0.8-1.4-1.1v-3.1H128V164.7z"/>
		<path class="st3" d="M132.4,168.1c0,0.2,0,0.5,0.1,0.6c0.1,0.2,0.2,0.2,0.5,0.2c0.3,0,0.5-0.2,0.5-0.5c0-1.1-2.5-0.8-2.5-2.4
			c0-1.1,1.1-1.4,2-1.4c1,0,1.8,0.5,1.7,1.5h-1.4c0-0.4,0-0.6-0.1-0.7c-0.1-0.1-0.2-0.1-0.4-0.1c-0.3,0-0.5,0.2-0.5,0.5
			c0,0.8,2.5,0.8,2.5,2.4c0,0.9-0.7,1.5-1.9,1.5c-1.2,0-2-0.3-2-1.7H132.4z"/>
	</g>
	<g id="chart">
		<path class="st8" d="M362.7,179.3h-37.4v-22c0-2,1.6-3.5,3.5-3.5h30.9c1.6,0,3,1.3,3,3V179.3z"/>
		<path class="st9" d="M362.8,180.8h-37.3c-0.4,0-0.7-0.3-0.7-0.7l0,0c0-0.4,0.3-0.7,0.7-0.7h37.3c0.4,0,0.7,0.3,0.7,0.7l0,0
			C363.6,180.4,363.3,180.8,362.8,180.8z"/>
		<line class="st13" x1="347.4" y1="167.9" x2="354.5" y2="163.8"/>
		<line class="st13" x1="339.9" y1="163.8" x2="347.4" y2="167.9"/>
		<line class="st13" x1="333.3" y1="166.5" x2="339.9" y2="163.8"/>
		<path class="st7" d="M333.3,167.9L333.3,167.9c-0.8,0-1.4-0.6-1.4-1.4v0c0-0.8,0.6-1.4,1.4-1.4l0,0c0.8,0,1.4,0.6,1.4,1.4v0
			C334.7,167.3,334.1,167.9,333.3,167.9z"/>
		<path class="st7" d="M339.9,165.2L339.9,165.2c-0.8,0-1.4-0.6-1.4-1.4l0,0c0-0.8,0.6-1.4,1.4-1.4l0,0c0.8,0,1.4,0.6,1.4,1.4l0,0
			C341.3,164.6,340.6,165.2,339.9,165.2z"/>
		<path class="st7" d="M347.4,169.3L347.4,169.3c-0.8,0-1.4-0.6-1.4-1.4l0,0c0-0.8,0.6-1.4,1.4-1.4l0,0c0.8,0,1.4,0.6,1.4,1.4l0,0
			C348.8,168.7,348.2,169.3,347.4,169.3z"/>
		<path class="st7" d="M354.5,165.6L354.5,165.6c-0.8,0-1.4-0.6-1.4-1.4l0,0c0-0.8,0.6-1.4,1.4-1.4l0,0c0.8,0,1.4,0.6,1.4,1.4l0,0
			C355.9,165,355.2,165.6,354.5,165.6z"/>
	</g>
	<line class="st4" x1="139.2" y1="169.8" x2="319.7" y2="169.8"/>
</g>
<g>
	<g>
		<path class="st3" d="M13.9,267.7l2-7.2h2l2,7.2h-1.6l-0.4-1.6h-2.1l-0.4,1.6H13.9z M16.8,261.8L16.8,261.8l-0.7,3.1h1.4
			L16.8,261.8z"/>
		<path class="st3" d="M19.8,262.6h1.4l0.7,3.8h0l0.7-3.8h1.4l-1.4,5h-1.5L19.8,262.6z"/>
		<path class="st3" d="M24.6,265.1c0-1.4,0.2-2.6,2.1-2.6c1.9,0,2.1,1.2,2.1,2.6c0,1.6-0.2,2.7-2.1,2.7
			C24.8,267.8,24.6,266.6,24.6,265.1z M27.3,265c0-1,0-1.6-0.6-1.6S26,263.9,26,265c0,1.5,0.1,1.9,0.7,1.9
			C27.2,266.9,27.3,266.5,27.3,265z"/>
		<path class="st3" d="M31.2,260.4v1.1h-1.4v-1.1H31.2z M31.2,267.7h-1.4v-5h1.4V267.7z"/>
		<path class="st3" d="M35,267.7v-0.6h0c-0.3,0.5-0.7,0.7-1.2,0.7c-1.5,0-1.4-1.6-1.4-2.7c0-1,0-2.6,1.4-2.6c0.5,0,0.9,0.2,1.1,0.6
			h0v-2.6h1.4v7.2H35z M34.9,265.1c0-1,0-1.7-0.6-1.7c-0.6,0-0.6,0.7-0.6,1.7c0,1.3,0.1,1.8,0.6,1.8
			C34.8,266.9,34.9,266.4,34.9,265.1z"/>
		<path class="st3" d="M43.6,262.6v5.3c0,0.3,0,1.7-1.9,1.7c-1,0-1.9-0.3-2-1.5H41c0,0.2,0,0.4,0.1,0.5c0.1,0.1,0.2,0.2,0.5,0.2
			c0.4,0,0.5-0.3,0.5-0.8v-1h0c-0.2,0.4-0.6,0.6-1.1,0.6c-1.5,0-1.5-1.4-1.5-2.6c0-1.1,0-2.5,1.5-2.5c0.5,0,0.9,0.2,1.1,0.7h0v-0.6
			H43.6z M41.6,266.7c0.5,0,0.6-0.5,0.6-1.6c0-1.1-0.1-1.7-0.6-1.7c-0.5,0-0.6,0.4-0.6,1.9C41,265.8,40.9,266.7,41.6,266.7z"/>
		<path class="st3" d="M46,265.4c0,0.6,0,1.5,0.6,1.5c0.5,0,0.6-0.5,0.6-0.9h1.4c0,0.5-0.2,1-0.5,1.3c-0.3,0.3-0.8,0.5-1.5,0.5
			c-1.8,0-2.1-1.1-2.1-2.7c0-1.4,0.2-2.6,2.1-2.6c1.9,0,2.1,1.2,2.1,2.8H46z M47.3,264.6c0-0.5,0-1.2-0.6-1.2
			c-0.7,0-0.6,0.8-0.6,1.2H47.3z"/>
		<path class="st3" d="M49.1,262.6h0.6v-0.8l1.4-0.6v1.4h0.7v0.9h-0.7v2.7c0,0.4,0,0.6,0.5,0.6c0.1,0,0.2,0,0.2,0v0.9
			c-0.2,0-0.4,0-0.7,0c-1.2,0-1.4-0.8-1.4-1.1v-3.1h-0.6V262.6z"/>
		<path class="st3" d="M51.9,262.6h0.6v-0.8l1.4-0.6v1.4h0.7v0.9h-0.7v2.7c0,0.4,0,0.6,0.5,0.6c0.1,0,0.2,0,0.2,0v0.9
			c-0.2,0-0.4,0-0.7,0c-1.2,0-1.4-0.8-1.4-1.1v-3.1h-0.6V262.6z"/>
		<path class="st3" d="M56.8,260.4v1.1h-1.4v-1.1H56.8z M56.8,267.7h-1.4v-5h1.4V267.7z"/>
		<path class="st3" d="M59.5,263.1L59.5,263.1c0.2-0.2,0.3-0.4,0.5-0.5c0.2-0.1,0.4-0.1,0.7-0.1c0.7,0,1.3,0.4,1.3,1.1v4h-1.4v-3.5
			c0-0.4-0.1-0.8-0.5-0.8c-0.5,0-0.5,0.3-0.5,0.8v3.5H58v-5h1.4V263.1z"/>
		<path class="st3" d="M66.9,262.6v5.3c0,0.3,0,1.7-1.9,1.7c-1,0-1.9-0.3-2-1.5h1.4c0,0.2,0,0.4,0.1,0.5c0.1,0.1,0.2,0.2,0.5,0.2
			c0.4,0,0.5-0.3,0.5-0.8v-1h0c-0.2,0.4-0.6,0.6-1.1,0.6c-1.5,0-1.5-1.4-1.5-2.6c0-1.1,0-2.5,1.5-2.5c0.5,0,0.9,0.2,1.1,0.7h0v-0.6
			H66.9z M64.9,266.7c0.5,0,0.6-0.5,0.6-1.6c0-1.1-0.1-1.7-0.6-1.7c-0.5,0-0.6,0.4-0.6,1.9C64.3,265.8,64.2,266.7,64.9,266.7z"/>
		<path class="st3" d="M70.3,260.4h1.4v2.6h0c0.3-0.4,0.6-0.6,1.1-0.6c1.4,0,1.4,1.6,1.4,2.6c0,1,0,2.7-1.4,2.7
			c-0.5,0-0.9-0.2-1.2-0.7h0v0.6h-1.3V260.4z M72.8,265.1c0-1,0-1.7-0.6-1.7c-0.6,0-0.6,0.7-0.6,1.7c0,1.3,0.1,1.8,0.6,1.8
			C72.8,266.9,72.8,266.4,72.8,265.1z"/>
		<path class="st3" d="M75.1,265.1c0-1.4,0.2-2.6,2.1-2.6c1.9,0,2.1,1.2,2.1,2.6c0,1.6-0.2,2.7-2.1,2.7
			C75.4,267.8,75.1,266.6,75.1,265.1z M77.9,265c0-1,0-1.6-0.6-1.6s-0.7,0.5-0.7,1.6c0,1.5,0.1,1.9,0.7,1.9
			C77.7,266.9,77.9,266.5,77.9,265z"/>
		<path class="st3" d="M84.1,262.6v5.3c0,0.3,0,1.7-1.9,1.7c-1,0-1.9-0.3-2-1.5h1.4c0,0.2,0,0.4,0.1,0.5c0.1,0.1,0.2,0.2,0.5,0.2
			c0.4,0,0.5-0.3,0.5-0.8v-1h0c-0.2,0.4-0.6,0.6-1.1,0.6c-1.5,0-1.5-1.4-1.5-2.6c0-1.1,0-2.5,1.5-2.5c0.5,0,0.9,0.2,1.1,0.7h0v-0.6
			H84.1z M82.1,266.7c0.5,0,0.6-0.5,0.6-1.6c0-1.1-0.1-1.7-0.6-1.7c-0.5,0-0.6,0.4-0.6,1.9C81.5,265.8,81.5,266.7,82.1,266.7z"/>
		<path class="st3" d="M89.1,262.6v5.3c0,0.3,0,1.7-1.9,1.7c-1,0-1.9-0.3-2-1.5h1.4c0,0.2,0,0.4,0.1,0.5c0.1,0.1,0.2,0.2,0.5,0.2
			c0.4,0,0.5-0.3,0.5-0.8v-1h0c-0.2,0.4-0.6,0.6-1.1,0.6c-1.5,0-1.5-1.4-1.5-2.6c0-1.1,0-2.5,1.5-2.5c0.5,0,0.9,0.2,1.1,0.7h0v-0.6
			H89.1z M87.1,266.7c0.5,0,0.6-0.5,0.6-1.6c0-1.1-0.1-1.7-0.6-1.7c-0.5,0-0.6,0.4-0.6,1.9C86.5,265.8,86.5,266.7,87.1,266.7z"/>
		<path class="st3" d="M91.6,265.4c0,0.6,0,1.5,0.6,1.5c0.5,0,0.6-0.5,0.6-0.9h1.4c0,0.5-0.2,1-0.5,1.3c-0.3,0.3-0.8,0.5-1.5,0.5
			c-1.8,0-2.1-1.1-2.1-2.7c0-1.4,0.2-2.6,2.1-2.6c1.9,0,2.1,1.2,2.1,2.8H91.6z M92.9,264.6c0-0.5,0-1.2-0.6-1.2
			c-0.7,0-0.6,0.8-0.6,1.2H92.9z"/>
		<path class="st3" d="M97.8,267.7v-0.6h0c-0.3,0.5-0.7,0.7-1.2,0.7c-1.5,0-1.4-1.6-1.4-2.7c0-1,0-2.6,1.4-2.6
			c0.5,0,0.9,0.2,1.1,0.6h0v-2.6h1.4v7.2H97.8z M97.7,265.1c0-1,0-1.7-0.6-1.7c-0.6,0-0.6,0.7-0.6,1.7c0,1.3,0.1,1.8,0.6,1.8
			C97.6,266.9,97.7,266.4,97.7,265.1z"/>
		<path class="st3" d="M105,267.7v-0.6h0c-0.3,0.5-0.7,0.7-1.2,0.7c-1.5,0-1.4-1.6-1.4-2.7c0-1,0-2.6,1.4-2.6c0.5,0,0.9,0.2,1.1,0.6
			h0v-2.6h1.4v7.2H105z M104.9,265.1c0-1,0-1.7-0.6-1.7c-0.6,0-0.6,0.7-0.6,1.7c0,1.3,0.1,1.8,0.6,1.8
			C104.8,266.9,104.9,266.4,104.9,265.1z"/>
		<path class="st3" d="M107.4,265.1c0-1.4,0.2-2.6,2.1-2.6c1.9,0,2.1,1.2,2.1,2.6c0,1.6-0.2,2.7-2.1,2.7
			C107.6,267.8,107.4,266.6,107.4,265.1z M110.1,265c0-1,0-1.6-0.6-1.6s-0.7,0.5-0.7,1.6c0,1.5,0.1,1.9,0.7,1.9
			C109.9,266.9,110.1,266.5,110.1,265z"/>
		<path class="st3" d="M112,262.6h1.4l0.7,3.8h0l1-3.8h1.5l0.9,3.8h0l0.8-3.8h1.3l-1.4,5h-1.5l-0.9-3.4h0l-1,3.4h-1.5L112,262.6z"/>
		<path class="st3" d="M121.7,263.1L121.7,263.1c0.2-0.2,0.3-0.4,0.5-0.5c0.2-0.1,0.4-0.1,0.7-0.1c0.7,0,1.3,0.4,1.3,1.1v4h-1.4
			v-3.5c0-0.4-0.1-0.8-0.5-0.8c-0.5,0-0.5,0.3-0.5,0.8v3.5h-1.4v-5h1.4V263.1z"/>
		<path class="st3" d="M127.5,260.4h1.4v2.6h0c0.3-0.4,0.6-0.6,1.1-0.6c1.4,0,1.4,1.6,1.4,2.6c0,1,0,2.7-1.4,2.7
			c-0.5,0-0.9-0.2-1.2-0.7h0v0.6h-1.3V260.4z M130.1,265.1c0-1,0-1.7-0.6-1.7c-0.6,0-0.6,0.7-0.6,1.7c0,1.3,0.1,1.8,0.6,1.8
			C130,266.9,130.1,266.4,130.1,265.1z"/>
		<path class="st3" d="M133.4,267.7l-1.4-5.1h1.4l0.7,3.5h0l0.8-3.5h1.4l-1.9,7h-1.5L133.4,267.7z"/>
		<path class="st3" d="M138.6,262.6h0.6v-0.8l1.4-0.6v1.4h0.7v0.9h-0.7v2.7c0,0.4,0,0.6,0.5,0.6c0.1,0,0.2,0,0.2,0v0.9
			c-0.2,0-0.4,0-0.7,0c-1.2,0-1.4-0.8-1.4-1.1v-3.1h-0.6V262.6z"/>
		<path class="st3" d="M144.4,267.7v-3.5c0-0.4-0.1-0.8-0.5-0.8c-0.5,0-0.5,0.3-0.5,0.8v3.5h-1.4v-7.2h1.4v2.7h0
			c0.1-0.2,0.3-0.4,0.5-0.5c0.2-0.1,0.4-0.1,0.7-0.1c0.7,0,1.3,0.4,1.3,1.1v4H144.4z"/>
		<path class="st3" d="M148.5,260.4v1.1H147v-1.1H148.5z M148.5,267.7H147v-5h1.4V267.7z"/>
		<path class="st3" d="M151.1,263.1L151.1,263.1c0.2-0.2,0.3-0.4,0.5-0.5c0.2-0.1,0.4-0.1,0.7-0.1c0.7,0,1.3,0.4,1.3,1.1v4h-1.4
			v-3.5c0-0.4-0.1-0.8-0.5-0.8c-0.5,0-0.5,0.3-0.5,0.8v3.5h-1.4v-5h1.4V263.1z"/>
		<path class="st3" d="M154.7,267.7v-7.2h1.4v4.3h0l1.3-2.1h1.5l-1.4,2.2l1.6,2.8h-1.6l-1.3-2.7h0v2.7H154.7z"/>
		<path class="st3" d="M161.2,260.4v1.1h-1.4v-1.1H161.2z M161.2,267.7h-1.4v-5h1.4V267.7z"/>
		<path class="st3" d="M163.9,263.1L163.9,263.1c0.2-0.2,0.3-0.4,0.5-0.5c0.2-0.1,0.4-0.1,0.7-0.1c0.7,0,1.3,0.4,1.3,1.1v4H165v-3.5
			c0-0.4-0.1-0.8-0.5-0.8c-0.5,0-0.5,0.3-0.5,0.8v3.5h-1.4v-5h1.4V263.1z"/>
		<path class="st3" d="M171.3,262.6v5.3c0,0.3,0,1.7-1.9,1.7c-1,0-1.9-0.3-2-1.5h1.4c0,0.2,0,0.4,0.1,0.5c0.1,0.1,0.2,0.2,0.5,0.2
			c0.4,0,0.5-0.3,0.5-0.8v-1h0c-0.2,0.4-0.6,0.6-1.1,0.6c-1.5,0-1.5-1.4-1.5-2.6c0-1.1,0-2.5,1.5-2.5c0.5,0,0.9,0.2,1.1,0.7h0v-0.6
			H171.3z M169.4,266.7c0.5,0,0.6-0.5,0.6-1.6c0-1.1-0.1-1.7-0.6-1.7c-0.5,0-0.6,0.4-0.6,1.9C168.7,265.8,168.7,266.7,169.4,266.7z"
			/>
		<path class="st3" d="M174.6,265.1c0-1.4,0.2-2.6,2.1-2.6c1.9,0,2.1,1.2,2.1,2.6c0,1.6-0.2,2.7-2.1,2.7
			C174.8,267.8,174.6,266.6,174.6,265.1z M177.3,265c0-1,0-1.6-0.6-1.6s-0.7,0.5-0.7,1.6c0,1.5,0.1,1.9,0.7,1.9
			C177.2,266.9,177.3,266.5,177.3,265z"/>
		<path class="st3" d="M181.9,261.3c-0.6,0-0.7,0.2-0.7,0.7v0.6h0.7v0.9h-0.7v4.2h-1.4v-4.2h-0.6v-0.9h0.6c0-1.4-0.1-2.2,1.6-2.2
			c0.2,0,0.3,0,0.5,0V261.3z"/>
		<path class="st3" d="M18.2,278.7c0,0.3,0,0.6,0.1,0.9h-1.3l-0.1-0.7h0c-0.3,0.5-0.7,0.8-1.3,0.8c-1,0-1.3-0.7-1.3-1.6
			c0-1.7,1.3-1.7,2.6-1.7V276c0-0.4-0.1-0.7-0.6-0.7c-0.5,0-0.5,0.4-0.5,0.8h-1.4c0-0.6,0.2-1,0.5-1.2c0.3-0.2,0.8-0.3,1.3-0.3
			c1.8,0,2,0.8,2,1.7V278.7z M15.6,278.1c0,0.4,0.1,0.8,0.5,0.8c0.8,0,0.7-1.1,0.7-1.7C16.1,277.2,15.6,277.2,15.6,278.1z"/>
		<path class="st3" d="M20.9,272.4v7.2h-1.4v-7.2H20.9z"/>
		<path class="st3" d="M23.6,272.4v7.2h-1.4v-7.2H23.6z"/>
		<path class="st3" d="M26.5,274.6h0.6v-0.8l1.4-0.6v1.4h0.7v0.9h-0.7v2.7c0,0.4,0,0.6,0.5,0.6c0.1,0,0.2,0,0.2,0v0.9
			c-0.2,0-0.4,0-0.7,0c-1.2,0-1.4-0.8-1.4-1.1v-3.1h-0.6V274.6z"/>
		<path class="st3" d="M32.4,279.7v-3.5c0-0.4-0.1-0.8-0.5-0.8c-0.5,0-0.5,0.3-0.5,0.8v3.5h-1.4v-7.2h1.4v2.7h0
			c0.1-0.2,0.3-0.4,0.5-0.5c0.2-0.1,0.4-0.1,0.7-0.1c0.7,0,1.3,0.4,1.3,1.1v4H32.4z"/>
		<path class="st3" d="M36.2,277.4c0,0.6,0,1.5,0.6,1.5c0.5,0,0.6-0.5,0.6-0.9h1.4c0,0.5-0.2,1-0.5,1.3c-0.3,0.3-0.8,0.5-1.5,0.5
			c-1.8,0-2.1-1.1-2.1-2.7c0-1.4,0.2-2.6,2.1-2.6c1.9,0,2.1,1.2,2.1,2.8H36.2z M37.5,276.6c0-0.5,0-1.2-0.6-1.2
			c-0.7,0-0.6,0.8-0.6,1.2H37.5z"/>
		<path class="st3" d="M43.5,274.6v0.6h0c0.3-0.5,0.6-0.7,1.2-0.7c1.5,0,1.4,1.6,1.4,2.7c0,1,0,2.6-1.4,2.6c-0.5,0-0.9-0.1-1.1-0.6
			h0v2.6h-1.4v-7.2H43.5z M44.7,277.1c0-1,0-1.7-0.6-1.7c-0.6,0-0.6,0.7-0.6,1.7c0,1.3,0.1,1.8,0.6,1.8
			C44.6,278.9,44.7,278.4,44.7,277.1z"/>
		<path class="st3" d="M47,277.1c0-1.4,0.2-2.6,2.1-2.6c1.9,0,2.1,1.2,2.1,2.6c0,1.6-0.2,2.7-2.1,2.7C47.2,279.8,47,278.6,47,277.1z
			 M49.7,277c0-1,0-1.6-0.6-1.6s-0.7,0.5-0.7,1.6c0,1.5,0.1,1.9,0.7,1.9C49.6,278.9,49.7,278.5,49.7,277z"/>
		<path class="st3" d="M53.2,278c0,0.2,0,0.5,0.1,0.6c0.1,0.2,0.2,0.2,0.5,0.2c0.3,0,0.5-0.2,0.5-0.5c0-1.1-2.5-0.8-2.5-2.4
			c0-1.1,1.1-1.4,2-1.4c1,0,1.8,0.5,1.7,1.5h-1.4c0-0.4,0-0.6-0.1-0.7c-0.1-0.1-0.2-0.1-0.4-0.1c-0.3,0-0.5,0.2-0.5,0.5
			c0,0.8,2.5,0.8,2.5,2.4c0,0.9-0.7,1.5-1.9,1.5c-1.2,0-2-0.3-2-1.7H53.2z"/>
		<path class="st3" d="M57.7,278c0,0.2,0,0.5,0.1,0.6c0.1,0.2,0.2,0.2,0.5,0.2c0.3,0,0.5-0.2,0.5-0.5c0-1.1-2.5-0.8-2.5-2.4
			c0-1.1,1.1-1.4,2-1.4c1,0,1.8,0.5,1.7,1.5h-1.4c0-0.4,0-0.6-0.1-0.7c-0.1-0.1-0.2-0.1-0.4-0.1c-0.3,0-0.5,0.2-0.5,0.5
			c0,0.8,2.5,0.8,2.5,2.4c0,0.9-0.7,1.5-1.9,1.5c-1.2,0-2-0.3-2-1.7H57.7z"/>
		<path class="st3" d="M62.5,272.4v1.1h-1.4v-1.1H62.5z M62.5,279.7h-1.4v-5h1.4V279.7z"/>
		<path class="st3" d="M63.8,272.4h1.4v2.6h0c0.3-0.4,0.6-0.6,1.1-0.6c1.4,0,1.4,1.6,1.4,2.6c0,1,0,2.7-1.4,2.7
			c-0.5,0-0.9-0.2-1.2-0.7h0v0.6h-1.3V272.4z M66.4,277.1c0-1,0-1.7-0.6-1.7c-0.6,0-0.6,0.7-0.6,1.7c0,1.3,0.1,1.8,0.6,1.8
			C66.3,278.9,66.4,278.4,66.4,277.1z"/>
		<path class="st3" d="M70.3,272.4v1.1h-1.4v-1.1H70.3z M70.3,279.7h-1.4v-5h1.4V279.7z"/>
		<path class="st3" d="M73.1,272.4v7.2h-1.4v-7.2H73.1z"/>
		<path class="st3" d="M75.9,272.4v1.1h-1.4v-1.1H75.9z M75.9,279.7h-1.4v-5h1.4V279.7z"/>
		<path class="st3" d="M76.5,274.6h0.6v-0.8l1.4-0.6v1.4h0.7v0.9h-0.7v2.7c0,0.4,0,0.6,0.5,0.6c0.1,0,0.2,0,0.2,0v0.9
			c-0.2,0-0.4,0-0.7,0c-1.2,0-1.4-0.8-1.4-1.1v-3.1h-0.6V274.6z"/>
		<path class="st3" d="M81.4,272.4v1.1H80v-1.1H81.4z M81.4,279.7H80v-5h1.4V279.7z"/>
		<path class="st3" d="M84,277.4c0,0.6,0,1.5,0.6,1.5c0.5,0,0.6-0.5,0.6-0.9h1.4c0,0.5-0.2,1-0.5,1.3c-0.3,0.3-0.8,0.5-1.5,0.5
			c-1.8,0-2.1-1.1-2.1-2.7c0-1.4,0.2-2.6,2.1-2.6c1.9,0,2.1,1.2,2.1,2.8H84z M85.3,276.6c0-0.5,0-1.2-0.6-1.2
			c-0.7,0-0.6,0.8-0.6,1.2H85.3z"/>
		<path class="st3" d="M88.8,278c0,0.2,0,0.5,0.1,0.6c0.1,0.2,0.2,0.2,0.5,0.2c0.3,0,0.5-0.2,0.5-0.5c0-1.1-2.5-0.8-2.5-2.4
			c0-1.1,1.1-1.4,2-1.4c1,0,1.8,0.5,1.7,1.5h-1.4c0-0.4,0-0.6-0.1-0.7c-0.1-0.1-0.2-0.1-0.4-0.1c-0.3,0-0.5,0.2-0.5,0.5
			c0,0.8,2.5,0.8,2.5,2.4c0,0.9-0.7,1.5-1.9,1.5c-1.2,0-2-0.3-2-1.7H88.8z"/>
		<path class="st3" d="M93.9,274.6h1.4l0.7,3.8h0l1-3.8h1.5l0.9,3.8h0l0.8-3.8h1.3l-1.4,5h-1.5l-0.9-3.4h0l-1,3.4h-1.5L93.9,274.6z"
			/>
		<path class="st3" d="M104.6,279.7v-3.5c0-0.4-0.1-0.8-0.5-0.8c-0.5,0-0.5,0.3-0.5,0.8v3.5h-1.4v-7.2h1.4v2.7h0
			c0.1-0.2,0.3-0.4,0.5-0.5c0.2-0.1,0.4-0.1,0.7-0.1c0.7,0,1.3,0.4,1.3,1.1v4H104.6z"/>
		<path class="st3" d="M108.4,277.4c0,0.6,0,1.5,0.6,1.5c0.5,0,0.6-0.5,0.6-0.9h1.4c0,0.5-0.2,1-0.5,1.3c-0.3,0.3-0.8,0.5-1.5,0.5
			c-1.8,0-2.1-1.1-2.1-2.7c0-1.4,0.2-2.6,2.1-2.6c1.9,0,2.1,1.2,2.1,2.8H108.4z M109.7,276.6c0-0.5,0-1.2-0.6-1.2
			c-0.7,0-0.6,0.8-0.6,1.2H109.7z"/>
		<path class="st3" d="M113.5,275.1L113.5,275.1c0.2-0.2,0.3-0.4,0.5-0.5c0.2-0.1,0.4-0.1,0.7-0.1c0.7,0,1.3,0.4,1.3,1.1v4h-1.4
			v-3.5c0-0.4-0.1-0.8-0.5-0.8c-0.5,0-0.5,0.3-0.5,0.8v3.5h-1.4v-5h1.4V275.1z"/>
		<path class="st3" d="M123.2,278.7c0,0.3,0,0.6,0.1,0.9h-1.3l-0.1-0.7h0c-0.3,0.5-0.7,0.8-1.3,0.8c-1,0-1.3-0.7-1.3-1.6
			c0-1.7,1.3-1.7,2.6-1.7V276c0-0.4-0.1-0.7-0.6-0.7c-0.5,0-0.5,0.4-0.5,0.8h-1.4c0-0.6,0.2-1,0.5-1.2c0.3-0.2,0.8-0.3,1.3-0.3
			c1.8,0,2,0.8,2,1.7V278.7z M120.6,278.1c0,0.4,0.1,0.8,0.5,0.8c0.8,0,0.7-1.1,0.7-1.7C121.1,277.2,120.6,277.2,120.6,278.1z"/>
		<path class="st3" d="M125.7,275.1L125.7,275.1c0.2-0.2,0.3-0.4,0.5-0.5c0.2-0.1,0.4-0.1,0.7-0.1c0.7,0,1.3,0.4,1.3,1.1v4h-1.4
			v-3.5c0-0.4-0.1-0.8-0.5-0.8c-0.5,0-0.5,0.3-0.5,0.8v3.5h-1.4v-5h1.4V275.1z"/>
		<path class="st3" d="M130.4,278c0,0.2,0,0.5,0.1,0.6c0.1,0.2,0.2,0.2,0.5,0.2c0.3,0,0.5-0.2,0.5-0.5c0-1.1-2.5-0.8-2.5-2.4
			c0-1.1,1.1-1.4,2-1.4c1,0,1.8,0.5,1.7,1.5h-1.4c0-0.4,0-0.6-0.1-0.7c-0.1-0.1-0.2-0.1-0.4-0.1c-0.3,0-0.5,0.2-0.5,0.5
			c0,0.8,2.5,0.8,2.5,2.4c0,0.9-0.7,1.5-1.9,1.5c-1.2,0-2-0.3-2-1.7H130.4z"/>
		<path class="st3" d="M133.3,274.6h1.4l0.7,3.8h0l1-3.8h1.5l0.9,3.8h0l0.8-3.8h1.3l-1.4,5H138l-0.9-3.4h0l-1,3.4h-1.5L133.3,274.6z
			"/>
		<path class="st3" d="M142.9,277.4c0,0.6,0,1.5,0.6,1.5c0.5,0,0.6-0.5,0.6-0.9h1.4c0,0.5-0.2,1-0.5,1.3c-0.3,0.3-0.8,0.5-1.5,0.5
			c-1.8,0-2.1-1.1-2.1-2.7c0-1.4,0.2-2.6,2.1-2.6c1.9,0,2.1,1.2,2.1,2.8H142.9z M144.1,276.6c0-0.5,0-1.2-0.6-1.2
			c-0.7,0-0.6,0.8-0.6,1.2H144.1z"/>
		<path class="st3" d="M147.9,274.6v0.6h0c0.3-0.6,0.7-0.8,1.3-0.8v1.3c-1.2-0.1-1.3,0.6-1.3,1.1v2.7h-1.4v-5H147.9z"/>
		<path class="st3" d="M151.4,272.4v1.1H150v-1.1H151.4z M151.4,279.7H150v-5h1.4V279.7z"/>
		<path class="st3" d="M154.1,275.1L154.1,275.1c0.2-0.2,0.3-0.4,0.5-0.5c0.2-0.1,0.4-0.1,0.7-0.1c0.7,0,1.3,0.4,1.3,1.1v4h-1.4
			v-3.5c0-0.4-0.1-0.8-0.5-0.8c-0.5,0-0.5,0.3-0.5,0.8v3.5h-1.4v-5h1.4V275.1z"/>
		<path class="st3" d="M161.5,274.6v5.3c0,0.3,0,1.7-1.9,1.7c-1,0-1.9-0.3-2-1.5h1.4c0,0.2,0,0.4,0.1,0.5c0.1,0.1,0.2,0.2,0.5,0.2
			c0.4,0,0.5-0.3,0.5-0.8v-1h0c-0.2,0.4-0.6,0.6-1.1,0.6c-1.5,0-1.5-1.4-1.5-2.6c0-1.1,0-2.5,1.5-2.5c0.5,0,0.9,0.2,1.1,0.7h0v-0.6
			H161.5z M159.5,278.7c0.5,0,0.6-0.5,0.6-1.6c0-1.1-0.1-1.7-0.6-1.7c-0.5,0-0.6,0.4-0.6,1.9C158.9,277.8,158.9,278.7,159.5,278.7z"
			/>
		<path class="st3" d="M168.8,281.8h-1.4v-2.6h0c-0.3,0.4-0.6,0.6-1.1,0.6c-1.4,0-1.4-1.6-1.4-2.6c0-1,0-2.7,1.4-2.7
			c0.5,0,0.9,0.2,1.2,0.7h0v-0.6h1.3V281.8z M167.4,277.1c0-1,0-1.7-0.6-1.7c-0.6,0-0.6,0.7-0.6,1.7c0,1.3,0.1,1.8,0.6,1.8
			C167.3,278.9,167.4,278.4,167.4,277.1z"/>
		<path class="st3" d="M172.4,279.1L172.4,279.1c-0.2,0.2-0.3,0.4-0.5,0.5c-0.2,0.1-0.4,0.1-0.7,0.1c-0.7,0-1.3-0.4-1.3-1.1v-4h1.4
			v3.5c0,0.4,0.1,0.8,0.5,0.8c0.4,0,0.5-0.3,0.5-0.8v-3.5h1.4v4c0,0.3,0,0.7,0,1h-1.5V279.1z"/>
		<path class="st3" d="M176.2,277.4c0,0.6,0,1.5,0.6,1.5c0.5,0,0.6-0.5,0.6-0.9h1.4c0,0.5-0.2,1-0.5,1.3c-0.3,0.3-0.8,0.5-1.5,0.5
			c-1.8,0-2.1-1.1-2.1-2.7c0-1.4,0.2-2.6,2.1-2.6c1.9,0,2.1,1.2,2.1,2.8H176.2z M177.5,276.6c0-0.5,0-1.2-0.6-1.2
			c-0.7,0-0.6,0.8-0.6,1.2H177.5z"/>
		<path class="st3" d="M181,278c0,0.2,0,0.5,0.1,0.6c0.1,0.2,0.2,0.2,0.5,0.2c0.3,0,0.5-0.2,0.5-0.5c0-1.1-2.5-0.8-2.5-2.4
			c0-1.1,1.1-1.4,2-1.4c1,0,1.8,0.5,1.7,1.5H182c0-0.4,0-0.6-0.1-0.7c-0.1-0.1-0.2-0.1-0.4-0.1c-0.3,0-0.5,0.2-0.5,0.5
			c0,0.8,2.5,0.8,2.5,2.4c0,0.9-0.7,1.5-1.9,1.5c-1.2,0-2-0.3-2-1.7H181z"/>
		<path class="st3" d="M183.8,274.6h0.6v-0.8l1.4-0.6v1.4h0.7v0.9h-0.7v2.7c0,0.4,0,0.6,0.5,0.6c0.1,0,0.2,0,0.2,0v0.9
			c-0.2,0-0.4,0-0.7,0c-1.2,0-1.4-0.8-1.4-1.1v-3.1h-0.6V274.6z"/>
		<path class="st3" d="M188.6,272.4v1.1h-1.4v-1.1H188.6z M188.6,279.7h-1.4v-5h1.4V279.7z"/>
		<path class="st3" d="M189.8,277.1c0-1.4,0.2-2.6,2.1-2.6c1.9,0,2.1,1.2,2.1,2.6c0,1.6-0.2,2.7-2.1,2.7
			C190,279.8,189.8,278.6,189.8,277.1z M192.5,277c0-1,0-1.6-0.6-1.6s-0.7,0.5-0.7,1.6c0,1.5,0.1,1.9,0.7,1.9
			C192.3,278.9,192.5,278.5,192.5,277z"/>
		<path class="st3" d="M196.3,275.1L196.3,275.1c0.2-0.2,0.3-0.4,0.5-0.5c0.2-0.1,0.4-0.1,0.7-0.1c0.7,0,1.3,0.4,1.3,1.1v4h-1.4
			v-3.5c0-0.4-0.1-0.8-0.5-0.8c-0.5,0-0.5,0.3-0.5,0.8v3.5h-1.4v-5h1.4V275.1z"/>
		<path class="st3" d="M201,278c0,0.2,0,0.5,0.1,0.6c0.1,0.2,0.2,0.2,0.5,0.2c0.3,0,0.5-0.2,0.5-0.5c0-1.1-2.5-0.8-2.5-2.4
			c0-1.1,1.1-1.4,2-1.4c1,0,1.8,0.5,1.7,1.5H202c0-0.4,0-0.6-0.1-0.7c-0.1-0.1-0.2-0.1-0.4-0.1c-0.3,0-0.5,0.2-0.5,0.5
			c0,0.8,2.5,0.8,2.5,2.4c0,0.9-0.7,1.5-1.9,1.5c-1.2,0-2-0.3-2-1.7H201z"/>
	</g>
	<g id="cloud">
		<g>
			<g>
				<path class="st8" d="M360,272.8c0,0.3,0,0.6,0,0.8c0,4.2-3.4,7.7-7.7,7.7c-0.7,0-1.3-0.1-1.9-0.2c-1.4,1.6-3.5,2.6-5.8,2.6
					c-2.5,0-4.8-1.2-6.2-3.1c-1.1,0.5-2.3,0.7-3.5,0.7c-4.1-0.2-7.4-3.6-7.4-7.8c0-0.7,0.1-1.4,0.3-2c-1.5-1.4-2.4-3.4-2.4-5.5
					c0-2.4,1.1-4.6,2.9-6c-0.6-1.1-0.9-2.5-0.8-3.9c0.2-3.9,3.3-7.1,7.3-7.3c1.7-0.1,3.2,0.4,4.5,1.2c1.2-2.6,3.9-4.4,6.9-4.4
					c3.4,0,6.3,2.2,7.3,5.2c1.2-0.3,2.4-0.3,3.7,0.1c2.5,0.6,4.5,2.5,5.3,5c0.6,1.9,0.5,3.7-0.2,5.3c1.1,1.3,1.7,3,1.7,4.8
					C364.1,268.9,362.4,271.5,360,272.8z"/>
			</g>
			<g>
				<circle class="st8" cx="327" cy="280.3" r="1.5"/>
			</g>
			<g>
				<circle class="st8" cx="322.4" cy="283.5" r="1.7"/>
			</g>
		</g>
		<g>
			<g>
				<path class="st14" d="M356.4,267.3c0,0.2,0,0.3,0,0.5c0,2.5-2.1,4.6-4.6,4.6c-0.4,0-0.8,0-1.1-0.1c-0.8,1-2.1,1.6-3.5,1.6
					c-1.5,0-2.9-0.7-3.7-1.9c-0.6,0.3-1.4,0.4-2.1,0.4c-2.5-0.1-4.5-2.2-4.4-4.7c0-0.4,0.1-0.8,0.2-1.2c-0.9-0.8-1.4-2-1.4-3.3
					c0-1.5,0.7-2.8,1.7-3.6c-0.4-0.7-0.5-1.5-0.5-2.3c0.1-2.4,2-4.3,4.4-4.4c1-0.1,1.9,0.2,2.7,0.7c0.7-1.6,2.3-2.6,4.2-2.6
					c2,0,3.8,1.3,4.4,3.1c0.7-0.2,1.5-0.2,2.2,0c1.5,0.4,2.7,1.5,3.2,3c0.4,1.1,0.3,2.2-0.1,3.2c0.6,0.8,1,1.8,1,2.9
					C358.9,265,357.8,266.5,356.4,267.3z"/>
			</g>
			<g>
				<circle class="st14" cx="336.6" cy="271.8" r="0.9"/>
			</g>
			<g>
				<circle class="st14" cx="333.8" cy="273.7" r="1"/>
			</g>
		</g>
	</g>
	<line class="st4" x1="217.4" y1="279" x2="313.2" y2="279"/>
</g>
<g>
	<g>
		<path class="st3" d="M211.1,214.7v1.2h-1.7v6h-1.5v-6h-1.7v-1.2H211.1z"/>
		<path class="st3" d="M212.3,216.8v0.6h0c0.3-0.6,0.7-0.8,1.3-0.8v1.3c-1.2-0.1-1.3,0.6-1.3,1.1v2.7h-1.4v-5H212.3z"/>
		<path class="st3" d="M215.2,221.9l-1.4-5.1h1.4l0.7,3.5h0l0.8-3.5h1.4l-1.9,7h-1.5L215.2,221.9z"/>
		<path class="st3" d="M220.4,216.8h0.6V216l1.4-0.6v1.4h0.7v0.9h-0.7v2.7c0,0.4,0,0.6,0.5,0.6c0.1,0,0.2,0,0.2,0v0.9
			c-0.2,0-0.4,0-0.7,0c-1.2,0-1.4-0.8-1.4-1.1v-3.1h-0.6V216.8z"/>
		<path class="st3" d="M223.6,219.3c0-1.4,0.2-2.6,2.1-2.6c1.9,0,2.1,1.2,2.1,2.6c0,1.6-0.2,2.7-2.1,2.7
			C223.8,222,223.6,220.9,223.6,219.3z M226.3,219.2c0-1,0-1.6-0.6-1.6s-0.7,0.5-0.7,1.6c0,1.5,0.1,1.9,0.7,1.9
			C226.2,221.1,226.3,220.8,226.3,219.2z"/>
		<path class="st3" d="M234.8,221c0,0.3,0,0.6,0.1,0.9h-1.3l-0.1-0.7h0c-0.3,0.5-0.7,0.8-1.3,0.8c-1,0-1.3-0.7-1.3-1.6
			c0-1.7,1.3-1.7,2.6-1.7v-0.4c0-0.4-0.1-0.7-0.6-0.7c-0.5,0-0.5,0.4-0.5,0.8h-1.4c0-0.6,0.2-1,0.5-1.2c0.3-0.2,0.8-0.3,1.3-0.3
			c1.8,0,2,0.8,2,1.7V221z M232.2,220.3c0,0.4,0.1,0.8,0.5,0.8c0.8,0,0.7-1.1,0.7-1.7C232.7,219.5,232.2,219.4,232.2,220.3z"/>
		<path class="st3" d="M235.5,216.8h1.4l0.7,3.8h0l0.7-3.8h1.4l-1.4,5h-1.5L235.5,216.8z"/>
		<path class="st3" d="M240.3,219.3c0-1.4,0.2-2.6,2.1-2.6c1.9,0,2.1,1.2,2.1,2.6c0,1.6-0.2,2.7-2.1,2.7
			C240.5,222,240.3,220.9,240.3,219.3z M243,219.2c0-1,0-1.6-0.6-1.6s-0.7,0.5-0.7,1.6c0,1.5,0.1,1.9,0.7,1.9
			C242.8,221.1,243,220.8,243,219.2z"/>
		<path class="st3" d="M246.9,214.7v1.1h-1.4v-1.1H246.9z M246.9,221.9h-1.4v-5h1.4V221.9z"/>
		<path class="st3" d="M250.7,221.9v-0.6h0c-0.3,0.5-0.7,0.7-1.2,0.7c-1.5,0-1.4-1.6-1.4-2.7c0-1,0-2.6,1.4-2.6
			c0.5,0,0.9,0.2,1.1,0.6h0v-2.6h1.4v7.2H250.7z M250.6,219.3c0-1,0-1.7-0.6-1.7c-0.6,0-0.6,0.7-0.6,1.7c0,1.3,0.1,1.8,0.6,1.8
			C250.5,221.1,250.6,220.6,250.6,219.3z"/>
		<path class="st3" d="M254.8,216.8h0.6V216l1.4-0.6v1.4h0.7v0.9h-0.7v2.7c0,0.4,0,0.6,0.5,0.6c0.1,0,0.2,0,0.2,0v0.9
			c-0.2,0-0.4,0-0.7,0c-1.2,0-1.4-0.8-1.4-1.1v-3.1h-0.6V216.8z"/>
		<path class="st3" d="M259.5,219.6c0,0.6,0,1.5,0.6,1.5c0.5,0,0.6-0.5,0.6-0.9h1.4c0,0.5-0.2,1-0.5,1.3c-0.3,0.3-0.8,0.5-1.5,0.5
			c-1.8,0-2.1-1.1-2.1-2.7c0-1.4,0.2-2.6,2.1-2.6c1.9,0,2.1,1.2,2.1,2.8H259.5z M260.7,218.8c0-0.5,0-1.2-0.6-1.2
			c-0.7,0-0.6,0.8-0.6,1.2H260.7z"/>
		<path class="st3" d="M267,221c0,0.3,0,0.6,0.1,0.9h-1.3l-0.1-0.7h0c-0.3,0.5-0.7,0.8-1.3,0.8c-1,0-1.3-0.7-1.3-1.6
			c0-1.7,1.3-1.7,2.6-1.7v-0.4c0-0.4-0.1-0.7-0.6-0.7c-0.5,0-0.5,0.4-0.5,0.8h-1.4c0-0.6,0.2-1,0.5-1.2c0.3-0.2,0.8-0.3,1.3-0.3
			c1.8,0,2,0.8,2,1.7V221z M264.4,220.3c0,0.4,0.1,0.8,0.5,0.8c0.8,0,0.7-1.1,0.7-1.7C264.9,219.5,264.4,219.4,264.4,220.3z"/>
		<path class="st3" d="M270.7,218.6c0-0.8-0.2-1-0.6-1c-0.6,0-0.7,0.5-0.7,1.6c0,1.5,0.1,1.9,0.7,1.9c0.4,0,0.6-0.4,0.6-1.1h1.4
			c0,1.4-0.7,2-2.1,2c-1.8,0-2.1-1.1-2.1-2.7c0-1.4,0.2-2.6,2.1-2.6c1.3,0,2,0.6,2,1.9H270.7z"/>
		<path class="st3" d="M275.6,221.9v-3.5c0-0.4-0.1-0.8-0.5-0.8c-0.5,0-0.5,0.3-0.5,0.8v3.5h-1.4v-7.2h1.4v2.7h0
			c0.1-0.2,0.3-0.4,0.5-0.5c0.2-0.1,0.4-0.1,0.7-0.1c0.7,0,1.3,0.4,1.3,1.1v4H275.6z"/>
		<path class="st3" d="M279.5,219.6c0,0.6,0,1.5,0.6,1.5c0.5,0,0.6-0.5,0.6-0.9h1.4c0,0.5-0.2,1-0.5,1.3c-0.3,0.3-0.8,0.5-1.5,0.5
			c-1.8,0-2.1-1.1-2.1-2.7c0-1.4,0.2-2.6,2.1-2.6c1.9,0,2.1,1.2,2.1,2.8H279.5z M280.7,218.8c0-0.5,0-1.2-0.6-1.2
			c-0.7,0-0.6,0.8-0.6,1.2H280.7z"/>
		<path class="st3" d="M284.5,216.8v0.6h0c0.3-0.6,0.7-0.8,1.3-0.8v1.3c-1.2-0.1-1.3,0.6-1.3,1.1v2.7h-1.4v-5H284.5z"/>
		<path class="st3" d="M287.6,220.3c0,0.2,0,0.5,0.1,0.6c0.1,0.2,0.2,0.2,0.5,0.2c0.3,0,0.5-0.2,0.5-0.5c0-1.1-2.5-0.8-2.5-2.4
			c0-1.1,1.1-1.4,2-1.4c1,0,1.8,0.5,1.7,1.5h-1.4c0-0.4,0-0.6-0.1-0.7c-0.1-0.1-0.2-0.1-0.4-0.1c-0.3,0-0.5,0.2-0.5,0.5
			c0,0.8,2.5,0.8,2.5,2.4c0,0.9-0.7,1.5-1.9,1.5c-1.2,0-2-0.3-2-1.7H287.6z"/>
		<path class="st3" d="M292.7,216.8h1.4l0.7,3.8h0l1-3.8h1.5l0.9,3.8h0l0.8-3.8h1.3l-1.4,5h-1.5l-0.9-3.4h0l-1,3.4H294L292.7,216.8z
			"/>
		<path class="st3" d="M303.4,221.9v-3.5c0-0.4-0.1-0.8-0.5-0.8c-0.5,0-0.5,0.3-0.5,0.8v3.5h-1.4v-7.2h1.4v2.7h0
			c0.1-0.2,0.3-0.4,0.5-0.5c0.2-0.1,0.4-0.1,0.7-0.1c0.7,0,1.3,0.4,1.3,1.1v4H303.4z"/>
		<path class="st3" d="M305.8,219.3c0-1.4,0.2-2.6,2.1-2.6c1.9,0,2.1,1.2,2.1,2.6c0,1.6-0.2,2.7-2.1,2.7
			C306,222,305.8,220.9,305.8,219.3z M308.5,219.2c0-1,0-1.6-0.6-1.6s-0.7,0.5-0.7,1.6c0,1.5,0.1,1.9,0.7,1.9
			C308.4,221.1,308.5,220.8,308.5,219.2z"/>
		<path class="st3" d="M314.7,214.7v7.2h-1.4v-7.2H314.7z"/>
		<path class="st3" d="M317.2,219.6c0,0.6,0,1.5,0.6,1.5c0.5,0,0.6-0.5,0.6-0.9h1.4c0,0.5-0.2,1-0.5,1.3c-0.3,0.3-0.8,0.5-1.5,0.5
			c-1.8,0-2.1-1.1-2.1-2.7c0-1.4,0.2-2.6,2.1-2.6c1.9,0,2.1,1.2,2.1,2.8H317.2z M318.5,218.8c0-0.5,0-1.2-0.6-1.2
			c-0.7,0-0.6,0.8-0.6,1.2H318.5z"/>
		<path class="st3" d="M323.5,218.6c0-0.8-0.2-1-0.6-1c-0.6,0-0.7,0.5-0.7,1.6c0,1.5,0.1,1.9,0.7,1.9c0.4,0,0.6-0.4,0.6-1.1h1.4
			c0,1.4-0.7,2-2.1,2c-1.8,0-2.1-1.1-2.1-2.7c0-1.4,0.2-2.6,2.1-2.6c1.3,0,2,0.6,2,1.9H323.5z"/>
		<path class="st3" d="M325.4,216.8h0.6V216l1.4-0.6v1.4h0.7v0.9h-0.7v2.7c0,0.4,0,0.6,0.5,0.6c0.1,0,0.2,0,0.2,0v0.9
			c-0.2,0-0.4,0-0.7,0c-1.2,0-1.4-0.8-1.4-1.1v-3.1h-0.6V216.8z"/>
		<path class="st3" d="M331.2,221.4L331.2,221.4c-0.2,0.2-0.3,0.4-0.5,0.5c-0.2,0.1-0.4,0.1-0.7,0.1c-0.7,0-1.3-0.4-1.3-1.1v-4h1.4
			v3.5c0,0.4,0.1,0.8,0.5,0.8c0.4,0,0.5-0.3,0.5-0.8v-3.5h1.4v4c0,0.3,0,0.7,0,1h-1.5V221.4z"/>
		<path class="st3" d="M335,216.8v0.6h0c0.3-0.6,0.7-0.8,1.3-0.8v1.3c-1.2-0.1-1.3,0.6-1.3,1.1v2.7h-1.4v-5H335z"/>
		<path class="st3" d="M338.3,219.6c0,0.6,0,1.5,0.6,1.5c0.5,0,0.6-0.5,0.6-0.9h1.4c0,0.5-0.2,1-0.5,1.3c-0.3,0.3-0.8,0.5-1.5,0.5
			c-1.8,0-2.1-1.1-2.1-2.7c0-1.4,0.2-2.6,2.1-2.6c1.9,0,2.1,1.2,2.1,2.8H338.3z M339.6,218.8c0-0.5,0-1.2-0.6-1.2
			c-0.7,0-0.6,0.8-0.6,1.2H339.6z"/>
		<path class="st3" d="M348.1,221c0,0.3,0,0.6,0.1,0.9h-1.3l-0.1-0.7h0c-0.3,0.5-0.7,0.8-1.3,0.8c-1,0-1.3-0.7-1.3-1.6
			c0-1.7,1.3-1.7,2.6-1.7v-0.4c0-0.4-0.1-0.7-0.6-0.7c-0.5,0-0.5,0.4-0.5,0.8h-1.4c0-0.6,0.2-1,0.5-1.2c0.3-0.2,0.8-0.3,1.3-0.3
			c1.8,0,2,0.8,2,1.7V221z M345.5,220.3c0,0.4,0.1,0.8,0.5,0.8c0.8,0,0.7-1.1,0.7-1.7C346,219.5,345.5,219.4,345.5,220.3z"/>
		<path class="st3" d="M353,214.7v7.2h-1.4v-7.2H353z"/>
		<path class="st3" d="M354.1,219.3c0-1.4,0.2-2.6,2.1-2.6c1.9,0,2.1,1.2,2.1,2.6c0,1.6-0.2,2.7-2.1,2.7
			C354.4,222,354.1,220.9,354.1,219.3z M356.8,219.2c0-1,0-1.6-0.6-1.6s-0.7,0.5-0.7,1.6c0,1.5,0.1,1.9,0.7,1.9
			C356.7,221.1,356.8,220.8,356.8,219.2z"/>
		<path class="st3" d="M358.7,216.8h0.6V216l1.4-0.6v1.4h0.7v0.9h-0.7v2.7c0,0.4,0,0.6,0.5,0.6c0.1,0,0.2,0,0.2,0v0.9
			c-0.2,0-0.4,0-0.7,0c-1.2,0-1.4-0.8-1.4-1.1v-3.1h-0.6V216.8z"/>
	</g>
	<g id="microphone">
		<g>
			<path class="st9" d="M30.4,207.5L8.9,232.2c-0.8,0.9-0.8,2.3,0.1,3.2l0.9,0.9c0.9,0.9,2.3,0.9,3.3,0.1l24.4-21.8
				c1-0.9,1.1-2.5,0.1-3.4l-3.7-3.7C32.9,206.5,31.3,206.5,30.4,207.5z"/>
			<path class="st15" d="M23.5,222L23.5,222c-0.5-0.5-0.5-1.2,0-1.7l4.1-4.1c0.5-0.5,1.2-0.5,1.7,0h0c0.5,0.5,0.5,1.2,0,1.7
				l-4.1,4.1C24.7,222.5,23.9,222.5,23.5,222z"/>
			<path class="st5" d="M25.2,220.3L25.2,220.3c-0.3-0.3-0.3-0.8,0-1.2l2.8-2.8c0.3-0.3,0.8-0.3,1.2,0h0c0.3,0.3,0.3,0.8,0,1.2
				l-2.8,2.8C26,220.7,25.5,220.7,25.2,220.3z"/>
		</g>
		<g>
			<g>
				<path class="st9" d="M33.6,197.4c-2.7,3.8-2.4,9.2,1.1,12.6c3.4,3.4,8.8,3.8,12.6,1.1L33.6,197.4z"/>
				<path class="st9" d="M48.5,196.2c-3.8-3.8-10.1-3.8-13.9,0l13.9,13.9C52.4,206.2,52.4,200,48.5,196.2z"/>
			</g>
			<g>
				<defs>
					<path id="SVGID_2_" d="M48.5,196.2c-3.8-3.8-10.1-3.8-13.9,0l13.9,13.9C52.4,206.2,52.4,200,48.5,196.2z"/>
				</defs>
				<clipPath id="SVGID_3_">
					<use xlink:href="#SVGID_2_"  style="overflow:visible;"/>
				</clipPath>
				<g class="st16">
					<g>
						<path class="st5" d="M55.2,195.7L55.2,195.7c0,0.3-0.2,0.5-0.5,0.5H27c-0.3,0-0.5-0.2-0.5-0.5v0c0-0.3,0.2-0.5,0.5-0.5h27.7
							C55,195.2,55.2,195.5,55.2,195.7z"/>
						<path class="st5" d="M58.8,209.4L58.8,209.4c-0.2,0.2-0.5,0.2-0.7,0l-19.6-19.6c-0.2-0.2-0.2-0.5,0-0.7l0,0
							c0.2-0.2,0.5-0.2,0.7,0l19.6,19.6C59,208.9,59,209.2,58.8,209.4z"/>
						<path class="st5" d="M56.5,210.6L56.5,210.6c-0.2,0.2-0.5,0.2-0.7,0L36.2,191c-0.2-0.2-0.2-0.5,0-0.7l0,0
							c0.2-0.2,0.5-0.2,0.7,0l19.6,19.6C56.7,210.1,56.7,210.4,56.5,210.6z"/>
						<path class="st5" d="M54.3,211.7L54.3,211.7c-0.2,0.2-0.5,0.2-0.7,0L34,192.1c-0.2-0.2-0.2-0.5,0-0.7l0,0
							c0.2-0.2,0.5-0.2,0.7,0L54.3,211C54.5,211.2,54.5,211.6,54.3,211.7z"/>
						<path class="st5" d="M52,212.9L52,212.9c-0.2,0.2-0.5,0.2-0.7,0l-19.6-19.6c-0.2-0.2-0.2-0.5,0-0.7l0,0c0.2-0.2,0.5-0.2,0.7,0
							L52,212.2C52.2,212.4,52.2,212.7,52,212.9z"/>
						<path class="st5" d="M49.7,214.1L49.7,214.1c-0.2,0.2-0.5,0.2-0.7,0l-19.6-19.6c-0.2-0.2-0.2-0.5,0-0.7l0,0
							c0.2-0.2,0.5-0.2,0.7,0l19.6,19.6C49.9,213.6,49.9,213.9,49.7,214.1z"/>
						<path class="st5" d="M47.5,215.3L47.5,215.3c-0.2,0.2-0.5,0.2-0.7,0l-19.6-19.6c-0.2-0.2-0.2-0.5,0-0.7h0
							c0.2-0.2,0.5-0.2,0.7,0l19.6,19.6C47.7,214.7,47.7,215.1,47.5,215.3z"/>
						<path class="st5" d="M45.2,216.4L45.2,216.4c-0.2,0.2-0.5,0.2-0.7,0l-19.6-19.6c-0.2-0.2-0.2-0.5,0-0.7h0
							c0.2-0.2,0.5-0.2,0.7,0l19.6,19.6C45.4,215.9,45.4,216.2,45.2,216.4z"/>
						<path class="st5" d="M42.9,217.6L42.9,217.6c-0.2,0.2-0.5,0.2-0.7,0L22.6,198c-0.2-0.2-0.2-0.5,0-0.7l0,0
							c0.2-0.2,0.5-0.2,0.7,0l19.6,19.6C43.1,217.1,43.1,217.4,42.9,217.6z"/>
						<path class="st5" d="M55.7,198.3L55.7,198.3c0,0.3-0.2,0.5-0.5,0.5H27.5c-0.3,0-0.5-0.2-0.5-0.5l0,0c0-0.3,0.2-0.5,0.5-0.5
							h27.7C55.5,197.8,55.7,198,55.7,198.3z"/>
						<path class="st5" d="M56.2,200.8L56.2,200.8c0,0.3-0.2,0.5-0.5,0.5H28c-0.3,0-0.5-0.2-0.5-0.5v0c0-0.3,0.2-0.5,0.5-0.5h27.7
							C56,200.3,56.2,200.5,56.2,200.8z"/>
						<path class="st5" d="M56.7,203.3L56.7,203.3c0,0.3-0.2,0.5-0.5,0.5H28.5c-0.3,0-0.5-0.2-0.5-0.5l0,0c0-0.3,0.2-0.5,0.5-0.5
							h27.7C56.5,202.8,56.7,203.1,56.7,203.3z"/>
						<path class="st5" d="M57.2,205.9L57.2,205.9c0,0.3-0.2,0.5-0.5,0.5H29c-0.3,0-0.5-0.2-0.5-0.5l0,0c0-0.3,0.2-0.5,0.5-0.5h27.7
							C57,205.4,57.2,205.6,57.2,205.9z"/>
						<path class="st5" d="M57.8,208.4L57.8,208.4c0,0.3-0.2,0.5-0.5,0.5H29.5c-0.3,0-0.5-0.2-0.5-0.5l0,0c0-0.3,0.2-0.5,0.5-0.5
							h27.7C57.5,207.9,57.8,208.1,57.8,208.4z"/>
						<path class="st5" d="M58.3,210.9L58.3,210.9c0,0.3-0.2,0.5-0.5,0.5H30.1c-0.3,0-0.5-0.2-0.5-0.5l0,0c0-0.3,0.2-0.5,0.5-0.5
							h27.7C58.1,210.5,58.3,210.7,58.3,210.9z"/>
					</g>
					<g>
						<path class="st17" d="M55.2,195.7L55.2,195.7c0,0.3-0.2,0.5-0.5,0.5H27c-0.3,0-0.5-0.2-0.5-0.5v0c0-0.3,0.2-0.5,0.5-0.5h27.7
							C55,195.2,55.2,195.5,55.2,195.7z"/>
						<path class="st17" d="M58.8,209.4L58.8,209.4c-0.2,0.2-0.5,0.2-0.7,0l-19.6-19.6c-0.2-0.2-0.2-0.5,0-0.7l0,0
							c0.2-0.2,0.5-0.2,0.7,0l19.6,19.6C59,208.9,59,209.2,58.8,209.4z"/>
						<path class="st17" d="M56.5,210.6L56.5,210.6c-0.2,0.2-0.5,0.2-0.7,0L36.2,191c-0.2-0.2-0.2-0.5,0-0.7l0,0
							c0.2-0.2,0.5-0.2,0.7,0l19.6,19.6C56.7,210.1,56.7,210.4,56.5,210.6z"/>
						<path class="st17" d="M54.3,211.7L54.3,211.7c-0.2,0.2-0.5,0.2-0.7,0L34,192.1c-0.2-0.2-0.2-0.5,0-0.7l0,0
							c0.2-0.2,0.5-0.2,0.7,0L54.3,211C54.5,211.2,54.5,211.6,54.3,211.7z"/>
						<path class="st17" d="M52,212.9L52,212.9c-0.2,0.2-0.5,0.2-0.7,0l-19.6-19.6c-0.2-0.2-0.2-0.5,0-0.7l0,0
							c0.2-0.2,0.5-0.2,0.7,0L52,212.2C52.2,212.4,52.2,212.7,52,212.9z"/>
						<path class="st17" d="M49.7,214.1L49.7,214.1c-0.2,0.2-0.5,0.2-0.7,0l-19.6-19.6c-0.2-0.2-0.2-0.5,0-0.7l0,0
							c0.2-0.2,0.5-0.2,0.7,0l19.6,19.6C49.9,213.6,49.9,213.9,49.7,214.1z"/>
						<path class="st17" d="M47.5,215.3L47.5,215.3c-0.2,0.2-0.5,0.2-0.7,0l-19.6-19.6c-0.2-0.2-0.2-0.5,0-0.7h0
							c0.2-0.2,0.5-0.2,0.7,0l19.6,19.6C47.7,214.7,47.7,215.1,47.5,215.3z"/>
						<path class="st17" d="M45.2,216.4L45.2,216.4c-0.2,0.2-0.5,0.2-0.7,0l-19.6-19.6c-0.2-0.2-0.2-0.5,0-0.7h0
							c0.2-0.2,0.5-0.2,0.7,0l19.6,19.6C45.4,215.9,45.4,216.2,45.2,216.4z"/>
						<path class="st17" d="M42.9,217.6L42.9,217.6c-0.2,0.2-0.5,0.2-0.7,0L22.6,198c-0.2-0.2-0.2-0.5,0-0.7l0,0
							c0.2-0.2,0.5-0.2,0.7,0l19.6,19.6C43.1,217.1,43.1,217.4,42.9,217.6z"/>
						<path class="st17" d="M55.7,198.3L55.7,198.3c0,0.3-0.2,0.5-0.5,0.5H27.5c-0.3,0-0.5-0.2-0.5-0.5l0,0c0-0.3,0.2-0.5,0.5-0.5
							h27.7C55.5,197.8,55.7,198,55.7,198.3z"/>
						<path class="st17" d="M56.2,200.8L56.2,200.8c0,0.3-0.2,0.5-0.5,0.5H28c-0.3,0-0.5-0.2-0.5-0.5v0c0-0.3,0.2-0.5,0.5-0.5h27.7
							C56,200.3,56.2,200.5,56.2,200.8z"/>
						<path class="st17" d="M56.7,203.3L56.7,203.3c0,0.3-0.2,0.5-0.5,0.5H28.5c-0.3,0-0.5-0.2-0.5-0.5l0,0c0-0.3,0.2-0.5,0.5-0.5
							h27.7C56.5,202.8,56.7,203.1,56.7,203.3z"/>
						<path class="st17" d="M57.2,205.9L57.2,205.9c0,0.3-0.2,0.5-0.5,0.5H29c-0.3,0-0.5-0.2-0.5-0.5l0,0c0-0.3,0.2-0.5,0.5-0.5
							h27.7C57,205.4,57.2,205.6,57.2,205.9z"/>
						<path class="st17" d="M57.8,208.4L57.8,208.4c0,0.3-0.2,0.5-0.5,0.5H29.5c-0.3,0-0.5-0.2-0.5-0.5l0,0c0-0.3,0.2-0.5,0.5-0.5
							h27.7C57.5,207.9,57.8,208.1,57.8,208.4z"/>
						<path class="st17" d="M58.3,210.9L58.3,210.9c0,0.3-0.2,0.5-0.5,0.5H30.1c-0.3,0-0.5-0.2-0.5-0.5l0,0c0-0.3,0.2-0.5,0.5-0.5
							h27.7C58.1,210.5,58.3,210.7,58.3,210.9z"/>
					</g>
				</g>
			</g>
			<g>
				<defs>
					<path id="SVGID_4_" d="M33.6,197.4c-2.7,3.8-2.4,9.2,1.1,12.6c3.4,3.4,8.8,3.8,12.6,1.1L33.6,197.4z"/>
				</defs>
				<clipPath id="SVGID_5_">
					<use xlink:href="#SVGID_4_"  style="overflow:visible;"/>
				</clipPath>
				<g class="st18">
					<g>
						<path class="st5" d="M55.2,195.8L55.2,195.8c0,0.3-0.2,0.5-0.5,0.5H27c-0.3,0-0.5-0.2-0.5-0.5l0,0c0-0.3,0.2-0.5,0.5-0.5h27.7
							C55,195.3,55.2,195.5,55.2,195.8z"/>
						<path class="st5" d="M58.8,209.4L58.8,209.4c-0.2,0.2-0.5,0.2-0.7,0l-19.6-19.6c-0.2-0.2-0.2-0.5,0-0.7l0,0
							c0.2-0.2,0.5-0.2,0.7,0l19.6,19.6C59,208.9,59,209.2,58.8,209.4z"/>
						<path class="st5" d="M56.6,210.6L56.6,210.6c-0.2,0.2-0.5,0.2-0.7,0L36.3,191c-0.2-0.2-0.2-0.5,0-0.7l0,0
							c0.2-0.2,0.5-0.2,0.7,0l19.6,19.6C56.7,210.1,56.7,210.4,56.6,210.6z"/>
						<path class="st5" d="M54.3,211.8L54.3,211.8c-0.2,0.2-0.5,0.2-0.7,0L34,192.2c-0.2-0.2-0.2-0.5,0-0.7l0,0
							c0.2-0.2,0.5-0.2,0.7,0l19.6,19.6C54.5,211.3,54.5,211.6,54.3,211.8z"/>
						<path class="st5" d="M52,212.9L52,212.9c-0.2,0.2-0.5,0.2-0.7,0l-19.6-19.6c-0.2-0.2-0.2-0.5,0-0.7h0c0.2-0.2,0.5-0.2,0.7,0
							L52,212.2C52.2,212.4,52.2,212.7,52,212.9z"/>
						<path class="st5" d="M49.7,214.1L49.7,214.1c-0.2,0.2-0.5,0.2-0.7,0l-19.6-19.6c-0.2-0.2-0.2-0.5,0-0.7l0,0
							c0.2-0.2,0.5-0.2,0.7,0l19.6,19.6C49.9,213.6,49.9,213.9,49.7,214.1z"/>
						<path class="st5" d="M47.5,215.3L47.5,215.3c-0.2,0.2-0.5,0.2-0.7,0l-19.6-19.6c-0.2-0.2-0.2-0.5,0-0.7l0,0
							c0.2-0.2,0.5-0.2,0.7,0l19.6,19.6C47.7,214.8,47.7,215.1,47.5,215.3z"/>
						<path class="st5" d="M45.2,216.4L45.2,216.4c-0.2,0.2-0.5,0.2-0.7,0l-19.6-19.6c-0.2-0.2-0.2-0.5,0-0.7l0,0
							c0.2-0.2,0.5-0.2,0.7,0l19.6,19.6C45.4,215.9,45.4,216.2,45.2,216.4z"/>
						<path class="st5" d="M42.9,217.6L42.9,217.6c-0.2,0.2-0.5,0.2-0.7,0L22.6,198c-0.2-0.2-0.2-0.5,0-0.7h0c0.2-0.2,0.5-0.2,0.7,0
							l19.6,19.6C43.1,217.1,43.1,217.4,42.9,217.6z"/>
						<path class="st5" d="M55.7,198.3L55.7,198.3c0,0.3-0.2,0.5-0.5,0.5H27.5c-0.3,0-0.5-0.2-0.5-0.5l0,0c0-0.3,0.2-0.5,0.5-0.5
							h27.7C55.5,197.8,55.7,198,55.7,198.3z"/>
						<path class="st5" d="M56.2,200.8L56.2,200.8c0,0.3-0.2,0.5-0.5,0.5H28c-0.3,0-0.5-0.2-0.5-0.5l0,0c0-0.3,0.2-0.5,0.5-0.5h27.7
							C56,200.3,56.2,200.6,56.2,200.8z"/>
						<path class="st5" d="M56.8,203.4L56.8,203.4c0,0.3-0.2,0.5-0.5,0.5H28.5c-0.3,0-0.5-0.2-0.5-0.5l0,0c0-0.3,0.2-0.5,0.5-0.5
							h27.7C56.5,202.9,56.8,203.1,56.8,203.4z"/>
						<path class="st5" d="M57.3,205.9L57.3,205.9c0,0.3-0.2,0.5-0.5,0.5H29.1c-0.3,0-0.5-0.2-0.5-0.5l0,0c0-0.3,0.2-0.5,0.5-0.5
							h27.7C57,205.4,57.3,205.6,57.3,205.9z"/>
						<path class="st5" d="M57.8,208.4L57.8,208.4c0,0.3-0.2,0.5-0.5,0.5H29.6c-0.3,0-0.5-0.2-0.5-0.5l0,0c0-0.3,0.2-0.5,0.5-0.5
							h27.7C57.6,207.9,57.8,208.2,57.8,208.4z"/>
						<path class="st5" d="M58.3,211L58.3,211c0,0.3-0.2,0.5-0.5,0.5H30.1c-0.3,0-0.5-0.2-0.5-0.5l0,0c0-0.3,0.2-0.5,0.5-0.5h27.7
							C58.1,210.5,58.3,210.7,58.3,211z"/>
					</g>
					<g>
						<path class="st17" d="M55.2,195.8L55.2,195.8c0,0.3-0.2,0.5-0.5,0.5H27c-0.3,0-0.5-0.2-0.5-0.5l0,0c0-0.3,0.2-0.5,0.5-0.5
							h27.7C55,195.3,55.2,195.5,55.2,195.8z"/>
						<path class="st17" d="M58.8,209.4L58.8,209.4c-0.2,0.2-0.5,0.2-0.7,0l-19.6-19.6c-0.2-0.2-0.2-0.5,0-0.7l0,0
							c0.2-0.2,0.5-0.2,0.7,0l19.6,19.6C59,208.9,59,209.2,58.8,209.4z"/>
						<path class="st17" d="M56.6,210.6L56.6,210.6c-0.2,0.2-0.5,0.2-0.7,0L36.3,191c-0.2-0.2-0.2-0.5,0-0.7l0,0
							c0.2-0.2,0.5-0.2,0.7,0l19.6,19.6C56.7,210.1,56.7,210.4,56.6,210.6z"/>
						<path class="st17" d="M54.3,211.8L54.3,211.8c-0.2,0.2-0.5,0.2-0.7,0L34,192.2c-0.2-0.2-0.2-0.5,0-0.7l0,0
							c0.2-0.2,0.5-0.2,0.7,0l19.6,19.6C54.5,211.3,54.5,211.6,54.3,211.8z"/>
						<path class="st17" d="M52,212.9L52,212.9c-0.2,0.2-0.5,0.2-0.7,0l-19.6-19.6c-0.2-0.2-0.2-0.5,0-0.7h0c0.2-0.2,0.5-0.2,0.7,0
							L52,212.2C52.2,212.4,52.2,212.7,52,212.9z"/>
						<path class="st17" d="M49.7,214.1L49.7,214.1c-0.2,0.2-0.5,0.2-0.7,0l-19.6-19.6c-0.2-0.2-0.2-0.5,0-0.7l0,0
							c0.2-0.2,0.5-0.2,0.7,0l19.6,19.6C49.9,213.6,49.9,213.9,49.7,214.1z"/>
						<path class="st17" d="M47.5,215.3L47.5,215.3c-0.2,0.2-0.5,0.2-0.7,0l-19.6-19.6c-0.2-0.2-0.2-0.5,0-0.7l0,0
							c0.2-0.2,0.5-0.2,0.7,0l19.6,19.6C47.7,214.8,47.7,215.1,47.5,215.3z"/>
						<path class="st17" d="M45.2,216.4L45.2,216.4c-0.2,0.2-0.5,0.2-0.7,0l-19.6-19.6c-0.2-0.2-0.2-0.5,0-0.7l0,0
							c0.2-0.2,0.5-0.2,0.7,0l19.6,19.6C45.4,215.9,45.4,216.2,45.2,216.4z"/>
						<path class="st17" d="M42.9,217.6L42.9,217.6c-0.2,0.2-0.5,0.2-0.7,0L22.6,198c-0.2-0.2-0.2-0.5,0-0.7h0
							c0.2-0.2,0.5-0.2,0.7,0l19.6,19.6C43.1,217.1,43.1,217.4,42.9,217.6z"/>
						<path class="st17" d="M55.7,198.3L55.7,198.3c0,0.3-0.2,0.5-0.5,0.5H27.5c-0.3,0-0.5-0.2-0.5-0.5l0,0c0-0.3,0.2-0.5,0.5-0.5
							h27.7C55.5,197.8,55.7,198,55.7,198.3z"/>
						<path class="st17" d="M56.2,200.8L56.2,200.8c0,0.3-0.2,0.5-0.5,0.5H28c-0.3,0-0.5-0.2-0.5-0.5l0,0c0-0.3,0.2-0.5,0.5-0.5
							h27.7C56,200.3,56.2,200.6,56.2,200.8z"/>
						<path class="st17" d="M56.8,203.4L56.8,203.4c0,0.3-0.2,0.5-0.5,0.5H28.5c-0.3,0-0.5-0.2-0.5-0.5l0,0c0-0.3,0.2-0.5,0.5-0.5
							h27.7C56.5,202.9,56.8,203.1,56.8,203.4z"/>
						<path class="st17" d="M57.3,205.9L57.3,205.9c0,0.3-0.2,0.5-0.5,0.5H29.1c-0.3,0-0.5-0.2-0.5-0.5l0,0c0-0.3,0.2-0.5,0.5-0.5
							h27.7C57,205.4,57.3,205.6,57.3,205.9z"/>
						<path class="st17" d="M57.8,208.4L57.8,208.4c0,0.3-0.2,0.5-0.5,0.5H29.6c-0.3,0-0.5-0.2-0.5-0.5l0,0c0-0.3,0.2-0.5,0.5-0.5
							h27.7C57.6,207.9,57.8,208.2,57.8,208.4z"/>
						<path class="st17" d="M58.3,211L58.3,211c0,0.3-0.2,0.5-0.5,0.5H30.1c-0.3,0-0.5-0.2-0.5-0.5l0,0c0-0.3,0.2-0.5,0.5-0.5h27.7
							C58.1,210.5,58.3,210.7,58.3,211z"/>
					</g>
				</g>
			</g>
		</g>
	</g>
	<line class="st4" x1="51.2" y1="221.7" x2="201.2" y2="221.7"/>
</g>
</svg>
