<?xml version="1.0" encoding="utf-8"?>
<!-- Generator: Adobe Illustrator 19.2.1, SVG Export Plug-In . SVG Version: 6.00 Build 0)  -->
<!DOCTYPE svg PUBLIC "-//W3C//DTD SVG 1.1//EN" "http://www.w3.org/Graphics/SVG/1.1/DTD/svg11.dtd">
<svg version="1.1" id="Layer_1" xmlns="http://www.w3.org/2000/svg" xmlns:xlink="http://www.w3.org/1999/xlink" x="0px" y="0px"
	 width="459px" height="453px" viewBox="0 0 459 453" style="enable-background:new 0 0 459 453;" xml:space="preserve">
<style type="text/css">
	.Drop_x0020_Shadow{fill:none;}
	.Outer_x0020_Glow_x0020_5_x0020_pt{fill:none;}
	.Blue_x0020_Neon{fill:none;stroke:#8AACDA;stroke-width:7;stroke-linecap:round;stroke-linejoin:round;}
	.Chrome_x0020_Highlight{fill:url(#SVGID_1_);stroke:#FFFFFF;stroke-width:0.3629;stroke-miterlimit:1;}
	.Jive_GS{fill:#FFDD00;}
	.Alyssa_GS{fill:#A6D0E4;}
	.st0{fill:#ED5A49;}
	.st1{fill:#E9F5FC;}
	.st2{fill:#0A3656;}
</style>
<linearGradient id="SVGID_1_" gradientUnits="userSpaceOnUse" x1="-262.6013" y1="-64.1012" x2="-262.6013" y2="-65.1012">
	<stop  offset="0" style="stop-color:#656565"/>
	<stop  offset="0.618" style="stop-color:#1B1B1B"/>
	<stop  offset="0.6292" style="stop-color:#545454"/>
	<stop  offset="0.9831" style="stop-color:#3E3E3E"/>
</linearGradient>
<g id="percentage_2_">
	<g>
		<path class="st0" d="M288.7,226.2H141.1c-6,0-11-4.9-11-11v0c0-6,4.9-11,11-11h147.6c6,0,11,4.9,11,11v0
			C299.7,221.3,294.7,226.2,288.7,226.2z"/>
		<path class="st1" d="M165.6,224.4h-26.8c-4.8,0-8.8-3.9-8.8-8.8v-0.9c0-4.8,3.9-8.8,8.8-8.8h26.8c4.8,0,8.8,3.9,8.8,8.8v0.9
			C174.4,220.5,170.5,224.4,165.6,224.4z"/>
		<g>
			<path class="st2" d="M139,219.4v-7.5h1.6v6.3h2.4v1.2H139z"/>
			<path class="st2" d="M143.6,219.4v-7.5h4.1v1.2h-2.5v1.9h2.3v1.2h-2.3v2.2h2.6v1.2H143.6z"/>
			<path class="st2" d="M148.7,219.4v-7.5h3.9v1.2h-2.3v1.9h2.2v1.2h-2.2v3.3H148.7z"/>
			<path class="st2" d="M157.8,211.9v1.2h-1.7v6.3h-1.6v-6.3h-1.7v-1.2H157.8z"/>
			<path class="st2" d="M158.6,219.4v-7.5h1.6v7.5H158.6z"/>
			<path class="st2" d="M161.5,219.4v-7.5h4.1v1.2H163v1.9h2.3v1.2H163v2.2h2.6v1.2H161.5z"/>
			<path class="st2" d="M168.7,219.5c-1.9,0-2.3-1.1-2.2-2.4h1.6c0,0.7,0,1.3,0.9,1.3c0.5,0,0.8-0.3,0.8-0.9c0-1.4-3.2-1.4-3.2-3.7
				c0-1.2,0.6-2.1,2.5-2.1c1.5,0,2.3,0.7,2.2,2.3h-1.5c0-0.6-0.1-1.1-0.7-1.1c-0.5,0-0.8,0.3-0.8,0.8c0,1.4,3.2,1.3,3.2,3.7
				C171.3,219.3,169.9,219.5,168.7,219.5z"/>
			<path class="st2" d="M174.8,211.2c0.7-0.4,1.4-0.9,1.9-1.5h1.9v9.8h-2.1v-7.5c-0.5,0.4-1.1,0.8-1.7,1.1V211.2z"/>
			<path class="st2" d="M186.3,214.5c0,3.1-0.2,5-2.8,5c-2.6,0-2.8-2-2.8-5c0-3.7,0.4-5,2.8-5C185.8,209.5,186.3,210.8,186.3,214.5z
				 M182.6,214.5c0,3,0.1,3.6,0.9,3.6c0.8,0,0.9-0.6,0.9-3.6c0-3,0-3.6-0.9-3.6C182.6,210.9,182.6,211.5,182.6,214.5z"/>
			<path class="st2" d="M187,212.3c0-1.5,0.3-2.6,2-2.6s2,1.2,2,2.6c0,1.7-0.4,2.5-2,2.5S187,213.9,187,212.3z M189.7,212.1
				c0-0.5,0-1.4-0.7-1.4s-0.7,0.9-0.7,1.4c0,1.2,0.1,1.6,0.7,1.6S189.7,213.3,189.7,212.1z M190.4,219.7h-1l4.1-10.3h1L190.4,219.7z
				 M192.9,216.9c0-1.5,0.3-2.6,2-2.6s2,1.2,2,2.6c0,1.7-0.4,2.5-2,2.5S192.9,218.5,192.9,216.9z M195.7,216.7c0-0.5,0-1.4-0.7-1.4
				s-0.7,0.9-0.7,1.4c0,1.2,0.1,1.6,0.7,1.6S195.7,217.9,195.7,216.7z"/>
		</g>
	</g>
	<g>
		<path class="st0" d="M288.7,200.2H141.1c-6,0-11-4.9-11-11v0c0-6,4.9-11,11-11h147.6c6,0,11,4.9,11,11v0
			C299.7,195.2,294.7,200.2,288.7,200.2z"/>
		<path class="st1" d="M267.5,198.4H139.1c-5.1,0-9.2-4.1-9.2-9.2v0c0-5.1,4.1-9.2,9.2-9.2h128.4c5.1,0,9.2,4.1,9.2,9.2v0
			C276.7,194.3,272.6,198.4,267.5,198.4z"/>
		<g>
			<path class="st2" d="M143.4,193.8h-1.5v-7.4h2.8c1,0,1.7,0.7,1.7,1.9c0,0.9-0.4,1.6-1.4,1.8v0c0.3,0,1.3,0.1,1.3,1.4
				c0,0.5,0,1.9,0.2,2.2h-1.5c-0.2-0.4-0.2-0.9-0.2-1.4c0-0.9,0.1-1.6-1.1-1.6h-0.4V193.8z M143.4,189.6h0.7c0.6,0,0.8-0.6,0.8-1.1
				c0-0.7-0.3-1-0.8-1h-0.7V189.6z"/>
			<path class="st2" d="M147.6,193.8v-7.4h1.5v7.4H147.6z"/>
			<path class="st2" d="M153.8,188.7c0-0.7-0.1-1.3-0.9-1.3c-1,0-1,1.3-1,2.7c0,2.3,0.2,2.7,1.1,2.7c0.3,0,0.5-0.1,0.8-0.1V191h-0.8
				v-1.1h2.4v3.7c-0.4,0.1-1.5,0.2-2.1,0.2c-2.6,0-2.9-1.1-2.9-3.9c0-1.9,0.1-3.7,2.6-3.7c1.5,0,2.4,0.8,2.4,2.4H153.8z"/>
			<path class="st2" d="M160,189.3v-2.9h1.5v7.4H160v-3.3h-1.8v3.3h-1.5v-7.4h1.5v2.9H160z"/>
			<path class="st2" d="M167.2,186.4v1.2h-1.7v6.1H164v-6.1h-1.7v-1.2H167.2z"/>
			<path class="st2" d="M168,193.8v-7.4h1.5v7.4H168z"/>
			<path class="st2" d="M170.8,193.8v-7.4h4v1.1h-2.5v1.8h2.3v1.1h-2.3v2.2h2.6v1.1H170.8z"/>
			<path class="st2" d="M177.9,193.9c-1.9,0-2.3-1.1-2.2-2.4h1.5c0,0.7,0,1.3,0.9,1.3c0.5,0,0.8-0.3,0.8-0.8c0-1.3-3.1-1.4-3.1-3.6
				c0-1.2,0.6-2.1,2.4-2.1c1.5,0,2.2,0.7,2.1,2.2h-1.5c0-0.6-0.1-1.1-0.7-1.1c-0.5,0-0.8,0.3-0.8,0.8c0,1.4,3.1,1.3,3.1,3.6
				C180.5,193.7,179.1,193.9,177.9,193.9z"/>
			<path class="st2" d="M185.5,191.5c0,0.3,0,0.5,0.1,0.7c0.1,0.2,0.3,0.3,0.6,0.3c1,0,0.9-0.8,0.9-3.1c-0.4,0.4-1,0.6-1.6,0.6
				c-1.5,0-2.1-1.3-2.1-2.6c0-1.9,0.6-3.5,2.8-3.5c2.9,0,2.9,2.3,2.9,5.1c0,2.4,0,5-2.9,5c-1.7,0-2.7-0.6-2.6-2.4H185.5z
				 M186.3,188.6c0.8,0,0.9-1.1,0.9-1.7c0-0.6,0-1.7-0.9-1.7c-0.9,0-0.9,1.1-0.9,1.7C185.4,187.5,185.4,188.6,186.3,188.6z"/>
			<path class="st2" d="M195.3,188.8c0,3.1-0.2,5-2.8,5c-2.6,0-2.8-2-2.8-5c0-3.7,0.4-5,2.8-5C194.9,183.9,195.3,185.1,195.3,188.8z
				 M191.6,188.9c0,3,0.1,3.6,0.9,3.6c0.8,0,0.9-0.6,0.9-3.6c0-3,0-3.6-0.9-3.6C191.7,185.3,191.6,185.9,191.6,188.9z"/>
			<path class="st2" d="M196.1,186.6c0-1.5,0.3-2.6,2-2.6s2,1.2,2,2.6c0,1.7-0.4,2.5-2,2.5S196.1,188.3,196.1,186.6z M198.8,186.5
				c0-0.5,0-1.4-0.7-1.4s-0.7,0.9-0.7,1.4c0,1.2,0.1,1.6,0.7,1.6S198.8,187.6,198.8,186.5z M199.5,194.1h-1l4.1-10.3h1L199.5,194.1z
				 M202,191.2c0-1.5,0.3-2.6,2-2.6s2,1.2,2,2.6c0,1.7-0.4,2.5-2,2.5S202,192.9,202,191.2z M204.7,191.1c0-0.5,0-1.4-0.7-1.4
				s-0.7,0.9-0.7,1.4c0,1.2,0.1,1.6,0.7,1.6S204.7,192.2,204.7,191.1z"/>
		</g>
	</g>
	<g>
		<path class="st0" d="M288.7,252.9H141.1c-6,0-11-4.9-11-11v0c0-6,4.9-11,11-11h147.6c6,0,11,4.9,11,11v0
			C299.7,247.9,294.7,252.9,288.7,252.9z"/>
		<g>
			<path class="st2" d="M140.6,246.4l2-7.4h2l2,7.4H145l-0.4-1.6h-2.1l-0.4,1.6H140.6z M143.5,240.5L143.5,240.5l-0.7,3.2h1.5
				L143.5,240.5z"/>
			<path class="st2" d="M147.3,246.4v-7.4h2.5l1.2,5h0l1.2-5h2.4v7.4h-1.5v-5.7h0l-1.4,5.7h-1.5l-1.3-5.7h0v5.7H147.3z"/>
			<path class="st2" d="M155.9,246.4v-7.4h2.7c1.2,0,2.1,0.3,2.1,1.9c0,0.8-0.4,1.5-1.3,1.6v0c1.1,0.2,1.4,0.9,1.4,1.9
				c0,1.9-1.6,1.9-2.3,1.9H155.9z M157.4,242.1h1c0.3,0,0.8-0.2,0.8-0.9c0-0.5-0.4-0.9-0.9-0.9h-0.9V242.1z M157.4,245.3h0.9
				c0.3,0,1.1,0,1.1-1c0-0.7-0.2-1-1-1h-0.9V245.3z"/>
			<path class="st2" d="M162.1,246.4v-7.4h1.5v7.4H162.1z"/>
			<path class="st2" d="M164.9,239.1h2.6c2,0,2.4,1.3,2.4,3.6c0,1.1,0.2,3.7-2.5,3.7h-2.5V239.1z M166.5,245.3h0.7
				c0.9,0,1.1-0.7,1.1-2.5c0-1.4,0-2.5-1.1-2.5h-0.8V245.3z"/>
			<path class="st2" d="M171.1,246.4v-7.4h4v1.1h-2.5v1.8h2.3v1.1h-2.3v2.2h2.6v1.1H171.1z"/>
			<path class="st2" d="M175.8,239.1h1.8l1,2.4l1-2.4h1.6l-1.8,3.6l1.9,3.7h-1.7l-1.1-2.5l-1.1,2.5h-1.6l1.9-3.9L175.8,239.1z"/>
			<path class="st2" d="M186.3,239.1v1.2h-1.7v6.1H183v-6.1h-1.7v-1.2H186.3z"/>
			<path class="st2" d="M188.5,246.4H187v-7.4h2.8c1,0,1.7,0.7,1.7,1.9c0,0.9-0.4,1.6-1.4,1.8v0c0.3,0,1.3,0.1,1.3,1.4
				c0,0.5,0,1.9,0.2,2.2h-1.5c-0.2-0.4-0.2-0.9-0.2-1.4c0-0.9,0.1-1.6-1.1-1.6h-0.4V246.4z M188.5,242.3h0.7c0.6,0,0.8-0.6,0.8-1.1
				c0-0.7-0.3-1-0.8-1h-0.7V242.3z"/>
			<path class="st2" d="M192.6,242.8c0-1.9,0-3.8,2.5-3.8s2.5,1.9,2.5,3.8c0,1.9,0,3.8-2.5,3.8S192.6,244.7,192.6,242.8z
				 M196.1,242.8c0-1.9-0.1-2.7-1-2.7c-0.9,0-1,0.8-1,2.7s0.1,2.7,1,2.7C196,245.5,196.1,244.6,196.1,242.8z"/>
			<path class="st2" d="M203.9,239.1v5.2c0,1.1-0.6,2.3-2.5,2.3c-1.7,0-2.5-0.9-2.5-2.3v-5.2h1.5v5.1c0,0.9,0.4,1.3,0.9,1.3
				c0.7,0,1-0.4,1-1.3v-5.1H203.9z"/>
			<path class="st2" d="M207.1,246.6c-1.9,0-2.3-1.1-2.2-2.4h1.5c0,0.7,0,1.3,0.9,1.3c0.5,0,0.8-0.3,0.8-0.8c0-1.3-3.1-1.4-3.1-3.6
				c0-1.2,0.6-2.1,2.4-2.1c1.5,0,2.2,0.7,2.1,2.2h-1.5c0-0.6-0.1-1.1-0.7-1.1c-0.5,0-0.8,0.3-0.8,0.8c0,1.4,3.1,1.3,3.1,3.6
				C209.7,246.3,208.3,246.6,207.1,246.6z"/>
			<path class="st2" d="M218.5,237.5c-0.8-0.1-1,0.3-1,1v0.9h0.9v1.2h-0.9v5.9h-2v-5.9h-0.9v-1.2h0.9c0-2-0.2-3.1,2.2-3.1
				c0.2,0,0.5,0,0.7,0V237.5z"/>
			<path class="st2" d="M221.2,243.2c0,0.8,0,2.1,0.9,2.1c0.7,0,0.8-0.7,0.8-1.3h2c0,0.8-0.3,1.4-0.8,1.8c-0.5,0.4-1.2,0.7-2.1,0.7
				c-2.5,0-2.9-1.6-2.9-3.8c0-1.9,0.3-3.6,2.9-3.6c2.7,0,3,1.7,2.9,4H221.2z M223,242.1c0-0.7,0-1.7-0.9-1.7c-0.9,0-0.9,1.1-0.9,1.7
				H223z"/>
			<path class="st2" d="M225.7,239.4h2l1,5.3h0l1.4-5.3h2l1.2,5.3h0l1.1-5.3h1.9l-1.9,7.1h-2.1l-1.3-4.8h0l-1.4,4.8h-2.1
				L225.7,239.4z"/>
			<path class="st2" d="M239.1,243.2c0,0.8,0,2.1,0.9,2.1c0.7,0,0.8-0.7,0.8-1.3h2c0,0.8-0.3,1.4-0.8,1.8c-0.5,0.4-1.2,0.7-2.1,0.7
				c-2.5,0-2.9-1.6-2.9-3.8c0-1.9,0.3-3.6,2.9-3.6c2.7,0,3,1.7,2.9,4H239.1z M240.9,242.1c0-0.7,0-1.7-0.9-1.7
				c-0.9,0-0.9,1.1-0.9,1.7H240.9z"/>
			<path class="st2" d="M246.1,239.4v0.9h0c0.4-0.8,1-1.1,1.8-1.1v1.8c-1.7-0.1-1.8,0.9-1.8,1.6v3.9h-2v-7.1H246.1z"/>
			<path class="st2" d="M251.2,239.4h0.8v-1.1l2-0.9v2h1v1.2h-1v3.8c0,0.5,0,0.9,0.6,0.9c0.1,0,0.3,0,0.4,0v1.2
				c-0.3,0-0.5,0.1-1,0.1c-1.7,0-1.9-1.1-1.9-1.6v-4.4h-0.8V239.4z"/>
			<path class="st2" d="M259.4,246.4v-4.9c0-0.6-0.1-1.1-0.7-1.1c-0.6,0-0.7,0.5-0.7,1.1v4.9h-2v-10.1h2v3.8h0
				c0.2-0.3,0.4-0.5,0.7-0.7c0.3-0.1,0.6-0.2,1-0.2c0.9,0,1.8,0.6,1.8,1.5v5.7H259.4z"/>
			<path class="st2" d="M268.3,245.1c0,0.4,0.1,0.9,0.1,1.3h-1.8l-0.1-0.9h0c-0.4,0.7-1,1.1-1.8,1.1c-1.4,0-1.9-1-1.9-2.3
				c0-2.3,1.8-2.4,3.6-2.4v-0.5c0-0.6-0.1-1-0.8-1c-0.7,0-0.7,0.5-0.7,1.1h-1.9c0-0.9,0.3-1.4,0.7-1.7c0.4-0.3,1.1-0.5,1.8-0.5
				c2.5,0,2.8,1.1,2.8,2.4V245.1z M264.6,244.2c0,0.5,0.1,1.1,0.7,1.1c1.2,0,1-1.6,1-2.3C265.3,243.1,264.6,243,264.6,244.2z"/>
			<path class="st2" d="M271.9,240.1L271.9,240.1c0.2-0.3,0.5-0.5,0.7-0.7c0.3-0.1,0.6-0.2,1-0.2c0.9,0,1.8,0.6,1.8,1.5v5.7h-2v-4.9
				c0-0.6-0.1-1.1-0.7-1.1c-0.6,0-0.7,0.5-0.7,1.1v4.9h-2v-7.1h2V240.1z"/>
			<path class="st2" d="M279.9,238.2c0.7-0.4,1.4-0.9,1.9-1.5h1.9v9.8h-2.1v-7.5c-0.5,0.4-1.1,0.8-1.7,1.1V238.2z"/>
			<path class="st2" d="M285.9,239.3c0-1.5,0.3-2.6,2-2.6c1.7,0,2,1.2,2,2.6c0,1.7-0.4,2.5-2,2.5C286.3,241.8,285.9,241,285.9,239.3
				z M288.6,239.2c0-0.5,0-1.4-0.7-1.4c-0.7,0-0.7,0.9-0.7,1.4c0,1.2,0.1,1.6,0.7,1.6S288.6,240.3,288.6,239.2z M289.3,246.7h-1
				l4.1-10.3h1L289.3,246.7z M291.8,243.9c0-1.5,0.3-2.6,2-2.6c1.7,0,2,1.2,2,2.6c0,1.7-0.4,2.5-2,2.5
				C292.3,246.4,291.8,245.6,291.8,243.9z M294.6,243.8c0-0.5,0-1.4-0.7-1.4c-0.7,0-0.7,0.9-0.7,1.4c0,1.2,0.1,1.6,0.7,1.6
				S294.6,244.9,294.6,243.8z"/>
		</g>
		<path class="st1" d="M136.6,247.8L136.6,247.8c-1,0-1.7-0.8-1.7-1.7V238c0-1,0.8-1.7,1.7-1.7l0,0c1,0,1.7,0.8,1.7,1.7v8.1
			C138.3,247,137.5,247.8,136.6,247.8z"/>
	</g>
</g>
<g>
</g>
<g>
</g>
<g>
</g>
<g>
</g>
<g>
</g>
<g>
</g>
<g>
</g>
<g>
</g>
<g>
</g>
<g>
</g>
<g>
</g>
<g>
</g>
<g>
</g>
<g>
</g>
<g>
</g>
</svg>
