<?xml version="1.0" encoding="utf-8"?>
<!-- Generator: Adobe Illustrator 19.2.1, SVG Export Plug-In . SVG Version: 6.00 Build 0)  -->
<!DOCTYPE svg PUBLIC "-//W3C//DTD SVG 1.1//EN" "http://www.w3.org/Graphics/SVG/1.1/DTD/svg11.dtd">
<svg version="1.1" id="Layer_1" xmlns="http://www.w3.org/2000/svg" xmlns:xlink="http://www.w3.org/1999/xlink" x="0px" y="0px"
	 width="295.7px" height="171px" viewBox="0 0 295.7 171" style="enable-background:new 0 0 295.7 171;" xml:space="preserve">
<style type="text/css">
	.Drop_x0020_Shadow{fill:none;}
	.Outer_x0020_Glow_x0020_5_x0020_pt{fill:none;}
	.Blue_x0020_Neon{fill:none;stroke:#8AACDA;stroke-width:7;stroke-linecap:round;stroke-linejoin:round;}
	.Chrome_x0020_Highlight{fill:url(#SVGID_1_);stroke:#FFFFFF;stroke-width:0.3629;stroke-miterlimit:1;}
	.Jive_GS{fill:#FFDD00;}
	.Alyssa_GS{fill:#A6D0E4;}
	.st0{fill:#0A3656;}
	.st1{fill:#ECD177;}
	.st2{fill:#ED5A49;}
	.st3{fill:none;stroke:#0A3656;stroke-width:0.3467;stroke-linecap:round;stroke-linejoin:round;stroke-miterlimit:10;}
	.st4{fill:#ED5A49;stroke:#ED5A49;stroke-width:0.1444;stroke-miterlimit:10;}
	.st5{fill:#E9F5FC;}
	.st6{opacity:0.26;fill:#337D7D;}
	.st7{fill:none;}
	.st8{fill:#DDE8F0;stroke:#DDE8F0;stroke-width:0.5;stroke-miterlimit:10;}
	.st9{fill:none;stroke:#ECD177;stroke-width:0.9;stroke-miterlimit:10;}
	
		.st10{fill:none;stroke:#0A3656;stroke-width:2;stroke-linecap:round;stroke-linejoin:round;stroke-miterlimit:10;stroke-dasharray:0,8;}
	.st11{fill:none;stroke:#ECD177;stroke-width:0.9;stroke-linecap:round;stroke-linejoin:round;stroke-miterlimit:10;}
	.st12{fill:none;stroke:#ECD177;stroke-linecap:round;stroke-linejoin:round;stroke-miterlimit:10;}
</style>
<linearGradient id="SVGID_1_" gradientUnits="userSpaceOnUse" x1="168.7165" y1="242" x2="168.7165" y2="241">
	<stop  offset="0" style="stop-color:#656565"/>
	<stop  offset="0.618" style="stop-color:#1B1B1B"/>
	<stop  offset="0.6292" style="stop-color:#545454"/>
	<stop  offset="0.9831" style="stop-color:#3E3E3E"/>
</linearGradient>
<g id="germany">
	<g>
		<path class="st2" d="M62.3,36.1c-0.7-1,1.5-3.7,0.8-4.7c-1-1.4-5.1-0.3-6.7-0.8c-1.6-0.6-5.4-3.3-6.5-2c-1.4,1.5,3.9,5.5,3.4,7.5
			C53.2,37.1,50,37,50,38c-0.1,0.8,2.6,2,2.6,2s3.7,5.7,2.4,7.1c-0.8,1-4-1.7-5.1-1c-1.1,0.7-0.6,3.9-1.4,4.9
			c-0.7,0.8-2.7,2-3.6,1.6c-0.9-0.4-0.6-3.3-1.4-3.8c-1.7-1.1-6.3-0.6-7.9,0.6c-1,0.7-2.2,3.5-1.8,4.7c0.2,0.6,1.8,0.7,2,1.2
			c1.2,2.7-2,8.6-2,11.5c0,1.4,0.5,4.2,0,5.5c-0.5,1.3-3.1,3-4,4c-0.6,0.6-1.4,2.3-2.2,2.6c-0.9,0.4-2.9-0.2-3.8,0
			c-0.6,0.2-2,0.6-2.2,1.2c-0.6,1.6,2.4,4.7,2.4,6.5s-2.4,4.7-2.4,6.5c-0.1,3,4.1,8.5,3.8,11.5c-0.1,1.4-2.8,3.5-2.6,4.9
			c0.2,1.4,3,3.1,3.2,4.5c0.2,1.2-1.7,3.5-1.2,4.7c1.2,2.9,7.9,5.3,10.7,6.7c1.9,1,7.2,1.2,8.1,3.2c2.2,5-10.1,15.7-7.5,20.5
			c1.3,2.5,8.4,3.8,10.9,2.6c0.9-0.4,0.9-3.1,1.8-3.4c4.6-1.6,13.3,10,17.6,7.9c1-0.5,0.9-3.6,1.9-4c1.7-0.7,5,2.4,6.8,2.4
			c3.8,0,10.6-5.2,14.4-5.1c2.2,0.1,6.2,4.3,8.3,3.4c1.1-0.5,1.8-3.3,1.6-4.5c-0.3-2.2-5.6-4.9-5.3-7.1c0.6-3.6,11.7-4.5,12.1-8.1
			c0.8-6.3-16.2-12.5-16.8-18.8c-0.1-1.1,2.4-2.6,2.2-3.6c-0.3-2-6.2-3.1-6.1-5.1c0.5-6.6,17.6-10.6,24.3-10.9
			c1.3-0.1,3.8,2.3,4.9,1.6c2.5-1.6,3.3-9.2,1.8-11.7c-0.6-1-3.9-0.5-4.6-1.4c-2.5-3.3,1.4-12.7-0.4-16.4c-0.9-1.9-6-3.2-6.5-5.3
			c-0.3-1.5,2.2-4,2.4-5.5c0.3-2.1-0.5-6.6-1.4-8.5c-1.1-2.3-6.9-7.5-6.9-7.5s-4.5-3.2-6.3-3c-5.3,0.5-15.4,11.1-19.6,7.9
			c-1.3-1,1.6-5.4,0.6-6.7C72.1,35.8,64,38.5,62.3,36.1z"/>
	</g>
	<g>
		<path class="st8" d="M28,102.3v-2.4l5-7.4h2.7l0,7.8h1.7v2.1h-1.7v2.7h-2.7v-2.7H28z M30.1,100.3h3.2V97c0-0.2,0-1.1,0-1.4
			L30.1,100.3z"/>
		<path class="st8" d="M40.9,101.6c0,0.4,0.1,1.7,1.6,1.7c1,0,1.6-0.7,1.6-1.7c0-1.9-1.8-1.9-3.1-1.9v-2.1c1.3,0,3.1-0.1,3.1-1.9
			c0-1-0.7-1.5-1.5-1.5c-0.8,0-1.5,0.5-1.5,1.6h-2.8c0.1-0.6,0.1-1.4,0.7-2.1c0.8-1,2.2-1.4,3.5-1.4c3.2,0,4.2,2.1,4.2,3.4
			c0,2.1-1.9,2.7-2.4,2.8c0.4,0.1,0.9,0.3,1.5,0.8c0.9,0.7,1,1.7,1,2.3c0,2.1-1.9,3.7-4.6,3.7c-0.9,0-2.2-0.2-3-0.8
			c-1.1-0.9-1.2-2.3-1.2-2.8H40.9z"/>
		<path class="st8" d="M51.7,91.3c2.5,0,2.9,1.6,2.9,3.3c0,0.9,0,3.6-3.1,3.6c-2.1,0-2.9-1.5-2.9-3.4C48.7,93.9,48.7,91.3,51.7,91.3
			z M51.6,96.7c0.6,0,1-0.4,1-2.1c0-0.7-0.1-1.9-1-1.9c-1.1,0-1.1,1.5-1.1,2C50.6,96.1,50.9,96.7,51.6,96.7z M59.8,91.2L53,105.3
			h-1.4l6.8-14.1H59.8z M60,98.3c2.5,0,2.9,1.6,2.9,3.3c0,0.9,0,3.6-3.1,3.6c-2.1,0-2.9-1.5-2.9-3.4C57,100.8,57,98.3,60,98.3z
			 M59.9,103.7c0.6,0,1-0.4,1-2.1c0-0.7-0.1-1.9-1-1.9c-1.1,0-1.1,1.4-1.1,2C58.9,103.1,59.1,103.7,59.9,103.7z"/>
	</g>
	<g>
		<path class="st5" d="M63.5,66.8l2.2-2c0.4-0.3,0.8-0.7,1.3-1.3c0.5-0.6,0.6-0.8,0.6-1.2c0-0.6-0.4-1.1-1-1.1c-1,0-1,1-1.1,1.2
			h-1.8c0-0.3,0-1,0.5-1.6c0.5-0.6,1.4-0.9,2.4-0.9c1.8,0,2.8,1,2.8,2.3c0,0.9-0.3,2-4,4.9c1.2,0,1.4,0,2.3,0c1.3,0,1.4,0,1.7,0v1.4
			h-5.9V66.8z"/>
		<path class="st5" d="M70.1,66.6V65l3.4-4.9h1.8l0,5.2h1.1v1.4h-1.1v1.8h-1.8v-1.8H70.1z M71.4,65.3h2.1v-2.2c0-0.1,0-0.7,0-0.9
			L71.4,65.3z"/>
		<path class="st5" d="M79.2,59.3c1.7,0,2,1.1,2,2.2c0,0.6,0,2.4-2,2.4c-1.4,0-1.9-1-1.9-2.3C77.1,61,77.2,59.3,79.2,59.3z
			 M79.1,62.9c0.4,0,0.7-0.3,0.7-1.4c0-0.5,0-1.3-0.6-1.3c-0.7,0-0.7,1-0.7,1.3C78.4,62.5,78.6,62.9,79.1,62.9z M84.6,59.2L80,68.6
			h-0.9l4.6-9.4H84.6z M84.7,64c1.7,0,2,1.1,2,2.2c0,0.6,0,2.4-2.1,2.4c-1.4,0-1.9-1-1.9-2.3C82.7,65.7,82.7,64,84.7,64z M84.6,67.6
			c0.4,0,0.7-0.3,0.7-1.4c0-0.5,0-1.3-0.7-1.3c-0.7,0-0.7,1-0.7,1.3C84,67.2,84.1,67.6,84.6,67.6z"/>
	</g>
	<g>
		<path class="st5" d="M86.1,86.3c0,0.3,0.1,1.1,1.1,1.1c0.7,0,1.1-0.5,1.1-1.1c0-1.2-1.2-1.2-2.1-1.2v-1.4c0.8,0,2.1,0,2.1-1.2
			c0-0.7-0.5-1-1-1c-0.5,0-1,0.3-1,1h-1.8c0-0.4,0.1-0.9,0.5-1.4c0.6-0.7,1.4-0.9,2.3-0.9c2.1,0,2.8,1.4,2.8,2.3
			c0,1.4-1.2,1.8-1.6,1.9c0.3,0.1,0.6,0.2,1,0.5c0.6,0.5,0.7,1.1,0.7,1.5c0,1.4-1.3,2.5-3,2.5c-0.6,0-1.5-0.1-2-0.6
			c-0.7-0.6-0.8-1.6-0.8-1.9H86.1z"/>
		<path class="st5" d="M92.8,86.3c0,0.3,0.1,1.1,1.1,1.1c0.7,0,1.1-0.5,1.1-1.1c0-1.2-1.2-1.2-2.1-1.2v-1.4c0.8,0,2.1,0,2.1-1.2
			c0-0.7-0.5-1-1-1c-0.5,0-1,0.3-1,1h-1.8c0-0.4,0.1-0.9,0.5-1.4c0.6-0.7,1.4-0.9,2.3-0.9c2.1,0,2.8,1.4,2.8,2.3
			c0,1.4-1.2,1.8-1.6,1.9c0.3,0.1,0.6,0.2,1,0.5c0.6,0.5,0.7,1.1,0.7,1.5c0,1.4-1.3,2.5-3,2.5c-0.6,0-1.5-0.1-2-0.6
			C91,87.6,91,86.7,91,86.3H92.8z"/>
		<path class="st5" d="M100,79.5c1.7,0,2,1.1,2,2.2c0,0.6,0,2.4-2,2.4c-1.4,0-1.9-1-1.9-2.3C98,81.2,98,79.5,100,79.5z M99.9,83.1
			c0.4,0,0.7-0.3,0.7-1.4c0-0.5,0-1.3-0.6-1.3c-0.7,0-0.7,1-0.7,1.3C99.3,82.7,99.4,83.1,99.9,83.1z M105.4,79.4l-4.6,9.4h-0.9
			l4.6-9.4H105.4z M105.5,84.1c1.7,0,2,1.1,2,2.2c0,0.6,0,2.4-2.1,2.4c-1.4,0-1.9-1-1.9-2.3C103.5,85.8,103.5,84.1,105.5,84.1z
			 M105.4,87.7c0.4,0,0.7-0.3,0.7-1.4c0-0.5,0-1.3-0.7-1.3c-0.7,0-0.7,1-0.7,1.3C104.8,87.3,104.9,87.7,105.4,87.7z"/>
	</g>
	<line class="st10" x1="84" y1="56.1" x2="154.9" y2="56.1"/>
	<g>
		<path class="st0" d="M159.9,57.1L159.9,57.1c-0.2,0.5-0.5,0.7-1,0.7c-0.9,0-1.1-0.6-1.1-1.3c0-1.2,1.2-1.3,2.1-1.3
			c0-0.5,0-1.1-0.7-1.1c-0.4,0-0.7,0.3-0.6,0.7h-0.7c0-0.9,0.5-1.2,1.4-1.2c1,0,1.3,0.5,1.3,1.2v1.9c0,0.3,0,0.6,0.1,1h-0.7V57.1z
			 M158.4,56.5c0,0.4,0.2,0.7,0.6,0.7c0.4,0,0.9-0.2,0.8-1.6C159.3,55.7,158.4,55.6,158.4,56.5z"/>
		<path class="st0" d="M162.5,54.3L162.5,54.3c0.3-0.6,0.6-0.7,1.3-0.7v0.7c-0.1,0-0.1,0-0.2,0c-0.1,0-0.1,0-0.2,0
			c-0.7,0-0.9,0.6-0.9,1.1v2.4h-0.7v-4h0.7V54.3z"/>
		<path class="st0" d="M165.1,55.9c0,1.1,0.3,1.4,0.8,1.4c0.4,0,0.7-0.4,0.7-0.8h0.7c0,0.9-0.6,1.3-1.4,1.3c-0.9,0-1.5-0.3-1.5-2
			c0-1.2,0.1-2.2,1.5-2.2c1.2,0,1.4,0.6,1.4,2v0.3H165.1z M166.7,55.4c0-1.2-0.3-1.3-0.8-1.3c-0.4,0-0.8,0.2-0.8,1.3H166.7z"/>
		<path class="st0" d="M171,54.3L171,54.3c0.3-0.6,0.6-0.7,1.3-0.7v0.7c-0.1,0-0.1,0-0.2,0c-0.1,0-0.1,0-0.2,0
			c-0.7,0-0.9,0.6-0.9,1.1v2.4h-0.7v-4h0.7V54.3z"/>
		<path class="st0" d="M172.9,51.9h0.7v0.7h-0.7V51.9z M173.6,57.7h-0.7v-4h0.7V57.7z"/>
		<path class="st0" d="M176.8,53.7h0.7v4.4c0,0.9-0.6,1.1-1.5,1.1c-0.7,0-1.3-0.3-1.2-1.1h0.7c0,0.4,0.3,0.6,0.6,0.6
			c0.5,0,0.7-0.3,0.7-0.7v-0.8h0c-0.2,0.3-0.5,0.5-0.9,0.5c-1.1,0-1.3-0.9-1.3-2.1c0-1.9,0.9-2,1.3-2c0.4,0,0.8,0.2,0.9,0.6h0V53.7z
			 M176.1,54.1c-0.7,0-0.8,0.9-0.8,1.4c0,1.3,0.3,1.6,0.8,1.6c0.8,0,0.8-0.9,0.8-1.5C176.9,55.1,176.9,54.1,176.1,54.1z"/>
		<path class="st0" d="M180.9,57.7V55c0-0.5-0.2-0.8-0.7-0.8c-0.7,0-0.8,0.5-0.8,1.2v2.4h-0.7v-5.8h0.7v2.3h0
			c0.3-0.5,0.6-0.6,1.1-0.6c0.7,0,1.1,0.3,1.1,1.3v2.9H180.9z"/>
		<path class="st0" d="M182.8,53.7v-0.8l0.7-0.3v1.1h0.9v0.5h-0.9v2.5c0,0.3,0,0.6,0.6,0.6c0,0,0.2,0,0.3,0v0.5
			c-0.2,0-0.4,0.1-0.6,0.1c-0.6,0-0.9-0.3-0.9-0.7v-2.9h-0.7v-0.5H182.8z"/>
		<path class="st0" d="M184.8,55.2h1.8v0.6h-1.8V55.2z"/>
		<path class="st0" d="M188.3,57.7h-0.7v-5.8h0.7v2.1h0c0.2-0.3,0.5-0.5,0.9-0.5c1.3,0,1.3,1.2,1.3,2.2c0,1.8-0.7,2-1.3,2
			c-0.4,0-0.7-0.2-0.9-0.6h0V57.7z M189,57.2c0.8,0,0.8-0.9,0.8-1.5c0-1.1-0.1-1.6-0.8-1.6c-0.7,0-0.8,0.9-0.8,1.4
			C188.3,56.1,188.2,57.2,189,57.2z"/>
		<path class="st0" d="M192.3,54.3L192.3,54.3c0.3-0.6,0.6-0.7,1.3-0.7v0.7c-0.1,0-0.1,0-0.2,0c-0.1,0-0.1,0-0.2,0
			c-0.7,0-0.9,0.6-0.9,1.1v2.4h-0.7v-4h0.7V54.3z"/>
		<path class="st0" d="M196.3,57.1L196.3,57.1c-0.2,0.5-0.5,0.7-1,0.7c-0.9,0-1.1-0.6-1.1-1.3c0-1.2,1.2-1.3,2.1-1.3
			c0-0.5,0-1.1-0.7-1.1c-0.4,0-0.7,0.3-0.6,0.7h-0.7c0-0.9,0.5-1.2,1.4-1.2c1,0,1.3,0.5,1.3,1.2v1.9c0,0.3,0,0.6,0.1,1h-0.7V57.1z
			 M194.9,56.5c0,0.4,0.2,0.7,0.6,0.7c0.4,0,0.9-0.2,0.8-1.6C195.7,55.7,194.9,55.6,194.9,56.5z"/>
		<path class="st0" d="M198.2,51.9h0.7v0.7h-0.7V51.9z M198.9,57.7h-0.7v-4h0.7V57.7z"/>
		<path class="st0" d="M202.2,57.7v-2.8c0-0.4-0.2-0.8-0.7-0.8c-0.7,0-0.8,0.6-0.8,1.2v2.4H200v-3.2c0-0.3,0-0.6,0-0.8h0.7v0.5h0
			c0.3-0.5,0.6-0.6,1.1-0.6c0.9,0,1.1,0.5,1.1,1.3v2.8H202.2z"/>
		<path class="st0" d="M204.7,55.9c0,1.1,0.3,1.4,0.8,1.4c0.4,0,0.7-0.4,0.7-0.8h0.7c0,0.9-0.6,1.3-1.4,1.3c-0.9,0-1.5-0.3-1.5-2
			c0-1.2,0.1-2.2,1.5-2.2c1.2,0,1.4,0.6,1.4,2v0.3H204.7z M206.3,55.4c0-1.2-0.3-1.3-0.8-1.3c-0.4,0-0.8,0.2-0.8,1.3H206.3z"/>
		<path class="st0" d="M210.2,51.9h0.7v5.8h-0.7v-0.5h0c-0.2,0.4-0.5,0.6-0.9,0.6c-0.6,0-1.3-0.3-1.3-2c0-1,0-2.2,1.3-2.2
			c0.4,0,0.7,0.2,0.9,0.5h0V51.9z M209.4,54.1c-0.7,0-0.8,0.6-0.8,1.6c0,0.6,0,1.5,0.8,1.5c0.7,0,0.7-0.9,0.7-1.7
			C210.2,55,210.1,54.1,209.4,54.1z"/>
	</g>
	<g>
		<path class="st0" d="M154.8,90.3c0-1.2,0.1-2.2,1.5-2.2s1.5,1,1.5,2.2c0,1.8-0.7,2-1.5,2S154.8,92.1,154.8,90.3z M157.2,90.1
			c0-1.1-0.3-1.3-0.8-1.3s-0.8,0.2-0.8,1.3c0,1.3,0.2,1.8,0.8,1.8S157.2,91.4,157.2,90.1z"/>
		<path class="st0" d="M159,88.3v-0.8c0-0.8,0.6-1,1.2-1c0.1,0,0.2,0,0.3,0V87c-0.7,0-0.8,0.2-0.8,0.6v0.7h0.8v0.5h-0.8v3.5H159
			v-3.5h-0.6v-0.5H159z"/>
		<path class="st0" d="M163.6,88.7L163.6,88.7c0.2-0.4,0.5-0.6,0.9-0.6c0.6,0,1.3,0.3,1.3,2c0,1,0,2.2-1.3,2.2
			c-0.4,0-0.7-0.2-0.9-0.5h0v1.9H163v-5.6h0.7V88.7z M165.2,90.2c0-0.6,0-1.5-0.8-1.5c-0.8,0-0.7,1.1-0.7,1.7c0,0.5,0,1.4,0.8,1.4
			C165.1,91.8,165.2,91.3,165.2,90.2z"/>
		<path class="st0" d="M169,91.7L169,91.7c-0.2,0.5-0.5,0.7-1,0.7c-0.9,0-1.1-0.6-1.1-1.3c0-1.2,1.2-1.3,2.1-1.3
			c0-0.5,0-1.1-0.7-1.1c-0.4,0-0.7,0.3-0.6,0.7H167c0-0.9,0.5-1.2,1.4-1.2c1,0,1.3,0.5,1.3,1.2v1.9c0,0.3,0,0.6,0.1,1H169V91.7z
			 M167.5,91.1c0,0.4,0.2,0.7,0.6,0.7c0.4,0,0.9-0.2,0.8-1.6C168.4,90.3,167.5,90.2,167.5,91.1z"/>
		<path class="st0" d="M171.6,88.9L171.6,88.9c0.3-0.6,0.6-0.7,1.3-0.7v0.7c-0.1,0-0.1,0-0.2,0c-0.1,0-0.1,0-0.2,0
			c-0.7,0-0.9,0.6-0.9,1.1v2.4H171v-4h0.7V88.9z"/>
		<path class="st0" d="M173.7,88.3v-0.8l0.7-0.3v1.1h0.9v0.5h-0.9v2.5c0,0.3,0,0.6,0.6,0.6c0,0,0.2,0,0.3,0v0.5
			c-0.2,0-0.4,0.1-0.6,0.1c-0.6,0-0.9-0.3-0.9-0.7v-2.9H173v-0.5H173.7z"/>
		<path class="st0" d="M175.8,86.5h0.7v0.7h-0.7V86.5z M176.5,92.3h-0.7v-4h0.7V92.3z"/>
		<path class="st0" d="M179.7,89.6c0-0.7-0.3-0.8-0.6-0.8c-0.5,0-0.8,0.2-0.8,1.3c0,1.3,0.2,1.8,0.8,1.8c0.2,0,0.6-0.2,0.6-0.9h0.7
			c0,1.1-0.8,1.4-1.3,1.4c-0.9,0-1.5-0.3-1.5-2c0-1.2,0.1-2.2,1.5-2.2c0.8,0,1.3,0.5,1.2,1.4H179.7z"/>
		<path class="st0" d="M181.5,86.5h0.7v0.7h-0.7V86.5z M182.2,92.3h-0.7v-4h0.7V92.3z"/>
		<path class="st0" d="M184.1,88.7L184.1,88.7c0.2-0.4,0.5-0.6,0.9-0.6c0.6,0,1.3,0.3,1.3,2c0,1,0,2.2-1.3,2.2
			c-0.4,0-0.7-0.2-0.9-0.5h0v1.9h-0.7v-5.6h0.7V88.7z M185.6,90.2c0-0.6,0-1.5-0.8-1.5c-0.8,0-0.7,1.1-0.7,1.7c0,0.5,0,1.4,0.8,1.4
			C185.5,91.8,185.6,91.3,185.6,90.2z"/>
		<path class="st0" d="M189.4,91.7L189.4,91.7c-0.2,0.5-0.5,0.7-1,0.7c-0.9,0-1.1-0.6-1.1-1.3c0-1.2,1.2-1.3,2.1-1.3
			c0-0.5,0-1.1-0.7-1.1c-0.4,0-0.7,0.3-0.6,0.7h-0.7c0-0.9,0.5-1.2,1.4-1.2c1,0,1.3,0.5,1.3,1.2v1.9c0,0.3,0,0.6,0.1,1h-0.7V91.7z
			 M188,91.1c0,0.4,0.2,0.7,0.6,0.7c0.4,0,0.9-0.2,0.8-1.6C188.8,90.3,188,90.2,188,91.1z"/>
		<path class="st0" d="M193.6,92.3v-2.8c0-0.4-0.2-0.8-0.7-0.8c-0.7,0-0.8,0.6-0.8,1.2v2.4h-0.7v-3.2c0-0.3,0-0.6,0-0.8h0.7v0.5h0
			c0.3-0.5,0.6-0.6,1.1-0.6c0.9,0,1.1,0.5,1.1,1.3v2.8H193.6z"/>
		<path class="st0" d="M195.4,88.3v-0.8l0.7-0.3v1.1h0.9v0.5h-0.9v2.5c0,0.3,0,0.6,0.6,0.6c0,0,0.2,0,0.3,0v0.5
			c-0.2,0-0.4,0.1-0.6,0.1c-0.6,0-0.9-0.3-0.9-0.7v-2.9h-0.7v-0.5H195.4z"/>
		<path class="st0" d="M198.8,92.4c-0.9,0-1.4-0.4-1.4-1.3h0.7c0,0.2,0,0.8,0.7,0.8c0.4,0,0.7-0.2,0.7-0.6c0-0.7-2-0.7-2-1.9
			c0-0.4,0.3-1.1,1.4-1.1c0.7,0,1.3,0.3,1.3,1.1h-0.7c0-0.4-0.2-0.6-0.6-0.6c-0.4,0-0.6,0.2-0.6,0.5c0,0.7,2,0.7,2,1.9
			C200.2,92,199.6,92.4,198.8,92.4z"/>
		<path class="st0" d="M201.3,91.5h0.8l-0.7,1.8h-0.5L201.3,91.5z"/>
		<path class="st0" d="M204.8,88.3v-0.8l0.7-0.3v1.1h0.9v0.5h-0.9v2.5c0,0.3,0,0.6,0.6,0.6c0,0,0.2,0,0.3,0v0.5
			c-0.2,0-0.4,0.1-0.6,0.1c-0.6,0-0.9-0.3-0.9-0.7v-2.9h-0.7v-0.5H204.8z"/>
		<path class="st0" d="M209.1,92.3v-2.7c0-0.5-0.2-0.8-0.7-0.8c-0.7,0-0.8,0.5-0.8,1.2v2.4h-0.7v-5.8h0.7v2.3h0
			c0.3-0.5,0.6-0.6,1.1-0.6c0.7,0,1.1,0.3,1.1,1.3v2.9H209.1z"/>
		<path class="st0" d="M211.6,90.5c0,1.1,0.3,1.4,0.8,1.4c0.4,0,0.7-0.4,0.7-0.8h0.7c0,0.9-0.6,1.3-1.4,1.3c-0.9,0-1.5-0.3-1.5-2
			c0-1.2,0.1-2.2,1.5-2.2c1.2,0,1.4,0.6,1.4,2v0.3H211.6z M213.1,90c0-1.2-0.3-1.3-0.8-1.3c-0.4,0-0.8,0.2-0.8,1.3H213.1z"/>
		<path class="st0" d="M216.8,88.3v-0.8l0.7-0.3v1.1h0.9v0.5h-0.9v2.5c0,0.3,0,0.6,0.6,0.6c0,0,0.2,0,0.3,0v0.5
			c-0.2,0-0.4,0.1-0.6,0.1c-0.6,0-0.9-0.3-0.9-0.7v-2.9h-0.7v-0.5H216.8z"/>
		<path class="st0" d="M218.4,88.3h0.7l0.7,3.5h0l0.9-3.5h0.9l0.8,3.5h0l0.8-3.5h0.7l-1.1,4h-0.9l-0.9-3.4h0l-0.9,3.4h-0.9
			L218.4,88.3z"/>
		<path class="st0" d="M224.6,90.3c0-1.2,0.1-2.2,1.5-2.2s1.5,1,1.5,2.2c0,1.8-0.7,2-1.5,2S224.6,92.1,224.6,90.3z M227,90.1
			c0-1.1-0.3-1.3-0.8-1.3s-0.8,0.2-0.8,1.3c0,1.3,0.2,1.8,0.8,1.8S227,91.4,227,90.1z"/>
		<path class="st0" d="M232.7,92.3v-2.7c0-0.5-0.2-0.8-0.7-0.8c-0.7,0-0.8,0.5-0.8,1.2v2.4h-0.7v-5.8h0.7v2.3h0
			c0.3-0.5,0.6-0.6,1.1-0.6c0.7,0,1.1,0.3,1.1,1.3v2.9H232.7z"/>
		<path class="st0" d="M235.1,90.5c0,1.1,0.3,1.4,0.8,1.4c0.4,0,0.7-0.4,0.7-0.8h0.7c0,0.9-0.6,1.3-1.4,1.3c-0.9,0-1.5-0.3-1.5-2
			c0-1.2,0.1-2.2,1.5-2.2c1.2,0,1.4,0.6,1.4,2v0.3H235.1z M236.7,90c0-1.2-0.3-1.3-0.8-1.3c-0.4,0-0.8,0.2-0.8,1.3H236.7z"/>
		<path class="st0" d="M240.5,92.3v-2.8c0-0.4-0.1-0.8-0.6-0.8c-0.2,0-0.5,0.1-0.6,0.3c-0.1,0.2-0.2,0.4-0.2,0.6v2.7h-0.7v-3.2
			c0-0.3,0-0.6,0-0.8h0.7v0.5h0c0.2-0.4,0.5-0.6,1-0.6c0.4,0,0.8,0.2,0.9,0.5c0.2-0.4,0.6-0.5,1-0.5c0.4,0,1.1,0.1,1.1,1v3.1h-0.7
			v-2.8c0-0.4-0.1-0.8-0.6-0.8c-0.2,0-0.3,0-0.5,0.2c-0.2,0.2-0.2,0.6-0.2,0.7v2.7H240.5z"/>
		<path class="st0" d="M244.2,86.5h0.7v0.7h-0.7V86.5z M244.9,92.3h-0.7v-4h0.7V92.3z"/>
		<path class="st0" d="M247.2,92.4c-0.9,0-1.4-0.4-1.4-1.3h0.7c0,0.2,0,0.8,0.7,0.8c0.4,0,0.7-0.2,0.7-0.6c0-0.7-2-0.7-2-1.9
			c0-0.4,0.3-1.1,1.4-1.1c0.7,0,1.3,0.3,1.3,1.1h-0.7c0-0.4-0.2-0.6-0.6-0.6c-0.4,0-0.6,0.2-0.6,0.5c0,0.7,2,0.7,2,1.9
			C248.6,92,248,92.4,247.2,92.4z"/>
		<path class="st0" d="M250.3,88.7L250.3,88.7c0.2-0.4,0.5-0.6,0.9-0.6c0.6,0,1.3,0.3,1.3,2c0,1,0,2.2-1.3,2.2
			c-0.4,0-0.7-0.2-0.9-0.5h0v1.9h-0.7v-5.6h0.7V88.7z M251.8,90.2c0-0.6,0-1.5-0.8-1.5c-0.8,0-0.7,1.1-0.7,1.7c0,0.5,0,1.4,0.8,1.4
			C251.8,91.8,251.8,91.3,251.8,90.2z"/>
		<path class="st0" d="M255.8,92.3v-2.7c0-0.5-0.2-0.8-0.7-0.8c-0.7,0-0.8,0.5-0.8,1.2v2.4h-0.7v-5.8h0.7v2.3h0
			c0.3-0.5,0.6-0.6,1.1-0.6c0.7,0,1.1,0.3,1.1,1.3v2.9H255.8z"/>
		<path class="st0" d="M258.2,90.5c0,1.1,0.3,1.4,0.8,1.4c0.4,0,0.7-0.4,0.7-0.8h0.7c0,0.9-0.6,1.3-1.4,1.3c-0.9,0-1.5-0.3-1.5-2
			c0-1.2,0.1-2.2,1.5-2.2c1.2,0,1.4,0.6,1.4,2v0.3H258.2z M259.8,90c0-1.2-0.3-1.3-0.8-1.3c-0.4,0-0.8,0.2-0.8,1.3H259.8z"/>
		<path class="st0" d="M262.3,88.9L262.3,88.9c0.3-0.6,0.6-0.7,1.3-0.7v0.7c-0.1,0-0.1,0-0.2,0c-0.1,0-0.1,0-0.2,0
			c-0.7,0-0.9,0.6-0.9,1.1v2.4h-0.7v-4h0.7V88.9z"/>
		<path class="st0" d="M264.9,90.5c0,1.1,0.3,1.4,0.8,1.4c0.4,0,0.7-0.4,0.7-0.8h0.7c0,0.9-0.6,1.3-1.4,1.3c-0.9,0-1.5-0.3-1.5-2
			c0-1.2,0.1-2.2,1.5-2.2c1.2,0,1.4,0.6,1.4,2v0.3H264.9z M266.5,90c0-1.2-0.3-1.3-0.8-1.3c-0.4,0-0.8,0.2-0.8,1.3H266.5z"/>
		<path class="st0" d="M269.4,92.4c-0.9,0-1.4-0.4-1.4-1.3h0.7c0,0.2,0,0.8,0.7,0.8c0.4,0,0.7-0.2,0.7-0.6c0-0.7-2-0.7-2-1.9
			c0-0.4,0.3-1.1,1.4-1.1c0.7,0,1.3,0.3,1.3,1.1h-0.7c0-0.4-0.2-0.6-0.6-0.6c-0.4,0-0.6,0.2-0.6,0.5c0,0.7,2,0.7,2,1.9
			C270.8,92,270.2,92.4,269.4,92.4z"/>
		<path class="st0" d="M155.6,100.1c0,1.1,0.3,1.4,0.8,1.4c0.4,0,0.7-0.4,0.7-0.8h0.7c0,0.9-0.6,1.3-1.4,1.3c-0.9,0-1.5-0.3-1.5-2
			c0-1.2,0.1-2.2,1.5-2.2c1.2,0,1.4,0.6,1.4,2v0.3H155.6z M157.1,99.6c0-1.2-0.3-1.3-0.8-1.3c-0.4,0-0.8,0.2-0.8,1.3H157.1z"/>
		<path class="st0" d="M161.8,101.9H161l-0.9-1.7l-0.9,1.7h-0.8l1.3-2.1l-1.2-1.9h0.8l0.8,1.4l0.8-1.4h0.8l-1.2,1.9L161.8,101.9z"/>
		<path class="st0" d="M163.1,100.1c0,1.1,0.3,1.4,0.8,1.4c0.4,0,0.7-0.4,0.7-0.8h0.7c0,0.9-0.6,1.3-1.4,1.3c-0.9,0-1.5-0.3-1.5-2
			c0-1.2,0.1-2.2,1.5-2.2c1.2,0,1.4,0.6,1.4,2v0.3H163.1z M164.7,99.6c0-1.2-0.3-1.3-0.8-1.3c-0.4,0-0.8,0.2-0.8,1.3H164.7z"/>
		<path class="st0" d="M167.2,98.5L167.2,98.5c0.3-0.6,0.6-0.7,1.3-0.7v0.7c-0.1,0-0.1,0-0.2,0c-0.1,0-0.1,0-0.2,0
			c-0.7,0-0.9,0.6-0.9,1.1v2.4h-0.7v-4h0.7V98.5z"/>
		<path class="st0" d="M169.2,97.9v-0.8l0.7-0.3v1.1h0.9v0.5h-0.9v2.5c0,0.3,0,0.6,0.6,0.6c0,0,0.2,0,0.3,0v0.5
			c-0.2,0-0.4,0.1-0.6,0.1c-0.6,0-0.9-0.3-0.9-0.7v-2.9h-0.7v-0.5H169.2z"/>
		<path class="st0" d="M173.8,100.1c0,1.1,0.3,1.4,0.8,1.4c0.4,0,0.7-0.4,0.7-0.8h0.7c0,0.9-0.6,1.3-1.4,1.3c-0.9,0-1.5-0.3-1.5-2
			c0-1.2,0.1-2.2,1.5-2.2c1.2,0,1.4,0.6,1.4,2v0.3H173.8z M175.4,99.6c0-1.2-0.3-1.3-0.8-1.3c-0.4,0-0.8,0.2-0.8,1.3H175.4z"/>
		<path class="st0" d="M179.3,97.9h0.7v5.6h-0.7v-1.9h0c-0.2,0.3-0.5,0.5-0.9,0.5c-1.3,0-1.3-1.2-1.3-2.2c0-1.8,0.7-2,1.3-2
			c0.4,0,0.7,0.2,0.9,0.6h0V97.9z M179.3,100.1c0-0.6,0.1-1.7-0.7-1.7c-0.8,0-0.8,0.9-0.8,1.5c0,1.1,0.1,1.6,0.8,1.6
			C179.2,101.4,179.3,100.6,179.3,100.1z"/>
		<path class="st0" d="M183.3,97.9h0.7v3.2c0,0.3,0,0.6,0,0.8h-0.7v-0.5h0c-0.2,0.4-0.6,0.6-1,0.6c-0.7,0-1.1-0.4-1.1-1v-3.1h0.7
			v2.8c0,0.5,0.2,0.8,0.7,0.8c0.4,0,0.8-0.3,0.8-0.9V97.9z"/>
		<path class="st0" d="M187.2,101.3L187.2,101.3c-0.2,0.5-0.5,0.7-1,0.7c-0.9,0-1.1-0.6-1.1-1.3c0-1.2,1.2-1.3,2.1-1.3
			c0-0.5,0-1.1-0.7-1.1c-0.4,0-0.7,0.3-0.6,0.7h-0.7c0-0.9,0.5-1.2,1.4-1.2c1,0,1.3,0.5,1.3,1.2v1.9c0,0.3,0,0.6,0.1,1h-0.7V101.3z
			 M185.7,100.7c0,0.4,0.2,0.7,0.6,0.7c0.4,0,0.9-0.2,0.8-1.6C186.6,99.9,185.7,99.8,185.7,100.7z"/>
		<path class="st0" d="M189.8,101.9h-0.7v-5.8h0.7V101.9z"/>
		<path class="st0" d="M192.6,96.1h0.7v0.7h-0.7V96.1z M193.3,101.9h-0.7v-4h0.7V101.9z"/>
		<path class="st0" d="M196.7,101.9v-2.8c0-0.4-0.2-0.8-0.7-0.8c-0.7,0-0.8,0.6-0.8,1.2v2.4h-0.7v-3.2c0-0.3,0-0.6,0-0.8h0.7v0.5h0
			c0.3-0.5,0.6-0.6,1.1-0.6c0.9,0,1.1,0.5,1.1,1.3v2.8H196.7z"/>
		<path class="st0" d="M198.6,97.9v-0.8c0-0.8,0.6-1,1.2-1c0.1,0,0.2,0,0.3,0v0.5c-0.7,0-0.8,0.2-0.8,0.6v0.7h0.8v0.5h-0.8v3.5h-0.7
			v-3.5H198v-0.5H198.6z M201.3,101.9h-0.7v-5.8h0.7V101.9z"/>
		<path class="st0" d="M204.6,97.9h0.7v3.2c0,0.3,0,0.6,0,0.8h-0.7v-0.5h0c-0.2,0.4-0.6,0.6-1,0.6c-0.7,0-1.1-0.4-1.1-1v-3.1h0.7
			v2.8c0,0.5,0.2,0.8,0.7,0.8c0.4,0,0.8-0.3,0.8-0.9V97.9z"/>
		<path class="st0" d="M207.1,100.1c0,1.1,0.3,1.4,0.8,1.4c0.4,0,0.7-0.4,0.7-0.8h0.7c0,0.9-0.6,1.3-1.4,1.3c-0.9,0-1.5-0.3-1.5-2
			c0-1.2,0.1-2.2,1.5-2.2c1.2,0,1.4,0.6,1.4,2v0.3H207.1z M208.7,99.6c0-1.2-0.3-1.3-0.8-1.3c-0.4,0-0.8,0.2-0.8,1.3H208.7z"/>
		<path class="st0" d="M212.7,101.9v-2.8c0-0.4-0.2-0.8-0.7-0.8c-0.7,0-0.8,0.6-0.8,1.2v2.4h-0.7v-3.2c0-0.3,0-0.6,0-0.8h0.7v0.5h0
			c0.3-0.5,0.6-0.6,1.1-0.6c0.9,0,1.1,0.5,1.1,1.3v2.8H212.7z"/>
		<path class="st0" d="M216.6,99.2c0-0.7-0.3-0.8-0.6-0.8c-0.5,0-0.8,0.2-0.8,1.3c0,1.3,0.2,1.8,0.8,1.8c0.2,0,0.6-0.2,0.6-0.9h0.7
			c0,1.1-0.8,1.4-1.3,1.4c-0.9,0-1.5-0.3-1.5-2c0-1.2,0.1-2.2,1.5-2.2c0.8,0,1.3,0.5,1.2,1.4H216.6z"/>
		<path class="st0" d="M219.1,100.1c0,1.1,0.3,1.4,0.8,1.4c0.4,0,0.7-0.4,0.7-0.8h0.7c0,0.9-0.6,1.3-1.4,1.3c-0.9,0-1.5-0.3-1.5-2
			c0-1.2,0.1-2.2,1.5-2.2c1.2,0,1.4,0.6,1.4,2v0.3H219.1z M220.7,99.6c0-1.2-0.3-1.3-0.8-1.3c-0.4,0-0.8,0.2-0.8,1.3H220.7z"/>
		<path class="st0" d="M224.1,99.9c0-1.2,0.1-2.2,1.5-2.2s1.5,1,1.5,2.2c0,1.8-0.7,2-1.5,2S224.1,101.7,224.1,99.9z M226.5,99.7
			c0-1.1-0.3-1.3-0.8-1.3s-0.8,0.2-0.8,1.3c0,1.3,0.2,1.8,0.8,1.8S226.5,101,226.5,99.7z"/>
		<path class="st0" d="M230.4,101.9v-2.8c0-0.4-0.2-0.8-0.7-0.8c-0.7,0-0.8,0.6-0.8,1.2v2.4h-0.7v-3.2c0-0.3,0-0.6,0-0.8h0.7v0.5h0
			c0.3-0.5,0.6-0.6,1.1-0.6c0.9,0,1.1,0.5,1.1,1.3v2.8H230.4z"/>
		<path class="st0" d="M236.2,96.1h0.7v5.8h-0.7v-0.5h0c-0.2,0.4-0.5,0.6-0.9,0.6c-0.6,0-1.3-0.3-1.3-2c0-1,0-2.2,1.3-2.2
			c0.4,0,0.7,0.2,0.9,0.5h0V96.1z M235.4,98.3c-0.7,0-0.8,0.6-0.8,1.6c0,0.6,0,1.5,0.8,1.5c0.7,0,0.7-0.9,0.7-1.7
			C236.2,99.2,236.1,98.3,235.4,98.3z"/>
		<path class="st0" d="M238.7,100.1c0,1.1,0.3,1.4,0.8,1.4c0.4,0,0.7-0.4,0.7-0.8h0.7c0,0.9-0.6,1.3-1.4,1.3c-0.9,0-1.5-0.3-1.5-2
			c0-1.2,0.1-2.2,1.5-2.2c1.2,0,1.4,0.6,1.4,2v0.3H238.7z M240.2,99.6c0-1.2-0.3-1.3-0.8-1.3c-0.4,0-0.8,0.2-0.8,1.3H240.2z"/>
		<path class="st0" d="M244.1,99.2c0-0.7-0.3-0.8-0.6-0.8c-0.5,0-0.8,0.2-0.8,1.3c0,1.3,0.2,1.8,0.8,1.8c0.2,0,0.6-0.2,0.6-0.9h0.7
			c0,1.1-0.8,1.4-1.3,1.4c-0.9,0-1.5-0.3-1.5-2c0-1.2,0.1-2.2,1.5-2.2c0.8,0,1.3,0.5,1.2,1.4H244.1z"/>
		<path class="st0" d="M246,96.1h0.7v0.7H246V96.1z M246.7,101.9H246v-4h0.7V101.9z"/>
		<path class="st0" d="M249,102c-0.9,0-1.4-0.4-1.4-1.3h0.7c0,0.2,0,0.8,0.7,0.8c0.4,0,0.7-0.2,0.7-0.6c0-0.7-2-0.7-2-1.9
			c0-0.4,0.3-1.1,1.4-1.1c0.7,0,1.3,0.3,1.3,1.1h-0.7c0-0.4-0.2-0.6-0.6-0.6c-0.4,0-0.6,0.2-0.6,0.5c0,0.7,2,0.7,2,1.9
			C250.4,101.6,249.8,102,249,102z"/>
		<path class="st0" d="M251.3,96.1h0.7v0.7h-0.7V96.1z M252,101.9h-0.7v-4h0.7V101.9z"/>
		<path class="st0" d="M253,99.9c0-1.2,0.1-2.2,1.5-2.2s1.5,1,1.5,2.2c0,1.8-0.7,2-1.5,2S253,101.7,253,99.9z M255.4,99.7
			c0-1.1-0.3-1.3-0.8-1.3s-0.8,0.2-0.8,1.3c0,1.3,0.2,1.8,0.8,1.8S255.4,101,255.4,99.7z"/>
		<path class="st0" d="M259.3,101.9v-2.8c0-0.4-0.2-0.8-0.7-0.8c-0.7,0-0.8,0.6-0.8,1.2v2.4h-0.7v-3.2c0-0.3,0-0.6,0-0.8h0.7v0.5h0
			c0.3-0.5,0.6-0.6,1.1-0.6c0.9,0,1.1,0.5,1.1,1.3v2.8H259.3z"/>
		<path class="st0" d="M261,99.4h1.8v0.6H261V99.4z"/>
		<path class="st0" d="M265.8,101.9v-2.8c0-0.4-0.1-0.8-0.6-0.8c-0.2,0-0.5,0.1-0.6,0.3c-0.1,0.2-0.2,0.4-0.2,0.6v2.7h-0.7v-3.2
			c0-0.3,0-0.6,0-0.8h0.7v0.5h0c0.2-0.4,0.5-0.6,1-0.6c0.4,0,0.8,0.2,0.9,0.5c0.2-0.4,0.6-0.5,1-0.5c0.4,0,1.1,0.1,1.1,1v3.1h-0.7
			v-2.8c0-0.4-0.1-0.8-0.6-0.8c-0.2,0-0.3,0-0.5,0.2c-0.2,0.2-0.2,0.6-0.2,0.7v2.7H265.8z"/>
		<path class="st0" d="M271.6,101.3L271.6,101.3c-0.2,0.5-0.5,0.7-1,0.7c-0.9,0-1.1-0.6-1.1-1.3c0-1.2,1.2-1.3,2.1-1.3
			c0-0.5,0-1.1-0.7-1.1c-0.4,0-0.7,0.3-0.6,0.7h-0.7c0-0.9,0.5-1.2,1.4-1.2c1,0,1.3,0.5,1.3,1.2v1.9c0,0.3,0,0.6,0.1,1h-0.7V101.3z
			 M270.2,100.7c0,0.4,0.2,0.7,0.6,0.7c0.4,0,0.9-0.2,0.8-1.6C271,99.9,270.2,99.8,270.2,100.7z"/>
		<path class="st0" d="M274.2,101.9h-0.7v-5.8h0.7v3.5h0l1.2-1.7h0.8l-1.3,1.7l1.6,2.3h-0.8l-1.4-2.3h0V101.9z"/>
		<path class="st0" d="M277.1,96.1h0.7v0.7h-0.7V96.1z M277.8,101.9h-0.7v-4h0.7V101.9z"/>
		<path class="st0" d="M281.1,101.9v-2.8c0-0.4-0.2-0.8-0.7-0.8c-0.7,0-0.8,0.6-0.8,1.2v2.4h-0.7v-3.2c0-0.3,0-0.6,0-0.8h0.7v0.5h0
			c0.3-0.5,0.6-0.6,1.1-0.6c0.9,0,1.1,0.5,1.1,1.3v2.8H281.1z"/>
		<path class="st0" d="M285,97.9h0.7v4.4c0,0.9-0.6,1.1-1.5,1.1c-0.7,0-1.3-0.3-1.2-1.1h0.7c0,0.4,0.3,0.6,0.6,0.6
			c0.5,0,0.7-0.3,0.7-0.7v-0.8h0c-0.2,0.3-0.5,0.5-0.9,0.5c-1.1,0-1.3-0.9-1.3-2.1c0-1.9,0.9-2,1.3-2c0.4,0,0.8,0.2,0.9,0.6h0V97.9z
			 M284.3,98.3c-0.7,0-0.8,0.9-0.8,1.4c0,1.3,0.3,1.6,0.8,1.6c0.8,0,0.8-0.9,0.8-1.5C285,99.3,285.1,98.3,284.3,98.3z"/>
	</g>
	<path class="st10" d="M106.4,162l-34.5,4.3c-3.8,0.5-7.3-2-8.3-5.7l-12.2-49.9"/>
	<g>
		<path class="st0" d="M112,161.9c0-1.2,0.1-2.2,1.5-2.2s1.5,1,1.5,2.2c0,1.8-0.7,2-1.5,2S112,163.7,112,161.9z M114.4,161.6
			c0-1.1-0.3-1.3-0.8-1.3s-0.8,0.2-0.8,1.3c0,1.3,0.2,1.8,0.8,1.8S114.4,162.9,114.4,161.6z"/>
		<path class="st0" d="M116.2,159.8V159c0-0.8,0.6-1,1.2-1c0.1,0,0.2,0,0.3,0v0.5c-0.7,0-0.8,0.2-0.8,0.6v0.7h0.8v0.5h-0.8v3.5h-0.7
			v-3.5h-0.6v-0.5H116.2z"/>
		<path class="st0" d="M122.9,159.6c0-0.7-0.3-1-1-1c-0.2,0-1.1,0-1.1,1.2v2c0,1.3,0.4,1.6,1.1,1.6c0.5,0,0.9-0.1,1-0.3v-1.7h-1.1
			v-0.6h1.8v2.8c-0.5,0.3-1,0.4-1.8,0.4c-1.2,0-1.8-0.6-1.8-2.2v-1.9c0-1.2,0.6-1.9,1.8-1.9c1.2,0,1.8,0.5,1.8,1.7H122.9z"/>
		<path class="st0" d="M125.6,162c0,1.1,0.3,1.4,0.8,1.4c0.4,0,0.7-0.4,0.7-0.8h0.7c0,0.9-0.6,1.3-1.4,1.3c-0.9,0-1.5-0.3-1.5-2
			c0-1.2,0.1-2.2,1.5-2.2c1.2,0,1.4,0.6,1.4,2v0.3H125.6z M127.2,161.5c0-1.2-0.3-1.3-0.8-1.3c-0.4,0-0.8,0.2-0.8,1.3H127.2z"/>
		<path class="st0" d="M129.7,160.4L129.7,160.4c0.3-0.6,0.6-0.7,1.3-0.7v0.7c-0.1,0-0.1,0-0.2,0c-0.1,0-0.1,0-0.2,0
			c-0.7,0-0.9,0.6-0.9,1.1v2.4H129v-4h0.7V160.4z"/>
		<path class="st0" d="M133.6,163.9v-2.8c0-0.4-0.1-0.8-0.6-0.8c-0.2,0-0.5,0.1-0.6,0.3c-0.1,0.2-0.2,0.4-0.2,0.6v2.7h-0.7v-3.2
			c0-0.3,0-0.6,0-0.8h0.7v0.5h0c0.2-0.4,0.5-0.6,1-0.6c0.4,0,0.8,0.2,0.9,0.5c0.2-0.4,0.6-0.5,1-0.5c0.4,0,1.1,0.1,1.1,1v3.1h-0.7
			v-2.8c0-0.4-0.1-0.8-0.6-0.8c-0.2,0-0.3,0-0.5,0.2c-0.2,0.2-0.2,0.6-0.2,0.7v2.7H133.6z"/>
		<path class="st0" d="M139.5,163.3L139.5,163.3c-0.2,0.5-0.5,0.7-1,0.7c-0.9,0-1.1-0.6-1.1-1.3c0-1.2,1.2-1.3,2.1-1.3
			c0-0.5,0-1.1-0.7-1.1c-0.4,0-0.7,0.3-0.6,0.7h-0.7c0-0.9,0.5-1.2,1.4-1.2c1,0,1.3,0.5,1.3,1.2v1.9c0,0.3,0,0.6,0.1,1h-0.7V163.3z
			 M138,162.7c0,0.4,0.2,0.7,0.6,0.7c0.4,0,0.9-0.2,0.8-1.6C138.9,161.9,138,161.8,138,162.7z"/>
		<path class="st0" d="M143.6,163.9v-2.8c0-0.4-0.2-0.8-0.7-0.8c-0.7,0-0.8,0.6-0.8,1.2v2.4h-0.7v-3.2c0-0.3,0-0.6,0-0.8h0.7v0.5h0
			c0.3-0.5,0.6-0.6,1.1-0.6c0.9,0,1.1,0.5,1.1,1.3v2.8H143.6z"/>
		<path class="st0" d="M146.6,163.9c-0.9,0-1.4-0.4-1.4-1.3h0.7c0,0.2,0,0.8,0.7,0.8c0.4,0,0.7-0.2,0.7-0.6c0-0.7-2-0.7-2-1.9
			c0-0.4,0.3-1.1,1.4-1.1c0.7,0,1.3,0.3,1.3,1.1h-0.7c0-0.4-0.2-0.6-0.6-0.6c-0.4,0-0.6,0.2-0.6,0.5c0,0.7,2,0.7,2,1.9
			C148,163.6,147.4,163.9,146.6,163.9z"/>
		<path class="st0" d="M152.8,163.3L152.8,163.3c-0.2,0.5-0.5,0.7-1,0.7c-0.9,0-1.1-0.6-1.1-1.3c0-1.2,1.2-1.3,2.1-1.3
			c0-0.5,0-1.1-0.7-1.1c-0.4,0-0.7,0.3-0.6,0.7h-0.7c0-0.9,0.5-1.2,1.4-1.2c1,0,1.3,0.5,1.3,1.2v1.9c0,0.3,0,0.6,0.1,1h-0.7V163.3z
			 M151.4,162.7c0,0.4,0.2,0.7,0.6,0.7c0.4,0,0.9-0.2,0.8-1.6C152.2,161.9,151.4,161.8,151.4,162.7z"/>
		<path class="st0" d="M155.4,160.4L155.4,160.4c0.3-0.6,0.6-0.7,1.3-0.7v0.7c-0.1,0-0.1,0-0.2,0c-0.1,0-0.1,0-0.2,0
			c-0.7,0-0.9,0.6-0.9,1.1v2.4h-0.7v-4h0.7V160.4z"/>
		<path class="st0" d="M158.1,162c0,1.1,0.3,1.4,0.8,1.4c0.4,0,0.7-0.4,0.7-0.8h0.7c0,0.9-0.6,1.3-1.4,1.3c-0.9,0-1.5-0.3-1.5-2
			c0-1.2,0.1-2.2,1.5-2.2c1.2,0,1.4,0.6,1.4,2v0.3H158.1z M159.6,161.5c0-1.2-0.3-1.3-0.8-1.3c-0.4,0-0.8,0.2-0.8,1.3H159.6z"/>
		<path class="st0" d="M163.8,163.9h-0.7v-5.8h0.7V163.9z"/>
		<path class="st0" d="M165.6,162c0,1.1,0.3,1.4,0.8,1.4c0.4,0,0.7-0.4,0.7-0.8h0.7c0,0.9-0.6,1.3-1.4,1.3c-0.9,0-1.5-0.3-1.5-2
			c0-1.2,0.1-2.2,1.5-2.2c1.2,0,1.4,0.6,1.4,2v0.3H165.6z M167.2,161.5c0-1.2-0.3-1.3-0.8-1.3c-0.4,0-0.8,0.2-0.8,1.3H167.2z"/>
		<path class="st0" d="M169.1,159.8V159c0-0.8,0.6-1,1.2-1c0.1,0,0.2,0,0.3,0v0.5c-0.7,0-0.8,0.2-0.8,0.6v0.7h0.8v0.5h-0.8v3.5h-0.7
			v-3.5h-0.6v-0.5H169.1z"/>
		<path class="st0" d="M171.3,159.8V159l0.7-0.3v1.1h0.9v0.5h-0.9v2.5c0,0.3,0,0.6,0.6,0.6c0,0,0.2,0,0.3,0v0.5
			c-0.2,0-0.4,0.1-0.6,0.1c-0.6,0-0.9-0.3-0.9-0.7v-2.9h-0.7v-0.5H171.3z"/>
		<path class="st0" d="M173.3,161.4h1.8v0.6h-1.8V161.4z"/>
		<path class="st0" d="M176.8,163.9h-0.7v-5.8h0.7v2.1h0c0.2-0.3,0.5-0.5,0.9-0.5c1.3,0,1.3,1.2,1.3,2.2c0,1.8-0.7,2-1.3,2
			c-0.4,0-0.7-0.2-0.9-0.6h0V163.9z M177.5,163.4c0.8,0,0.8-0.9,0.8-1.5c0-1.1-0.1-1.6-0.8-1.6c-0.7,0-0.8,0.9-0.8,1.4
			C176.8,162.3,176.7,163.4,177.5,163.4z"/>
		<path class="st0" d="M180.8,160.4L180.8,160.4c0.3-0.6,0.6-0.7,1.3-0.7v0.7c-0.1,0-0.1,0-0.2,0c-0.1,0-0.1,0-0.2,0
			c-0.7,0-0.9,0.6-0.9,1.1v2.4h-0.7v-4h0.7V160.4z"/>
		<path class="st0" d="M184.8,163.3L184.8,163.3c-0.2,0.5-0.5,0.7-1,0.7c-0.9,0-1.1-0.6-1.1-1.3c0-1.2,1.2-1.3,2.1-1.3
			c0-0.5,0-1.1-0.7-1.1c-0.4,0-0.7,0.3-0.6,0.7h-0.7c0-0.9,0.5-1.2,1.4-1.2c1,0,1.3,0.5,1.3,1.2v1.9c0,0.3,0,0.6,0.1,1h-0.7V163.3z
			 M183.4,162.7c0,0.4,0.2,0.7,0.6,0.7c0.4,0,0.9-0.2,0.8-1.6C184.2,161.9,183.4,161.8,183.4,162.7z"/>
		<path class="st0" d="M186.7,158.1h0.7v0.7h-0.7V158.1z M187.4,163.9h-0.7v-4h0.7V163.9z"/>
		<path class="st0" d="M190.7,163.9v-2.8c0-0.4-0.2-0.8-0.7-0.8c-0.7,0-0.8,0.6-0.8,1.2v2.4h-0.7v-3.2c0-0.3,0-0.6,0-0.8h0.7v0.5h0
			c0.3-0.5,0.6-0.6,1.1-0.6c0.9,0,1.1,0.5,1.1,1.3v2.8H190.7z"/>
		<path class="st0" d="M193.2,162c0,1.1,0.3,1.4,0.8,1.4c0.4,0,0.7-0.4,0.7-0.8h0.7c0,0.9-0.6,1.3-1.4,1.3c-0.9,0-1.5-0.3-1.5-2
			c0-1.2,0.1-2.2,1.5-2.2c1.2,0,1.4,0.6,1.4,2v0.3H193.2z M194.7,161.5c0-1.2-0.3-1.3-0.8-1.3c-0.4,0-0.8,0.2-0.8,1.3H194.7z"/>
		<path class="st0" d="M198.7,158.1h0.7v5.8h-0.7v-0.5h0c-0.2,0.4-0.5,0.6-0.9,0.6c-0.6,0-1.3-0.3-1.3-2c0-1,0-2.2,1.3-2.2
			c0.4,0,0.7,0.2,0.9,0.5h0V158.1z M197.9,160.3c-0.7,0-0.8,0.6-0.8,1.6c0,0.6,0,1.5,0.8,1.5c0.7,0,0.7-0.9,0.7-1.7
			C198.7,161.1,198.6,160.3,197.9,160.3z"/>
	</g>
	<g>
		<path class="st0" d="M25.7,7.7v0.8h-1.9v6.4h-0.9V8.5H21V7.7H25.7z"/>
		<path class="st0" d="M29.3,14.9v-3.4c0-0.6-0.2-1.1-0.9-1.1c-0.8,0-1,0.7-1,1.5v3h-0.8V7.7h0.8v2.8h0c0.3-0.6,0.7-0.8,1.4-0.8
			c0.9,0,1.3,0.4,1.3,1.6v3.6H29.3z"/>
		<path class="st0" d="M32.3,12.6c0,1.4,0.4,1.7,1,1.7c0.6,0,0.8-0.5,0.9-1h0.9c0,1.1-0.7,1.6-1.8,1.6c-1.1,0-1.9-0.3-1.9-2.5
			c0-1.5,0.2-2.7,1.9-2.7c1.4,0,1.8,0.8,1.8,2.5v0.4H32.3z M34.3,12c0-1.5-0.4-1.6-1-1.6c-0.5,0-0.9,0.2-1,1.6H34.3z"/>
		<path class="st0" d="M40.2,15c-1.1,0-1.8-0.5-1.7-1.6h0.9c0,0.3,0,1,0.8,1c0.5,0,0.9-0.2,0.9-0.8c0-0.9-2.5-0.9-2.5-2.4
			c0-0.5,0.3-1.4,1.7-1.4c0.9,0,1.7,0.4,1.6,1.4h-0.9c0-0.5-0.3-0.8-0.8-0.8c-0.4,0-0.8,0.2-0.8,0.7c0,0.9,2.5,0.9,2.5,2.4
			C42,14.6,41.2,15,40.2,15z"/>
		<path class="st0" d="M43.3,9.9v-1l0.8-0.4v1.3h1.1v0.6h-1.1v3.1c0,0.3,0,0.7,0.8,0.7c0.1,0,0.2,0,0.4,0v0.6
			c-0.3,0-0.5,0.1-0.8,0.1c-0.8,0-1.1-0.3-1.1-0.9v-3.6h-0.8V9.9H43.3z"/>
		<path class="st0" d="M48.7,9.9h0.8v4c0,0.4,0,0.7,0,1h-0.9v-0.6h0c-0.3,0.5-0.7,0.7-1.3,0.7c-0.9,0-1.4-0.4-1.4-1.3V9.9h0.8v3.5
			c0,0.6,0.3,1,0.9,1c0.4,0,1-0.3,1-1.2V9.9z"/>
		<path class="st0" d="M53.6,7.7h0.8v7.2h-0.8v-0.6h0C53.3,14.8,53,15,52.5,15c-0.8,0-1.6-0.3-1.6-2.5c0-1.3,0-2.7,1.7-2.7
			c0.5,0,0.8,0.2,1.1,0.6h0V7.7z M52.7,10.4c-0.9,0-1,0.7-1,2c0,0.8,0,1.9,1,1.9c0.9,0,0.9-1.1,0.9-2.2
			C53.6,11.5,53.6,10.4,52.7,10.4z"/>
		<path class="st0" d="M57.5,14L57.5,14l1.2-4.1h0.9l-2.3,7h-0.8l0.6-1.9l-1.7-5h0.9L57.5,14z"/>
		<path class="st0" d="M65.3,11.5c0-0.8-0.4-1-0.7-1c-0.6,0-1.1,0.3-1.1,1.7c0,1.6,0.2,2.2,1.1,2.2c0.2,0,0.8-0.2,0.7-1.1h0.9
			c0,1.4-1,1.8-1.6,1.8c-1.1,0-1.9-0.3-1.9-2.5c0-1.5,0.2-2.7,1.9-2.7c1,0,1.6,0.6,1.5,1.7H65.3z"/>
		<path class="st0" d="M70.2,14.2L70.2,14.2C70,14.7,69.6,15,68.9,15c-1.1,0-1.4-0.7-1.4-1.7c0-1.5,1.5-1.6,2.6-1.6
			c0-0.7,0-1.4-0.8-1.4c-0.5,0-0.8,0.4-0.8,0.9h-0.9c0-1.1,0.6-1.5,1.7-1.5c1.3,0,1.6,0.7,1.6,1.5v2.4c0,0.4,0,0.8,0.1,1.2h-0.9
			V14.2z M68.4,13.4c0,0.5,0.2,0.9,0.8,0.9c0.5,0,1.1-0.3,1-1.9C69.4,12.4,68.4,12.3,68.4,13.4z"/>
		<path class="st0" d="M73.5,10.6L73.5,10.6c0.4-0.8,0.8-0.9,1.6-0.9v0.8c-0.1,0-0.1,0-0.2,0c-0.1,0-0.1,0-0.2,0
			c-0.9,0-1.1,0.7-1.1,1.4v3h-0.8v-5h0.8V10.6z"/>
		<path class="st0" d="M76.8,10.6L76.8,10.6c0.4-0.8,0.8-0.9,1.6-0.9v0.8c-0.1,0-0.1,0-0.2,0c-0.1,0-0.1,0-0.2,0
			c-0.9,0-1.1,0.7-1.1,1.4v3H76v-5h0.8V10.6z"/>
		<path class="st0" d="M79.2,7.7h0.9v0.9h-0.9V7.7z M80.1,14.9h-0.8v-5h0.8V14.9z"/>
		<path class="st0" d="M82.3,12.6c0,1.4,0.4,1.7,1,1.7c0.6,0,0.8-0.5,0.9-1h0.9c0,1.1-0.7,1.6-1.8,1.6c-1.1,0-1.9-0.3-1.9-2.5
			c0-1.5,0.2-2.7,1.9-2.7c1.4,0,1.8,0.8,1.8,2.5v0.4H82.3z M84.3,12c0-1.5-0.4-1.6-1-1.6c-0.5,0-0.9,0.2-1,1.6H84.3z"/>
		<path class="st0" d="M89.2,7.7H90v7.2h-0.8v-0.6h0C88.9,14.8,88.5,15,88,15c-0.8,0-1.6-0.3-1.6-2.5c0-1.3,0-2.7,1.7-2.7
			c0.5,0,0.8,0.2,1.1,0.6h0V7.7z M88.2,10.4c-0.9,0-1,0.7-1,2c0,0.8,0,1.9,1,1.9c0.9,0,0.9-1.1,0.9-2.2
			C89.2,11.5,89.1,10.4,88.2,10.4z"/>
		<path class="st0" d="M93.6,12.5c0-1.5,0.2-2.7,1.9-2.7c1.7,0,1.9,1.2,1.9,2.7c0,2.2-0.8,2.5-1.9,2.5C94.4,15,93.6,14.7,93.6,12.5z
			 M96.6,12.1c0-1.4-0.4-1.7-1.1-1.7c-0.6,0-1.1,0.3-1.1,1.7c0,1.6,0.2,2.2,1.1,2.2C96.4,14.3,96.6,13.7,96.6,12.1z"/>
		<path class="st0" d="M101.4,9.9h0.8v4c0,0.4,0,0.7,0.1,1h-0.9v-0.6h0c-0.3,0.5-0.7,0.7-1.3,0.7c-0.9,0-1.4-0.4-1.4-1.3V9.9h0.8
			v3.5c0,0.6,0.3,1,0.9,1c0.4,0,1-0.3,1-1.2V9.9z"/>
		<path class="st0" d="M103.8,9.9v-1l0.8-0.4v1.3h1.1v0.6h-1.1v3.1c0,0.3,0,0.7,0.8,0.7c0.1,0,0.2,0,0.4,0v0.6
			c-0.3,0-0.5,0.1-0.8,0.1c-0.8,0-1.1-0.3-1.1-0.9v-3.6H103V9.9H103.8z"/>
		<path class="st0" d="M108.7,7.7h0.9v0.9h-0.9V7.7z M109.5,14.9h-0.8v-5h0.8V14.9z"/>
		<path class="st0" d="M113.7,14.9v-3.5c0-0.5-0.2-1-0.9-1c-0.9,0-1,0.8-1,1.5v3H111v-4c0-0.3,0-0.7,0-1h0.9v0.6h0
			c0.3-0.6,0.7-0.8,1.3-0.8c1.1,0,1.3,0.7,1.3,1.6v3.5H113.7z"/>
		<path class="st0" d="M121.7,9.6c0-0.8-0.3-1.3-1.3-1.3c-0.3,0-1.3,0-1.3,1.6v2.4c0,1.6,0.5,2,1.3,2c0.7,0,1.1-0.2,1.3-0.3v-2.2
			h-1.3V11h2.2v3.5c-0.6,0.3-1.3,0.5-2.2,0.5c-1.5,0-2.3-0.8-2.3-2.8V9.9c0-1.4,0.7-2.4,2.3-2.4c1.6,0,2.3,0.6,2.2,2.1H121.7z"/>
		<path class="st0" d="M125.1,12.6c0,1.4,0.4,1.7,1,1.7c0.6,0,0.8-0.5,0.9-1h0.9c0,1.1-0.7,1.6-1.8,1.6c-1.1,0-1.9-0.3-1.9-2.5
			c0-1.5,0.2-2.7,1.9-2.7c1.4,0,1.8,0.8,1.8,2.5v0.4H125.1z M127.1,12c0-1.5-0.4-1.6-1-1.6c-0.5,0-0.9,0.2-1,1.6H127.1z"/>
		<path class="st0" d="M130.1,10.6L130.1,10.6c0.4-0.8,0.8-0.9,1.6-0.9v0.8c-0.1,0-0.2,0-0.2,0c-0.1,0-0.1,0-0.2,0
			c-0.9,0-1.1,0.7-1.1,1.4v3h-0.8v-5h0.8V10.6z"/>
		<path class="st0" d="M135.1,14.9v-3.5c0-0.5-0.1-1-0.8-1c-0.2,0-0.6,0.2-0.7,0.3c-0.2,0.2-0.2,0.5-0.2,0.7v3.4h-0.8v-4
			c0-0.3,0-0.7,0-1h0.9v0.6h0c0.2-0.5,0.7-0.7,1.3-0.7c0.5,0,1,0.2,1.2,0.7c0.3-0.5,0.7-0.7,1.2-0.7c0.5,0,1.4,0.1,1.4,1.3v3.8h-0.8
			v-3.5c0-0.5-0.1-1-0.8-1c-0.3,0-0.4,0-0.6,0.2c-0.2,0.2-0.3,0.7-0.3,0.9v3.4H135.1z"/>
		<path class="st0" d="M142.4,14.2L142.4,14.2c-0.3,0.6-0.7,0.8-1.3,0.8c-1.1,0-1.4-0.7-1.4-1.7c0-1.5,1.5-1.6,2.6-1.6
			c0-0.7,0-1.4-0.8-1.4c-0.5,0-0.8,0.4-0.8,0.9h-0.9c0-1.1,0.6-1.5,1.7-1.5c1.3,0,1.6,0.7,1.6,1.5v2.4c0,0.4,0,0.8,0.1,1.2h-0.9
			V14.2z M140.6,13.4c0,0.5,0.2,0.9,0.8,0.9c0.5,0,1.1-0.3,1-1.9C141.6,12.4,140.6,12.3,140.6,13.4z"/>
		<path class="st0" d="M147.6,14.9v-3.5c0-0.5-0.2-1-0.9-1c-0.9,0-1,0.8-1,1.5v3h-0.8v-4c0-0.3,0-0.7,0-1h0.9v0.6h0
			c0.3-0.6,0.7-0.8,1.3-0.8c1.1,0,1.3,0.7,1.3,1.6v3.5H147.6z"/>
		<path class="st0" d="M151.4,14L151.4,14l1.2-4.1h0.9l-2.3,7h-0.8l0.6-1.9l-1.7-5h0.9L151.4,14z"/>
		<path class="st0" d="M158,15c-1.1,0-1.8-0.5-1.7-1.6h0.9c0,0.3,0,1,0.8,1c0.5,0,0.9-0.2,0.9-0.8c0-0.9-2.5-0.9-2.5-2.4
			c0-0.5,0.3-1.4,1.7-1.4c0.9,0,1.7,0.4,1.6,1.4h-0.9c0-0.5-0.3-0.8-0.8-0.8c-0.4,0-0.8,0.2-0.8,0.7c0,0.9,2.5,0.9,2.5,2.4
			C159.7,14.6,159,15,158,15z"/>
		<path class="st0" d="M163.7,14.9v-3.4c0-0.6-0.2-1.1-0.9-1.1c-0.8,0-1,0.7-1,1.5v3h-0.8V7.7h0.8v2.8h0c0.3-0.6,0.7-0.8,1.4-0.8
			c0.9,0,1.3,0.4,1.3,1.6v3.6H163.7z"/>
		<path class="st0" d="M165.8,12.5c0-1.5,0.2-2.7,1.9-2.7s1.9,1.2,1.9,2.7c0,2.2-0.8,2.5-1.9,2.5S165.8,14.7,165.8,12.5z
			 M168.8,12.1c0-1.4-0.4-1.7-1.1-1.7c-0.6,0-1.1,0.3-1.1,1.7c0,1.6,0.2,2.2,1.1,2.2S168.8,13.7,168.8,12.1z"/>
		<path class="st0" d="M170.3,9.9h0.9l0.9,4.3h0l1.1-4.3h1.2l1,4.3h0l1-4.3h0.9l-1.3,5h-1.1l-1.1-4.3h0l-1.1,4.3h-1.1L170.3,9.9z"/>
		<path class="st0" d="M179,12.6c0,1.4,0.4,1.7,1,1.7c0.6,0,0.8-0.5,0.9-1h0.9c0,1.1-0.7,1.6-1.8,1.6c-1.1,0-1.9-0.3-1.9-2.5
			c0-1.5,0.2-2.7,1.9-2.7c1.4,0,1.8,0.8,1.8,2.5v0.4H179z M180.9,12c0-1.5-0.4-1.6-1-1.6c-0.5,0-0.9,0.2-1,1.6H180.9z"/>
		<path class="st0" d="M185.8,7.7h0.8v7.2h-0.8v-0.6h0c-0.3,0.5-0.6,0.7-1.2,0.7c-0.8,0-1.6-0.3-1.6-2.5c0-1.3,0-2.7,1.7-2.7
			c0.5,0,0.8,0.2,1.1,0.6h0V7.7z M184.9,10.4c-0.9,0-1,0.7-1,2c0,0.8,0,1.9,1,1.9c0.9,0,0.9-1.1,0.9-2.2
			C185.8,11.5,185.8,10.4,184.9,10.4z"/>
		<path class="st0" d="M190.5,9.9v-1l0.8-0.4v1.3h1.1v0.6h-1.1v3.1c0,0.3,0,0.7,0.8,0.7c0.1,0,0.2,0,0.4,0v0.6
			c-0.3,0-0.5,0.1-0.8,0.1c-0.8,0-1.1-0.3-1.1-0.9v-3.6h-0.8V9.9H190.5z"/>
		<path class="st0" d="M195.9,14.9v-3.4c0-0.6-0.2-1.1-0.9-1.1c-0.8,0-1,0.7-1,1.5v3h-0.8V7.7h0.8v2.8h0c0.3-0.6,0.7-0.8,1.4-0.8
			c0.9,0,1.3,0.4,1.3,1.6v3.6H195.9z"/>
		<path class="st0" d="M200.8,14.2L200.8,14.2c-0.3,0.6-0.7,0.8-1.3,0.8c-1.1,0-1.4-0.7-1.4-1.7c0-1.5,1.5-1.6,2.6-1.6
			c0-0.7,0-1.4-0.8-1.4c-0.5,0-0.8,0.4-0.8,0.9h-0.9c0-1.1,0.6-1.5,1.7-1.5c1.3,0,1.6,0.7,1.6,1.5v2.4c0,0.4,0,0.8,0.1,1.2h-0.9
			V14.2z M198.9,13.4c0,0.5,0.2,0.9,0.8,0.9c0.5,0,1.1-0.3,1-1.9C200,12.4,198.9,12.3,198.9,13.4z"/>
		<path class="st0" d="M203.2,9.9v-1l0.8-0.4v1.3h1.1v0.6h-1.1v3.1c0,0.3,0,0.7,0.8,0.7c0.1,0,0.2,0,0.4,0v0.6
			c-0.3,0-0.5,0.1-0.8,0.1c-0.8,0-1.1-0.3-1.1-0.9v-3.6h-0.8V9.9H203.2z"/>
		<path class="st0" d="M206.8,10.9h-0.9v-1h0.9V10.9z M206.8,14.9h-0.9v-1h0.9V14.9z"/>
	</g>
	<line class="st10" x1="84.3" y1="94.6" x2="149.6" y2="94.6"/>
	<path class="st11" d="M105,61.5L62.4,85.3c-1.2,0.7-2.7,0.2-3.3-1.1L44.9,52.5l43.4,96.9"/>
</g>
</svg>
