<svg id="Layer_1" xmlns="http://www.w3.org/2000/svg" width="459" height="453" viewBox="0 0 459 453"><style>.Drop_x0020_Shadow{fill:none;} .Outer_x0020_Glow_x0020_5_x0020_pt{fill:none;} .Blue_x0020_Neon{fill:none;stroke:#8AACDA;stroke-width:7;stroke-linecap:round;stroke-linejoin:round;} .Chrome_x0020_Highlight{fill:url(#SVGID_1_);stroke:#FFFFFF;stroke-width:0.3629;stroke-miterlimit:1;} .Jive_GS{fill:#FFDD00;} .Alyssa_GS{fill:#A6D0E4;} .st0{fill:#ED5A49;} .st1{fill:none;stroke:#0A3656;stroke-width:0.3467;stroke-linecap:round;stroke-linejoin:round;stroke-miterlimit:10;} .st2{fill:#0A3656;} .st3{fill:#ED5A49;stroke:#ED5A49;stroke-width:0.1444;stroke-miterlimit:10;} .st4{fill:#E9F5FC;}</style><linearGradient id="SVGID_1_" gradientUnits="userSpaceOnUse" x1="-262.601" y1="-64.101" x2="-262.601" y2="-65.101"><stop offset="0" stop-color="#656565"/><stop offset=".618" stop-color="#1B1B1B"/><stop offset=".629" stop-color="#545454"/><stop offset=".983" stop-color="#3E3E3E"/></linearGradient><path class="st0" d="M303.6 194.6l-.2-.3c-.6-1-1.9-1.3-2.9-.8L283 203.7c-1 .6-1.3 1.9-.8 2.9l.2.3c.6 1 1.9 1.3 2.9.8l17.6-10.2c.9-.6 1.3-1.9.7-2.9zM296.4 212.9l-.2-.2c-.9-.7-2.2-.6-3 .3l-13.1 15.6c-.7.9-.6 2.2.3 3l.2.2c.9.7 2.2.6 3-.3l13.1-15.6c.7-.9.6-2.3-.3-3zM304 216h-.3c-1.2 0-2.1.9-2.1 2.1v20.3c0 1.2.9 2.1 2.1 2.1h.3c1.2 0 2.1-.9 2.1-2.1v-20.3c0-1.1-.9-2.1-2.1-2.1zM309.6 196.6l-.3.1c-1.1.4-1.6 1.6-1.3 2.7l7 19.1c.4 1.1 1.6 1.6 2.7 1.3l.3-.1c1.1-.4 1.6-1.6 1.3-2.7l-7-19.1c-.4-1.1-1.6-1.6-2.7-1.3z"/><circle class="st0" cx="307.4" cy="185.5" r="6.2"/><path class="st0" d="M300.7 221.9l-6.9-2.5c-2-.7-3-3-2.3-5l6.8-18.6c.7-2 3-3 5-2.3l6.9 2.5c2 .7 3 3 2.3 5l-6.8 18.6c-.8 2-3 3.1-5 2.3z"/><path class="st1" d="M322.2 207.9s3 2.7 1.5 7M322.2 203.9s5.8 4.8 3.9 11M280 198.1s-3 2.7-1.5 7M280 194.1s-5.8 4.8-3.9 11M278.2 227.8s-3 2.7-1.5 7M278.2 223.8s-5.8 4.8-3.9 11"/><path class="st2" d="M356.6 206l-.2-.3c-.6-1-1.9-1.3-2.9-.8L336 215.2c-1 .6-1.3 1.9-.8 2.9l.2.3c.6 1 1.9 1.3 2.9.8l17.6-10.2c1-.7 1.3-2 .7-3z"/><path class="st0" d="M349.4 224.4l-.2-.2c-.9-.7-2.2-.6-3 .3L333.1 240c-.7.9-.6 2.2.3 3l.2.2c.9.7 2.2.6 3-.3l13.1-15.6c.7-.9.6-2.2-.3-2.9zM357.1 227.5h-.3c-1.2 0-2.1.9-2.1 2.1v20.3c0 1.2.9 2.1 2.1 2.1h.3c1.2 0 2.1-.9 2.1-2.1v-20.3c0-1.1-1-2.1-2.1-2.1z"/><path class="st2" d="M362.6 208.1l-.3.1c-1.1.4-1.6 1.6-1.3 2.7l7 19.1c.4 1.1 1.6 1.6 2.7 1.3l.3-.1c1.1-.4 1.6-1.6 1.3-2.7l-7-19.1c-.4-1.1-1.6-1.7-2.7-1.3z"/><circle class="st2" cx="360.4" cy="196.9" r="6.2"/><path class="st2" d="M353.7 233.4l-6.9-2.5c-2-.7-3-3-2.3-5l6.8-18.6c.7-2 3-3 5-2.3l6.9 2.5c2 .7 3 3 2.3 5l-6.8 18.6c-.8 2-3 3-5 2.3z"/><path class="st1" d="M375.2 219.4s3 2.7 1.5 7M375.2 215.3s5.8 4.8 3.9 11M333 209.6s-3 2.7-1.5 7M333 205.6s-5.8 4.8-3.9 11M331.2 239.3s-3 2.7-1.5 7M331.2 235.2s-5.8 4.8-3.9 11"/><path class="st0" d="M349.3 211h.5v2.2h-.5z"/><path class="st3" d="M349.2 212.8l-4.9 13.5c-.7 2 .3 4.2 2.3 5l6.9 2.5c2 .7 4.2-.3 5-2.3l6.8-18.6v-.1h-16.1z"/><path class="st3" d="M372.3 228.5l-5.7-15.7h-4.8L368 230c.4 1.1 1.6 1.6 2.7 1.3l.3-.1c1.1-.4 1.7-1.6 1.3-2.7zM349.8 207.2l-13.8 7.9c-1 .6-1.3 1.9-.8 2.9l.2.3c.6 1 1.9 1.3 2.9.8l11.5-6.6v-5.3z"/><g><path class="st0" d="M231.7 195.8c-.8 0-1.6-.4-2-1.1l-.2-.3c-.3-.5-.4-1.1-.2-1.7.2-.6.5-1.1 1.1-1.4l17.6-10.2c.3-.2.7-.3 1.1-.3.8 0 1.6.4 2 1.1l.2.3c.6 1.1.3 2.5-.8 3.1l-17.6 10.2c-.4.2-.8.3-1.2.3z"/><path class="st4" d="M249.2 181c.7 0 1.4.4 1.8 1l.2.3c.6 1 .2 2.3-.8 2.9l-17.6 10.2c-.3.2-.7.3-1 .3-.7 0-1.4-.4-1.8-1l-.2-.3c-.6-1-.2-2.3.8-2.9l17.6-10.2c.3-.2.6-.3 1-.3m0-.4c-.4 0-.8.1-1.2.3l-17.6 10.2c-.6.3-1 .9-1.1 1.5-.2.6-.1 1.3.2 1.9l.2.3c.4.8 1.2 1.2 2.1 1.2.4 0 .8-.1 1.2-.3l17.6-10.2c1.2-.7 1.6-2.2.9-3.3l-.2-.3c-.4-.8-1.3-1.3-2.1-1.3z"/></g><g><path class="st0" d="M229.5 220.1c-.5 0-1.1-.2-1.5-.5l-.2-.2c-1-.8-1.1-2.2-.3-3.2l13.1-15.6c.4-.5 1.1-.8 1.7-.8.5 0 1.1.2 1.5.5l.2.2c1 .8 1.1 2.2.3 3.2l-13.1 15.6c-.4.5-1 .8-1.7.8z"/><path class="st4" d="M242.3 199.9c.5 0 1 .2 1.3.5l.2.2c.9.7 1 2.1.3 3L231 219.2c-.4.5-1 .7-1.6.7-.5 0-1-.2-1.3-.5l-.2-.2c-.9-.7-1-2.1-.3-3l13.1-15.6c.4-.4 1-.7 1.6-.7m0-.3c-.7 0-1.4.3-1.9.9l-13 15.5c-.4.5-.6 1.1-.6 1.8s.4 1.2.9 1.7l.2.2c.4.4 1 .6 1.6.6.7 0 1.4-.3 1.9-.9l13.1-15.6c.4-.5.6-1.1.6-1.8s-.4-1.2-.9-1.7l-.2-.2c-.5-.3-1.1-.5-1.7-.5z"/></g><g><path class="st0" d="M251.6 203.8h-.3c-1.2 0-2.1.9-2.1 2.1v20.3c0 1.2.9 2.1 2.1 2.1h.3c1.2 0 2.1-.9 2.1-2.1v-20.3c0-1.2-1-2.1-2.1-2.1z"/></g><g><path class="st0" d="M257.1 184.4l-.3.1c-1.1.4-1.6 1.6-1.3 2.7l7 19.1c.4 1.1 1.6 1.6 2.7 1.3l.3-.1c1.1-.4 1.6-1.6 1.3-2.7l-7-19.1c-.4-1.2-1.6-1.7-2.7-1.3z"/></g><circle class="st0" cx="254.9" cy="173.2" r="6.2"/><g><path class="st0" d="M248.2 209.7l-6.9-2.5c-2-.7-3-3-2.3-5l6.8-18.6c.7-2 3-3 5-2.3l6.9 2.5c2 .7 3 3 2.3 5l-6.8 18.6c-.7 2-3 3-5 2.3z"/></g><g><path class="st1" d="M269.7 195.6s3 2.7 1.5 7M269.7 191.6s5.8 4.8 3.9 11M227.5 185.9s-3 2.7-1.5 7M227.5 181.9s-5.8 4.8-3.9 11M225.7 215.5s-3 2.7-1.5 7M225.7 211.5s-5.8 4.8-3.9 11"/></g><g><path class="st2" d="M57.4 211.1h1.2l2.3 7.2h-1l-.5-1.7h-2.8l-.5 1.7h-.9l2.2-7.2zm.6.9l-1.1 3.8h2.3L58 212zM65.5 218.4c-1.1 0-1.8-.5-1.7-1.6h.9c0 .3 0 1 .8 1 .5 0 .9-.2.9-.8 0-.9-2.5-.9-2.5-2.4 0-.5.3-1.4 1.7-1.4.9 0 1.7.4 1.6 1.4h-.9c0-.5-.3-.8-.8-.8-.4 0-.8.2-.8.7 0 .9 2.5.9 2.5 2.4.1 1.1-.7 1.5-1.7 1.5zM71.2 213.3h.8v5h-.9v-.6c-.3.5-.7.7-1.3.7-.9 0-1.4-.4-1.4-1.3v-3.8h.8v3.5c0 .6.3 1 .9 1 .4 0 1-.3 1-1.2v-3.3zM74.3 214c.4-.8.8-.9 1.6-.9v.8h-.4c-.9 0-1.1.7-1.1 1.4v3h-.8v-5h.8v.7zM76.2 213.3h.9l1.1 4.3 1.2-4.3h.9l-1.6 5h-1.1l-1.4-5zM82 216.1c0 1.4.4 1.7 1 1.7s.8-.5.9-1h.9c0 1.1-.7 1.6-1.8 1.6s-1.9-.3-1.9-2.5c0-1.5.2-2.7 1.9-2.7 1.4 0 1.8.8 1.8 2.5v.4H82zm2-.7c0-1.5-.4-1.6-1-1.6-.5 0-.9.2-1 1.6h2zM87.1 214c.4-.8.8-.9 1.6-.9v.8h-.4c-.9 0-1.1.7-1.1 1.4v3h-.8v-5h.8v.7zM91.1 217.4l1.2-4.1h.9l-2.3 7h-.8l.6-1.9-1.7-5h.9l1.2 4zM97.1 218.3h-.8v-7.2h.8v2.7c.3-.4.6-.6 1.1-.6 1.6 0 1.7 1.4 1.7 2.7 0 2.2-.8 2.5-1.6 2.5-.5 0-.9-.2-1.2-.7v.6zm.9-.5c1 0 1-1.1 1-1.9 0-1.3-.1-2-1-2s-.9 1.1-.9 1.7c0 .8-.1 2.2.9 2.2zM102.7 217.4l1.2-4.1h.9l-2.3 7h-.8l.6-1.9-1.7-5h.9l1.2 4zM110.8 211.1l-1.5 7.2h-1.4l1.5-7.2h1.4zM112.3 216c-.1.6-.3 1.5.3 1.5.5 0 .7-.5.8-.9h1.4c-.1.5-.4 1-.8 1.3-.4.3-.9.5-1.6.5-1.8 0-1.8-1.1-1.5-2.7.3-1.4.7-2.6 2.6-2.6 1.9 0 1.8 1.2 1.5 2.8h-2.7zm1.5-.8c.1-.5.3-1.2-.4-1.2-.6 0-.8.8-.9 1.2h1.3zM119 212c-.6 0-.7.2-.8.7l-.1.6h.7l-.2.9h-.7l-.9 4.2h-1.4l.9-4.2h-.6l.2-.9h.6c.3-1.4.3-2.2 2.1-2.2h.5l-.3.9z"/><path class="st2" d="M118.8 213.3h.6l.2-.8 1.5-.6-.3 1.4h.7l-.2.9h-.7l-.6 2.7c-.1.4-.1.6.3.6h.2l-.2.9h-.7c-1.2 0-1.2-.8-1.1-1.1l.7-3.1h-.6l.2-.9zM123.5 218.3l.7-3.5c.1-.4.1-.8-.4-.8s-.6.3-.7.8l-.7 3.5H121l1.5-7.2h1.4l-.6 2.7c.2-.2.4-.4.6-.5.2-.1.5-.1.7-.1.7 0 1.2.4 1 1.1l-.9 4h-1.2zM130.1 217.4c-.1.3-.1.6-.1.9h-1.3l.1-.7c-.4.5-.9.8-1.5.8-1 0-1.2-.7-1-1.6.4-1.7 1.7-1.7 3-1.7l.1-.4c.1-.4.1-.7-.4-.7s-.6.4-.7.8h-1.4c.1-.6.4-1 .8-1.2.4-.2.8-.3 1.4-.3 1.8 0 1.9.8 1.7 1.7l-.7 2.4zm-2.5-.6c-.1.4-.1.8.3.8.8 0 .9-1.1 1.1-1.7-.7 0-1.2 0-1.4.9zM133.4 213.8c.2-.2.4-.4.6-.5.2-.1.5-.1.7-.1.7 0 1.2.4 1 1.1l-.9 4h-1.4l.7-3.5c.1-.4.1-.8-.4-.8s-.6.3-.7.8l-.7 3.5h-1.4l1.1-5h1.4v.5zM138.6 218.3l.1-.6c-.4.5-.8.7-1.3.7-1.5 0-1.1-1.6-.8-2.7.2-1 .5-2.6 1.9-2.6.5 0 .8.2 1 .6l.6-2.6h1.4l-1.5 7.2h-1.4zm.5-2.5c.2-1 .4-1.7-.2-1.7-.6 0-.8.7-1 1.7-.3 1.3-.3 1.8.2 1.8s.7-.6 1-1.8zM142.9 216c-.1.6-.3 1.5.3 1.5.5 0 .7-.5.8-.9h1.4c-.1.5-.4 1-.8 1.3-.4.3-.9.5-1.6.5-1.8 0-1.8-1.1-1.5-2.7.3-1.4.7-2.6 2.6-2.6 1.9 0 1.8 1.2 1.5 2.8h-2.7zm1.4-.8c.1-.5.3-1.2-.4-1.2-.6 0-.8.8-.9 1.2h1.3zM148.5 213.3l-.1.6c.4-.6.9-.8 1.5-.8l-.3 1.3c-1.2-.1-1.4.6-1.5 1.1l-.6 2.7h-1.4l1.1-5h1.3zM150.8 216.7c0 .2-.1.5-.1.6 0 .2.2.2.5.2s.6-.2.6-.5c.2-1.1-2.3-.8-2-2.4.2-1.1 1.4-1.4 2.3-1.4 1 0 1.7.5 1.4 1.5h-1.4c.1-.4.1-.6 0-.7-.1-.1-.2-.1-.3-.1-.3 0-.5.2-.6.5-.2.8 2.3.8 2 2.4-.2.9-1 1.5-2.2 1.5-1.2 0-2-.3-1.6-1.7h1.4zM156.4 218.3l.1-.6c-.4.5-.8.7-1.3.7-1.5 0-1.1-1.6-.8-2.7.2-1 .5-2.6 1.9-2.6.5 0 .8.2 1 .6l.6-2.6h1.4l-1.5 7.2h-1.4zm.4-2.5c.2-1 .4-1.7-.2-1.7-.6 0-.8.7-1 1.7-.3 1.3-.3 1.8.2 1.8.6 0 .8-.6 1-1.8zM162.9 217.4c-.1.3-.1.6-.1.9h-1.3l.1-.7c-.4.5-.9.8-1.5.8-1 0-1.2-.7-1-1.6.4-1.7 1.7-1.7 3-1.7l.1-.4c.1-.4.1-.7-.4-.7s-.6.4-.7.8h-1.4c.1-.6.4-1 .8-1.2.4-.2.8-.3 1.4-.3 1.8 0 1.9.8 1.7 1.7l-.7 2.4zm-2.5-.6c-.1.4-.1.8.3.8.8 0 .9-1.1 1.1-1.7-.7 0-1.2 0-1.4.9zM164.7 218.4l-.3-5.1h1.4v3.5l1.5-3.5h1.4l-3.4 7h-1.5l.9-1.9zM169.3 217l-.3 1.3h-1.2l.3-1.3h1.2zM173.4 215.1c.2-.8 0-1-.4-1-.6 0-.8.5-1 1.6-.3 1.5-.3 1.9.2 1.9.4 0 .7-.4.9-1.1h1.4c-.3 1.4-1.2 2-2.5 2-1.8 0-1.8-1.1-1.5-2.7.3-1.4.7-2.6 2.6-2.6 1.3 0 1.9.6 1.6 1.9h-1.3zM175.6 215.7c.3-1.4.7-2.6 2.6-2.6 1.9 0 1.8 1.2 1.5 2.6-.3 1.6-.8 2.7-2.6 2.7s-1.9-1.1-1.5-2.7zm2.7 0c.2-1 .3-1.6-.3-1.6s-.8.5-1 1.6c-.3 1.5-.3 1.9.2 1.9.6-.1.8-.4 1.1-1.9zM182.4 213.8c.4-.5.8-.6 1.3-.6s.8.2 1 .6c.4-.4.9-.6 1.4-.6.7 0 1.2.4 1 1.1l-.9 4h-1.4l.7-3.5c.1-.4.1-.8-.4-.8s-.6.3-.7.8l-.7 3.5h-1.4l.7-3.5c.1-.4.1-.8-.4-.8-.4 0-.6.3-.7.8l-.7 3.5H180l1.1-5h1.4l-.1.5zM189.9 213.3v-1c0-1 .7-1.2 1.4-1.2h.4v.6c-.9-.1-1 .3-1 .7v.9h1v.6h-1v4.4h-.8v-4.4h-.8v-.6h.8zM192.4 215.9c0-1.5.2-2.7 1.9-2.7s1.9 1.2 1.9 2.7c0 2.2-.8 2.5-1.9 2.5s-1.9-.3-1.9-2.5zm2.9-.4c0-1.4-.4-1.7-1.1-1.7-.6 0-1.1.3-1.1 1.7 0 1.6.2 2.2 1.1 2.2s1.1-.5 1.1-2.2zM200.2 213.3h.8v4c0 .4 0 .7.1 1h-.9v-.6c-.3.5-.7.7-1.3.7-.9 0-1.4-.4-1.4-1.3v-3.8h.8v3.5c0 .6.3 1 .9 1 .4 0 1-.3 1-1.2v-3.3zM205.2 218.3v-3.5c0-.5-.2-1-.9-1-.9 0-1 .8-1 1.5v3h-.8v-4-1h.9v.6c.3-.6.7-.8 1.3-.8 1.1 0 1.3.7 1.3 1.6v3.5h-.8zM210.2 211.1h.8v7.2h-.8v-.6c-.3.5-.6.7-1.2.7-.8 0-1.6-.3-1.6-2.5 0-1.3 0-2.7 1.7-2.7.5 0 .8.2 1.1.6v-2.7zm-1 2.7c-.9 0-1 .7-1 2 0 .8 0 1.9 1 1.9.9 0 .9-1.1.9-2.2.1-.6 0-1.7-.9-1.7zM55.8 227.3v-1l.8-.4v1.3h1.1v.6h-1.1v3.1c0 .3 0 .7.8.7h.4v.6c-.3 0-.5.1-.8.1-.8 0-1.1-.3-1.1-.9v-3.6H55v-.6h.8zM61.2 232.3v-3.4c0-.6-.2-1.1-.9-1.1-.8 0-1 .7-1 1.5v3h-.8v-7.2h.8v2.8c.3-.6.7-.8 1.4-.8.9 0 1.3.4 1.3 1.6v3.6h-.8zM66.1 231.6c-.3.6-.7.8-1.3.8-1.1 0-1.4-.7-1.4-1.7 0-1.5 1.5-1.6 2.6-1.6 0-.7 0-1.4-.8-1.4-.5 0-.8.4-.8.9h-.9c0-1.1.6-1.5 1.7-1.5 1.3 0 1.6.7 1.6 1.5v2.4c0 .4 0 .8.1 1.2H66v-.6zm-1.9-.8c0 .5.2.9.8.9.5 0 1.1-.3 1-1.9-.7 0-1.8 0-1.8 1zM68.6 227.3v-1l.8-.4v1.3h1.1v.6h-1.1v3.1c0 .3 0 .7.8.7h.4v.6c-.3 0-.5.1-.8.1-.8 0-1.1-.3-1.1-.9v-3.6h-.8v-.6h.7z"/><path class="st0" d="M73.3 229.6c0-1.3.2-2.4 1.5-2.8-1.2-.3-1.5-1.2-1.5-2.3 0-1.9 1-2.8 2.9-2.8s2.9.9 2.9 2.8c0 1.1-.3 2-1.5 2.3 1.3.5 1.5 1.5 1.5 2.8 0 2-1.1 2.8-3 2.8-1.7.1-2.8-.8-2.8-2.8zm2.1-.1c0 .6.1 1.4.9 1.4s.9-.8.9-1.4c0-.6 0-1.9-.9-1.9s-.9 1.3-.9 1.9zm.1-4.9c0 .5.1 1.4.8 1.4s.8-.9.8-1.4c0-.5-.1-1.4-.8-1.4-.7 0-.8.9-.8 1.4zM82.3 226.1c.4-.5.9-.7 1.5-.7 1.7 0 2.2 1.2 2.2 3.5 0 2.8-1 3.6-3.2 3.6-1.7 0-2.8-.7-2.8-2.6h2.1c0 .3 0 .6.1.8.1.2.3.3.6.3.8 0 .9-.6.9-2.1 0-.7.1-2.1-.9-2.1-.6 0-.8.7-.8 1.2h-2v-6.1h5.5v1.6h-3.4v2.6zM86.8 224.7c0-1.6.3-2.8 2.2-2.8 1.8 0 2.2 1.3 2.2 2.8 0 1.8-.5 2.7-2.2 2.7-1.7 0-2.2-.9-2.2-2.7zm2.9-.2c0-.5 0-1.5-.7-1.5-.8 0-.7 1-.7 1.5 0 1.2.1 1.7.7 1.7s.7-.4.7-1.7zm.8 8.1h-1.1l4.4-11h1.1l-4.4 11zm2.7-3c0-1.6.3-2.8 2.2-2.8s2.2 1.3 2.2 2.8c0 1.8-.5 2.7-2.2 2.7-1.7 0-2.2-.9-2.2-2.7zm2.9-.1c0-.5 0-1.5-.7-1.5-.8 0-.7 1-.7 1.5 0 1.2.1 1.7.7 1.7.6-.1.7-.5.7-1.7z"/><path class="st2" d="M100.8 229.9c0-1.5.2-2.7 1.9-2.7s1.9 1.2 1.9 2.7c0 2.2-.8 2.5-1.9 2.5s-1.9-.3-1.9-2.5zm3-.4c0-1.4-.4-1.7-1.1-1.7-.6 0-1.1.3-1.1 1.7 0 1.6.2 2.2 1.1 2.2s1.1-.5 1.1-2.2zM106.1 227.3v-1c0-1 .7-1.2 1.4-1.2h.4v.6c-.9-.1-1 .3-1 .7v.9h1v.6h-1v4.4h-.8v-4.4h-.8v-.6h.8zM111.7 232.3h-.8v-7.2h.8v7.2zM114 230.1c0 1.4.4 1.7 1 1.7s.8-.5.9-1h.9c0 1.1-.7 1.6-1.8 1.6s-1.9-.3-1.9-2.5c0-1.5.2-2.7 1.9-2.7 1.4 0 1.8.8 1.8 2.5v.4H114zm1.9-.7c0-1.5-.4-1.6-1-1.6-.5 0-.9.2-1 1.6h2zM118.3 227.3v-1c0-1 .7-1.2 1.4-1.2h.4v.6c-.9-.1-1 .3-1 .7v.9h1v.6h-1v4.4h-.8v-4.4h-.8v-.6h.8zM121 227.3v-1l.8-.4v1.3h1.1v.6h-1.1v3.1c0 .3 0 .7.8.7h.4v.6c-.3 0-.5.1-.8.1-.8 0-1.1-.3-1.1-.9v-3.6h-.8v-.6h.7zM123.6 225.1h.9v.9h-.9v-.9zm.9 7.2h-.8v-5h.8v5zM126.7 230.1c0 1.4.4 1.7 1 1.7s.8-.5.9-1h.9c0 1.1-.7 1.6-1.8 1.6s-1.9-.3-1.9-2.5c0-1.5.2-2.7 1.9-2.7 1.4 0 1.8.8 1.8 2.5v.4h-2.8zm2-.7c0-1.5-.4-1.6-1-1.6-.5 0-.9.2-1 1.6h2zM132.4 232.4c-1.1 0-1.8-.5-1.7-1.6h.9c0 .3 0 1 .8 1 .5 0 .9-.2.9-.8 0-.9-2.5-.9-2.5-2.4 0-.5.3-1.4 1.7-1.4.9 0 1.7.4 1.6 1.4h-.9c0-.5-.3-.8-.8-.8-.4 0-.8.2-.8.7 0 .9 2.5.9 2.5 2.4.1 1.1-.7 1.5-1.7 1.5zM140.2 228.9c0-.8-.4-1-.7-1-.6 0-1.1.3-1.1 1.7 0 1.6.2 2.2 1.1 2.2.2 0 .8-.2.7-1.1h.9c0 1.4-1 1.8-1.6 1.8-1.1 0-1.9-.3-1.9-2.5 0-1.5.2-2.7 1.9-2.7 1 0 1.6.6 1.5 1.7h-.8zM142.5 229.9c0-1.5.2-2.7 1.9-2.7s1.9 1.2 1.9 2.7c0 2.2-.8 2.5-1.9 2.5s-1.9-.3-1.9-2.5zm2.9-.4c0-1.4-.4-1.7-1.1-1.7-.6 0-1.1.3-1.1 1.7 0 1.6.2 2.2 1.1 2.2s1.1-.5 1.1-2.2zM150.3 232.3v-3.5c0-.5-.2-1-.9-1-.9 0-1 .8-1 1.5v3h-.8v-4-1h.9v.6c.3-.6.7-.8 1.3-.8 1.1 0 1.3.7 1.3 1.6v3.5h-.8zM154.1 232.4c-1.1 0-1.8-.5-1.7-1.6h.9c0 .3 0 1 .8 1 .5 0 .9-.2.9-.8 0-.9-2.5-.9-2.5-2.4 0-.5.3-1.4 1.7-1.4.9 0 1.7.4 1.6 1.4h-.9c0-.5-.3-.8-.8-.8-.4 0-.8.2-.8.7 0 .9 2.5.9 2.5 2.4 0 1.1-.7 1.5-1.7 1.5zM157 225.1h.9v.9h-.9v-.9zm.8 7.2h-.8v-5h.8v5zM161.9 225.1h.8v7.2h-.8v-.6c-.3.5-.6.7-1.2.7-.8 0-1.6-.3-1.6-2.5 0-1.3 0-2.7 1.7-2.7.5 0 .8.2 1.1.6v-2.7zm-.9 2.7c-.9 0-1 .7-1 2 0 .8 0 1.9 1 1.9.9 0 .9-1.1.9-2.2 0-.6 0-1.7-.9-1.7zM165.1 230.1c0 1.4.4 1.7 1 1.7s.8-.5.9-1h.9c0 1.1-.7 1.6-1.8 1.6s-1.9-.3-1.9-2.5c0-1.5.2-2.7 1.9-2.7 1.4 0 1.8.8 1.8 2.5v.4h-2.8zm1.9-.7c0-1.5-.4-1.6-1-1.6-.5 0-.9.2-1 1.6h2zM170.1 228c.4-.8.8-.9 1.6-.9v.8h-.4c-.9 0-1.1.7-1.1 1.4v3h-.8v-5h.8v.7zM173.4 230.1c0 1.4.4 1.7 1 1.7s.8-.5.9-1h.9c0 1.1-.7 1.6-1.8 1.6s-1.9-.3-1.9-2.5c0-1.5.2-2.7 1.9-2.7 1.4 0 1.8.8 1.8 2.5v.4h-2.8zm2-.7c0-1.5-.4-1.6-1-1.6-.5 0-.9.2-1 1.6h2zM180.3 225.1h.8v7.2h-.8v-.6c-.3.5-.6.7-1.2.7-.8 0-1.6-.3-1.6-2.5 0-1.3 0-2.7 1.7-2.7.5 0 .8.2 1.1.6v-2.7zm-1 2.7c-.9 0-1 .7-1 2 0 .8 0 1.9 1 1.9.9 0 .9-1.1.9-2.2.1-.6 0-1.7-.9-1.7zM184.9 227.3v-1l.8-.4v1.3h1.1v.6h-1.1v3.1c0 .3 0 .7.8.7h.4v.6c-.3 0-.5.1-.8.1-.8 0-1.1-.3-1.1-.9v-3.6h-.8v-.6h.7zM190.3 232.3v-3.4c0-.6-.2-1.1-.9-1.1-.8 0-1 .7-1 1.5v3h-.8v-7.2h.8v2.8c.3-.6.7-.8 1.4-.8.9 0 1.3.4 1.3 1.6v3.6h-.8zM193.4 230.1c0 1.4.4 1.7 1 1.7s.8-.5.9-1h.9c0 1.1-.7 1.6-1.8 1.6s-1.9-.3-1.9-2.5c0-1.5.2-2.7 1.9-2.7 1.4 0 1.8.8 1.8 2.5v.4h-2.8zm2-.7c0-1.5-.4-1.6-1-1.6-.5 0-.9.2-1 1.6h2zM200.1 232.3v-3.5c0-.5-.1-1-.8-1-.2 0-.6.2-.7.3-.2.2-.2.5-.2.7v3.4h-.8v-4-1h.9v.6c.2-.5.7-.7 1.3-.7.5 0 1 .2 1.2.7.3-.5.7-.7 1.2-.7s1.4.1 1.4 1.3v3.8h-.8v-3.5c0-.5-.1-1-.8-1-.3 0-.4 0-.6.2-.2.2-.3.7-.3.9v3.4h-1zM206.3 232.4c-1.1 0-1.8-.5-1.7-1.6h.9c0 .3 0 1 .8 1 .5 0 .9-.2.9-.8 0-.9-2.5-.9-2.5-2.4 0-.5.3-1.4 1.7-1.4.9 0 1.7.4 1.6 1.4h-.9c0-.5-.3-.8-.8-.8-.4 0-.8.2-.8.7 0 .9 2.5.9 2.5 2.4.1 1.1-.7 1.5-1.7 1.5zM210 230.1c0 1.4.4 1.7 1 1.7s.8-.5.9-1h.9c0 1.1-.7 1.6-1.8 1.6s-1.9-.3-1.9-2.5c0-1.5.2-2.7 1.9-2.7 1.4 0 1.8.8 1.8 2.5v.4H210zm2-.7c0-1.5-.4-1.6-1-1.6-.5 0-.9.2-1 1.6h2zM215 232.3h-.8v-7.2h.8v7.2zM215.9 227.3h.9l1.1 4.3 1.2-4.3h.9l-1.6 5h-1.1l-1.4-5zM221.7 230.1c0 1.4.4 1.7 1 1.7s.8-.5.9-1h.9c0 1.1-.7 1.6-1.8 1.6s-1.9-.3-1.9-2.5c0-1.5.2-2.7 1.9-2.7 1.4 0 1.8.8 1.8 2.5v.4h-2.8zm2-.7c0-1.5-.4-1.6-1-1.6-.5 0-.9.2-1 1.6h2zM227.4 232.4c-1.1 0-1.8-.5-1.7-1.6h.9c0 .3 0 1 .8 1 .5 0 .9-.2.9-.8 0-.9-2.5-.9-2.5-2.4 0-.5.3-1.4 1.7-1.4.9 0 1.7.4 1.6 1.4h-.9c0-.5-.3-.8-.8-.8-.4 0-.8.2-.8.7 0 .9 2.5.9 2.5 2.4.1 1.1-.7 1.5-1.7 1.5zM58.2 244.7v-3.5c0-.5-.1-1-.8-1-.2 0-.6.2-.7.3-.1.2-.2.5-.2.7v3.4h-.8v-4-1h.9v.6c.2-.5.7-.7 1.3-.7.5 0 1 .2 1.2.7.3-.5.7-.7 1.2-.7s1.4.1 1.4 1.3v3.8h-.8v-3.5c0-.5-.1-1-.8-1-.3 0-.4 0-.6.2-.2.2-.3.7-.3.9v3.4h-1zM62.8 242.3c0-1.5.2-2.7 1.9-2.7s1.9 1.2 1.9 2.7c0 2.2-.8 2.5-1.9 2.5s-1.9-.3-1.9-2.5zm3-.4c0-1.4-.4-1.7-1.1-1.7-.6 0-1.1.3-1.1 1.7 0 1.6.2 2.2 1.1 2.2s1.1-.5 1.1-2.2zM68.8 240.4c.4-.8.8-.9 1.6-.9v.8H70c-.9 0-1.1.7-1.1 1.4v3h-.8v-5h.8v.7zM72 242.5c0 1.4.4 1.7 1 1.7s.8-.5.9-1h.9c0 1.1-.7 1.6-1.8 1.6s-1.9-.3-1.9-2.5c0-1.5.2-2.7 1.9-2.7 1.4 0 1.8.8 1.8 2.5v.4H72zm2-.7c0-1.5-.4-1.6-1-1.6-.5 0-.9.2-1 1.6h2zM83.5 243.5c0 .4.1.8.1 1.2h-1.7l-.1-.9c-.4.7-.9 1-1.7 1-1.3 0-1.7-.9-1.7-2.1 0-2.2 1.7-2.3 3.4-2.2v-.5c0-.6-.1-1-.7-1s-.7.5-.7 1h-1.8c0-.8.2-1.3.7-1.6.4-.3 1-.4 1.7-.4 2.3 0 2.6 1 2.6 2.2v3.3zm-3.4-.8c0 .5.1 1 .7 1 1.1 0 .9-1.5.9-2.2-.9.1-1.6 0-1.6 1.2zM84.4 238.2h1.8l.9 4.9 1.3-4.9h1.9l1.2 4.9 1-4.9h1.8l-1.8 6.6h-1.9l-1.2-4.5-1.3 4.5H86l-1.6-6.6zM95.1 244.7v-9.4h1.8v5.6l1.7-2.8h1.9l-1.9 2.9 2.1 3.6h-2.1l-1.7-3.6v3.6h-1.8zM101 238.2h1.8l.9 4.9 1.3-4.9h1.9l1.2 4.9 1-4.9h1.8l-1.8 6.6h-1.9l-1.2-4.5-1.3 4.5h-1.9l-1.8-6.6zM116.7 243.5c0 .4.1.8.1 1.2h-1.7l-.1-.9c-.4.7-.9 1-1.7 1-1.3 0-1.7-.9-1.7-2.1 0-2.2 1.7-2.3 3.4-2.2v-.5c0-.6-.1-1-.7-1s-.7.5-.7 1h-1.8c0-.8.2-1.3.7-1.6.4-.3 1-.4 1.7-.4 2.3 0 2.6 1 2.6 2.2v3.3zm-3.4-.8c0 .5.1 1 .7 1 1.1 0 .9-1.5.9-2.2-.9.1-1.6 0-1.6 1.2zM119.9 238.2v.8c.3-.8 1-1 1.7-1v1.6c-1.6-.1-1.6.8-1.6 1.5v3.6h-1.8v-6.6h1.7zM125.8 244.7v-.7c-.3.6-.8.9-1.5.9-1.9 0-1.8-2.1-1.8-3.5 0-1.3-.1-3.4 1.8-3.4.7 0 1.1.2 1.5.8v-3.4h1.8v9.4h-1.8zm-.1-3.3c0-1.3 0-2.2-.7-2.2-.8 0-.8.9-.8 2.2 0 1.7.1 2.3.8 2.3.6 0 .7-.7.7-2.3zM131.1 242.3c0-1.5.2-2.7 1.9-2.7s1.9 1.2 1.9 2.7c0 2.2-.8 2.5-1.9 2.5s-1.9-.3-1.9-2.5zm3-.4c0-1.4-.4-1.7-1.1-1.7-.6 0-1.1.3-1.1 1.7 0 1.6.2 2.2 1.1 2.2s1.1-.5 1.1-2.2zM137.1 240.4c.4-.8.8-.9 1.6-.9v.8h-.4c-.9 0-1.1.7-1.1 1.4v3h-.8v-5h.8v.7zM145.1 240.5c0-1-.2-1.3-.8-1.3-.8 0-.8.7-.8 2.1 0 2 .2 2.4.8 2.4.6 0 .8-.5.8-1.4h1.8c0 1.8-1 2.5-2.7 2.5-2.4 0-2.7-1.4-2.7-3.5 0-1.8.3-3.3 2.7-3.3 1.7 0 2.7.8 2.7 2.5h-1.8zM150.3 235.3v9.4h-1.8v-9.4h1.8zM155.1 244.1c-.2.3-.4.5-.7.6-.3.1-.5.2-.9.2-.9 0-1.6-.5-1.6-1.4v-5.3h1.8v4.6c0 .6.1 1 .7 1s.7-.4.7-1v-4.6h1.8v5.3c0 .4 0 .9.1 1.3h-1.9v-.7zM160.1 238.8c.4-.6.9-.8 1.6-.8.7 0 1.2.3 1.5.8.4-.6.9-.8 1.7-.8.9 0 1.6.5 1.6 1.4v5.3h-1.8v-4.5c0-.6-.1-1-.7-1s-.7.5-.7 1v4.5h-1.8v-4.5c0-.6-.1-1-.7-1s-.7.5-.7 1v4.5h-1.8v-6.6h1.8v.7zM169.2 242.6c0 .3 0 .6.1.8.1.2.3.3.7.3.4 0 .7-.2.7-.7 0-1.4-3.2-1.1-3.2-3.2 0-1.4 1.4-1.8 2.6-1.8 1.2 0 2.4.6 2.3 2h-1.8c0-.5-.1-.7-.2-.8-.1-.1-.3-.1-.5-.1-.4 0-.6.3-.6.7 0 1 3.2 1 3.2 3.1 0 1.1-.9 2-2.5 2s-2.7-.4-2.6-2.2h1.8zM174.7 244.8l-1.8-6.6h1.8l.9 4.6 1-4.6h1.8l-2.5 9H174l.7-2.4zM181.7 239.7v-1l.8-.4v1.3h1.1v.6h-1.1v3.1c0 .3 0 .7.8.7h.4v.6c-.3 0-.5.1-.8.1-.8 0-1.1-.3-1.1-.9v-3.6h-.8v-.6h.7zM187.1 244.7v-3.4c0-.6-.2-1.1-.9-1.1-.8 0-1 .7-1 1.5v3h-.8v-7.2h.8v2.8c.3-.6.7-.8 1.4-.8.9 0 1.3.4 1.3 1.6v3.6h-.8zM191.9 244c-.3.6-.7.8-1.3.8-1.1 0-1.4-.7-1.4-1.7 0-1.5 1.5-1.6 2.6-1.6 0-.7 0-1.4-.8-1.4-.5 0-.8.4-.8.9h-.9c0-1.1.6-1.5 1.7-1.5 1.3 0 1.6.7 1.6 1.5v2.4c0 .4 0 .8.1 1.2h-.9v-.6zm-1.8-.8c0 .5.2.9.8.9.5 0 1.1-.3 1-1.9-.8 0-1.8 0-1.8 1zM197.1 244.7v-3.5c0-.5-.2-1-.9-1-.9 0-1 .8-1 1.5v3h-.8v-4-1h.9v.6c.3-.6.7-.8 1.3-.8 1.1 0 1.3.7 1.3 1.6v3.5h-.8zM204.2 244c-.3.6-.7.8-1.3.8-1.1 0-1.4-.7-1.4-1.7 0-1.5 1.5-1.6 2.6-1.6 0-.7 0-1.4-.8-1.4-.5 0-.8.4-.8.9h-.9c0-1.1.6-1.5 1.7-1.5 1.3 0 1.6.7 1.6 1.5v2.4c0 .4 0 .8.1 1.2h-.9v-.6zm-1.9-.8c0 .5.2.9.8.9.5 0 1.1-.3 1-1.9-.7 0-1.8 0-1.8 1zM206 239.7h.9l1.1 4.3 1.2-4.3h.9l-1.6 5h-1.1l-1.4-5zM211.8 242.5c0 1.4.4 1.7 1 1.7s.8-.5.9-1h.9c0 1.1-.7 1.6-1.8 1.6s-1.9-.3-1.9-2.5c0-1.5.2-2.7 1.9-2.7 1.4 0 1.8.8 1.8 2.5v.4h-2.8zm2-.7c0-1.5-.4-1.6-1-1.6-.5 0-.9.2-1 1.6h2zM216.8 240.4c.4-.8.8-.9 1.6-.9v.8h-.4c-.9 0-1.1.7-1.1 1.4v3h-.9v-5h.8v.7zM221.9 244c-.3.6-.7.8-1.3.8-1.1 0-1.4-.7-1.4-1.7 0-1.5 1.5-1.6 2.6-1.6 0-.7 0-1.4-.8-1.4-.5 0-.8.4-.8.9h-.9c0-1.1.6-1.5 1.7-1.5 1.3 0 1.6.7 1.6 1.5v2.4c0 .4 0 .8.1 1.2h-.9v-.6zm-1.8-.8c0 .5.2.9.8.9.5 0 1.1-.3 1-1.9-.8 0-1.8 0-1.8 1zM227 239.7h.8v5.6c0 1.1-.8 1.4-1.9 1.4-.8 0-1.6-.4-1.5-1.3h.9c0 .5.3.7.8.7.6 0 .9-.3.9-.9v-1c-.2.4-.7.6-1.1.6-1.4 0-1.6-1.2-1.6-2.7 0-2.3 1.2-2.5 1.6-2.5.5 0 1 .2 1.2.7v-.6zm-1 .6c-.9 0-1 1.1-1 1.8 0 1.6.4 2 1 2 1 0 1-1.2 1-1.9 0-.8.1-1.9-1-1.9zM230.1 242.5c0 1.4.4 1.7 1 1.7s.8-.5.9-1h.9c0 1.1-.7 1.6-1.8 1.6s-1.9-.3-1.9-2.5c0-1.5.2-2.7 1.9-2.7 1.4 0 1.8.8 1.8 2.5v.4h-2.8zm2-.7c0-1.5-.4-1.6-1-1.6-.5 0-.9.2-1 1.6h2zM235.2 244.7h-.9v-1h.9v1z"/></g></svg>