<?xml version="1.0" encoding="utf-8"?>
<!-- Generator: Adobe Illustrator 19.2.1, SVG Export Plug-In . SVG Version: 6.00 Build 0)  -->
<!DOCTYPE svg PUBLIC "-//W3C//DTD SVG 1.1//EN" "http://www.w3.org/Graphics/SVG/1.1/DTD/svg11.dtd">
<svg version="1.1" id="Layer_1" xmlns="http://www.w3.org/2000/svg" xmlns:xlink="http://www.w3.org/1999/xlink" x="0px" y="0px"
	 width="195px" height="111.8px" viewBox="0 0 195 111.8" style="enable-background:new 0 0 195 111.8;" xml:space="preserve">
<style type="text/css">
	.Drop_x0020_Shadow{fill:none;}
	.Outer_x0020_Glow_x0020_5_x0020_pt{fill:none;}
	.Blue_x0020_Neon{fill:none;stroke:#8AACDA;stroke-width:7;stroke-linecap:round;stroke-linejoin:round;}
	.Chrome_x0020_Highlight{fill:url(#SVGID_1_);stroke:#FFFFFF;stroke-width:0.3629;stroke-miterlimit:1;}
	.Jive_GS{fill:#FFDD00;}
	.Alyssa_GS{fill:#A6D0E4;}
	.st0{fill:#0A3656;}
	.st1{fill:#ECD177;}
	.st2{fill:#ED5A49;}
	.st3{fill:none;stroke:#0A3656;stroke-width:0.3467;stroke-linecap:round;stroke-linejoin:round;stroke-miterlimit:10;}
	.st4{fill:#ED5A49;stroke:#ED5A49;stroke-width:0.1444;stroke-miterlimit:10;}
	.st5{fill:#E9F5FC;}
	.st6{opacity:0.26;fill:#337D7D;}
	.st7{fill:none;}
	.st8{fill:#DDE8F0;stroke:#DDE8F0;stroke-width:0.5;stroke-miterlimit:10;}
	.st9{fill:none;stroke:#ECD177;stroke-width:0.9;stroke-miterlimit:10;}
	
		.st10{fill:none;stroke:#0A3656;stroke-width:2;stroke-linecap:round;stroke-linejoin:round;stroke-miterlimit:10;stroke-dasharray:0,8;}
	.st11{fill:none;stroke:#ECD177;stroke-width:0.9;stroke-linecap:round;stroke-linejoin:round;stroke-miterlimit:10;}
	.st12{fill:none;stroke:#ECD177;stroke-linecap:round;stroke-linejoin:round;stroke-miterlimit:10;}
</style>
<linearGradient id="SVGID_1_" gradientUnits="userSpaceOnUse" x1="708" y1="182.7779" x2="708" y2="181.7779">
	<stop  offset="0" style="stop-color:#656565"/>
	<stop  offset="0.618" style="stop-color:#1B1B1B"/>
	<stop  offset="0.6292" style="stop-color:#545454"/>
	<stop  offset="0.9831" style="stop-color:#3E3E3E"/>
</linearGradient>
<g id="lefties">
	<path class="st2" d="M169.9,68.5H22.3c-6,0-11-4.9-11-11v0c0-6,4.9-11,11-11h147.6c6,0,11,4.9,11,11v0
		C180.9,63.6,176,68.5,169.9,68.5z"/>
	<path class="st5" d="M46.8,66.7H20.1c-4.8,0-8.8-3.9-8.8-8.8v-0.9c0-4.8,3.9-8.8,8.8-8.8h26.8c4.8,0,8.8,3.9,8.8,8.8V58
		C55.6,62.8,51.7,66.7,46.8,66.7z"/>
	<g>
		<path class="st0" d="M20.2,61.8v-7.5h1.6v6.3h2.4v1.2H20.2z"/>
		<path class="st0" d="M24.8,61.8v-7.5h4.1v1.2h-2.5v1.9h2.3v1.2h-2.3v2.2H29v1.2H24.8z"/>
		<path class="st0" d="M29.9,61.8v-7.5h3.9v1.2h-2.3v1.9h2.2v1.2h-2.2v3.3H29.9z"/>
		<path class="st0" d="M39.1,54.2v1.2h-1.7v6.3h-1.6v-6.3H34v-1.2H39.1z"/>
		<path class="st0" d="M39.8,61.8v-7.5h1.6v7.5H39.8z"/>
		<path class="st0" d="M42.7,61.8v-7.5h4.1v1.2h-2.5v1.9h2.3v1.2h-2.3v2.2h2.6v1.2H42.7z"/>
		<path class="st0" d="M49.9,61.9c-1.9,0-2.3-1.1-2.2-2.4h1.6c0,0.7,0,1.3,0.9,1.3c0.5,0,0.8-0.3,0.8-0.9c0-1.4-3.2-1.4-3.2-3.7
			c0-1.2,0.6-2.1,2.5-2.1c1.5,0,2.3,0.7,2.2,2.3h-1.5c0-0.6-0.1-1.1-0.7-1.1c-0.5,0-0.8,0.3-0.8,0.8c0,1.4,3.2,1.3,3.2,3.7
			C52.5,61.6,51.1,61.9,49.9,61.9z"/>
		<path class="st0" d="M56,53.5c0.7-0.4,1.4-0.9,1.9-1.5h1.9v9.8h-2.1v-7.5c-0.5,0.4-1.1,0.8-1.7,1.1V53.5z"/>
		<path class="st0" d="M67.5,56.8c0,3.1-0.2,5-2.8,5c-2.6,0-2.8-2-2.8-5c0-3.7,0.4-5,2.8-5C67.1,51.8,67.5,53.1,67.5,56.8z
			 M63.8,56.9c0,3,0.1,3.6,0.9,3.6c0.8,0,0.9-0.6,0.9-3.6c0-3,0-3.6-0.9-3.6C63.8,53.3,63.8,53.9,63.8,56.9z"/>
		<path class="st0" d="M68.2,54.6c0-1.5,0.3-2.6,2-2.6s2,1.2,2,2.6c0,1.7-0.4,2.5-2,2.5S68.2,56.3,68.2,54.6z M70.9,54.5
			c0-0.5,0-1.4-0.7-1.4s-0.7,0.9-0.7,1.4c0,1.2,0.1,1.6,0.7,1.6S70.9,55.6,70.9,54.5z M71.6,62h-1l4.1-10.3h1L71.6,62z M74.2,59.2
			c0-1.5,0.3-2.6,2-2.6s2,1.2,2,2.6c0,1.7-0.4,2.5-2,2.5S74.2,60.9,74.2,59.2z M76.9,59.1c0-0.5,0-1.4-0.7-1.4s-0.7,0.9-0.7,1.4
			c0,1.2,0.1,1.6,0.7,1.6S76.9,60.2,76.9,59.1z"/>
	</g>
</g>
<g id="righties">
	<path class="st2" d="M169.9,42.5H22.3c-6,0-11-4.9-11-11v0c0-6,4.9-11,11-11h147.6c6,0,11,4.9,11,11v0
		C180.9,37.6,176,42.5,169.9,42.5z"/>
	<path class="st5" d="M148.7,40.7H20.3c-5.1,0-9.2-4.1-9.2-9.2v0c0-5.1,4.1-9.2,9.2-9.2h128.4c5.1,0,9.2,4.1,9.2,9.2v0
		C157.9,36.6,153.8,40.7,148.7,40.7z"/>
	<g>
		<path class="st0" d="M24.6,36.1h-1.5v-7.4h2.8c1,0,1.7,0.7,1.7,1.9c0,0.9-0.4,1.6-1.4,1.8v0c0.3,0,1.3,0.1,1.3,1.4
			c0,0.5,0,1.9,0.2,2.2h-1.5c-0.2-0.4-0.2-0.9-0.2-1.4c0-0.9,0.1-1.6-1.1-1.6h-0.4V36.1z M24.6,31.9h0.7c0.6,0,0.8-0.6,0.8-1.1
			c0-0.7-0.3-1-0.8-1h-0.7V31.9z"/>
		<path class="st0" d="M28.8,36.1v-7.4h1.5v7.4H28.8z"/>
		<path class="st0" d="M35,31c0-0.7-0.1-1.3-0.9-1.3c-1,0-1,1.3-1,2.7c0,2.3,0.2,2.7,1.1,2.7c0.3,0,0.5-0.1,0.8-0.1v-1.6h-0.8v-1.1
			h2.4V36c-0.4,0.1-1.5,0.2-2.1,0.2c-2.6,0-2.9-1.1-2.9-3.9c0-1.9,0.1-3.7,2.6-3.7c1.5,0,2.4,0.8,2.4,2.4H35z"/>
		<path class="st0" d="M41.2,31.7v-2.9h1.5v7.4h-1.5v-3.3h-1.8v3.3h-1.5v-7.4h1.5v2.9H41.2z"/>
		<path class="st0" d="M48.5,28.7V30h-1.7v6.1h-1.5V30h-1.7v-1.2H48.5z"/>
		<path class="st0" d="M49.2,36.1v-7.4h1.5v7.4H49.2z"/>
		<path class="st0" d="M52,36.1v-7.4h4v1.1h-2.5v1.8h2.3v1.1h-2.3V35h2.6v1.1H52z"/>
		<path class="st0" d="M59.1,36.2c-1.9,0-2.3-1.1-2.2-2.4h1.5c0,0.7,0,1.3,0.9,1.3c0.5,0,0.8-0.3,0.8-0.8c0-1.3-3.1-1.4-3.1-3.6
			c0-1.2,0.6-2.1,2.4-2.1c1.5,0,2.2,0.7,2.1,2.2h-1.5c0-0.6-0.1-1.1-0.7-1.1c-0.5,0-0.8,0.3-0.8,0.8c0,1.4,3.1,1.3,3.1,3.6
			C61.7,36,60.3,36.2,59.1,36.2z"/>
		<path class="st0" d="M66.8,33.8c0,0.3,0,0.5,0.1,0.7c0.1,0.2,0.3,0.3,0.6,0.3c1,0,0.9-0.8,0.9-3.1c-0.4,0.4-1,0.6-1.6,0.6
			c-1.5,0-2.1-1.3-2.1-2.6c0-1.9,0.6-3.5,2.8-3.5c2.9,0,2.9,2.3,2.9,5.1c0,2.4,0,5-2.9,5c-1.7,0-2.7-0.6-2.6-2.4H66.8z M67.5,31
			c0.8,0,0.9-1.1,0.9-1.7c0-0.6,0-1.7-0.9-1.7c-0.9,0-0.9,1.1-0.9,1.7C66.6,29.9,66.6,31,67.5,31z"/>
		<path class="st0" d="M76.5,31.2c0,3.1-0.2,5-2.8,5c-2.6,0-2.8-2-2.8-5c0-3.7,0.4-5,2.8-5C76.1,26.2,76.5,27.4,76.5,31.2z
			 M72.9,31.2c0,3,0.1,3.6,0.9,3.6c0.8,0,0.9-0.6,0.9-3.6c0-3,0-3.6-0.9-3.6C72.9,27.6,72.9,28.2,72.9,31.2z"/>
		<path class="st0" d="M77.3,29c0-1.5,0.3-2.6,2-2.6s2,1.2,2,2.6c0,1.7-0.4,2.5-2,2.5S77.3,30.6,77.3,29z M80,28.8
			c0-0.5,0-1.4-0.7-1.4s-0.7,0.9-0.7,1.4c0,1.2,0.1,1.6,0.7,1.6S80,30,80,28.8z M80.7,36.4h-1l4.1-10.3h1L80.7,36.4z M83.2,33.6
			c0-1.5,0.3-2.6,2-2.6s2,1.2,2,2.6c0,1.7-0.4,2.5-2,2.5S83.2,35.2,83.2,33.6z M85.9,33.4c0-0.5,0-1.4-0.7-1.4s-0.7,0.9-0.7,1.4
			c0,1.2,0.1,1.6,0.7,1.6S85.9,34.6,85.9,33.4z"/>
	</g>
</g>
<g id="ambi">
	<path class="st2" d="M169.9,95.2H22.3c-6,0-11-4.9-11-11v0c0-6,4.9-11,11-11h147.6c6,0,11,4.9,11,11v0
		C180.9,90.3,176,95.2,169.9,95.2z"/>
	<g>
		<path class="st0" d="M21.8,88.8l2-7.4h2l2,7.4h-1.6l-0.4-1.6h-2.1l-0.4,1.6H21.8z M24.8,82.8L24.8,82.8L24,86h1.5L24.8,82.8z"/>
		<path class="st0" d="M28.5,88.8v-7.4H31l1.2,5h0l1.2-5h2.4v7.4h-1.5v-5.7h0l-1.4,5.7h-1.5l-1.3-5.7h0v5.7H28.5z"/>
		<path class="st0" d="M37.1,88.8v-7.4h2.7c1.2,0,2.1,0.3,2.1,1.9c0,0.8-0.4,1.5-1.3,1.6v0c1.1,0.2,1.4,0.9,1.4,1.9
			c0,1.9-1.6,1.9-2.3,1.9H37.1z M38.6,84.4h1c0.3,0,0.8-0.2,0.8-0.9c0-0.5-0.4-0.9-0.9-0.9h-0.9V84.4z M38.6,87.6h0.9
			c0.3,0,1.1,0,1.1-1c0-0.7-0.2-1-1-1h-0.9V87.6z"/>
		<path class="st0" d="M43.3,88.8v-7.4h1.5v7.4H43.3z"/>
		<path class="st0" d="M46.2,81.4h2.6c2,0,2.4,1.3,2.4,3.6c0,1.1,0.2,3.7-2.5,3.7h-2.5V81.4z M47.7,87.6h0.7c0.9,0,1.1-0.7,1.1-2.5
			c0-1.4,0-2.5-1.1-2.5h-0.8V87.6z"/>
		<path class="st0" d="M52.4,88.8v-7.4h4v1.1h-2.5v1.8h2.3v1.1h-2.3v2.2h2.6v1.1H52.4z"/>
		<path class="st0" d="M57,81.4h1.8l1,2.4l1-2.4h1.6l-1.8,3.6l1.9,3.7h-1.7l-1.1-2.5l-1.1,2.5h-1.6l1.9-3.9L57,81.4z"/>
		<path class="st0" d="M67.5,81.4v1.2h-1.7v6.1h-1.5v-6.1h-1.7v-1.2H67.5z"/>
		<path class="st0" d="M69.7,88.8h-1.5v-7.4H71c1,0,1.7,0.7,1.7,1.9c0,0.9-0.4,1.6-1.4,1.8v0c0.3,0,1.3,0.1,1.3,1.4
			c0,0.5,0,1.9,0.2,2.2h-1.5c-0.2-0.4-0.2-0.9-0.2-1.4c0-0.9,0.1-1.6-1.1-1.6h-0.4V88.8z M69.7,84.6h0.7c0.6,0,0.8-0.6,0.8-1.1
			c0-0.7-0.3-1-0.8-1h-0.7V84.6z"/>
		<path class="st0" d="M73.8,85.1c0-1.9,0-3.8,2.5-3.8s2.5,1.9,2.5,3.8c0,1.9,0,3.8-2.5,3.8S73.8,87,73.8,85.1z M77.3,85.1
			c0-1.9-0.1-2.7-1-2.7c-0.9,0-1,0.8-1,2.7s0.1,2.7,1,2.7C77.2,87.8,77.3,87,77.3,85.1z"/>
		<path class="st0" d="M85.1,81.4v5.2c0,1.1-0.6,2.3-2.5,2.3c-1.7,0-2.5-0.9-2.5-2.3v-5.2h1.5v5.1c0,0.9,0.4,1.3,0.9,1.3
			c0.7,0,1-0.4,1-1.3v-5.1H85.1z"/>
		<path class="st0" d="M88.3,88.9c-1.9,0-2.3-1.1-2.2-2.4h1.5c0,0.7,0,1.3,0.9,1.3c0.5,0,0.8-0.3,0.8-0.8c0-1.3-3.1-1.4-3.1-3.6
			c0-1.2,0.6-2.1,2.4-2.1c1.5,0,2.2,0.7,2.1,2.2h-1.5c0-0.6-0.1-1.1-0.7-1.1c-0.5,0-0.8,0.3-0.8,0.8c0,1.4,3.1,1.3,3.1,3.6
			C90.9,88.7,89.5,88.9,88.3,88.9z"/>
		<path class="st0" d="M99.7,79.9c-0.8-0.1-1,0.3-1,1v0.9h0.9v1.2h-0.9v5.9h-2v-5.9h-0.9v-1.2h0.9c0-2-0.2-3.1,2.2-3.1
			c0.2,0,0.5,0,0.7,0V79.9z"/>
		<path class="st0" d="M102.4,85.6c0,0.8,0,2.1,0.9,2.1c0.7,0,0.8-0.7,0.8-1.3h2c0,0.8-0.3,1.4-0.8,1.8c-0.5,0.4-1.2,0.7-2.1,0.7
			c-2.5,0-2.9-1.6-2.9-3.8c0-1.9,0.3-3.6,2.9-3.6c2.7,0,3,1.7,2.9,4H102.4z M104.2,84.5c0-0.7,0-1.7-0.9-1.7c-0.9,0-0.9,1.1-0.9,1.7
			H104.2z"/>
		<path class="st0" d="M106.9,81.7h2l1,5.3h0l1.4-5.3h2l1.2,5.3h0l1.1-5.3h1.9l-1.9,7.1h-2.1l-1.3-4.8h0l-1.4,4.8h-2.1L106.9,81.7z"
			/>
		<path class="st0" d="M120.3,85.6c0,0.8,0,2.1,0.9,2.1c0.7,0,0.8-0.7,0.8-1.3h2c0,0.8-0.3,1.4-0.8,1.8c-0.5,0.4-1.2,0.7-2.1,0.7
			c-2.5,0-2.9-1.6-2.9-3.8c0-1.9,0.3-3.6,2.9-3.6c2.7,0,3,1.7,2.9,4H120.3z M122.1,84.5c0-0.7,0-1.7-0.9-1.7c-0.9,0-0.9,1.1-0.9,1.7
			H122.1z"/>
		<path class="st0" d="M127.3,81.7v0.9h0c0.4-0.8,1-1.1,1.8-1.1v1.8c-1.7-0.1-1.8,0.9-1.8,1.6v3.9h-2v-7.1H127.3z"/>
		<path class="st0" d="M132.4,81.7h0.8v-1.1l2-0.9v2h1v1.2h-1v3.8c0,0.5,0,0.9,0.6,0.9c0.1,0,0.3,0,0.4,0v1.2c-0.3,0-0.5,0.1-1,0.1
			c-1.7,0-1.9-1.1-1.9-1.6v-4.4h-0.8V81.7z"/>
		<path class="st0" d="M140.6,88.8v-4.9c0-0.6-0.1-1.1-0.7-1.1s-0.7,0.5-0.7,1.1v4.9h-2V78.7h2v3.8h0c0.2-0.3,0.4-0.5,0.7-0.7
			c0.3-0.1,0.6-0.2,1-0.2c0.9,0,1.8,0.6,1.8,1.5v5.7H140.6z"/>
		<path class="st0" d="M149.5,87.5c0,0.4,0.1,0.9,0.1,1.3h-1.8l-0.1-0.9h0c-0.4,0.7-1,1.1-1.8,1.1c-1.4,0-1.9-1-1.9-2.3
			c0-2.3,1.8-2.4,3.6-2.4v-0.5c0-0.6-0.1-1-0.8-1c-0.7,0-0.7,0.5-0.7,1.1h-1.9c0-0.9,0.3-1.4,0.7-1.7c0.4-0.3,1.1-0.5,1.8-0.5
			c2.5,0,2.8,1.1,2.8,2.4V87.5z M145.8,86.6c0,0.5,0.1,1.1,0.7,1.1c1.2,0,1-1.6,1-2.3C146.6,85.4,145.8,85.3,145.8,86.6z"/>
		<path class="st0" d="M153.1,82.4L153.1,82.4c0.2-0.3,0.5-0.5,0.7-0.7c0.3-0.1,0.6-0.2,1-0.2c0.9,0,1.8,0.6,1.8,1.5v5.7h-2v-4.9
			c0-0.6-0.1-1.1-0.7-1.1s-0.7,0.5-0.7,1.1v4.9h-2v-7.1h2V82.4z"/>
		<path class="st0" d="M161.1,80.5c0.7-0.4,1.4-0.9,1.9-1.5h1.9v9.8h-2.1v-7.5c-0.5,0.4-1.1,0.8-1.7,1.1V80.5z"/>
		<path class="st0" d="M167.1,81.6c0-1.5,0.3-2.6,2-2.6s2,1.2,2,2.6c0,1.7-0.4,2.5-2,2.5S167.1,83.3,167.1,81.6z M169.8,81.5
			c0-0.5,0-1.4-0.7-1.4s-0.7,0.9-0.7,1.4c0,1.2,0.1,1.6,0.7,1.6S169.8,82.7,169.8,81.5z M170.5,89.1h-1l4.1-10.3h1L170.5,89.1z
			 M173.1,86.3c0-1.5,0.3-2.6,2-2.6s2,1.2,2,2.6c0,1.7-0.4,2.5-2,2.5S173.1,87.9,173.1,86.3z M175.8,86.1c0-0.5,0-1.4-0.7-1.4
			s-0.7,0.9-0.7,1.4c0,1.2,0.1,1.6,0.7,1.6S175.8,87.3,175.8,86.1z"/>
	</g>
	<path class="st5" d="M17.8,90.1L17.8,90.1c-1,0-1.7-0.8-1.7-1.7v-8.1c0-1,0.8-1.7,1.7-1.7h0c1,0,1.7,0.8,1.7,1.7v8.1
		C19.5,89.4,18.7,90.1,17.8,90.1z"/>
</g>
</svg>
