<?xml version="1.0" encoding="utf-8"?>
<!-- Generator: Adobe Illustrator 19.2.1, SVG Export Plug-In . SVG Version: 6.00 Build 0)  -->
<!DOCTYPE svg PUBLIC "-//W3C//DTD SVG 1.1//EN" "http://www.w3.org/Graphics/SVG/1.1/DTD/svg11.dtd">
<svg version="1.1" id="Layer_1" xmlns="http://www.w3.org/2000/svg" xmlns:xlink="http://www.w3.org/1999/xlink" x="0px" y="0px"
	 width="254px" height="108px" viewBox="0 0 254 108" style="enable-background:new 0 0 254 108;" xml:space="preserve">
<style type="text/css">
	.Drop_x0020_Shadow{fill:none;}
	.Outer_x0020_Glow_x0020_5_x0020_pt{fill:none;}
	.Blue_x0020_Neon{fill:none;stroke:#8AACDA;stroke-width:7;stroke-linecap:round;stroke-linejoin:round;}
	.Chrome_x0020_Highlight{fill:url(#SVGID_1_);stroke:#FFFFFF;stroke-width:0.3629;stroke-miterlimit:1;}
	.Jive_GS{fill:#FFDD00;}
	.Alyssa_GS{fill:#A6D0E4;}
	.st0{fill:#0A3656;}
	.st1{fill:#ECD177;}
	.st2{fill:#ED5A49;}
	.st3{fill:none;stroke:#0A3656;stroke-width:0.3467;stroke-linecap:round;stroke-linejoin:round;stroke-miterlimit:10;}
	.st4{fill:#ED5A49;stroke:#ED5A49;stroke-width:0.1444;stroke-miterlimit:10;}
	.st5{fill:#E9F5FC;}
	.st6{opacity:0.26;fill:#337D7D;}
	.st7{fill:none;}
	.st8{fill:#DDE8F0;stroke:#DDE8F0;stroke-width:0.5;stroke-miterlimit:10;}
	.st9{fill:none;stroke:#ECD177;stroke-width:0.9;stroke-miterlimit:10;}
	
		.st10{fill:none;stroke:#0A3656;stroke-width:2;stroke-linecap:round;stroke-linejoin:round;stroke-miterlimit:10;stroke-dasharray:0,8;}
	.st11{fill:none;stroke:#ECD177;stroke-width:0.9;stroke-linecap:round;stroke-linejoin:round;stroke-miterlimit:10;}
	.st12{fill:none;stroke:#ECD177;stroke-linecap:round;stroke-linejoin:round;stroke-miterlimit:10;}
</style>
<linearGradient id="SVGID_1_" gradientUnits="userSpaceOnUse" x1="127" y1="54" x2="127" y2="53">
	<stop  offset="0" style="stop-color:#656565"/>
	<stop  offset="0.618" style="stop-color:#1B1B1B"/>
	<stop  offset="0.6292" style="stop-color:#545454"/>
	<stop  offset="0.9831" style="stop-color:#3E3E3E"/>
</linearGradient>
<g id="blue">
	<g>
		<path class="st0" d="M226.2,67.2c-0.7,0-1.3-0.4-1.5-1.1c-0.4-1.4-1.3-4-2.6-6.3c-2-3.5-7.1-9.7-2.1-20c4.3-8.9,16.2-5.8,18-4.7
			c2.4,1.4,12.6,7.2,5.1,22.1c0,0-3.9,6.2-4.9,9c-0.2,0.6-0.8,1-1.4,1H226.2z"/>
		<path class="st0" d="M237,71.8h-10.4c-0.5,0-0.9-0.4-0.9-0.9l0,0c0-0.5,0.4-0.9,0.9-0.9H237c0.5,0,0.9,0.4,0.9,0.9l0,0
			C237.9,71.4,237.5,71.8,237,71.8z"/>
		<path class="st0" d="M237,75.5h-10.4c-0.5,0-0.9-0.4-0.9-0.9l0,0c0-0.5,0.4-0.9,0.9-0.9H237c0.5,0,0.9,0.4,0.9,0.9l0,0
			C237.9,75.1,237.5,75.5,237,75.5z"/>
		<path class="st0" d="M228,77.4h7.3c0.3,0,0.4,0.3,0.2,0.6l-1.6,1.7c-0.3,0.3-0.7,0.5-1.1,0.5h-2.4c-0.4,0-0.8-0.2-1.1-0.5
			l-1.6-1.6C227.5,77.8,227.7,77.4,228,77.4z"/>
	</g>
	<g>
		<path class="st0" d="M196.5,67.6c-0.7,0-1.3-0.4-1.5-1.1c-0.4-1.4-1.3-4-2.6-6.3c-2-3.5-7.1-9.7-2.1-20c4.3-8.9,16.2-5.8,18-4.7
			c2.4,1.4,12.6,7.2,5.1,22.1c0,0-3.9,6.2-4.9,9c-0.2,0.6-0.8,1-1.4,1H196.5z"/>
		<path class="st0" d="M207.3,72.3h-10.4c-0.5,0-0.9-0.4-0.9-0.9l0,0c0-0.5,0.4-0.9,0.9-0.9h10.4c0.5,0,0.9,0.4,0.9,0.9l0,0
			C208.2,71.8,207.8,72.3,207.3,72.3z"/>
		<path class="st0" d="M207.3,76h-10.4c-0.5,0-0.9-0.4-0.9-0.9l0,0c0-0.5,0.4-0.9,0.9-0.9h10.4c0.5,0,0.9,0.4,0.9,0.9l0,0
			C208.2,75.6,207.8,76,207.3,76z"/>
		<path class="st0" d="M198.3,77.9h7.3c0.3,0,0.4,0.3,0.2,0.6l-1.6,1.7c-0.3,0.3-0.7,0.5-1.1,0.5h-2.4c-0.4,0-0.8-0.2-1.1-0.5
			l-1.6-1.6C197.8,78.3,198,77.9,198.3,77.9z"/>
	</g>
</g>
<g id="yellow">
	<path class="st1" d="M208.9,74.5c-1.1,0-2.1-0.7-2.4-1.8c-0.7-2.3-2.1-6.4-4.2-10.1c-3.2-5.5-11.3-15.6-3.4-31.9
		c6.9-14.2,25.9-9.3,28.9-7.6c3.8,2.2,20.1,11.6,8.2,35.3c0,0-6.2,10-7.8,14.5c-0.3,1-1.3,1.6-2.3,1.6H208.9z"/>
	<path class="st1" d="M226.2,81.8h-16.6c-0.8,0-1.4-0.7-1.4-1.4v0c0-0.8,0.7-1.4,1.4-1.4h16.6c0.8,0,1.4,0.7,1.4,1.4v0
		C227.6,81.2,227,81.8,226.2,81.8z"/>
	<path class="st1" d="M226.2,87.8h-16.6c-0.8,0-1.4-0.7-1.4-1.4v0c0-0.8,0.7-1.4,1.4-1.4h16.6c0.8,0,1.4,0.7,1.4,1.4v0
		C227.6,87.1,227,87.8,226.2,87.8z"/>
	<path class="st1" d="M211.8,90.8h11.8c0.5,0,0.7,0.5,0.4,0.9l-2.5,2.8c-0.5,0.5-1.1,0.8-1.8,0.8h-3.8c-0.7,0-1.3-0.3-1.8-0.8
		l-2.6-2.6C210.9,91.5,211.2,90.8,211.8,90.8z"/>
</g>
<g>
	<path class="st0" d="M12.1,51.4h1.2l2.3,7.2h-1l-0.5-1.7h-2.8l-0.5,1.7H9.9L12.1,51.4z M12.7,52.3L12.7,52.3l-1.1,3.8h2.3
		L12.7,52.3z"/>
	<path class="st0" d="M21.2,58.7v-3.5c0-0.5-0.1-1-0.8-1c-0.2,0-0.6,0.1-0.7,0.3c-0.2,0.2-0.2,0.5-0.2,0.7v3.4h-0.8v-4
		c0-0.4,0-0.7,0-1h0.9v0.6h0c0.2-0.5,0.7-0.7,1.3-0.7c0.5,0,1,0.2,1.2,0.6c0.3-0.5,0.7-0.6,1.2-0.6c0.5,0,1.4,0.1,1.4,1.3v3.8h-0.8
		v-3.5c0-0.5-0.1-1-0.8-1c-0.3,0-0.4,0-0.6,0.2c-0.2,0.2-0.3,0.7-0.3,0.9v3.4H21.2z"/>
	<path class="st0" d="M28.6,57.9L28.6,57.9c-0.3,0.6-0.7,0.8-1.3,0.8c-1.1,0-1.4-0.7-1.4-1.7c0-1.5,1.5-1.6,2.6-1.6
		c0-0.7,0-1.4-0.8-1.4c-0.5,0-0.8,0.4-0.8,0.9H26c0-1.1,0.6-1.5,1.7-1.5c1.3,0,1.6,0.7,1.6,1.5v2.4c0,0.4,0,0.8,0.1,1.2h-0.9V57.9z
		 M26.7,57.2c0,0.5,0.2,0.9,0.8,0.9c0.5,0,1.1-0.3,1-1.9C27.8,56.2,26.7,56.1,26.7,57.2z"/>
	<path class="st0" d="M31,53.6h0.8v5.7c0,0.8-0.2,1.2-1.4,1.2v-0.7c0.3,0,0.6-0.1,0.6-0.5V53.6z M30.9,51.4h0.9v0.9h-0.9V51.4z"/>
	<path class="st0" d="M33.1,56.2c0-1.5,0.2-2.7,1.9-2.7s1.9,1.2,1.9,2.7c0,2.2-0.8,2.5-1.9,2.5S33.1,58.4,33.1,56.2z M36,55.9
		c0-1.4-0.4-1.7-1.1-1.7c-0.6,0-1.1,0.3-1.1,1.7c0,1.6,0.2,2.2,1.1,2.2S36,57.5,36,55.9z"/>
	<path class="st0" d="M39,54.4L39,54.4c0.4-0.8,0.8-0.9,1.6-0.9v0.8c-0.1,0-0.2,0-0.2,0c-0.1,0-0.1,0-0.2,0c-0.9,0-1.1,0.7-1.1,1.4
		v3h-0.8v-5H39V54.4z"/>
	<path class="st0" d="M41.5,51.4h0.9v0.9h-0.9V51.4z M42.3,58.7h-0.8v-5h0.8V58.7z"/>
	<path class="st0" d="M43.8,53.6v-1l0.8-0.4v1.3h1.1v0.6h-1.1v3.1c0,0.3,0,0.7,0.8,0.7c0.1,0,0.2,0,0.4,0v0.6
		c-0.3,0-0.5,0.1-0.8,0.1c-0.8,0-1.1-0.3-1.1-0.9v-3.6H43v-0.6H43.8z"/>
	<path class="st0" d="M48,57.7L48,57.7l1.2-4.1h0.9l-2.3,7H47l0.6-1.9l-1.7-5h0.9L48,57.7z"/>
	<path class="st0" d="M53,56.2c0-1.5,0.2-2.7,1.9-2.7s1.9,1.2,1.9,2.7c0,2.2-0.8,2.5-1.9,2.5S53,58.4,53,56.2z M56,55.9
		c0-1.4-0.4-1.7-1.1-1.7c-0.6,0-1.1,0.3-1.1,1.7c0,1.6,0.2,2.2,1.1,2.2S56,57.5,56,55.9z"/>
	<path class="st0" d="M58.3,53.6v-1c0-1,0.7-1.2,1.4-1.2c0.2,0,0.3,0,0.4,0V52c-0.9-0.1-1,0.3-1,0.7v0.9h1v0.6h-1v4.4h-0.8v-4.4
		h-0.8v-0.6H58.3z"/>
	<path class="st0" d="M64,58.7h-0.8v-7.2H64V58.7z"/>
	<path class="st0" d="M66.2,56.4c0,1.4,0.4,1.7,1,1.7c0.6,0,0.8-0.4,0.9-1H69c0,1.1-0.7,1.6-1.8,1.6c-1.1,0-1.9-0.3-1.9-2.5
		c0-1.5,0.2-2.7,1.9-2.7c1.4,0,1.8,0.8,1.8,2.5v0.4H66.2z M68.2,55.8c0-1.5-0.4-1.6-1-1.6c-0.5,0-0.9,0.2-1,1.6H68.2z"/>
	<path class="st0" d="M70.5,53.6v-1c0-1,0.7-1.2,1.4-1.2c0.2,0,0.3,0,0.4,0V52c-0.9-0.1-1,0.3-1,0.7v0.9h1v0.6h-1v4.4h-0.8v-4.4
		h-0.8v-0.6H70.5z"/>
	<path class="st0" d="M73.3,53.6v-1l0.8-0.4v1.3h1.1v0.6h-1.1v3.1c0,0.3,0,0.7,0.8,0.7c0.1,0,0.2,0,0.4,0v0.6
		c-0.3,0-0.5,0.1-0.8,0.1c-0.8,0-1.1-0.3-1.1-0.9v-3.6h-0.8v-0.6H73.3z"/>
	<path class="st0" d="M80.9,58.7v-3.4c0-0.6-0.2-1.1-0.9-1.1c-0.8,0-1,0.7-1,1.5v3h-0.8v-7.2H79v2.8h0c0.3-0.6,0.7-0.7,1.4-0.7
		c0.9,0,1.3,0.4,1.3,1.6v3.6H80.9z"/>
	<path class="st0" d="M85.8,57.9L85.8,57.9c-0.3,0.6-0.7,0.8-1.3,0.8c-1.1,0-1.4-0.7-1.4-1.7c0-1.5,1.5-1.6,2.6-1.6
		c0-0.7,0-1.4-0.8-1.4c-0.5,0-0.8,0.4-0.8,0.9h-0.9c0-1.1,0.6-1.5,1.7-1.5c1.3,0,1.6,0.7,1.6,1.5v2.4c0,0.4,0,0.8,0.1,1.2h-0.9V57.9
		z M83.9,57.2c0,0.5,0.2,0.9,0.8,0.9c0.5,0,1.1-0.3,1-1.9C85,56.2,83.9,56.1,83.9,57.2z"/>
	<path class="st0" d="M90.9,58.7v-3.5c0-0.5-0.2-1-0.9-1c-0.9,0-1,0.8-1,1.5v3h-0.8v-4c0-0.4,0-0.7,0-1H89v0.6h0
		c0.3-0.6,0.7-0.7,1.3-0.7c1.1,0,1.3,0.6,1.3,1.6v3.5H90.9z"/>
	<path class="st0" d="M95.8,51.4h0.8v7.2h-0.8v-0.6h0c-0.3,0.5-0.6,0.7-1.2,0.7c-0.8,0-1.6-0.3-1.6-2.5c0-1.3,0-2.7,1.7-2.7
		c0.5,0,0.8,0.2,1.1,0.6h0V51.4z M94.9,54.2c-0.9,0-1,0.7-1,2c0,0.8,0,1.9,1,1.9c0.9,0,0.9-1.1,0.9-2.2
		C95.8,55.3,95.8,54.2,94.9,54.2z"/>
	<path class="st0" d="M99,56.4c0,1.4,0.4,1.7,1,1.7c0.6,0,0.8-0.4,0.9-1h0.9c0,1.1-0.7,1.6-1.8,1.6c-1.1,0-1.9-0.3-1.9-2.5
		c0-1.5,0.2-2.7,1.9-2.7c1.4,0,1.8,0.8,1.8,2.5v0.4H99z M100.9,55.8c0-1.5-0.4-1.6-1-1.6c-0.5,0-0.9,0.2-1,1.6H100.9z"/>
	<path class="st0" d="M104,54.4L104,54.4c0.4-0.8,0.8-0.9,1.6-0.9v0.8c-0.1,0-0.2,0-0.2,0c-0.1,0-0.1,0-0.2,0
		c-0.9,0-1.1,0.7-1.1,1.4v3h-0.8v-5h0.8V54.4z"/>
	<path class="st0" d="M108,58.8c-1.1,0-1.8-0.5-1.7-1.6h0.9c0,0.3,0,1,0.8,1c0.5,0,0.9-0.2,0.9-0.8c0-0.9-2.5-0.9-2.5-2.4
		c0-0.5,0.3-1.4,1.7-1.4c0.9,0,1.7,0.4,1.6,1.4h-0.9c0-0.5-0.3-0.8-0.8-0.8c-0.4,0-0.8,0.2-0.8,0.7c0,0.9,2.5,0.9,2.5,2.4
		C109.8,58.3,109,58.8,108,58.8z"/>
	<path class="st0" d="M115.8,57.9L115.8,57.9c-0.3,0.6-0.7,0.8-1.3,0.8c-1.1,0-1.4-0.7-1.4-1.7c0-1.5,1.5-1.6,2.6-1.6
		c0-0.7,0-1.4-0.8-1.4c-0.5,0-0.8,0.4-0.8,0.9h-0.9c0-1.1,0.6-1.5,1.7-1.5c1.3,0,1.6,0.7,1.6,1.5v2.4c0,0.4,0,0.8,0.1,1.2h-0.9V57.9
		z M113.9,57.2c0,0.5,0.2,0.9,0.8,0.9c0.5,0,1.1-0.3,1-1.9C115,56.2,113.9,56.1,113.9,57.2z"/>
	<path class="st0" d="M119,58.7h-0.8v-7.2h0.8V58.7z"/>
	<path class="st0" d="M121.9,58.8c-1.1,0-1.8-0.5-1.7-1.6h0.9c0,0.3,0,1,0.8,1c0.5,0,0.9-0.2,0.9-0.8c0-0.9-2.5-0.9-2.5-2.4
		c0-0.5,0.3-1.4,1.7-1.4c0.9,0,1.7,0.4,1.6,1.4h-0.9c0-0.5-0.3-0.8-0.8-0.8c-0.4,0-0.8,0.2-0.8,0.7c0,0.9,2.5,0.9,2.5,2.4
		C123.6,58.3,122.9,58.8,121.9,58.8z"/>
	<path class="st0" d="M124.7,56.2c0-1.5,0.2-2.7,1.9-2.7s1.9,1.2,1.9,2.7c0,2.2-0.8,2.5-1.9,2.5S124.7,58.4,124.7,56.2z M127.7,55.9
		c0-1.4-0.4-1.7-1.1-1.7c-0.6,0-1.1,0.3-1.1,1.7c0,1.6,0.2,2.2,1.1,2.2S127.7,57.5,127.7,55.9z"/>
	<path class="st0" d="M134.7,55.2c0-0.8-0.4-1-0.7-1c-0.6,0-1.1,0.3-1.1,1.7c0,1.6,0.2,2.2,1.1,2.2c0.2,0,0.8-0.2,0.7-1.1h0.9
		c0,1.4-1,1.8-1.6,1.8c-1.1,0-1.9-0.3-1.9-2.5c0-1.5,0.2-2.7,1.9-2.7c1,0,1.6,0.6,1.5,1.7H134.7z"/>
	<path class="st0" d="M136.9,56.2c0-1.5,0.2-2.7,1.9-2.7s1.9,1.2,1.9,2.7c0,2.2-0.8,2.5-1.9,2.5S136.9,58.4,136.9,56.2z M139.9,55.9
		c0-1.4-0.4-1.7-1.1-1.7c-0.6,0-1.1,0.3-1.1,1.7c0,1.6,0.2,2.2,1.1,2.2S139.9,57.5,139.9,55.9z"/>
	<path class="st0" d="M144.8,58.7v-3.5c0-0.5-0.2-1-0.9-1c-0.9,0-1,0.8-1,1.5v3H142v-4c0-0.4,0-0.7,0-1h0.9v0.6h0
		c0.3-0.6,0.7-0.7,1.3-0.7c1.1,0,1.3,0.6,1.3,1.6v3.5H144.8z"/>
	<path class="st0" d="M148.5,58.8c-1.1,0-1.8-0.5-1.7-1.6h0.9c0,0.3,0,1,0.8,1c0.5,0,0.9-0.2,0.9-0.8c0-0.9-2.5-0.9-2.5-2.4
		c0-0.5,0.3-1.4,1.7-1.4c0.9,0,1.7,0.4,1.6,1.4h-0.9c0-0.5-0.3-0.8-0.8-0.8c-0.4,0-0.8,0.2-0.8,0.7c0,0.9,2.5,0.9,2.5,2.4
		C150.3,58.3,149.5,58.8,148.5,58.8z"/>
	<path class="st0" d="M151.4,51.4h0.9v0.9h-0.9V51.4z M152.3,58.7h-0.8v-5h0.8V58.7z"/>
	<path class="st0" d="M156.4,51.4h0.8v7.2h-0.8v-0.6h0c-0.3,0.5-0.6,0.7-1.2,0.7c-0.8,0-1.6-0.3-1.6-2.5c0-1.3,0-2.7,1.7-2.7
		c0.5,0,0.8,0.2,1.1,0.6h0V51.4z M155.4,54.2c-0.9,0-1,0.7-1,2c0,0.8,0,1.9,1,1.9c0.9,0,0.9-1.1,0.9-2.2
		C156.4,55.3,156.3,54.2,155.4,54.2z"/>
	<path class="st0" d="M159.5,56.4c0,1.4,0.4,1.7,1,1.7c0.6,0,0.8-0.4,0.9-1h0.9c0,1.1-0.7,1.6-1.8,1.6c-1.1,0-1.9-0.3-1.9-2.5
		c0-1.5,0.2-2.7,1.9-2.7c1.4,0,1.8,0.8,1.8,2.5v0.4H159.5z M161.5,55.8c0-1.5-0.4-1.6-1-1.6c-0.5,0-0.9,0.2-1,1.6H161.5z"/>
	<path class="st0" d="M164.6,54.4L164.6,54.4c0.4-0.8,0.8-0.9,1.6-0.9v0.8c-0.1,0-0.2,0-0.2,0c-0.1,0-0.1,0-0.2,0
		c-0.9,0-1.1,0.7-1.1,1.4v3h-0.8v-5h0.8V54.4z"/>
	<path class="st0" d="M167.8,56.4c0,1.4,0.4,1.7,1,1.7c0.6,0,0.8-0.4,0.9-1h0.9c0,1.1-0.7,1.6-1.8,1.6c-1.1,0-1.9-0.3-1.9-2.5
		c0-1.5,0.2-2.7,1.9-2.7c1.4,0,1.8,0.8,1.8,2.5v0.4H167.8z M169.8,55.8c0-1.5-0.4-1.6-1-1.6c-0.5,0-0.9,0.2-1,1.6H169.8z"/>
	<path class="st0" d="M174.7,51.4h0.8v7.2h-0.8v-0.6h0c-0.3,0.5-0.6,0.7-1.2,0.7c-0.8,0-1.6-0.3-1.6-2.5c0-1.3,0-2.7,1.7-2.7
		c0.5,0,0.8,0.2,1.1,0.6h0V51.4z M173.8,54.2c-0.9,0-1,0.7-1,2c0,0.8,0,1.9,1,1.9c0.9,0,0.9-1.1,0.9-2.2
		C174.7,55.3,174.7,54.2,173.8,54.2z"/>
	<path class="st0" d="M10.5,68v-1l0.8-0.4V68h1.1v0.6h-1.1v3.1c0,0.3,0,0.7,0.8,0.7c0.1,0,0.2,0,0.4,0V73c-0.3,0-0.5,0.1-0.8,0.1
		c-0.8,0-1.1-0.3-1.1-0.9v-3.6H9.7V68H10.5z"/>
	<path class="st0" d="M15.9,73.1v-3.4c0-0.6-0.2-1.1-0.9-1.1c-0.8,0-1,0.7-1,1.5v3h-0.8v-7.2H14v2.8h0c0.3-0.6,0.7-0.7,1.4-0.7
		c0.9,0,1.3,0.4,1.3,1.6v3.6H15.9z"/>
	<path class="st0" d="M19,70.8c0,1.4,0.4,1.7,1,1.7c0.6,0,0.8-0.4,0.9-1h0.9c0,1.1-0.7,1.6-1.8,1.6c-1.1,0-1.9-0.3-1.9-2.5
		c0-1.5,0.2-2.7,1.9-2.7c1.4,0,1.8,0.8,1.8,2.5v0.4H19z M21,70.2c0-1.5-0.4-1.6-1-1.6c-0.5,0-0.9,0.2-1,1.6H21z"/>
	<path class="st0" d="M25.7,73.1v-3.5c0-0.5-0.1-1-0.8-1c-0.2,0-0.6,0.1-0.7,0.3C24,69.2,24,69.5,24,69.7v3.4h-0.8v-4
		c0-0.3,0-0.7,0-1H24v0.6h0c0.2-0.5,0.7-0.7,1.3-0.7c0.5,0,1,0.2,1.2,0.6c0.3-0.5,0.7-0.6,1.2-0.6c0.5,0,1.4,0.1,1.4,1.3v3.8h-0.8
		v-3.5c0-0.5-0.1-1-0.8-1c-0.3,0-0.4,0-0.6,0.2c-0.2,0.2-0.3,0.7-0.3,0.9v3.4H25.7z"/>
	<path class="st0" d="M31.9,73.2c-1.1,0-1.8-0.5-1.7-1.6h0.9c0,0.3,0,1,0.8,1c0.5,0,0.9-0.2,0.9-0.8c0-0.9-2.5-0.9-2.5-2.4
		c0-0.5,0.3-1.4,1.7-1.4c0.9,0,1.7,0.4,1.6,1.4h-0.9c0-0.5-0.3-0.8-0.8-0.8c-0.4,0-0.8,0.2-0.8,0.7c0,0.9,2.5,0.9,2.5,2.4
		C33.7,72.7,32.9,73.2,31.9,73.2z"/>
	<path class="st0" d="M35.7,70.8c0,1.4,0.4,1.7,1,1.7c0.6,0,0.8-0.4,0.9-1h0.9c0,1.1-0.7,1.6-1.8,1.6c-1.1,0-1.9-0.3-1.9-2.5
		c0-1.5,0.2-2.7,1.9-2.7c1.4,0,1.8,0.8,1.8,2.5v0.4H35.7z M37.6,70.2c0-1.5-0.4-1.6-1-1.6c-0.5,0-0.9,0.2-1,1.6H37.6z"/>
	<path class="st0" d="M40.7,73.1h-0.8v-7.2h0.8V73.1z"/>
	<path class="st0" d="M41.5,68h0.9l1.1,4.3h0l1.2-4.3h0.9l-1.6,5H43L41.5,68z"/>
	<path class="st0" d="M47.3,70.8c0,1.4,0.4,1.7,1,1.7c0.6,0,0.8-0.4,0.9-1h0.9c0,1.1-0.7,1.6-1.8,1.6c-1.1,0-1.9-0.3-1.9-2.5
		c0-1.5,0.2-2.7,1.9-2.7c1.4,0,1.8,0.8,1.8,2.5v0.4H47.3z M49.3,70.2c0-1.5-0.4-1.6-1-1.6c-0.5,0-0.9,0.2-1,1.6H49.3z"/>
	<path class="st0" d="M53,73.2c-1.1,0-1.8-0.5-1.7-1.6h0.9c0,0.3,0,1,0.8,1c0.5,0,0.9-0.2,0.9-0.8c0-0.9-2.5-0.9-2.5-2.4
		c0-0.5,0.3-1.4,1.7-1.4c0.9,0,1.7,0.4,1.6,1.4h-0.9c0-0.5-0.3-0.8-0.8-0.8c-0.4,0-0.8,0.2-0.8,0.7c0,0.9,2.5,0.9,2.5,2.4
		C54.8,72.7,54,73.2,53,73.2z"/>
	<path class="st0" d="M60.3,66.3L60.3,66.3c0.5-0.7,1-0.9,1.8-0.9c0.8,0,1.4,0.4,1.7,1c0.5-0.7,1.1-1,2-1c1,0,1.9,0.6,1.9,1.6v6.1
		h-2.1v-5.2c0-0.7-0.1-1.2-0.8-1.2c-0.7,0-0.8,0.5-0.8,1.2v5.2h-2.1v-5.2c0-0.7-0.1-1.2-0.8-1.2s-0.8,0.5-0.8,1.2v5.2h-2.1v-7.6h2.1
		V66.3z"/>
	<path class="st0" d="M69,69.2c0-2.1,0.3-3.8,3.1-3.8s3.1,1.8,3.1,3.8c0,2.4-0.4,4-3.1,4C69.3,73.2,69,71.5,69,69.2z M73,69.1
		c0-1.6-0.1-2.4-1-2.4c-0.9,0-1,0.8-1,2.4c0,2.3,0.2,2.8,1,2.8S73,71.4,73,69.1z"/>
	<path class="st0" d="M78.6,65.5v1h0c0.4-0.9,1.1-1.1,2-1.1v1.9c-1.9-0.1-1.9,1-1.9,1.7v4.1h-2.1v-7.6H78.6z"/>
	<path class="st0" d="M83.6,69.6c0,0.9,0,2.2,1,2.2c0.8,0,0.9-0.7,0.9-1.3h2.1c0,0.8-0.3,1.5-0.8,2c-0.5,0.5-1.2,0.7-2.2,0.7
		c-2.7,0-3.1-1.7-3.1-4c0-2.1,0.3-3.8,3.1-3.8c2.8,0,3.2,1.8,3.1,4.3H83.6z M85.5,68.4c0-0.7,0-1.8-1-1.8c-1,0-1,1.1-1,1.8H85.5z"/>
	<path class="st0" d="M94.8,62.2v1.7h-2.1v-1.7H94.8z M94.8,73.1h-2.1v-7.6h2.1V73.1z"/>
	<path class="st0" d="M98.7,66.3L98.7,66.3c0.2-0.3,0.5-0.6,0.8-0.7c0.3-0.1,0.6-0.2,1-0.2c1,0,1.9,0.6,1.9,1.6v6.1h-2.1v-5.2
		c0-0.7-0.1-1.2-0.8-1.2s-0.8,0.5-0.8,1.2v5.2h-2.1v-7.6h2.1V66.3z"/>
	<path class="st0" d="M103.3,65.5h0.9v-1.2l2.1-0.9v2.1h1.1v1.3h-1.1v4c0,0.6,0,0.9,0.7,0.9c0.1,0,0.3,0,0.4,0v1.3
		c-0.3,0-0.6,0.1-1.1,0.1c-1.8,0-2.1-1.2-2.1-1.7v-4.7h-0.9V65.5z"/>
	<path class="st0" d="M110.2,69.6c0,0.9,0,2.2,1,2.2c0.8,0,0.9-0.7,0.9-1.3h2.1c0,0.8-0.3,1.5-0.8,2c-0.5,0.5-1.2,0.7-2.2,0.7
		c-2.7,0-3.1-1.7-3.1-4c0-2.1,0.3-3.8,3.1-3.8c2.8,0,3.2,1.8,3.1,4.3H110.2z M112.2,68.4c0-0.7,0-1.8-1-1.8c-1,0-1,1.1-1,1.8H112.2z
		"/>
	<path class="st0" d="M118.1,62.2v10.8H116V62.2H118.1z"/>
	<path class="st0" d="M122.3,62.2v10.8h-2.1V62.2H122.3z"/>
	<path class="st0" d="M126.4,62.2v1.7h-2.1v-1.7H126.4z M126.4,73.1h-2.1v-7.6h2.1V73.1z"/>
	<path class="st0" d="M134.1,65.5v7.9c0,0.5,0,2.6-2.9,2.6c-1.6,0-2.9-0.4-3-2.2h2.1c0,0.3,0,0.6,0.2,0.8c0.1,0.2,0.4,0.3,0.7,0.3
		c0.5,0,0.8-0.5,0.8-1.3v-1.5h0c-0.3,0.6-0.9,0.9-1.6,0.9c-2.3,0-2.2-2.1-2.2-3.8c0-1.7,0-3.8,2.2-3.8c0.8,0,1.4,0.3,1.7,1h0v-0.9
		H134.1z M131.1,71.6c0.8,0,0.9-0.8,0.9-2.4c0-1.7-0.1-2.6-0.9-2.6c-0.8,0-0.9,0.6-0.9,2.9C130.2,70.2,130.1,71.6,131.1,71.6z"/>
	<path class="st0" d="M137.8,69.6c0,0.9,0,2.2,1,2.2c0.8,0,0.9-0.7,0.9-1.3h2.1c0,0.8-0.3,1.5-0.8,2c-0.5,0.5-1.2,0.7-2.2,0.7
		c-2.7,0-3.1-1.7-3.1-4c0-2.1,0.3-3.8,3.1-3.8c2.8,0,3.2,1.8,3.1,4.3H137.8z M139.7,68.4c0-0.7,0-1.8-1-1.8c-1,0-1,1.1-1,1.8H139.7z
		"/>
	<path class="st0" d="M145.4,66.3L145.4,66.3c0.2-0.3,0.5-0.6,0.8-0.7c0.3-0.1,0.6-0.2,1-0.2c1,0,1.9,0.6,1.9,1.6v6.1H147v-5.2
		c0-0.7-0.1-1.2-0.8-1.2s-0.8,0.5-0.8,1.2v5.2h-2.1v-7.6h2.1V66.3z"/>
	<path class="st0" d="M150,65.5h0.9v-1.2l2.1-0.9v2.1h1.1v1.3h-1.1v4c0,0.6,0,0.9,0.7,0.9c0.1,0,0.3,0,0.4,0v1.3
		c-0.3,0-0.6,0.1-1.1,0.1c-1.8,0-2.1-1.2-2.1-1.7v-4.7H150V65.5z"/>
	<path class="st0" d="M159.7,72.3L159.7,72.3c-0.3,0.6-0.7,0.8-1.3,0.8c-1.1,0-1.4-0.7-1.4-1.7c0-1.5,1.5-1.6,2.6-1.6
		c0-0.7,0-1.4-0.8-1.4c-0.5,0-0.8,0.4-0.8,0.9h-0.9c0-1.1,0.6-1.5,1.7-1.5c1.3,0,1.6,0.7,1.6,1.5v2.4c0,0.4,0,0.8,0.1,1.2h-0.9V72.3
		z M157.8,71.6c0,0.5,0.2,0.9,0.8,0.9c0.5,0,1.1-0.3,1-1.9C158.9,70.6,157.8,70.5,157.8,71.6z"/>
	<path class="st0" d="M164.8,73.1v-3.5c0-0.5-0.2-1-0.9-1c-0.9,0-1,0.8-1,1.5v3h-0.8v-4c0-0.3,0-0.7,0-1h0.9v0.6h0
		c0.3-0.6,0.7-0.7,1.3-0.7c1.1,0,1.3,0.6,1.3,1.6v3.5H164.8z"/>
	<path class="st0" d="M169.7,65.8h0.8v7.2h-0.8v-0.6h0c-0.3,0.5-0.6,0.7-1.2,0.7c-0.8,0-1.6-0.3-1.6-2.5c0-1.3,0-2.7,1.7-2.7
		c0.5,0,0.8,0.2,1.1,0.6h0V65.8z M168.8,68.6c-0.9,0-1,0.7-1,2c0,0.8,0,1.9,1,1.9c0.9,0,0.9-1.1,0.9-2.2
		C169.7,69.7,169.7,68.6,168.8,68.6z"/>
	<path class="st0" d="M12.5,80.7L12.5,80.7c0.5-0.7,1-0.9,1.8-0.9c0.8,0,1.4,0.4,1.7,1c0.5-0.7,1.1-1,2-1c1,0,1.9,0.6,1.9,1.6v6.1
		h-2.1v-5.2c0-0.7-0.1-1.2-0.8-1.2c-0.7,0-0.8,0.5-0.8,1.2v5.2h-2.1v-5.2c0-0.7-0.1-1.2-0.8-1.2s-0.8,0.5-0.8,1.2v5.2h-2.1v-7.6h2.1
		V80.7z"/>
	<path class="st0" d="M21.2,83.6c0-2.1,0.3-3.8,3.1-3.8s3.1,1.8,3.1,3.8c0,2.4-0.4,4-3.1,4C21.6,87.6,21.2,85.9,21.2,83.6z
		 M25.3,83.5c0-1.6-0.1-2.4-1-2.4c-0.9,0-1,0.8-1,2.4c0,2.3,0.2,2.8,1,2.8S25.3,85.8,25.3,83.5z"/>
	<path class="st0" d="M30.9,79.9v1h0c0.4-0.9,1.1-1.1,2-1.1v1.9c-1.9-0.1-1.9,1-1.9,1.7v4.1h-2.1v-7.6H30.9z"/>
	<path class="st0" d="M35.8,84c0,0.9,0,2.2,1,2.2c0.8,0,0.9-0.7,0.9-1.4h2.1c0,0.8-0.3,1.5-0.8,2c-0.5,0.5-1.2,0.7-2.2,0.7
		c-2.7,0-3.1-1.7-3.1-4c0-2.1,0.3-3.8,3.1-3.8c2.8,0,3.2,1.8,3.1,4.3H35.8z M37.8,82.8c0-0.7,0-1.8-1-1.8c-1,0-1,1.1-1,1.8H37.8z"/>
	<path class="st0" d="M48.6,82.6c0-1.1-0.3-1.5-0.9-1.5c-0.9,0-1,0.8-1,2.4c0,2.3,0.2,2.8,1,2.8c0.7,0,1-0.6,1-1.6h2.1
		c0,2.1-1.1,2.9-3.1,2.9c-2.7,0-3.1-1.7-3.1-4c0-2.1,0.3-3.8,3.1-3.8c2,0,3.1,0.9,3.1,2.8H48.6z"/>
	<path class="st0" d="M54.2,79.9v1h0c0.4-0.9,1.1-1.1,2-1.1v1.9c-1.9-0.1-1.9,1-1.9,1.7v4.1h-2.1v-7.6H54.2z"/>
	<path class="st0" d="M59.1,84c0,0.9,0,2.2,1,2.2c0.8,0,0.9-0.7,0.9-1.4h2.1c0,0.8-0.3,1.5-0.8,2c-0.5,0.5-1.2,0.7-2.2,0.7
		c-2.7,0-3.1-1.7-3.1-4c0-2.1,0.3-3.8,3.1-3.8c2.8,0,3.2,1.8,3.1,4.3H59.1z M61.1,82.8c0-0.7,0-1.8-1-1.8c-1,0-1,1.1-1,1.8H61.1z"/>
	<path class="st0" d="M70.4,86c0,0.5,0.1,0.9,0.1,1.4h-2l-0.1-1h0c-0.4,0.8-1.1,1.2-2,1.2c-1.5,0-2-1.1-2-2.4c0-2.5,1.9-2.6,3.9-2.6
		V82c0-0.6-0.1-1.1-0.9-1.1c-0.7,0-0.8,0.6-0.8,1.2h-2.1c0-0.9,0.3-1.5,0.8-1.8c0.5-0.4,1.2-0.5,2-0.5c2.7,0,3,1.2,3,2.5V86z
		 M66.5,85.1c0,0.5,0.1,1.2,0.8,1.2c1.2,0,1-1.7,1-2.5C67.3,83.8,66.5,83.8,66.5,85.1z"/>
	<path class="st0" d="M71.3,79.9h0.9v-1.2l2.1-0.9v2.1h1.1v1.3h-1.1v4c0,0.6,0,0.9,0.7,0.9c0.1,0,0.3,0,0.4,0v1.3
		c-0.3,0-0.6,0.1-1.1,0.1c-1.8,0-2.1-1.2-2.1-1.7v-4.7h-0.9V79.9z"/>
	<path class="st0" d="M78.7,76.6v1.7h-2.1v-1.7H78.7z M78.7,87.5h-2.1v-7.6h2.1V87.5z"/>
	<path class="st0" d="M79.8,79.9H82l1.1,5.7h0l1.1-5.7h2.1l-2.1,7.6h-2.3L79.8,79.9z"/>
	<path class="st0" d="M89.1,84c0,0.9,0,2.2,1,2.2c0.8,0,0.9-0.7,0.9-1.4h2.1c0,0.8-0.3,1.5-0.8,2c-0.5,0.5-1.2,0.7-2.2,0.7
		c-2.7,0-3.1-1.7-3.1-4c0-2.1,0.3-3.8,3.1-3.8c2.8,0,3.2,1.8,3.1,4.3H89.1z M91.1,82.8c0-0.7,0-1.8-1-1.8c-1,0-1,1.1-1,1.8H91.1z"/>
	<path class="st0" d="M96.9,82.4v-1l0.8-0.4v1.3h1.1V83h-1.1v3.1c0,0.3,0,0.7,0.8,0.7c0.1,0,0.2,0,0.4,0v0.6c-0.3,0-0.5,0.1-0.8,0.1
		c-0.8,0-1.1-0.3-1.1-0.9V83h-0.8v-0.6H96.9z"/>
	<path class="st0" d="M102.3,87.5V84c0-0.6-0.2-1.1-0.9-1.1c-0.8,0-1,0.7-1,1.5v3h-0.8v-7.2h0.8v2.8h0c0.3-0.6,0.7-0.7,1.4-0.7
		c0.9,0,1.3,0.4,1.3,1.6v3.6H102.3z"/>
	<path class="st0" d="M107.2,86.7L107.2,86.7c-0.3,0.6-0.7,0.8-1.3,0.8c-1.1,0-1.4-0.7-1.4-1.7c0-1.5,1.5-1.6,2.6-1.6
		c0-0.7,0-1.4-0.8-1.4c-0.5,0-0.8,0.4-0.8,0.9h-0.9c0-1.1,0.6-1.5,1.7-1.5c1.3,0,1.6,0.7,1.6,1.5v2.4c0,0.4,0,0.8,0.1,1.2h-0.9V86.7
		z M105.3,86c0,0.5,0.2,0.9,0.8,0.9c0.5,0,1.1-0.3,1-1.9C106.4,85,105.3,84.9,105.3,86z"/>
	<path class="st0" d="M112.3,87.5V84c0-0.5-0.2-1-0.9-1c-0.9,0-1,0.8-1,1.5v3h-0.8v-4c0-0.4,0-0.7,0-1h0.9v0.6h0
		c0.3-0.6,0.7-0.7,1.3-0.7c1.1,0,1.3,0.6,1.3,1.6v3.5H112.3z"/>
	<path class="st0" d="M119.4,86.7L119.4,86.7c-0.3,0.6-0.7,0.8-1.3,0.8c-1.1,0-1.4-0.7-1.4-1.7c0-1.5,1.5-1.6,2.6-1.6
		c0-0.7,0-1.4-0.8-1.4c-0.5,0-0.8,0.4-0.8,0.9h-0.9c0-1.1,0.6-1.5,1.7-1.5c1.3,0,1.6,0.7,1.6,1.5v2.4c0,0.4,0,0.8,0.1,1.2h-0.9V86.7
		z M117.5,86c0,0.5,0.2,0.9,0.8,0.9c0.5,0,1.1-0.3,1-1.9C118.6,85,117.5,84.9,117.5,86z"/>
	<path class="st0" d="M121.2,82.4h0.9l1.1,4.3h0l1.2-4.3h0.9l-1.6,5h-1.1L121.2,82.4z"/>
	<path class="st0" d="M127,85.2c0,1.4,0.4,1.7,1,1.7c0.6,0,0.8-0.4,0.9-1h0.9c0,1.1-0.7,1.6-1.8,1.6c-1.1,0-1.9-0.3-1.9-2.5
		c0-1.5,0.2-2.7,1.9-2.7c1.4,0,1.8,0.8,1.8,2.5v0.4H127z M129,84.6c0-1.5-0.4-1.6-1-1.6c-0.5,0-0.9,0.2-1,1.6H129z"/>
	<path class="st0" d="M132.1,83.2L132.1,83.2c0.4-0.8,0.8-0.9,1.6-0.9v0.8c-0.1,0-0.2,0-0.2,0c-0.1,0-0.1,0-0.2,0
		c-0.9,0-1.1,0.7-1.1,1.4v3h-0.8v-5h0.8V83.2z"/>
	<path class="st0" d="M137.2,86.7L137.2,86.7c-0.3,0.6-0.7,0.8-1.3,0.8c-1.1,0-1.4-0.7-1.4-1.7c0-1.5,1.5-1.6,2.6-1.6
		c0-0.7,0-1.4-0.8-1.4c-0.5,0-0.8,0.4-0.8,0.9h-0.9c0-1.1,0.6-1.5,1.7-1.5c1.3,0,1.6,0.7,1.6,1.5v2.4c0,0.4,0,0.8,0.1,1.2h-0.9V86.7
		z M135.3,86c0,0.5,0.2,0.9,0.8,0.9c0.5,0,1.1-0.3,1-1.9C136.4,85,135.3,84.9,135.3,86z"/>
	<path class="st0" d="M142.2,82.4h0.8V88c0,1.1-0.8,1.4-1.9,1.4c-0.8,0-1.6-0.4-1.5-1.3h0.9c0,0.5,0.3,0.7,0.8,0.7
		c0.6,0,0.9-0.3,0.9-0.9v-1h0c-0.2,0.4-0.7,0.6-1.1,0.6c-1.4,0-1.6-1.2-1.6-2.7c0-2.3,1.2-2.5,1.6-2.5c0.5,0,1,0.2,1.2,0.7h0V82.4z
		 M141.3,83c-0.9,0-1,1.1-1,1.8c0,1.6,0.4,2,1,2c1,0,1-1.2,1-1.9C142.2,84.2,142.3,83,141.3,83z"/>
	<path class="st0" d="M145.4,85.2c0,1.4,0.4,1.7,1,1.7c0.6,0,0.8-0.4,0.9-1h0.9c0,1.1-0.7,1.6-1.8,1.6c-1.1,0-1.9-0.3-1.9-2.5
		c0-1.5,0.2-2.7,1.9-2.7c1.4,0,1.8,0.8,1.8,2.5v0.4H145.4z M147.3,84.6c0-1.5-0.4-1.6-1-1.6c-0.5,0-0.9,0.2-1,1.6H147.3z"/>
	<path class="st0" d="M150.4,87.5h-0.9v-1h0.9V87.5z"/>
</g>
</svg>
