<?xml version="1.0" encoding="utf-8"?>
<!-- Generator: Adobe Illustrator 19.2.1, SVG Export Plug-In . SVG Version: 6.00 Build 0)  -->
<!DOCTYPE svg PUBLIC "-//W3C//DTD SVG 1.1//EN" "http://www.w3.org/Graphics/SVG/1.1/DTD/svg11.dtd">
<svg version="1.1" id="Layer_1" xmlns="http://www.w3.org/2000/svg" xmlns:xlink="http://www.w3.org/1999/xlink" x="0px" y="0px"
	 width="144px" height="128px" viewBox="0 0 144 128" style="enable-background:new 0 0 144 128;" xml:space="preserve">
<style type="text/css">
	.Drop_x0020_Shadow{fill:none;}
	.Outer_x0020_Glow_x0020_5_x0020_pt{fill:none;}
	.Blue_x0020_Neon{fill:none;stroke:#8AACDA;stroke-width:7;stroke-linecap:round;stroke-linejoin:round;}
	.Chrome_x0020_Highlight{fill:url(#SVGID_1_);stroke:#FFFFFF;stroke-width:0.3629;stroke-miterlimit:1;}
	.Jive_GS{fill:#FFDD00;}
	.Alyssa_GS{fill:#A6D0E4;}
	.st0{fill:#0A3656;}
	.st1{fill:#ECD177;}
	.st2{fill:#ED5A49;}
	.st3{fill:none;stroke:#0A3656;stroke-width:0.3467;stroke-linecap:round;stroke-linejoin:round;stroke-miterlimit:10;}
	.st4{fill:#ED5A49;stroke:#ED5A49;stroke-width:0.1444;stroke-miterlimit:10;}
	.st5{fill:#E9F5FC;}
	.st6{opacity:0.26;fill:#337D7D;}
	.st7{fill:none;}
	.st8{fill:#DDE8F0;stroke:#DDE8F0;stroke-width:0.5;stroke-miterlimit:10;}
	.st9{fill:none;stroke:#ECD177;stroke-width:0.9;stroke-miterlimit:10;}
	
		.st10{fill:none;stroke:#0A3656;stroke-width:2;stroke-linecap:round;stroke-linejoin:round;stroke-miterlimit:10;stroke-dasharray:0,8;}
	.st11{fill:none;stroke:#ECD177;stroke-width:0.9;stroke-linecap:round;stroke-linejoin:round;stroke-miterlimit:10;}
	.st12{fill:none;stroke:#ECD177;stroke-linecap:round;stroke-linejoin:round;stroke-miterlimit:10;}
</style>
<linearGradient id="SVGID_1_" gradientUnits="userSpaceOnUse" x1="657" y1="54" x2="657" y2="53">
	<stop  offset="0" style="stop-color:#656565"/>
	<stop  offset="0.618" style="stop-color:#1B1B1B"/>
	<stop  offset="0.6292" style="stop-color:#545454"/>
	<stop  offset="0.9831" style="stop-color:#3E3E3E"/>
</linearGradient>
<g id="globe">
	<circle class="st6" cx="72.3" cy="66.2" r="53.8"/>
	<path class="st5" d="M69.9,33.7l-6.2,3.7c-0.9,0.5-1.6,1.2-2.2,2l-5.3,7c-1.2,1.6-1.6,3.6-1.1,5.5l3.6,13.4c0.2,0.8,1,1.4,1.8,1.4
		h5.2c3.3,0,6.4,1.5,8.4,4.1l2.9,3.8c0.1,0.1,0.1,0.2,0.2,0.3l6.3,12.7c0,0,5,11.2,5.7,11.9c0.4,0.4,4.6,1.9,8.3,3.2
		c3.4,1.2,7.2-0.3,8.8-3.5l4-7.5c0.2-0.3,0.2-0.7,0.2-1l-1-14.3c-0.1-1.3,0.3-2.6,1.1-3.6l9.1-11.8c1.1-1.4-0.2-3.4-1.9-3l-5.3,1.2
		c-0.7,0.2-1.5-0.1-1.9-0.7l-11.1-15c-0.2-0.2-0.4-0.4-0.7-0.6L88,37.3c-0.9-0.5-2.1-0.1-2.5,0.8v0c-0.5,1.1-1.9,1.4-2.9,0.6
		l-5.8-4.7C74.8,32.6,72.1,32.4,69.9,33.7z"/>
</g>
<g>
	<rect x="14.7" y="39.9" class="st7" width="118.6" height="68"/>
	<path class="st0" d="M15.5,48.5v-8.7h1.8v7.2H20v1.4H15.5z"/>
	<path class="st0" d="M22.3,45.8c0,0.7,0,1.8,0.8,1.8c0.6,0,0.7-0.6,0.7-1.1h1.7c0,0.7-0.2,1.2-0.6,1.6c-0.4,0.4-1,0.6-1.8,0.6
		c-2.2,0-2.5-1.3-2.5-3.2c0-1.7,0.2-3.1,2.5-3.1c2.3,0,2.5,1.5,2.5,3.4H22.3z M23.8,44.8c0-0.6,0-1.4-0.8-1.4
		c-0.8,0-0.8,0.9-0.8,1.4H23.8z"/>
	<path class="st0" d="M29.3,40.9c-0.7,0-0.8,0.2-0.8,0.8v0.7h0.8v1h-0.8v5h-1.7v-5H26v-1h0.8c0-1.7-0.2-2.7,1.9-2.7
		c0.2,0,0.4,0,0.6,0V40.9z"/>
	<path class="st0" d="M29.4,42.5H30v-1l1.7-0.8v1.7h0.9v1h-0.9v3.2c0,0.5,0,0.8,0.5,0.8c0.1,0,0.2,0,0.3,0v1c-0.2,0-0.5,0.1-0.9,0.1
		c-1.5,0-1.7-1-1.7-1.3v-3.7h-0.7V42.5z"/>
	<path class="st0" d="M39,48.5v-4.2c0-0.5-0.1-1-0.6-1c-0.5,0-0.6,0.4-0.6,1v4.2H36v-8.7h1.7v3.2h0c0.2-0.3,0.4-0.5,0.6-0.6
		c0.2-0.1,0.5-0.2,0.8-0.2c0.8,0,1.5,0.5,1.5,1.3v4.9H39z"/>
	<path class="st0" d="M46.6,47.4c0,0.4,0,0.8,0.1,1.1h-1.6l-0.1-0.8h0c-0.4,0.6-0.9,0.9-1.6,0.9c-1.2,0-1.6-0.9-1.6-1.9
		c0-2,1.5-2.1,3.1-2.1v-0.5c0-0.5-0.1-0.9-0.7-0.9c-0.6,0-0.6,0.4-0.6,0.9H42c0-0.7,0.2-1.2,0.6-1.5c0.4-0.3,0.9-0.4,1.6-0.4
		c2.1,0,2.4,0.9,2.4,2V47.4z M43.5,46.7c0,0.4,0.1,1,0.6,1c1,0,0.8-1.3,0.8-2C44.1,45.6,43.5,45.6,43.5,46.7z"/>
	<path class="st0" d="M49.7,43.1L49.7,43.1c0.2-0.3,0.4-0.5,0.6-0.6c0.2-0.1,0.5-0.2,0.8-0.2c0.8,0,1.5,0.5,1.5,1.3v4.9H51v-4.2
		c0-0.5-0.1-1-0.6-1c-0.5,0-0.6,0.4-0.6,1v4.2H48v-6.1h1.7V43.1z"/>
	<path class="st0" d="M57.1,48.5v-0.7h0c-0.3,0.6-0.8,0.8-1.4,0.8c-1.8,0-1.7-1.9-1.7-3.2c0-1.2,0-3.1,1.7-3.1c0.6,0,1,0.2,1.4,0.7
		h0v-3.2h1.7v8.7H57.1z M57,45.5c0-1.2,0-2.1-0.7-2.1c-0.7,0-0.7,0.8-0.7,2.1c0,1.5,0.1,2.2,0.7,2.2C56.9,47.6,57,47,57,45.5z"/>
	<path class="st0" d="M61.6,45.8c0,0.7,0,1.8,0.8,1.8c0.6,0,0.7-0.6,0.7-1.1h1.7c0,0.7-0.2,1.2-0.6,1.6c-0.4,0.4-1,0.6-1.8,0.6
		c-2.2,0-2.5-1.3-2.5-3.2c0-1.7,0.2-3.1,2.5-3.1c2.3,0,2.5,1.5,2.5,3.4H61.6z M63.2,44.8c0-0.6,0-1.4-0.8-1.4
		c-0.8,0-0.8,0.9-0.8,1.4H63.2z"/>
	<path class="st0" d="M69.1,48.5v-0.7h0c-0.3,0.6-0.8,0.8-1.4,0.8c-1.8,0-1.7-1.9-1.7-3.2c0-1.2,0-3.1,1.7-3.1c0.6,0,1,0.2,1.4,0.7
		h0v-3.2h1.7v8.7H69.1z M69,45.5c0-1.2,0-2.1-0.7-2.1c-0.7,0-0.7,0.8-0.7,2.1c0,1.5,0.1,2.2,0.7,2.2C68.9,47.6,69,47,69,45.5z"/>
	<path class="st0" d="M76.3,42.5v0.7h0c0.3-0.6,0.8-0.8,1.4-0.8c1.8,0,1.7,1.9,1.7,3.2c0,1.2,0,3.1-1.7,3.1c-0.6,0-1-0.2-1.4-0.7h0
		v3.2h-1.7v-8.7H76.3z M77.8,45.5c0-1.2,0-2.1-0.7-2.1c-0.7,0-0.7,0.8-0.7,2.1c0,1.5,0.1,2.2,0.7,2.2C77.7,47.6,77.8,47,77.8,45.5z"
		/>
	<path class="st0" d="M82.3,45.8c0,0.7,0,1.8,0.8,1.8c0.6,0,0.7-0.6,0.7-1.1h1.7c0,0.7-0.2,1.2-0.6,1.6c-0.4,0.4-1,0.6-1.8,0.6
		c-2.2,0-2.5-1.3-2.5-3.2c0-1.7,0.2-3.1,2.5-3.1c2.3,0,2.5,1.5,2.5,3.4H82.3z M83.8,44.8c0-0.6,0-1.4-0.8-1.4
		c-0.8,0-0.8,0.9-0.8,1.4H83.8z"/>
	<path class="st0" d="M86.6,45.4c0-1.7,0.2-3.1,2.5-3.1c2.2,0,2.5,1.4,2.5,3.1c0,1.9-0.3,3.2-2.5,3.2C86.9,48.7,86.6,47.3,86.6,45.4
		z M89.8,45.3c0-1.3-0.1-1.9-0.8-1.9c-0.7,0-0.8,0.6-0.8,1.9c0,1.8,0.2,2.2,0.8,2.2C89.7,47.6,89.8,47.2,89.8,45.3z"/>
	<path class="st0" d="M94.3,42.5v0.7h0c0.3-0.6,0.8-0.8,1.4-0.8c1.8,0,1.7,1.9,1.7,3.2c0,1.2,0,3.1-1.7,3.1c-0.6,0-1-0.2-1.4-0.7h0
		v3.2h-1.7v-8.7H94.3z M95.8,45.5c0-1.2,0-2.1-0.7-2.1c-0.7,0-0.7,0.8-0.7,2.1c0,1.5,0.1,2.2,0.7,2.2C95.7,47.6,95.8,47,95.8,45.5z"
		/>
	<path class="st0" d="M100.5,39.9v8.7h-1.7v-8.7H100.5z"/>
	<path class="st0" d="M103.6,45.8c0,0.7,0,1.8,0.8,1.8c0.6,0,0.7-0.6,0.7-1.1h1.7c0,0.7-0.2,1.2-0.6,1.6c-0.4,0.4-1,0.6-1.8,0.6
		c-2.2,0-2.5-1.3-2.5-3.2c0-1.7,0.2-3.1,2.5-3.1c2.3,0,2.5,1.5,2.5,3.4H103.6z M105.2,44.8c0-0.6,0-1.4-0.8-1.4
		c-0.8,0-0.8,0.9-0.8,1.4H105.2z"/>
	<path class="st0" d="M15.2,59.8c0-1.7,0.2-3.1,2.5-3.1c2.2,0,2.5,1.4,2.5,3.1c0,1.9-0.3,3.2-2.5,3.2C15.5,63.1,15.2,61.7,15.2,59.8
		z M18.5,59.7c0-1.3-0.1-1.9-0.8-1.9c-0.7,0-0.8,0.6-0.8,1.9c0,1.8,0.2,2.2,0.8,2.2C18.3,62,18.5,61.6,18.5,59.7z"/>
	<path class="st0" d="M24,55.3c-0.7,0-0.8,0.2-0.8,0.8v0.7h0.8v1h-0.8v5h-1.7v-5h-0.8v-1h0.8c0-1.7-0.2-2.7,1.9-2.7
		c0.2,0,0.4,0,0.6,0V55.3z"/>
	<path class="st0" d="M24,56.9h0.7v-1l1.7-0.8v1.7h0.9v1h-0.9v3.2c0,0.5,0,0.8,0.5,0.8c0.1,0,0.2,0,0.3,0v1C27,63,26.8,63,26.4,63
		c-1.5,0-1.7-1-1.7-1.3v-3.7H24V56.9z"/>
	<path class="st0" d="M29.6,60.2c0,0.7,0,1.8,0.8,1.8c0.6,0,0.7-0.6,0.7-1.1h1.7c0,0.7-0.2,1.2-0.6,1.6c-0.4,0.4-1,0.6-1.8,0.6
		c-2.2,0-2.5-1.3-2.5-3.2c0-1.7,0.2-3.1,2.5-3.1c2.3,0,2.5,1.5,2.5,3.4H29.6z M31.2,59.2c0-0.6,0-1.4-0.8-1.4
		c-0.8,0-0.8,0.9-0.8,1.4H31.2z"/>
	<path class="st0" d="M35.7,57.5L35.7,57.5c0.2-0.3,0.4-0.5,0.6-0.6c0.2-0.1,0.5-0.2,0.8-0.2c0.8,0,1.5,0.5,1.5,1.3v4.9H37v-4.2
		c0-0.5-0.1-1-0.6-1c-0.5,0-0.6,0.4-0.6,1v4.2h-1.7v-6.1h1.7V57.5z"/>
	<path class="st0" d="M45.3,55.3c-0.7,0-0.8,0.2-0.8,0.8v0.7h0.8v1h-0.8v5h-1.7v-5H42v-1h0.8c0-1.7-0.2-2.7,1.9-2.7
		c0.2,0,0.4,0,0.6,0V55.3z M47.4,54.3v1.3h-1.7v-1.3H47.4z M47.4,62.9h-1.7v-6.1h1.7V62.9z"/>
	<path class="st0" d="M50.4,57.5L50.4,57.5c0.2-0.3,0.4-0.5,0.6-0.6c0.2-0.1,0.5-0.2,0.8-0.2c0.8,0,1.5,0.5,1.5,1.3v4.9h-1.7v-4.2
		c0-0.5-0.1-1-0.6-1c-0.5,0-0.6,0.4-0.6,1v4.2h-1.7v-6.1h1.7V57.5z"/>
	<path class="st0" d="M57.7,62.9v-0.7h0c-0.3,0.6-0.8,0.8-1.4,0.8c-1.8,0-1.7-1.9-1.7-3.2c0-1.2,0-3.1,1.7-3.1c0.6,0,1,0.2,1.4,0.7
		h0v-3.2h1.7v8.7H57.7z M57.7,59.9c0-1.2,0-2.1-0.7-2.1c-0.7,0-0.7,0.8-0.7,2.1c0,1.5,0.1,2.2,0.7,2.2C57.5,62,57.7,61.4,57.7,59.9z
		"/>
	<path class="st0" d="M65.2,54.3v1.3h-1.7v-1.3H65.2z M65.2,62.9h-1.7v-6.1h1.7V62.9z"/>
	<path class="st0" d="M66,56.9h0.7v-1l1.7-0.8v1.7h0.9v1h-0.9v3.2c0,0.5,0,0.8,0.5,0.8c0.1,0,0.2,0,0.3,0v1C69,63,68.8,63,68.4,63
		c-1.5,0-1.7-1-1.7-1.3v-3.7H66V56.9z"/>
	<path class="st0" d="M75.8,59c0-0.9-0.2-1.2-0.8-1.2c-0.7,0-0.8,0.6-0.8,1.9c0,1.8,0.2,2.2,0.8,2.2c0.5,0,0.8-0.5,0.8-1.3h1.7
		c0,1.6-0.9,2.4-2.5,2.4c-2.2,0-2.5-1.3-2.5-3.2c0-1.7,0.2-3.1,2.5-3.1c1.6,0,2.4,0.7,2.4,2.3H75.8z"/>
	<path class="st0" d="M81.7,62.9v-4.2c0-0.5-0.1-1-0.6-1c-0.5,0-0.6,0.4-0.6,1v4.2h-1.7v-8.7h1.7v3.2h0c0.2-0.3,0.4-0.5,0.6-0.6
		c0.2-0.1,0.5-0.2,0.8-0.2c0.8,0,1.5,0.5,1.5,1.3v4.9H81.7z"/>
	<path class="st0" d="M89.3,61.8c0,0.4,0,0.8,0.1,1.1h-1.6l-0.1-0.8h0c-0.4,0.6-0.9,0.9-1.6,0.9c-1.2,0-1.6-0.9-1.6-1.9
		c0-2,1.5-2.1,3.1-2.1v-0.5c0-0.5-0.1-0.9-0.7-0.9c-0.6,0-0.6,0.4-0.6,0.9h-1.7c0-0.7,0.2-1.2,0.6-1.5c0.4-0.3,0.9-0.4,1.6-0.4
		c2.1,0,2.4,0.9,2.4,2V61.8z M86.2,61.1c0,0.4,0.1,1,0.6,1c1,0,0.8-1.3,0.8-2C86.8,60.1,86.2,60,86.2,61.1z"/>
	<path class="st0" d="M92.6,54.3v8.7h-1.7v-8.7H92.6z"/>
	<path class="st0" d="M95.9,54.3v8.7h-1.7v-8.7H95.9z"/>
	<path class="st0" d="M98.9,60.2c0,0.7,0,1.8,0.8,1.8c0.6,0,0.7-0.6,0.7-1.1h1.7c0,0.7-0.2,1.2-0.6,1.6c-0.4,0.4-1,0.6-1.8,0.6
		c-2.2,0-2.5-1.3-2.5-3.2c0-1.7,0.2-3.1,2.5-3.1c2.3,0,2.5,1.5,2.5,3.4H98.9z M100.5,59.2c0-0.6,0-1.4-0.8-1.4
		c-0.8,0-0.8,0.9-0.8,1.4H100.5z"/>
	<path class="st0" d="M105.1,57.5L105.1,57.5c0.2-0.3,0.4-0.5,0.6-0.6c0.2-0.1,0.5-0.2,0.8-0.2c0.8,0,1.5,0.5,1.5,1.3v4.9h-1.7v-4.2
		c0-0.5-0.1-1-0.6-1c-0.5,0-0.6,0.4-0.6,1v4.2h-1.7v-6.1h1.7V57.5z"/>
	<path class="st0" d="M114,56.9v6.3c0,0.4,0,2.1-2.3,2.1c-1.3,0-2.3-0.3-2.4-1.8h1.7c0,0.3,0,0.5,0.1,0.6c0.1,0.2,0.3,0.2,0.6,0.2
		c0.4,0,0.6-0.4,0.6-1v-1.2h0c-0.3,0.5-0.7,0.7-1.3,0.7c-1.9,0-1.8-1.7-1.8-3.1c0-1.3,0-3,1.8-3c0.6,0,1.1,0.3,1.4,0.8h0v-0.7H114z
		 M111.6,61.8c0.6,0,0.7-0.6,0.7-1.9c0-1.3-0.1-2.1-0.7-2.1c-0.6,0-0.7,0.4-0.7,2.3C110.9,60.7,110.8,61.8,111.6,61.8z"/>
	<path class="st0" d="M117.2,54.3v1.3h-1.7v-1.3H117.2z M117.2,62.9h-1.7v-6.1h1.7V62.9z"/>
	<path class="st0" d="M120.4,57.5L120.4,57.5c0.2-0.3,0.4-0.5,0.6-0.6c0.2-0.1,0.5-0.2,0.8-0.2c0.8,0,1.5,0.5,1.5,1.3v4.9h-1.7v-4.2
		c0-0.5-0.1-1-0.6-1c-0.5,0-0.6,0.4-0.6,1v4.2h-1.7v-6.1h1.7V57.5z"/>
	<path class="st0" d="M129.4,56.9v6.3c0,0.4,0,2.1-2.3,2.1c-1.3,0-2.3-0.3-2.4-1.8h1.7c0,0.3,0,0.5,0.1,0.6c0.1,0.2,0.3,0.2,0.6,0.2
		c0.4,0,0.6-0.4,0.6-1v-1.2h0c-0.3,0.5-0.7,0.7-1.3,0.7c-1.9,0-1.8-1.7-1.8-3.1c0-1.3,0-3,1.8-3c0.6,0,1.1,0.3,1.4,0.8h0v-0.7H129.4
		z M127,61.8c0.6,0,0.7-0.6,0.7-1.9c0-1.3-0.1-2.1-0.7-2.1c-0.6,0-0.7,0.4-0.7,2.3C126.2,60.7,126.2,61.8,127,61.8z"/>
	<path class="st0" d="M14.7,71.3h0.7v-1l1.7-0.8v1.7h0.9v1h-0.9v3.2c0,0.5,0,0.8,0.5,0.8c0.1,0,0.2,0,0.3,0v1
		c-0.2,0-0.5,0.1-0.9,0.1c-1.5,0-1.7-1-1.7-1.3v-3.7h-0.7V71.3z"/>
	<path class="st0" d="M18.6,74.2c0-1.7,0.2-3.1,2.5-3.1c2.2,0,2.5,1.4,2.5,3.1c0,1.9-0.3,3.2-2.5,3.2C18.9,77.5,18.6,76.1,18.6,74.2
		z M21.8,74.1c0-1.3-0.1-1.9-0.8-1.9c-0.7,0-0.8,0.6-0.8,1.9c0,1.8,0.2,2.2,0.8,2.2C21.7,76.4,21.8,76,21.8,74.1z"/>
	<path class="st0" d="M29.2,68.7v8.7h-1.7v-8.7H29.2z"/>
	<path class="st0" d="M32.6,68.7V70h-1.7v-1.3H32.6z M32.6,77.3h-1.7v-6.1h1.7V77.3z"/>
	<path class="st0" d="M33.5,71.3h1.7l0.9,4.5h0l0.9-4.5h1.7l-1.7,6.1h-1.9L33.5,71.3z"/>
	<path class="st0" d="M40.9,74.6c0,0.7,0,1.8,0.8,1.8c0.6,0,0.7-0.6,0.7-1.1h1.7c0,0.7-0.2,1.2-0.6,1.6c-0.4,0.4-1,0.6-1.8,0.6
		c-2.2,0-2.5-1.3-2.5-3.2c0-1.7,0.2-3.1,2.5-3.1c2.3,0,2.5,1.5,2.5,3.4H40.9z M42.5,73.6c0-0.6,0-1.4-0.8-1.4
		c-0.8,0-0.8,0.9-0.8,1.4H42.5z"/>
	<path class="st0" d="M49.9,68.7V70h-1.7v-1.3H49.9z M49.9,77.3h-1.7v-6.1h1.7V77.3z"/>
	<path class="st0" d="M53.1,71.9L53.1,71.9c0.2-0.3,0.4-0.5,0.6-0.6c0.2-0.1,0.5-0.2,0.8-0.2c0.8,0,1.5,0.5,1.5,1.3v4.9h-1.7v-4.2
		c0-0.5-0.1-1-0.6-1c-0.5,0-0.6,0.4-0.6,1v4.2h-1.7v-6.1h1.7V71.9z"/>
	<path class="st0" d="M59.5,71.3h1.7l0.8,4.6h0l1.2-4.6h1.8l1.1,4.6h0l0.9-4.6h1.6l-1.6,6.1h-1.8l-1.1-4.1h0l-1.2,4.1H61L59.5,71.3z
		"/>
	<path class="st0" d="M69.2,74.2c0-1.7,0.2-3.1,2.5-3.1c2.2,0,2.5,1.4,2.5,3.1c0,1.9-0.3,3.2-2.5,3.2C69.5,77.5,69.2,76.1,69.2,74.2
		z M72.5,74.1c0-1.3-0.1-1.9-0.8-1.9c-0.7,0-0.8,0.6-0.8,1.9c0,1.8,0.2,2.2,0.8,2.2C72.3,76.4,72.5,76,72.5,74.1z"/>
	<path class="st0" d="M77,71.3v0.8h0c0.3-0.7,0.9-0.9,1.6-0.9v1.5c-1.5-0.1-1.5,0.8-1.5,1.4v3.3h-1.7v-6.1H77z"/>
	<path class="st0" d="M81.2,68.7v8.7h-1.7v-8.7H81.2z"/>
	<path class="st0" d="M85.7,77.3v-0.7h0c-0.3,0.6-0.8,0.8-1.4,0.8c-1.8,0-1.7-1.9-1.7-3.2c0-1.2,0-3.1,1.7-3.1c0.6,0,1,0.2,1.4,0.7
		h0v-3.2h1.7v8.7H85.7z M85.7,74.3c0-1.2,0-2.1-0.7-2.1c-0.7,0-0.7,0.8-0.7,2.1c0,1.5,0.1,2.2,0.7,2.2
		C85.5,76.4,85.7,75.8,85.7,74.3z"/>
	<path class="st0" d="M92.9,71.9L92.9,71.9c0.4-0.5,0.8-0.7,1.5-0.7c0.6,0,1.1,0.3,1.4,0.8c0.4-0.5,0.9-0.8,1.6-0.8
		c0.8,0,1.5,0.5,1.5,1.3v4.9h-1.7v-4.2c0-0.5-0.1-1-0.6-1c-0.5,0-0.6,0.4-0.6,1v4.2h-1.7v-4.2c0-0.5-0.1-1-0.6-1
		c-0.5,0-0.6,0.4-0.6,1v4.2h-1.7v-6.1h1.7V71.9z"/>
	<path class="st0" d="M101.6,74.6c0,0.7,0,1.8,0.8,1.8c0.6,0,0.7-0.6,0.7-1.1h1.7c0,0.7-0.2,1.2-0.6,1.6c-0.4,0.4-1,0.6-1.8,0.6
		c-2.2,0-2.5-1.3-2.5-3.2c0-1.7,0.2-3.1,2.5-3.1c2.3,0,2.5,1.5,2.5,3.4H101.6z M103.1,73.6c0-0.6,0-1.4-0.8-1.4
		c-0.8,0-0.8,0.9-0.8,1.4H103.1z"/>
	<path class="st0" d="M110.6,76.2c0,0.4,0,0.8,0.1,1.1h-1.6l-0.1-0.8h0c-0.4,0.6-0.9,0.9-1.6,0.9c-1.2,0-1.6-0.9-1.6-1.9
		c0-2,1.5-2.1,3.1-2.1V73c0-0.5-0.1-0.9-0.7-0.9c-0.6,0-0.6,0.4-0.6,0.9H106c0-0.7,0.2-1.2,0.6-1.5c0.4-0.3,0.9-0.4,1.6-0.4
		c2.1,0,2.4,0.9,2.4,2V76.2z M107.5,75.5c0,0.4,0.1,1,0.6,1c1,0,0.8-1.3,0.8-2C108.1,74.5,107.5,74.4,107.5,75.5z"/>
	<path class="st0" d="M113.7,71.9L113.7,71.9c0.2-0.3,0.4-0.5,0.6-0.6c0.2-0.1,0.5-0.2,0.8-0.2c0.8,0,1.5,0.5,1.5,1.3v4.9H115v-4.2
		c0-0.5-0.1-1-0.6-1c-0.5,0-0.6,0.4-0.6,1v4.2H112v-6.1h1.7V71.9z"/>
	<path class="st0" d="M117.4,71.3h0.7v-1l1.7-0.8v1.7h0.9v1h-0.9v3.2c0,0.5,0,0.8,0.5,0.8c0.1,0,0.2,0,0.3,0v1
		c-0.2,0-0.5,0.1-0.9,0.1c-1.5,0-1.7-1-1.7-1.3v-3.7h-0.7V71.3z"/>
	<path class="st0" d="M18,84.1c-0.7,0-0.8,0.2-0.8,0.8v0.7h0.8v1h-0.8v5h-1.7v-5h-0.8v-1h0.8c0-1.7-0.2-2.7,1.9-2.7
		c0.2,0,0.4,0,0.6,0V84.1z"/>
	<path class="st0" d="M18.6,88.6c0-1.7,0.2-3.1,2.5-3.1c2.2,0,2.5,1.4,2.5,3.1c0,1.9-0.3,3.2-2.5,3.2C18.9,91.9,18.6,90.5,18.6,88.6
		z M21.8,88.5c0-1.3-0.1-1.9-0.8-1.9c-0.7,0-0.8,0.6-0.8,1.9c0,1.8,0.2,2.2,0.8,2.2C21.7,90.8,21.8,90.4,21.8,88.5z"/>
	<path class="st0" d="M26.3,85.7v0.8h0c0.3-0.7,0.9-0.9,1.6-0.9v1.5c-1.5-0.1-1.5,0.8-1.5,1.4v3.3h-1.7v-6.1H26.3z"/>
	<path class="st0" d="M33,85.7v0.8h0c0.3-0.7,0.9-0.9,1.6-0.9v1.5c-1.5-0.1-1.5,0.8-1.5,1.4v3.3h-1.7v-6.1H33z"/>
	<path class="st0" d="M37.2,83.1v1.3h-1.7v-1.3H37.2z M37.2,91.7h-1.7v-6.1h1.7V91.7z"/>
	<path class="st0" d="M43.3,85.7V92c0,0.4,0,2.1-2.3,2.1c-1.3,0-2.3-0.3-2.4-1.8h1.7c0,0.3,0,0.5,0.1,0.6c0.1,0.2,0.3,0.2,0.6,0.2
		c0.4,0,0.6-0.4,0.6-1v-1.2h0c-0.3,0.5-0.7,0.7-1.3,0.7c-1.9,0-1.8-1.7-1.8-3.1c0-1.3,0-3,1.8-3c0.6,0,1.1,0.3,1.4,0.8h0v-0.7H43.3z
		 M41,90.6c0.6,0,0.7-0.6,0.7-1.9c0-1.3-0.1-2.1-0.7-2.1c-0.6,0-0.7,0.4-0.7,2.3C40.2,89.5,40.1,90.6,41,90.6z"/>
	<path class="st0" d="M47.7,91.7v-4.2c0-0.5-0.1-1-0.6-1c-0.5,0-0.6,0.4-0.6,1v4.2h-1.7v-8.7h1.7v3.2h0c0.2-0.3,0.4-0.5,0.6-0.6
		c0.2-0.1,0.5-0.2,0.8-0.2c0.8,0,1.5,0.5,1.5,1.3v4.9H47.7z"/>
	<path class="st0" d="M50,85.7h0.7v-1l1.7-0.8v1.7h0.9v1h-0.9V90c0,0.5,0,0.8,0.5,0.8c0.1,0,0.2,0,0.3,0v1c-0.2,0-0.5,0.1-0.9,0.1
		c-1.5,0-1.7-1-1.7-1.3v-3.7H50V85.7z"/>
	<path class="st0" d="M59.7,91.7v-4.2c0-0.5-0.1-1-0.6-1c-0.5,0-0.6,0.4-0.6,1v4.2h-1.7v-8.7h1.7v3.2h0c0.2-0.3,0.4-0.5,0.6-0.6
		c0.2-0.1,0.5-0.2,0.8-0.2c0.8,0,1.5,0.5,1.5,1.3v4.9H59.7z"/>
	<path class="st0" d="M67.3,90.6c0,0.4,0,0.8,0.1,1.1h-1.6l-0.1-0.8h0c-0.4,0.6-0.9,0.9-1.6,0.9c-1.2,0-1.6-0.9-1.6-1.9
		c0-2,1.5-2.1,3.1-2.1v-0.5c0-0.5-0.1-0.9-0.7-0.9c-0.6,0-0.6,0.4-0.6,0.9h-1.7c0-0.7,0.2-1.2,0.6-1.5c0.4-0.3,0.9-0.4,1.6-0.4
		c2.1,0,2.4,0.9,2.4,2V90.6z M64.2,89.9c0,0.4,0.1,1,0.6,1c1,0,0.8-1.3,0.8-2C64.8,88.9,64.2,88.8,64.2,89.9z"/>
	<path class="st0" d="M70.4,86.3L70.4,86.3c0.2-0.3,0.4-0.5,0.6-0.6c0.2-0.1,0.5-0.2,0.8-0.2c0.8,0,1.5,0.5,1.5,1.3v4.9h-1.7v-4.2
		c0-0.5-0.1-1-0.6-1c-0.5,0-0.6,0.4-0.6,1v4.2h-1.7v-6.1h1.7V86.3z"/>
	<path class="st0" d="M77.7,91.7v-0.7h0c-0.3,0.6-0.8,0.8-1.4,0.8c-1.8,0-1.7-1.9-1.7-3.2c0-1.2,0-3.1,1.7-3.1c0.6,0,1,0.2,1.4,0.7
		h0v-3.2h1.7v8.7H77.7z M77.6,88.7c0-1.2,0-2.1-0.7-2.1c-0.7,0-0.7,0.8-0.7,2.1c0,1.5,0.1,2.2,0.7,2.2
		C77.5,90.8,77.6,90.2,77.6,88.7z"/>
	<path class="st0" d="M82.3,89c0,0.7,0,1.8,0.8,1.8c0.6,0,0.7-0.6,0.7-1.1h1.7c0,0.7-0.2,1.2-0.6,1.6c-0.4,0.4-1,0.6-1.8,0.6
		c-2.2,0-2.5-1.3-2.5-3.2c0-1.7,0.2-3.1,2.5-3.1c2.3,0,2.5,1.5,2.5,3.4H82.3z M83.8,88c0-0.6,0-1.4-0.8-1.4c-0.8,0-0.8,0.9-0.8,1.4
		H83.8z"/>
	<path class="st0" d="M88.3,85.7v0.8h0c0.3-0.7,0.9-0.9,1.6-0.9v1.5c-1.5-0.1-1.5,0.8-1.5,1.4v3.3h-1.7v-6.1H88.3z"/>
	<path class="st0" d="M92,89.8c0,0.3,0,0.5,0.1,0.7c0.1,0.2,0.3,0.3,0.6,0.3c0.3,0,0.6-0.2,0.6-0.6c0-1.3-3-1-3-2.9
		c0-1.3,1.3-1.7,2.4-1.7c1.2,0,2.2,0.6,2.1,1.9h-1.7c0-0.4,0-0.7-0.2-0.8c-0.1-0.1-0.3-0.1-0.4-0.1c-0.4,0-0.6,0.2-0.6,0.6
		c0,1,3,0.9,3,2.9c0,1.1-0.9,1.8-2.3,1.8c-1.5,0-2.5-0.4-2.4-2.1H92z"/>
	<path class="st0" d="M97.4,90.2v1.6H96v-1.6H97.4z"/>
</g>
</svg>
