<svg xmlns="http://www.w3.org/2000/svg" id="Layer_1" viewBox="0 0 144 128">
  <style>
    .Drop_x0020_Shadow{fill:none;} .Outer_x0020_Glow_x0020_5_x0020_pt{fill:none;} .Blue_x0020_Neon{fill:none;stroke:#8AACDA;stroke-width:7;stroke-linecap:round;stroke-linejoin:round;} .Chrome_x0020_Highlight{fill:url(#SVGID_1_);stroke:#FFFFFF;stroke-width:0.3629;stroke-miterlimit:1;} .Jive_GS{fill:#FFDD00;} .Alyssa_GS{fill:#A6D0E4;} .st0{fill:#0A3656;} .st1{fill:#ECD177;} .st2{fill:#ED5A49;} .st3{fill:none;stroke:#0A3656;stroke-width:0.3467;stroke-linecap:round;stroke-linejoin:round;stroke-miterlimit:10;} .st4{fill:#ED5A49;stroke:#ED5A49;stroke-width:0.1444;stroke-miterlimit:10;} .st5{fill:#E9F5FC;} .st6{opacity:0.26;fill:#337D7D;} .st7{fill:none;} .st8{fill:#DDE8F0;stroke:#DDE8F0;stroke-width:0.5;stroke-miterlimit:10;} .st9{fill:none;stroke:#ECD177;stroke-width:0.9;stroke-miterlimit:10;} .st10{fill:none;stroke:#0A3656;stroke-width:2;stroke-linecap:round;stroke-linejoin:round;stroke-miterlimit:10;stroke-dasharray:0,8;} .st11{fill:none;stroke:#ECD177;stroke-width:0.9;stroke-linecap:round;stroke-linejoin:round;stroke-miterlimit:10;} .st12{fill:none;stroke:#ECD177;stroke-linecap:round;stroke-linejoin:round;stroke-miterlimit:10;}
  </style>
  <linearGradient id="SVGID_1_" x1="657" x2="657" y1="54" y2="53" gradientUnits="userSpaceOnUse">
    <stop offset="0" stop-color="#656565"/>
    <stop offset=".618" stop-color="#1B1B1B"/>
    <stop offset=".629" stop-color="#545454"/>
    <stop offset=".983" stop-color="#3E3E3E"/>
  </linearGradient>
  <g id="globe">
    <circle cx="72.3" cy="66.2" r="53.8" class="st6"/>
    <path d="M69.9 33.7l-6.2 3.7c-.9.5-1.6 1.2-2.2 2l-5.3 7C55 48 54.6 50 55.1 51.9l3.6 13.4c.2.8 1 1.4 1.8 1.4h5.2c3.3 0 6.4 1.5 8.4 4.1l2.9 3.8c.1.1.1.2.2.3l6.3 12.7s5 11.2 5.7 11.9c.4.4 4.6 1.9 8.3 3.2 3.4 1.2 7.2-.3 8.8-3.5l4-7.5c.2-.3.2-.7.2-1l-1-14.3c-.1-1.3.3-2.6 1.1-3.6l9.1-11.8c1.1-1.4-.2-3.4-1.9-3l-5.3 1.2c-.7.2-1.5-.1-1.9-.7l-11.1-15c-.2-.2-.4-.4-.7-.6L88 37.3c-.9-.5-2.1-.1-2.5.8-.5 1.1-1.9 1.4-2.9.6L76.8 34c-2-1.4-4.7-1.6-6.9-.3z" class="st5"/>
  </g>
  <path d="M14.7 39.9h118.6v68H14.7z" class="st7"/>
  <path d="M15.5 48.5v-8.7h1.8V47H20v1.4h-4.5zm6.8-2.7c0 .7 0 1.8.8 1.8.6 0 .7-.6.7-1.1h1.7c0 .7-.2 1.2-.6 1.6-.4.4-1 .6-1.8.6-2.2 0-2.5-1.3-2.5-3.2 0-1.7.2-3.1 2.5-3.1s2.5 1.5 2.5 3.4h-3.3zm1.5-1c0-.6 0-1.4-.8-1.4s-.8.9-.8 1.4h1.6zm5.5-3.9c-.7 0-.8.2-.8.8v.7h.8v1h-.8v5h-1.7v-5H26v-1h.8c0-1.7-.2-2.7 1.9-2.7h.6v1.2z" class="st0"/>
  <path d="M29.4 42.5h.6v-1l1.7-.8v1.7h.9v1h-.9v3.2c0 .5 0 .8.5.8h.3v1c-.2 0-.5.1-.9.1-1.5 0-1.7-1-1.7-1.3v-3.7h-.7v-1zm9.6 6v-4.2c0-.5-.1-1-.6-1s-.6.4-.6 1v4.2H36v-8.7h1.7V43c.2-.3.4-.5.6-.6.2-.1.5-.2.8-.2.8 0 1.5.5 1.5 1.3v4.9H39zm7.6-1.1c0 .4 0 .8.1 1.1h-1.6l-.1-.8c-.4.6-.9.9-1.6.9-1.2 0-1.6-.9-1.6-1.9 0-2 1.5-2.1 3.1-2.1v-.5c0-.5-.1-.9-.7-.9s-.6.4-.6.9H42c0-.7.2-1.2.6-1.5.4-.3.9-.4 1.6-.4 2.1 0 2.4.9 2.4 2v3.2zm-3.1-.7c0 .4.1 1 .6 1 1 0 .8-1.3.8-2-.8-.1-1.4-.1-1.4 1zm6.2-3.6c.2-.3.4-.5.6-.6.2-.1.5-.2.8-.2.8 0 1.5.5 1.5 1.3v4.9H51v-4.2c0-.5-.1-1-.6-1s-.6.4-.6 1v4.2H48v-6.1h1.7v.7zm7.4 5.4v-.7c-.3.6-.8.8-1.4.8-1.8 0-1.7-1.9-1.7-3.2 0-1.2 0-3.1 1.7-3.1.6 0 1 .2 1.4.7v-3.2h1.7v8.7h-1.7zm-.1-3c0-1.2 0-2.1-.7-2.1s-.7.8-.7 2.1c0 1.5.1 2.2.7 2.2.6-.1.7-.7.7-2.2zm4.6.3c0 .7 0 1.8.8 1.8.6 0 .7-.6.7-1.1h1.7c0 .7-.2 1.2-.6 1.6-.4.4-1 .6-1.8.6-2.2 0-2.5-1.3-2.5-3.2 0-1.7.2-3.1 2.5-3.1s2.5 1.5 2.5 3.4h-3.3zm1.6-1c0-.6 0-1.4-.8-1.4s-.8.9-.8 1.4h1.6zm5.9 3.7v-.7c-.3.6-.8.8-1.4.8-1.8 0-1.7-1.9-1.7-3.2 0-1.2 0-3.1 1.7-3.1.6 0 1 .2 1.4.7v-3.2h1.7v8.7h-1.7zm-.1-3c0-1.2 0-2.1-.7-2.1s-.7.8-.7 2.1c0 1.5.1 2.2.7 2.2.6-.1.7-.7.7-2.2zm7.3-3v.7c.3-.6.8-.8 1.4-.8 1.8 0 1.7 1.9 1.7 3.2 0 1.2 0 3.1-1.7 3.1-.6 0-1-.2-1.4-.7v3.2h-1.7v-8.7h1.7zm1.5 3c0-1.2 0-2.1-.7-2.1s-.7.8-.7 2.1c0 1.5.1 2.2.7 2.2.6-.1.7-.7.7-2.2zm4.5.3c0 .7 0 1.8.8 1.8.6 0 .7-.6.7-1.1h1.7c0 .7-.2 1.2-.6 1.6-.4.4-1 .6-1.8.6-2.2 0-2.5-1.3-2.5-3.2 0-1.7.2-3.1 2.5-3.1s2.5 1.5 2.5 3.4h-3.3zm1.5-1c0-.6 0-1.4-.8-1.4s-.8.9-.8 1.4h1.6zm2.8.6c0-1.7.2-3.1 2.5-3.1 2.2 0 2.5 1.4 2.5 3.1 0 1.9-.3 3.2-2.5 3.2-2.2.1-2.5-1.3-2.5-3.2zm3.2-.1c0-1.3-.1-1.9-.8-1.9-.7 0-.8.6-.8 1.9 0 1.8.2 2.2.8 2.2.7.1.8-.3.8-2.2zm4.5-2.8v.7c.3-.6.8-.8 1.4-.8 1.8 0 1.7 1.9 1.7 3.2 0 1.2 0 3.1-1.7 3.1-.6 0-1-.2-1.4-.7v3.2h-1.7v-8.7h1.7zm1.5 3c0-1.2 0-2.1-.7-2.1s-.7.8-.7 2.1c0 1.5.1 2.2.7 2.2.6-.1.7-.7.7-2.2zm4.7-5.6v8.7h-1.7v-8.7h1.7zm3.1 5.9c0 .7 0 1.8.8 1.8.6 0 .7-.6.7-1.1h1.7c0 .7-.2 1.2-.6 1.6-.4.4-1 .6-1.8.6-2.2 0-2.5-1.3-2.5-3.2 0-1.7.2-3.1 2.5-3.1s2.5 1.5 2.5 3.4h-3.3zm1.6-1c0-.6 0-1.4-.8-1.4s-.8.9-.8 1.4h1.6zm-90 15c0-1.7.2-3.1 2.5-3.1 2.2 0 2.5 1.4 2.5 3.1 0 1.9-.3 3.2-2.5 3.2-2.2.1-2.5-1.3-2.5-3.2zm3.3-.1c0-1.3-.1-1.9-.8-1.9-.7 0-.8.6-.8 1.9 0 1.8.2 2.2.8 2.2.6.1.8-.3.8-2.2zm5.5-4.4c-.7 0-.8.2-.8.8v.7h.8v1h-.8v5h-1.7v-5h-.8v-1h.8c0-1.7-.2-2.7 1.9-2.7h.6v1.2zm0 1.6h.7v-1l1.7-.8v1.7h.9v1h-.9V61c0 .5 0 .8.5.8h.3v1c-.2.2-.4.2-.8.2-1.5 0-1.7-1-1.7-1.3V58H24v-1.1zm5.6 3.3c0 .7 0 1.8.8 1.8.6 0 .7-.6.7-1.1h1.7c0 .7-.2 1.2-.6 1.6-.4.4-1 .6-1.8.6-2.2 0-2.5-1.3-2.5-3.2 0-1.7.2-3.1 2.5-3.1s2.5 1.5 2.5 3.4h-3.3zm1.6-1c0-.6 0-1.4-.8-1.4s-.8.9-.8 1.4h1.6zm4.5-1.7c.2-.3.4-.5.6-.6.2-.1.5-.2.8-.2.8 0 1.5.5 1.5 1.3v4.9H37v-4.2c0-.5-.1-1-.6-1s-.6.4-.6 1v4.2h-1.7v-6.1h1.7v.7zm9.6-2.2c-.7 0-.8.2-.8.8v.7h.8v1h-.8v5h-1.7v-5H42v-1h.8c0-1.7-.2-2.7 1.9-2.7h.6v1.2zm2.1-1v1.3h-1.7v-1.3h1.7zm0 8.6h-1.7v-6.1h1.7v6.1zm3-5.4c.2-.3.4-.5.6-.6.2-.1.5-.2.8-.2.8 0 1.5.5 1.5 1.3v4.9h-1.7v-4.2c0-.5-.1-1-.6-1s-.6.4-.6 1v4.2h-1.7v-6.1h1.7v.7zm7.3 5.4v-.7c-.3.6-.8.8-1.4.8-1.8 0-1.7-1.9-1.7-3.2 0-1.2 0-3.1 1.7-3.1.6 0 1 .2 1.4.7v-3.2h1.7v8.7h-1.7zm0-3c0-1.2 0-2.1-.7-2.1s-.7.8-.7 2.1c0 1.5.1 2.2.7 2.2.5-.1.7-.7.7-2.2zm7.5-5.6v1.3h-1.7v-1.3h1.7zm0 8.6h-1.7v-6.1h1.7v6.1zm.8-6h.7v-1l1.7-.8v1.7h.9v1h-.9V61c0 .5 0 .8.5.8h.3v1c-.2.2-.4.2-.8.2-1.5 0-1.7-1-1.7-1.3V58H66v-1.1zm9.8 2.1c0-.9-.2-1.2-.8-1.2-.7 0-.8.6-.8 1.9 0 1.8.2 2.2.8 2.2.5 0 .8-.5.8-1.3h1.7c0 1.6-.9 2.4-2.5 2.4-2.2 0-2.5-1.3-2.5-3.2 0-1.7.2-3.1 2.5-3.1 1.6 0 2.4.7 2.4 2.3h-1.6zm5.9 3.9v-4.2c0-.5-.1-1-.6-1s-.6.4-.6 1v4.2h-1.7v-8.7h1.7v3.2c.2-.3.4-.5.6-.6.2-.1.5-.2.8-.2.8 0 1.5.5 1.5 1.3v4.9h-1.7zm7.6-1.1c0 .4 0 .8.1 1.1h-1.6l-.1-.8c-.4.6-.9.9-1.6.9-1.2 0-1.6-.9-1.6-1.9 0-2 1.5-2.1 3.1-2.1v-.5c0-.5-.1-.9-.7-.9s-.6.4-.6.9h-1.7c0-.7.2-1.2.6-1.5.4-.3.9-.4 1.6-.4 2.1 0 2.4.9 2.4 2v3.2zm-3.1-.7c0 .4.1 1 .6 1 1 0 .8-1.3.8-2-.8 0-1.4-.1-1.4 1zm6.4-6.8V63h-1.7v-8.7h1.7zm3.3 0V63h-1.7v-8.7h1.7zm3 5.9c0 .7 0 1.8.8 1.8.6 0 .7-.6.7-1.1h1.7c0 .7-.2 1.2-.6 1.6-.4.4-1 .6-1.8.6-2.2 0-2.5-1.3-2.5-3.2 0-1.7.2-3.1 2.5-3.1s2.5 1.5 2.5 3.4h-3.3zm1.6-1c0-.6 0-1.4-.8-1.4s-.8.9-.8 1.4h1.6zm4.6-1.7c.2-.3.4-.5.6-.6.2-.1.5-.2.8-.2.8 0 1.5.5 1.5 1.3v4.9h-1.7v-4.2c0-.5-.1-1-.6-1s-.6.4-.6 1v4.2h-1.7v-6.1h1.7v.7zm8.9-.6v6.3c0 .4 0 2.1-2.3 2.1-1.3 0-2.3-.3-2.4-1.8h1.7c0 .3 0 .5.1.6.1.2.3.2.6.2.4 0 .6-.4.6-1v-1.2c-.3.5-.7.7-1.3.7-1.9 0-1.8-1.7-1.8-3.1 0-1.3 0-3 1.8-3 .6 0 1.1.3 1.4.8v-.7h1.6zm-2.4 4.9c.6 0 .7-.6.7-1.9 0-1.3-.1-2.1-.7-2.1s-.7.4-.7 2.3c0 .6-.1 1.7.7 1.7zm5.6-7.5v1.3h-1.7v-1.3h1.7zm0 8.6h-1.7v-6.1h1.7v6.1zm3.2-5.4c.2-.3.4-.5.6-.6.2-.1.5-.2.8-.2.8 0 1.5.5 1.5 1.3v4.9h-1.7v-4.2c0-.5-.1-1-.6-1s-.6.4-.6 1v4.2h-1.7v-6.1h1.7v.7zm9-.6v6.3c0 .4 0 2.1-2.3 2.1-1.3 0-2.3-.3-2.4-1.8h1.7c0 .3 0 .5.1.6.1.2.3.2.6.2.4 0 .6-.4.6-1v-1.2c-.3.5-.7.7-1.3.7-1.9 0-1.8-1.7-1.8-3.1 0-1.3 0-3 1.8-3 .6 0 1.1.3 1.4.8v-.7h1.6zm-2.4 4.9c.6 0 .7-.6.7-1.9 0-1.3-.1-2.1-.7-2.1s-.7.4-.7 2.3c-.1.6-.1 1.7.7 1.7zM14.7 71.3h.7v-1l1.7-.8v1.7h.9v1h-.9v3.2c0 .5 0 .8.5.8h.3v1c-.2 0-.5.1-.9.1-1.5 0-1.7-1-1.7-1.3v-3.7h-.7v-1zm3.9 2.9c0-1.7.2-3.1 2.5-3.1 2.2 0 2.5 1.4 2.5 3.1 0 1.9-.3 3.2-2.5 3.2-2.2.1-2.5-1.3-2.5-3.2zm3.2-.1c0-1.3-.1-1.9-.8-1.9-.7 0-.8.6-.8 1.9 0 1.8.2 2.2.8 2.2.7.1.8-.3.8-2.2zm7.4-5.4v8.7h-1.7v-8.7h1.7zm3.4 0V70h-1.7v-1.3h1.7zm0 8.6h-1.7v-6.1h1.7v6.1zm.9-6h1.7l.9 4.5.9-4.5h1.7L37 77.4h-1.9l-1.6-6.1zm7.4 3.3c0 .7 0 1.8.8 1.8.6 0 .7-.6.7-1.1h1.7c0 .7-.2 1.2-.6 1.6-.4.4-1 .6-1.8.6-2.2 0-2.5-1.3-2.5-3.2 0-1.7.2-3.1 2.5-3.1s2.5 1.5 2.5 3.4h-3.3zm1.6-1c0-.6 0-1.4-.8-1.4s-.8.9-.8 1.4h1.6zm7.4-4.9V70h-1.7v-1.3h1.7zm0 8.6h-1.7v-6.1h1.7v6.1zm3.2-5.4c.2-.3.4-.5.6-.6.2-.1.5-.2.8-.2.8 0 1.5.5 1.5 1.3v4.9h-1.7v-4.2c0-.5-.1-1-.6-1s-.6.4-.6 1v4.2h-1.7v-6.1h1.7v.7zm6.4-.6h1.7l.8 4.6 1.2-4.6H65l1.1 4.6.9-4.6h1.6L67 77.4h-1.8l-1.1-4.1-1.2 4.1H61l-1.5-6.1zm9.7 2.9c0-1.7.2-3.1 2.5-3.1 2.2 0 2.5 1.4 2.5 3.1 0 1.9-.3 3.2-2.5 3.2-2.2.1-2.5-1.3-2.5-3.2zm3.3-.1c0-1.3-.1-1.9-.8-1.9-.7 0-.8.6-.8 1.9 0 1.8.2 2.2.8 2.2.6.1.8-.3.8-2.2zm4.5-2.8v.8c.3-.7.9-.9 1.6-.9v1.5c-1.5-.1-1.5.8-1.5 1.4v3.3h-1.7v-6.1H77zm4.2-2.6v8.7h-1.7v-8.7h1.7zm4.5 8.6v-.7c-.3.6-.8.8-1.4.8-1.8 0-1.7-1.9-1.7-3.2 0-1.2 0-3.1 1.7-3.1.6 0 1 .2 1.4.7v-3.2h1.7v8.7h-1.7zm0-3c0-1.2 0-2.1-.7-2.1s-.7.8-.7 2.1c0 1.5.1 2.2.7 2.2.5-.1.7-.7.7-2.2zm7.2-2.4c.4-.5.8-.7 1.5-.7.6 0 1.1.3 1.4.8.4-.5.9-.8 1.6-.8.8 0 1.5.5 1.5 1.3v4.9h-1.7v-4.2c0-.5-.1-1-.6-1s-.6.4-.6 1v4.2h-1.7v-4.2c0-.5-.1-1-.6-1s-.6.4-.6 1v4.2h-1.7v-6.1h1.7v.6zm8.7 2.7c0 .7 0 1.8.8 1.8.6 0 .7-.6.7-1.1h1.7c0 .7-.2 1.2-.6 1.6-.4.4-1 .6-1.8.6-2.2 0-2.5-1.3-2.5-3.2 0-1.7.2-3.1 2.5-3.1s2.5 1.5 2.5 3.4h-3.3zm1.5-1c0-.6 0-1.4-.8-1.4s-.8.9-.8 1.4h1.6zm7.5 2.6c0 .4 0 .8.1 1.1h-1.6l-.1-.8c-.4.6-.9.9-1.6.9-1.2 0-1.6-.9-1.6-1.9 0-2 1.5-2.1 3.1-2.1V73c0-.5-.1-.9-.7-.9s-.6.4-.6.9H106c0-.7.2-1.2.6-1.5.4-.3.9-.4 1.6-.4 2.1 0 2.4.9 2.4 2v3.1zm-3.1-.7c0 .4.1 1 .6 1 1 0 .8-1.3.8-2-.8 0-1.4-.1-1.4 1zm6.2-3.6c.2-.3.4-.5.6-.6.2-.1.5-.2.8-.2.8 0 1.5.5 1.5 1.3v4.9H115v-4.2c0-.5-.1-1-.6-1s-.6.4-.6 1v4.2H112v-6.1h1.7v.7zm3.7-.6h.7v-1l1.7-.8v1.7h.9v1h-.9v3.2c0 .5 0 .8.5.8h.3v1c-.2 0-.5.1-.9.1-1.5 0-1.7-1-1.7-1.3v-3.7h-.7v-1zM18 84.1c-.7 0-.8.2-.8.8v.7h.8v1h-.8v5h-1.7v-5h-.8v-1h.8c0-1.7-.2-2.7 1.9-2.7h.6v1.2zm.6 4.5c0-1.7.2-3.1 2.5-3.1 2.2 0 2.5 1.4 2.5 3.1 0 1.9-.3 3.2-2.5 3.2-2.2.1-2.5-1.3-2.5-3.2zm3.2-.1c0-1.3-.1-1.9-.8-1.9-.7 0-.8.6-.8 1.9 0 1.8.2 2.2.8 2.2.7.1.8-.3.8-2.2zm4.5-2.8v.8c.3-.7.9-.9 1.6-.9v1.5c-1.5-.1-1.5.8-1.5 1.4v3.3h-1.7v-6.1h1.6zm6.7 0v.8c.3-.7.9-.9 1.6-.9v1.5c-1.5-.1-1.5.8-1.5 1.4v3.3h-1.7v-6.1H33zm4.2-2.6v1.3h-1.7v-1.3h1.7zm0 8.6h-1.7v-6.1h1.7v6.1zm6.1-6V92c0 .4 0 2.1-2.3 2.1-1.3 0-2.3-.3-2.4-1.8h1.7c0 .3 0 .5.1.6.1.2.3.2.6.2.4 0 .6-.4.6-1v-1.2c-.3.5-.7.7-1.3.7-1.9 0-1.8-1.7-1.8-3.1 0-1.3 0-3 1.8-3 .6 0 1.1.3 1.4.8v-.7h1.6zM41 90.6c.6 0 .7-.6.7-1.9 0-1.3-.1-2.1-.7-2.1s-.7.4-.7 2.3c-.1.6-.2 1.7.7 1.7zm6.7 1.1v-4.2c0-.5-.1-1-.6-1s-.6.4-.6 1v4.2h-1.7V83h1.7v3.2c.2-.3.4-.5.6-.6.2-.1.5-.2.8-.2.8 0 1.5.5 1.5 1.3v4.9h-1.7zm2.3-6h.7v-1l1.7-.8v1.7h.9v1h-.9V90c0 .5 0 .8.5.8h.3v1c-.2 0-.5.1-.9.1-1.5 0-1.7-1-1.7-1.3v-3.7H50v-1.2zm9.7 6v-4.2c0-.5-.1-1-.6-1s-.6.4-.6 1v4.2h-1.7V83h1.7v3.2c.2-.3.4-.5.6-.6.2-.1.5-.2.8-.2.8 0 1.5.5 1.5 1.3v4.9h-1.7zm7.6-1.1c0 .4 0 .8.1 1.1h-1.6l-.1-.8c-.4.6-.9.9-1.6.9-1.2 0-1.6-.9-1.6-1.9 0-2 1.5-2.1 3.1-2.1v-.5c0-.5-.1-.9-.7-.9s-.6.4-.6.9h-1.7c0-.7.2-1.2.6-1.5.4-.3.9-.4 1.6-.4 2.1 0 2.4.9 2.4 2v3.2zm-3.1-.7c0 .4.1 1 .6 1 1 0 .8-1.3.8-2-.8 0-1.4-.1-1.4 1zm6.2-3.6c.2-.3.4-.5.6-.6.2-.1.5-.2.8-.2.8 0 1.5.5 1.5 1.3v4.9h-1.7v-4.2c0-.5-.1-1-.6-1s-.6.4-.6 1v4.2h-1.7v-6.1h1.7v.7zm7.3 5.4V91c-.3.6-.8.8-1.4.8-1.8 0-1.7-1.9-1.7-3.2 0-1.2 0-3.1 1.7-3.1.6 0 1 .2 1.4.7V83h1.7v8.7h-1.7zm-.1-3c0-1.2 0-2.1-.7-2.1s-.7.8-.7 2.1c0 1.5.1 2.2.7 2.2.6-.1.7-.7.7-2.2zm4.7.3c0 .7 0 1.8.8 1.8.6 0 .7-.6.7-1.1h1.7c0 .7-.2 1.2-.6 1.6-.4.4-1 .6-1.8.6-2.2 0-2.5-1.3-2.5-3.2 0-1.7.2-3.1 2.5-3.1s2.5 1.5 2.5 3.4h-3.3zm1.5-1c0-.6 0-1.4-.8-1.4s-.8.9-.8 1.4h1.6zm4.5-2.3v.8c.3-.7.9-.9 1.6-.9v1.5c-1.5-.1-1.5.8-1.5 1.4v3.3h-1.7v-6.1h1.6zm3.7 4.1c0 .3 0 .5.1.7.1.2.3.3.6.3s.6-.2.6-.6c0-1.3-3-1-3-2.9 0-1.3 1.3-1.7 2.4-1.7 1.2 0 2.2.6 2.1 1.9h-1.7c0-.4 0-.7-.2-.8-.1-.1-.3-.1-.4-.1-.4 0-.6.2-.6.6 0 1 3 .9 3 2.9 0 1.1-.9 1.8-2.3 1.8-1.5 0-2.5-.4-2.4-2.1H92zm5.4.4v1.6H96v-1.6h1.4z" class="st0"/>
</svg>
