<svg xmlns="http://www.w3.org/2000/svg" id="Layer_1" viewBox="0 0 295.7 171">
  <style>
    .Drop_x0020_Shadow{fill:none;} .Outer_x0020_Glow_x0020_5_x0020_pt{fill:none;} .Blue_x0020_Neon{fill:none;stroke:#8AACDA;stroke-width:7;stroke-linecap:round;stroke-linejoin:round;} .Chrome_x0020_Highlight{fill:url(#SVGID_1_);stroke:#FFFFFF;stroke-width:0.3629;stroke-miterlimit:1;} .Jive_GS{fill:#FFDD00;} .Alyssa_GS{fill:#A6D0E4;} .st0{fill:#0A3656;} .st1{fill:#ECD177;} .st2{fill:#ED5A49;} .st3{fill:none;stroke:#0A3656;stroke-width:0.3467;stroke-linecap:round;stroke-linejoin:round;stroke-miterlimit:10;} .st4{fill:#ED5A49;stroke:#ED5A49;stroke-width:0.1444;stroke-miterlimit:10;} .st5{fill:#E9F5FC;} .st6{opacity:0.26;fill:#337D7D;} .st7{fill:none;} .st8{fill:#DDE8F0;stroke:#DDE8F0;stroke-width:0.5;stroke-miterlimit:10;} .st9{fill:none;stroke:#ECD177;stroke-width:0.9;stroke-miterlimit:10;} .st10{fill:none;stroke:#0A3656;stroke-width:2;stroke-linecap:round;stroke-linejoin:round;stroke-miterlimit:10;stroke-dasharray:0,8;} .st11{fill:none;stroke:#ECD177;stroke-width:0.9;stroke-linecap:round;stroke-linejoin:round;stroke-miterlimit:10;} .st12{fill:none;stroke:#ECD177;stroke-linecap:round;stroke-linejoin:round;stroke-miterlimit:10;}
  </style>
  <linearGradient id="SVGID_1_" x1="168.716" x2="168.716" y1="242" y2="241" gradientUnits="userSpaceOnUse">
    <stop offset="0" stop-color="#656565"/>
    <stop offset=".618" stop-color="#1B1B1B"/>
    <stop offset=".629" stop-color="#545454"/>
    <stop offset=".983" stop-color="#3E3E3E"/>
  </linearGradient>
  <g id="germany">
    <path d="M62.3 36.1c-.7-1 1.5-3.7.8-4.7-1-1.4-5.1-.3-6.7-.8-1.6-.6-5.4-3.3-6.5-2-1.4 1.5 3.9 5.5 3.4 7.5-.1 1-3.3.9-3.3 1.9-.1.8 2.6 2 2.6 2s3.7 5.7 2.4 7.1c-.8 1-4-1.7-5.1-1-1.1.7-.6 3.9-1.4 4.9-.7.8-2.7 2-3.6 1.6-.9-.4-.6-3.3-1.4-3.8-1.7-1.1-6.3-.6-7.9.6-1 .7-2.2 3.5-1.8 4.7.2.6 1.8.7 2 1.2 1.2 2.7-2 8.6-2 11.5 0 1.4.5 4.2 0 5.5-.5 1.3-3.1 3-4 4-.6.6-1.4 2.3-2.2 2.6-.9.4-2.9-.2-3.8 0-.6.2-2 .6-2.2 1.2-.6 1.6 2.4 4.7 2.4 6.5s-2.4 4.7-2.4 6.5c-.1 3 4.1 8.5 3.8 11.5-.1 1.4-2.8 3.5-2.6 4.9.2 1.4 3 3.1 3.2 4.5.2 1.2-1.7 3.5-1.2 4.7 1.2 2.9 7.9 5.3 10.7 6.7 1.9 1 7.2 1.2 8.1 3.2 2.2 5-10.1 15.7-7.5 20.5 1.3 2.5 8.4 3.8 10.9 2.6.9-.4.9-3.1 1.8-3.4 4.6-1.6 13.3 10 17.6 7.9 1-.5.9-3.6 1.9-4 1.7-.7 5 2.4 6.8 2.4 3.8 0 10.6-5.2 14.4-5.1 2.2.1 6.2 4.3 8.3 3.4 1.1-.5 1.8-3.3 1.6-4.5-.3-2.2-5.6-4.9-5.3-7.1.6-3.6 11.7-4.5 12.1-8.1.8-6.3-16.2-12.5-16.8-18.8-.1-1.1 2.4-2.6 2.2-3.6-.3-2-6.2-3.1-6.1-5.1.5-6.6 17.6-10.6 24.3-10.9 1.3-.1 3.8 2.3 4.9 1.6 2.5-1.6 3.3-9.2 1.8-11.7-.6-1-3.9-.5-4.6-1.4-2.5-3.3 1.4-12.7-.4-16.4-.9-1.9-6-3.2-6.5-5.3-.3-1.5 2.2-4 2.4-5.5.3-2.1-.5-6.6-1.4-8.5-1.1-2.3-6.9-7.5-6.9-7.5s-4.5-3.2-6.3-3c-5.3.5-15.4 11.1-19.6 7.9-1.3-1 1.6-5.4.6-6.7-1.7-2.5-9.8.2-11.5-2.2z" class="st2"/>
    <path d="M28 102.3v-2.4l5-7.4h2.7v7.8h1.7v2.1h-1.7v2.7H33v-2.7h-5zm2.1-2h3.2v-4.7l-3.2 4.7zm10.8 1.3c0 .4.1 1.7 1.6 1.7 1 0 1.6-.7 1.6-1.7 0-1.9-1.8-1.9-3.1-1.9v-2.1c1.3 0 3.1-.1 3.1-1.9 0-1-.7-1.5-1.5-1.5s-1.5.5-1.5 1.6h-2.8c.1-.6.1-1.4.7-2.1.8-1 2.2-1.4 3.5-1.4 3.2 0 4.2 2.1 4.2 3.4 0 2.1-1.9 2.7-2.4 2.8.4.1.9.3 1.5.8.9.7 1 1.7 1 2.3 0 2.1-1.9 3.7-4.6 3.7-.9 0-2.2-.2-3-.8-1.1-.9-1.2-2.3-1.2-2.8h2.9zm10.8-10.3c2.5 0 2.9 1.6 2.9 3.3 0 .9 0 3.6-3.1 3.6-2.1 0-2.9-1.5-2.9-3.4.1-.9.1-3.5 3.1-3.5zm-.1 5.4c.6 0 1-.4 1-2.1 0-.7-.1-1.9-1-1.9-1.1 0-1.1 1.5-1.1 2 .1 1.4.4 2 1.1 2zm8.2-5.5L53 105.3h-1.4l6.8-14.1h1.4zm.2 7.1c2.5 0 2.9 1.6 2.9 3.3 0 .9 0 3.6-3.1 3.6-2.1 0-2.9-1.5-2.9-3.4.1-1 .1-3.5 3.1-3.5zm-.1 5.4c.6 0 1-.4 1-2.1 0-.7-.1-1.9-1-1.9-1.1 0-1.1 1.4-1.1 2 .1 1.4.3 2 1.1 2z" class="st8"/>
    <path d="M63.5 66.8l2.2-2c.4-.3.8-.7 1.3-1.3.5-.6.6-.8.6-1.2 0-.6-.4-1.1-1-1.1-1 0-1 1-1.1 1.2h-1.8c0-.3 0-1 .5-1.6.5-.6 1.4-.9 2.4-.9 1.8 0 2.8 1 2.8 2.3 0 .9-.3 2-4 4.9h4v1.4h-5.9v-1.7zm6.6-.2V65l3.4-4.9h1.8v5.2h1.1v1.4h-1.1v1.8h-1.8v-1.8h-3.4zm1.3-1.3h2.1v-3.1l-2.1 3.1zm7.8-6c1.7 0 2 1.1 2 2.2 0 .6 0 2.4-2 2.4-1.4 0-1.9-1-1.9-2.3-.2-.6-.1-2.3 1.9-2.3zm-.1 3.6c.4 0 .7-.3.7-1.4 0-.5 0-1.3-.6-1.3-.7 0-.7 1-.7 1.3-.1 1 .1 1.4.6 1.4zm5.5-3.7L80 68.6h-.9l4.6-9.4h.9zm.1 4.8c1.7 0 2 1.1 2 2.2 0 .6 0 2.4-2.1 2.4-1.4 0-1.9-1-1.9-2.3 0-.6 0-2.3 2-2.3zm-.1 3.6c.4 0 .7-.3.7-1.4 0-.5 0-1.3-.7-1.3s-.7 1-.7 1.3c.1 1 .2 1.4.7 1.4zm1.5 18.7c0 .3.1 1.1 1.1 1.1.7 0 1.1-.5 1.1-1.1 0-1.2-1.2-1.2-2.1-1.2v-1.4c.8 0 2.1 0 2.1-1.2 0-.7-.5-1-1-1s-1 .3-1 1h-1.8c0-.4.1-.9.5-1.4.6-.7 1.4-.9 2.3-.9 2.1 0 2.8 1.4 2.8 2.3 0 1.4-1.2 1.8-1.6 1.9.3.1.6.2 1 .5.6.5.7 1.1.7 1.5 0 1.4-1.3 2.5-3 2.5-.6 0-1.5-.1-2-.6-.7-.6-.8-1.6-.8-1.9h1.7zm6.7 0c0 .3.1 1.1 1.1 1.1.7 0 1.1-.5 1.1-1.1 0-1.2-1.2-1.2-2.1-1.2v-1.4c.8 0 2.1 0 2.1-1.2 0-.7-.5-1-1-1s-1 .3-1 1h-1.8c0-.4.1-.9.5-1.4.6-.7 1.4-.9 2.3-.9 2.1 0 2.8 1.4 2.8 2.3 0 1.4-1.2 1.8-1.6 1.9.3.1.6.2 1 .5.6.5.7 1.1.7 1.5 0 1.4-1.3 2.5-3 2.5-.6 0-1.5-.1-2-.6-.9-.7-.9-1.6-.9-2h1.8zm7.2-6.8c1.7 0 2 1.1 2 2.2 0 .6 0 2.4-2 2.4-1.4 0-1.9-1-1.9-2.3-.1-.6-.1-2.3 1.9-2.3zm-.1 3.6c.4 0 .7-.3.7-1.4 0-.5 0-1.3-.6-1.3-.7 0-.7 1-.7 1.3 0 1 .1 1.4.6 1.4zm5.5-3.7l-4.6 9.4h-.9l4.6-9.4h.9zm.1 4.7c1.7 0 2 1.1 2 2.2 0 .6 0 2.4-2.1 2.4-1.4 0-1.9-1-1.9-2.3 0-.6 0-2.3 2-2.3zm-.1 3.6c.4 0 .7-.3.7-1.4 0-.5 0-1.3-.7-1.3s-.7 1-.7 1.3c.1 1 .2 1.4.7 1.4z" class="st5"/>
    <path d="M84 56.1h70.9" class="st10"/>
    <path d="M159.9 57.1c-.2.5-.5.7-1 .7-.9 0-1.1-.6-1.1-1.3 0-1.2 1.2-1.3 2.1-1.3 0-.5 0-1.1-.7-1.1-.4 0-.7.3-.6.7h-.7c0-.9.5-1.2 1.4-1.2 1 0 1.3.5 1.3 1.2v1.9c0 .3 0 .6.1 1h-.7v-.6zm-1.5-.6c0 .4.2.7.6.7.4 0 .9-.2.8-1.6-.5.1-1.4 0-1.4.9zm4.1-2.2c.3-.6.6-.7 1.3-.7v.7h-.4c-.7 0-.9.6-.9 1.1v2.4h-.7v-4h.7v.5zm2.6 1.6c0 1.1.3 1.4.8 1.4.4 0 .7-.4.7-.8h.7c0 .9-.6 1.3-1.4 1.3-.9 0-1.5-.3-1.5-2 0-1.2.1-2.2 1.5-2.2 1.2 0 1.4.6 1.4 2v.3h-2.2zm1.6-.5c0-1.2-.3-1.3-.8-1.3-.4 0-.8.2-.8 1.3h1.6zm4.3-1.1c.3-.6.6-.7 1.3-.7v.7h-.4c-.7 0-.9.6-.9 1.1v2.4h-.7v-4h.7v.5zm1.9-2.4h.7v.7h-.7v-.7zm.7 5.8h-.7v-4h.7v4zm3.2-4h.7v4.4c0 .9-.6 1.1-1.5 1.1-.7 0-1.3-.3-1.2-1.1h.7c0 .4.3.6.6.6.5 0 .7-.3.7-.7v-.8c-.2.3-.5.5-.9.5-1.1 0-1.3-.9-1.3-2.1 0-1.9.9-2 1.3-2s.8.2.9.6v-.5zm-.7.4c-.7 0-.8.9-.8 1.4 0 1.3.3 1.6.8 1.6.8 0 .8-.9.8-1.5 0-.5 0-1.5-.8-1.5zm4.8 3.6V55c0-.5-.2-.8-.7-.8-.7 0-.8.5-.8 1.2v2.4h-.7V52h.7v2.3c.3-.5.6-.6 1.1-.6.7 0 1.1.3 1.1 1.3v2.9h-.7zm1.9-4v-.8l.7-.3v1.1h.9v.5h-.9v2.5c0 .3 0 .6.6.6h.3v.5c-.2 0-.4.1-.6.1-.6 0-.9-.3-.9-.7v-2.9h-.7v-.5h.6zm2 1.5h1.8v.6h-1.8v-.6zm3.5 2.5h-.7v-5.8h.7V54c.2-.3.5-.5.9-.5 1.3 0 1.3 1.2 1.3 2.2 0 1.8-.7 2-1.3 2-.4 0-.7-.2-.9-.6v.6zm.7-.5c.8 0 .8-.9.8-1.5 0-1.1-.1-1.6-.8-1.6-.7 0-.8.9-.8 1.4.1.6 0 1.7.8 1.7zm3.3-2.9c.3-.6.6-.7 1.3-.7v.7h-.4c-.7 0-.9.6-.9 1.1v2.4h-.7v-4h.7v.5zm4 2.8c-.2.5-.5.7-1 .7-.9 0-1.1-.6-1.1-1.3 0-1.2 1.2-1.3 2.1-1.3 0-.5 0-1.1-.7-1.1-.4 0-.7.3-.6.7h-.7c0-.9.5-1.2 1.4-1.2 1 0 1.3.5 1.3 1.2v1.9c0 .3 0 .6.1 1h-.7v-.6zm-1.4-.6c0 .4.2.7.6.7.4 0 .9-.2.8-1.6-.6.1-1.4 0-1.4.9zm3.3-4.6h.7v.7h-.7v-.7zm.7 5.8h-.7v-4h.7v4zm3.3 0v-2.8c0-.4-.2-.8-.7-.8-.7 0-.8.6-.8 1.2v2.4h-.7v-4h.7v.5c.3-.5.6-.6 1.1-.6.9 0 1.1.5 1.1 1.3v2.8h-.7zm2.5-1.8c0 1.1.3 1.4.8 1.4.4 0 .7-.4.7-.8h.7c0 .9-.6 1.3-1.4 1.3-.9 0-1.5-.3-1.5-2 0-1.2.1-2.2 1.5-2.2 1.2 0 1.4.6 1.4 2v.3h-2.2zm1.6-.5c0-1.2-.3-1.3-.8-1.3-.4 0-.8.2-.8 1.3h1.6zm3.9-3.5h.7v5.8h-.7v-.5c-.2.4-.5.6-.9.6-.6 0-1.3-.3-1.3-2 0-1 0-2.2 1.3-2.2.4 0 .7.2.9.5v-2.2zm-.8 2.2c-.7 0-.8.6-.8 1.6 0 .6 0 1.5.8 1.5.7 0 .7-.9.7-1.7.1-.5 0-1.4-.7-1.4zm-54.6 36.2c0-1.2.1-2.2 1.5-2.2s1.5 1 1.5 2.2c0 1.8-.7 2-1.5 2s-1.5-.2-1.5-2zm2.4-.2c0-1.1-.3-1.3-.8-1.3s-.8.2-.8 1.3c0 1.3.2 1.8.8 1.8s.8-.5.8-1.8zm1.8-1.8v-.8c0-.8.6-1 1.2-1h.3v.5c-.7 0-.8.2-.8.6v.7h.8v.5h-.8v3.5h-.7v-3.5h-.6v-.5h.6zm4.6.4c.2-.4.5-.6.9-.6.6 0 1.3.3 1.3 2 0 1 0 2.2-1.3 2.2-.4 0-.7-.2-.9-.5v1.9h-.6v-5.6h.7v.6zm1.6 1.5c0-.6 0-1.5-.8-1.5s-.7 1.1-.7 1.7c0 .5 0 1.4.8 1.4.6 0 .7-.5.7-1.6zm3.8 1.5c-.2.5-.5.7-1 .7-.9 0-1.1-.6-1.1-1.3 0-1.2 1.2-1.3 2.1-1.3 0-.5 0-1.1-.7-1.1-.4 0-.7.3-.6.7h-.7c0-.9.5-1.2 1.4-1.2 1 0 1.3.5 1.3 1.2v1.9c0 .3 0 .6.1 1h-.8v-.6zm-1.5-.6c0 .4.2.7.6.7.4 0 .9-.2.8-1.6-.5.1-1.4 0-1.4.9zm4.1-2.2c.3-.6.6-.7 1.3-.7v.7h-.4c-.7 0-.9.6-.9 1.1v2.4h-.6v-4h.7v.5zm2.1-.6v-.8l.7-.3v1.1h.9v.5h-.9v2.5c0 .3 0 .6.6.6h.3v.5c-.2 0-.4.1-.6.1-.6 0-.9-.3-.9-.7v-2.9h-.8v-.5h.7zm2.1-1.8h.7v.7h-.7v-.7zm.7 5.8h-.7v-4h.7v4zm3.2-2.7c0-.7-.3-.8-.6-.8-.5 0-.8.2-.8 1.3 0 1.3.2 1.8.8 1.8.2 0 .6-.2.6-.9h.7c0 1.1-.8 1.4-1.3 1.4-.9 0-1.5-.3-1.5-2 0-1.2.1-2.2 1.5-2.2.8 0 1.3.5 1.2 1.4h-.6zm1.8-3.1h.7v.7h-.7v-.7zm.7 5.8h-.7v-4h.7v4zm1.9-3.6c.2-.4.5-.6.9-.6.6 0 1.3.3 1.3 2 0 1 0 2.2-1.3 2.2-.4 0-.7-.2-.9-.5v1.9h-.7v-5.6h.7v.6zm1.5 1.5c0-.6 0-1.5-.8-1.5s-.7 1.1-.7 1.7c0 .5 0 1.4.8 1.4.6 0 .7-.5.7-1.6zm3.8 1.5c-.2.5-.5.7-1 .7-.9 0-1.1-.6-1.1-1.3 0-1.2 1.2-1.3 2.1-1.3 0-.5 0-1.1-.7-1.1-.4 0-.7.3-.6.7h-.7c0-.9.5-1.2 1.4-1.2 1 0 1.3.5 1.3 1.2v1.9c0 .3 0 .6.1 1h-.7v-.6zm-1.4-.6c0 .4.2.7.6.7.4 0 .9-.2.8-1.6-.6.1-1.4 0-1.4.9zm5.6 1.2v-2.8c0-.4-.2-.8-.7-.8-.7 0-.8.6-.8 1.2v2.4h-.7v-4h.7v.5c.3-.5.6-.6 1.1-.6.9 0 1.1.5 1.1 1.3v2.8h-.7zm1.8-4v-.8l.7-.3v1.1h.9v.5h-.9v2.5c0 .3 0 .6.6.6h.3v.5c-.2 0-.4.1-.6.1-.6 0-.9-.3-.9-.7v-2.9h-.7v-.5h.6zm3.4 4.1c-.9 0-1.4-.4-1.4-1.3h.7c0 .2 0 .8.7.8.4 0 .7-.2.7-.6 0-.7-2-.7-2-1.9 0-.4.3-1.1 1.4-1.1.7 0 1.3.3 1.3 1.1h-.7c0-.4-.2-.6-.6-.6-.4 0-.6.2-.6.5 0 .7 2 .7 2 1.9-.1.8-.7 1.2-1.5 1.2zm2.5-.9h.8l-.7 1.8h-.5l.4-1.8zm3.5-3.2v-.8l.7-.3v1.1h.9v.5h-.9v2.5c0 .3 0 .6.6.6h.3v.5c-.2 0-.4.1-.6.1-.6 0-.9-.3-.9-.7v-2.9h-.7v-.5h.6zm4.3 4v-2.7c0-.5-.2-.8-.7-.8-.7 0-.8.5-.8 1.2v2.4h-.7v-5.8h.7v2.3c.3-.5.6-.6 1.1-.6.7 0 1.1.3 1.1 1.3v2.9h-.7zm2.5-1.8c0 1.1.3 1.4.8 1.4.4 0 .7-.4.7-.8h.7c0 .9-.6 1.3-1.4 1.3-.9 0-1.5-.3-1.5-2 0-1.2.1-2.2 1.5-2.2 1.2 0 1.4.6 1.4 2v.3h-2.2zm1.5-.5c0-1.2-.3-1.3-.8-1.3-.4 0-.8.2-.8 1.3h1.6zm3.7-1.7v-.8l.7-.3v1.1h.9v.5h-.9v2.5c0 .3 0 .6.6.6h.3v.5c-.2 0-.4.1-.6.1-.6 0-.9-.3-.9-.7v-2.9h-.7v-.5h.6z" class="st0"/>
    <path d="M218.4 88.3h.7l.7 3.5.9-3.5h.9l.8 3.5.8-3.5h.7l-1.1 4h-.9l-.9-3.4-.9 3.4h-.9l-.8-4zm6.2 2c0-1.2.1-2.2 1.5-2.2s1.5 1 1.5 2.2c0 1.8-.7 2-1.5 2s-1.5-.2-1.5-2zm2.4-.2c0-1.1-.3-1.3-.8-1.3s-.8.2-.8 1.3c0 1.3.2 1.8.8 1.8s.8-.5.8-1.8zm5.7 2.2v-2.7c0-.5-.2-.8-.7-.8-.7 0-.8.5-.8 1.2v2.4h-.7v-5.8h.7v2.3c.3-.5.6-.6 1.1-.6.7 0 1.1.3 1.1 1.3v2.9h-.7zm2.4-1.8c0 1.1.3 1.4.8 1.4.4 0 .7-.4.7-.8h.7c0 .9-.6 1.3-1.4 1.3-.9 0-1.5-.3-1.5-2 0-1.2.1-2.2 1.5-2.2 1.2 0 1.4.6 1.4 2v.3h-2.2zm1.6-.5c0-1.2-.3-1.3-.8-1.3-.4 0-.8.2-.8 1.3h1.6zm3.8 2.3v-2.8c0-.4-.1-.8-.6-.8-.2 0-.5.1-.6.3-.1.2-.2.4-.2.6v2.7h-.7v-4h.7v.5c.2-.4.5-.6 1-.6.4 0 .8.2.9.5.2-.4.6-.5 1-.5s1.1.1 1.1 1v3.1h-.7v-2.8c0-.4-.1-.8-.6-.8-.2 0-.3 0-.5.2s-.2.6-.2.7v2.7h-.6zm3.7-5.8h.7v.7h-.7v-.7zm.7 5.8h-.7v-4h.7v4zm2.3.1c-.9 0-1.4-.4-1.4-1.3h.7c0 .2 0 .8.7.8.4 0 .7-.2.7-.6 0-.7-2-.7-2-1.9 0-.4.3-1.1 1.4-1.1.7 0 1.3.3 1.3 1.1h-.7c0-.4-.2-.6-.6-.6-.4 0-.6.2-.6.5 0 .7 2 .7 2 1.9-.1.8-.7 1.2-1.5 1.2zm3.1-3.7c.2-.4.5-.6.9-.6.6 0 1.3.3 1.3 2 0 1 0 2.2-1.3 2.2-.4 0-.7-.2-.9-.5v1.9h-.7v-5.6h.7v.6zm1.5 1.5c0-.6 0-1.5-.8-1.5s-.7 1.1-.7 1.7c0 .5 0 1.4.8 1.4.7 0 .7-.5.7-1.6zm4 2.1v-2.7c0-.5-.2-.8-.7-.8-.7 0-.8.5-.8 1.2v2.4h-.7v-5.8h.7v2.3c.3-.5.6-.6 1.1-.6.7 0 1.1.3 1.1 1.3v2.9h-.7zm2.4-1.8c0 1.1.3 1.4.8 1.4.4 0 .7-.4.7-.8h.7c0 .9-.6 1.3-1.4 1.3-.9 0-1.5-.3-1.5-2 0-1.2.1-2.2 1.5-2.2 1.2 0 1.4.6 1.4 2v.3h-2.2zm1.6-.5c0-1.2-.3-1.3-.8-1.3-.4 0-.8.2-.8 1.3h1.6zm2.5-1.1c.3-.6.6-.7 1.3-.7v.7h-.4c-.7 0-.9.6-.9 1.1v2.4h-.7v-4h.7v.5zm2.6 1.6c0 1.1.3 1.4.8 1.4.4 0 .7-.4.7-.8h.7c0 .9-.6 1.3-1.4 1.3-.9 0-1.5-.3-1.5-2 0-1.2.1-2.2 1.5-2.2 1.2 0 1.4.6 1.4 2v.3h-2.2zm1.6-.5c0-1.2-.3-1.3-.8-1.3-.4 0-.8.2-.8 1.3h1.6zm2.9 2.4c-.9 0-1.4-.4-1.4-1.3h.7c0 .2 0 .8.7.8.4 0 .7-.2.7-.6 0-.7-2-.7-2-1.9 0-.4.3-1.1 1.4-1.1.7 0 1.3.3 1.3 1.1h-.7c0-.4-.2-.6-.6-.6-.4 0-.6.2-.6.5 0 .7 2 .7 2 1.9-.1.8-.7 1.2-1.5 1.2zm-113.8 7.7c0 1.1.3 1.4.8 1.4.4 0 .7-.4.7-.8h.7c0 .9-.6 1.3-1.4 1.3-.9 0-1.5-.3-1.5-2 0-1.2.1-2.2 1.5-2.2 1.2 0 1.4.6 1.4 2v.3h-2.2zm1.5-.5c0-1.2-.3-1.3-.8-1.3-.4 0-.8.2-.8 1.3h1.6zm4.7 2.3h-.8l-.9-1.7-.9 1.7h-.8l1.3-2.1-1.2-1.9h.8l.8 1.4.8-1.4h.8l-1.2 1.9 1.3 2.1zm1.3-1.8c0 1.1.3 1.4.8 1.4.4 0 .7-.4.7-.8h.7c0 .9-.6 1.3-1.4 1.3-.9 0-1.5-.3-1.5-2 0-1.2.1-2.2 1.5-2.2 1.2 0 1.4.6 1.4 2v.3h-2.2zm1.6-.5c0-1.2-.3-1.3-.8-1.3-.4 0-.8.2-.8 1.3h1.6zm2.5-1.1c.3-.6.6-.7 1.3-.7v.7h-.4c-.7 0-.9.6-.9 1.1v2.4h-.7v-4h.7v.5zm2-.6v-.8l.7-.3v1.1h.9v.5h-.9v2.5c0 .3 0 .6.6.6h.3v.5c-.2 0-.4.1-.6.1-.6 0-.9-.3-.9-.7v-2.9h-.7V98h.6zm4.6 2.2c0 1.1.3 1.4.8 1.4.4 0 .7-.4.7-.8h.7c0 .9-.6 1.3-1.4 1.3-.9 0-1.5-.3-1.5-2 0-1.2.1-2.2 1.5-2.2 1.2 0 1.4.6 1.4 2v.3h-2.2zm1.6-.5c0-1.2-.3-1.3-.8-1.3-.4 0-.8.2-.8 1.3h1.6zm3.9-1.7h.7v5.6h-.7v-1.9c-.2.3-.5.5-.9.5-1.3 0-1.3-1.2-1.3-2.2 0-1.8.7-2 1.3-2 .4 0 .7.2.9.6v-.6zm0 2.2c0-.6.1-1.7-.7-1.7-.8 0-.8.9-.8 1.5 0 1.1.1 1.6.8 1.6.6-.1.7-.9.7-1.4zm4-2.2h.7v4h-.7v-.5c-.2.4-.6.6-1 .6-.7 0-1.1-.4-1.1-1v-3.1h.7v2.8c0 .5.2.8.7.8.4 0 .8-.3.8-.9v-2.7zm3.9 3.4c-.2.5-.5.7-1 .7-.9 0-1.1-.6-1.1-1.3 0-1.2 1.2-1.3 2.1-1.3 0-.5 0-1.1-.7-1.1-.4 0-.7.3-.6.7h-.7c0-.9.5-1.2 1.4-1.2 1 0 1.3.5 1.3 1.2v1.9c0 .3 0 .6.1 1h-.7v-.6zm-1.5-.6c0 .4.2.7.6.7.4 0 .9-.2.8-1.6-.5.1-1.4 0-1.4.9zm4.1 1.2h-.7v-5.8h.7v5.8zm2.8-5.8h.7v.7h-.7v-.7zm.7 5.8h-.7v-4h.7v4zm3.4 0v-2.8c0-.4-.2-.8-.7-.8-.7 0-.8.6-.8 1.2v2.4h-.7v-4h.7v.5c.3-.5.6-.6 1.1-.6.9 0 1.1.5 1.1 1.3v2.8h-.7zm1.9-4v-.8c0-.8.6-1 1.2-1h.3v.5c-.7 0-.8.2-.8.6v.7h.8v.5h-.8v3.5h-.7v-3.5h-.6v-.5h.6zm2.7 4h-.7v-5.8h.7v5.8zm3.3-4h.7v4h-.7v-.5c-.2.4-.6.6-1 .6-.7 0-1.1-.4-1.1-1v-3.1h.7v2.8c0 .5.2.8.7.8.4 0 .8-.3.8-.9v-2.7zm2.5 2.2c0 1.1.3 1.4.8 1.4.4 0 .7-.4.7-.8h.7c0 .9-.6 1.3-1.4 1.3-.9 0-1.5-.3-1.5-2 0-1.2.1-2.2 1.5-2.2 1.2 0 1.4.6 1.4 2v.3h-2.2zm1.6-.5c0-1.2-.3-1.3-.8-1.3-.4 0-.8.2-.8 1.3h1.6zm4 2.3v-2.8c0-.4-.2-.8-.7-.8-.7 0-.8.6-.8 1.2v2.4h-.7v-4h.7v.5c.3-.5.6-.6 1.1-.6.9 0 1.1.5 1.1 1.3v2.8h-.7zm3.9-2.7c0-.7-.3-.8-.6-.8-.5 0-.8.2-.8 1.3 0 1.3.2 1.8.8 1.8.2 0 .6-.2.6-.9h.7c0 1.1-.8 1.4-1.3 1.4-.9 0-1.5-.3-1.5-2 0-1.2.1-2.2 1.5-2.2.8 0 1.3.5 1.2 1.4h-.6zm2.5.9c0 1.1.3 1.4.8 1.4.4 0 .7-.4.7-.8h.7c0 .9-.6 1.3-1.4 1.3-.9 0-1.5-.3-1.5-2 0-1.2.1-2.2 1.5-2.2 1.2 0 1.4.6 1.4 2v.3h-2.2zm1.6-.5c0-1.2-.3-1.3-.8-1.3-.4 0-.8.2-.8 1.3h1.6zm3.4.3c0-1.2.1-2.2 1.5-2.2s1.5 1 1.5 2.2c0 1.8-.7 2-1.5 2s-1.5-.2-1.5-2zm2.4-.2c0-1.1-.3-1.3-.8-1.3s-.8.2-.8 1.3c0 1.3.2 1.8.8 1.8s.8-.5.8-1.8zm3.9 2.2v-2.8c0-.4-.2-.8-.7-.8-.7 0-.8.6-.8 1.2v2.4h-.7v-4h.7v.5c.3-.5.6-.6 1.1-.6.9 0 1.1.5 1.1 1.3v2.8h-.7zm5.8-5.8h.7v5.8h-.7v-.5c-.2.4-.5.6-.9.6-.6 0-1.3-.3-1.3-2 0-1 0-2.2 1.3-2.2.4 0 .7.2.9.5v-2.2zm-.8 2.2c-.7 0-.8.6-.8 1.6 0 .6 0 1.5.8 1.5.7 0 .7-.9.7-1.7.1-.5 0-1.4-.7-1.4zm3.3 1.8c0 1.1.3 1.4.8 1.4.4 0 .7-.4.7-.8h.7c0 .9-.6 1.3-1.4 1.3-.9 0-1.5-.3-1.5-2 0-1.2.1-2.2 1.5-2.2 1.2 0 1.4.6 1.4 2v.3h-2.2zm1.5-.5c0-1.2-.3-1.3-.8-1.3-.4 0-.8.2-.8 1.3h1.6zm3.9-.4c0-.7-.3-.8-.6-.8-.5 0-.8.2-.8 1.3 0 1.3.2 1.8.8 1.8.2 0 .6-.2.6-.9h.7c0 1.1-.8 1.4-1.3 1.4-.9 0-1.5-.3-1.5-2 0-1.2.1-2.2 1.5-2.2.8 0 1.3.5 1.2 1.4h-.6zm1.9-3.1h.7v.7h-.7v-.7zm.7 5.8h-.7v-4h.7v4zm2.3.1c-.9 0-1.4-.4-1.4-1.3h.7c0 .2 0 .8.7.8.4 0 .7-.2.7-.6 0-.7-2-.7-2-1.9 0-.4.3-1.1 1.4-1.1.7 0 1.3.3 1.3 1.1h-.7c0-.4-.2-.6-.6-.6-.4 0-.6.2-.6.5 0 .7 2 .7 2 1.9-.1.8-.7 1.2-1.5 1.2zm2.3-5.9h.7v.7h-.7v-.7zm.7 5.8h-.7v-4h.7v4zm1-2c0-1.2.1-2.2 1.5-2.2s1.5 1 1.5 2.2c0 1.8-.7 2-1.5 2s-1.5-.2-1.5-2zm2.4-.2c0-1.1-.3-1.3-.8-1.3s-.8.2-.8 1.3c0 1.3.2 1.8.8 1.8s.8-.5.8-1.8zm3.9 2.2v-2.8c0-.4-.2-.8-.7-.8-.7 0-.8.6-.8 1.2v2.4h-.7v-4h.7v.5c.3-.5.6-.6 1.1-.6.9 0 1.1.5 1.1 1.3v2.8h-.7zm1.7-2.5h1.8v.6H261v-.6zm4.8 2.5v-2.8c0-.4-.1-.8-.6-.8-.2 0-.5.1-.6.3-.1.2-.2.4-.2.6v2.7h-.7v-4h.7v.5c.2-.4.5-.6 1-.6.4 0 .8.2.9.5.2-.4.6-.5 1-.5s1.1.1 1.1 1v3.1h-.7v-2.8c0-.4-.1-.8-.6-.8-.2 0-.3 0-.5.2s-.2.6-.2.7v2.7h-.6zm5.8-.6c-.2.5-.5.7-1 .7-.9 0-1.1-.6-1.1-1.3 0-1.2 1.2-1.3 2.1-1.3 0-.5 0-1.1-.7-1.1-.4 0-.7.3-.6.7h-.7c0-.9.5-1.2 1.4-1.2 1 0 1.3.5 1.3 1.2v1.9c0 .3 0 .6.1 1h-.7v-.6zm-1.4-.6c0 .4.2.7.6.7.4 0 .9-.2.8-1.6-.6.1-1.4 0-1.4.9zm4 1.2h-.7v-5.8h.7v3.5l1.2-1.7h.8l-1.3 1.7 1.6 2.3h-.8l-1.4-2.3v2.3zm2.9-5.8h.7v.7h-.7v-.7zm.7 5.8h-.7v-4h.7v4zm3.3 0v-2.8c0-.4-.2-.8-.7-.8-.7 0-.8.6-.8 1.2v2.4h-.7v-4h.7v.5c.3-.5.6-.6 1.1-.6.9 0 1.1.5 1.1 1.3v2.8h-.7zm3.9-4h.7v4.4c0 .9-.6 1.1-1.5 1.1-.7 0-1.3-.3-1.2-1.1h.7c0 .4.3.6.6.6.5 0 .7-.3.7-.7v-.8c-.2.3-.5.5-.9.5-1.1 0-1.3-.9-1.3-2.1 0-1.9.9-2 1.3-2s.8.2.9.6v-.5zm-.7.4c-.7 0-.8.9-.8 1.4 0 1.3.3 1.6.8 1.6.8 0 .8-.9.8-1.5-.1-.5 0-1.5-.8-1.5z" class="st0"/>
    <path d="M106.4 162l-34.5 4.3c-3.8.5-7.3-2-8.3-5.7l-12.2-49.9" class="st10"/>
    <path d="M112 161.9c0-1.2.1-2.2 1.5-2.2s1.5 1 1.5 2.2c0 1.8-.7 2-1.5 2s-1.5-.2-1.5-2zm2.4-.3c0-1.1-.3-1.3-.8-1.3s-.8.2-.8 1.3c0 1.3.2 1.8.8 1.8s.8-.5.8-1.8zm1.8-1.8v-.8c0-.8.6-1 1.2-1h.3v.5c-.7 0-.8.2-.8.6v.7h.8v.5h-.8v3.5h-.7v-3.5h-.6v-.5h.6zm6.7-.2c0-.7-.3-1-1-1-.2 0-1.1 0-1.1 1.2v2c0 1.3.4 1.6 1.1 1.6.5 0 .9-.1 1-.3v-1.7h-1.1v-.6h1.8v2.8c-.5.3-1 .4-1.8.4-1.2 0-1.8-.6-1.8-2.2v-1.9c0-1.2.6-1.9 1.8-1.9 1.2 0 1.8.5 1.8 1.7h-.7zm2.7 2.4c0 1.1.3 1.4.8 1.4.4 0 .7-.4.7-.8h.7c0 .9-.6 1.3-1.4 1.3-.9 0-1.5-.3-1.5-2 0-1.2.1-2.2 1.5-2.2 1.2 0 1.4.6 1.4 2v.3h-2.2zm1.6-.5c0-1.2-.3-1.3-.8-1.3-.4 0-.8.2-.8 1.3h1.6zm2.5-1.1c.3-.6.6-.7 1.3-.7v.7h-.4c-.7 0-.9.6-.9 1.1v2.4h-.7v-4h.7v.5zm3.9 3.5v-2.8c0-.4-.1-.8-.6-.8-.2 0-.5.1-.6.3-.1.2-.2.4-.2.6v2.7h-.7v-4h.7v.5c.2-.4.5-.6 1-.6.4 0 .8.2.9.5.2-.4.6-.5 1-.5s1.1.1 1.1 1v3.1h-.7v-2.8c0-.4-.1-.8-.6-.8-.2 0-.3 0-.5.2s-.2.6-.2.7v2.7h-.6zm5.9-.6c-.2.5-.5.7-1 .7-.9 0-1.1-.6-1.1-1.3 0-1.2 1.2-1.3 2.1-1.3 0-.5 0-1.1-.7-1.1-.4 0-.7.3-.6.7h-.7c0-.9.5-1.2 1.4-1.2 1 0 1.3.5 1.3 1.2v1.9c0 .3 0 .6.1 1h-.7v-.6zm-1.5-.6c0 .4.2.7.6.7.4 0 .9-.2.8-1.6-.5.1-1.4 0-1.4.9zm5.6 1.2v-2.8c0-.4-.2-.8-.7-.8-.7 0-.8.6-.8 1.2v2.4h-.7v-4h.7v.5c.3-.5.6-.6 1.1-.6.9 0 1.1.5 1.1 1.3v2.8h-.7zm3 0c-.9 0-1.4-.4-1.4-1.3h.7c0 .2 0 .8.7.8.4 0 .7-.2.7-.6 0-.7-2-.7-2-1.9 0-.4.3-1.1 1.4-1.1.7 0 1.3.3 1.3 1.1h-.7c0-.4-.2-.6-.6-.6-.4 0-.6.2-.6.5 0 .7 2 .7 2 1.9-.1.9-.7 1.2-1.5 1.2zm6.2-.6c-.2.5-.5.7-1 .7-.9 0-1.1-.6-1.1-1.3 0-1.2 1.2-1.3 2.1-1.3 0-.5 0-1.1-.7-1.1-.4 0-.7.3-.6.7h-.7c0-.9.5-1.2 1.4-1.2 1 0 1.3.5 1.3 1.2v1.9c0 .3 0 .6.1 1h-.7v-.6zm-1.4-.6c0 .4.2.7.6.7.4 0 .9-.2.8-1.6-.6.1-1.4 0-1.4.9zm4-2.3c.3-.6.6-.7 1.3-.7v.7h-.4c-.7 0-.9.6-.9 1.1v2.4h-.7v-4h.7v.5zm2.7 1.6c0 1.1.3 1.4.8 1.4.4 0 .7-.4.7-.8h.7c0 .9-.6 1.3-1.4 1.3-.9 0-1.5-.3-1.5-2 0-1.2.1-2.2 1.5-2.2 1.2 0 1.4.6 1.4 2v.3h-2.2zm1.5-.5c0-1.2-.3-1.3-.8-1.3-.4 0-.8.2-.8 1.3h1.6zm4.2 2.4h-.7v-5.8h.7v5.8zm1.8-1.9c0 1.1.3 1.4.8 1.4.4 0 .7-.4.7-.8h.7c0 .9-.6 1.3-1.4 1.3-.9 0-1.5-.3-1.5-2 0-1.2.1-2.2 1.5-2.2 1.2 0 1.4.6 1.4 2v.3h-2.2zm1.6-.5c0-1.2-.3-1.3-.8-1.3-.4 0-.8.2-.8 1.3h1.6zm1.9-1.7v-.8c0-.8.6-1 1.2-1h.3v.5c-.7 0-.8.2-.8.6v.7h.8v.5h-.8v3.5h-.7v-3.5h-.6v-.5h.6zm2.2 0v-.8l.7-.3v1.1h.9v.5h-.9v2.5c0 .3 0 .6.6.6h.3v.5c-.2 0-.4.1-.6.1-.6 0-.9-.3-.9-.7v-2.9h-.7v-.5h.6zm2 1.6h1.8v.6h-1.8v-.6zm3.5 2.5h-.7v-5.8h.7v2.1c.2-.3.5-.5.9-.5 1.3 0 1.3 1.2 1.3 2.2 0 1.8-.7 2-1.3 2-.4 0-.7-.2-.9-.6v.6zm.7-.5c.8 0 .8-.9.8-1.5 0-1.1-.1-1.6-.8-1.6-.7 0-.8.9-.8 1.4.1.6 0 1.7.8 1.7zm3.3-3c.3-.6.6-.7 1.3-.7v.7h-.4c-.7 0-.9.6-.9 1.1v2.4h-.7v-4h.7v.5zm4 2.9c-.2.5-.5.7-1 .7-.9 0-1.1-.6-1.1-1.3 0-1.2 1.2-1.3 2.1-1.3 0-.5 0-1.1-.7-1.1-.4 0-.7.3-.6.7h-.7c0-.9.5-1.2 1.4-1.2 1 0 1.3.5 1.3 1.2v1.9c0 .3 0 .6.1 1h-.7v-.6zm-1.4-.6c0 .4.2.7.6.7.4 0 .9-.2.8-1.6-.6.1-1.4 0-1.4.9zm3.3-4.6h.7v.7h-.7v-.7zm.7 5.8h-.7v-4h.7v4zm3.3 0v-2.8c0-.4-.2-.8-.7-.8-.7 0-.8.6-.8 1.2v2.4h-.7v-4h.7v.5c.3-.5.6-.6 1.1-.6.9 0 1.1.5 1.1 1.3v2.8h-.7zm2.5-1.9c0 1.1.3 1.4.8 1.4.4 0 .7-.4.7-.8h.7c0 .9-.6 1.3-1.4 1.3-.9 0-1.5-.3-1.5-2 0-1.2.1-2.2 1.5-2.2 1.2 0 1.4.6 1.4 2v.3h-2.2zm1.5-.5c0-1.2-.3-1.3-.8-1.3-.4 0-.8.2-.8 1.3h1.6zm4-3.4h.7v5.8h-.7v-.5c-.2.4-.5.6-.9.6-.6 0-1.3-.3-1.3-2 0-1 0-2.2 1.3-2.2.4 0 .7.2.9.5v-2.2zm-.8 2.2c-.7 0-.8.6-.8 1.6 0 .6 0 1.5.8 1.5.7 0 .7-.9.7-1.7.1-.6 0-1.4-.7-1.4zM25.7 7.7v.8h-1.9v6.4h-.9V8.5H21v-.8h4.7zm3.6 7.2v-3.4c0-.6-.2-1.1-.9-1.1-.8 0-1 .7-1 1.5v3h-.8V7.7h.8v2.8c.3-.6.7-.8 1.4-.8.9 0 1.3.4 1.3 1.6v3.6h-.8zm3-2.3c0 1.4.4 1.7 1 1.7s.8-.5.9-1h.9c0 1.1-.7 1.6-1.8 1.6s-1.9-.3-1.9-2.5c0-1.5.2-2.7 1.9-2.7 1.4 0 1.8.8 1.8 2.5v.4h-2.8zm2-.6c0-1.5-.4-1.6-1-1.6-.5 0-.9.2-1 1.6h2zm5.9 3c-1.1 0-1.8-.5-1.7-1.6h.9c0 .3 0 1 .8 1 .5 0 .9-.2.9-.8 0-.9-2.5-.9-2.5-2.4 0-.5.3-1.4 1.7-1.4.9 0 1.7.4 1.6 1.4H41c0-.5-.3-.8-.8-.8-.4 0-.8.2-.8.7 0 .9 2.5.9 2.5 2.4.1 1.1-.7 1.5-1.7 1.5zm3.1-5.1v-1l.8-.4v1.3h1.1v.6h-1.1v3.1c0 .3 0 .7.8.7h.4v.6c-.3 0-.5.1-.8.1-.8 0-1.1-.3-1.1-.9v-3.6h-.8v-.5h.7zm5.4 0h.8v5h-.9v-.6c-.3.5-.7.7-1.3.7-.9 0-1.4-.4-1.4-1.3V9.9h.8v3.5c0 .6.3 1 .9 1 .4 0 1-.3 1-1.2V9.9zm4.9-2.2h.8v7.2h-.8v-.6c-.3.5-.6.7-1.1.7-.8 0-1.6-.3-1.6-2.5 0-1.3 0-2.7 1.7-2.7.5 0 .8.2 1.1.6V7.7zm-.9 2.7c-.9 0-1 .7-1 2 0 .8 0 1.9 1 1.9.9 0 .9-1.1.9-2.2 0-.6 0-1.7-.9-1.7zm4.8 3.6l1.2-4.1h.9l-2.3 7h-.8l.6-1.9-1.7-5h.9l1.2 4zm7.8-2.5c0-.8-.4-1-.7-1-.6 0-1.1.3-1.1 1.7 0 1.6.2 2.2 1.1 2.2.2 0 .8-.2.7-1.1h.9c0 1.4-1 1.8-1.6 1.8-1.1 0-1.9-.3-1.9-2.5 0-1.5.2-2.7 1.9-2.7 1 0 1.6.6 1.5 1.7h-.8zm4.9 2.7c-.2.5-.6.8-1.3.8-1.1 0-1.4-.7-1.4-1.7 0-1.5 1.5-1.6 2.6-1.6 0-.7 0-1.4-.8-1.4-.5 0-.8.4-.8.9h-.9c0-1.1.6-1.5 1.7-1.5 1.3 0 1.6.7 1.6 1.5v2.4c0 .4 0 .8.1 1.2h-.9v-.6zm-1.8-.8c0 .5.2.9.8.9.5 0 1.1-.3 1-1.9-.8 0-1.8-.1-1.8 1zm5.1-2.8c.4-.8.8-.9 1.6-.9v.8h-.4c-.9 0-1.1.7-1.1 1.4v3h-.8v-5h.8v.7zm3.3 0c.4-.8.8-.9 1.6-.9v.8H78c-.9 0-1.1.7-1.1 1.4v3H76v-5h.8v.7zm2.4-2.9h.9v.9h-.9v-.9zm.9 7.2h-.8v-5h.8v5zm2.2-2.3c0 1.4.4 1.7 1 1.7s.8-.5.9-1h.9c0 1.1-.7 1.6-1.8 1.6s-1.9-.3-1.9-2.5c0-1.5.2-2.7 1.9-2.7 1.4 0 1.8.8 1.8 2.5v.4h-2.8zm2-.6c0-1.5-.4-1.6-1-1.6-.5 0-.9.2-1 1.6h2zm4.9-4.3h.8v7.2h-.8v-.6c-.3.5-.7.7-1.2.7-.8 0-1.6-.3-1.6-2.5 0-1.3 0-2.7 1.7-2.7.5 0 .8.2 1.1.6V7.7zm-1 2.7c-.9 0-1 .7-1 2 0 .8 0 1.9 1 1.9.9 0 .9-1.1.9-2.2.1-.6 0-1.7-.9-1.7zm5.4 2.1c0-1.5.2-2.7 1.9-2.7s1.9 1.2 1.9 2.7c0 2.2-.8 2.5-1.9 2.5-1.1 0-1.9-.3-1.9-2.5zm3-.4c0-1.4-.4-1.7-1.1-1.7-.6 0-1.1.3-1.1 1.7 0 1.6.2 2.2 1.1 2.2.9 0 1.1-.6 1.1-2.2zm4.8-2.2h.8v4c0 .4 0 .7.1 1h-.9v-.6c-.3.5-.7.7-1.3.7-.9 0-1.4-.4-1.4-1.3V9.9h.8v3.5c0 .6.3 1 .9 1 .4 0 1-.3 1-1.2V9.9zm2.4 0v-1l.8-.4v1.3h1.1v.6h-1.1v3.1c0 .3 0 .7.8.7h.4v.6c-.3 0-.5.1-.8.1-.8 0-1.1-.3-1.1-.9v-3.6h-.9v-.5h.8zm4.9-2.2h.9v.9h-.9v-.9zm.8 7.2h-.8v-5h.8v5zm4.2 0v-3.5c0-.5-.2-1-.9-1-.9 0-1 .8-1 1.5v3h-.8v-5h.9v.6c.3-.6.7-.8 1.3-.8 1.1 0 1.3.7 1.3 1.6v3.5h-.8zm8-5.3c0-.8-.3-1.3-1.3-1.3-.3 0-1.3 0-1.3 1.6v2.4c0 1.6.5 2 1.3 2 .7 0 1.1-.2 1.3-.3v-2.2h-1.3V11h2.2v3.5c-.6.3-1.3.5-2.2.5-1.5 0-2.3-.8-2.3-2.8V9.9c0-1.4.7-2.4 2.3-2.4 1.6 0 2.3.6 2.2 2.1h-.9zm3.4 3c0 1.4.4 1.7 1 1.7s.8-.5.9-1h.9c0 1.1-.7 1.6-1.8 1.6s-1.9-.3-1.9-2.5c0-1.5.2-2.7 1.9-2.7 1.4 0 1.8.8 1.8 2.5v.4h-2.8zm2-.6c0-1.5-.4-1.6-1-1.6-.5 0-.9.2-1 1.6h2zm3-1.4c.4-.8.8-.9 1.6-.9v.8h-.4c-.9 0-1.1.7-1.1 1.4v3h-.8v-5h.8v.7zm5 4.3v-3.5c0-.5-.1-1-.8-1-.2 0-.6.2-.7.3-.2.2-.2.5-.2.7v3.4h-.8v-5h.9v.6c.2-.5.7-.7 1.3-.7.5 0 1 .2 1.2.7.3-.5.7-.7 1.2-.7s1.4.1 1.4 1.3v3.8h-.8v-3.5c0-.5-.1-1-.8-1-.3 0-.4 0-.6.2-.2.2-.3.7-.3.9v3.4h-1zm7.3-.7c-.3.6-.7.8-1.3.8-1.1 0-1.4-.7-1.4-1.7 0-1.5 1.5-1.6 2.6-1.6 0-.7 0-1.4-.8-1.4-.5 0-.8.4-.8.9h-.9c0-1.1.6-1.5 1.7-1.5 1.3 0 1.6.7 1.6 1.5v2.4c0 .4 0 .8.1 1.2h-.9v-.6zm-1.8-.8c0 .5.2.9.8.9.5 0 1.1-.3 1-1.9-.8 0-1.8-.1-1.8 1zm7 1.5v-3.5c0-.5-.2-1-.9-1-.9 0-1 .8-1 1.5v3h-.8v-5h.9v.6c.3-.6.7-.8 1.3-.8 1.1 0 1.3.7 1.3 1.6v3.5h-.8zm3.8-.9l1.2-4.1h.9l-2.3 7h-.8l.6-1.9-1.7-5h.9l1.2 4zm6.6 1c-1.1 0-1.8-.5-1.7-1.6h.9c0 .3 0 1 .8 1 .5 0 .9-.2.9-.8 0-.9-2.5-.9-2.5-2.4 0-.5.3-1.4 1.7-1.4.9 0 1.7.4 1.6 1.4h-.9c0-.5-.3-.8-.8-.8-.4 0-.8.2-.8.7 0 .9 2.5.9 2.5 2.4 0 1.1-.7 1.5-1.7 1.5zm5.7-.1v-3.4c0-.6-.2-1.1-.9-1.1-.8 0-1 .7-1 1.5v3h-.8V7.7h.8v2.8c.3-.6.7-.8 1.4-.8.9 0 1.3.4 1.3 1.6v3.6h-.8zm2.1-2.4c0-1.5.2-2.7 1.9-2.7s1.9 1.2 1.9 2.7c0 2.2-.8 2.5-1.9 2.5s-1.9-.3-1.9-2.5zm3-.4c0-1.4-.4-1.7-1.1-1.7-.6 0-1.1.3-1.1 1.7 0 1.6.2 2.2 1.1 2.2s1.1-.6 1.1-2.2zm1.5-2.2h.9l.9 4.3 1.1-4.3h1.2l1 4.3 1-4.3h.9l-1.3 5h-1.1l-1.1-4.3-1.1 4.3h-1.1l-1.3-5zm8.7 2.7c0 1.4.4 1.7 1 1.7s.8-.5.9-1h.9c0 1.1-.7 1.6-1.8 1.6s-1.9-.3-1.9-2.5c0-1.5.2-2.7 1.9-2.7 1.4 0 1.8.8 1.8 2.5v.4H179zm1.9-.6c0-1.5-.4-1.6-1-1.6-.5 0-.9.2-1 1.6h2zm4.9-4.3h.8v7.2h-.8v-.6c-.3.5-.6.7-1.2.7-.8 0-1.6-.3-1.6-2.5 0-1.3 0-2.7 1.7-2.7.5 0 .8.2 1.1.6V7.7zm-.9 2.7c-.9 0-1 .7-1 2 0 .8 0 1.9 1 1.9.9 0 .9-1.1.9-2.2 0-.6 0-1.7-.9-1.7zm5.6-.5v-1l.8-.4v1.3h1.1v.6h-1.1v3.1c0 .3 0 .7.8.7h.4v.6c-.3 0-.5.1-.8.1-.8 0-1.1-.3-1.1-.9v-3.6h-.8v-.5h.7zm5.4 5v-3.4c0-.6-.2-1.1-.9-1.1-.8 0-1 .7-1 1.5v3h-.8V7.7h.8v2.8c.3-.6.7-.8 1.4-.8.9 0 1.3.4 1.3 1.6v3.6h-.8zm4.9-.7c-.3.6-.7.8-1.3.8-1.1 0-1.4-.7-1.4-1.7 0-1.5 1.5-1.6 2.6-1.6 0-.7 0-1.4-.8-1.4-.5 0-.8.4-.8.9h-.9c0-1.1.6-1.5 1.7-1.5 1.3 0 1.6.7 1.6 1.5v2.4c0 .4 0 .8.1 1.2h-.9v-.6zm-1.9-.8c0 .5.2.9.8.9.5 0 1.1-.3 1-1.9-.7 0-1.8-.1-1.8 1zm4.3-3.5v-1l.8-.4v1.3h1.1v.6H204v3.1c0 .3 0 .7.8.7h.4v.6c-.3 0-.5.1-.8.1-.8 0-1.1-.3-1.1-.9v-3.6h-.8v-.5h.7zm3.6 1h-.9v-1h.9v1zm0 4h-.9v-1h.9v1z" class="st0"/>
    <path d="M84.3 94.6h65.3" class="st10"/>
    <path d="M105 61.5L62.4 85.3c-1.2.7-2.7.2-3.3-1.1L44.9 52.5l43.4 96.9" class="st11"/>
  </g>
</svg>
