<svg xmlns="http://www.w3.org/2000/svg" id="Layer_1" viewBox="0 0 195 111.8">
  <style>
    .Drop_x0020_Shadow{fill:none;} .Outer_x0020_Glow_x0020_5_x0020_pt{fill:none;} .Blue_x0020_Neon{fill:none;stroke:#8AACDA;stroke-width:7;stroke-linecap:round;stroke-linejoin:round;} .Chrome_x0020_Highlight{fill:url(#SVGID_1_);stroke:#FFFFFF;stroke-width:0.3629;stroke-miterlimit:1;} .Jive_GS{fill:#FFDD00;} .Alyssa_GS{fill:#A6D0E4;} .st0{fill:#0A3656;} .st1{fill:#ECD177;} .st2{fill:#ED5A49;} .st3{fill:none;stroke:#0A3656;stroke-width:0.3467;stroke-linecap:round;stroke-linejoin:round;stroke-miterlimit:10;} .st4{fill:#ED5A49;stroke:#ED5A49;stroke-width:0.1444;stroke-miterlimit:10;} .st5{fill:#E9F5FC;} .st6{opacity:0.26;fill:#337D7D;} .st7{fill:none;} .st8{fill:#DDE8F0;stroke:#DDE8F0;stroke-width:0.5;stroke-miterlimit:10;} .st9{fill:none;stroke:#ECD177;stroke-width:0.9;stroke-miterlimit:10;} .st10{fill:none;stroke:#0A3656;stroke-width:2;stroke-linecap:round;stroke-linejoin:round;stroke-miterlimit:10;stroke-dasharray:0,8;} .st11{fill:none;stroke:#ECD177;stroke-width:0.9;stroke-linecap:round;stroke-linejoin:round;stroke-miterlimit:10;} .st12{fill:none;stroke:#ECD177;stroke-linecap:round;stroke-linejoin:round;stroke-miterlimit:10;}
  </style>
  <linearGradient id="SVGID_1_" x1="708" x2="708" y1="182.778" y2="181.778" gradientUnits="userSpaceOnUse">
    <stop offset="0" stop-color="#656565"/>
    <stop offset=".618" stop-color="#1B1B1B"/>
    <stop offset=".629" stop-color="#545454"/>
    <stop offset=".983" stop-color="#3E3E3E"/>
  </linearGradient>
  <g id="lefties">
    <path d="M169.9 68.5H22.3c-6 0-11-4.9-11-11 0-6 4.9-11 11-11h147.6c6 0 11 4.9 11 11s-4.9 11-11 11z" class="st2"/>
    <path d="M46.8 66.7H20.1c-4.8 0-8.8-3.9-8.8-8.8V57c0-4.8 3.9-8.8 8.8-8.8h26.8c4.8 0 8.8 3.9 8.8 8.8v1c-.1 4.8-4 8.7-8.9 8.7z" class="st5"/>
    <path d="M20.2 61.8v-7.5h1.6v6.3h2.4v1.2h-4zm4.6 0v-7.5h4.1v1.2h-2.5v1.9h2.3v1.2h-2.3v2.2H29V62h-4.2zm5.1 0v-7.5h3.9v1.2h-2.3v1.9h2.2v1.2h-2.2v3.3h-1.6zm9.2-7.6v1.2h-1.7v6.3h-1.6v-6.3H34v-1.2h5.1zm.7 7.6v-7.5h1.6v7.5h-1.6zm2.9 0v-7.5h4.1v1.2h-2.5v1.9h2.3v1.2h-2.3v2.2h2.6V62h-4.2zm7.2.1c-1.9 0-2.3-1.1-2.2-2.4h1.6c0 .7 0 1.3.9 1.3.5 0 .8-.3.8-.9 0-1.4-3.2-1.4-3.2-3.7 0-1.2.6-2.1 2.5-2.1 1.5 0 2.3.7 2.2 2.3H51c0-.6-.1-1.1-.7-1.1-.5 0-.8.3-.8.8 0 1.4 3.2 1.3 3.2 3.7-.2 1.8-1.6 2.1-2.8 2.1zm6.1-8.4c.7-.4 1.4-.9 1.9-1.5h1.9v9.8h-2.1v-7.5c-.5.4-1.1.8-1.7 1.1v-1.9zm11.5 3.3c0 3.1-.2 5-2.8 5-2.6 0-2.8-2-2.8-5 0-3.7.4-5 2.8-5s2.8 1.3 2.8 5zm-3.7.1c0 3 .1 3.6.9 3.6s.9-.6.9-3.6 0-3.6-.9-3.6-.9.6-.9 3.6zm4.4-2.3c0-1.5.3-2.6 2-2.6s2 1.2 2 2.6c0 1.7-.4 2.5-2 2.5s-2-.8-2-2.5zm2.7-.1c0-.5 0-1.4-.7-1.4s-.7.9-.7 1.4c0 1.2.1 1.6.7 1.6s.7-.5.7-1.6zm.7 7.5h-1l4.1-10.3h1L71.6 62zm2.6-2.8c0-1.5.3-2.6 2-2.6s2 1.2 2 2.6c0 1.7-.4 2.5-2 2.5s-2-.8-2-2.5zm2.7-.1c0-.5 0-1.4-.7-1.4s-.7.9-.7 1.4c0 1.2.1 1.6.7 1.6s.7-.5.7-1.6z" class="st0"/>
  </g>
  <g id="righties">
    <path d="M169.9 42.5H22.3c-6 0-11-4.9-11-11 0-6 4.9-11 11-11h147.6c6 0 11 4.9 11 11s-4.9 11-11 11z" class="st2"/>
    <path d="M148.7 40.7H20.3c-5.1 0-9.2-4.1-9.2-9.2s4.1-9.2 9.2-9.2h128.4c5.1 0 9.2 4.1 9.2 9.2s-4.1 9.2-9.2 9.2z" class="st5"/>
    <path d="M24.6 36.1h-1.5v-7.4h2.8c1 0 1.7.7 1.7 1.9 0 .9-.4 1.6-1.4 1.8.3 0 1.3.1 1.3 1.4 0 .5 0 1.9.2 2.2h-1.5c-.2-.4-.2-.9-.2-1.4 0-.9.1-1.6-1.1-1.6h-.4v3.1zm0-4.2h.7c.6 0 .8-.6.8-1.1 0-.7-.3-1-.8-1h-.7v2.1zm4.2 4.2v-7.4h1.5v7.4h-1.5zM35 31c0-.7-.1-1.3-.9-1.3-1 0-1 1.3-1 2.7 0 2.3.2 2.7 1.1 2.7.3 0 .5-.1.8-.1v-1.6h-.8v-1.1h2.4V36c-.4.1-1.5.2-2.1.2-2.6 0-2.9-1.1-2.9-3.9 0-1.9.1-3.7 2.6-3.7 1.5 0 2.4.8 2.4 2.4H35zm6.2.7v-2.9h1.5v7.4h-1.5v-3.3h-1.8v3.3h-1.5v-7.4h1.5v2.9h1.8zm7.3-3V30h-1.7v6.1h-1.5V30h-1.7v-1.2h4.9zm.7 7.4v-7.4h1.5v7.4h-1.5zm2.8 0v-7.4h4v1.1h-2.5v1.8h2.3v1.1h-2.3V35h2.6v1.1H52zm7.1.1c-1.9 0-2.3-1.1-2.2-2.4h1.5c0 .7 0 1.3.9 1.3.5 0 .8-.3.8-.8 0-1.3-3.1-1.4-3.1-3.6 0-1.2.6-2.1 2.4-2.1 1.5 0 2.2.7 2.1 2.2H60c0-.6-.1-1.1-.7-1.1-.5 0-.8.3-.8.8 0 1.4 3.1 1.3 3.1 3.6.1 1.9-1.3 2.1-2.5 2.1zm7.7-2.4c0 .3 0 .5.1.7.1.2.3.3.6.3 1 0 .9-.8.9-3.1-.4.4-1 .6-1.6.6-1.5 0-2.1-1.3-2.1-2.6 0-1.9.6-3.5 2.8-3.5 2.9 0 2.9 2.3 2.9 5.1 0 2.4 0 5-2.9 5-1.7 0-2.7-.6-2.6-2.4h1.9zm.7-2.8c.8 0 .9-1.1.9-1.7 0-.6 0-1.7-.9-1.7s-.9 1.1-.9 1.7c0 .6 0 1.7.9 1.7zm9 .2c0 3.1-.2 5-2.8 5-2.6 0-2.8-2-2.8-5 0-3.7.4-5 2.8-5s2.8 1.2 2.8 5zm-3.6 0c0 3 .1 3.6.9 3.6s.9-.6.9-3.6 0-3.6-.9-3.6-.9.6-.9 3.6zm4.4-2.2c0-1.5.3-2.6 2-2.6s2 1.2 2 2.6c0 1.7-.4 2.5-2 2.5s-2-.9-2-2.5zm2.7-.2c0-.5 0-1.4-.7-1.4s-.7.9-.7 1.4c0 1.2.1 1.6.7 1.6s.7-.4.7-1.6zm.7 7.6h-1l4.1-10.3h1l-4.1 10.3zm2.5-2.8c0-1.5.3-2.6 2-2.6s2 1.2 2 2.6c0 1.7-.4 2.5-2 2.5s-2-.9-2-2.5zm2.7-.2c0-.5 0-1.4-.7-1.4s-.7.9-.7 1.4c0 1.2.1 1.6.7 1.6s.7-.4.7-1.6z" class="st0"/>
  </g>
  <g id="ambi">
    <path d="M169.9 95.2H22.3c-6 0-11-4.9-11-11 0-6 4.9-11 11-11h147.6c6 0 11 4.9 11 11s-4.9 11-11 11z" class="st2"/>
    <path d="M21.8 88.8l2-7.4h2l2 7.4h-1.6l-.4-1.6h-2.1l-.4 1.6h-1.5zm3-6L24 86h1.5l-.7-3.2zm3.7 6v-7.4H31l1.2 5 1.2-5h2.4v7.4h-1.5v-5.7l-1.4 5.7h-1.5l-1.3-5.7v5.7h-1.6zm8.6 0v-7.4h2.7c1.2 0 2.1.3 2.1 1.9 0 .8-.4 1.5-1.3 1.6 1.1.2 1.4.9 1.4 1.9 0 1.9-1.6 1.9-2.3 1.9h-2.6zm1.5-4.4h1c.3 0 .8-.2.8-.9 0-.5-.4-.9-.9-.9h-.9v1.8zm0 3.2h.9c.3 0 1.1 0 1.1-1 0-.7-.2-1-1-1h-.9v2zm4.7 1.2v-7.4h1.5v7.4h-1.5zm2.9-7.4h2.6c2 0 2.4 1.3 2.4 3.6 0 1.1.2 3.7-2.5 3.7h-2.5v-7.3zm1.5 6.2h.7c.9 0 1.1-.7 1.1-2.5 0-1.4 0-2.5-1.1-2.5h-.8v5zm4.7 1.2v-7.4h4v1.1h-2.5v1.8h2.3v1.1h-2.3v2.2h2.6v1.1h-4.1zm4.6-7.4h1.8l1 2.4 1-2.4h1.6L60.6 85l1.9 3.7h-1.7l-1.1-2.5-1.1 2.5H57l1.9-3.9-1.9-3.4zm10.5 0v1.2h-1.7v6.1h-1.5v-6.1h-1.7v-1.2h4.9zm2.2 7.4h-1.5v-7.4H71c1 0 1.7.7 1.7 1.9 0 .9-.4 1.6-1.4 1.8.3 0 1.3.1 1.3 1.4 0 .5 0 1.9.2 2.2h-1.5c-.2-.4-.2-.9-.2-1.4 0-.9.1-1.6-1.1-1.6h-.4v3.1zm0-4.2h.7c.6 0 .8-.6.8-1.1 0-.7-.3-1-.8-1h-.7v2.1zm4.1.5c0-1.9 0-3.8 2.5-3.8s2.5 1.9 2.5 3.8 0 3.8-2.5 3.8-2.5-1.9-2.5-3.8zm3.5 0c0-1.9-.1-2.7-1-2.7s-1 .8-1 2.7.1 2.7 1 2.7 1-.8 1-2.7zm7.8-3.7v5.2c0 1.1-.6 2.3-2.5 2.3-1.7 0-2.5-.9-2.5-2.3v-5.2h1.5v5.1c0 .9.4 1.3.9 1.3.7 0 1-.4 1-1.3v-5.1h1.6zm3.2 7.5c-1.9 0-2.3-1.1-2.2-2.4h1.5c0 .7 0 1.3.9 1.3.5 0 .8-.3.8-.8 0-1.3-3.1-1.4-3.1-3.6 0-1.2.6-2.1 2.4-2.1 1.5 0 2.2.7 2.1 2.2h-1.5c0-.6-.1-1.1-.7-1.1-.5 0-.8.3-.8.8 0 1.4 3.1 1.3 3.1 3.6.1 1.9-1.3 2.1-2.5 2.1zm11.4-9c-.8-.1-1 .3-1 1v.9h.9V83h-.9v5.9h-2V83h-.9v-1.2h.9c0-2-.2-3.1 2.2-3.1h.7v1.2zm2.7 5.7c0 .8 0 2.1.9 2.1.7 0 .8-.7.8-1.3h2c0 .8-.3 1.4-.8 1.8-.5.4-1.2.7-2.1.7-2.5 0-2.9-1.6-2.9-3.8 0-1.9.3-3.6 2.9-3.6 2.7 0 3 1.7 2.9 4h-3.7zm1.8-1.1c0-.7 0-1.7-.9-1.7s-.9 1.1-.9 1.7h1.8zm2.7-2.8h2l1 5.3 1.4-5.3h2l1.2 5.3 1.1-5.3h1.9l-1.9 7.1h-2.1l-1.3-4.8-1.4 4.8h-2.1l-1.8-7.1zm13.4 3.9c0 .8 0 2.1.9 2.1.7 0 .8-.7.8-1.3h2c0 .8-.3 1.4-.8 1.8-.5.4-1.2.7-2.1.7-2.5 0-2.9-1.6-2.9-3.8 0-1.9.3-3.6 2.9-3.6 2.7 0 3 1.7 2.9 4h-3.7zm1.8-1.1c0-.7 0-1.7-.9-1.7s-.9 1.1-.9 1.7h1.8zm5.2-2.8v.9c.4-.8 1-1.1 1.8-1.1v1.8c-1.7-.1-1.8.9-1.8 1.6v3.9h-2v-7.1h2zm5.1 0h.8v-1.1l2-.9v2h1v1.2h-1v3.8c0 .5 0 .9.6.9h.4v1.2c-.3 0-.5.1-1 .1-1.7 0-1.9-1.1-1.9-1.6v-4.4h-.8v-1.2zm8.2 7.1v-4.9c0-.6-.1-1.1-.7-1.1s-.7.5-.7 1.1v4.9h-2V78.7h2v3.8c.2-.3.4-.5.7-.7.3-.1.6-.2 1-.2.9 0 1.8.6 1.8 1.5v5.7h-2.1zm8.9-1.3c0 .4.1.9.1 1.3h-1.8l-.1-.9c-.4.7-1 1.1-1.8 1.1-1.4 0-1.9-1-1.9-2.3 0-2.3 1.8-2.4 3.6-2.4v-.5c0-.6-.1-1-.8-1-.7 0-.7.5-.7 1.1h-1.9c0-.9.3-1.4.7-1.7.4-.3 1.1-.5 1.8-.5 2.5 0 2.8 1.1 2.8 2.4v3.4zm-3.7-.9c0 .5.1 1.1.7 1.1 1.2 0 1-1.6 1-2.3-.9 0-1.7-.1-1.7 1.2zm7.3-4.2c.2-.3.5-.5.7-.7.3-.1.6-.2 1-.2.9 0 1.8.6 1.8 1.5v5.7h-2v-4.9c0-.6-.1-1.1-.7-1.1s-.7.5-.7 1.1v4.9h-2v-7.1h2v.8zm8-1.9c.7-.4 1.4-.9 1.9-1.5h1.9v9.8h-2.1v-7.5c-.5.4-1.1.8-1.7 1.1v-1.9zm6 1.1c0-1.5.3-2.6 2-2.6s2 1.2 2 2.6c0 1.7-.4 2.5-2 2.5s-2-.8-2-2.5zm2.7-.1c0-.5 0-1.4-.7-1.4s-.7.9-.7 1.4c0 1.2.1 1.6.7 1.6s.7-.4.7-1.6zm.7 7.6h-1l4.1-10.3h1l-4.1 10.3zm2.6-2.8c0-1.5.3-2.6 2-2.6s2 1.2 2 2.6c0 1.7-.4 2.5-2 2.5s-2-.9-2-2.5zm2.7-.2c0-.5 0-1.4-.7-1.4s-.7.9-.7 1.4c0 1.2.1 1.6.7 1.6s.7-.4.7-1.6z" class="st0"/>
    <path d="M17.8 90.1c-1 0-1.7-.8-1.7-1.7v-8.1c0-1 .8-1.7 1.7-1.7 1 0 1.7.8 1.7 1.7v8.1c0 1-.8 1.7-1.7 1.7z" class="st5"/>
  </g>
</svg>
