<svg id="Layer_1" xmlns="http://www.w3.org/2000/svg" width="459" height="453" viewBox="0 0 459 453"><style>.Drop_x0020_Shadow{fill:none;} .Outer_x0020_Glow_x0020_5_x0020_pt{fill:none;} .Blue_x0020_Neon{fill:none;stroke:#8AACDA;stroke-width:7;stroke-linecap:round;stroke-linejoin:round;} .Chrome_x0020_Highlight{fill:url(#SVGID_1_);stroke:#FFFFFF;stroke-width:0.3629;stroke-miterlimit:1;} .Jive_GS{fill:#FFDD00;} .Alyssa_GS{fill:#A6D0E4;} .st0{fill:#0A3656;} .st1{fill:#ECD177;}</style><linearGradient id="SVGID_1_" gradientUnits="userSpaceOnUse" x1="-262.601" y1="-64.101" x2="-262.601" y2="-65.101"><stop offset="0" stop-color="#656565"/><stop offset=".618" stop-color="#1B1B1B"/><stop offset=".629" stop-color="#545454"/><stop offset=".983" stop-color="#3E3E3E"/></linearGradient><path class="st0" d="M301.7 227.7c-.7 0-1.3-.4-1.5-1.1-.4-1.4-1.3-4-2.6-6.3-2-3.5-7.1-9.7-2.1-20 4.3-8.9 16.2-5.8 18-4.7 2.4 1.4 12.6 7.2 5.1 22.1 0 0-3.9 6.2-4.9 9-.2.6-.8 1-1.4 1h-10.6zM312.5 232.3h-10.4c-.5 0-.9-.4-.9-.9s.4-.9.9-.9h10.4c.5 0 .9.4.9.9s-.4.9-.9.9zM312.5 236h-10.4c-.5 0-.9-.4-.9-.9s.4-.9.9-.9h10.4c.5 0 .9.4.9.9s-.4.9-.9.9zM303.5 237.9h7.3c.3 0 .4.3.2.6l-1.6 1.7c-.3.3-.7.5-1.1.5H306c-.4 0-.8-.2-1.1-.5l-1.6-1.6c-.3-.3-.1-.7.2-.7zM272 228.1c-.7 0-1.3-.4-1.5-1.1-.4-1.4-1.3-4-2.6-6.3-2-3.5-7.1-9.7-2.1-20 4.3-8.9 16.2-5.8 18-4.7 2.4 1.4 12.6 7.2 5.1 22.1 0 0-3.9 6.2-4.9 9-.2.6-.8 1-1.4 1H272zM282.8 232.7h-10.4c-.5 0-.9-.4-.9-.9s.4-.9.9-.9h10.4c.5 0 .9.4.9.9s-.4.9-.9.9zM282.8 236.4h-10.4c-.5 0-.9-.4-.9-.9s.4-.9.9-.9h10.4c.5 0 .9.4.9.9s-.4.9-.9.9zM273.8 238.3h7.3c.3 0 .4.3.2.6l-1.6 1.7c-.3.3-.7.5-1.1.5h-2.4c-.4 0-.8-.2-1.1-.5l-1.6-1.6c-.2-.2 0-.7.3-.7z"/><path class="st1" d="M284.4 235c-1.1 0-2.1-.7-2.4-1.8-.7-2.3-2.1-6.4-4.2-10.1-3.2-5.5-11.3-15.6-3.4-31.9 6.9-14.2 25.9-9.3 28.9-7.6 3.8 2.2 20.1 11.6 8.2 35.3 0 0-6.2 10-7.8 14.5-.3 1-1.3 1.6-2.3 1.6h-17zM301.7 242.3H285c-.8 0-1.4-.7-1.4-1.4 0-.8.7-1.4 1.4-1.4h16.6c.8 0 1.4.7 1.4 1.4.1.8-.6 1.4-1.3 1.4zM301.7 248.3H285c-.8 0-1.4-.7-1.4-1.4 0-.8.7-1.4 1.4-1.4h16.6c.8 0 1.4.7 1.4 1.4.1.7-.6 1.4-1.3 1.4zM287.2 251.3H299c.5 0 .7.5.4.9l-2.5 2.8c-.5.5-1.1.8-1.8.8h-3.8c-.7 0-1.3-.3-1.8-.8l-2.6-2.6c-.5-.4-.2-1.1.3-1.1z"/><path class="st0" d="M87.6 211.9h1.2l2.3 7.2h-1l-.5-1.7h-2.8l-.5 1.7h-.9l2.2-7.2zm.6.9l-1.1 3.8h2.3l-1.2-3.8zM96.7 219.1v-3.5c0-.5-.1-1-.8-1-.2 0-.6.1-.7.3-.2.2-.2.5-.2.7v3.4h-.8v-4-1h.8v.6c.2-.5.7-.7 1.3-.7.5 0 1 .2 1.2.6.3-.5.7-.6 1.2-.6s1.4.1 1.4 1.3v3.8h-.8v-3.5c0-.5-.1-1-.8-1-.3 0-.4 0-.6.2-.2.2-.3.7-.3.9v3.4h-.9zM104.1 218.4c-.3.6-.7.8-1.3.8-1.1 0-1.4-.7-1.4-1.7 0-1.5 1.5-1.6 2.6-1.6 0-.7 0-1.4-.8-1.4-.5 0-.8.4-.8.9h-.9c0-1.1.6-1.5 1.7-1.5 1.3 0 1.6.7 1.6 1.5v2.4c0 .4 0 .8.1 1.2h-.9v-.6zm-1.9-.8c0 .5.2.9.8.9.5 0 1.1-.3 1-1.9-.7.1-1.8 0-1.8 1zM106.4 214.1h.8v5.7c0 .8-.2 1.2-1.4 1.2v-.7c.3 0 .6 0 .6-.5v-5.7zm0-2.2h.9v.9h-.9v-.9zM108.5 216.7c0-1.5.2-2.7 1.9-2.7s1.9 1.2 1.9 2.7c0 2.2-.8 2.5-1.9 2.5s-1.9-.3-1.9-2.5zm3-.3c0-1.4-.4-1.7-1.1-1.7-.6 0-1.1.3-1.1 1.7 0 1.6.2 2.2 1.1 2.2s1.1-.6 1.1-2.2zM114.5 214.9c.4-.8.8-.9 1.6-.9v.8h-.4c-.9 0-1.1.7-1.1 1.4v3h-.8v-5h.8v.7zM116.9 211.9h.9v.9h-.9v-.9zm.9 7.2h-.8v-5h.8v5zM119.3 214.1v-1l.8-.4v1.3h1.1v.6h-1.1v3.1c0 .3 0 .7.8.7h.4v.6c-.3 0-.5.1-.8.1-.8 0-1.1-.3-1.1-.9v-3.6h-.8v-.6h.7zM123.5 218.2l1.2-4.1h.9l-2.3 7h-.8l.6-1.9-1.7-5h.9l1.2 4zM128.5 216.7c0-1.5.2-2.7 1.9-2.7s1.9 1.2 1.9 2.7c0 2.2-.8 2.5-1.9 2.5s-1.9-.3-1.9-2.5zm3-.3c0-1.4-.4-1.7-1.1-1.7-.6 0-1.1.3-1.1 1.7 0 1.6.2 2.2 1.1 2.2s1.1-.6 1.1-2.2zM133.8 214.1v-1c0-1 .7-1.2 1.4-1.2h.4v.6c-.9-.1-1 .3-1 .7v.9h1v.6h-1v4.4h-.8v-4.4h-.8v-.6h.8zM139.5 219.1h-.8v-7.2h.8v7.2zM141.7 216.9c0 1.4.4 1.7 1 1.7s.8-.4.9-1h.9c0 1.1-.7 1.6-1.8 1.6s-1.9-.3-1.9-2.5c0-1.5.2-2.7 1.9-2.7 1.4 0 1.8.8 1.8 2.5v.4h-2.8zm2-.6c0-1.5-.4-1.6-1-1.6-.5 0-.9.2-1 1.6h2zM146 214.1v-1c0-1 .7-1.2 1.4-1.2h.4v.6c-.9-.1-1 .3-1 .7v.9h1v.6h-1v4.4h-.8v-4.4h-.8v-.6h.8zM148.8 214.1v-1l.8-.4v1.3h1.1v.6h-1.1v3.1c0 .3 0 .7.8.7h.4v.6c-.3 0-.5.1-.8.1-.8 0-1.1-.3-1.1-.9v-3.6h-.8v-.6h.7zM156.4 219.1v-3.4c0-.6-.2-1.1-.9-1.1-.8 0-1 .7-1 1.5v3h-.8v-7.2h.8v2.8c.3-.6.7-.7 1.4-.7.9 0 1.3.4 1.3 1.6v3.6h-.8zM161.3 218.4c-.3.6-.7.8-1.3.8-1.1 0-1.4-.7-1.4-1.7 0-1.5 1.5-1.6 2.6-1.6 0-.7 0-1.4-.8-1.4-.5 0-.8.4-.8.9h-.9c0-1.1.6-1.5 1.7-1.5 1.3 0 1.6.7 1.6 1.5v2.4c0 .4 0 .8.1 1.2h-.9v-.6zm-1.9-.8c0 .5.2.9.8.9.5 0 1.1-.3 1-1.9-.7.1-1.8 0-1.8 1zM166.4 219.1v-3.5c0-.5-.2-1-.9-1-.9 0-1 .8-1 1.5v3h-.8v-4-1h.9v.6c.3-.6.7-.7 1.3-.7 1.1 0 1.3.6 1.3 1.6v3.5h-.8zM171.3 211.9h.8v7.2h-.8v-.6c-.3.5-.6.7-1.2.7-.8 0-1.6-.3-1.6-2.5 0-1.3 0-2.7 1.7-2.7.5 0 .8.2 1.1.6v-2.7zm-.9 2.8c-.9 0-1 .7-1 2 0 .8 0 1.9 1 1.9.9 0 .9-1.1.9-2.2 0-.6 0-1.7-.9-1.7zM174.5 216.9c0 1.4.4 1.7 1 1.7s.8-.4.9-1h.9c0 1.1-.7 1.6-1.8 1.6s-1.9-.3-1.9-2.5c0-1.5.2-2.7 1.9-2.7 1.4 0 1.8.8 1.8 2.5v.4h-2.8zm1.9-.6c0-1.5-.4-1.6-1-1.6-.5 0-.9.2-1 1.6h2zM179.5 214.9c.4-.8.8-.9 1.6-.9v.8h-.4c-.9 0-1.1.7-1.1 1.4v3h-.8v-5h.8v.7zM183.5 219.2c-1.1 0-1.8-.5-1.7-1.6h.9c0 .3 0 1 .8 1 .5 0 .9-.2.9-.8 0-.9-2.5-.9-2.5-2.4 0-.5.3-1.4 1.7-1.4.9 0 1.7.4 1.6 1.4h-.9c0-.5-.3-.8-.8-.8-.4 0-.8.2-.8.7 0 .9 2.5.9 2.5 2.4 0 1.1-.7 1.5-1.7 1.5zM191.3 218.4c-.3.6-.7.8-1.3.8-1.1 0-1.4-.7-1.4-1.7 0-1.5 1.5-1.6 2.6-1.6 0-.7 0-1.4-.8-1.4-.5 0-.8.4-.8.9h-.9c0-1.1.6-1.5 1.7-1.5 1.3 0 1.6.7 1.6 1.5v2.4c0 .4 0 .8.1 1.2h-.9v-.6zm-1.9-.8c0 .5.2.9.8.9.5 0 1.1-.3 1-1.9-.7.1-1.8 0-1.8 1zM194.5 219.1h-.8v-7.2h.8v7.2zM197.4 219.2c-1.1 0-1.8-.5-1.7-1.6h.9c0 .3 0 1 .8 1 .5 0 .9-.2.9-.8 0-.9-2.5-.9-2.5-2.4 0-.5.3-1.4 1.7-1.4.9 0 1.7.4 1.6 1.4h-.9c0-.5-.3-.8-.8-.8-.4 0-.8.2-.8.7 0 .9 2.5.9 2.5 2.4 0 1.1-.7 1.5-1.7 1.5zM200.2 216.7c0-1.5.2-2.7 1.9-2.7s1.9 1.2 1.9 2.7c0 2.2-.8 2.5-1.9 2.5s-1.9-.3-1.9-2.5zm3-.3c0-1.4-.4-1.7-1.1-1.7-.6 0-1.1.3-1.1 1.7 0 1.6.2 2.2 1.1 2.2s1.1-.6 1.1-2.2zM210.2 215.7c0-.8-.4-1-.7-1-.6 0-1.1.3-1.1 1.7 0 1.6.2 2.2 1.1 2.2.2 0 .8-.2.7-1.1h.9c0 1.4-1 1.8-1.6 1.8-1.1 0-1.9-.3-1.9-2.5 0-1.5.2-2.7 1.9-2.7 1 0 1.6.6 1.5 1.7h-.8zM212.4 216.7c0-1.5.2-2.7 1.9-2.7s1.9 1.2 1.9 2.7c0 2.2-.8 2.5-1.9 2.5s-1.9-.3-1.9-2.5zm3-.3c0-1.4-.4-1.7-1.1-1.7-.6 0-1.1.3-1.1 1.7 0 1.6.2 2.2 1.1 2.2s1.1-.6 1.1-2.2zM220.3 219.1v-3.5c0-.5-.2-1-.9-1-.9 0-1 .8-1 1.5v3h-.8v-4-1h.9v.6c.3-.6.7-.7 1.3-.7 1.1 0 1.3.6 1.3 1.6v3.5h-.8zM224 219.2c-1.1 0-1.8-.5-1.7-1.6h.9c0 .3 0 1 .8 1 .5 0 .9-.2.9-.8 0-.9-2.5-.9-2.5-2.4 0-.5.3-1.4 1.7-1.4.9 0 1.7.4 1.6 1.4h-.9c0-.5-.3-.8-.8-.8-.4 0-.8.2-.8.7 0 .9 2.5.9 2.5 2.4.1 1.1-.7 1.5-1.7 1.5zM226.9 211.9h.9v.9h-.9v-.9zm.9 7.2h-.8v-5h.8v5zM231.9 211.9h.8v7.2h-.8v-.6c-.3.5-.6.7-1.2.7-.8 0-1.6-.3-1.6-2.5 0-1.3 0-2.7 1.7-2.7.5 0 .8.2 1.1.6v-2.7zm-1 2.8c-.9 0-1 .7-1 2 0 .8 0 1.9 1 1.9.9 0 .9-1.1.9-2.2.1-.6 0-1.7-.9-1.7zM235 216.9c0 1.4.4 1.7 1 1.7s.8-.4.9-1h.9c0 1.1-.7 1.6-1.8 1.6s-1.9-.3-1.9-2.5c0-1.5.2-2.7 1.9-2.7 1.4 0 1.8.8 1.8 2.5v.4H235zm2-.6c0-1.5-.4-1.6-1-1.6-.5 0-.9.2-1 1.6h2zM240 214.9c.4-.8.8-.9 1.6-.9v.8h-.4c-.9 0-1.1.7-1.1 1.4v3h-.8v-5h.8v.7zM243.3 216.9c0 1.4.4 1.7 1 1.7s.8-.4.9-1h.9c0 1.1-.7 1.6-1.8 1.6s-1.9-.3-1.9-2.5c0-1.5.2-2.7 1.9-2.7 1.4 0 1.8.8 1.8 2.5v.4h-2.8zm2-.6c0-1.5-.4-1.6-1-1.6-.5 0-.9.2-1 1.6h2zM250.2 211.9h.8v7.2h-.8v-.6c-.3.5-.6.7-1.2.7-.8 0-1.6-.3-1.6-2.5 0-1.3 0-2.7 1.7-2.7.5 0 .8.2 1.1.6v-2.7zm-1 2.8c-.9 0-1 .7-1 2 0 .8 0 1.9 1 1.9.9 0 .9-1.1.9-2.2.1-.6.1-1.7-.9-1.7zM86 228.5v-1l.8-.4v1.3h1.1v.6h-1.1v3.1c0 .3 0 .7.8.7h.4v.6c-.3 0-.5.1-.8.1-.8 0-1.1-.3-1.1-.9V229h-.8v-.6h.7zM91.4 233.5v-3.4c0-.6-.2-1.1-.9-1.1-.8 0-1 .7-1 1.5v3h-.8v-7.2h.8v2.8c.3-.6.7-.7 1.4-.7.9 0 1.3.4 1.3 1.6v3.6h-.8zM94.5 231.3c0 1.4.4 1.7 1 1.7s.8-.5.9-1h.9c0 1.1-.7 1.6-1.8 1.6s-1.9-.3-1.9-2.5c0-1.5.2-2.7 1.9-2.7 1.4 0 1.8.8 1.8 2.5v.4h-2.8zm2-.6c0-1.5-.4-1.6-1-1.6-.5 0-.9.2-1 1.6h2zM101.2 233.5V230c0-.5-.1-1-.8-1-.2 0-.6.2-.7.3-.2.2-.2.5-.2.7v3.4h-.8v-4-1h.9v.6c.2-.5.7-.7 1.3-.7.5 0 1 .2 1.2.6.3-.5.7-.6 1.2-.6s1.4.1 1.4 1.3v3.8h-.8v-3.5c0-.5-.1-1-.8-1-.3 0-.4 0-.6.2-.2.2-.3.7-.3.9v3.4h-1zM107.4 233.6c-1.1 0-1.8-.5-1.7-1.6h.9c0 .3 0 1 .8 1 .5 0 .9-.2.9-.8 0-.9-2.5-.9-2.5-2.4 0-.5.3-1.4 1.7-1.4.9 0 1.7.4 1.6 1.4h-.9c0-.5-.3-.8-.8-.8-.4 0-.8.2-.8.7 0 .9 2.5.9 2.5 2.4.1 1.1-.7 1.5-1.7 1.5zM111.1 231.3c0 1.4.4 1.7 1 1.7s.8-.5.9-1h.9c0 1.1-.7 1.6-1.8 1.6s-1.9-.3-1.9-2.5c0-1.5.2-2.7 1.9-2.7 1.4 0 1.8.8 1.8 2.5v.4h-2.8zm2-.6c0-1.5-.4-1.6-1-1.6-.5 0-.9.2-1 1.6h2zM116.1 233.5h-.8v-7.2h.8v7.2zM117 228.5h.9l1.1 4.3 1.2-4.3h.9l-1.6 5h-1.1l-1.4-5zM122.8 231.3c0 1.4.4 1.7 1 1.7s.8-.5.9-1h.9c0 1.1-.7 1.6-1.8 1.6s-1.9-.3-1.9-2.5c0-1.5.2-2.7 1.9-2.7 1.4 0 1.8.8 1.8 2.5v.4h-2.8zm2-.6c0-1.5-.4-1.6-1-1.6-.5 0-.9.2-1 1.6h2zM128.5 233.6c-1.1 0-1.8-.5-1.7-1.6h.9c0 .3 0 1 .8 1 .5 0 .9-.2.9-.8 0-.9-2.5-.9-2.5-2.4 0-.5.3-1.4 1.7-1.4.9 0 1.7.4 1.6 1.4h-.9c0-.5-.3-.8-.8-.8-.4 0-.8.2-.8.7 0 .9 2.5.9 2.5 2.4.1 1.1-.7 1.5-1.7 1.5zM135.7 226.7c.5-.7 1-.9 1.8-.9s1.4.4 1.7 1c.5-.7 1.1-1 2-1 1 0 1.9.6 1.9 1.7v6.1H141v-5.2c0-.7-.1-1.2-.8-1.2-.7 0-.8.5-.8 1.2v5.2h-2.1v-5.2c0-.7-.1-1.2-.8-1.2s-.8.5-.8 1.2v5.2h-2.1V226h2.1v.7zM144.4 229.7c0-2.1.3-3.8 3.1-3.8s3.1 1.8 3.1 3.8c0 2.4-.4 4-3.1 4s-3.1-1.7-3.1-4zm4.1-.2c0-1.6-.1-2.4-1-2.4s-1 .8-1 2.4c0 2.3.2 2.8 1 2.8s1-.4 1-2.8zM154.1 226v1c.4-.9 1.1-1.1 2-1.1v1.9c-1.9-.1-1.9 1-1.9 1.7v4.1h-2.1V226h2zM159.1 230.1c0 .9 0 2.2 1 2.2.8 0 .9-.7.9-1.3h2.1c0 .8-.3 1.5-.8 2s-1.2.7-2.2.7c-2.7 0-3.1-1.7-3.1-4 0-2.1.3-3.8 3.1-3.8 2.8 0 3.2 1.8 3.1 4.3h-4.1zm1.9-1.2c0-.7 0-1.8-1-1.8s-1 1.1-1 1.8h2zM170.2 222.7v1.7h-2.1v-1.7h2.1zm0 10.8h-2.1V226h2.1v7.5zM174.2 226.7c.2-.3.5-.6.8-.7.3-.1.6-.2 1-.2 1 0 1.9.6 1.9 1.7v6.1h-2.1v-5.2c0-.7-.1-1.2-.8-1.2s-.8.5-.8 1.2v5.2h-2.1V226h2.1v.7zM178.8 226h.9v-1.2l2.1-.9v2.1h1.1v1.3h-1.1v4c0 .6 0 .9.7.9h.4v1.3c-.3 0-.6.1-1.1.1-1.8 0-2.1-1.2-2.1-1.7v-4.7h-.9V226zM185.7 230.1c0 .9 0 2.2 1 2.2.8 0 .9-.7.9-1.3h2.1c0 .8-.3 1.5-.8 2s-1.2.7-2.2.7c-2.7 0-3.1-1.7-3.1-4 0-2.1.3-3.8 3.1-3.8 2.8 0 3.2 1.8 3.1 4.3h-4.1zm2-1.2c0-.7 0-1.8-1-1.8s-1 1.1-1 1.8h2zM193.6 222.7v10.8h-2.1v-10.8h2.1zM197.7 222.7v10.8h-2.1v-10.8h2.1zM201.9 222.7v1.7h-2.1v-1.7h2.1zm0 10.8h-2.1V226h2.1v7.5zM209.6 226v7.9c0 .5 0 2.6-2.9 2.6-1.6 0-2.9-.4-3-2.2h2.1c0 .3 0 .6.2.8.1.2.4.3.7.3.5 0 .8-.5.8-1.3v-1.5c-.3.6-.9.9-1.6.9-2.3 0-2.2-2.1-2.2-3.8 0-1.7 0-3.8 2.2-3.8.8 0 1.4.3 1.7 1v-.9h2zm-3 6.1c.8 0 .9-.8.9-2.4 0-1.7-.1-2.6-.9-2.6s-.9.6-.9 2.9c0 .7-.1 2.1.9 2.1zM213.2 230.1c0 .9 0 2.2 1 2.2.8 0 .9-.7.9-1.3h2.1c0 .8-.3 1.5-.8 2s-1.2.7-2.2.7c-2.7 0-3.1-1.7-3.1-4 0-2.1.3-3.8 3.1-3.8 2.8 0 3.2 1.8 3.1 4.3h-4.1zm2-1.2c0-.7 0-1.8-1-1.8s-1 1.1-1 1.8h2zM220.9 226.7c.2-.3.5-.6.8-.7.3-.1.6-.2 1-.2 1 0 1.9.6 1.9 1.7v6.1h-2.1v-5.2c0-.7-.1-1.2-.8-1.2s-.8.5-.8 1.2v5.2h-2.1V226h2.1v.7zM225.4 226h.9v-1.2l2.1-.9v2.1h1.1v1.3h-1.1v4c0 .6 0 .9.7.9h.4v1.3c-.3 0-.6.1-1.1.1-1.8 0-2.1-1.2-2.1-1.7v-4.7h-.9V226zM235.2 232.8c-.3.6-.7.8-1.3.8-1.1 0-1.4-.7-1.4-1.7 0-1.5 1.5-1.6 2.6-1.6 0-.7 0-1.4-.8-1.4-.5 0-.8.4-.8.9h-.9c0-1.1.6-1.5 1.7-1.5 1.3 0 1.6.7 1.6 1.5v2.4c0 .4 0 .8.1 1.2h-.9v-.6zm-1.9-.8c0 .5.2.9.8.9.5 0 1.1-.3 1-1.9-.7.1-1.8 0-1.8 1zM240.3 233.5V230c0-.5-.2-1-.9-1-.9 0-1 .8-1 1.5v3h-.8v-4-1h.9v.6c.3-.6.7-.7 1.3-.7 1.1 0 1.3.6 1.3 1.6v3.5h-.8zM245.2 226.3h.8v7.2h-.8v-.6c-.3.5-.6.7-1.2.7-.8 0-1.6-.3-1.6-2.5 0-1.3 0-2.7 1.7-2.7.5 0 .8.2 1.1.6v-2.7zm-.9 2.8c-.9 0-1 .7-1 2 0 .8 0 1.9 1 1.9.9 0 .9-1.1.9-2.2 0-.6 0-1.7-.9-1.7zM88 241.1c.5-.7 1-.9 1.8-.9s1.4.4 1.7 1c.5-.7 1.1-1 2-1 1 0 1.9.6 1.9 1.6v6.1h-2.1v-5.2c0-.7-.1-1.2-.8-1.2-.7 0-.8.5-.8 1.2v5.2h-2.1v-5.2c0-.7-.1-1.2-.8-1.2s-.8.5-.8 1.2v5.2h-2.1v-7.6H88v.8zM96.7 244.1c0-2.1.3-3.8 3.1-3.8s3.1 1.8 3.1 3.8c0 2.4-.4 4-3.1 4-2.8 0-3.1-1.7-3.1-4zm4-.2c0-1.6-.1-2.4-1-2.4s-1 .8-1 2.4c0 2.3.2 2.8 1 2.8s1-.4 1-2.8zM106.4 240.4v1c.4-.9 1.1-1.1 2-1.1v1.9c-1.9-.1-1.9 1-1.9 1.7v4.1h-2.1v-7.6h2zM111.3 244.5c0 .9 0 2.2 1 2.2.8 0 .9-.7.9-1.3h2.1c0 .8-.3 1.5-.8 2s-1.2.7-2.2.7c-2.7 0-3.1-1.7-3.1-4 0-2.1.3-3.8 3.1-3.8 2.8 0 3.2 1.8 3.1 4.3h-4.1zm1.9-1.2c0-.7 0-1.8-1-1.8s-1 1.1-1 1.8h2zM124 243.1c0-1.1-.3-1.5-.9-1.5-.9 0-1 .8-1 2.4 0 2.3.2 2.8 1 2.8.7 0 1-.6 1-1.6h2.1c0 2.1-1.1 2.9-3.1 2.9-2.7 0-3.1-1.7-3.1-4 0-2.1.3-3.8 3.1-3.8 2 0 3.1.9 3.1 2.8H124zM129.7 240.4v1c.4-.9 1.1-1.1 2-1.1v1.9c-1.9-.1-1.9 1-1.9 1.7v4.1h-2.1v-7.6h2zM134.6 244.5c0 .9 0 2.2 1 2.2.8 0 .9-.7.9-1.3h2.1c0 .8-.3 1.5-.8 2s-1.2.7-2.2.7c-2.7 0-3.1-1.7-3.1-4 0-2.1.3-3.8 3.1-3.8 2.8 0 3.2 1.8 3.1 4.3h-4.1zm2-1.2c0-.7 0-1.8-1-1.8s-1 1.1-1 1.8h2zM145.9 246.5c0 .5.1.9.1 1.4h-2l-.1-1c-.4.8-1.1 1.2-2 1.2-1.5 0-2-1.1-2-2.4 0-2.5 1.9-2.6 3.9-2.6v-.6c0-.6-.1-1.1-.9-1.1-.7 0-.8.6-.8 1.2H140c0-.9.3-1.5.8-1.8.5-.4 1.2-.5 2-.5 2.7 0 3 1.2 3 2.5v3.7zm-3.9-.9c0 .5.1 1.2.8 1.2 1.2 0 1-1.7 1-2.5-1 0-1.8-.1-1.8 1.3zM146.8 240.4h.9v-1.2l2.1-.9v2.1h1.1v1.3h-1.1v4c0 .6 0 .9.7.9h.4v1.3c-.3 0-.6.1-1.1.1-1.8 0-2.1-1.2-2.1-1.7v-4.7h-.9v-1.2zM154.1 237.1v1.7H152v-1.7h2.1zm0 10.8H152v-7.6h2.1v7.6zM155.3 240.4h2.1l1.1 5.7 1.1-5.7h2.1l-2.1 7.6h-2.3l-2-7.6zM164.6 244.5c0 .9 0 2.2 1 2.2.8 0 .9-.7.9-1.3h2.1c0 .8-.3 1.5-.8 2s-1.2.7-2.2.7c-2.7 0-3.1-1.7-3.1-4 0-2.1.3-3.8 3.1-3.8 2.8 0 3.2 1.8 3.1 4.3h-4.1zm2-1.2c0-.7 0-1.8-1-1.8s-1 1.1-1 1.8h2zM172.4 242.9v-1l.8-.4v1.3h1.1v.6h-1.1v3.1c0 .3 0 .7.8.7h.4v.6c-.3 0-.5.1-.8.1-.8 0-1.1-.3-1.1-.9v-3.6h-.8v-.6h.7zM177.8 247.9v-3.4c0-.6-.2-1.1-.9-1.1-.8 0-1 .7-1 1.5v3h-.8v-7.2h.8v2.8c.3-.6.7-.8 1.4-.8.9 0 1.3.4 1.3 1.6v3.6h-.8zM182.7 247.2c-.3.6-.7.8-1.3.8-1.1 0-1.4-.7-1.4-1.7 0-1.5 1.5-1.6 2.6-1.6 0-.7 0-1.4-.8-1.4-.5 0-.8.4-.8.9h-.9c0-1.1.6-1.5 1.7-1.5 1.3 0 1.6.7 1.6 1.5v2.4c0 .4 0 .8.1 1.2h-.9v-.6zm-1.9-.8c0 .5.2.9.8.9.5 0 1.1-.3 1-1.9-.7 0-1.8 0-1.8 1zM187.8 247.9v-3.5c0-.5-.2-1-.9-1-.9 0-1 .8-1 1.5v3h-.8v-4-1h.9v.7c.3-.6.7-.8 1.3-.8 1.1 0 1.3.6 1.3 1.6v3.5h-.8zM194.9 247.2c-.3.6-.7.8-1.3.8-1.1 0-1.4-.7-1.4-1.7 0-1.5 1.5-1.6 2.6-1.6 0-.7 0-1.4-.8-1.4-.5 0-.8.4-.8.9h-.9c0-1.1.6-1.5 1.7-1.5 1.3 0 1.6.7 1.6 1.5v2.4c0 .4 0 .8.1 1.2h-.9v-.6zm-1.9-.8c0 .5.2.9.8.9.5 0 1.1-.3 1-1.9-.7 0-1.8 0-1.8 1zM196.7 242.9h.9l1.1 4.3 1.2-4.3h.9l-1.6 5h-1.1l-1.4-5zM202.5 245.7c0 1.4.4 1.7 1 1.7s.8-.4.9-1h.9c0 1.1-.7 1.6-1.8 1.6s-1.9-.3-1.9-2.5c0-1.5.2-2.7 1.9-2.7 1.4 0 1.8.8 1.8 2.5v.4h-2.8zm2-.6c0-1.5-.4-1.6-1-1.6-.5 0-.9.2-1 1.6h2zM207.6 243.7c.4-.8.8-.9 1.6-.9v.8h-.4c-.9 0-1.1.7-1.1 1.4v3h-.8v-5h.8v.7zM212.6 247.2c-.3.6-.7.8-1.3.8-1.1 0-1.4-.7-1.4-1.7 0-1.5 1.5-1.6 2.6-1.6 0-.7 0-1.4-.8-1.4-.5 0-.8.4-.8.9h-.9c0-1.1.6-1.5 1.7-1.5 1.3 0 1.6.7 1.6 1.5v2.4c0 .4 0 .8.1 1.2h-.9v-.6zm-1.8-.8c0 .5.2.9.8.9.5 0 1.1-.3 1-1.9-.8 0-1.8 0-1.8 1zM217.7 242.9h.8v5.6c0 1.1-.8 1.4-1.9 1.4-.8 0-1.6-.4-1.5-1.3h.9c0 .5.3.7.8.7.6 0 .9-.3.9-.9v-1c-.2.4-.7.6-1.1.6-1.4 0-1.6-1.2-1.6-2.7 0-2.3 1.2-2.5 1.6-2.5.5 0 1 .2 1.2.7v-.6zm-.9.6c-.9 0-1 1.1-1 1.8 0 1.6.4 2 1 2 1 0 1-1.2 1-1.9-.1-.8 0-1.9-1-1.9zM220.8 245.7c0 1.4.4 1.7 1 1.7s.8-.4.9-1h.9c0 1.1-.7 1.6-1.8 1.6s-1.9-.3-1.9-2.5c0-1.5.2-2.7 1.9-2.7 1.4 0 1.8.8 1.8 2.5v.4h-2.8zm2-.6c0-1.5-.4-1.6-1-1.6-.5 0-.9.2-1 1.6h2zM225.9 247.9h-.9v-1h.9v1z"/></svg>