<svg xmlns="http://www.w3.org/2000/svg" id="Layer_1" viewBox="0 0 254 108">
  <style>
    .Drop_x0020_Shadow{fill:none;} .Outer_x0020_Glow_x0020_5_x0020_pt{fill:none;} .Blue_x0020_Neon{fill:none;stroke:#8AACDA;stroke-width:7;stroke-linecap:round;stroke-linejoin:round;} .Chrome_x0020_Highlight{fill:url(#SVGID_1_);stroke:#FFFFFF;stroke-width:0.3629;stroke-miterlimit:1;} .Jive_GS{fill:#FFDD00;} .Alyssa_GS{fill:#A6D0E4;} .st0{fill:#0A3656;} .st1{fill:#ECD177;} .st2{fill:#ED5A49;} .st3{fill:none;stroke:#0A3656;stroke-width:0.3467;stroke-linecap:round;stroke-linejoin:round;stroke-miterlimit:10;} .st4{fill:#ED5A49;stroke:#ED5A49;stroke-width:0.1444;stroke-miterlimit:10;} .st5{fill:#E9F5FC;} .st6{opacity:0.26;fill:#337D7D;} .st7{fill:none;} .st8{fill:#DDE8F0;stroke:#DDE8F0;stroke-width:0.5;stroke-miterlimit:10;} .st9{fill:none;stroke:#ECD177;stroke-width:0.9;stroke-miterlimit:10;} .st10{fill:none;stroke:#0A3656;stroke-width:2;stroke-linecap:round;stroke-linejoin:round;stroke-miterlimit:10;stroke-dasharray:0,8;} .st11{fill:none;stroke:#ECD177;stroke-width:0.9;stroke-linecap:round;stroke-linejoin:round;stroke-miterlimit:10;} .st12{fill:none;stroke:#ECD177;stroke-linecap:round;stroke-linejoin:round;stroke-miterlimit:10;}
  </style>
  <linearGradient id="SVGID_1_" x1="127" x2="127" y1="54" y2="53" gradientUnits="userSpaceOnUse">
    <stop offset="0" stop-color="#656565"/>
    <stop offset=".618" stop-color="#1B1B1B"/>
    <stop offset=".629" stop-color="#545454"/>
    <stop offset=".983" stop-color="#3E3E3E"/>
  </linearGradient>
  <path id="blue" d="M226.2 67.2c-.7 0-1.3-.4-1.5-1.1-.4-1.4-1.3-4-2.6-6.3-2-3.5-7.1-9.7-2.1-20 4.3-8.9 16.2-5.8 18-4.7 2.4 1.4 12.6 7.2 5.1 22.1 0 0-3.9 6.2-4.9 9-.2.6-.8 1-1.4 1h-10.6zm10.8 4.6h-10.4c-.5 0-.9-.4-.9-.9s.4-.9.9-.9H237c.5 0 .9.4.9.9s-.4.9-.9.9zm0 3.7h-10.4c-.5 0-.9-.4-.9-.9s.4-.9.9-.9H237c.5 0 .9.4.9.9s-.4.9-.9.9zm-9 1.9h7.3c.3 0 .4.3.2.6l-1.6 1.7c-.3.3-.7.5-1.1.5h-2.4c-.4 0-.8-.2-1.1-.5l-1.6-1.6c-.2-.3 0-.7.3-.7zm-31.5-9.8c-.7 0-1.3-.4-1.5-1.1-.4-1.4-1.3-4-2.6-6.3-2-3.5-7.1-9.7-2.1-20 4.3-8.9 16.2-5.8 18-4.7 2.4 1.4 12.6 7.2 5.1 22.1 0 0-3.9 6.2-4.9 9-.2.6-.8 1-1.4 1h-10.6zm10.8 4.7h-10.4c-.5 0-.9-.4-.9-.9s.4-.9.9-.9h10.4c.5 0 .9.4.9.9 0 .4-.4.9-.9.9zm0 3.7h-10.4c-.5 0-.9-.4-.9-.9s.4-.9.9-.9h10.4c.5 0 .9.4.9.9s-.4.9-.9.9zm-9 1.9h7.3c.3 0 .4.3.2.6l-1.6 1.7c-.3.3-.7.5-1.1.5h-2.4c-.4 0-.8-.2-1.1-.5l-1.6-1.6c-.2-.3 0-.7.3-.7z" class="st0"/>
  <path id="yellow" d="M208.9 74.5c-1.1 0-2.1-.7-2.4-1.8-.7-2.3-2.1-6.4-4.2-10.1-3.2-5.5-11.3-15.6-3.4-31.9 6.9-14.2 25.9-9.3 28.9-7.6 3.8 2.2 20.1 11.6 8.2 35.3 0 0-6.2 10-7.8 14.5-.3 1-1.3 1.6-2.3 1.6h-17zm17.3 7.3h-16.6c-.8 0-1.4-.7-1.4-1.4 0-.8.7-1.4 1.4-1.4h16.6c.8 0 1.4.7 1.4 1.4 0 .8-.6 1.4-1.4 1.4zm0 6h-16.6c-.8 0-1.4-.7-1.4-1.4 0-.8.7-1.4 1.4-1.4h16.6c.8 0 1.4.7 1.4 1.4s-.6 1.4-1.4 1.4zm-14.4 3h11.8c.5 0 .7.5.4.9l-2.5 2.8c-.5.5-1.1.8-1.8.8h-3.8c-.7 0-1.3-.3-1.8-.8l-2.6-2.6c-.6-.4-.3-1.1.3-1.1z" class="st1"/>
  <path d="M12.1 51.4h1.2l2.3 7.2h-1l-.5-1.7h-2.8l-.5 1.7h-.9l2.2-7.2zm.6.9l-1.1 3.8h2.3l-1.2-3.8zm8.5 6.4v-3.5c0-.5-.1-1-.8-1-.2 0-.6.1-.7.3-.2.2-.2.5-.2.7v3.4h-.8v-5h.9v.6c.2-.5.7-.7 1.3-.7.5 0 1 .2 1.2.6.3-.5.7-.6 1.2-.6s1.4.1 1.4 1.3v3.8h-.8v-3.5c0-.5-.1-1-.8-1-.3 0-.4 0-.6.2-.2.2-.3.7-.3.9v3.4h-1zm7.4-.8c-.3.6-.7.8-1.3.8-1.1 0-1.4-.7-1.4-1.7 0-1.5 1.5-1.6 2.6-1.6 0-.7 0-1.4-.8-1.4-.5 0-.8.4-.8.9H26c0-1.1.6-1.5 1.7-1.5 1.3 0 1.6.7 1.6 1.5v2.4c0 .4 0 .8.1 1.2h-.9v-.6zm-1.9-.7c0 .5.2.9.8.9.5 0 1.1-.3 1-1.9-.7 0-1.8-.1-1.8 1zm4.3-3.6h.8v5.7c0 .8-.2 1.2-1.4 1.2v-.7c.3 0 .6-.1.6-.5v-5.7zm-.1-2.2h.9v.9h-.9v-.9zm2.2 4.8c0-1.5.2-2.7 1.9-2.7s1.9 1.2 1.9 2.7c0 2.2-.8 2.5-1.9 2.5s-1.9-.3-1.9-2.5zm2.9-.3c0-1.4-.4-1.7-1.1-1.7-.6 0-1.1.3-1.1 1.7 0 1.6.2 2.2 1.1 2.2s1.1-.6 1.1-2.2zm3-1.5c.4-.8.8-.9 1.6-.9v.8h-.4c-.9 0-1.1.7-1.1 1.4v3h-.8v-5h.7v.7zm2.5-3h.9v.9h-.9v-.9zm.8 7.3h-.8v-5h.8v5zm1.5-5.1v-1l.8-.4v1.3h1.1v.6h-1.1v3.1c0 .3 0 .7.8.7h.4v.6c-.3 0-.5.1-.8.1-.8 0-1.1-.3-1.1-.9v-3.6H43v-.6h.8zm4.2 4.1l1.2-4.1h.9l-2.3 7H47l.6-1.9-1.7-5h.9l1.2 4zm5-1.5c0-1.5.2-2.7 1.9-2.7s1.9 1.2 1.9 2.7c0 2.2-.8 2.5-1.9 2.5s-1.9-.3-1.9-2.5zm3-.3c0-1.4-.4-1.7-1.1-1.7-.6 0-1.1.3-1.1 1.7 0 1.6.2 2.2 1.1 2.2s1.1-.6 1.1-2.2zm2.3-2.3v-1c0-1 .7-1.2 1.4-1.2h.4v.6c-.9-.1-1 .3-1 .7v.9h1v.6h-1v4.4h-.8v-4.4h-.8v-.6h.8zm5.7 5.1h-.8v-7.2h.8v7.2zm2.2-2.3c0 1.4.4 1.7 1 1.7s.8-.4.9-1h.9c0 1.1-.7 1.6-1.8 1.6s-1.9-.3-1.9-2.5c0-1.5.2-2.7 1.9-2.7 1.4 0 1.8.8 1.8 2.5v.4h-2.8zm2-.6c0-1.5-.4-1.6-1-1.6-.5 0-.9.2-1 1.6h2zm2.3-2.2v-1c0-1 .7-1.2 1.4-1.2h.4v.6c-.9-.1-1 .3-1 .7v.9h1v.6h-1v4.4h-.8v-4.4h-.8v-.6h.8zm2.8 0v-1l.8-.4v1.3h1.1v.6h-1.1v3.1c0 .3 0 .7.8.7h.4v.6c-.3 0-.5.1-.8.1-.8 0-1.1-.3-1.1-.9v-3.6h-.8v-.6h.7zm7.6 5.1v-3.4c0-.6-.2-1.1-.9-1.1-.8 0-1 .7-1 1.5v3h-.8v-7.2h.8v2.8c.3-.6.7-.7 1.4-.7.9 0 1.3.4 1.3 1.6v3.6h-.8zm4.9-.8c-.3.6-.7.8-1.3.8-1.1 0-1.4-.7-1.4-1.7 0-1.5 1.5-1.6 2.6-1.6 0-.7 0-1.4-.8-1.4-.5 0-.8.4-.8.9h-.9c0-1.1.6-1.5 1.7-1.5 1.3 0 1.6.7 1.6 1.5v2.4c0 .4 0 .8.1 1.2h-.9v-.6zm-1.9-.7c0 .5.2.9.8.9.5 0 1.1-.3 1-1.9-.7 0-1.8-.1-1.8 1zm7 1.5v-3.5c0-.5-.2-1-.9-1-.9 0-1 .8-1 1.5v3h-.8v-5h.8v.6c.3-.6.7-.7 1.3-.7 1.1 0 1.3.6 1.3 1.6v3.5h-.7zm4.9-7.3h.8v7.2h-.8V58c-.3.5-.6.7-1.2.7-.8 0-1.6-.3-1.6-2.5 0-1.3 0-2.7 1.7-2.7.5 0 .8.2 1.1.6v-2.7zm-.9 2.8c-.9 0-1 .7-1 2 0 .8 0 1.9 1 1.9.9 0 .9-1.1.9-2.2 0-.6 0-1.7-.9-1.7zm4.1 2.2c0 1.4.4 1.7 1 1.7s.8-.4.9-1h.9c0 1.1-.7 1.6-1.8 1.6s-1.9-.3-1.9-2.5c0-1.5.2-2.7 1.9-2.7 1.4 0 1.8.8 1.8 2.5v.4H99zm1.9-.6c0-1.5-.4-1.6-1-1.6-.5 0-.9.2-1 1.6h2zm3.1-1.4c.4-.8.8-.9 1.6-.9v.8h-.4c-.9 0-1.1.7-1.1 1.4v3h-.8v-5h.8v.7zm4 4.4c-1.1 0-1.8-.5-1.7-1.6h.9c0 .3 0 1 .8 1 .5 0 .9-.2.9-.8 0-.9-2.5-.9-2.5-2.4 0-.5.3-1.4 1.7-1.4.9 0 1.7.4 1.6 1.4h-.9c0-.5-.3-.8-.8-.8-.4 0-.8.2-.8.7 0 .9 2.5.9 2.5 2.4.1 1-.7 1.5-1.7 1.5zm7.8-.9c-.3.6-.7.8-1.3.8-1.1 0-1.4-.7-1.4-1.7 0-1.5 1.5-1.6 2.6-1.6 0-.7 0-1.4-.8-1.4-.5 0-.8.4-.8.9h-.9c0-1.1.6-1.5 1.7-1.5 1.3 0 1.6.7 1.6 1.5v2.4c0 .4 0 .8.1 1.2h-.9v-.6zm-1.9-.7c0 .5.2.9.8.9.5 0 1.1-.3 1-1.9-.7 0-1.8-.1-1.8 1zm5.1 1.5h-.8v-7.2h.8v7.2zm2.9.1c-1.1 0-1.8-.5-1.7-1.6h.9c0 .3 0 1 .8 1 .5 0 .9-.2.9-.8 0-.9-2.5-.9-2.5-2.4 0-.5.3-1.4 1.7-1.4.9 0 1.7.4 1.6 1.4h-.9c0-.5-.3-.8-.8-.8-.4 0-.8.2-.8.7 0 .9 2.5.9 2.5 2.4 0 1-.7 1.5-1.7 1.5zm2.8-2.6c0-1.5.2-2.7 1.9-2.7s1.9 1.2 1.9 2.7c0 2.2-.8 2.5-1.9 2.5s-1.9-.3-1.9-2.5zm3-.3c0-1.4-.4-1.7-1.1-1.7-.6 0-1.1.3-1.1 1.7 0 1.6.2 2.2 1.1 2.2s1.1-.6 1.1-2.2zm7-.7c0-.8-.4-1-.7-1-.6 0-1.1.3-1.1 1.7 0 1.6.2 2.2 1.1 2.2.2 0 .8-.2.7-1.1h.9c0 1.4-1 1.8-1.6 1.8-1.1 0-1.9-.3-1.9-2.5 0-1.5.2-2.7 1.9-2.7 1 0 1.6.6 1.5 1.7h-.8zm2.2 1c0-1.5.2-2.7 1.9-2.7s1.9 1.2 1.9 2.7c0 2.2-.8 2.5-1.9 2.5s-1.9-.3-1.9-2.5zm3-.3c0-1.4-.4-1.7-1.1-1.7-.6 0-1.1.3-1.1 1.7 0 1.6.2 2.2 1.1 2.2s1.1-.6 1.1-2.2zm4.9 2.8v-3.5c0-.5-.2-1-.9-1-.9 0-1 .8-1 1.5v3h-.9v-5h.9v.6c.3-.6.7-.7 1.3-.7 1.1 0 1.3.6 1.3 1.6v3.5h-.7zm3.7.1c-1.1 0-1.8-.5-1.7-1.6h.9c0 .3 0 1 .8 1 .5 0 .9-.2.9-.8 0-.9-2.5-.9-2.5-2.4 0-.5.3-1.4 1.7-1.4.9 0 1.7.4 1.6 1.4h-.9c0-.5-.3-.8-.8-.8-.4 0-.8.2-.8.7 0 .9 2.5.9 2.5 2.4.1 1-.7 1.5-1.7 1.5zm2.9-7.4h.9v.9h-.9v-.9zm.9 7.3h-.8v-5h.8v5zm4.1-7.3h.8v7.2h-.8V58c-.3.5-.6.7-1.2.7-.8 0-1.6-.3-1.6-2.5 0-1.3 0-2.7 1.7-2.7.5 0 .8.2 1.1.6v-2.7zm-1 2.8c-.9 0-1 .7-1 2 0 .8 0 1.9 1 1.9.9 0 .9-1.1.9-2.2.1-.6 0-1.7-.9-1.7zm4.1 2.2c0 1.4.4 1.7 1 1.7s.8-.4.9-1h.9c0 1.1-.7 1.6-1.8 1.6s-1.9-.3-1.9-2.5c0-1.5.2-2.7 1.9-2.7 1.4 0 1.8.8 1.8 2.5v.4h-2.8zm2-.6c0-1.5-.4-1.6-1-1.6-.5 0-.9.2-1 1.6h2zm3.1-1.4c.4-.8.8-.9 1.6-.9v.8h-.4c-.9 0-1.1.7-1.1 1.4v3h-.8v-5h.8v.7zm3.2 2c0 1.4.4 1.7 1 1.7s.8-.4.9-1h.9c0 1.1-.7 1.6-1.8 1.6s-1.9-.3-1.9-2.5c0-1.5.2-2.7 1.9-2.7 1.4 0 1.8.8 1.8 2.5v.4h-2.8zm2-.6c0-1.5-.4-1.6-1-1.6-.5 0-.9.2-1 1.6h2zm4.9-4.4h.8v7.2h-.8V58c-.3.5-.6.7-1.2.7-.8 0-1.6-.3-1.6-2.5 0-1.3 0-2.7 1.7-2.7.5 0 .8.2 1.1.6v-2.7zm-.9 2.8c-.9 0-1 .7-1 2 0 .8 0 1.9 1 1.9.9 0 .9-1.1.9-2.2 0-.6 0-1.7-.9-1.7zM10.5 68v-1l.8-.4V68h1.1v.6h-1.1v3.1c0 .3 0 .7.8.7h.4v.6c-.3 0-.5.1-.8.1-.8 0-1.1-.3-1.1-.9v-3.6h-.9V68h.8zm5.4 5.1v-3.4c0-.6-.2-1.1-.9-1.1-.8 0-1 .7-1 1.5v3h-.8v-7.2h.8v2.8c.3-.6.7-.7 1.4-.7.9 0 1.3.4 1.3 1.6v3.6h-.8zm3.1-2.3c0 1.4.4 1.7 1 1.7s.8-.4.9-1h.9c0 1.1-.7 1.6-1.8 1.6s-1.9-.3-1.9-2.5c0-1.5.2-2.7 1.9-2.7 1.4 0 1.8.8 1.8 2.5v.4H19zm2-.6c0-1.5-.4-1.6-1-1.6-.5 0-.9.2-1 1.6h2zm4.7 2.9v-3.5c0-.5-.1-1-.8-1-.2 0-.6.1-.7.3-.2.3-.2.6-.2.8v3.4h-.8v-5h.8v.6c.2-.5.7-.7 1.3-.7.5 0 1 .2 1.2.6.3-.5.7-.6 1.2-.6s1.4.1 1.4 1.3v3.8h-.8v-3.5c0-.5-.1-1-.8-1-.3 0-.4 0-.6.2-.2.2-.3.7-.3.9v3.4h-.9zm6.2.1c-1.1 0-1.8-.5-1.7-1.6h.9c0 .3 0 1 .8 1 .5 0 .9-.2.9-.8 0-.9-2.5-.9-2.5-2.4 0-.5.3-1.4 1.7-1.4.9 0 1.7.4 1.6 1.4h-.9c0-.5-.3-.8-.8-.8-.4 0-.8.2-.8.7 0 .9 2.5.9 2.5 2.4.1 1-.7 1.5-1.7 1.5zm3.8-2.4c0 1.4.4 1.7 1 1.7s.8-.4.9-1h.9c0 1.1-.7 1.6-1.8 1.6s-1.9-.3-1.9-2.5c0-1.5.2-2.7 1.9-2.7 1.4 0 1.8.8 1.8 2.5v.4h-2.8zm1.9-.6c0-1.5-.4-1.6-1-1.6-.5 0-.9.2-1 1.6h2zm3.1 2.9h-.8v-7.2h.8v7.2zm.8-5.1h.9l1.1 4.3 1.2-4.3h.9L44 73h-1l-1.5-5zm5.8 2.8c0 1.4.4 1.7 1 1.7s.8-.4.9-1h.9c0 1.1-.7 1.6-1.8 1.6s-1.9-.3-1.9-2.5c0-1.5.2-2.7 1.9-2.7 1.4 0 1.8.8 1.8 2.5v.4h-2.8zm2-.6c0-1.5-.4-1.6-1-1.6-.5 0-.9.2-1 1.6h2zm3.7 3c-1.1 0-1.8-.5-1.7-1.6h.9c0 .3 0 1 .8 1 .5 0 .9-.2.9-.8 0-.9-2.5-.9-2.5-2.4 0-.5.3-1.4 1.7-1.4.9 0 1.7.4 1.6 1.4h-.9c0-.5-.3-.8-.8-.8-.4 0-.8.2-.8.7 0 .9 2.5.9 2.5 2.4.1 1-.7 1.5-1.7 1.5zm7.3-6.9c.5-.7 1-.9 1.8-.9s1.4.4 1.7 1c.5-.7 1.1-1 2-1 1 0 1.9.6 1.9 1.6v6.1h-2.1v-5.2c0-.7-.1-1.2-.8-1.2-.7 0-.8.5-.8 1.2v5.2h-2.1v-5.2c0-.7-.1-1.2-.8-1.2s-.8.5-.8 1.2v5.2h-2.1v-7.6h2.1v.8zm8.7 2.9c0-2.1.3-3.8 3.1-3.8s3.1 1.8 3.1 3.8c0 2.4-.4 4-3.1 4-2.8 0-3.1-1.7-3.1-4zm4-.1c0-1.6-.1-2.4-1-2.4s-1 .8-1 2.4c0 2.3.2 2.8 1 2.8s1-.5 1-2.8zm5.6-3.6v1c.4-.9 1.1-1.1 2-1.1v1.9c-1.9-.1-1.9 1-1.9 1.7v4.1h-2.1v-7.6h2zm5 4.1c0 .9 0 2.2 1 2.2.8 0 .9-.7.9-1.3h2.1c0 .8-.3 1.5-.8 2s-1.2.7-2.2.7c-2.7 0-3.1-1.7-3.1-4 0-2.1.3-3.8 3.1-3.8 2.8 0 3.2 1.8 3.1 4.3h-4.1zm1.9-1.2c0-.7 0-1.8-1-1.8s-1 1.1-1 1.8h2zm9.3-6.2v1.7h-2.1v-1.7h2.1zm0 10.9h-2.1v-7.6h2.1v7.6zm3.9-6.8c.2-.3.5-.6.8-.7.3-.1.6-.2 1-.2 1 0 1.9.6 1.9 1.6v6.1h-2.1v-5.2c0-.7-.1-1.2-.8-1.2s-.8.5-.8 1.2v5.2h-2.1v-7.6h2.1v.8zm4.6-.8h.9v-1.2l2.1-.9v2.1h1.1v1.3h-1.1v4c0 .6 0 .9.7.9h.4V73c-.3 0-.6.1-1.1.1-1.8 0-2.1-1.2-2.1-1.7v-4.7h-.9v-1.2zm6.9 4.1c0 .9 0 2.2 1 2.2.8 0 .9-.7.9-1.3h2.1c0 .8-.3 1.5-.8 2s-1.2.7-2.2.7c-2.7 0-3.1-1.7-3.1-4 0-2.1.3-3.8 3.1-3.8 2.8 0 3.2 1.8 3.1 4.3h-4.1zm2-1.2c0-.7 0-1.8-1-1.8s-1 1.1-1 1.8h2zm5.9-6.2V73H116V62.2h2.1zm4.2 0V73h-2.1V62.2h2.1zm4.1 0v1.7h-2.1v-1.7h2.1zm0 10.9h-2.1v-7.6h2.1v7.6zm7.7-7.6v7.9c0 .5 0 2.6-2.9 2.6-1.6 0-2.9-.4-3-2.2h2.1c0 .3 0 .6.2.8.1.2.4.3.7.3.5 0 .8-.5.8-1.3v-1.5c-.3.6-.9.9-1.6.9-2.3 0-2.2-2.1-2.2-3.8 0-1.7 0-3.8 2.2-3.8.8 0 1.4.3 1.7 1v-.9h2zm-3 6.1c.8 0 .9-.8.9-2.4 0-1.7-.1-2.6-.9-2.6s-.9.6-.9 2.9c0 .7-.1 2.1.9 2.1zm6.7-2c0 .9 0 2.2 1 2.2.8 0 .9-.7.9-1.3h2.1c0 .8-.3 1.5-.8 2s-1.2.7-2.2.7c-2.7 0-3.1-1.7-3.1-4 0-2.1.3-3.8 3.1-3.8 2.8 0 3.2 1.8 3.1 4.3h-4.1zm1.9-1.2c0-.7 0-1.8-1-1.8s-1 1.1-1 1.8h2zm5.7-2.1c.2-.3.5-.6.8-.7.3-.1.6-.2 1-.2 1 0 1.9.6 1.9 1.6v6.1H147v-5.2c0-.7-.1-1.2-.8-1.2s-.8.5-.8 1.2v5.2h-2.1v-7.6h2.1v.8zm4.6-.8h.9v-1.2l2.1-.9v2.1h1.1v1.3H153v4c0 .6 0 .9.7.9h.4V73c-.3 0-.6.1-1.1.1-1.8 0-2.1-1.2-2.1-1.7v-4.7h-.9v-1.2zm9.7 6.8c-.3.6-.7.8-1.3.8-1.1 0-1.4-.7-1.4-1.7 0-1.5 1.5-1.6 2.6-1.6 0-.7 0-1.4-.8-1.4-.5 0-.8.4-.8.9h-.9c0-1.1.6-1.5 1.7-1.5 1.3 0 1.6.7 1.6 1.5v2.4c0 .4 0 .8.1 1.2h-.9v-.6zm-1.9-.7c0 .5.2.9.8.9.5 0 1.1-.3 1-1.9-.7 0-1.8-.1-1.8 1zm7 1.5v-3.5c0-.5-.2-1-.9-1-.9 0-1 .8-1 1.5v3h-.8v-5h.9v.6c.3-.6.7-.7 1.3-.7 1.1 0 1.3.6 1.3 1.6v3.5h-.8zm4.9-7.3h.8V73h-.8v-.6c-.3.5-.6.7-1.2.7-.8 0-1.6-.3-1.6-2.5 0-1.3 0-2.7 1.7-2.7.5 0 .8.2 1.1.6v-2.7zm-.9 2.8c-.9 0-1 .7-1 2 0 .8 0 1.9 1 1.9.9 0 .9-1.1.9-2.2 0-.6 0-1.7-.9-1.7zM12.5 80.7c.5-.7 1-.9 1.8-.9s1.4.4 1.7 1c.5-.7 1.1-1 2-1 1 0 1.9.6 1.9 1.6v6.1h-2.1v-5.2c0-.7-.1-1.2-.8-1.2-.7 0-.8.5-.8 1.2v5.2h-2.1v-5.2c0-.7-.1-1.2-.8-1.2s-.8.5-.8 1.2v5.2h-2.1v-7.6h2.1v.8zm8.7 2.9c0-2.1.3-3.8 3.1-3.8s3.1 1.8 3.1 3.8c0 2.4-.4 4-3.1 4s-3.1-1.7-3.1-4zm4.1-.1c0-1.6-.1-2.4-1-2.4s-1 .8-1 2.4c0 2.3.2 2.8 1 2.8s1-.5 1-2.8zm5.6-3.6v1c.4-.9 1.1-1.1 2-1.1v1.9c-1.9-.1-1.9 1-1.9 1.7v4.1h-2.1v-7.6h2zm4.9 4.1c0 .9 0 2.2 1 2.2.8 0 .9-.7.9-1.4h2.1c0 .8-.3 1.5-.8 2s-1.2.7-2.2.7c-2.7 0-3.1-1.7-3.1-4 0-2.1.3-3.8 3.1-3.8 2.8 0 3.2 1.8 3.1 4.3h-4.1zm2-1.2c0-.7 0-1.8-1-1.8s-1 1.1-1 1.8h2zm10.8-.2c0-1.1-.3-1.5-.9-1.5-.9 0-1 .8-1 2.4 0 2.3.2 2.8 1 2.8.7 0 1-.6 1-1.6h2.1c0 2.1-1.1 2.9-3.1 2.9-2.7 0-3.1-1.7-3.1-4 0-2.1.3-3.8 3.1-3.8 2 0 3.1.9 3.1 2.8h-2.2zm5.6-2.7v1c.4-.9 1.1-1.1 2-1.1v1.9c-1.9-.1-1.9 1-1.9 1.7v4.1h-2.1v-7.6h2zm4.9 4.1c0 .9 0 2.2 1 2.2.8 0 .9-.7.9-1.4h2.1c0 .8-.3 1.5-.8 2s-1.2.7-2.2.7c-2.7 0-3.1-1.7-3.1-4 0-2.1.3-3.8 3.1-3.8 2.8 0 3.2 1.8 3.1 4.3h-4.1zm2-1.2c0-.7 0-1.8-1-1.8s-1 1.1-1 1.8h2zm9.3 3.2c0 .5.1.9.1 1.4h-2l-.1-1c-.4.8-1.1 1.2-2 1.2-1.5 0-2-1.1-2-2.4 0-2.5 1.9-2.6 3.9-2.6V82c0-.6-.1-1.1-.9-1.1-.7 0-.8.6-.8 1.2h-2.1c0-.9.3-1.5.8-1.8.5-.4 1.2-.5 2-.5 2.7 0 3 1.2 3 2.5V86zm-3.9-.9c0 .5.1 1.2.8 1.2 1.2 0 1-1.7 1-2.5-1 0-1.8 0-1.8 1.3zm4.8-5.2h.9v-1.2l2.1-.9v2.1h1.1v1.3h-1.1v4c0 .6 0 .9.7.9h.4v1.3c-.3 0-.6.1-1.1.1-1.8 0-2.1-1.2-2.1-1.7v-4.7h-.9v-1.2zm7.4-3.3v1.7h-2.1v-1.7h2.1zm0 10.9h-2.1v-7.6h2.1v7.6zm1.1-7.6H82l1.1 5.7 1.1-5.7h2.1l-2.1 7.6h-2.3l-2.1-7.6zm9.3 4.1c0 .9 0 2.2 1 2.2.8 0 .9-.7.9-1.4h2.1c0 .8-.3 1.5-.8 2s-1.2.7-2.2.7c-2.7 0-3.1-1.7-3.1-4 0-2.1.3-3.8 3.1-3.8 2.8 0 3.2 1.8 3.1 4.3h-4.1zm2-1.2c0-.7 0-1.8-1-1.8s-1 1.1-1 1.8h2zm5.8-.4v-1l.8-.4v1.3h1.1v.7h-1.1v3.1c0 .3 0 .7.8.7h.4v.6c-.3 0-.5.1-.8.1-.8 0-1.1-.3-1.1-.9V83h-.8v-.6h.7zm5.4 5.1V84c0-.6-.2-1.1-.9-1.1-.8 0-1 .7-1 1.5v3h-.8v-7.2h.8V83c.3-.6.7-.7 1.4-.7.9 0 1.3.4 1.3 1.6v3.6h-.8zm4.9-.8c-.3.6-.7.8-1.3.8-1.1 0-1.4-.7-1.4-1.7 0-1.5 1.5-1.6 2.6-1.6 0-.7 0-1.4-.8-1.4-.5 0-.8.4-.8.9h-.9c0-1.1.6-1.5 1.7-1.5 1.3 0 1.6.7 1.6 1.5v2.4c0 .4 0 .8.1 1.2h-.9v-.6zm-1.9-.7c0 .5.2.9.8.9.5 0 1.1-.3 1-1.9-.7 0-1.8-.1-1.8 1zm7 1.5V84c0-.5-.2-1-.9-1-.9 0-1 .8-1 1.5v3h-.8v-5h.9v.6c.3-.6.7-.7 1.3-.7 1.1 0 1.3.6 1.3 1.6v3.5h-.8zm7.1-.8c-.3.6-.7.8-1.3.8-1.1 0-1.4-.7-1.4-1.7 0-1.5 1.5-1.6 2.6-1.6 0-.7 0-1.4-.8-1.4-.5 0-.8.4-.8.9h-.9c0-1.1.6-1.5 1.7-1.5 1.3 0 1.6.7 1.6 1.5v2.4c0 .4 0 .8.1 1.2h-.9v-.6zm-1.9-.7c0 .5.2.9.8.9.5 0 1.1-.3 1-1.9-.7 0-1.8-.1-1.8 1zm3.7-3.6h.9l1.1 4.3 1.2-4.3h.9l-1.6 5h-1.1l-1.4-5zm5.8 2.8c0 1.4.4 1.7 1 1.7s.8-.4.9-1h.9c0 1.1-.7 1.6-1.8 1.6s-1.9-.3-1.9-2.5c0-1.5.2-2.7 1.9-2.7 1.4 0 1.8.8 1.8 2.5v.4H127zm2-.6c0-1.5-.4-1.6-1-1.6-.5 0-.9.2-1 1.6h2zm3.1-1.4c.4-.8.8-.9 1.6-.9v.8h-.4c-.9 0-1.1.7-1.1 1.4v3h-.8v-5h.8v.7zm5.1 3.5c-.3.6-.7.8-1.3.8-1.1 0-1.4-.7-1.4-1.7 0-1.5 1.5-1.6 2.6-1.6 0-.7 0-1.4-.8-1.4-.5 0-.8.4-.8.9h-.9c0-1.1.6-1.5 1.7-1.5 1.3 0 1.6.7 1.6 1.5v2.4c0 .4 0 .8.1 1.2h-.9v-.6zm-1.9-.7c0 .5.2.9.8.9.5 0 1.1-.3 1-1.9-.7 0-1.8-.1-1.8 1zm6.9-3.6h.8V88c0 1.1-.8 1.4-1.9 1.4-.8 0-1.6-.4-1.5-1.3h.9c0 .5.3.7.8.7.6 0 .9-.3.9-.9v-1c-.2.4-.7.6-1.1.6-1.4 0-1.6-1.2-1.6-2.7 0-2.3 1.2-2.5 1.6-2.5.5 0 1 .2 1.2.7v-.6zm-.9.6c-.9 0-1 1.1-1 1.8 0 1.6.4 2 1 2 1 0 1-1.2 1-1.9-.1-.7 0-1.9-1-1.9zm4.1 2.2c0 1.4.4 1.7 1 1.7s.8-.4.9-1h.9c0 1.1-.7 1.6-1.8 1.6s-1.9-.3-1.9-2.5c0-1.5.2-2.7 1.9-2.7 1.4 0 1.8.8 1.8 2.5v.4h-2.8zm1.9-.6c0-1.5-.4-1.6-1-1.6-.5 0-.9.2-1 1.6h2zm3.1 2.9h-.9v-1h.9v1z" class="st0"/>
</svg>
