<svg xmlns="http://www.w3.org/2000/svg" id="Layer_1" viewBox="0 0 309.8 187">
  <style>
    .Drop_x0020_Shadow{fill:none;} .Outer_x0020_Glow_x0020_5_x0020_pt{fill:none;} .Blue_x0020_Neon{fill:none;stroke:#8AACDA;stroke-width:7;stroke-linecap:round;stroke-linejoin:round;} .Chrome_x0020_Highlight{fill:url(#SVGID_1_);stroke:#FFFFFF;stroke-width:0.3629;stroke-miterlimit:1;} .Jive_GS{fill:#FFDD00;} .Alyssa_GS{fill:#A6D0E4;} .st0{fill:#0A3656;} .st1{fill:#ECD177;} .st2{fill:#ED5A49;} .st3{fill:none;stroke:#0A3656;stroke-width:0.3467;stroke-linecap:round;stroke-linejoin:round;stroke-miterlimit:10;} .st4{fill:#ED5A49;stroke:#ED5A49;stroke-width:0.1444;stroke-miterlimit:10;} .st5{fill:#E9F5FC;} .st6{opacity:0.26;fill:#337D7D;} .st7{fill:none;} .st8{fill:#DDE8F0;stroke:#DDE8F0;stroke-width:0.5;stroke-miterlimit:10;} .st9{fill:none;stroke:#ECD177;stroke-width:0.9;stroke-miterlimit:10;} .st10{fill:none;stroke:#0A3656;stroke-width:2;stroke-linecap:round;stroke-linejoin:round;stroke-miterlimit:10;stroke-dasharray:0,8;} .st11{fill:none;stroke:#ECD177;stroke-width:0.9;stroke-linecap:round;stroke-linejoin:round;stroke-miterlimit:10;} .st12{fill:none;stroke:#ECD177;stroke-linecap:round;stroke-linejoin:round;stroke-miterlimit:10;}
  </style>
  <linearGradient id="SVGID_1_" x1="494" x2="494" y1="258" y2="257" gradientUnits="userSpaceOnUse">
    <stop offset="0" stop-color="#656565"/>
    <stop offset=".618" stop-color="#1B1B1B"/>
    <stop offset=".629" stop-color="#545454"/>
    <stop offset=".983" stop-color="#3E3E3E"/>
  </linearGradient>
  <path d="M30.7 33.1h-.9v-7.2h1.5l1.8 6.1 1.8-6.1h1.5v7.2h-.9v-6.4l-2 6.4h-.9l-2-6.4v6.4zm7.3-2.4c0-1.5.2-2.7 1.9-2.7s1.9 1.2 1.9 2.7c0 2.2-.8 2.5-1.9 2.5s-1.9-.3-1.9-2.5zm3-.4c0-1.4-.4-1.7-1.1-1.7-.6 0-1.1.3-1.1 1.7 0 1.6.2 2.2 1.1 2.2S41 32 41 30.3zm3-1.5c.4-.8.8-.9 1.6-.9v.8h-.4c-.9 0-1.1.7-1.1 1.4v3h-.8v-5h.7v.7zm3.2 2.1c0 1.4.4 1.7 1 1.7s.8-.4.9-1h.9c0 1.1-.7 1.6-1.8 1.6s-1.9-.3-1.9-2.5c0-1.5.2-2.7 1.9-2.7 1.4 0 1.8.8 1.8 2.5v.4h-2.8zm2-.7c0-1.5-.4-1.6-1-1.6-.5 0-.9.2-1 1.6h2zm4.6-2.1v-1l.8-.4V28h1.1v.6h-1.1v3.1c0 .3 0 .7.8.7h.4v.6c-.3 0-.5.1-.8.1-.8 0-1.1-.3-1.1-.9v-3.6h-.8V28h.7zm5.4 5v-3.4c0-.6-.2-1.1-.9-1.1-.8 0-1 .7-1 1.5v3h-.8v-7.2h.8v2.8c.3-.6.7-.7 1.4-.7.9 0 1.3.4 1.3 1.6v3.6h-.8zm4.8-.7c-.3.6-.7.8-1.3.8-1.1 0-1.4-.7-1.4-1.7 0-1.5 1.5-1.6 2.6-1.6 0-.7 0-1.4-.8-1.4-.5 0-.8.4-.8.9h-.9c0-1.1.6-1.5 1.7-1.5 1.3 0 1.6.7 1.6 1.5v2.4c0 .4 0 .8.1 1.2H64v-.6zm-1.8-.8c0 .5.2.9.8.9.5 0 1.1-.3 1-1.9-.8 0-1.8 0-1.8 1zm7 1.5v-3.5c0-.5-.2-1-.9-1-.9 0-1 .8-1 1.5v3h-.8v-4c0-.3 0-.7-.1-1h.9v.6c.3-.6.7-.7 1.3-.7 1.1 0 1.3.6 1.3 1.6v3.5h-.7zm4.2-5.9c.5-.3 1-.6 1.3-1.1H76v7h-1.5v-5.4c-.4.3-.8.6-1.2.8v-1.3zm6.7.5c0-.2 0-.3-.1-.5-.1-.1-.2-.2-.4-.2-.6 0-.6.3-.6 2.1.4-.3.6-.5 1.1-.5 1.3 0 1.5 1.1 1.5 2.2 0 1.4-.5 2.4-2.1 2.4-1.8 0-1.9-1.6-1.9-3 0-2.8.1-4.2 2.1-4.2 1.1 0 1.8.4 1.8 1.6h-1.4zm.1 3.1c0-.9-.1-1.3-.6-1.3-.6.1-.6.6-.6 1.5 0 .4 0 1.2.6 1.2.4 0 .6-.3.6-1.4zm5.9-1.2c0 2.2-.1 3.6-2 3.6s-2-1.4-2-3.6c0-2.7.3-3.6 2-3.6s2 .9 2 3.6zm-2.7 0c0 2.1.1 2.6.6 2.6s.6-.4.6-2.6c0-2.1 0-2.6-.6-2.6s-.6.5-.6 2.6zm3.5 2.2h1.3l-.8 2.3h-1l.5-2.3zm5.8-2.2c0 2.2-.1 3.6-2 3.6s-2-1.4-2-3.6c0-2.7.3-3.6 2-3.6s2 .9 2 3.6zm-2.6 0c0 2.1.1 2.6.6 2.6s.6-.4.6-2.6c0-2.1 0-2.6-.6-2.6s-.6.5-.6 2.6zm7.1 0c0 2.2-.1 3.6-2 3.6s-2-1.4-2-3.6c0-2.7.3-3.6 2-3.6s2 .9 2 3.6zm-2.7 0c0 2.1.1 2.6.6 2.6s.6-.4.6-2.6c0-2.1 0-2.6-.6-2.6s-.6.5-.6 2.6zm7.1 0c0 2.2-.1 3.6-2 3.6s-2-1.4-2-3.6c0-2.7.3-3.6 2-3.6s2 .9 2 3.6zm-2.6 0c0 2.1.1 2.6.6 2.6s.6-.4.6-2.6c0-2.1 0-2.6-.6-2.6s-.6.5-.6 2.6zm7.5-3.7h1.2l2.3 7.2h-1l-.5-1.7h-2.8l-.5 1.7h-.9l2.2-7.2zm.5.9l-1.1 3.8h2.3l-1.2-3.8zm6.3 6.3v-3.5c0-.5-.1-1-.8-1-.2 0-.6.1-.7.3-.1.2-.2.5-.2.7V33h-.8v-5h.9v.6c.2-.5.7-.7 1.3-.7.5 0 1 .2 1.2.6.3-.5.7-.6 1.2-.6s1.4.1 1.4 1.3V33h-.8v-3.5c0-.5-.1-1-.8-1-.3 0-.4 0-.6.2-.2.2-.3.7-.3.9V33h-1zm5.6-2.2c0 1.4.4 1.7 1 1.7s.8-.4.9-1h.9c0 1.1-.7 1.6-1.8 1.6s-1.9-.3-1.9-2.5c0-1.5.2-2.7 1.9-2.7 1.4 0 1.8.8 1.8 2.5v.4h-2.8zm1.9-.7c0-1.5-.4-1.6-1-1.6-.5 0-.9.2-1 1.6h2zm3.1-1.4c.4-.8.8-.9 1.6-.9v.8h-.4c-.9 0-1.1.7-1.1 1.4v3h-.8v-5h.8v.7zm2.4-2.9h.9v.9h-.9v-.9zm.9 7.2h-.8v-5h.8v5zm4.1-3.4c0-.8-.4-1-.7-1-.6 0-1.1.3-1.1 1.7 0 1.6.2 2.2 1.1 2.2.2 0 .8-.2.7-1.1h.9c0 1.4-1 1.8-1.6 1.8-1.1 0-1.9-.3-1.9-2.5 0-1.5.2-2.7 1.9-2.7 1 0 1.6.6 1.5 1.7h-.8zm4.9 2.7c-.3.6-.7.8-1.3.8-1.1 0-1.4-.7-1.4-1.7 0-1.5 1.5-1.6 2.6-1.6 0-.7 0-1.4-.8-1.4-.5 0-.8.4-.8.9h-.9c0-1.1.6-1.5 1.7-1.5 1.3 0 1.6.7 1.6 1.5v2.4c0 .4 0 .8.1 1.2h-.9v-.6zm-1.8-.8c0 .5.2.9.8.9.5 0 1.1-.3 1-1.9-.8 0-1.8 0-1.8 1zm7 1.5v-3.5c0-.5-.2-1-.9-1-.9 0-1 .8-1 1.5v3h-.8v-4c0-.3 0-.7-.1-1h.9v.6c.3-.6.7-.7 1.3-.7 1.1 0 1.3.6 1.3 1.6v3.5h-.7zm3.7.1c-1.1 0-1.8-.5-1.7-1.6h.9c0 .3 0 1 .8 1 .5 0 .9-.2.9-.8 0-.9-2.5-.9-2.5-2.4 0-.5.3-1.4 1.7-1.4.9 0 1.7.4 1.6 1.4h-.9c0-.5-.3-.8-.8-.8-.4 0-.8.2-.8.7 0 .9 2.5.9 2.5 2.4.1 1.1-.7 1.5-1.7 1.5zm5.3-5.1v-1l.8-.4V28h1.1v.6h-1.1v3.1c0 .3 0 .7.8.7h.4v.6c-.3 0-.5.1-.8.1-.8 0-1.1-.3-1.1-.9v-3.6h-.8V28h.7zm2.5 2.6c0-1.5.2-2.7 1.9-2.7s1.9 1.2 1.9 2.7c0 2.2-.8 2.5-1.9 2.5s-1.9-.3-1.9-2.5zm3-.4c0-1.4-.4-1.7-1.1-1.7-.6 0-1.1.3-1.1 1.7 0 1.6.2 2.2 1.1 2.2s1.1-.5 1.1-2.2zm2 .4c0-1.5.2-2.7 1.9-2.7s1.9 1.2 1.9 2.7c0 2.2-.8 2.5-1.9 2.5s-1.9-.3-1.9-2.5zm3-.4c0-1.4-.4-1.7-1.1-1.7-.6 0-1.1.3-1.1 1.7 0 1.6.2 2.2 1.1 2.2s1.1-.5 1.1-2.2zm3 2.8h-.8v-7.2h.8v4.3l1.5-2.2h1l-1.7 2.2 2 2.9h-1l-1.8-2.8v2.8zm8.4-.7c-.3.6-.7.8-1.3.8-1.1 0-1.4-.7-1.4-1.7 0-1.5 1.5-1.6 2.6-1.6 0-.7 0-1.4-.8-1.4-.5 0-.8.4-.8.9h-.9c0-1.1.6-1.5 1.7-1.5 1.3 0 1.6.7 1.6 1.5v2.4c0 .4 0 .8.1 1.2h-.9v-.6zm-1.8-.8c0 .5.2.9.8.9.5 0 1.1-.3 1-1.9-.8 0-1.8 0-1.8 1zm7.9 1.6c-1.1 0-1.8-.5-1.7-1.6h.9c0 .3 0 1 .8 1 .5 0 .9-.2.9-.8 0-.9-2.5-.9-2.5-2.4 0-.5.3-1.4 1.7-1.4.9 0 1.7.4 1.6 1.4h-.9c0-.5-.3-.8-.8-.8-.4 0-.8.2-.8.7 0 .9 2.5.9 2.5 2.4.1 1.1-.7 1.5-1.7 1.5zm3.9-4.5c.3-.5.6-.7 1.2-.7.8 0 1.6.3 1.6 2.5 0 1.3 0 2.7-1.7 2.7-.5 0-.8-.2-1.1-.6V35h-.8v-7h.8v.7zm1.9 1.8c0-.8 0-1.9-1-1.9s-.9 1.4-.9 2.2c0 .7 0 1.7.9 1.7.9.1 1-.6 1-2zm3 .4c0 1.4.4 1.7 1 1.7s.8-.4.9-1h.9c0 1.1-.7 1.6-1.8 1.6s-1.9-.3-1.9-2.5c0-1.5.2-2.7 1.9-2.7 1.4 0 1.8.8 1.8 2.5v.4h-2.8zm2-.7c0-1.5-.4-1.6-1-1.6-.5 0-.9.2-1 1.6h2zm4.8-.5c0-.8-.4-1-.7-1-.6 0-1.1.3-1.1 1.7 0 1.6.2 2.2 1.1 2.2.2 0 .8-.2.7-1.1h.9c0 1.4-1 1.8-1.6 1.8-1.1 0-1.9-.3-1.9-2.5 0-1.5.2-2.7 1.9-2.7 1 0 1.6.6 1.5 1.7h-.8zm2.3-3.8h.9v.9h-.9v-.9zm.9 7.2h-.8v-5h.8v5zm4-.7c-.3.6-.7.8-1.3.8-1.1 0-1.4-.7-1.4-1.7 0-1.5 1.5-1.6 2.6-1.6 0-.7 0-1.4-.8-1.4-.5 0-.8.4-.8.9h-.9c0-1.1.6-1.5 1.7-1.5 1.3 0 1.6.7 1.6 1.5v2.4c0 .4 0 .8.1 1.2h-.9v-.6zm-1.8-.8c0 .5.2.9.8.9.5 0 1.1-.3 1-1.9-.8 0-1.8 0-1.8 1zm5 1.5h-.8v-7.2h.8v7.2zm4.5 0h-.8v-7.2h.8v2.7c.3-.4.6-.6 1.1-.6 1.6 0 1.7 1.4 1.7 2.7 0 2.2-.8 2.5-1.6 2.5-.5 0-.9-.2-1.2-.7v.6zm1-.5c1 0 1-1.1 1-1.9 0-1.3-.1-2-1-2s-.9 1.1-.9 1.7c-.1.8-.2 2.2.9 2.2zm4-3.8c.4-.8.8-.9 1.6-.9v.8h-.4c-.9 0-1.1.7-1.1 1.4v3h-.8v-5h.8v.7zm5.1 3.6c-.3.6-.7.8-1.3.8-1.1 0-1.4-.7-1.4-1.7 0-1.5 1.5-1.6 2.6-1.6 0-.7 0-1.4-.8-1.4-.5 0-.8.4-.8.9h-.9c0-1.1.6-1.5 1.7-1.5 1.3 0 1.6.7 1.6 1.5v2.4c0 .4 0 .8.1 1.2h-.8v-.6zm-1.9-.8c0 .5.2.9.8.9.5 0 1.1-.3 1-1.9-.7 0-1.8 0-1.8 1zm4.2-5.7h.9v.9h-.9v-.9zm.9 7.2h-.8v-5h.8v5zm4.1 0v-3.5c0-.5-.2-1-.9-1-.9 0-1 .8-1 1.5v3h-.8v-4c0-.3 0-.7-.1-1h.9v.6c.3-.6.7-.7 1.3-.7 1.1 0 1.3.6 1.3 1.6v3.5h-.7zm4.6-5v-1l.8-.4V28h1.1v.6h-1.1v3.1c0 .3 0 .7.8.7h.4v.6c-.3 0-.5.1-.8.1-.8 0-1.1-.3-1.1-.9v-3.6h-.8V28h.7zm3.5 2.8c0 1.4.4 1.7 1 1.7s.8-.4.9-1h.9c0 1.1-.7 1.6-1.8 1.6s-1.9-.3-1.9-2.5c0-1.5.2-2.7 1.9-2.7 1.4 0 1.8.8 1.8 2.5v.4h-2.8zm2-.7c0-1.5-.4-1.6-1-1.6-.5 0-.9.2-1 1.6h2zm3.7 3c-1.1 0-1.8-.5-1.7-1.6h.9c0 .3 0 1 .8 1 .5 0 .9-.2.9-.8 0-.9-2.5-.9-2.5-2.4 0-.5.3-1.4 1.7-1.4.9 0 1.7.4 1.6 1.4h-.9c0-.5-.3-.8-.8-.8-.4 0-.8.2-.8.7 0 .9 2.5.9 2.5 2.4 0 1.1-.7 1.5-1.7 1.5zm3-5.1v-1l.8-.4V28h1.1v.6h-1.1v3.1c0 .3 0 .7.8.7h.4v.6c-.3 0-.5.1-.8.1-.8 0-1.1-.3-1.1-.9v-3.6h-.8V28h.7zm3.6 5h-.9v-1h.9v1zM33.9 37.9v.8H32v6.4h-.9v-6.4h-1.9v-.8h4.7zm3.6 7.2v-3.4c0-.6-.2-1.1-.9-1.1-.8 0-1 .7-1 1.5v3h-.8v-7.2h.8v2.8c.4-.6.7-.7 1.4-.7.9 0 1.3.4 1.3 1.6v3.6h-.8zm3.1-2.2c0 1.4.4 1.7 1 1.7s.8-.4.9-1h.9c0 1.1-.7 1.6-1.8 1.6s-1.9-.3-1.9-2.5c0-1.5.2-2.7 1.9-2.7 1.4 0 1.8.8 1.8 2.5v.4h-2.8zm2-.7c0-1.5-.4-1.6-1-1.6-.5 0-.9.2-1 1.6h2zm5.3-1.4c.4-.8.8-.9 1.6-.9v.8h-.4c-.9 0-1.1.7-1.1 1.4v3h-1v-5h.8v.7zm3.2 2.1c0 1.4.4 1.7 1 1.7s.8-.4.9-1h.9c0 1.1-.7 1.6-1.8 1.6s-1.9-.3-1.9-2.5c0-1.5.2-2.7 1.9-2.7 1.4 0 1.8.8 1.8 2.5v.4h-2.8zm2-.7c0-1.5-.4-1.6-1-1.6-.5 0-.9.2-1 1.6h2zm3.7 3c-1.1 0-1.8-.5-1.7-1.6h.9c0 .3 0 1 .8 1 .5 0 .9-.2.9-.8 0-.9-2.5-.9-2.5-2.4 0-.5.3-1.4 1.7-1.4.9 0 1.7.4 1.6 1.4h-.9c0-.5-.3-.8-.8-.8-.4 0-.8.2-.8.7 0 .9 2.5.9 2.5 2.4.1 1.1-.7 1.5-1.7 1.5zm5.7-5.1h.8v5h-.9v-.6c-.3.5-.7.7-1.3.7-.9 0-1.4-.4-1.4-1.3v-3.8h.8v3.5c0 .6.3 1 .9 1 .4 0 1-.3 1-1.2v-3.3zm3.1 5h-.8v-7.2h.8v7.2zm1.5-5v-1l.8-.4V40H69v.6h-1.1v3.1c0 .3 0 .7.8.7h.4v.6c-.3 0-.5.1-.8.1-.8 0-1.1-.3-1.1-.9v-3.6h-.8V40h.7zm4.2 5.1c-1.1 0-1.8-.5-1.7-1.6h.9c0 .3 0 1 .8 1 .5 0 .9-.2.9-.8 0-.9-2.5-.9-2.5-2.4 0-.5.3-1.4 1.7-1.4.9 0 1.7.4 1.6 1.4h-.9c0-.5-.3-.8-.8-.8-.4 0-.8.2-.8.7 0 .9 2.5.9 2.5 2.4 0 1.1-.7 1.5-1.7 1.5zm6.6 0c-1.1 0-1.8-.5-1.7-1.6h.9c0 .3 0 1 .8 1 .5 0 .9-.2.9-.8 0-.9-2.5-.9-2.5-2.4 0-.5.3-1.4 1.7-1.4.9 0 1.7.4 1.6 1.4h-.9c0-.5-.3-.8-.8-.8-.4 0-.8.2-.8.7 0 .9 2.5.9 2.5 2.4.1 1.1-.7 1.5-1.7 1.5zm5.7-.1v-3.4c0-.6-.2-1.1-.9-1.1-.8 0-1 .7-1 1.5v3h-.8v-7.2h.8v2.8c.3-.6.7-.7 1.4-.7.9 0 1.3.4 1.3 1.6v3.6h-.8zm2.1-2.4c0-1.5.2-2.7 1.9-2.7s1.9 1.2 1.9 2.7c0 2.2-.8 2.5-1.9 2.5s-1.9-.3-1.9-2.5zm3-.4c0-1.4-.4-1.7-1.1-1.7-.6 0-1.1.3-1.1 1.7 0 1.6.2 2.2 1.1 2.2s1.1-.5 1.1-2.2zm1.5-2.2h.9l.9 4.3 1.1-4.3h1.2l1 4.3 1-4.3h.9l-1.3 5h-1.1l-1.1-4.3-1.1 4.3h-1.1l-1.3-5zm8.7 2.8c0 1.4.4 1.7 1 1.7s.8-.4.9-1h.9c0 1.1-.7 1.6-1.8 1.6s-1.9-.3-1.9-2.5c0-1.5.2-2.7 1.9-2.7 1.4 0 1.8.8 1.8 2.5v.4h-2.8zm2-.7c0-1.5-.4-1.6-1-1.6-.5 0-.9.2-1 1.6h2zm4.9-4.3h.8v7.2h-.8v-.6c-.3.5-.6.7-1.2.7-.8 0-1.6-.3-1.6-2.5 0-1.3 0-2.7 1.7-2.7.5 0 .8.2 1.1.6v-2.7zm-1 2.7c-.9 0-1 .7-1 2 0 .8 0 1.9 1 1.9.9 0 .9-1.1.9-2.2.1-.6 0-1.7-.9-1.7zm5.6-.5v-1l.8-.4V40h1.1v.6h-1.1v3.1c0 .3 0 .7.8.7h.4v.6c-.3 0-.5.1-.8.1-.8 0-1.1-.3-1.1-.9v-3.6h-.8V40h.7zm5.4 5v-3.4c0-.6-.2-1.1-.9-1.1-.8 0-1 .7-1 1.5v3h-.8v-7.2h.8v2.8c.3-.6.7-.7 1.4-.7.9 0 1.3.4 1.3 1.6v3.6h-.8zm4.9-.7c-.3.6-.7.8-1.3.8-1.1 0-1.4-.7-1.4-1.7 0-1.5 1.5-1.6 2.6-1.6 0-.7 0-1.4-.8-1.4-.5 0-.8.4-.8.9h-.9c0-1.1.6-1.5 1.7-1.5 1.3 0 1.6.7 1.6 1.5v2.4c0 .4 0 .8.1 1.2h-.9v-.6zm-1.9-.8c0 .5.2.9.8.9.5 0 1.1-.3 1-1.9-.7 0-1.8 0-1.8 1zm4.4-3.5v-1l.8-.4V40h1.1v.6H124v3.1c0 .3 0 .7.8.7h.4v.6c-.3 0-.5.1-.8.1-.8 0-1.1-.3-1.1-.9v-3.6h-.8V40h.7zm3.5 1h-.9v-1h.9v1zm0 4h-.9v-1h.9v1z" class="st0"/>
  <g id="america">
    <path d="M69.3 59.2c16.9 5.4 50.6 7.6 73 8.9 3.6.2 13.3-.2 14.2 3.3.5 1.9-6.6 3.4-5.8 5.2 1 2 6.5-1.4 8.7-1.6 2.8-.3 8.4-.6 11.1 0 .9.2 2.9.9 3.5 1.6 1.5 2.1.4 7.8 1 10.3.5 2 .9 7 2.9 7.6 3.3 1.1 8.3-6.6 11.5-7.8 1.9-.7 7.6-1 6.8-4.7-.8-3.7 9.8-5 12.4-7.6 2.1-2.1.3-10.3 3.1-11.3 2.9-1 5.9 4.1 8.7 8.7 0 0-8.1 6.7-8 9.9 0 .5.5 1.2 1.1 1.9 1.3 1.5 1.1 3.8-.6 4.9-2.9 1.8-6.7 4.5-7.7 6.3-1.7 3-2.2 10.4-1.6 13.8.4 2.4 3 6.5-.2 9.7-3.2 3.2-9.6 10.6-12.2 13.2-2.6 2.6 2.3 11.1 4.3 16.3 2.1 5.2 5.2 17.1-.6 11.3-5.8-5.8-8.5-15.6-13.6-18.1-2.5-1.2-8.4.8-11.1 1-2.4.2-8.7-1.4-9.5.8-.5 1.4 4.6 2.8 4.1 4.1-.6 1.6-4.9.7-6.6.6-2.6-.1-7.7-2-10.3-1.9-4.8.3-3.4 7.4-12.2 14.9-1.1 1-4.7.8-6 0-3.7-2.5-6.2-15.8-8.9-15.8s-3.5 3.1-4.9 3.3c-1.6.2-3.9-2.8-4.9-3.9-1.7-1.9-3.4-7.1-5.6-8.5-1.1-.7-4.1-1.3-5.2-.6-.5.3-.3 2-.8 2.3-2.1 1.2-7.4-1.1-9.7-1.9-2.8-.9-9.3-2.6-10.7-5.2-.3-.5.5-1.7.2-2.1-1.4-1.7-7 .6-8.7-.8-1.1-.9-.7-3-2.7-4.9-2-2-5.8-4.4-7-6.4-1-1.6-1.6-5.6-2.1-7.4-1.4-5.5-3.5-15.7-1-22.7s5.2-12.5 6-16.9c.4-2.4-2.2-8.8 0-9.7 1.6-.7 3.3 5.5 4.9 4.9 1.3-.5-.5-5.4.7-5z" class="st2"/>
    <path d="M190.4 133.7l-70-30.1c-1.1-.5-2.3.1-2.8 1.1l-12.3 30.5 27.3-68" class="st12"/>
    <path d="M78.7 87.9c0 .4.1 1.7 1.6 1.7 1 0 1.6-.7 1.6-1.7 0-1.9-1.8-1.9-3.1-1.9v-2.1c1.3 0 3.1-.1 3.1-1.9 0-1-.7-1.5-1.5-1.5s-1.5.5-1.5 1.6h-2.8c.1-.6.1-1.4.7-2.1.8-1 2.2-1.4 3.5-1.4 3.2 0 4.2 2.1 4.2 3.4 0 2.1-1.9 2.7-2.4 2.8.4.1.9.3 1.5.8.9.7 1 1.7 1 2.3 0 2.1-1.9 3.7-4.6 3.7-.9 0-2.2-.2-3-.8-1-1-1-2.4-1-2.9h2.7zm7.6-9.2h8.5V81l-4.3 10.3h-3L92 80.8h-5.8v-2.1zm13.2-1.1c2.5 0 2.9 1.6 2.9 3.3 0 .9 0 3.6-3.1 3.6-2.1 0-2.9-1.5-2.9-3.4.1-1 .1-3.5 3.1-3.5zm-.1 5.4c.6 0 1-.4 1-2.1 0-.7-.1-1.9-1-1.9-1.1 0-1.1 1.5-1.1 2 .1 1.4.4 2 1.1 2zm8.2-5.6l-6.8 14.1h-1.4l6.8-14.1h1.4zm.2 7.2c2.5 0 2.9 1.6 2.9 3.3 0 .9 0 3.6-3.1 3.6-2.1 0-2.9-1.5-2.9-3.4.1-1 .1-3.5 3.1-3.5zm-.1 5.4c.6 0 1-.4 1-2.1 0-.7-.1-1.9-1-1.9-1.1 0-1.1 1.4-1.1 2 .1 1.3.3 2 1.1 2z" class="st8"/>
    <path d="M135.1 132.1l2.2-2c.4-.3.8-.7 1.3-1.3.5-.6.6-.8.6-1.2 0-.6-.4-1.1-1-1.1-1 0-1 1-1.1 1.2h-1.8c0-.3 0-1 .5-1.6.5-.6 1.4-.9 2.4-.9 1.8 0 2.8 1 2.8 2.3 0 .9-.3 2-4 4.9h4v1.4h-5.9v-1.7zm8.6-.4c0 .5.4.8.9.8 1.2 0 1.3-1.3 1.3-2.4-.6.5-1.1.6-1.5.6-2.1 0-2.6-1.6-2.6-2.6 0-1.6 1.1-2.7 3-2.7 2.9 0 3 2.7 3 4.1 0 3.5-1.2 4.5-3.2 4.5-.5 0-2.6 0-2.6-2.2h1.7zm2.1-3.8c0-.7-.4-1.3-1.1-1.3-.9 0-1.2.7-1.2 1.3 0 .3.1 1.3 1.1 1.3 1 .1 1.2-.7 1.2-1.3zm4.9-3.3c1.7 0 2 1.1 2 2.2 0 .6 0 2.4-2 2.4-1.4 0-1.9-1-1.9-2.3-.1-.6 0-2.3 1.9-2.3zm0 3.6c.4 0 .7-.3.7-1.4 0-.5 0-1.3-.6-1.3-.7 0-.7 1-.7 1.3-.1 1 .1 1.4.6 1.4zm5.5-3.7l-4.6 9.4h-.9l4.6-9.4h.9zm.1 4.8c1.7 0 2 1.1 2 2.2 0 .6 0 2.4-2.1 2.4-1.4 0-1.9-1-1.9-2.3 0-.7 0-2.3 2-2.3zm-.1 3.6c.4 0 .7-.3.7-1.4 0-.5 0-1.3-.7-1.3s-.7 1-.7 1.3c0 .9.2 1.4.7 1.4zm8.3-27.8c0 .3.1 1.1 1.1 1.1.7 0 1.1-.5 1.1-1.1 0-1.2-1.2-1.2-2.1-1.2v-1.4c.8 0 2.1 0 2.1-1.2 0-.7-.5-1-1-1s-1 .3-1 1h-1.8c0-.4.1-.9.5-1.4.6-.7 1.4-.9 2.3-.9 2.1 0 2.8 1.4 2.8 2.3 0 1.4-1.2 1.8-1.6 1.9.3.1.6.2 1 .5.6.5.7 1.1.7 1.5 0 1.4-1.3 2.5-3 2.5-.6 0-1.5-.1-2-.6-.7-.6-.8-1.6-.8-1.9h1.7zm4.7.4v-1.6l3.4-4.9h1.8v5.2h1.1v1.4h-1.1v1.8h-1.8v-1.8h-3.4zm1.4-1.3h2.1v-3.1l-2.1 3.1zm7.7-6c1.7 0 2 1.1 2 2.2 0 .6 0 2.4-2 2.4-1.4 0-1.9-1-1.9-2.3-.1-.6-.1-2.3 1.9-2.3zm0 3.6c.4 0 .7-.3.7-1.4 0-.5 0-1.3-.6-1.3-.7 0-.7 1-.7 1.3-.1 1 .1 1.4.6 1.4zm5.4-3.7l-4.6 9.4h-.9l4.6-9.4h.9zm.1 4.7c1.7 0 2 1.1 2 2.2 0 .6 0 2.4-2.1 2.4-1.4 0-1.9-1-1.9-2.3 0-.6 0-2.3 2-2.3zm0 3.7c.4 0 .7-.3.7-1.4 0-.5 0-1.3-.7-1.3s-.7 1-.7 1.3c0 .9.2 1.4.7 1.4z" class="st5"/>
    <path d="M75.6 94.4l-31.3 31.3" class="st10"/>
    <path d="M17.4 131.8c0-1.2.1-2.2 1.5-2.2s1.5 1 1.5 2.2c0 1.8-.7 2-1.5 2s-1.5-.2-1.5-2zm2.4-.3c0-1.1-.3-1.3-.8-1.3s-.8.2-.8 1.3c0 1.3.2 1.8.8 1.8s.8-.5.8-1.8zm1.8-1.8v-.8c0-.8.6-1 1.2-1h.3v.5c-.7 0-.8.2-.8.6v.7h.8v.5h-.8v3.5h-.7v-3.5H21v-.5h.6zm5.3-1.7h.9l1.9 5.8h-.8l-.4-1.4h-2.2l-.4 1.4H25l1.9-5.8zm.4.6l-.9 3.1h1.8l-.9-3.1zm5.1 5.1v-2.8c0-.4-.1-.8-.6-.8-.2 0-.5.1-.6.3-.1.2-.2.4-.2.6v2.7h-.7v-4h.7v.5c.2-.4.5-.6 1-.6.4 0 .8.2.9.5.2-.4.6-.5 1-.5s1.1.1 1.1 1v3.1h-.7v-2.8c0-.4-.1-.8-.6-.8-.2 0-.3 0-.5.2s-.2.6-.2.7v2.7h-.6zm4.4-1.8c0 1.1.3 1.4.8 1.4.4 0 .7-.4.7-.8h.7c0 .9-.6 1.3-1.4 1.3-.9 0-1.5-.3-1.5-2 0-1.2.1-2.2 1.5-2.2 1.2 0 1.4.6 1.4 2v.3h-2.2zm1.6-.5c0-1.2-.3-1.3-.8-1.3-.4 0-.8.2-.8 1.3h1.6zm2.4-1.1c.3-.6.6-.7 1.3-.7v.7h-.4c-.7 0-.9.6-.9 1.1v2.4h-.7v-4h.7v.5zm2-2.3h.7v.7h-.7v-.7zm.7 5.7h-.7v-4h.7v4zm3.2-2.7c0-.7-.3-.8-.6-.8-.5 0-.8.2-.8 1.3 0 1.3.2 1.8.8 1.8.2 0 .6-.2.6-.9h.7c0 1.1-.8 1.4-1.3 1.4-.9 0-1.5-.3-1.5-2 0-1.2.1-2.2 1.5-2.2.8 0 1.3.5 1.2 1.4h-.6zm4 2.2c-.2.5-.5.7-1 .7-.9 0-1.1-.6-1.1-1.3 0-1.2 1.2-1.3 2.1-1.3 0-.5 0-1.1-.7-1.1-.4 0-.7.3-.6.7h-.7c0-.9.5-1.2 1.4-1.2 1 0 1.3.5 1.3 1.2v1.9c0 .3 0 .6.1 1h-.7v-.6zm-1.5-.7c0 .4.2.7.6.7.4 0 .9-.2.8-1.6-.6.1-1.4.1-1.4.9zm5.6 1.2v-2.8c0-.4-.2-.8-.7-.8-.7 0-.8.6-.8 1.2v2.4h-.7v-4h.7v.5c.3-.5.6-.6 1.1-.6.9 0 1.1.5 1.1 1.3v2.8h-.7zm3 .1c-.9 0-1.4-.4-1.4-1.3h.7c0 .2 0 .8.7.8.4 0 .7-.2.7-.6 0-.7-2-.7-2-1.9 0-.4.3-1.1 1.4-1.1.7 0 1.3.3 1.3 1.1h-.7c0-.4-.2-.6-.6-.6-.4 0-.6.2-.6.5 0 .7 2 .7 2 1.9-.1.9-.7 1.2-1.5 1.2zm-38.2 9c-.2.5-.5.7-1 .7-.9 0-1.1-.6-1.1-1.3 0-1.2 1.2-1.3 2.1-1.3 0-.5 0-1.1-.7-1.1-.4 0-.7.3-.6.7h-.7c0-.9.5-1.2 1.4-1.2 1 0 1.3.5 1.3 1.2v1.9c0 .3 0 .6.1 1h-.7v-.6zm-1.5-.7c0 .4.2.7.6.7.4 0 .9-.2.8-1.6-.6.1-1.4.1-1.4.9zm4.1-2.2c.3-.6.6-.7 1.3-.7v.7h-.4c-.7 0-.9.6-.9 1.1v2.4h-.7v-4h.7v.5zm2.6 1.6c0 1.1.3 1.4.8 1.4.4 0 .7-.4.7-.8h.7c0 .9-.6 1.3-1.4 1.3-.9 0-1.5-.3-1.5-2 0-1.2.1-2.2 1.5-2.2 1.2 0 1.4.6 1.4 2v.3h-2.2zm1.6-.5c0-1.2-.3-1.3-.8-1.3-.4 0-.8.2-.8 1.3h1.6zm4.2 2.3h-.7v-5.8h.7v5.8zm1.7-1.8c0 1.1.3 1.4.8 1.4.4 0 .7-.4.7-.8h.7c0 .9-.6 1.3-1.4 1.3-.9 0-1.5-.3-1.5-2 0-1.2.1-2.2 1.5-2.2 1.2 0 1.4.6 1.4 2v.3h-2.2zm1.6-.5c0-1.2-.3-1.3-.8-1.3-.4 0-.8.2-.8 1.3h1.6zm1.9-1.7v-.8c0-.8.6-1 1.2-1h.3v.5c-.7 0-.8.2-.8.6v.7h.8v.5h-.8v3.5h-.7v-3.5h-.6v-.5h.6zm2.2 0v-.8l.7-.3v1.1h.9v.5h-.9v2.5c0 .3 0 .6.6.6h.3v.5c-.2 0-.4.1-.6.1-.6 0-.9-.3-.9-.7v-2.9h-.7v-.5h.6zm2 1.6h1.8v.6H40v-.6zm3.5 2.4h-.7v-5.8h.7v2.1c.2-.3.5-.5.9-.5 1.3 0 1.3 1.2 1.3 2.2 0 1.8-.7 2-1.3 2-.4 0-.7-.2-.9-.6v.6zm.8-.4c.8 0 .8-.9.8-1.5 0-1.1-.1-1.6-.8-1.6-.7 0-.8.9-.8 1.4 0 .6 0 1.7.8 1.7zm3.2-3c.3-.6.6-.7 1.3-.7v.7h-.4c-.7 0-.9.6-.9 1.1v2.4h-.7v-4h.7v.5zm4.1 2.9c-.2.5-.5.7-1 .7-.9 0-1.1-.6-1.1-1.3 0-1.2 1.2-1.3 2.1-1.3 0-.5 0-1.1-.7-1.1-.4 0-.7.3-.6.7h-.7c0-.9.5-1.2 1.4-1.2 1 0 1.3.5 1.3 1.2v1.9c0 .3 0 .6.1 1h-.7v-.6zm-1.5-.7c0 .4.2.7.6.7.4 0 .9-.2.8-1.6-.6.1-1.4.1-1.4.9zm3.3-4.5h.7v.7h-.7v-.7zm.7 5.7h-.7v-4h.7v4zm3.4 0v-2.8c0-.4-.2-.8-.7-.8-.7 0-.8.6-.8 1.2v2.4h-.7v-4h.7v.5c.3-.5.6-.6 1.1-.6.9 0 1.1.5 1.1 1.3v2.8h-.7zm2.4-1.8c0 1.1.3 1.4.8 1.4.4 0 .7-.4.7-.8h.7c0 .9-.6 1.3-1.4 1.3-.9 0-1.5-.3-1.5-2 0-1.2.1-2.2 1.5-2.2 1.2 0 1.4.6 1.4 2v.3h-2.2zm1.6-.5c0-1.2-.3-1.3-.8-1.3-.4 0-.8.2-.8 1.3h1.6zm3.9-3.4h.7v5.8h-.7v-.5c-.2.4-.5.6-.9.6-.6 0-1.3-.3-1.3-2 0-1 0-2.2 1.3-2.2.4 0 .7.2.9.5v-2.2zm-.8 2.2c-.7 0-.8.6-.8 1.6 0 .6 0 1.5.8 1.5.7 0 .7-.9.7-1.7.1-.6.1-1.4-.7-1.4zm40.4 29.5c-.2.5-.5.7-1 .7-.9 0-1.1-.6-1.1-1.3 0-1.2 1.2-1.3 2.1-1.3 0-.5 0-1.1-.7-1.1-.4 0-.7.3-.6.7h-.7c0-.9.5-1.2 1.4-1.2 1 0 1.3.5 1.3 1.2v1.9c0 .3 0 .6.1 1h-.8v-.6zm-1.4-.6c0 .4.2.7.6.7.4 0 .9-.2.8-1.6-.6.1-1.4 0-1.4.9zm4-2.3c.3-.6.6-.7 1.3-.7v.7h-.4c-.7 0-.9.6-.9 1.1v2.4h-.6v-4h.7v.5zm2.7 1.7c0 1.1.3 1.4.8 1.4.4 0 .7-.4.7-.8h.7c0 .9-.6 1.3-1.4 1.3-.9 0-1.5-.3-1.5-2 0-1.2.1-2.2 1.5-2.2 1.2 0 1.4.6 1.4 2v.3h-2.2zm1.5-.5c0-1.2-.3-1.3-.8-1.3-.4 0-.8.2-.8 1.3h1.6zm4.3-1.2c.3-.6.6-.7 1.3-.7v.7h-.4c-.7 0-.9.6-.9 1.1v2.4h-.7v-4h.7v.5zm1.9-2.3h.7v.7h-.7v-.7zm.7 5.8h-.7v-4h.7v4zm3.3-4.1h.7v4.4c0 .9-.6 1.1-1.5 1.1-.7 0-1.3-.3-1.2-1.1h.7c0 .4.3.6.6.6.5 0 .7-.3.7-.7v-.8c-.2.3-.5.5-.9.5-1.1 0-1.3-.9-1.3-2.1 0-1.9.9-2 1.3-2s.8.2.9.6v-.5zm-.8.5c-.7 0-.8.9-.8 1.4 0 1.3.3 1.6.8 1.6.8 0 .8-.9.8-1.5s0-1.5-.8-1.5zm4.8 3.6v-2.7c0-.5-.2-.8-.7-.8-.7 0-.8.5-.8 1.2v2.4h-.7v-5.8h.7v2.3c.3-.5.6-.6 1.1-.6.7 0 1.1.3 1.1 1.3v2.9h-.7zm1.9-4.1v-.8l.7-.3v1.1h.9v.5h-.9v2.5c0 .3 0 .6.6.6h.3v.5c-.2 0-.4.1-.6.1-.6 0-.9-.3-.9-.7v-2.9h-.7v-.5h.6zm2 1.6h1.8v.6h-1.8v-.6zm3.5 2.5h-.7v-5.8h.7v2.1c.2-.3.5-.5.9-.5 1.3 0 1.3 1.2 1.3 2.2 0 1.8-.7 2-1.3 2-.4 0-.7-.2-.9-.6v.6zm.8-.5c.8 0 .8-.9.8-1.5 0-1.1-.1-1.6-.8-1.6-.7 0-.8.9-.8 1.4 0 .6 0 1.7.8 1.7zm3.2-3c.3-.6.6-.7 1.3-.7v.7h-.4c-.7 0-.9.6-.9 1.1v2.4h-.7v-4h.7v.5zm4.1 2.9c-.2.5-.5.7-1 .7-.9 0-1.1-.6-1.1-1.3 0-1.2 1.2-1.3 2.1-1.3 0-.5 0-1.1-.7-1.1-.4 0-.7.3-.6.7h-.7c0-.9.5-1.2 1.4-1.2 1 0 1.3.5 1.3 1.2v1.9c0 .3 0 .6.1 1h-.7v-.6zm-1.5-.6c0 .4.2.7.6.7.4 0 .9-.2.8-1.6-.6.1-1.4 0-1.4.9zm3.3-4.6h.7v.7h-.7v-.7zm.7 5.8h-.7v-4h.7v4zm3.4 0v-2.8c0-.4-.2-.8-.7-.8-.7 0-.8.6-.8 1.2v2.4h-.7v-4h.7v.5c.3-.5.6-.6 1.1-.6.9 0 1.1.5 1.1 1.3v2.8h-.7zm2.4-1.8c0 1.1.3 1.4.8 1.4.4 0 .7-.4.7-.8h.7c0 .9-.6 1.3-1.4 1.3-.9 0-1.5-.3-1.5-2 0-1.2.1-2.2 1.5-2.2 1.2 0 1.4.6 1.4 2v.3h-2.2zm1.6-.5c0-1.2-.3-1.3-.8-1.3-.4 0-.8.2-.8 1.3h1.6zm3.9-3.5h.7v5.8h-.7v-.5c-.2.4-.5.6-.9.6-.6 0-1.3-.3-1.3-2 0-1 0-2.2 1.3-2.2.4 0 .7.2.9.5v-2.2zm-.8 2.2c-.7 0-.8.6-.8 1.6 0 .6 0 1.5.8 1.5.7 0 .7-.9.7-1.7.1-.5.1-1.4-.7-1.4z" class="st0"/>
    <path d="M127.7 127.8l-19.8 34.3m77.3-49.9l27.7 27.5" class="st10"/>
    <path d="M203.7 143.2c0-1.2.1-2.2 1.5-2.2s1.5 1 1.5 2.2c0 1.8-.7 2-1.5 2s-1.5-.3-1.5-2zm2.3-.3c0-1.1-.3-1.3-.8-1.3s-.8.2-.8 1.3c0 1.3.2 1.8.8 1.8s.8-.5.8-1.8zm1.9-1.8v-.8c0-.8.6-1 1.2-1h.3v.5c-.7 0-.8.2-.8.6v.7h.8v.5h-.8v3.5h-.7v-3.5h-.6v-.5h.6zm4.6.5c.2-.4.5-.6.9-.6.6 0 1.3.3 1.3 2 0 1 0 2.2-1.3 2.2-.4 0-.7-.2-.9-.5v1.9h-.7V141h.7v.6zm1.5 1.4c0-.6 0-1.5-.8-1.5s-.7 1.1-.7 1.7c0 .5 0 1.4.8 1.4.7.1.7-.5.7-1.6zm3.9 1.5c-.2.5-.5.7-1 .7-.9 0-1.1-.6-1.1-1.3 0-1.2 1.2-1.3 2.1-1.3 0-.5 0-1.1-.7-1.1-.4 0-.7.3-.6.7h-.7c0-.9.5-1.2 1.4-1.2 1 0 1.3.5 1.3 1.2v1.9c0 .3 0 .6.1 1h-.7v-.6zm-1.5-.6c0 .4.2.7.6.7.4 0 .9-.2.8-1.6-.6.1-1.4.1-1.4.9zm4.1-2.2c.3-.6.6-.7 1.3-.7v.7h-.4c-.7 0-.9.6-.9 1.1v2.4h-.7v-4h.7v.5zm2-.6v-.8l.7-.3v1.1h.9v.5h-.9v2.5c0 .3 0 .6.6.6h.3v.5c-.2 0-.4.1-.6.1-.6 0-.9-.3-.9-.7v-2.9h-.7v-.5h.6zm2.1-1.8h.7v.7h-.7v-.7zm.7 5.8h-.7v-4h.7v4zm3.3-2.7c0-.7-.3-.8-.6-.8-.5 0-.8.2-.8 1.3 0 1.3.2 1.8.8 1.8.2 0 .6-.2.6-.9h.7c0 1.1-.8 1.4-1.3 1.4-.9 0-1.5-.3-1.5-2 0-1.2.1-2.2 1.5-2.2.8 0 1.3.5 1.2 1.4h-.6zm1.8-3.1h.7v.7h-.7v-.7zm.7 5.8h-.7v-4h.7v4zm1.8-3.5c.2-.4.5-.6.9-.6.6 0 1.3.3 1.3 2 0 1 0 2.2-1.3 2.2-.4 0-.7-.2-.9-.5v1.9h-.7V141h.7v.6zm1.6 1.4c0-.6 0-1.5-.8-1.5s-.7 1.1-.7 1.7c0 .5 0 1.4.8 1.4.6.1.7-.5.7-1.6zm3.8 1.5c-.2.5-.5.7-1 .7-.9 0-1.1-.6-1.1-1.3 0-1.2 1.2-1.3 2.1-1.3 0-.5 0-1.1-.7-1.1-.4 0-.7.3-.6.7h-.7c0-.9.5-1.2 1.4-1.2 1 0 1.3.5 1.3 1.2v1.9c0 .3 0 .6.1 1h-.7v-.6zm-1.5-.6c0 .4.2.7.6.7.4 0 .9-.2.8-1.6-.5.1-1.4.1-1.4.9zm5.6 1.2v-2.8c0-.4-.2-.8-.7-.8-.7 0-.8.6-.8 1.2v2.4h-.7v-4h.7v.5c.3-.5.6-.6 1.1-.6.9 0 1.1.5 1.1 1.3v2.8h-.7zm1.9-4v-.8l.7-.3v1.1h.9v.5h-.9v2.5c0 .3 0 .6.6.6h.3v.5c-.2 0-.4.1-.6.1-.6 0-.9-.3-.9-.7v-2.9h-.7v-.5h.6zm3.3 4.1c-.9 0-1.4-.4-1.4-1.3h.7c0 .2 0 .8.7.8.4 0 .7-.2.7-.6 0-.7-2-.7-2-1.9 0-.4.3-1.1 1.4-1.1.7 0 1.3.3 1.3 1.1h-.7c0-.4-.2-.6-.6-.6-.4 0-.6.2-.6.5 0 .7 2 .7 2 1.9-.1.9-.7 1.2-1.5 1.2zm2.5-.9h.8l-.7 1.8h-.5l.4-1.8zm3.5-3.2v-.8l.7-.3v1.1h.9v.5h-.9v2.5c0 .3 0 .6.6.6h.3v.5c-.2 0-.4.1-.6.1-.6 0-.9-.3-.9-.7v-2.9h-.7v-.5h.6zm4.4 4v-2.7c0-.5-.2-.8-.7-.8-.7 0-.8.5-.8 1.2v2.4h-.7v-5.8h.7v2.3c.3-.5.6-.6 1.1-.6.7 0 1.1.3 1.1 1.3v2.9h-.7zm2.4-1.8c0 1.1.3 1.4.8 1.4.4 0 .7-.4.7-.8h.7c0 .9-.6 1.3-1.4 1.3-.9 0-1.5-.3-1.5-2 0-1.2.1-2.2 1.5-2.2 1.2 0 1.4.6 1.4 2v.3h-2.2zm1.6-.5c0-1.2-.3-1.3-.8-1.3-.4 0-.8.2-.8 1.3h1.6zm3.6-1.7v-.8l.7-.3v1.1h.9v.5h-.9v2.5c0 .3 0 .6.6.6h.3v.5c-.2 0-.4.1-.6.1-.6 0-.9-.3-.9-.7v-2.9h-.7v-.5h.6zm1.7 0h.7l.7 3.5.9-3.5h.9l.8 3.5.8-3.5h.7l-1.1 4h-.9l-.9-3.4-.9 3.4h-.9l-.8-4zm6.1 2.1c0-1.2.1-2.2 1.5-2.2s1.5 1 1.5 2.2c0 1.8-.7 2-1.5 2s-1.5-.3-1.5-2zm2.4-.3c0-1.1-.3-1.3-.8-1.3s-.8.2-.8 1.3c0 1.3.2 1.8.8 1.8s.8-.5.8-1.8zM206 154.7V152c0-.5-.2-.8-.7-.8-.7 0-.8.5-.8 1.2v2.4h-.7V149h.7v2.3c.3-.5.6-.6 1.1-.6.7 0 1.1.3 1.1 1.3v2.9h-.7zm2.4-1.8c0 1.1.3 1.4.8 1.4.4 0 .7-.4.7-.8h.7c0 .9-.6 1.3-1.4 1.3-.9 0-1.5-.3-1.5-2 0-1.2.1-2.2 1.5-2.2 1.2 0 1.4.6 1.4 2v.3h-2.2zm1.6-.5c0-1.2-.3-1.3-.8-1.3-.4 0-.8.2-.8 1.3h1.6zm3.8 2.3v-2.8c0-.4-.1-.8-.6-.8-.2 0-.5.1-.6.3-.1.2-.2.4-.2.6v2.7h-.7v-4h.7v.5c.2-.4.5-.6 1-.6.4 0 .8.2.9.5.2-.4.6-.5 1-.5s1.1.1 1.1 1v3.1h-.7v-2.8c0-.4-.1-.8-.6-.8-.2 0-.3 0-.5.2s-.2.6-.2.7v2.7h-.6zm3.7-5.8h.7v.7h-.7v-.7zm.7 5.8h-.7v-4h.7v4zm2.3.1c-.9 0-1.4-.4-1.4-1.3h.7c0 .2 0 .8.7.8.4 0 .7-.2.7-.6 0-.7-2-.7-2-1.9 0-.4.3-1.1 1.4-1.1.7 0 1.3.3 1.3 1.1h-.7c0-.4-.2-.6-.6-.6-.4 0-.6.2-.6.5 0 .7 2 .7 2 1.9-.1.9-.7 1.2-1.5 1.2zm3.1-3.6c.2-.4.5-.6.9-.6.6 0 1.3.3 1.3 2 0 1 0 2.2-1.3 2.2-.4 0-.7-.2-.9-.5v1.9h-.7v-5.6h.7v.6zm1.6 1.4c0-.6 0-1.5-.8-1.5s-.7 1.1-.7 1.7c0 .5 0 1.4.8 1.4.6.1.7-.5.7-1.6zm3.9 2.1V152c0-.5-.2-.8-.7-.8-.7 0-.8.5-.8 1.2v2.4h-.7V149h.7v2.3c.3-.5.6-.6 1.1-.6.7 0 1.1.3 1.1 1.3v2.9h-.7zm2.4-1.8c0 1.1.3 1.4.8 1.4.4 0 .7-.4.7-.8h.7c0 .9-.6 1.3-1.4 1.3-.9 0-1.5-.3-1.5-2 0-1.2.1-2.2 1.5-2.2 1.2 0 1.4.6 1.4 2v.3h-2.2zm1.6-.5c0-1.2-.3-1.3-.8-1.3-.4 0-.8.2-.8 1.3h1.6zm2.5-1.1c.3-.6.6-.7 1.3-.7v.7h-.4c-.7 0-.9.6-.9 1.1v2.4h-.7v-4h.7v.5zm2.6 1.6c0 1.1.3 1.4.8 1.4.4 0 .7-.4.7-.8h.7c0 .9-.6 1.3-1.4 1.3-.9 0-1.5-.3-1.5-2 0-1.2.1-2.2 1.5-2.2 1.2 0 1.4.6 1.4 2v.3h-2.2zm1.6-.5c0-1.2-.3-1.3-.8-1.3-.4 0-.8.2-.8 1.3h1.6zm2.9 2.4c-.9 0-1.4-.4-1.4-1.3h.7c0 .2 0 .8.7.8.4 0 .7-.2.7-.6 0-.7-2-.7-2-1.9 0-.4.3-1.1 1.4-1.1.7 0 1.3.3 1.3 1.1h-.7c0-.4-.2-.6-.6-.6-.4 0-.6.2-.6.5 0 .7 2 .7 2 1.9-.1.9-.7 1.2-1.5 1.2zm4.8-1.9c0 1.1.3 1.4.8 1.4.4 0 .7-.4.7-.8h.7c0 .9-.6 1.3-1.4 1.3-.9 0-1.5-.3-1.5-2 0-1.2.1-2.2 1.5-2.2 1.2 0 1.4.6 1.4 2v.3h-2.2zm1.6-.5c0-1.2-.3-1.3-.8-1.3-.4 0-.8.2-.8 1.3h1.6zm4.7 2.3h-.9l-.9-1.7-.9 1.7h-.8l1.3-2.1-1.2-1.9h.8l.8 1.4.8-1.4h.8l-1.2 1.9 1.4 2.1zm1.3-1.8c0 1.1.3 1.4.8 1.4.4 0 .7-.4.7-.8h.7c0 .9-.6 1.3-1.4 1.3-.9 0-1.5-.3-1.5-2 0-1.2.1-2.2 1.5-2.2 1.2 0 1.4.6 1.4 2v.3h-2.2zm1.5-.5c0-1.2-.3-1.3-.8-1.3-.4 0-.8.2-.8 1.3h1.6zm2.5-1.1c.3-.6.6-.7 1.3-.7v.7h-.4c-.7 0-.9.6-.9 1.1v2.4h-.7v-4h.7v.5zm2.1-.6v-.8l.7-.3v1.1h.9v.5h-.9v2.5c0 .3 0 .6.6.6h.3v.5c-.2 0-.4.1-.6.1-.6 0-.9-.3-.9-.7v-2.9h-.7v-.5h.6zm4.5 2.2c0 1.1.3 1.4.8 1.4.4 0 .7-.4.7-.8h.7c0 .9-.6 1.3-1.4 1.3-.9 0-1.5-.3-1.5-2 0-1.2.1-2.2 1.5-2.2 1.2 0 1.4.6 1.4 2v.3h-2.2zm1.6-.5c0-1.2-.3-1.3-.8-1.3-.4 0-.8.2-.8 1.3h1.6zm3.9-1.7h.7v5.6h-.7v-1.9c-.2.3-.5.5-.9.5-1.3 0-1.3-1.2-1.3-2.2 0-1.8.7-2 1.3-2 .4 0 .7.2.9.6v-.6zm0 2.2c0-.6.1-1.7-.7-1.7-.8 0-.8.9-.8 1.5 0 1.1.1 1.6.8 1.6.7 0 .7-.9.7-1.4zm4-2.2h.7v4h-.7v-.5c-.2.4-.6.6-1 .6-.7 0-1.1-.4-1.1-1v-3.1h.7v2.8c0 .5.2.8.7.8.4 0 .8-.3.8-.9v-2.7zm4 3.4c-.2.5-.5.7-1 .7-.9 0-1.1-.6-1.1-1.3 0-1.2 1.2-1.3 2.1-1.3 0-.5 0-1.1-.7-1.1-.4 0-.7.3-.6.7h-.7c0-.9.5-1.2 1.4-1.2 1 0 1.3.5 1.3 1.2v1.9c0 .3 0 .6.1 1h-.7v-.6zm-1.5-.6c0 .4.2.7.6.7.4 0 .9-.2.8-1.6-.6.1-1.4.1-1.4.9zm4 1.2h-.7v-5.8h.7v5.8zm-78 3.8h.7v.7h-.7v-.7zm.7 5.8h-.7v-4h.7v4zm3.3 0v-2.8c0-.4-.2-.8-.7-.8-.7 0-.8.6-.8 1.2v2.4h-.7v-4h.7v.5c.3-.5.6-.6 1.1-.6.9 0 1.1.5 1.1 1.3v2.8h-.7zm2-4v-.8c0-.8.6-1 1.2-1h.3v.5c-.7 0-.8.2-.8.6v.7h.8v.5h-.8v3.5h-.7v-3.5h-.7v-.5h.7zm2.7 4h-.7v-5.8h.7v5.8zm3.3-4h.7v4h-.7v-.5c-.2.4-.6.6-1 .6-.7 0-1.1-.4-1.1-1v-3.1h.7v2.8c0 .5.2.8.7.8.4 0 .8-.3.8-.9v-2.7zm2.5 2.2c0 1.1.3 1.4.8 1.4.4 0 .7-.4.7-.8h.7c0 .9-.6 1.3-1.4 1.3-.9 0-1.5-.3-1.5-2 0-1.2.1-2.2 1.5-2.2 1.2 0 1.4.6 1.4 2v.3h-2.2zm1.6-.5c0-1.2-.3-1.3-.8-1.3-.4 0-.8.2-.8 1.3h1.6zm3.9 2.3v-2.8c0-.4-.2-.8-.7-.8-.7 0-.8.6-.8 1.2v2.4h-.7v-4h.7v.5c.3-.5.6-.6 1.1-.6.9 0 1.1.5 1.1 1.3v2.8h-.7zm4-2.7c0-.7-.3-.8-.6-.8-.5 0-.8.2-.8 1.3 0 1.3.2 1.8.8 1.8.2 0 .6-.2.6-.9h.7c0 1.1-.8 1.4-1.3 1.4-.9 0-1.5-.3-1.5-2 0-1.2.1-2.2 1.5-2.2.8 0 1.3.5 1.2 1.4h-.6zm2.5.9c0 1.1.3 1.4.8 1.4.4 0 .7-.4.7-.8h.7c0 .9-.6 1.3-1.4 1.3-.9 0-1.5-.3-1.5-2 0-1.2.1-2.2 1.5-2.2 1.2 0 1.4.6 1.4 2v.3h-2.2zm1.6-.5c0-1.2-.3-1.3-.8-1.3-.4 0-.8.2-.8 1.3h1.6zm3.4.4c0-1.2.1-2.2 1.5-2.2s1.5 1 1.5 2.2c0 1.8-.7 2-1.5 2s-1.5-.3-1.5-2zm2.4-.3c0-1.1-.3-1.3-.8-1.3s-.8.2-.8 1.3c0 1.3.2 1.8.8 1.8s.8-.5.8-1.8zm3.9 2.2v-2.8c0-.4-.2-.8-.7-.8-.7 0-.8.6-.8 1.2v2.4h-.7v-4h.7v.5c.3-.5.6-.6 1.1-.6.9 0 1.1.5 1.1 1.3v2.8h-.7zm5.7-5.8h.7v5.8h-.7v-.5c-.2.4-.5.6-.9.6-.6 0-1.3-.3-1.3-2 0-1 0-2.2 1.3-2.2.4 0 .7.2.9.5v-2.2zm-.7 2.2c-.7 0-.8.6-.8 1.6 0 .6 0 1.5.8 1.5.7 0 .7-.9.7-1.7 0-.5 0-1.4-.7-1.4zm3.2 1.8c0 1.1.3 1.4.8 1.4.4 0 .7-.4.7-.8h.7c0 .9-.6 1.3-1.4 1.3-.9 0-1.5-.3-1.5-2 0-1.2.1-2.2 1.5-2.2 1.2 0 1.4.6 1.4 2v.3h-2.2zm1.6-.5c0-1.2-.3-1.3-.8-1.3-.4 0-.8.2-.8 1.3h1.6zm3.9-.4c0-.7-.3-.8-.6-.8-.5 0-.8.2-.8 1.3 0 1.3.2 1.8.8 1.8.2 0 .6-.2.6-.9h.7c0 1.1-.8 1.4-1.3 1.4-.9 0-1.5-.3-1.5-2 0-1.2.1-2.2 1.5-2.2.8 0 1.3.5 1.2 1.4h-.6zm1.8-3.1h.7v.7h-.7v-.7zm.7 5.8h-.7v-4h.7v4zm2.4.1c-.9 0-1.4-.4-1.4-1.3h.7c0 .2 0 .8.7.8.4 0 .7-.2.7-.6 0-.7-2-.7-2-1.9 0-.4.3-1.1 1.4-1.1.7 0 1.3.3 1.3 1.1h-.7c0-.4-.2-.6-.6-.6-.4 0-.6.2-.6.5 0 .7 2 .7 2 1.9-.1.9-.7 1.2-1.5 1.2zm2.3-5.9h.7v.7h-.7v-.7zm.7 5.8h-.7v-4h.7v4zm1-1.9c0-1.2.1-2.2 1.5-2.2s1.5 1 1.5 2.2c0 1.8-.7 2-1.5 2s-1.5-.3-1.5-2zm2.4-.3c0-1.1-.3-1.3-.8-1.3s-.8.2-.8 1.3c0 1.3.2 1.8.8 1.8s.8-.5.8-1.8zm3.9 2.2v-2.8c0-.4-.2-.8-.7-.8-.7 0-.8.6-.8 1.2v2.4h-.7v-4h.7v.5c.3-.5.6-.6 1.1-.6.9 0 1.1.5 1.1 1.3v2.8h-.7zm1.7-2.5h1.8v.6h-1.8v-.6zm4.8 2.5v-2.8c0-.4-.1-.8-.6-.8-.2 0-.5.1-.6.3-.1.2-.2.4-.2.6v2.7h-.7v-4h.7v.5c.2-.4.5-.6 1-.6.4 0 .8.2.9.5.2-.4.6-.5 1-.5s1.1.1 1.1 1v3.1h-.7v-2.8c0-.4-.1-.8-.6-.8-.2 0-.3 0-.5.2s-.2.6-.2.7v2.7h-.6zm5.8-.6c-.2.5-.5.7-1 .7-.9 0-1.1-.6-1.1-1.3 0-1.2 1.2-1.3 2.1-1.3 0-.5 0-1.1-.7-1.1-.4 0-.7.3-.6.7h-.7c0-.9.5-1.2 1.4-1.2 1 0 1.3.5 1.3 1.2v1.9c0 .3 0 .6.1 1h-.7v-.6zm-1.5-.6c0 .4.2.7.6.7.4 0 .9-.2.8-1.6-.5.1-1.4.1-1.4.9zm4.1 1.2h-.7v-5.8h.7v3.5l1.2-1.7h.8L286 162l1.6 2.3h-.8l-1.4-2.3v2.3zm2.8-5.8h.7v.7h-.7v-.7zm.7 5.8h-.7v-4h.7v4zm3.4 0v-2.8c0-.4-.2-.8-.7-.8-.7 0-.8.6-.8 1.2v2.4h-.7v-4h.7v.5c.3-.5.6-.6 1.1-.6.9 0 1.1.5 1.1 1.3v2.8h-.7zm3.9-4h.7v4.4c0 .9-.6 1.1-1.5 1.1-.7 0-1.3-.3-1.2-1.1h.7c0 .4.3.6.6.6.5 0 .7-.3.7-.7v-.8c-.2.3-.5.5-.9.5-1.1 0-1.3-.9-1.3-2.1 0-1.9.9-2 1.3-2s.8.2.9.6v-.5zm-.8.4c-.7 0-.8.9-.8 1.4 0 1.3.3 1.6.8 1.6.8 0 .8-.9.8-1.5 0-.5.1-1.5-.8-1.5z" class="st0"/>
  </g>
</svg>
