<svg id="Layer_1" xmlns="http://www.w3.org/2000/svg" width="459" height="453" viewBox="0 0 459 453"><style>.Drop_x0020_Shadow{fill:none;} .Outer_x0020_Glow_x0020_5_x0020_pt{fill:none;} .Blue_x0020_Neon{fill:none;stroke:#8AACDA;stroke-width:7;stroke-linecap:round;stroke-linejoin:round;} .Chrome_x0020_Highlight{fill:url(#SVGID_1_);stroke:#FFFFFF;stroke-width:0.3629;stroke-miterlimit:1;} .Jive_GS{fill:#FFDD00;} .Alyssa_GS{fill:#A6D0E4;} .st0{opacity:0.26;fill:#337D7D;} .st1{fill:#E9F5FC;} .st2{fill:none;} .st3{fill:#0A3656;}</style><linearGradient id="SVGID_1_" gradientUnits="userSpaceOnUse" x1="-262.601" y1="-64.101" x2="-262.601" y2="-65.101"><stop offset="0" stop-color="#656565"/><stop offset=".618" stop-color="#1B1B1B"/><stop offset=".629" stop-color="#545454"/><stop offset=".983" stop-color="#3E3E3E"/></linearGradient><circle class="st0" cx="208.8" cy="215.9" r="53.8"/><path class="st1" d="M206.4 183.4l-6.2 3.7c-.9.5-1.6 1.2-2.2 2l-5.3 7c-1.2 1.6-1.6 3.6-1.1 5.5l3.6 13.4c.2.8 1 1.4 1.8 1.4h5.2c3.3 0 6.4 1.5 8.4 4.1l2.9 3.8c.1.1.1.2.2.3l6.3 12.7s5 11.2 5.7 11.9c.4.4 4.6 1.9 8.3 3.2 3.4 1.2 7.2-.3 8.8-3.5l4-7.5c.2-.3.2-.7.2-1l-1-14.3c-.1-1.3.3-2.6 1.1-3.6l9.1-11.8c1.1-1.4-.2-3.4-1.9-3l-5.3 1.2c-.7.2-1.5-.1-1.9-.7l-11.1-15c-.2-.2-.4-.4-.7-.6l-10.7-5.4c-.9-.5-2.1-.1-2.5.8-.5 1.1-1.9 1.4-2.9.6l-5.8-4.7c-2.1-1.6-4.8-1.8-7-.5z"/><path class="st2" d="M151.2 189.6h118.6v68H151.2z"/><path class="st3" d="M152 198.2v-8.7h1.8v7.2h2.7v1.4H152zM158.7 195.5c0 .7 0 1.8.8 1.8.6 0 .7-.6.7-1.1h1.7c0 .7-.2 1.2-.6 1.6-.4.4-1 .6-1.8.6-2.2 0-2.5-1.3-2.5-3.2 0-1.7.2-3.1 2.5-3.1s2.5 1.5 2.5 3.4h-3.3zm1.6-1c0-.6 0-1.4-.8-1.4s-.8.9-.8 1.4h1.6zM165.8 190.6c-.7 0-.8.2-.8.8v.7h.8v1h-.8v5h-1.7v-5h-.8v-1h.8c0-1.7-.2-2.7 1.9-2.7h.6v1.2z"/><path class="st3" d="M165.8 192.2h.7v-1l1.7-.8v1.7h.9v1h-.9v3.2c0 .5 0 .8.5.8h.3v1c-.2 0-.5.1-.9.1-1.5 0-1.7-1-1.7-1.3v-3.7h-.7v-1zM175.5 198.2V194c0-.5-.1-1-.6-1s-.6.4-.6 1v4.2h-1.7v-8.7h1.7v3.2c.2-.3.4-.5.6-.6.2-.1.5-.2.8-.2.8 0 1.5.5 1.5 1.3v4.9h-1.7zM183.1 197.1c0 .4 0 .8.1 1.1h-1.6l-.1-.8c-.4.6-.9.9-1.6.9-1.2 0-1.6-.9-1.6-1.9 0-2 1.5-2.1 3.1-2.1v-.5c0-.5-.1-.9-.7-.9s-.6.4-.6.9h-1.7c0-.7.2-1.2.6-1.5.4-.3.9-.4 1.6-.4 2.1 0 2.4.9 2.4 2v3.2zm-3.1-.8c0 .4.1 1 .6 1 1 0 .8-1.3.8-2-.8 0-1.4 0-1.4 1zM186.2 192.8c.2-.3.4-.5.6-.6.2-.1.5-.2.8-.2.8 0 1.5.5 1.5 1.3v4.9h-1.7V194c0-.5-.1-1-.6-1s-.6.4-.6 1v4.2h-1.7v-6.1h1.7v.7zM193.5 198.2v-.7c-.3.6-.8.8-1.4.8-1.8 0-1.7-1.9-1.7-3.2 0-1.2 0-3.1 1.7-3.1.6 0 1 .2 1.4.7v-3.2h1.7v8.7h-1.7zm0-3.1c0-1.2 0-2.1-.7-2.1s-.7.8-.7 2.1c0 1.5.1 2.2.7 2.2s.7-.6.7-2.2zM198.1 195.5c0 .7 0 1.8.8 1.8.6 0 .7-.6.7-1.1h1.7c0 .7-.2 1.2-.6 1.6-.4.4-1 .6-1.8.6-2.2 0-2.5-1.3-2.5-3.2 0-1.7.2-3.1 2.5-3.1s2.5 1.5 2.5 3.4h-3.3zm1.5-1c0-.6 0-1.4-.8-1.4s-.8.9-.8 1.4h1.6zM205.5 198.2v-.7c-.3.6-.8.8-1.4.8-1.8 0-1.7-1.9-1.7-3.2 0-1.2 0-3.1 1.7-3.1.6 0 1 .2 1.4.7v-3.2h1.7v8.7h-1.7zm0-3.1c0-1.2 0-2.1-.7-2.1s-.7.8-.7 2.1c0 1.5.1 2.2.7 2.2s.7-.6.7-2.2zM212.8 192.2v.7c.3-.6.8-.8 1.4-.8 1.8 0 1.7 1.9 1.7 3.2 0 1.2 0 3.1-1.7 3.1-.6 0-1-.2-1.4-.7v3.2h-1.7v-8.7h1.7zm1.5 2.9c0-1.2 0-2.1-.7-2.1s-.7.8-.7 2.1c0 1.5.1 2.2.7 2.2s.7-.6.7-2.2zM218.7 195.5c0 .7 0 1.8.8 1.8.6 0 .7-.6.7-1.1h1.7c0 .7-.2 1.2-.6 1.6-.4.4-1 .6-1.8.6-2.2 0-2.5-1.3-2.5-3.2 0-1.7.2-3.1 2.5-3.1s2.5 1.5 2.5 3.4h-3.3zm1.6-1c0-.6 0-1.4-.8-1.4s-.8.9-.8 1.4h1.6zM223 195.1c0-1.7.2-3.1 2.5-3.1 2.2 0 2.5 1.4 2.5 3.1 0 1.9-.3 3.2-2.5 3.2s-2.5-1.3-2.5-3.2zm3.3-.1c0-1.3-.1-1.9-.8-1.9-.7 0-.8.6-.8 1.9 0 1.8.2 2.2.8 2.2.6.1.8-.3.8-2.2zM230.8 192.2v.7c.3-.6.8-.8 1.4-.8 1.8 0 1.7 1.9 1.7 3.2 0 1.2 0 3.1-1.7 3.1-.6 0-1-.2-1.4-.7v3.2h-1.7v-8.7h1.7zm1.5 2.9c0-1.2 0-2.1-.7-2.1s-.7.8-.7 2.1c0 1.5.1 2.2.7 2.2s.7-.6.7-2.2zM237 189.6v8.7h-1.7v-8.7h1.7zM240.1 195.5c0 .7 0 1.8.8 1.8.6 0 .7-.6.7-1.1h1.7c0 .7-.2 1.2-.6 1.6-.4.4-1 .6-1.8.6-2.2 0-2.5-1.3-2.5-3.2 0-1.7.2-3.1 2.5-3.1s2.5 1.5 2.5 3.4h-3.3zm1.5-1c0-.6 0-1.4-.8-1.4s-.8.9-.8 1.4h1.6zM151.7 209.5c0-1.7.2-3.1 2.5-3.1 2.2 0 2.5 1.4 2.5 3.1 0 1.9-.3 3.2-2.5 3.2s-2.5-1.3-2.5-3.2zm3.3-.1c0-1.3-.1-1.9-.8-1.9-.7 0-.8.6-.8 1.9 0 1.8.2 2.2.8 2.2.6.1.8-.3.8-2.2zM160.5 205c-.7 0-.8.2-.8.8v.7h.8v1h-.8v5H158v-5h-.8v-1h.8c0-1.7-.2-2.7 1.9-2.7h.6v1.2z"/><path class="st3" d="M160.5 206.6h.7v-1l1.7-.8v1.7h.9v1h-.9v3.2c0 .5 0 .8.5.8h.3v1c-.2 0-.5.1-.9.1-1.5 0-1.7-1-1.7-1.3v-3.7h-.7v-1zM166.1 209.9c0 .7 0 1.8.8 1.8.6 0 .7-.6.7-1.1h1.7c0 .7-.2 1.2-.6 1.6-.4.4-1 .6-1.8.6-2.2 0-2.5-1.3-2.5-3.2 0-1.7.2-3.1 2.5-3.1s2.5 1.5 2.5 3.4h-3.3zm1.5-1c0-.6 0-1.4-.8-1.4s-.8.9-.8 1.4h1.6zM172.2 207.2c.2-.3.4-.5.6-.6.2-.1.5-.2.8-.2.8 0 1.5.5 1.5 1.3v4.9h-1.7v-4.2c0-.5-.1-1-.6-1s-.6.4-.6 1v4.2h-1.7v-6.1h1.7v.7zM181.8 205c-.7 0-.8.2-.8.8v.7h.8v1h-.8v5h-1.7v-5h-.8v-1h.8c0-1.7-.2-2.7 1.9-2.7h.6v1.2zm2.1-1v1.3h-1.7V204h1.7zm0 8.6h-1.7v-6.1h1.7v6.1zM186.9 207.2c.2-.3.4-.5.6-.6.2-.1.5-.2.8-.2.8 0 1.5.5 1.5 1.3v4.9h-1.7v-4.2c0-.5-.1-1-.6-1s-.6.4-.6 1v4.2h-1.7v-6.1h1.7v.7zM194.2 212.6v-.6c-.3.6-.8.8-1.4.8-1.8 0-1.7-1.9-1.7-3.2 0-1.2 0-3.1 1.7-3.1.6 0 1 .2 1.4.7V204h1.7v8.7h-1.7zm-.1-3.1c0-1.2 0-2.1-.7-2.1s-.7.8-.7 2.1c0 1.5.1 2.2.7 2.2s.7-.6.7-2.2zM201.7 204v1.3H200V204h1.7zm0 8.6H200v-6.1h1.7v6.1zM202.5 206.6h.7v-1l1.7-.8v1.7h.9v1h-.9v3.2c0 .5 0 .8.5.8h.3v1c-.2 0-.5.1-.9.1-1.5 0-1.7-1-1.7-1.3v-3.7h-.7v-1zM212.3 208.7c0-.9-.2-1.2-.8-1.2-.7 0-.8.6-.8 1.9 0 1.8.2 2.2.8 2.2.5 0 .8-.5.8-1.3h1.7c0 1.6-.9 2.4-2.5 2.4-2.2 0-2.5-1.3-2.5-3.2 0-1.7.2-3.1 2.5-3.1 1.6 0 2.4.7 2.4 2.3h-1.6zM218.2 212.6v-4.2c0-.5-.1-1-.6-1s-.6.4-.6 1v4.2h-1.7V204h1.7v3.2c.2-.3.4-.5.6-.6.2-.1.5-.2.8-.2.8 0 1.5.5 1.5 1.3v4.9h-1.7zM225.8 211.5c0 .4 0 .8.1 1.1h-1.6l-.1-.8c-.4.6-.9.9-1.6.9-1.2 0-1.6-.9-1.6-1.9 0-2 1.5-2.1 3.1-2.1v-.5c0-.5-.1-.9-.7-.9s-.6.4-.6.9h-1.7c0-.7.2-1.2.6-1.5.4-.3.9-.4 1.6-.4 2.1 0 2.4.9 2.4 2v3.2zm-3.1-.8c0 .4.1 1 .6 1 1 0 .8-1.3.8-2-.8 0-1.4 0-1.4 1zM229 204v8.7h-1.7V204h1.7zM232.4 204v8.7h-1.7V204h1.7zM235.4 209.9c0 .7 0 1.8.8 1.8.6 0 .7-.6.7-1.1h1.7c0 .7-.2 1.2-.6 1.6-.4.4-1 .6-1.8.6-2.2 0-2.5-1.3-2.5-3.2 0-1.7.2-3.1 2.5-3.1s2.5 1.5 2.5 3.4h-3.3zm1.6-1c0-.6 0-1.4-.8-1.4s-.8.9-.8 1.4h1.6zM241.6 207.2c.2-.3.4-.5.6-.6.2-.1.5-.2.8-.2.8 0 1.5.5 1.5 1.3v4.9h-1.7v-4.2c0-.5-.1-1-.6-1s-.6.4-.6 1v4.2h-1.7v-6.1h1.7v.7zM250.5 206.6v6.3c0 .4 0 2.1-2.3 2.1-1.3 0-2.3-.3-2.4-1.8h1.7c0 .3 0 .5.1.6.1.2.3.2.6.2.4 0 .6-.4.6-1v-1.2c-.3.5-.7.7-1.3.7-1.9 0-1.8-1.7-1.8-3.1 0-1.3 0-3 1.8-3 .6 0 1.1.3 1.4.8v-.7h1.6zm-2.4 4.9c.6 0 .7-.6.7-1.9 0-1.3-.1-2.1-.7-2.1s-.7.4-.7 2.3c0 .6-.1 1.7.7 1.7zM253.7 204v1.3H252V204h1.7zm0 8.6H252v-6.1h1.7v6.1zM256.9 207.2c.2-.3.4-.5.6-.6.2-.1.5-.2.8-.2.8 0 1.5.5 1.5 1.3v4.9h-1.7v-4.2c0-.5-.1-1-.6-1s-.6.4-.6 1v4.2h-1.7v-6.1h1.7v.7zM265.8 206.6v6.3c0 .4 0 2.1-2.3 2.1-1.3 0-2.3-.3-2.4-1.8h1.7c0 .3 0 .5.1.6.1.2.3.2.6.2.4 0 .6-.4.6-1v-1.2c-.3.5-.7.7-1.3.7-1.9 0-1.8-1.7-1.8-3.1 0-1.3 0-3 1.8-3 .6 0 1.1.3 1.4.8v-.7h1.6zm-2.4 4.9c.6 0 .7-.6.7-1.9 0-1.3-.1-2.1-.7-2.1s-.7.4-.7 2.3c0 .6-.1 1.7.7 1.7zM151.2 221h.7v-1l1.7-.8v1.7h.9v1h-.9v3.2c0 .5 0 .8.5.8h.3v1c-.2 0-.5.1-.9.1-1.5 0-1.7-1-1.7-1.3V222h-.7v-1zM155.1 223.9c0-1.7.2-3.1 2.5-3.1 2.2 0 2.5 1.4 2.5 3.1 0 1.9-.3 3.2-2.5 3.2-2.3 0-2.5-1.3-2.5-3.2zm3.2-.1c0-1.3-.1-1.9-.8-1.9-.7 0-.8.6-.8 1.9 0 1.8.2 2.2.8 2.2.6.1.8-.3.8-2.2zM165.7 218.4v8.7H164v-8.7h1.7zM169 218.4v1.3h-1.7v-1.3h1.7zm0 8.6h-1.7v-6h1.7v6zM170 221h1.7l.9 4.5.9-4.5h1.7l-1.7 6.1h-1.9L170 221zM177.4 224.3c0 .7 0 1.8.8 1.8.6 0 .7-.6.7-1.1h1.7c0 .7-.2 1.2-.6 1.6-.4.4-1 .6-1.8.6-2.2 0-2.5-1.3-2.5-3.2 0-1.7.2-3.1 2.5-3.1s2.5 1.5 2.5 3.4h-3.3zm1.6-1c0-.6 0-1.4-.8-1.4s-.8.9-.8 1.4h1.6zM186.4 218.4v1.3h-1.7v-1.3h1.7zm0 8.6h-1.7v-6h1.7v6zM189.6 221.6c.2-.3.4-.5.6-.6.2-.1.5-.2.8-.2.8 0 1.5.5 1.5 1.3v4.9h-1.7v-4.2c0-.5-.1-1-.6-1s-.6.4-.6 1v4.2h-1.7v-6h1.7v.6zM196 221h1.7l.8 4.6 1.2-4.6h1.8l1.1 4.6.9-4.6h1.6l-1.6 6.1h-1.8l-1.1-4.1-1.2 4.1h-1.8L196 221zM205.7 223.9c0-1.7.2-3.1 2.5-3.1 2.2 0 2.5 1.4 2.5 3.1 0 1.9-.3 3.2-2.5 3.2s-2.5-1.3-2.5-3.2zm3.3-.1c0-1.3-.1-1.9-.8-1.9-.7 0-.8.6-.8 1.9 0 1.8.2 2.2.8 2.2.6.1.8-.3.8-2.2zM213.5 221v.8c.3-.7.9-.9 1.6-.9v1.5c-1.5-.1-1.5.8-1.5 1.4v3.3h-1.7V221h1.6zM217.7 218.4v8.7H216v-8.7h1.7zM222.2 227v-.7c-.3.6-.8.8-1.4.8-1.8 0-1.7-1.9-1.7-3.2 0-1.2 0-3.1 1.7-3.1.6 0 1 .2 1.4.7v-3.2h1.7v8.7h-1.7zm-.1-3.1c0-1.2 0-2.1-.7-2.1s-.7.8-.7 2.1c0 1.5.1 2.2.7 2.2s.7-.6.7-2.2zM229.4 221.6c.4-.5.8-.7 1.5-.7.6 0 1.1.3 1.4.8.4-.5.9-.8 1.6-.8.8 0 1.5.5 1.5 1.3v4.9h-1.7v-4.2c0-.5-.1-1-.6-1s-.6.4-.6 1v4.2h-1.7v-4.2c0-.5-.1-1-.6-1s-.6.4-.6 1v4.2h-1.7V221h1.7v.6zM238.1 224.3c0 .7 0 1.8.8 1.8.6 0 .7-.6.7-1.1h1.7c0 .7-.2 1.2-.6 1.6-.4.4-1 .6-1.8.6-2.2 0-2.5-1.3-2.5-3.2 0-1.7.2-3.1 2.5-3.1s2.5 1.5 2.5 3.4h-3.3zm1.5-1c0-.6 0-1.4-.8-1.4s-.8.9-.8 1.4h1.6zM247.1 225.9c0 .4 0 .8.1 1.1h-1.6l-.1-.8c-.4.6-.9.9-1.6.9-1.2 0-1.6-.9-1.6-1.9 0-2 1.5-2.1 3.1-2.1v-.5c0-.5-.1-.9-.7-.9s-.6.4-.6.9h-1.7c0-.7.2-1.2.6-1.5.4-.3.9-.4 1.6-.4 2.1 0 2.4.9 2.4 2v3.2zm-3.1-.8c0 .4.1 1 .6 1 1 0 .8-1.3.8-2-.8 0-1.4 0-1.4 1zM250.2 221.6c.2-.3.4-.5.6-.6.2-.1.5-.2.8-.2.8 0 1.5.5 1.5 1.3v4.9h-1.7v-4.2c0-.5-.1-1-.6-1s-.6.4-.6 1v4.2h-1.7v-6h1.7v.6zM253.8 221h.7v-1l1.7-.8v1.7h.9v1h-.9v3.2c0 .5 0 .8.5.8h.3v1c-.2 0-.5.1-.9.1-1.5 0-1.7-1-1.7-1.3V222h-.7v-1zM154.5 233.8c-.7 0-.8.2-.8.8v.7h.8v1h-.8v5H152v-5h-.8v-1h.8c0-1.7-.2-2.7 1.9-2.7h.6v1.2zM155.1 238.3c0-1.7.2-3.1 2.5-3.1 2.2 0 2.5 1.4 2.5 3.1 0 1.9-.3 3.2-2.5 3.2-2.3 0-2.5-1.3-2.5-3.2zm3.2-.1c0-1.3-.1-1.9-.8-1.9-.7 0-.8.6-.8 1.9 0 1.8.2 2.2.8 2.2.6.1.8-.3.8-2.2zM162.8 235.4v.8c.3-.7.9-.9 1.6-.9v1.5c-1.5-.1-1.5.8-1.5 1.4v3.3h-1.7v-6.1h1.6zM169.5 235.4v.8c.3-.7.9-.9 1.6-.9v1.5c-1.5-.1-1.5.8-1.5 1.4v3.3h-1.7v-6.1h1.6zM173.7 232.8v1.3H172v-1.3h1.7zm0 8.6H172v-6.1h1.7v6.1zM179.8 235.4v6.3c0 .4 0 2.1-2.3 2.1-1.3 0-2.3-.3-2.4-1.8h1.7c0 .3 0 .5.1.6.1.2.3.2.6.2.4 0 .6-.4.6-1v-1.2c-.3.5-.7.7-1.3.7-1.9 0-1.8-1.7-1.8-3.1 0-1.3 0-3 1.8-3 .6 0 1.1.3 1.4.8v-.7h1.6zm-2.4 4.9c.6 0 .7-.6.7-1.9 0-1.3-.1-2.1-.7-2.1s-.7.4-.7 2.3c0 .6-.1 1.7.7 1.7zM184.2 241.4v-4.2c0-.5-.1-1-.6-1s-.6.4-.6 1v4.2h-1.7v-8.7h1.7v3.2c.2-.3.4-.5.6-.6.2-.1.5-.2.8-.2.8 0 1.5.5 1.5 1.3v4.9h-1.7zM186.5 235.4h.7v-1l1.7-.8v1.7h.9v1h-.9v3.2c0 .5 0 .8.5.8h.3v1c-.2 0-.5.1-.9.1-1.5 0-1.7-1-1.7-1.3v-3.7h-.7v-1zM196.2 241.4v-4.2c0-.5-.1-1-.6-1s-.6.4-.6 1v4.2h-1.7v-8.7h1.7v3.2c.2-.3.4-.5.6-.6.2-.1.5-.2.8-.2.8 0 1.5.5 1.5 1.3v4.9h-1.7zM203.8 240.3c0 .4 0 .8.1 1.1h-1.6l-.1-.8c-.4.6-.9.9-1.6.9-1.2 0-1.6-.9-1.6-1.9 0-2 1.5-2.1 3.1-2.1v-.5c0-.5-.1-.9-.7-.9s-.6.4-.6.9h-1.7c0-.7.2-1.2.6-1.5.4-.3.9-.4 1.6-.4 2.1 0 2.4.9 2.4 2v3.2zm-3.1-.8c0 .4.1 1 .6 1 1 0 .8-1.3.8-2-.8 0-1.4 0-1.4 1zM206.9 236c.2-.3.4-.5.6-.6.2-.1.5-.2.8-.2.8 0 1.5.5 1.5 1.3v4.9h-1.7v-4.2c0-.5-.1-1-.6-1s-.6.4-.6 1v4.2h-1.7v-6.1h1.7v.7zM214.2 241.4v-.7c-.3.6-.8.8-1.4.8-1.8 0-1.7-1.9-1.7-3.2 0-1.2 0-3.1 1.7-3.1.6 0 1 .2 1.4.7v-3.2h1.7v8.7h-1.7zm-.1-3.1c0-1.2 0-2.1-.7-2.1s-.7.8-.7 2.1c0 1.5.1 2.2.7 2.2s.7-.6.7-2.2zM218.7 238.7c0 .7 0 1.8.8 1.8.6 0 .7-.6.7-1.1h1.7c0 .7-.2 1.2-.6 1.6-.4.4-1 .6-1.8.6-2.2 0-2.5-1.3-2.5-3.2 0-1.7.2-3.1 2.5-3.1s2.5 1.5 2.5 3.4h-3.3zm1.6-1c0-.6 0-1.4-.8-1.4s-.8.9-.8 1.4h1.6zM224.8 235.4v.8c.3-.7.9-.9 1.6-.9v1.5c-1.5-.1-1.5.8-1.5 1.4v3.3h-1.7v-6.1h1.6zM228.5 239.5c0 .3 0 .5.1.7.1.2.3.3.6.3s.6-.2.6-.6c0-1.3-3-1-3-2.9 0-1.3 1.3-1.7 2.4-1.7 1.2 0 2.2.6 2.1 1.9h-1.7c0-.4 0-.7-.2-.8-.1-.1-.3-.1-.4-.1-.4 0-.6.2-.6.6 0 1 3 .9 3 2.9 0 1.1-.9 1.8-2.3 1.8-1.5 0-2.5-.4-2.4-2.1h1.8zM233.9 239.8v1.6h-1.4v-1.6h1.4z"/></svg>