<svg xmlns="http://www.w3.org/2000/svg" id="Layer_1" viewBox="0 0 332 108">
  <style>
    .Drop_x0020_Shadow{fill:none;} .Outer_x0020_Glow_x0020_5_x0020_pt{fill:none;} .Blue_x0020_Neon{fill:none;stroke:#8AACDA;stroke-width:7;stroke-linecap:round;stroke-linejoin:round;} .Chrome_x0020_Highlight{fill:url(#SVGID_1_);stroke:#FFFFFF;stroke-width:0.3629;stroke-miterlimit:1;} .Jive_GS{fill:#FFDD00;} .Alyssa_GS{fill:#A6D0E4;} .st0{fill:#0A3656;} .st1{fill:#ECD177;} .st2{fill:#ED5A49;} .st3{fill:none;stroke:#0A3656;stroke-width:0.3467;stroke-linecap:round;stroke-linejoin:round;stroke-miterlimit:10;} .st4{fill:#ED5A49;stroke:#ED5A49;stroke-width:0.1444;stroke-miterlimit:10;} .st5{fill:#E9F5FC;} .st6{opacity:0.26;fill:#337D7D;} .st7{fill:none;} .st8{fill:#DDE8F0;stroke:#DDE8F0;stroke-width:0.5;stroke-miterlimit:10;} .st9{fill:none;stroke:#ECD177;stroke-width:0.9;stroke-miterlimit:10;} .st10{fill:none;stroke:#0A3656;stroke-width:2;stroke-linecap:round;stroke-linejoin:round;stroke-miterlimit:10;stroke-dasharray:0,8;} .st11{fill:none;stroke:#ECD177;stroke-width:0.9;stroke-linecap:round;stroke-linejoin:round;stroke-miterlimit:10;} .st12{fill:none;stroke:#ECD177;stroke-linecap:round;stroke-linejoin:round;stroke-miterlimit:10;}
  </style>
  <linearGradient id="SVGID_1_" x1="474.963" x2="474.963" y1="54" y2="53" gradientUnits="userSpaceOnUse">
    <stop offset="0" stop-color="#656565"/>
    <stop offset=".618" stop-color="#1B1B1B"/>
    <stop offset=".629" stop-color="#545454"/>
    <stop offset=".983" stop-color="#3E3E3E"/>
  </linearGradient>
  <g id="clumsy">
    <path d="M252.9 35.5l-.2-.3c-.6-1-1.9-1.3-2.9-.8l-17.6 10.2c-1 .6-1.3 1.9-.8 2.9l.2.3c.6 1 1.9 1.3 2.9.8l17.6-10.2c1.1-.6 1.4-1.9.8-2.9zm-7.2 18.3l-.2-.2c-.9-.7-2.2-.6-3 .3l-13.1 15.6c-.7.9-.6 2.2.3 3l.2.2c.9.7 2.2.6 3-.3L246 56.8c.7-.9.6-2.3-.3-3zm7.7 3.2h-.3c-1.2 0-2.1.9-2.1 2.1v20.3c0 1.2.9 2.1 2.1 2.1h.3c1.2 0 2.1-.9 2.1-2.1V59.1c0-1.2-1-2.1-2.1-2.1zm5.5-19.4l-.3.1c-1.1.4-1.6 1.6-1.3 2.7l7 19.1c.4 1.1 1.6 1.6 2.7 1.3l.3-.1c1.1-.4 1.6-1.6 1.3-2.7l-7-19.1c-.4-1.2-1.6-1.7-2.7-1.3z" class="st2"/>
    <circle cx="256.8" cy="26.4" r="6.2" class="st2"/>
    <path d="M250 62.9l-6.9-2.5c-2-.7-3-3-2.3-5l6.8-18.6c.7-2 3-3 5-2.3l6.9 2.5c2 .7 3 3 2.3 5L255 60.6c-.7 2-3 3-5 2.3z" class="st2"/>
    <path d="M271.5 48.8s3 2.7 1.5 7m-1.5-11s5.8 4.8 3.9 11m-46.1-16.7s-3 2.7-1.5 7m1.5-11s-5.8 4.8-3.9 11m2.1 22.6s-3 2.7-1.5 7m1.5-11s-5.8 4.8-3.9 11" class="st3"/>
    <path d="M306 47l-.2-.3c-.6-1-1.9-1.3-2.9-.8l-17.6 10.2c-1 .6-1.3 1.9-.8 2.9l.2.3c.6 1 1.9 1.3 2.9.8l17.6-10.2c1-.7 1.3-1.9.8-2.9z" class="st0"/>
    <path d="M298.7 65.3l-.2-.2c-.9-.7-2.2-.6-3 .3L282.4 81c-.7.9-.6 2.2.3 3l.2.2c.9.7 2.2.6 3-.3L299 68.2c.7-.9.6-2.2-.3-2.9zm7.7 3.1h-.3c-1.2 0-2.1.9-2.1 2.1v20.3c0 1.2.9 2.1 2.1 2.1h.3c1.2 0 2.1-.9 2.1-2.1V70.5c0-1.1-.9-2.1-2.1-2.1z" class="st2"/>
    <path d="M312 49l-.3.1c-1.1.4-1.6 1.6-1.3 2.7l7 19.1c.4 1.1 1.6 1.6 2.7 1.3l.3-.1c1.1-.4 1.6-1.6 1.3-2.7l-7-19.1c-.4-1.1-1.7-1.7-2.7-1.3z" class="st0"/>
    <circle cx="309.8" cy="37.9" r="6.2" class="st0"/>
    <path d="M303 74.3l-6.9-2.5c-2-.7-3-3-2.3-5l6.8-18.6c.7-2 3-3 5-2.3l6.9 2.5c2 .7 3 3 2.3 5L308 72c-.7 2-3 3.1-5 2.3z" class="st0"/>
    <path d="M324.5 60.3s3 2.7 1.5 7m-1.5-11s5.8 4.8 3.9 11m-46.1-16.8s-3 2.7-1.5 7m1.5-11s-5.8 4.8-3.9 11m2.2 22.7s-3 2.7-1.5 7m1.5-11s-5.8 4.8-3.9 11" class="st3"/>
    <path d="M298.7 51.9h.5v2.2h-.5z" class="st2"/>
    <path d="M298.5 53.7l-4.9 13.5c-.7 2 .3 4.2 2.3 5l6.9 2.5c2 .7 4.2-.3 5-2.3l6.8-18.6v-.1h-16.1z" class="st4"/>
    <path d="M321.6 69.4l-5.7-15.7h-4.8l6.3 17.2c.4 1.1 1.6 1.6 2.7 1.3l.3-.1c1-.4 1.6-1.6 1.2-2.7zm-22.5-21.3L285.3 56c-1 .6-1.3 1.9-.8 2.9l.2.3c.6 1 1.9 1.3 2.9.8l11.5-6.6v-5.3z" class="st4"/>
    <path d="M181.1 36.7c-.8 0-1.6-.4-2-1.1l-.2-.3c-.3-.5-.4-1.1-.2-1.7.2-.6.5-1.1 1.1-1.4L197.4 22c.3-.2.7-.3 1.1-.3.8 0 1.6.4 2 1.1l.2.3c.3.5.4 1.1.2 1.7s-.5 1.1-1.1 1.4l-17.6 10.2c-.4.2-.7.3-1.1.3z" class="st2"/>
    <path d="M198.5 21.9c.7 0 1.4.4 1.8 1l.2.3c.6 1 .2 2.3-.8 2.9l-17.6 10.2c-.3.2-.7.3-1 .3-.7 0-1.4-.4-1.8-1l-.2-.3c-.6-1-.2-2.3.8-2.9l17.6-10.2c.3-.2.6-.3 1-.3m0-.4c-.4 0-.8.1-1.2.3L179.7 32c-.6.3-1 .9-1.1 1.5-.2.6-.1 1.3.2 1.9l.2.3c.4.8 1.2 1.2 2.1 1.2.4 0 .8-.1 1.2-.3l17.6-10.2c.6-.3 1-.9 1.1-1.5.2-.6.1-1.3-.2-1.9l-.2-.3c-.4-.7-1.2-1.2-2.1-1.2z" class="st5"/>
    <path d="M178.8 61c-.5 0-1.1-.2-1.5-.5l-.2-.2c-1-.8-1.1-2.2-.3-3.2l13.1-15.6c.4-.5 1.1-.8 1.7-.8.5 0 1.1.2 1.5.5l.2.2c1 .8 1.1 2.2.3 3.2l-13.1 15.6c-.4.5-1 .8-1.7.8z" class="st2"/>
    <path d="M191.7 40.8c.5 0 1 .2 1.3.5l.2.2c.9.7 1 2.1.3 3l-13.1 15.6c-.4.5-1 .7-1.6.7-.5 0-1-.2-1.3-.5l-.2-.2c-.9-.7-1-2.1-.3-3l13.1-15.6c.4-.4 1-.7 1.6-.7m0-.3c-.7 0-1.4.3-1.9.9L176.7 57c-.9 1-.7 2.6.3 3.4l.2.2c.4.4 1 .6 1.6.6.7 0 1.4-.3 1.9-.9l13.1-15.6c.9-1 .7-2.6-.3-3.4l-.2-.2c-.5-.4-1-.6-1.6-.6z" class="st5"/>
    <path d="M200.9 44.7h-.3c-1.2 0-2.1.9-2.1 2.1v20.3c0 1.2.9 2.1 2.1 2.1h.3c1.2 0 2.1-.9 2.1-2.1V46.8c0-1.2-.9-2.1-2.1-2.1zm5.6-19.4l-.3.1c-1.1.4-1.6 1.6-1.3 2.7l7 19.1c.4 1.1 1.6 1.6 2.7 1.3l.3-.1c1.1-.4 1.6-1.6 1.3-2.7l-7-19.1c-.4-1.1-1.6-1.7-2.7-1.3z" class="st2"/>
    <circle cx="204.3" cy="14.1" r="6.2" class="st2"/>
    <path d="M197.6 50.6l-6.9-2.5c-2-.7-3-3-2.3-5l6.8-18.6c.7-2 3-3 5-2.3l6.9 2.5c2 .7 3 3 2.3 5l-6.8 18.6c-.8 2-3 3-5 2.3z" class="st2"/>
    <path d="M219 36.5s3 2.7 1.5 7m-1.5-11s5.8 4.8 3.9 11m-46-16.7s-3 2.7-1.5 7m1.5-11s-5.8 4.8-3.9 11m2.1 22.6s-3 2.7-1.5 7m1.5-11s-5.8 4.8-3.9 11" class="st3"/>
  </g>
  <path d="M6.8 52H8l2.3 7.2h-1l-.5-1.7H5.9l-.5 1.7h-.9L6.8 52zm.5.9l-1.1 3.8h2.3l-1.2-3.8zm7.6 6.4c-1.1 0-1.8-.5-1.7-1.6h.8c0 .3 0 1 .8 1 .5 0 .9-.2.9-.8 0-.9-2.5-.9-2.5-2.4 0-.5.3-1.4 1.7-1.4.9 0 1.7.4 1.6 1.4h-.9c0-.5-.3-.8-.8-.8-.4 0-.8.2-.8.7 0 .9 2.5.9 2.5 2.4.1 1.1-.6 1.5-1.6 1.5zm5.6-5.1h.8v5h-.9v-.6c-.3.5-.7.7-1.3.7-.9 0-1.4-.4-1.4-1.3v-3.8h.8v3.5c0 .6.3 1 .9 1 .4 0 1-.3 1-1.2v-3.3zm3.2.8c.4-.8.8-.9 1.6-.9v.8h-.4c-.9 0-1.1.7-1.1 1.4v3H23v-5h.8v.7zm1.9-.8h.9l1.1 4.3 1.2-4.3h.9l-1.6 5H27l-1.4-5zm5.8 2.8c0 1.4.4 1.7 1 1.7s.8-.5.9-1h.9c0 1.1-.7 1.6-1.8 1.6s-1.9-.3-1.9-2.5c0-1.5.2-2.7 1.9-2.7 1.4 0 1.8.8 1.8 2.5v.4h-2.8zm1.9-.6c0-1.5-.4-1.6-1-1.6-.5 0-.9.2-1 1.6h2zm3.1-1.4c.4-.8.8-.9 1.6-.9v.8h-.4c-.9 0-1.1.7-1.1 1.4v3h-.8v-5h.8v.7zm4 3.3l1.2-4.1h.9l-2.3 7h-.8l.6-1.9-1.7-5h.9l1.2 4zm6.1.9h-.8V52h.8v2.7c.3-.4.6-.6 1.1-.6 1.6 0 1.7 1.4 1.7 2.7 0 2.2-.8 2.5-1.6 2.5-.5 0-.9-.2-1.2-.7v.6zm.9-.5c1 0 1-1.1 1-1.9 0-1.3-.1-2-1-2s-.9 1.1-.9 1.7c0 .8-.1 2.2.9 2.2zm4.7-.4l1.2-4.1h.9l-2.3 7h-.8l.6-1.9-1.7-5h.9l1.2 4zm8-6.3l-1.5 7.2h-1.4l1.5-7.2h1.4zm1.5 4.9c-.1.6-.3 1.5.3 1.5.5 0 .7-.5.8-.9h1.4c-.1.5-.4 1-.8 1.3-.4.3-.9.5-1.6.5-1.8 0-1.8-1.1-1.5-2.7.3-1.4.7-2.6 2.6-2.6 1.9 0 1.8 1.2 1.5 2.8h-2.7zm1.5-.7c.1-.5.3-1.2-.4-1.2-.6 0-.8.8-.9 1.2h1.3zm5.3-3.3c-.6 0-.7.2-.8.7l-.1.6h.7l-.2.9h-.7l-.9 4.2H65l.9-4.2h-.6l.2-.9h.5c.3-1.4.3-2.2 2.1-2.2h.5l-.2.9z" class="st0"/>
  <path d="M68.1 54.2h.6l.2-.8 1.5-.6-.3 1.4h.7l-.2.9h-.7l-.6 2.7c-.1.4-.1.6.3.6h.2l-.2.9h-.7c-1.2 0-1.2-.8-1.1-1.1l.7-3.1h-.6l.2-.9zm4.8 5l.7-3.5c.1-.4.1-.8-.4-.8s-.6.3-.7.8l-.7 3.5h-1.4l1.5-7.2h1.4l-.6 2.7c.2-.2.4-.4.6-.5.2-.1.5-.1.7-.1.7 0 1.2.4 1 1.1l-.9 4h-1.2zm6.5-.9c-.1.3-.1.6-.1.9H78l.1-.7c-.4.5-.9.8-1.5.8-1 0-1.2-.7-1-1.6.4-1.7 1.7-1.7 3-1.7l.1-.4c.1-.4.1-.7-.4-.7s-.6.4-.7.8h-1.4c.1-.6.4-1 .8-1.2.4-.2.8-.3 1.4-.3 1.8 0 1.9.8 1.7 1.7l-.7 2.4zm-2.4-.6c-.1.4-.1.8.3.8.8 0 .9-1.1 1.1-1.7-.7 0-1.2 0-1.4.9zm5.8-3c.2-.2.4-.4.6-.5.2-.1.5-.1.7-.1.7 0 1.2.4 1 1.1l-.9 4h-1.4l.7-3.5c.1-.4.1-.8-.4-.8s-.6.3-.7.8l-.7 3.5h-1.4l1.1-5h1.4v.5zm5.1 4.5l.1-.6c-.4.5-.8.7-1.3.7-1.5 0-1.1-1.6-.8-2.7.2-1 .5-2.6 1.9-2.6.5 0 .8.2 1 .6l.6-2.6h1.4l-1.5 7.2h-1.4zm.5-2.5c.2-1 .4-1.7-.2-1.7-.6 0-.8.7-1 1.7-.3 1.3-.3 1.8.2 1.8s.7-.6 1-1.8zm3.8.2c-.1.6-.3 1.5.3 1.5.5 0 .7-.5.8-.9h1.4c-.1.5-.4 1-.8 1.3-.4.3-.9.5-1.6.5-1.8 0-1.8-1.1-1.5-2.7.3-1.4.7-2.6 2.6-2.6 1.9 0 1.8 1.2 1.5 2.8h-2.7zm1.5-.7c.1-.5.3-1.2-.4-1.2-.6 0-.8.8-.9 1.2h1.3zm4.1-2l-.1.6c.4-.6.9-.8 1.5-.8l-.3 1.3c-1.2-.1-1.4.6-1.5 1.1l-.6 2.7h-1.4l1.1-5h1.3zm2.4 3.4c0 .2-.1.5-.1.6 0 .2.2.2.5.2s.6-.2.6-.5c.2-1.1-2.3-.8-2-2.4.2-1.1 1.4-1.4 2.3-1.4 1 0 1.7.5 1.4 1.5h-1.4c.1-.4.1-.6 0-.7-.1-.1-.2-.1-.3-.1-.3 0-.5.2-.6.5-.2.8 2.3.8 2 2.4-.2.9-1 1.5-2.2 1.5-1.2 0-2-.3-1.6-1.7h1.4zm5.5 1.6l.1-.6c-.4.5-.8.7-1.3.7-1.5 0-1.1-1.6-.8-2.7.2-1 .5-2.6 1.9-2.6.5 0 .8.2 1 .6l.6-2.6h1.4l-1.5 7.2h-1.4zm.5-2.5c.2-1 .4-1.7-.2-1.7-.6 0-.8.7-1 1.7-.3 1.3-.3 1.8.2 1.8s.7-.6 1-1.8zm6 1.6c-.1.3-.1.6-.1.9h-1.3l.1-.7c-.4.5-.9.8-1.5.8-1 0-1.2-.7-1-1.6.4-1.7 1.7-1.7 3-1.7l.1-.4c.1-.4.1-.7-.4-.7s-.6.4-.7.8H109c.1-.6.4-1 .8-1.2.4-.2.8-.3 1.4-.3 1.8 0 1.9.8 1.7 1.7l-.7 2.4zm-2.5-.6c-.1.4-.1.8.3.8.8 0 .9-1.1 1.1-1.7-.7 0-1.2 0-1.4.9zm4.4 1.6l-.3-5.1h1.4v3.5l1.5-3.5h1.4l-3.4 7h-1.5l.9-1.9zm4.6-1.4l-.3 1.3h-1.2l.3-1.3h1.2zm4-1.9c.2-.8 0-1-.4-1-.6 0-.8.5-1 1.6-.3 1.5-.3 1.9.2 1.9.4 0 .7-.4.9-1.1h1.4c-.3 1.4-1.2 2-2.5 2-1.8 0-1.8-1.1-1.5-2.7.3-1.4.7-2.6 2.6-2.6 1.3 0 1.9.6 1.6 1.9h-1.3zm2.2.7c.3-1.4.7-2.6 2.6-2.6 1.9 0 1.8 1.2 1.5 2.6-.3 1.6-.8 2.7-2.6 2.7s-1.8-1.2-1.5-2.7zm2.7-.1c.2-1 .3-1.6-.3-1.6s-.8.5-1 1.6c-.3 1.5-.3 1.9.2 1.9.6-.1.8-.4 1.1-1.9zm4.1-1.9c.4-.5.8-.6 1.3-.6s.8.2 1 .6c.4-.4.9-.6 1.4-.6.7 0 1.2.4 1 1.1l-.9 4h-1.4l.7-3.5c.1-.4.1-.8-.4-.8s-.6.3-.7.8l-.7 3.5h-1.4l.7-3.5c.1-.4.1-.8-.4-.8-.4 0-.6.3-.7.8l-.7 3.5h-1.4l1.1-5h1.4l.1.5zm7.5-.5v-1c0-1 .7-1.2 1.4-1.2h.4v.6c-.9-.1-1 .3-1 .7v.9h1v.6h-1v4.4h-.8v-4.4h-.8v-.6h.8zm2.5 2.6c0-1.5.2-2.7 1.9-2.7s1.9 1.2 1.9 2.7c0 2.2-.8 2.5-1.9 2.5s-1.9-.3-1.9-2.5zm3-.4c0-1.4-.4-1.7-1.1-1.7-.6 0-1.1.3-1.1 1.7 0 1.6.2 2.2 1.1 2.2s1.1-.5 1.1-2.2zm4.8-2.2h.8v4c0 .4 0 .7.1 1h-.9v-.6c-.3.5-.7.7-1.3.7-.9 0-1.4-.4-1.4-1.3v-3.8h.8v3.5c0 .6.3 1 .9 1 .4 0 1-.3 1-1.2v-3.3zm5.1 5v-3.5c0-.5-.2-1-.9-1-.9 0-1 .8-1 1.5v3h-.8v-5h.9v.6c.3-.6.7-.8 1.3-.8 1.1 0 1.3.7 1.3 1.6v3.5h-.8zm4.9-7.2h.8v7.2h-.8v-.6c-.3.5-.6.7-1.2.7-.8 0-1.6-.3-1.6-2.5 0-1.3 0-2.7 1.7-2.7.5 0 .8.2 1.1.6V52zm-.9 2.8c-.9 0-1 .7-1 2 0 .8 0 1.9 1 1.9.9 0 .9-1.1.9-2.2 0-.7 0-1.7-.9-1.7zM5.1 68.2v-1l.8-.4v1.3H7v.6H5.9v3.1c0 .3 0 .7.8.7h.4v.6c-.3 0-.5.1-.8.1-.8 0-1.1-.3-1.1-.9v-3.6h-.9v-.6h.8zm5.5 5v-3.4c0-.6-.2-1.1-.9-1.1-.8 0-1 .7-1 1.5v3h-.9V66h.8v2.8c.3-.6.7-.8 1.4-.8.9 0 1.3.4 1.3 1.6v3.6h-.7zm4.8-.7c-.3.6-.7.8-1.3.8-1.1 0-1.4-.7-1.4-1.7 0-1.5 1.5-1.6 2.6-1.6 0-.7 0-1.4-.8-1.4-.5 0-.8.4-.8.9h-.9c0-1.1.6-1.5 1.7-1.5 1.3 0 1.6.7 1.6 1.5V72c0 .4 0 .8.1 1.2h-.9v-.7zm-1.8-.8c0 .5.2.9.8.9.5 0 1.1-.3 1-1.9-.8 0-1.8 0-1.8 1zm4.3-3.5v-1l.8-.4v1.3h1.1v.6h-1.1v3.1c0 .3 0 .7.8.7h.4v.6c-.3 0-.5.1-.8.1-.8 0-1.1-.3-1.1-.9v-3.6h-.8v-.6h.7z" class="st0"/>
  <path d="M22.6 70.6c0-1.3.2-2.4 1.5-2.8-1.2-.3-1.5-1.2-1.5-2.3 0-1.9 1-2.8 2.9-2.8s2.9.9 2.9 2.8c0 1.1-.3 2-1.5 2.3 1.3.5 1.5 1.5 1.5 2.8 0 2-1.1 2.8-3 2.8-1.7 0-2.8-.9-2.8-2.8zm2.2-.2c0 .6.1 1.4.9 1.4s.9-.8.9-1.4c0-.6 0-1.9-.9-1.9-1 .1-.9 1.3-.9 1.9zm.1-4.9c0 .5.1 1.4.8 1.4s.8-.9.8-1.4c0-.5-.1-1.4-.8-1.4-.8.1-.8.9-.8 1.4zm6.7 1.5c.4-.5.9-.7 1.5-.7 1.7 0 2.2 1.2 2.2 3.5 0 2.8-1 3.6-3.2 3.6-1.7 0-2.8-.7-2.8-2.6h2.1c0 .3 0 .6.1.8.1.2.3.3.6.3.8 0 .9-.6.9-2.1 0-.7.1-2.1-.9-2.1-.6 0-.8.7-.8 1.2h-2v-6.1H35v1.6h-3.4V67zm4.5-1.4c0-1.6.3-2.8 2.2-2.8 1.8 0 2.2 1.3 2.2 2.8 0 1.8-.5 2.7-2.2 2.7-1.7 0-2.2-.9-2.2-2.7zm2.9-.2c0-.5 0-1.5-.7-1.5-.8 0-.7 1-.7 1.5 0 1.2.1 1.7.7 1.7.7 0 .7-.4.7-1.7zm.8 8.2h-1.1l4.4-11h1.1l-4.4 11zm2.7-3.1c0-1.6.3-2.8 2.2-2.8s2.2 1.3 2.2 2.8c0 1.8-.5 2.7-2.2 2.7-1.7 0-2.2-.9-2.2-2.7zm2.9-.1c0-.5 0-1.5-.7-1.5-.8 0-.7 1-.7 1.5 0 1.2.1 1.7.7 1.7.7 0 .7-.5.7-1.7z" class="st2"/>
  <path d="M50.1 70.8c0-1.5.2-2.7 1.9-2.7s1.9 1.2 1.9 2.7c0 2.2-.8 2.5-1.9 2.5s-1.9-.3-1.9-2.5zm3-.4c0-1.4-.4-1.7-1.1-1.7-.6 0-1.1.3-1.1 1.7 0 1.6.2 2.2 1.1 2.2s1.1-.5 1.1-2.2zm2.3-2.2v-1c0-1 .7-1.2 1.4-1.2h.4v.6c-.9-.1-1 .3-1 .7v.9h1v.6h-1v4.4h-.8v-4.4h-.8v-.6h.8zm5.7 5h-.8V66h.8v7.2zm2.2-2.2c0 1.4.4 1.7 1 1.7s.8-.5.9-1h.9c0 1.1-.7 1.6-1.8 1.6s-1.9-.3-1.9-2.5c0-1.5.2-2.7 1.9-2.7 1.4 0 1.8.8 1.8 2.5v.4h-2.8zm2-.6c0-1.5-.4-1.6-1-1.6-.5 0-.9.2-1 1.6h2zm2.3-2.2v-1c0-1 .7-1.2 1.4-1.2h.4v.6c-.9-.1-1 .3-1 .7v.9h1v.6h-1v4.4h-.8v-4.4h-.8v-.6h.8zm2.8 0v-1l.8-.4v1.3h1.1v.6h-1.1v3.1c0 .3 0 .7.8.7h.4v.6c-.3 0-.5.1-.8.1-.8 0-1.1-.3-1.1-.9v-3.6h-.8v-.6h.7zM73 66h.9v.9H73V66zm.9 7.2H73v-5h.8v5zm2.2-2.2c0 1.4.4 1.7 1 1.7s.8-.5.9-1h.9c0 1.1-.7 1.6-1.8 1.6s-1.9-.3-1.9-2.5c0-1.5.2-2.7 1.9-2.7 1.4 0 1.8.8 1.8 2.5v.4h-2.8zm1.9-.6c0-1.5-.4-1.6-1-1.6-.5 0-.9.2-1 1.6h2zm3.8 2.9c-1.1 0-1.8-.5-1.7-1.6h.9c0 .3 0 1 .8 1 .5 0 .9-.2.9-.8 0-.9-2.5-.9-2.5-2.4 0-.5.3-1.4 1.7-1.4.9 0 1.7.4 1.6 1.4h-.9c0-.5-.3-.8-.8-.8-.4 0-.8.2-.8.7 0 .9 2.5.9 2.5 2.4 0 1.1-.7 1.5-1.7 1.5zm7.8-3.5c0-.8-.4-1-.7-1-.6 0-1.1.3-1.1 1.7 0 1.6.2 2.2 1.1 2.2.2 0 .8-.2.7-1.1h.9c0 1.4-1 1.8-1.6 1.8-1.1 0-1.9-.3-1.9-2.5 0-1.5.2-2.7 1.9-2.7 1 0 1.6.6 1.5 1.7h-.8zm2.2 1c0-1.5.2-2.7 1.9-2.7s1.9 1.2 1.9 2.7c0 2.2-.8 2.5-1.9 2.5s-1.9-.3-1.9-2.5zm3-.4c0-1.4-.4-1.7-1.1-1.7-.6 0-1.1.3-1.1 1.7 0 1.6.2 2.2 1.1 2.2s1.1-.5 1.1-2.2zm4.9 2.8v-3.5c0-.5-.2-1-.9-1-.9 0-1 .8-1 1.5v3H97v-5h.9v.6c.3-.6.7-.8 1.3-.8 1.1 0 1.3.7 1.3 1.6v3.5h-.8zm3.7.1c-1.1 0-1.8-.5-1.7-1.6h.9c0 .3 0 1 .8 1 .5 0 .9-.2.9-.8 0-.9-2.5-.9-2.5-2.4 0-.5.3-1.4 1.7-1.4.9 0 1.7.4 1.6 1.4h-.9c0-.5-.3-.8-.8-.8-.4 0-.8.2-.8.7 0 .9 2.5.9 2.5 2.4.1 1.1-.7 1.5-1.7 1.5zm2.9-7.3h.9v.9h-.9V66zm.9 7.2h-.8v-5h.8v5zm4.1-7.2h.8v7.2h-.8v-.6c-.3.5-.6.7-1.2.7-.8 0-1.6-.3-1.6-2.5 0-1.3 0-2.7 1.7-2.7.5 0 .8.2 1.1.6V66zm-1 2.8c-.9 0-1 .7-1 2 0 .8 0 1.9 1 1.9.9 0 .9-1.1.9-2.2.1-.7 0-1.7-.9-1.7zm4.1 2.2c0 1.4.4 1.7 1 1.7s.8-.5.9-1h.9c0 1.1-.7 1.6-1.8 1.6s-1.9-.3-1.9-2.5c0-1.5.2-2.7 1.9-2.7 1.4 0 1.8.8 1.8 2.5v.4h-2.8zm2-.6c0-1.5-.4-1.6-1-1.6-.5 0-.9.2-1 1.6h2zm3-1.4c.4-.8.8-.9 1.6-.9v.8h-.4c-.9 0-1.1.7-1.1 1.4v3h-.8v-5h.8v.7zm3.3 2c0 1.4.4 1.7 1 1.7s.8-.5.9-1h.9c0 1.1-.7 1.6-1.8 1.6s-1.9-.3-1.9-2.5c0-1.5.2-2.7 1.9-2.7 1.4 0 1.8.8 1.8 2.5v.4h-2.8zm2-.6c0-1.5-.4-1.6-1-1.6-.5 0-.9.2-1 1.6h2zm4.9-4.4h.8v7.2h-.8v-.6c-.3.5-.6.7-1.2.7-.8 0-1.6-.3-1.6-2.5 0-1.3 0-2.7 1.7-2.7.5 0 .8.2 1.1.6V66zm-1 2.8c-.9 0-1 .7-1 2 0 .8 0 1.9 1 1.9.9 0 .9-1.1.9-2.2.1-.7.1-1.7-.9-1.7zm5.6-.6v-1l.8-.4v1.3h1.1v.6H135v3.1c0 .3 0 .7.8.7h.4v.6c-.3 0-.5.1-.8.1-.8 0-1.1-.3-1.1-.9v-3.6h-.8v-.6h.7zm5.5 5v-3.4c0-.6-.2-1.1-.9-1.1-.8 0-1 .7-1 1.5v3h-.8V66h.8v2.8c.3-.6.7-.8 1.4-.8.9 0 1.3.4 1.3 1.6v3.6h-.8zm3-2.2c0 1.4.4 1.7 1 1.7s.8-.5.9-1h.9c0 1.1-.7 1.6-1.8 1.6s-1.9-.3-1.9-2.5c0-1.5.2-2.7 1.9-2.7 1.4 0 1.8.8 1.8 2.5v.4h-2.8zm2-.6c0-1.5-.4-1.6-1-1.6-.5 0-.9.2-1 1.6h2zm4.7 2.8v-3.5c0-.5-.1-1-.8-1-.2 0-.6.2-.7.3-.2.2-.2.5-.2.7v3.4h-.8v-5h.9v.6c.2-.5.7-.7 1.3-.7.5 0 1 .2 1.2.7.3-.5.7-.7 1.2-.7s1.4.1 1.4 1.3v3.8h-.8v-3.5c0-.5-.1-1-.8-1-.3 0-.4 0-.6.2-.2.2-.3.7-.3.9v3.4h-1zm6.2.1c-1.1 0-1.8-.5-1.7-1.6h.9c0 .3 0 1 .8 1 .5 0 .9-.2.9-.8 0-.9-2.5-.9-2.5-2.4 0-.5.3-1.4 1.7-1.4.9 0 1.7.4 1.6 1.4h-.9c0-.5-.3-.8-.8-.8-.4 0-.8.2-.8.7 0 .9 2.5.9 2.5 2.4.1 1.1-.7 1.5-1.7 1.5zm3.8-2.3c0 1.4.4 1.7 1 1.7s.8-.5.9-1h.9c0 1.1-.7 1.6-1.8 1.6s-1.9-.3-1.9-2.5c0-1.5.2-2.7 1.9-2.7 1.4 0 1.8.8 1.8 2.5v.4h-2.8zm2-.6c0-1.5-.4-1.6-1-1.6-.5 0-.9.2-1 1.6h2zm3 2.8h-.8V66h.8v7.2zm.8-5h.9l1.1 4.3 1.2-4.3h.9l-1.6 5h-1.1l-1.4-5zM171 71c0 1.4.4 1.7 1 1.7s.8-.5.9-1h.9c0 1.1-.7 1.6-1.8 1.6s-1.9-.3-1.9-2.5c0-1.5.2-2.7 1.9-2.7 1.4 0 1.8.8 1.8 2.5v.4H171zm2-.6c0-1.5-.4-1.6-1-1.6-.5 0-.9.2-1 1.6h2zm3.7 2.9c-1.1 0-1.8-.5-1.7-1.6h.9c0 .3 0 1 .8 1 .5 0 .9-.2.9-.8 0-.9-2.5-.9-2.5-2.4 0-.5.3-1.4 1.7-1.4.9 0 1.7.4 1.6 1.4h-.9c0-.5-.3-.8-.8-.8-.4 0-.8.2-.8.7 0 .9 2.5.9 2.5 2.4.1 1.1-.7 1.5-1.7 1.5zM7.5 85.6v-3.5c0-.5-.1-1-.8-1-.2 0-.6.2-.7.3-.1.2-.2.5-.2.7v3.4H5v-5h.9v.6c.2-.5.7-.7 1.3-.7.5 0 1 .2 1.2.7.3-.5.7-.7 1.2-.7s1.4.1 1.4 1.3v3.8h-1V82c0-.5-.1-1-.8-1-.3 0-.4 0-.6.2-.2.2-.3.7-.3.9v3.4h-.8zm4.6-2.4c0-1.5.2-2.7 1.9-2.7s1.9 1.2 1.9 2.7c0 2.2-.8 2.5-1.9 2.5s-1.9-.3-1.9-2.5zm3-.4c0-1.4-.4-1.7-1.1-1.7-.6 0-1.1.3-1.1 1.7 0 1.6.2 2.2 1.1 2.2s1.1-.5 1.1-2.2zm3-1.4c.4-.8.8-.9 1.6-.9v.8h-.4c-.9 0-1.1.7-1.1 1.4v3h-.8v-5h.8v.7zm3.3 2c0 1.4.4 1.7 1 1.7s.8-.5.9-1h.9c0 1.1-.7 1.6-1.8 1.6s-1.9-.3-1.9-2.5c0-1.5.2-2.7 1.9-2.7 1.4 0 1.8.8 1.8 2.5v.4h-2.8zm2-.6c0-1.5-.4-1.6-1-1.6-.5 0-.9.2-1 1.6h2zm9.4 1.6c0 .4.1.8.1 1.2h-1.7l-.1-.9c-.4.7-.9 1-1.7 1-1.3 0-1.7-.9-1.7-2.1 0-2.2 1.7-2.3 3.4-2.2v-.5c0-.6-.1-1-.7-1s-.7.5-.7 1h-1.8c0-.8.2-1.3.7-1.6.4-.3 1-.4 1.7-.4 2.3 0 2.6 1 2.6 2.2v3.3zm-3.4-.8c0 .5.1 1 .7 1 1.1 0 .9-1.5.9-2.2-.9.1-1.6 0-1.6 1.2zm4.3-4.5h1.8l.9 4.9 1.3-4.9h1.9l1.2 4.9 1-4.9h1.8l-1.8 6.6h-1.9l-1.2-4.5-1.3 4.5h-1.9l-1.8-6.6zm10.7 6.5v-9.4h1.8v5.6l1.7-2.8h1.9L48 82l2.1 3.6H48L46.3 82v3.6h-1.9zm5.9-6.5h1.8L53 84l1.3-4.9h1.9l1.2 4.9 1-4.9h1.8l-1.8 6.6h-1.9l-1.2-4.5-1.3 4.5h-2l-1.7-6.6zM66 84.4c0 .4.1.8.1 1.2h-1.7l-.1-.9c-.4.7-.9 1-1.7 1-1.3 0-1.7-.9-1.7-2.1 0-2.2 1.7-2.3 3.4-2.2v-.5c0-.6-.1-1-.7-1s-.7.5-.7 1H61c0-.8.2-1.3.7-1.6.4-.3 1-.4 1.7-.4 2.3 0 2.6 1 2.6 2.2v3.3zm-3.4-.8c0 .5.1 1 .7 1 1.1 0 .9-1.5.9-2.2-.9.1-1.6 0-1.6 1.2zm6.7-4.5v.8c.3-.8 1-1 1.7-1v1.6c-1.6-.1-1.6.8-1.6 1.5v3.6h-1.8V79h1.7zm5.9 6.5v-.7c-.3.6-.8.9-1.5.9-1.9 0-1.8-2.1-1.8-3.5 0-1.3-.1-3.4 1.8-3.4.7 0 1.1.2 1.5.8v-3.4H77v9.4h-1.8zm-.1-3.3c0-1.3 0-2.2-.7-2.2-.8 0-.8.9-.8 2.2 0 1.7.1 2.3.8 2.3.5 0 .7-.7.7-2.3zm5.3.9c0-1.5.2-2.7 1.9-2.7s1.9 1.2 1.9 2.7c0 2.2-.8 2.5-1.9 2.5s-1.9-.3-1.9-2.5zm3-.4c0-1.4-.4-1.7-1.1-1.7-.6 0-1.1.3-1.1 1.7 0 1.6.2 2.2 1.1 2.2s1.1-.5 1.1-2.2zm3-1.4c.4-.8.8-.9 1.6-.9v.8h-.4c-.9 0-1.1.7-1.1 1.4v3h-.8v-5h.8v.7zm8.1 0c0-1-.2-1.3-.8-1.3-.8 0-.8.7-.8 2.1 0 2 .2 2.4.8 2.4.6 0 .8-.5.8-1.4h1.8c0 1.8-1 2.5-2.7 2.5-2.4 0-2.7-1.4-2.7-3.5 0-1.8.3-3.3 2.7-3.3 1.7 0 2.7.8 2.7 2.5h-1.8zm5.1-5.1v9.4h-1.8v-9.4h1.8zm4.9 8.7c-.2.3-.4.5-.7.6-.3.1-.5.2-.9.2-.9 0-1.6-.5-1.6-1.4v-5.3h1.8v4.6c0 .6.1 1 .7 1s.7-.4.7-1v-4.6h1.8v5.3c0 .4 0 .9.1 1.3h-1.9V85zm4.9-5.3c.4-.6.9-.8 1.6-.8.7 0 1.2.3 1.5.8.4-.6.9-.8 1.7-.8.9 0 1.6.5 1.6 1.4v5.3H114v-4.5c0-.6-.1-1-.7-1s-.7.5-.7 1v4.5h-1.8v-4.5c0-.6-.1-1-.7-1s-.7.5-.7 1v4.5h-1.8V79h1.8v.7zm9.2 3.8c0 .3 0 .6.1.8.1.2.3.3.7.3.4 0 .7-.2.7-.7 0-1.4-3.2-1.1-3.2-3.2 0-1.4 1.4-1.8 2.6-1.8 1.2 0 2.4.6 2.3 2H120c0-.5-.1-.7-.2-.8-.1-.1-.3-.1-.5-.1-.4 0-.6.3-.6.7 0 1 3.2 1 3.2 3.1 0 1.1-.9 2-2.5 2s-2.7-.4-2.6-2.2h1.8zm5.5 2.2l-1.8-6.6h1.8l.9 4.6 1-4.6h1.8l-2.5 9h-1.9l.7-2.4zm6.9-5.1v-1l.8-.4v1.3h1.1v.6h-1.1v3.1c0 .3 0 .7.8.7h.4v.6c-.3 0-.5.1-.8.1-.8 0-1.1-.3-1.1-.9v-3.6h-.8v-.6h.7zm5.4 5v-3.4c0-.6-.2-1.1-.9-1.1-.8 0-1 .7-1 1.5v3h-.8v-7.2h.8v2.8c.3-.6.7-.8 1.4-.8.9 0 1.3.4 1.3 1.6v3.6h-.8zm4.9-.7c-.3.6-.7.8-1.3.8-1.1 0-1.4-.7-1.4-1.7 0-1.5 1.5-1.6 2.6-1.6 0-.7 0-1.4-.8-1.4-.5 0-.8.4-.8.9h-.9c0-1.1.6-1.5 1.7-1.5 1.3 0 1.6.7 1.6 1.5v2.4c0 .4 0 .8.1 1.2h-.9v-.6zm-1.9-.8c0 .5.2.9.8.9.5 0 1.1-.3 1-1.9-.7 0-1.8 0-1.8 1zm7 1.5v-3.5c0-.5-.2-1-.9-1-.9 0-1 .8-1 1.5v3h-.8v-5h.9v.6c.3-.6.7-.8 1.3-.8 1.1 0 1.3.7 1.3 1.6v3.5h-.8zm7.1-.7c-.3.6-.7.8-1.3.8-1.1 0-1.4-.7-1.4-1.7 0-1.5 1.5-1.6 2.6-1.6 0-.7 0-1.4-.8-1.4-.5 0-.8.4-.8.9h-.9c0-1.1.6-1.5 1.7-1.5 1.3 0 1.6.7 1.6 1.5v2.4c0 .4 0 .8.1 1.2h-.9v-.6zm-1.9-.8c0 .5.2.9.8.9.5 0 1.1-.3 1-1.9-.7 0-1.8 0-1.8 1zm3.7-3.5h.9l1.1 4.3 1.2-4.3h.9l-1.6 5h-1.1l-1.4-5zm5.8 2.8c0 1.4.4 1.7 1 1.7s.8-.5.9-1h.9c0 1.1-.7 1.6-1.8 1.6s-1.9-.3-1.9-2.5c0-1.5.2-2.7 1.9-2.7 1.4 0 1.8.8 1.8 2.5v.4h-2.8zm2-.6c0-1.5-.4-1.6-1-1.6-.5 0-.9.2-1 1.6h2zm3.1-1.4c.4-.8.8-.9 1.6-.9v.8h-.4c-.9 0-1.1.7-1.1 1.4v3h-.8v-5h.8v.7zm5.1 3.5c-.3.6-.7.8-1.3.8-1.1 0-1.4-.7-1.4-1.7 0-1.5 1.5-1.6 2.6-1.6 0-.7 0-1.4-.8-1.4-.5 0-.8.4-.8.9h-.9c0-1.1.6-1.5 1.7-1.5 1.3 0 1.6.7 1.6 1.5v2.4c0 .4 0 .8.1 1.2h-.9v-.6zm-1.9-.8c0 .5.2.9.8.9.5 0 1.1-.3 1-1.9-.7 0-1.8 0-1.8 1zm6.9-3.5h.8v5.6c0 1.1-.8 1.4-1.9 1.4-.8 0-1.6-.4-1.5-1.3h.9c0 .5.3.7.8.7.6 0 .9-.3.9-.9v-1c-.2.4-.7.6-1.1.6-1.4 0-1.6-1.2-1.6-2.7 0-2.3 1.2-2.5 1.6-2.5.5 0 1 .2 1.2.7v-.6zm-.9.6c-.9 0-1 1.1-1 1.8 0 1.6.4 2 1 2 1 0 1-1.2 1-1.9 0-.8 0-1.9-1-1.9zm4.1 2.2c0 1.4.4 1.7 1 1.7s.8-.5.9-1h.9c0 1.1-.7 1.6-1.8 1.6s-1.9-.3-1.9-2.5c0-1.5.2-2.7 1.9-2.7 1.4 0 1.8.8 1.8 2.5v.4h-2.8zm1.9-.6c0-1.5-.4-1.6-1-1.6-.5 0-.9.2-1 1.6h2zm3.1 2.8h-.9v-1h.9v1z" class="st0"/>
</svg>
