<svg id="Layer_1" xmlns="http://www.w3.org/2000/svg" width="459" height="453" viewBox="0 0 459 453"><style>.Drop_x0020_Shadow{fill:none;} .Outer_x0020_Glow_x0020_5_x0020_pt{fill:none;} .Blue_x0020_Neon{fill:none;stroke:#8AACDA;stroke-width:7;stroke-linecap:round;stroke-linejoin:round;} .Chrome_x0020_Highlight{fill:url(#SVGID_1_);stroke:#FFFFFF;stroke-width:0.3629;stroke-miterlimit:1;} .Jive_GS{fill:#FFDD00;} .Alyssa_GS{fill:#A6D0E4;} .st0{fill:#0A3656;} .st1{fill:#ED5A49;} .st2{fill:none;stroke:#ECD177;stroke-linecap:round;stroke-linejoin:round;stroke-miterlimit:10;} .st3{fill:#DDE8F0;stroke:#DDE8F0;stroke-width:0.5;stroke-miterlimit:10;} .st4{fill:#E9F5FC;} .st5{fill:none;stroke:#0A3656;stroke-width:2;stroke-linecap:round;stroke-linejoin:round;stroke-miterlimit:10;stroke-dasharray:0,8;}</style><linearGradient id="SVGID_1_" gradientUnits="userSpaceOnUse" x1="-262.601" y1="-64.101" x2="-262.601" y2="-65.101"><stop offset="0" stop-color="#656565"/><stop offset=".618" stop-color="#1B1B1B"/><stop offset=".629" stop-color="#545454"/><stop offset=".983" stop-color="#3E3E3E"/></linearGradient><path class="st0" d="M120.4 149.7h-.9v-7.2h1.5l1.8 6.1 1.8-6.1h1.5v7.2h-.9v-6.4l-2 6.4h-.9l-2-6.4v6.4zM127.6 147.3c0-1.5.2-2.7 1.9-2.7s1.9 1.2 1.9 2.7c0 2.2-.8 2.5-1.9 2.5s-1.9-.3-1.9-2.5zm3-.4c0-1.4-.4-1.7-1.1-1.7-.6 0-1.1.3-1.1 1.7 0 1.6.2 2.2 1.1 2.2s1.1-.5 1.1-2.2zM133.6 145.4c.4-.8.8-.9 1.6-.9v.8h-.4c-.9 0-1.1.7-1.1 1.4v3h-.8v-5h.8v.7zM136.9 147.5c0 1.4.4 1.7 1 1.7s.8-.4.9-1h.9c0 1.1-.7 1.6-1.8 1.6s-1.9-.3-1.9-2.5c0-1.5.2-2.7 1.9-2.7 1.4 0 1.8.8 1.8 2.5v.4h-2.8zm1.9-.7c0-1.5-.4-1.6-1-1.6-.5 0-.9.2-1 1.6h2zM143.4 144.7v-1l.8-.4v1.3h1.1v.6h-1.1v3.1c0 .3 0 .7.8.7h.4v.6c-.3 0-.5.1-.8.1-.8 0-1.1-.3-1.1-.9v-3.6h-.8v-.6h.7zM148.8 149.7v-3.4c0-.6-.2-1.1-.9-1.1-.8 0-1 .7-1 1.5v3h-.8v-7.2h.8v2.8c.3-.6.7-.7 1.4-.7.9 0 1.3.4 1.3 1.6v3.6h-.8zM153.7 149c-.3.6-.7.8-1.3.8-1.1 0-1.4-.7-1.4-1.7 0-1.5 1.5-1.6 2.6-1.6 0-.7 0-1.4-.8-1.4-.5 0-.8.4-.8.9h-.9c0-1.1.6-1.5 1.7-1.5 1.3 0 1.6.7 1.6 1.5v2.4c0 .4 0 .8.1 1.2h-.9v-.6zm-1.9-.8c0 .5.2.9.8.9.5 0 1.1-.3 1-1.9-.7 0-1.8 0-1.8 1zM158.8 149.7v-3.5c0-.5-.2-1-.9-1-.9 0-1 .8-1 1.5v3h-.8v-4c0-.3 0-.7-.1-1h.9v.6c.3-.6.7-.7 1.3-.7 1.1 0 1.3.6 1.3 1.6v3.5h-.7zM163.1 143.8c.5-.3 1-.6 1.3-1.1h1.3v7h-1.5v-5.4c-.4.3-.8.6-1.2.8v-1.3zM169.7 144.3c0-.2 0-.3-.1-.5-.1-.1-.2-.2-.4-.2-.6 0-.6.3-.6 2.1.4-.3.6-.5 1.1-.5 1.3 0 1.5 1.1 1.5 2.2 0 1.4-.5 2.4-2.1 2.4-1.8 0-1.9-1.6-1.9-3 0-2.8.1-4.2 2.1-4.2 1.1 0 1.8.4 1.8 1.6h-1.4zm.1 3.1c0-.9-.1-1.3-.6-1.3s-.6.5-.6 1.4c0 .4 0 1.2.6 1.2.5.1.6-.2.6-1.3zM175.7 146.2c0 2.2-.1 3.6-2 3.6s-2-1.4-2-3.6c0-2.7.3-3.6 2-3.6s2 .9 2 3.6zm-2.6 0c0 2.1.1 2.6.6 2.6s.6-.4.6-2.6c0-2.1 0-2.6-.6-2.6s-.6.5-.6 2.6zM176.6 148.4h1.3l-.8 2.3h-1l.5-2.3zM182.3 146.2c0 2.2-.1 3.6-2 3.6s-2-1.4-2-3.6c0-2.7.3-3.6 2-3.6s2 .9 2 3.6zm-2.6 0c0 2.1.1 2.6.6 2.6s.6-.4.6-2.6c0-2.1 0-2.6-.6-2.6s-.6.5-.6 2.6zM186.8 146.2c0 2.2-.1 3.6-2 3.6s-2-1.4-2-3.6c0-2.7.3-3.6 2-3.6s2 .9 2 3.6zm-2.6 0c0 2.1.1 2.6.6 2.6s.6-.4.6-2.6c0-2.1 0-2.6-.6-2.6s-.6.5-.6 2.6zM191.2 146.2c0 2.2-.1 3.6-2 3.6s-2-1.4-2-3.6c0-2.7.3-3.6 2-3.6s2 .9 2 3.6zm-2.6 0c0 2.1.1 2.6.6 2.6s.6-.4.6-2.6c0-2.1 0-2.6-.6-2.6s-.6.5-.6 2.6zM196.1 142.5h1.2l2.3 7.2h-1l-.5-1.7h-2.8l-.5 1.7h-.9l2.2-7.2zm.5.9l-1.1 3.8h2.3l-1.2-3.8zM203 149.7v-3.5c0-.5-.1-1-.8-1-.2 0-.6.1-.7.3-.1.2-.2.5-.2.7v3.4h-.8v-4-1h.9v.6c.2-.5.7-.7 1.3-.7.5 0 1 .2 1.2.6.3-.5.7-.6 1.2-.6s1.4.1 1.4 1.3v3.8h-.8v-3.5c0-.5-.1-1-.8-1-.3 0-.4 0-.6.2-.2.2-.3.7-.3.9v3.4h-1zM208.5 147.5c0 1.4.4 1.7 1 1.7s.8-.4.9-1h.9c0 1.1-.7 1.6-1.8 1.6s-1.9-.3-1.9-2.5c0-1.5.2-2.7 1.9-2.7 1.4 0 1.8.8 1.8 2.5v.4h-2.8zm2-.7c0-1.5-.4-1.6-1-1.6-.5 0-.9.2-1 1.6h2zM213.5 145.4c.4-.8.8-.9 1.6-.9v.8h-.4c-.9 0-1.1.7-1.1 1.4v3h-.8v-5h.8v.7zM216 142.5h.9v.9h-.9v-.9zm.8 7.2h-.8v-5h.8v5zM220.9 146.3c0-.8-.4-1-.7-1-.6 0-1.1.3-1.1 1.7 0 1.6.2 2.2 1.1 2.2.2 0 .8-.2.7-1.1h.9c0 1.4-1 1.8-1.6 1.8-1.1 0-1.9-.3-1.9-2.5 0-1.5.2-2.7 1.9-2.7 1 0 1.6.6 1.5 1.7h-.8zM225.8 149c-.3.6-.7.8-1.3.8-1.1 0-1.4-.7-1.4-1.7 0-1.5 1.5-1.6 2.6-1.6 0-.7 0-1.4-.8-1.4-.5 0-.8.4-.8.9h-.9c0-1.1.6-1.5 1.7-1.5 1.3 0 1.6.7 1.6 1.5v2.4c0 .4 0 .8.1 1.2h-.9v-.6zm-1.8-.8c0 .5.2.9.8.9.5 0 1.1-.3 1-1.9-.8 0-1.8 0-1.8 1zM231 149.7v-3.5c0-.5-.2-1-.9-1-.9 0-1 .8-1 1.5v3h-.8v-4-1h.9v.6c.3-.6.7-.7 1.3-.7 1.1 0 1.3.6 1.3 1.6v3.5h-.8zM234.7 149.8c-1.1 0-1.8-.5-1.7-1.6h.9c0 .3 0 1 .8 1 .5 0 .9-.2.9-.8 0-.9-2.5-.9-2.5-2.4 0-.5.3-1.4 1.7-1.4.9 0 1.7.4 1.6 1.4h-.9c0-.5-.3-.8-.8-.8-.4 0-.8.2-.8.7 0 .9 2.5.9 2.5 2.4.1 1.1-.7 1.5-1.7 1.5zM240 144.7v-1l.8-.4v1.3h1.1v.6h-1.1v3.1c0 .3 0 .7.8.7h.4v.6c-.3 0-.5.1-.8.1-.8 0-1.1-.3-1.1-.9v-3.6h-.8v-.6h.7zM242.5 147.3c0-1.5.2-2.7 1.9-2.7s1.9 1.2 1.9 2.7c0 2.2-.8 2.5-1.9 2.5s-1.9-.3-1.9-2.5zm3-.4c0-1.4-.4-1.7-1.1-1.7s-1.1.3-1.1 1.7c0 1.6.2 2.2 1.1 2.2s1.1-.5 1.1-2.2zM247.5 147.3c0-1.5.2-2.7 1.9-2.7s1.9 1.2 1.9 2.7c0 2.2-.8 2.5-1.9 2.5s-1.9-.3-1.9-2.5zm3-.4c0-1.4-.4-1.7-1.1-1.7s-1.1.3-1.1 1.7c0 1.6.2 2.2 1.1 2.2s1.1-.5 1.1-2.2zM253.5 149.7h-.8v-7.2h.8v4.3l1.5-2.2h1l-1.7 2.2 2 2.9h-1l-1.8-2.8v2.8zM261.9 149c-.3.6-.7.8-1.3.8-1.1 0-1.4-.7-1.4-1.7 0-1.5 1.5-1.6 2.6-1.6 0-.7 0-1.4-.8-1.4-.5 0-.8.4-.8.9h-.9c0-1.1.6-1.5 1.7-1.5 1.3 0 1.6.7 1.6 1.5v2.4c0 .4 0 .8.1 1.2h-.9v-.6zm-1.8-.8c0 .5.2.9.8.9.5 0 1.1-.3 1-1.9-.8 0-1.8 0-1.8 1zM268.1 149.8c-1.1 0-1.8-.5-1.7-1.6h.9c0 .3 0 1 .8 1 .5 0 .9-.2.9-.8 0-.9-2.5-.9-2.5-2.4 0-.5.3-1.4 1.7-1.4.9 0 1.7.4 1.6 1.4h-.9c0-.5-.3-.8-.8-.8-.4 0-.8.2-.8.7 0 .9 2.5.9 2.5 2.4 0 1.1-.7 1.5-1.7 1.5zM271.9 145.3c.3-.5.7-.7 1.2-.7.8 0 1.6.3 1.6 2.5 0 1.3 0 2.7-1.7 2.7-.5 0-.8-.2-1.1-.6v2.4h-.8v-7h.8v.7zm1.9 1.8c0-.8 0-1.9-1-1.9s-.9 1.4-.9 2.2c0 .7 0 1.7 1 1.7.8 0 .9-.6.9-2zM276.8 147.5c0 1.4.4 1.7 1 1.7s.8-.4.9-1h.9c0 1.1-.7 1.6-1.8 1.6s-1.9-.3-1.9-2.5c0-1.5.2-2.7 1.9-2.7 1.4 0 1.8.8 1.8 2.5v.4h-2.8zm2-.7c0-1.5-.4-1.6-1-1.6-.5 0-.9.2-1 1.6h2zM283.6 146.3c0-.8-.4-1-.7-1-.6 0-1.1.3-1.1 1.7 0 1.6.2 2.2 1.1 2.2.2 0 .8-.2.7-1.1h.9c0 1.4-1 1.8-1.6 1.8-1.1 0-1.9-.3-1.9-2.5 0-1.5.2-2.7 1.9-2.7 1 0 1.6.6 1.5 1.7h-.8zM285.9 142.5h.9v.9h-.9v-.9zm.9 7.2h-.8v-5h.8v5zM290.8 149c-.3.6-.7.8-1.3.8-1.1 0-1.4-.7-1.4-1.7 0-1.5 1.5-1.6 2.6-1.6 0-.7 0-1.4-.8-1.4-.5 0-.8.4-.8.9h-.9c0-1.1.6-1.5 1.7-1.5 1.3 0 1.6.7 1.6 1.5v2.4c0 .4 0 .8.1 1.2h-.9v-.6zm-1.8-.8c0 .5.2.9.8.9.5 0 1.1-.3 1-1.9-.8 0-1.8 0-1.8 1zM294 149.7h-.8v-7.2h.8v7.2zM298.6 149.7h-.8v-7.2h.8v2.7c.3-.4.6-.6 1.1-.6 1.6 0 1.7 1.4 1.7 2.7 0 2.2-.8 2.5-1.6 2.5-.5 0-.9-.2-1.2-.7v.6zm.9-.6c1 0 1-1.1 1-1.9 0-1.3-.1-2-1-2s-1 1.1-1 1.7c.1.9 0 2.2 1 2.2zM303.5 145.4c.4-.8.8-.9 1.6-.9v.8h-.4c-.9 0-1.1.7-1.1 1.4v3h-.8v-5h.8v.7zM308.6 149c-.3.6-.7.8-1.3.8-1.1 0-1.4-.7-1.4-1.7 0-1.5 1.5-1.6 2.6-1.6 0-.7 0-1.4-.8-1.4-.5 0-.8.4-.8.9h-.9c0-1.1.6-1.5 1.7-1.5 1.3 0 1.6.7 1.6 1.5v2.4c0 .4 0 .8.1 1.2h-.9v-.6zm-1.9-.8c0 .5.2.9.8.9.5 0 1.1-.3 1-1.9-.7 0-1.8 0-1.8 1zM310.9 142.5h.9v.9h-.9v-.9zm.9 7.2h-.8v-5h.8v5zM316 149.7v-3.5c0-.5-.2-1-.9-1-.9 0-1 .8-1 1.5v3h-.8v-4c0-.3 0-.7-.1-1h.9v.6c.3-.6.7-.7 1.3-.7 1.1 0 1.3.6 1.3 1.6v3.5h-.7zM320.5 144.7v-1l.8-.4v1.3h1.1v.6h-1.1v3.1c0 .3 0 .7.8.7h.4v.6c-.3 0-.5.1-.8.1-.8 0-1.1-.3-1.1-.9v-3.6h-.8v-.6h.7zM324 147.5c0 1.4.4 1.7 1 1.7s.8-.4.9-1h.9c0 1.1-.7 1.6-1.8 1.6s-1.9-.3-1.9-2.5c0-1.5.2-2.7 1.9-2.7 1.4 0 1.8.8 1.8 2.5v.4H324zm2-.7c0-1.5-.4-1.6-1-1.6-.5 0-.9.2-1 1.6h2zM329.7 149.8c-1.1 0-1.8-.5-1.7-1.6h.9c0 .3 0 1 .8 1 .5 0 .9-.2.9-.8 0-.9-2.5-.9-2.5-2.4 0-.5.3-1.4 1.7-1.4.9 0 1.7.4 1.6 1.4h-.9c0-.5-.3-.8-.8-.8-.4 0-.8.2-.8.7 0 .9 2.5.9 2.5 2.4.1 1.1-.7 1.5-1.7 1.5zM332.7 144.7v-1l.8-.4v1.3h1.1v.6h-1.1v3.1c0 .3 0 .7.8.7h.4v.6c-.3 0-.5.1-.8.1-.8 0-1.1-.3-1.1-.9v-3.6h-.8v-.6h.7zM336.3 149.7h-.9v-1h.9v1zM123.5 154.5v.8h-1.9v6.4h-.9v-6.4h-1.9v-.8h4.7zM127.1 161.7v-3.4c0-.6-.2-1.1-.9-1.1-.8 0-1 .7-1 1.5v3h-.8v-7.2h.8v2.8c.3-.6.7-.7 1.4-.7.9 0 1.3.4 1.3 1.6v3.6h-.8zM130.2 159.5c0 1.4.4 1.7 1 1.7s.8-.4.9-1h.9c0 1.1-.7 1.6-1.8 1.6s-1.9-.3-1.9-2.5c0-1.5.2-2.7 1.9-2.7 1.4 0 1.8.8 1.8 2.5v.4h-2.8zm2-.7c0-1.5-.4-1.6-1-1.6-.5 0-.9.2-1 1.6h2zM137.5 157.4c.4-.8.8-.9 1.6-.9v.8h-.4c-.9 0-1.1.7-1.1 1.4v3h-.8v-5h.8v.7zM140.8 159.5c0 1.4.4 1.7 1 1.7s.8-.4.9-1h.9c0 1.1-.7 1.6-1.8 1.6s-1.9-.3-1.9-2.5c0-1.5.2-2.7 1.9-2.7 1.4 0 1.8.8 1.8 2.5v.4h-2.8zm1.9-.7c0-1.5-.4-1.6-1-1.6-.5 0-.9.2-1 1.6h2zM146.4 161.8c-1.1 0-1.8-.5-1.7-1.6h.9c0 .3 0 1 .8 1 .5 0 .9-.2.9-.8 0-.9-2.5-.9-2.5-2.4 0-.5.3-1.4 1.7-1.4.9 0 1.7.4 1.6 1.4h-.9c0-.5-.3-.8-.8-.8-.4 0-.8.2-.8.7 0 .9 2.5.9 2.5 2.4.1 1.1-.7 1.5-1.7 1.5zM152.1 156.7h.8v5h-.9v-.6c-.3.5-.7.7-1.3.7-.9 0-1.4-.4-1.4-1.3v-3.8h.8v3.5c0 .6.3 1 .9 1 .4 0 1-.3 1-1.2v-3.3zM155.2 161.7h-.8v-7.2h.8v7.2zM156.7 156.7v-1l.8-.4v1.3h1.1v.6h-1.1v3.1c0 .3 0 .7.8.7h.4v.6c-.3 0-.5.1-.8.1-.8 0-1.1-.3-1.1-.9v-3.6h-.8v-.6h.7zM160.9 161.8c-1.1 0-1.8-.5-1.7-1.6h.9c0 .3 0 1 .8 1 .5 0 .9-.2.9-.8 0-.9-2.5-.9-2.5-2.4 0-.5.3-1.4 1.7-1.4.9 0 1.7.4 1.6 1.4h-.9c0-.5-.3-.8-.8-.8-.4 0-.8.2-.8.7 0 .9 2.5.9 2.5 2.4 0 1.1-.7 1.5-1.7 1.5zM167.5 161.8c-1.1 0-1.8-.5-1.7-1.6h.9c0 .3 0 1 .8 1 .5 0 .9-.2.9-.8 0-.9-2.5-.9-2.5-2.4 0-.5.3-1.4 1.7-1.4.9 0 1.7.4 1.6 1.4h-.9c0-.5-.3-.8-.8-.8-.4 0-.8.2-.8.7 0 .9 2.5.9 2.5 2.4.1 1.1-.7 1.5-1.7 1.5zM173.2 161.7v-3.4c0-.6-.2-1.1-.9-1.1-.8 0-1 .7-1 1.5v3h-.8v-7.2h.8v2.8c.3-.6.7-.7 1.4-.7.9 0 1.3.4 1.3 1.6v3.6h-.8zM175.4 159.3c0-1.5.2-2.7 1.9-2.7s1.9 1.2 1.9 2.7c0 2.2-.8 2.5-1.9 2.5s-1.9-.3-1.9-2.5zm2.9-.4c0-1.4-.4-1.7-1.1-1.7-.6 0-1.1.3-1.1 1.7 0 1.6.2 2.2 1.1 2.2s1.1-.5 1.1-2.2zM179.9 156.7h.9l.9 4.3 1.1-4.3h1.2l1 4.3 1-4.3h.9l-1.3 5h-1.1l-1.1-4.3-1.1 4.3h-1.1l-1.3-5zM188.5 159.5c0 1.4.4 1.7 1 1.7s.8-.4.9-1h.9c0 1.1-.7 1.6-1.8 1.6s-1.9-.3-1.9-2.5c0-1.5.2-2.7 1.9-2.7 1.4 0 1.8.8 1.8 2.5v.4h-2.8zm2-.7c0-1.5-.4-1.6-1-1.6-.5 0-.9.2-1 1.6h2zM195.4 154.5h.8v7.2h-.8v-.6c-.3.5-.6.7-1.2.7-.8 0-1.6-.3-1.6-2.5 0-1.3 0-2.7 1.7-2.7.5 0 .8.2 1.1.6v-2.7zm-1 2.7c-.9 0-1 .7-1 2 0 .8 0 1.9 1 1.9.9 0 .9-1.1.9-2.2.1-.6 0-1.7-.9-1.7zM200 156.7v-1l.8-.4v1.3h1.1v.6h-1.1v3.1c0 .3 0 .7.8.7h.4v.6c-.3 0-.5.1-.8.1-.8 0-1.1-.3-1.1-.9v-3.6h-.8v-.6h.7zM205.5 161.7v-3.4c0-.6-.2-1.1-.9-1.1-.8 0-1 .7-1 1.5v3h-.8v-7.2h.8v2.8c.3-.6.7-.7 1.4-.7.9 0 1.3.4 1.3 1.6v3.6h-.8zM210.3 161c-.3.6-.7.8-1.3.8-1.1 0-1.4-.7-1.4-1.7 0-1.5 1.5-1.6 2.6-1.6 0-.7 0-1.4-.8-1.4-.5 0-.8.4-.8.9h-.9c0-1.1.6-1.5 1.7-1.5 1.3 0 1.6.7 1.6 1.5v2.4c0 .4 0 .8.1 1.2h-.9v-.6zm-1.8-.8c0 .5.2.9.8.9.5 0 1.1-.3 1-1.9-.8 0-1.8 0-1.8 1zM212.8 156.7v-1l.8-.4v1.3h1.1v.6h-1.1v3.1c0 .3 0 .7.8.7h.4v.6c-.3 0-.5.1-.8.1-.8 0-1.1-.3-1.1-.9v-3.6h-.9v-.6h.8zM216.4 157.7h-.9v-1h.9v1zm0 4h-.9v-1h.9v1z"/><g><path class="st1" d="M158.9 175.8c16.9 5.4 50.6 7.6 73 8.9 3.6.2 13.3-.2 14.2 3.3.5 1.9-6.6 3.4-5.8 5.2 1 2 6.5-1.4 8.7-1.6 2.8-.3 8.4-.6 11.1 0 .9.2 2.9.9 3.5 1.6 1.5 2.1.4 7.8 1 10.3.5 2 .9 7 2.9 7.6 3.3 1.1 8.3-6.6 11.5-7.8 1.9-.7 7.6-1 6.8-4.7-.8-3.7 9.8-5 12.4-7.6 2.1-2.1.3-10.3 3.1-11.3 2.9-1 5.9 4.1 8.7 8.7 0 0-8.1 6.7-8 9.9 0 .5.5 1.2 1.1 1.9 1.3 1.5 1.1 3.8-.6 4.9-2.9 1.8-6.7 4.5-7.7 6.3-1.7 3-2.2 10.4-1.6 13.8.4 2.4 3 6.5-.2 9.7s-9.6 10.6-12.2 13.2c-2.6 2.6 2.3 11.1 4.3 16.3 2.1 5.2 5.2 17.1-.6 11.3-5.8-5.8-8.5-15.6-13.6-18.1-2.5-1.2-8.4.8-11.1 1-2.4.2-8.7-1.4-9.5.8-.5 1.4 4.6 2.8 4.1 4.1-.6 1.6-4.9.7-6.6.6-2.6-.1-7.7-2-10.3-1.9-4.8.3-3.4 7.4-12.2 14.9-1.1 1-4.7.8-6 0-3.7-2.5-6.2-15.8-8.9-15.8s-3.5 3.1-4.9 3.3c-1.6.2-3.9-2.8-4.9-3.9-1.7-1.9-3.4-7.1-5.6-8.5-1.1-.7-4.1-1.3-5.2-.6-.5.3-.3 2-.8 2.3-2.1 1.2-7.4-1.1-9.7-1.9-2.8-.9-9.3-2.6-10.7-5.2-.3-.5.5-1.7.2-2.1-1.4-1.7-7 .6-8.7-.8-1.1-.9-.7-3-2.7-4.9s-5.8-4.4-7-6.4c-1-1.6-1.6-5.6-2.1-7.4-1.4-5.5-3.5-15.7-1-22.7s5.2-12.5 6-16.9c.4-2.4-2.2-8.8 0-9.7 1.6-.7 3.3 5.5 4.9 4.9 1.3-.5-.4-5.4.7-5z"/><path class="st2" d="M280.1 250.3l-70-30.1c-1.1-.5-2.3.1-2.8 1.1L195 251.9l27.3-68"/><path class="st3" d="M168.3 204.5c0 .4.1 1.7 1.6 1.7 1 0 1.6-.7 1.6-1.7 0-1.9-1.8-1.9-3.1-1.9v-2.1c1.3 0 3.1-.1 3.1-1.9 0-1-.7-1.5-1.5-1.5s-1.5.5-1.5 1.6h-2.8c.1-.6.1-1.4.7-2.1.8-1 2.2-1.4 3.5-1.4 3.2 0 4.2 2.1 4.2 3.4 0 2.1-1.9 2.7-2.4 2.8.4.1.9.3 1.5.8.9.7 1 1.7 1 2.3 0 2.1-1.9 3.7-4.6 3.7-.9 0-2.2-.2-3-.8-1.1-.9-1.2-2.3-1.2-2.8h2.9zM175.9 195.3h8.5v2.2l-4.3 10.3h-3l4.6-10.5h-5.8v-2zM189.1 194.2c2.5 0 2.9 1.6 2.9 3.3 0 .9 0 3.6-3.1 3.6-2.1 0-2.9-1.5-2.9-3.4.1-1 .1-3.5 3.1-3.5zm0 5.4c.6 0 1-.4 1-2.1 0-.7-.1-1.9-1-1.9-1.1 0-1.1 1.5-1.1 2 .1 1.4.3 2 1.1 2zm8.2-5.6l-6.8 14.1h-1.4l6.8-14.1h1.4zm.1 7.2c2.5 0 2.9 1.6 2.9 3.3 0 .9 0 3.6-3.1 3.6-2.1 0-2.9-1.5-2.9-3.4.1-1 .1-3.5 3.1-3.5zm-.1 5.4c.6 0 1-.4 1-2.1 0-.7-.1-1.9-1-1.9-1.1 0-1.1 1.4-1.1 2 .1 1.3.4 2 1.1 2z"/><g><path class="st4" d="M224.7 248.7l2.2-2c.4-.3.8-.7 1.3-1.3.5-.6.6-.8.6-1.2 0-.6-.4-1.1-1-1.1-1 0-1 1-1.1 1.2h-1.8c0-.3 0-1 .5-1.6.5-.6 1.4-.9 2.4-.9 1.8 0 2.8 1 2.8 2.3 0 .9-.3 2-4 4.9h4v1.4h-5.9v-1.7zM233.3 248.3c0 .5.4.8.9.8 1.2 0 1.3-1.3 1.3-2.4-.6.5-1.1.6-1.5.6-2.1 0-2.6-1.6-2.6-2.6 0-1.6 1.1-2.7 3-2.7 2.9 0 3 2.7 3 4.1 0 3.5-1.2 4.5-3.2 4.5-.5 0-2.6 0-2.6-2.2h1.7zm2.1-3.8c0-.7-.4-1.3-1.1-1.3-.9 0-1.2.7-1.2 1.3 0 .3.1 1.3 1.1 1.3 1 .1 1.2-.7 1.2-1.3zM240.4 241.2c1.7 0 2 1.1 2 2.2 0 .6 0 2.4-2 2.4-1.4 0-1.9-1-1.9-2.3-.1-.6-.1-2.3 1.9-2.3zm-.1 3.6c.4 0 .7-.3.7-1.4 0-.5 0-1.3-.6-1.3-.7 0-.7 1-.7 1.3 0 1 .1 1.4.6 1.4zm5.5-3.7l-4.6 9.4h-.9l4.6-9.4h.9zm.1 4.8c1.7 0 2 1.1 2 2.2 0 .6 0 2.4-2.1 2.4-1.4 0-1.9-1-1.9-2.3 0-.7 0-2.3 2-2.3zm-.1 3.6c.4 0 .7-.3.7-1.4 0-.5 0-1.3-.7-1.3s-.7 1-.7 1.3c.1.9.2 1.4.7 1.4z"/></g><g><path class="st4" d="M254.1 221.7c0 .3.1 1.1 1.1 1.1.7 0 1.1-.5 1.1-1.1 0-1.2-1.2-1.2-2.1-1.2V219c.8 0 2.1 0 2.1-1.2 0-.7-.5-1-1-1s-1 .3-1 1h-1.8c0-.4.1-.9.5-1.4.6-.7 1.4-.9 2.3-.9 2.1 0 2.8 1.4 2.8 2.3 0 1.4-1.2 1.8-1.6 1.9.3.1.6.2 1 .5.6.5.7 1.1.7 1.5 0 1.4-1.3 2.5-3 2.5-.6 0-1.5-.1-2-.6-.7-.6-.8-1.6-.8-1.9h1.7zM258.9 222.1v-1.6l3.4-4.9h1.8v5.2h1.1v1.4H264v1.8h-1.8v-1.8h-3.3zm1.3-1.3h2.1v-2.2-.9l-2.1 3.1zM268 214.8c1.7 0 2 1.1 2 2.2 0 .6 0 2.4-2 2.4-1.4 0-1.9-1-1.9-2.3-.1-.6-.1-2.3 1.9-2.3zm-.1 3.6c.4 0 .7-.3.7-1.4 0-.5 0-1.3-.6-1.3-.7 0-.7 1-.7 1.3-.1 1 .1 1.4.6 1.4zm5.5-3.7l-4.6 9.4h-.9l4.6-9.4h.9zm.1 4.7c1.7 0 2 1.1 2 2.2 0 .6 0 2.4-2.1 2.4-1.4 0-1.9-1-1.9-2.3 0-.6 0-2.3 2-2.3zm-.1 3.7c.4 0 .7-.3.7-1.4 0-.5 0-1.3-.7-1.3s-.7 1-.7 1.3c.1.9.2 1.4.7 1.4z"/></g></g><path class="st5" d="M165.2 211l-31.3 31.3"/><g><path class="st0" d="M107 248.4c0-1.2.1-2.2 1.5-2.2s1.5 1 1.5 2.2c0 1.8-.7 2-1.5 2s-1.5-.2-1.5-2zm2.4-.3c0-1.1-.3-1.3-.8-1.3s-.8.2-.8 1.3c0 1.3.2 1.8.8 1.8s.8-.5.8-1.8zM111.2 246.3v-.8c0-.8.6-1 1.2-1h.3v.5c-.7 0-.8.2-.8.6v.7h.8v.5h-.8v3.5h-.7v-3.5h-.6v-.5h.6zM116.5 244.6h.9l1.9 5.8h-.8l-.4-1.4h-2.2l-.4 1.4h-.7l1.7-5.8zm.4.6l-.9 3.1h1.8l-.9-3.1zM122 250.3v-2.8c0-.4-.1-.8-.6-.8-.2 0-.5.1-.6.3-.1.2-.2.4-.2.6v2.7h-.6v-3.2-.8h.7v.5c.2-.4.5-.6 1-.6.4 0 .8.2.9.5.2-.4.6-.5 1-.5s1.1.1 1.1 1v3.1h-.7v-2.8c0-.4-.1-.8-.6-.8-.2 0-.3 0-.5.2s-.2.6-.2.7v2.7h-.7zM126.4 248.5c0 1.1.3 1.4.8 1.4.4 0 .7-.4.7-.8h.7c0 .9-.6 1.3-1.4 1.3-.9 0-1.5-.3-1.5-2 0-1.2.1-2.2 1.5-2.2 1.2 0 1.4.6 1.4 2v.3h-2.2zm1.6-.5c0-1.2-.3-1.3-.8-1.3-.4 0-.8.2-.8 1.3h1.6zM130.5 246.9c.3-.6.6-.7 1.3-.7v.7h-.4c-.7 0-.9.6-.9 1.1v2.4h-.7v-4h.7v.5zM132.4 244.6h.7v.7h-.7v-.7zm.7 5.7h-.7v-4h.7v4zM136.3 247.6c0-.7-.3-.8-.6-.8-.5 0-.8.2-.8 1.3 0 1.3.2 1.8.8 1.8.2 0 .6-.2.6-.9h.7c0 1.1-.8 1.4-1.3 1.4-.9 0-1.5-.3-1.5-2 0-1.2.1-2.2 1.5-2.2.8 0 1.3.5 1.2 1.4h-.6zM140.3 249.8c-.2.5-.5.7-1 .7-.9 0-1.1-.6-1.1-1.3 0-1.2 1.2-1.3 2.1-1.3 0-.5 0-1.1-.7-1.1-.4 0-.7.3-.6.7h-.7c0-.9.5-1.2 1.4-1.2 1 0 1.3.5 1.3 1.2v1.9c0 .3 0 .6.1 1h-.7v-.6zm-1.5-.7c0 .4.2.7.6.7.4 0 .9-.2.8-1.6-.5.1-1.4.1-1.4.9zM144.4 250.3v-2.8c0-.4-.2-.8-.7-.8-.7 0-.8.6-.8 1.2v2.4h-.7v-3.2-.8h.7v.5c.3-.5.6-.6 1.1-.6.9 0 1.1.5 1.1 1.3v2.8h-.7zM147.4 250.4c-.9 0-1.4-.4-1.4-1.3h.7c0 .2 0 .8.7.8.4 0 .7-.2.7-.6 0-.7-2-.7-2-1.9 0-.4.3-1.1 1.4-1.1.7 0 1.3.3 1.3 1.1h-.7c0-.4-.2-.6-.6-.6-.4 0-.6.2-.6.5 0 .7 2 .7 2 1.9-.1.9-.7 1.2-1.5 1.2zM109.2 259.4c-.2.5-.5.7-1 .7-.9 0-1.1-.6-1.1-1.3 0-1.2 1.2-1.3 2.1-1.3 0-.5 0-1.1-.7-1.1-.4 0-.7.3-.6.7h-.7c0-.9.5-1.2 1.4-1.2 1 0 1.3.5 1.3 1.2v1.9c0 .3 0 .6.1 1h-.7v-.6zm-1.5-.7c0 .4.2.7.6.7.4 0 .9-.2.8-1.6-.5.1-1.4.1-1.4.9zM111.8 256.5c.3-.6.6-.7 1.3-.7v.7h-.4c-.7 0-.9.6-.9 1.1v2.4h-.7v-4h.7v.5zM114.4 258.1c0 1.1.3 1.4.8 1.4.4 0 .7-.4.7-.8h.7c0 .9-.6 1.3-1.4 1.3-.9 0-1.5-.3-1.5-2 0-1.2.1-2.2 1.5-2.2 1.2 0 1.4.6 1.4 2v.3h-2.2zm1.6-.5c0-1.2-.3-1.3-.8-1.3-.4 0-.8.2-.8 1.3h1.6zM120.2 259.9h-.7v-5.8h.7v5.8zM122 258.1c0 1.1.3 1.4.8 1.4.4 0 .7-.4.7-.8h.7c0 .9-.6 1.3-1.4 1.3-.9 0-1.5-.3-1.5-2 0-1.2.1-2.2 1.5-2.2 1.2 0 1.4.6 1.4 2v.3H122zm1.5-.5c0-1.2-.3-1.3-.8-1.3-.4 0-.8.2-.8 1.3h1.6zM125.5 255.9v-.8c0-.8.6-1 1.2-1h.3v.5c-.7 0-.8.2-.8.6v.7h.8v.5h-.8v3.5h-.7v-3.5h-.6v-.5h.6z"/><path class="st0" d="M127.6 255.9v-.8l.7-.3v1.1h.9v.5h-.9v2.5c0 .3 0 .6.6.6h.3v.5c-.2 0-.4.1-.6.1-.6 0-.9-.3-.9-.7v-2.9h-.7v-.5h.6zM129.7 257.5h1.8v.6h-1.8v-.6zM133.2 259.9h-.7v-5.8h.7v2.1c.2-.3.5-.5.9-.5 1.3 0 1.3 1.2 1.3 2.2 0 1.8-.7 2-1.3 2-.4 0-.7-.2-.9-.6v.6zm.7-.4c.8 0 .8-.9.8-1.5 0-1.1-.1-1.6-.8-1.6-.7 0-.8.9-.8 1.4.1.6 0 1.7.8 1.7zM137.1 256.5c.3-.6.6-.7 1.3-.7v.7h-.4c-.7 0-.9.6-.9 1.1v2.4h-.7v-4h.7v.5zM141.2 259.4c-.2.5-.5.7-1 .7-.9 0-1.1-.6-1.1-1.3 0-1.2 1.2-1.3 2.1-1.3 0-.5 0-1.1-.7-1.1-.4 0-.7.3-.6.7h-.7c0-.9.5-1.2 1.4-1.2 1 0 1.3.5 1.3 1.2v1.9c0 .3 0 .6.1 1h-.7v-.6zm-1.5-.7c0 .4.2.7.6.7.4 0 .9-.2.8-1.6-.6.1-1.4.1-1.4.9zM143.1 254.2h.7v.7h-.7v-.7zm.6 5.7h-.7v-4h.7v4zM147.1 259.9v-2.8c0-.4-.2-.8-.7-.8-.7 0-.8.6-.8 1.2v2.4h-.7v-3.2-.8h.7v.5c.3-.5.6-.6 1.1-.6.9 0 1.1.5 1.1 1.3v2.8h-.7zM149.5 258.1c0 1.1.3 1.4.8 1.4.4 0 .7-.4.7-.8h.7c0 .9-.6 1.3-1.4 1.3-.9 0-1.5-.3-1.5-2 0-1.2.1-2.2 1.5-2.2 1.2 0 1.4.6 1.4 2v.3h-2.2zm1.6-.5c0-1.2-.3-1.3-.8-1.3-.4 0-.8.2-.8 1.3h1.6zM155 254.2h.7v5.8h-.7v-.5c-.2.4-.5.6-.9.6-.6 0-1.3-.3-1.3-2 0-1 0-2.2 1.3-2.2.4 0 .7.2.9.5v-2.2zm-.7 2.2c-.7 0-.8.6-.8 1.6 0 .6 0 1.5.8 1.5.7 0 .7-.9.7-1.7 0-.6 0-1.4-.7-1.4z"/></g><g><path class="st0" d="M194.7 285.9c-.2.5-.5.7-1 .7-.9 0-1.1-.6-1.1-1.3 0-1.2 1.2-1.3 2.1-1.3 0-.5 0-1.1-.7-1.1-.4 0-.7.3-.6.7h-.7c0-.9.5-1.2 1.4-1.2 1 0 1.3.5 1.3 1.2v1.9c0 .3 0 .6.1 1h-.7v-.6zm-1.5-.6c0 .4.2.7.6.7.4 0 .9-.2.8-1.6-.6.1-1.4 0-1.4.9zM197.3 283c.3-.6.6-.7 1.3-.7v.7h-.4c-.7 0-.9.6-.9 1.1v2.4h-.7v-4h.7v.5zM199.9 284.7c0 1.1.3 1.4.8 1.4.4 0 .7-.4.7-.8h.7c0 .9-.6 1.3-1.4 1.3-.9 0-1.5-.3-1.5-2 0-1.2.1-2.2 1.5-2.2 1.2 0 1.4.6 1.4 2v.3h-2.2zm1.6-.5c0-1.2-.3-1.3-.8-1.3-.4 0-.8.2-.8 1.3h1.6zM205.7 283c.3-.6.6-.7 1.3-.7v.7h-.4c-.7 0-.9.6-.9 1.1v2.4h-.7v-4h.7v.5zM207.6 280.7h.7v.7h-.7v-.7zm.7 5.8h-.7v-4h.7v4zM211.6 282.4h.7v4.4c0 .9-.6 1.1-1.5 1.1-.7 0-1.3-.3-1.2-1.1h.7c0 .4.3.6.6.6.5 0 .7-.3.7-.7v-.7c-.2.3-.5.5-.9.5-1.1 0-1.3-.9-1.3-2.1 0-1.9.9-2 1.3-2s.8.2.9.6v-.6zm-.8.5c-.7 0-.8.9-.8 1.4 0 1.3.3 1.6.8 1.6.8 0 .8-.9.8-1.5s.1-1.5-.8-1.5zM215.7 286.5v-2.7c0-.5-.2-.8-.7-.8-.7 0-.8.5-.8 1.2v2.4h-.7v-5.8h.7v2.3c.3-.5.6-.6 1.1-.6.7 0 1.1.3 1.1 1.3v2.9h-.7zM217.5 282.4v-.8l.7-.3v1.1h.9v.5h-.9v2.5c0 .3 0 .6.6.6h.3v.5c-.2 0-.4.1-.6.1-.6 0-.9-.3-.9-.7V283h-.7v-.5h.6zM219.6 284h1.8v.6h-1.8v-.6zM223.1 286.5h-.7v-5.8h.7v2.1c.2-.3.5-.5.9-.5 1.3 0 1.3 1.2 1.3 2.2 0 1.8-.7 2-1.3 2-.4 0-.7-.2-.9-.6v.6zm.7-.5c.8 0 .8-.9.8-1.5 0-1.1-.1-1.6-.8-1.6-.7 0-.8.9-.8 1.4.1.6 0 1.7.8 1.7zM227 283c.3-.6.6-.7 1.3-.7v.7h-.4c-.7 0-.9.6-.9 1.1v2.4h-.7v-4h.7v.5zM231.1 285.9c-.2.5-.5.7-1 .7-.9 0-1.1-.6-1.1-1.3 0-1.2 1.2-1.3 2.1-1.3 0-.5 0-1.1-.7-1.1-.4 0-.7.3-.6.7h-.7c0-.9.5-1.2 1.4-1.2 1 0 1.3.5 1.3 1.2v1.9c0 .3 0 .6.1 1h-.7v-.6zm-1.5-.6c0 .4.2.7.6.7.4 0 .9-.2.8-1.6-.5.1-1.4 0-1.4.9zM233 280.7h.7v.7h-.7v-.7zm.7 5.8h-.7v-4h.7v4zM237 286.5v-2.8c0-.4-.2-.8-.7-.8-.7 0-.8.6-.8 1.2v2.4h-.7v-3.2-.8h.7v.5c.3-.5.6-.6 1.1-.6.9 0 1.1.5 1.1 1.3v2.8h-.7zM239.4 284.7c0 1.1.3 1.4.8 1.4.4 0 .7-.4.7-.8h.7c0 .9-.6 1.3-1.4 1.3-.9 0-1.5-.3-1.5-2 0-1.2.1-2.2 1.5-2.2 1.2 0 1.4.6 1.4 2v.3h-2.2zm1.6-.5c0-1.2-.3-1.3-.8-1.3-.4 0-.8.2-.8 1.3h1.6zM244.9 280.7h.7v5.8h-.7v-.5c-.2.4-.5.6-.9.6-.6 0-1.3-.3-1.3-2 0-1 0-2.2 1.3-2.2.4 0 .7.2.9.5v-2.2zm-.7 2.2c-.7 0-.8.6-.8 1.6 0 .6 0 1.5.8 1.5.7 0 .7-.9.7-1.7 0-.5 0-1.4-.7-1.4z"/></g><path class="st5" d="M217.3 244.4l-19.8 34.3M274.8 228.8l27.7 27.5"/><g><path class="st0" d="M293.3 259.8c0-1.2.1-2.2 1.5-2.2s1.5 1 1.5 2.2c0 1.8-.7 2-1.5 2s-1.5-.3-1.5-2zm2.4-.3c0-1.1-.3-1.3-.8-1.3s-.8.2-.8 1.3c0 1.3.2 1.8.8 1.8s.8-.5.8-1.8zM297.5 257.7v-.8c0-.8.6-1 1.2-1h.3v.5c-.7 0-.8.2-.8.6v.7h.8v.5h-.8v3.5h-.7v-3.5h-.6v-.5h.6zM302.1 258.2c.2-.4.5-.6.9-.6.6 0 1.3.3 1.3 2 0 1 0 2.2-1.3 2.2-.4 0-.7-.2-.9-.5v1.9h-.7v-5.6h.7v.6zm1.6 1.4c0-.6 0-1.5-.8-1.5s-.7 1.1-.7 1.7c0 .5 0 1.4.8 1.4.6.1.7-.5.7-1.6zM307.5 261.1c-.2.5-.5.7-1 .7-.9 0-1.1-.6-1.1-1.3 0-1.2 1.2-1.3 2.1-1.3 0-.5 0-1.1-.7-1.1-.4 0-.7.3-.6.7h-.7c0-.9.5-1.2 1.4-1.2 1 0 1.3.5 1.3 1.2v1.9c0 .3 0 .6.1 1h-.7v-.6zm-1.5-.6c0 .4.2.7.6.7.4 0 .9-.2.8-1.6-.6.1-1.4.1-1.4.9zM310.1 258.3c.3-.6.6-.7 1.3-.7v.7h-.4c-.7 0-.9.6-.9 1.1v2.4h-.7v-4h.7v.5zM312.1 257.7v-.8l.7-.3v1.1h.9v.5h-.9v2.5c0 .3 0 .6.6.6h.3v.5c-.2 0-.4.1-.6.1-.6 0-.9-.3-.9-.7v-2.9h-.7v-.5h.6zM314.2 255.9h.7v.7h-.7v-.7zm.7 5.8h-.7v-4h.7v4zM318.2 259c0-.7-.3-.8-.6-.8-.5 0-.8.2-.8 1.3 0 1.3.2 1.8.8 1.8.2 0 .6-.2.6-.9h.7c0 1.1-.8 1.4-1.3 1.4-.9 0-1.5-.3-1.5-2 0-1.2.1-2.2 1.5-2.2.8 0 1.3.5 1.2 1.4h-.6zM320 255.9h.7v.7h-.7v-.7zm.7 5.8h-.7v-4h.7v4zM322.6 258.2c.2-.4.5-.6.9-.6.6 0 1.3.3 1.3 2 0 1 0 2.2-1.3 2.2-.4 0-.7-.2-.9-.5v1.9h-.7v-5.6h.7v.6zm1.5 1.4c0-.6 0-1.5-.8-1.5s-.7 1.1-.7 1.7c0 .5 0 1.4.8 1.4.6.1.7-.5.7-1.6zM327.9 261.1c-.2.5-.5.7-1 .7-.9 0-1.1-.6-1.1-1.3 0-1.2 1.2-1.3 2.1-1.3 0-.5 0-1.1-.7-1.1-.4 0-.7.3-.6.7h-.7c0-.9.5-1.2 1.4-1.2 1 0 1.3.5 1.3 1.2v1.9c0 .3 0 .6.1 1h-.7v-.6zm-1.5-.6c0 .4.2.7.6.7.4 0 .9-.2.8-1.6-.5.1-1.4.1-1.4.9zM332 261.7v-2.8c0-.4-.2-.8-.7-.8-.7 0-.8.6-.8 1.2v2.4h-.7v-3.2-.8h.7v.5c.3-.5.6-.6 1.1-.6.9 0 1.1.5 1.1 1.3v2.8h-.7zM333.9 257.7v-.8l.7-.3v1.1h.9v.5h-.9v2.5c0 .3 0 .6.6.6h.3v.5c-.2 0-.4.1-.6.1-.6 0-.9-.3-.9-.7v-2.9h-.7v-.5h.6zM337.3 261.8c-.9 0-1.4-.4-1.4-1.3h.7c0 .2 0 .8.7.8.4 0 .7-.2.7-.6 0-.7-2-.7-2-1.9 0-.4.3-1.1 1.4-1.1.7 0 1.3.3 1.3 1.1h-.7c0-.4-.2-.6-.6-.6-.4 0-.6.2-.6.5 0 .7 2 .7 2 1.9-.1.9-.7 1.2-1.5 1.2zM339.7 260.9h.8l-.7 1.8h-.5l.4-1.8zM343.2 257.7v-.8l.7-.3v1.1h.9v.5h-.9v2.5c0 .3 0 .6.6.6h.3v.5c-.2 0-.4.1-.6.1-.6 0-.9-.3-.9-.7v-2.9h-.7v-.5h.6zM347.6 261.7V259c0-.5-.2-.8-.7-.8-.7 0-.8.5-.8 1.2v2.4h-.7V256h.7v2.3c.3-.5.6-.6 1.1-.6.7 0 1.1.3 1.1 1.3v2.9h-.7zM350 259.9c0 1.1.3 1.4.8 1.4.4 0 .7-.4.7-.8h.7c0 .9-.6 1.3-1.4 1.3-.9 0-1.5-.3-1.5-2 0-1.2.1-2.2 1.5-2.2 1.2 0 1.4.6 1.4 2v.3H350zm1.6-.5c0-1.2-.3-1.3-.8-1.3-.4 0-.8.2-.8 1.3h1.6zM355.2 257.7v-.8l.7-.3v1.1h.9v.5h-.9v2.5c0 .3 0 .6.6.6h.3v.5c-.2 0-.4.1-.6.1-.6 0-.9-.3-.9-.7v-2.9h-.7v-.5h.6zM356.9 257.7h.7l.7 3.5.9-3.5h.9l.8 3.5.8-3.5h.7l-1.1 4h-.9l-.9-3.4-.9 3.4h-.9l-.8-4zM363.1 259.8c0-1.2.1-2.2 1.5-2.2s1.5 1 1.5 2.2c0 1.8-.7 2-1.5 2s-1.5-.3-1.5-2zm2.3-.3c0-1.1-.3-1.3-.8-1.3s-.8.2-.8 1.3c0 1.3.2 1.8.8 1.8s.8-.5.8-1.8zM295.6 271.3v-2.7c0-.5-.2-.8-.7-.8-.7 0-.8.5-.8 1.2v2.4h-.7v-5.8h.7v2.3c.3-.5.6-.6 1.1-.6.7 0 1.1.3 1.1 1.3v2.9h-.7zM298 269.5c0 1.1.3 1.4.8 1.4.4 0 .7-.4.7-.8h.7c0 .9-.6 1.3-1.4 1.3-.9 0-1.5-.3-1.5-2 0-1.2.1-2.2 1.5-2.2 1.2 0 1.4.6 1.4 2v.3H298zm1.6-.5c0-1.2-.3-1.3-.8-1.3-.4 0-.8.2-.8 1.3h1.6zM303.4 271.3v-2.8c0-.4-.1-.8-.6-.8-.2 0-.5.1-.6.3-.1.2-.2.4-.2.6v2.7h-.7v-3.2-.8h.7v.5c.2-.4.5-.6 1-.6.4 0 .8.2.9.5.2-.4.6-.5 1-.5s1.1.1 1.1 1v3.1h-.7v-2.8c0-.4-.1-.8-.6-.8-.2 0-.3 0-.5.2s-.2.6-.2.7v2.7h-.6zM307.1 265.5h.7v.7h-.7v-.7zm.7 5.8h-.7v-4h.7v4zM310.1 271.4c-.9 0-1.4-.4-1.4-1.3h.7c0 .2 0 .8.7.8.4 0 .7-.2.7-.6 0-.7-2-.7-2-1.9 0-.4.3-1.1 1.4-1.1.7 0 1.3.3 1.3 1.1h-.7c0-.4-.2-.6-.6-.6-.4 0-.6.2-.6.5 0 .7 2 .7 2 1.9 0 .9-.7 1.2-1.5 1.2zM313.2 267.8c.2-.4.5-.6.9-.6.6 0 1.3.3 1.3 2 0 1 0 2.2-1.3 2.2-.4 0-.7-.2-.9-.5v1.9h-.7v-5.6h.7v.6zm1.6 1.4c0-.6 0-1.5-.8-1.5s-.7 1.1-.7 1.7c0 .5 0 1.4.8 1.4.6.1.7-.5.7-1.6zM318.7 271.3v-2.7c0-.5-.2-.8-.7-.8-.7 0-.8.5-.8 1.2v2.4h-.7v-5.8h.7v2.3c.3-.5.6-.6 1.1-.6.7 0 1.1.3 1.1 1.3v2.9h-.7zM321.1 269.5c0 1.1.3 1.4.8 1.4.4 0 .7-.4.7-.8h.7c0 .9-.6 1.3-1.4 1.3-.9 0-1.5-.3-1.5-2 0-1.2.1-2.2 1.5-2.2 1.2 0 1.4.6 1.4 2v.3h-2.2zm1.6-.5c0-1.2-.3-1.3-.8-1.3-.4 0-.8.2-.8 1.3h1.6zM325.2 267.9c.3-.6.6-.7 1.3-.7v.7h-.4c-.7 0-.9.6-.9 1.1v2.4h-.7v-4h.7v.5zM327.8 269.5c0 1.1.3 1.4.8 1.4.4 0 .7-.4.7-.8h.7c0 .9-.6 1.3-1.4 1.3-.9 0-1.5-.3-1.5-2 0-1.2.1-2.2 1.5-2.2 1.2 0 1.4.6 1.4 2v.3h-2.2zm1.6-.5c0-1.2-.3-1.3-.8-1.3-.4 0-.8.2-.8 1.3h1.6zM332.4 271.4c-.9 0-1.4-.4-1.4-1.3h.7c0 .2 0 .8.7.8.4 0 .7-.2.7-.6 0-.7-2-.7-2-1.9 0-.4.3-1.1 1.4-1.1.7 0 1.3.3 1.3 1.1h-.8c0-.4-.2-.6-.6-.6-.4 0-.6.2-.6.5 0 .7 2 .7 2 1.9 0 .9-.6 1.2-1.4 1.2zM337.1 269.5c0 1.1.3 1.4.8 1.4.4 0 .7-.4.7-.8h.7c0 .9-.6 1.3-1.4 1.3-.9 0-1.5-.3-1.5-2 0-1.2.1-2.2 1.5-2.2 1.2 0 1.4.6 1.4 2v.3h-2.2zm1.6-.5c0-1.2-.3-1.3-.8-1.3-.4 0-.8.2-.8 1.3h1.6zM343.4 271.3h-.9l-.9-1.7-.9 1.7h-.7l1.3-2.1-1.2-1.9h.8l.8 1.4.8-1.4h.8l-1.2 1.9 1.3 2.1zM344.7 269.5c0 1.1.3 1.4.8 1.4.4 0 .7-.4.7-.8h.7c0 .9-.6 1.3-1.4 1.3-.9 0-1.5-.3-1.5-2 0-1.2.1-2.2 1.5-2.2 1.2 0 1.4.6 1.4 2v.3h-2.2zm1.6-.5c0-1.2-.3-1.3-.8-1.3-.4 0-.8.2-.8 1.3h1.6zM348.7 267.9c.3-.6.6-.7 1.3-.7v.7h-.4c-.7 0-.9.6-.9 1.1v2.4h-.7v-4h.7v.5zM350.8 267.3v-.8l.7-.3v1.1h.9v.5h-.9v2.5c0 .3 0 .6.6.6h.3v.5c-.2 0-.4.1-.6.1-.6 0-.9-.3-.9-.7v-2.9h-.7v-.5h.6zM355.4 269.5c0 1.1.3 1.4.8 1.4.4 0 .7-.4.7-.8h.7c0 .9-.6 1.3-1.4 1.3-.9 0-1.5-.3-1.5-2 0-1.2.1-2.2 1.5-2.2 1.2 0 1.4.6 1.4 2v.3h-2.2zm1.5-.5c0-1.2-.3-1.3-.8-1.3-.4 0-.8.2-.8 1.3h1.6zM360.8 267.3h.7v5.6h-.7V271c-.2.3-.5.5-.9.5-1.3 0-1.3-1.2-1.3-2.2 0-1.8.7-2 1.3-2 .4 0 .7.2.9.6v-.6zm0 2.2c0-.6.1-1.7-.7-1.7-.8 0-.8.9-.8 1.5 0 1.1.1 1.6.8 1.6.7 0 .7-.9.7-1.4zM364.9 267.3h.7v4h-.7v-.5c-.2.4-.6.6-1 .6-.7 0-1.1-.4-1.1-1v-3.1h.7v2.8c0 .5.2.8.7.8.4 0 .8-.3.8-.9v-2.7zM368.8 270.7c-.2.5-.5.7-1 .7-.9 0-1.1-.6-1.1-1.3 0-1.2 1.2-1.3 2.1-1.3 0-.5 0-1.1-.7-1.1-.4 0-.7.3-.6.7h-.7c0-.9.5-1.2 1.4-1.2 1 0 1.3.5 1.3 1.2v1.9c0 .3 0 .6.1 1h-.7v-.6zm-1.5-.6c0 .4.2.7.6.7.4 0 .9-.2.8-1.6-.5.1-1.4.1-1.4.9zM371.4 271.3h-.7v-5.8h.7v5.8zM293.3 275.1h.7v.7h-.7v-.7zm.7 5.8h-.7v-4h.7v4zM297.4 280.9v-2.8c0-.4-.2-.8-.7-.8-.7 0-.8.6-.8 1.2v2.4h-.7v-3.2-.8h.7v.5c.3-.5.6-.6 1.1-.6.9 0 1.1.5 1.1 1.3v2.8h-.7zM299.3 276.9v-.8c0-.8.6-1 1.2-1h.3v.5c-.7 0-.8.2-.8.6v.7h.8v.5h-.8v3.5h-.7v-3.5h-.6v-.5h.6zm2.7 4h-.7v-5.8h.7v5.8zM305.3 276.9h.7v4h-.7v-.5c-.2.4-.6.6-1 .6-.7 0-1.1-.4-1.1-1v-3.1h.7v2.8c0 .5.2.8.7.8.4 0 .8-.3.8-.9v-2.7zM307.8 279.1c0 1.1.3 1.4.8 1.4.4 0 .7-.4.7-.8h.7c0 .9-.6 1.3-1.4 1.3-.9 0-1.5-.3-1.5-2 0-1.2.1-2.2 1.5-2.2 1.2 0 1.4.6 1.4 2v.3h-2.2zm1.6-.5c0-1.2-.3-1.3-.8-1.3-.4 0-.8.2-.8 1.3h1.6zM313.4 280.9v-2.8c0-.4-.2-.8-.7-.8-.7 0-.8.6-.8 1.2v2.4h-.7v-3.2-.8h.7v.5c.3-.5.6-.6 1.1-.6.9 0 1.1.5 1.1 1.3v2.8h-.7zM317.3 278.2c0-.7-.3-.8-.6-.8-.5 0-.8.2-.8 1.3 0 1.3.2 1.8.8 1.8.2 0 .6-.2.6-.9h.7c0 1.1-.8 1.4-1.3 1.4-.9 0-1.5-.3-1.5-2 0-1.2.1-2.2 1.5-2.2.8 0 1.3.5 1.2 1.4h-.6zM319.8 279.1c0 1.1.3 1.4.8 1.4.4 0 .7-.4.7-.8h.7c0 .9-.6 1.3-1.4 1.3-.9 0-1.5-.3-1.5-2 0-1.2.1-2.2 1.5-2.2 1.2 0 1.4.6 1.4 2v.3h-2.2zm1.6-.5c0-1.2-.3-1.3-.8-1.3-.4 0-.8.2-.8 1.3h1.6zM324.8 279c0-1.2.1-2.2 1.5-2.2s1.5 1 1.5 2.2c0 1.8-.7 2-1.5 2s-1.5-.3-1.5-2zm2.4-.3c0-1.1-.3-1.3-.8-1.3s-.8.2-.8 1.3c0 1.3.2 1.8.8 1.8s.8-.5.8-1.8zM331.1 280.9v-2.8c0-.4-.2-.8-.7-.8-.7 0-.8.6-.8 1.2v2.4h-.6v-3.2-.8h.7v.5c.3-.5.6-.6 1.1-.6.9 0 1.1.5 1.1 1.3v2.8h-.8zM336.9 275.1h.7v5.8h-.7v-.5c-.2.4-.5.6-.9.6-.6 0-1.3-.3-1.3-2 0-1 0-2.2 1.3-2.2.4 0 .7.2.9.5v-2.2zm-.8 2.2c-.7 0-.8.6-.8 1.6 0 .6 0 1.5.8 1.5.7 0 .7-.9.7-1.7.1-.5 0-1.4-.7-1.4zM339.4 279.1c0 1.1.3 1.4.8 1.4.4 0 .7-.4.7-.8h.7c0 .9-.6 1.3-1.4 1.3-.9 0-1.5-.3-1.5-2 0-1.2.1-2.2 1.5-2.2 1.2 0 1.4.6 1.4 2v.3h-2.2zm1.5-.5c0-1.2-.3-1.3-.8-1.3-.4 0-.8.2-.8 1.3h1.6zM344.8 278.2c0-.7-.3-.8-.6-.8-.5 0-.8.2-.8 1.3 0 1.3.2 1.8.8 1.8.2 0 .6-.2.6-.9h.7c0 1.1-.8 1.4-1.3 1.4-.9 0-1.5-.3-1.5-2 0-1.2.1-2.2 1.5-2.2.8 0 1.3.5 1.2 1.4h-.6zM346.7 275.1h.7v.7h-.7v-.7zm.7 5.8h-.7v-4h.7v4zM349.7 281c-.9 0-1.4-.4-1.4-1.3h.7c0 .2 0 .8.7.8.4 0 .7-.2.7-.6 0-.7-2-.7-2-1.9 0-.4.3-1.1 1.4-1.1.7 0 1.3.3 1.3 1.1h-.7c0-.4-.2-.6-.6-.6-.4 0-.6.2-.6.5 0 .7 2 .7 2 1.9-.1.9-.7 1.2-1.5 1.2zM352 275.1h.7v.7h-.7v-.7zm.7 5.8h-.7v-4h.7v4zM353.7 279c0-1.2.1-2.2 1.5-2.2s1.5 1 1.5 2.2c0 1.8-.7 2-1.5 2s-1.5-.3-1.5-2zm2.4-.3c0-1.1-.3-1.3-.8-1.3s-.8.2-.8 1.3c0 1.3.2 1.8.8 1.8s.8-.5.8-1.8zM360 280.9v-2.8c0-.4-.2-.8-.7-.8-.7 0-.8.6-.8 1.2v2.4h-.7v-3.2-.8h.7v.5c.3-.5.6-.6 1.1-.6.9 0 1.1.5 1.1 1.3v2.8h-.7zM361.7 278.4h1.8v.6h-1.8v-.6zM366.5 280.9v-2.8c0-.4-.1-.8-.6-.8-.2 0-.5.1-.6.3-.1.2-.2.4-.2.6v2.7h-.7v-3.2-.8h.7v.5c.2-.4.5-.6 1-.6.4 0 .8.2.9.5.2-.4.6-.5 1-.5s1.1.1 1.1 1v3.1h-.7v-2.8c0-.4-.1-.8-.6-.8-.2 0-.3 0-.5.2s-.2.6-.2.7v2.7h-.6zM372.3 280.3c-.2.5-.5.7-1 .7-.9 0-1.1-.6-1.1-1.3 0-1.2 1.2-1.3 2.1-1.3 0-.5 0-1.1-.7-1.1-.4 0-.7.3-.6.7h-.7c0-.9.5-1.2 1.4-1.2 1 0 1.3.5 1.3 1.2v1.9c0 .3 0 .6.1 1h-.7v-.6zm-1.4-.6c0 .4.2.7.6.7.4 0 .9-.2.8-1.6-.6.1-1.4.1-1.4.9zM374.9 280.9h-.7v-5.8h.7v3.5l1.2-1.7h.8l-1.3 1.7 1.6 2.3h-.8l-1.4-2.3v2.3zM377.8 275.1h.7v.7h-.7v-.7zm.7 5.8h-.7v-4h.7v4zM381.8 280.9v-2.8c0-.4-.2-.8-.7-.8-.7 0-.8.6-.8 1.2v2.4h-.7v-3.2-.8h.7v.5c.3-.5.6-.6 1.1-.6.9 0 1.1.5 1.1 1.3v2.8h-.7zM385.7 276.9h.7v4.4c0 .9-.6 1.1-1.5 1.1-.7 0-1.3-.3-1.2-1.1h.7c0 .4.3.6.6.6.5 0 .7-.3.7-.7v-.8c-.2.3-.5.5-.9.5-1.1 0-1.3-.9-1.3-2.1 0-1.9.9-2 1.3-2s.8.2.9.6v-.5zm-.7.4c-.7 0-.8.9-.8 1.4 0 1.3.3 1.6.8 1.6.8 0 .8-.9.8-1.5 0-.5 0-1.5-.8-1.5z"/></g></svg>