<?xml version="1.0" encoding="utf-8"?>
<!-- Generator: Adobe Illustrator 19.2.1, SVG Export Plug-In . SVG Version: 6.00 Build 0)  -->
<!DOCTYPE svg PUBLIC "-//W3C//DTD SVG 1.1//EN" "http://www.w3.org/Graphics/SVG/1.1/DTD/svg11.dtd">
<svg version="1.1" id="Layer_1" xmlns="http://www.w3.org/2000/svg" xmlns:xlink="http://www.w3.org/1999/xlink" x="0px" y="0px"
	 width="332px" height="108px" viewBox="0 0 332 108" style="enable-background:new 0 0 332 108;" xml:space="preserve">
<style type="text/css">
	.Drop_x0020_Shadow{fill:none;}
	.Outer_x0020_Glow_x0020_5_x0020_pt{fill:none;}
	.Blue_x0020_Neon{fill:none;stroke:#8AACDA;stroke-width:7;stroke-linecap:round;stroke-linejoin:round;}
	.Chrome_x0020_Highlight{fill:url(#SVGID_1_);stroke:#FFFFFF;stroke-width:0.3629;stroke-miterlimit:1;}
	.Jive_GS{fill:#FFDD00;}
	.Alyssa_GS{fill:#A6D0E4;}
	.st0{fill:#0A3656;}
	.st1{fill:#ECD177;}
	.st2{fill:#ED5A49;}
	.st3{fill:none;stroke:#0A3656;stroke-width:0.3467;stroke-linecap:round;stroke-linejoin:round;stroke-miterlimit:10;}
	.st4{fill:#ED5A49;stroke:#ED5A49;stroke-width:0.1444;stroke-miterlimit:10;}
	.st5{fill:#E9F5FC;}
	.st6{opacity:0.26;fill:#337D7D;}
	.st7{fill:none;}
	.st8{fill:#DDE8F0;stroke:#DDE8F0;stroke-width:0.5;stroke-miterlimit:10;}
	.st9{fill:none;stroke:#ECD177;stroke-width:0.9;stroke-miterlimit:10;}
	
		.st10{fill:none;stroke:#0A3656;stroke-width:2;stroke-linecap:round;stroke-linejoin:round;stroke-miterlimit:10;stroke-dasharray:0,8;}
	.st11{fill:none;stroke:#ECD177;stroke-width:0.9;stroke-linecap:round;stroke-linejoin:round;stroke-miterlimit:10;}
	.st12{fill:none;stroke:#ECD177;stroke-linecap:round;stroke-linejoin:round;stroke-miterlimit:10;}
</style>
<linearGradient id="SVGID_1_" gradientUnits="userSpaceOnUse" x1="474.9633" y1="54" x2="474.9633" y2="53">
	<stop  offset="0" style="stop-color:#656565"/>
	<stop  offset="0.618" style="stop-color:#1B1B1B"/>
	<stop  offset="0.6292" style="stop-color:#545454"/>
	<stop  offset="0.9831" style="stop-color:#3E3E3E"/>
</linearGradient>
<g id="clumsy">
	<path class="st2" d="M252.9,35.5l-0.2-0.3c-0.6-1-1.9-1.3-2.9-0.8l-17.6,10.2c-1,0.6-1.3,1.9-0.8,2.9l0.2,0.3
		c0.6,1,1.9,1.3,2.9,0.8l17.6-10.2C253.2,37.8,253.5,36.5,252.9,35.5z"/>
	<path class="st2" d="M245.7,53.8l-0.2-0.2c-0.9-0.7-2.2-0.6-3,0.3l-13.1,15.6c-0.7,0.9-0.6,2.2,0.3,3l0.2,0.2
		c0.9,0.7,2.2,0.6,3-0.3L246,56.8C246.7,55.9,246.6,54.5,245.7,53.8z"/>
	<path class="st2" d="M253.4,57h-0.3c-1.2,0-2.1,0.9-2.1,2.1v20.3c0,1.2,0.9,2.1,2.1,2.1h0.3c1.2,0,2.1-0.9,2.1-2.1V59.1
		C255.5,57.9,254.5,57,253.4,57z"/>
	<path class="st2" d="M258.9,37.6l-0.3,0.1c-1.1,0.4-1.6,1.6-1.3,2.7l7,19.1c0.4,1.1,1.6,1.6,2.7,1.3l0.3-0.1
		c1.1-0.4,1.6-1.6,1.3-2.7l-7-19.1C261.2,37.7,260,37.2,258.9,37.6z"/>
	<circle class="st2" cx="256.8" cy="26.4" r="6.2"/>
	<path class="st2" d="M250,62.9l-6.9-2.5c-2-0.7-3-3-2.3-5l6.8-18.6c0.7-2,3-3,5-2.3l6.9,2.5c2,0.7,3,3,2.3,5L255,60.6
		C254.3,62.6,252,63.6,250,62.9z"/>
	<g>
		<path class="st3" d="M271.5,48.8c0,0,3,2.7,1.5,7"/>
		<path class="st3" d="M271.5,44.8c0,0,5.8,4.8,3.9,11"/>
		<path class="st3" d="M229.3,39.1c0,0-3,2.7-1.5,7"/>
		<path class="st3" d="M229.3,35.1c0,0-5.8,4.8-3.9,11"/>
		<path class="st3" d="M227.5,68.7c0,0-3,2.7-1.5,7"/>
		<path class="st3" d="M227.5,64.7c0,0-5.8,4.8-3.9,11"/>
	</g>
	<path class="st0" d="M306,47l-0.2-0.3c-0.6-1-1.9-1.3-2.9-0.8l-17.6,10.2c-1,0.6-1.3,1.9-0.8,2.9l0.2,0.3c0.6,1,1.9,1.3,2.9,0.8
		l17.6-10.2C306.2,49.2,306.5,48,306,47z"/>
	<path class="st2" d="M298.7,65.3l-0.2-0.2c-0.9-0.7-2.2-0.6-3,0.3l-13.1,15.6c-0.7,0.9-0.6,2.2,0.3,3l0.2,0.2
		c0.9,0.7,2.2,0.6,3-0.3L299,68.2C299.7,67.3,299.6,66,298.7,65.3z"/>
	<path class="st2" d="M306.4,68.4h-0.3c-1.2,0-2.1,0.9-2.1,2.1v20.3c0,1.2,0.9,2.1,2.1,2.1h0.3c1.2,0,2.1-0.9,2.1-2.1V70.5
		C308.5,69.4,307.6,68.4,306.4,68.4z"/>
	<path class="st0" d="M312,49l-0.3,0.1c-1.1,0.4-1.6,1.6-1.3,2.7l7,19.1c0.4,1.1,1.6,1.6,2.7,1.3l0.3-0.1c1.1-0.4,1.6-1.6,1.3-2.7
		l-7-19.1C314.3,49.2,313,48.6,312,49z"/>
	<circle class="st0" cx="309.8" cy="37.9" r="6.2"/>
	<path class="st0" d="M303,74.3l-6.9-2.5c-2-0.7-3-3-2.3-5l6.8-18.6c0.7-2,3-3,5-2.3l6.9,2.5c2,0.7,3,3,2.3,5L308,72
		C307.3,74,305,75.1,303,74.3z"/>
	<g>
		<path class="st3" d="M324.5,60.3c0,0,3,2.7,1.5,7"/>
		<path class="st3" d="M324.5,56.3c0,0,5.8,4.8,3.9,11"/>
		<path class="st3" d="M282.3,50.5c0,0-3,2.7-1.5,7"/>
		<path class="st3" d="M282.3,46.5c0,0-5.8,4.8-3.9,11"/>
		<path class="st3" d="M280.6,80.2c0,0-3,2.7-1.5,7"/>
		<path class="st3" d="M280.6,76.2c0,0-5.8,4.8-3.9,11"/>
	</g>
	<rect x="298.7" y="51.9" class="st2" width="0.5" height="2.2"/>
	<path class="st4" d="M298.5,53.7l-4.9,13.5c-0.7,2,0.3,4.2,2.3,5l6.9,2.5c2,0.7,4.2-0.3,5-2.3l6.8-18.6c0,0,0,0,0-0.1H298.5z"/>
	<path class="st4" d="M321.6,69.4l-5.7-15.7h-4.8l6.3,17.2c0.4,1.1,1.6,1.6,2.7,1.3l0.3-0.1C321.4,71.7,322,70.5,321.6,69.4z"/>
	<path class="st4" d="M299.1,48.1l-13.8,7.9c-1,0.6-1.3,1.9-0.8,2.9l0.2,0.3c0.6,1,1.9,1.3,2.9,0.8l11.5-6.6V48.1z"/>
	<g>
		<path class="st2" d="M181.1,36.7c-0.8,0-1.6-0.4-2-1.1l-0.2-0.3c-0.3-0.5-0.4-1.1-0.2-1.7c0.2-0.6,0.5-1.1,1.1-1.4L197.4,22
			c0.3-0.2,0.7-0.3,1.1-0.3c0.8,0,1.6,0.4,2,1.1l0.2,0.3c0.3,0.5,0.4,1.1,0.2,1.7s-0.5,1.1-1.1,1.4l-17.6,10.2
			C181.8,36.6,181.5,36.7,181.1,36.7C181.1,36.7,181.1,36.7,181.1,36.7z"/>
		<path class="st5" d="M198.5,21.9c0.7,0,1.4,0.4,1.8,1l0.2,0.3c0.6,1,0.2,2.3-0.8,2.9l-17.6,10.2c-0.3,0.2-0.7,0.3-1,0.3
			c-0.7,0-1.4-0.4-1.8-1l-0.2-0.3c-0.6-1-0.2-2.3,0.8-2.9l17.6-10.2C197.8,22,198.1,21.9,198.5,21.9 M198.5,21.5
			c-0.4,0-0.8,0.1-1.2,0.3L179.7,32c-0.6,0.3-1,0.9-1.1,1.5c-0.2,0.6-0.1,1.3,0.2,1.9l0.2,0.3c0.4,0.8,1.2,1.2,2.1,1.2
			c0.4,0,0.8-0.1,1.2-0.3l17.6-10.2c0.6-0.3,1-0.9,1.1-1.5c0.2-0.6,0.1-1.3-0.2-1.9l-0.2-0.3C200.2,22,199.4,21.5,198.5,21.5
			L198.5,21.5z"/>
	</g>
	<g>
		<path class="st2" d="M178.8,61c-0.5,0-1.1-0.2-1.5-0.5l-0.2-0.2c-1-0.8-1.1-2.2-0.3-3.2l13.1-15.6c0.4-0.5,1.1-0.8,1.7-0.8
			c0.5,0,1.1,0.2,1.5,0.5l0.2,0.2c1,0.8,1.1,2.2,0.3,3.2l-13.1,15.6C180.1,60.7,179.5,61,178.8,61L178.8,61z"/>
		<path class="st5" d="M191.7,40.8c0.5,0,1,0.2,1.3,0.5l0.2,0.2c0.9,0.7,1,2.1,0.3,3l-13.1,15.6c-0.4,0.5-1,0.7-1.6,0.7
			c-0.5,0-1-0.2-1.3-0.5l-0.2-0.2c-0.9-0.7-1-2.1-0.3-3l13.1-15.6C190.5,41.1,191.1,40.8,191.7,40.8 M191.7,40.5
			c-0.7,0-1.4,0.3-1.9,0.9l-13.1,15.6c-0.9,1-0.7,2.6,0.3,3.4l0.2,0.2c0.4,0.4,1,0.6,1.6,0.6c0.7,0,1.4-0.3,1.9-0.9l13.1-15.6
			c0.9-1,0.7-2.6-0.3-3.4l-0.2-0.2C192.8,40.7,192.3,40.5,191.7,40.5L191.7,40.5z"/>
	</g>
	<g>
		<path class="st2" d="M200.9,44.7h-0.3c-1.2,0-2.1,0.9-2.1,2.1v20.3c0,1.2,0.9,2.1,2.1,2.1h0.3c1.2,0,2.1-0.9,2.1-2.1V46.8
			C203,45.6,202.1,44.7,200.9,44.7z"/>
	</g>
	<g>
		<path class="st2" d="M206.5,25.3l-0.3,0.1c-1.1,0.4-1.6,1.6-1.3,2.7l7,19.1c0.4,1.1,1.6,1.6,2.7,1.3l0.3-0.1
			c1.1-0.4,1.6-1.6,1.3-2.7l-7-19.1C208.8,25.5,207.6,24.9,206.5,25.3z"/>
	</g>
	<circle class="st2" cx="204.3" cy="14.1" r="6.2"/>
	<g>
		<path class="st2" d="M197.6,50.6l-6.9-2.5c-2-0.7-3-3-2.3-5l6.8-18.6c0.7-2,3-3,5-2.3l6.9,2.5c2,0.7,3,3,2.3,5l-6.8,18.6
			C201.8,50.3,199.6,51.3,197.6,50.6z"/>
	</g>
	<g>
		<path class="st3" d="M219,36.5c0,0,3,2.7,1.5,7"/>
		<path class="st3" d="M219,32.5c0,0,5.8,4.8,3.9,11"/>
		<path class="st3" d="M176.9,26.8c0,0-3,2.7-1.5,7"/>
		<path class="st3" d="M176.9,22.8c0,0-5.8,4.8-3.9,11"/>
		<path class="st3" d="M175.1,56.4c0,0-3,2.7-1.5,7"/>
		<path class="st3" d="M175.1,52.4c0,0-5.8,4.8-3.9,11"/>
	</g>
</g>
<g>
	<path class="st0" d="M6.8,52h1.2l2.3,7.2h-1l-0.5-1.7H5.9l-0.5,1.7H4.5L6.8,52z M7.3,52.9L7.3,52.9l-1.1,3.8h2.3L7.3,52.9z"/>
	<path class="st0" d="M14.9,59.3c-1.1,0-1.8-0.5-1.7-1.6H14c0,0.3,0,1,0.8,1c0.5,0,0.9-0.2,0.9-0.8c0-0.9-2.5-0.9-2.5-2.4
		c0-0.5,0.3-1.4,1.7-1.4c0.9,0,1.7,0.4,1.6,1.4h-0.9c0-0.5-0.3-0.8-0.8-0.8c-0.4,0-0.8,0.2-0.8,0.7c0,0.9,2.5,0.9,2.5,2.4
		C16.6,58.9,15.9,59.3,14.9,59.3z"/>
	<path class="st0" d="M20.5,54.2h0.8v4c0,0.4,0,0.7,0,1h-0.9v-0.6h0c-0.3,0.5-0.7,0.7-1.3,0.7c-0.9,0-1.4-0.4-1.4-1.3v-3.8h0.8v3.5
		c0,0.6,0.3,1,0.9,1c0.4,0,1-0.3,1-1.2V54.2z"/>
	<path class="st0" d="M23.7,55L23.7,55c0.4-0.8,0.8-0.9,1.6-0.9v0.8c-0.1,0-0.1,0-0.2,0c-0.1,0-0.1,0-0.2,0c-0.9,0-1.1,0.7-1.1,1.4
		v3h-0.8v-5h0.8V55z"/>
	<path class="st0" d="M25.6,54.2h0.9l1.1,4.3h0l1.2-4.3h0.9l-1.6,5h-1.1L25.6,54.2z"/>
	<path class="st0" d="M31.4,57c0,1.4,0.4,1.7,1,1.7c0.6,0,0.8-0.5,0.9-1h0.9c0,1.1-0.7,1.6-1.8,1.6c-1.1,0-1.9-0.3-1.9-2.5
		c0-1.5,0.2-2.7,1.9-2.7c1.4,0,1.8,0.8,1.8,2.5V57H31.4z M33.3,56.4c0-1.5-0.4-1.6-1-1.6c-0.5,0-0.9,0.2-1,1.6H33.3z"/>
	<path class="st0" d="M36.4,55L36.4,55c0.4-0.8,0.8-0.9,1.6-0.9v0.8c-0.1,0-0.1,0-0.2,0c-0.1,0-0.1,0-0.2,0c-0.9,0-1.1,0.7-1.1,1.4
		v3h-0.8v-5h0.8V55z"/>
	<path class="st0" d="M40.4,58.3L40.4,58.3l1.2-4.1h0.9l-2.3,7h-0.8l0.6-1.9l-1.7-5h0.9L40.4,58.3z"/>
	<path class="st0" d="M46.5,59.2h-0.8V52h0.8v2.7h0c0.3-0.4,0.6-0.6,1.1-0.6c1.6,0,1.7,1.4,1.7,2.7c0,2.2-0.8,2.5-1.6,2.5
		c-0.5,0-0.9-0.2-1.2-0.7h0V59.2z M47.4,58.7c1,0,1-1.1,1-1.9c0-1.3-0.1-2-1-2c-0.9,0-0.9,1.1-0.9,1.7
		C46.5,57.3,46.4,58.7,47.4,58.7z"/>
	<path class="st0" d="M52.1,58.3L52.1,58.3l1.2-4.1h0.9l-2.3,7h-0.8l0.6-1.9l-1.7-5h0.9L52.1,58.3z"/>
	<path class="st0" d="M60.1,52l-1.5,7.2h-1.4l1.5-7.2H60.1z"/>
	<path class="st0" d="M61.6,56.9c-0.1,0.6-0.3,1.5,0.3,1.5c0.5,0,0.7-0.5,0.8-0.9h1.4c-0.1,0.5-0.4,1-0.8,1.3
		c-0.4,0.3-0.9,0.5-1.6,0.5c-1.8,0-1.8-1.1-1.5-2.7c0.3-1.4,0.7-2.6,2.6-2.6c1.9,0,1.8,1.2,1.5,2.8H61.6z M63.1,56.2
		c0.1-0.5,0.3-1.2-0.4-1.2c-0.6,0-0.8,0.8-0.9,1.2H63.1z"/>
	<path class="st0" d="M68.4,52.9c-0.6,0-0.7,0.2-0.8,0.7l-0.1,0.6h0.7l-0.2,0.9h-0.7l-0.9,4.2h-1.4l0.9-4.2h-0.6l0.2-0.9H66
		c0.3-1.4,0.3-2.2,2.1-2.2c0.2,0,0.3,0,0.5,0L68.4,52.9z"/>
	<path class="st0" d="M68.1,54.2h0.6l0.2-0.8l1.5-0.6l-0.3,1.4h0.7l-0.2,0.9h-0.7l-0.6,2.7c-0.1,0.4-0.1,0.6,0.3,0.6
		c0.1,0,0.2,0,0.2,0l-0.2,0.9c-0.2,0-0.4,0-0.7,0c-1.2,0-1.2-0.8-1.1-1.1l0.7-3.1h-0.6L68.1,54.2z"/>
	<path class="st0" d="M72.9,59.2l0.7-3.5c0.1-0.4,0.1-0.8-0.4-0.8c-0.5,0-0.6,0.3-0.7,0.8l-0.7,3.5h-1.4l1.5-7.2h1.4l-0.6,2.7h0
		c0.2-0.2,0.4-0.4,0.6-0.5c0.2-0.1,0.5-0.1,0.7-0.1c0.7,0,1.2,0.4,1,1.1l-0.9,4H72.9z"/>
	<path class="st0" d="M79.4,58.3c-0.1,0.3-0.1,0.6-0.1,0.9H78l0.1-0.7h0c-0.4,0.5-0.9,0.8-1.5,0.8c-1,0-1.2-0.7-1-1.6
		c0.4-1.7,1.7-1.7,3-1.7l0.1-0.4c0.1-0.4,0.1-0.7-0.4-0.7c-0.5,0-0.6,0.4-0.7,0.8h-1.4c0.1-0.6,0.4-1,0.8-1.2
		c0.4-0.2,0.8-0.3,1.4-0.3c1.8,0,1.9,0.8,1.7,1.7L79.4,58.3z M77,57.7c-0.1,0.4-0.1,0.8,0.3,0.8c0.8,0,0.9-1.1,1.1-1.7
		C77.7,56.8,77.2,56.8,77,57.7z"/>
	<path class="st0" d="M82.8,54.7L82.8,54.7c0.2-0.2,0.4-0.4,0.6-0.5c0.2-0.1,0.5-0.1,0.7-0.1c0.7,0,1.2,0.4,1,1.1l-0.9,4h-1.4
		l0.7-3.5c0.1-0.4,0.1-0.8-0.4-0.8c-0.5,0-0.6,0.3-0.7,0.8l-0.7,3.5h-1.4l1.1-5h1.4L82.8,54.7z"/>
	<path class="st0" d="M87.9,59.2l0.1-0.6h0c-0.4,0.5-0.8,0.7-1.3,0.7c-1.5,0-1.1-1.6-0.8-2.7c0.2-1,0.5-2.6,1.9-2.6
		c0.5,0,0.8,0.2,1,0.6h0l0.6-2.6h1.4l-1.5,7.2H87.9z M88.4,56.7c0.2-1,0.4-1.7-0.2-1.7c-0.6,0-0.8,0.7-1,1.7
		c-0.3,1.3-0.3,1.8,0.2,1.8C87.9,58.5,88.1,57.9,88.4,56.7z"/>
	<path class="st0" d="M92.2,56.9c-0.1,0.6-0.3,1.5,0.3,1.5c0.5,0,0.7-0.5,0.8-0.9h1.4c-0.1,0.5-0.4,1-0.8,1.3
		c-0.4,0.3-0.9,0.5-1.6,0.5c-1.8,0-1.8-1.1-1.5-2.7c0.3-1.4,0.7-2.6,2.6-2.6c1.9,0,1.8,1.2,1.5,2.8H92.2z M93.7,56.2
		c0.1-0.5,0.3-1.2-0.4-1.2c-0.6,0-0.8,0.8-0.9,1.2H93.7z"/>
	<path class="st0" d="M97.8,54.2l-0.1,0.6h0c0.4-0.6,0.9-0.8,1.5-0.8l-0.3,1.3c-1.2-0.1-1.4,0.6-1.5,1.1l-0.6,2.7h-1.4l1.1-5H97.8z"
		/>
	<path class="st0" d="M100.2,57.6c0,0.2-0.1,0.5-0.1,0.6c0,0.2,0.2,0.2,0.5,0.2c0.3,0,0.6-0.2,0.6-0.5c0.2-1.1-2.3-0.8-2-2.4
		c0.2-1.1,1.4-1.4,2.3-1.4c1,0,1.7,0.5,1.4,1.5h-1.4c0.1-0.4,0.1-0.6,0-0.7c-0.1-0.1-0.2-0.1-0.3-0.1c-0.3,0-0.5,0.2-0.6,0.5
		c-0.2,0.8,2.3,0.8,2,2.4c-0.2,0.9-1,1.5-2.2,1.5c-1.2,0-2-0.3-1.6-1.7H100.2z"/>
	<path class="st0" d="M105.7,59.2l0.1-0.6h0c-0.4,0.5-0.8,0.7-1.3,0.7c-1.5,0-1.1-1.6-0.8-2.7c0.2-1,0.5-2.6,1.9-2.6
		c0.5,0,0.8,0.2,1,0.6h0l0.6-2.6h1.4l-1.5,7.2H105.7z M106.2,56.7c0.2-1,0.4-1.7-0.2-1.7c-0.6,0-0.8,0.7-1,1.7
		c-0.3,1.3-0.3,1.8,0.2,1.8C105.7,58.5,105.9,57.9,106.2,56.7z"/>
	<path class="st0" d="M112.2,58.3c-0.1,0.3-0.1,0.6-0.1,0.9h-1.3l0.1-0.7h0c-0.4,0.5-0.9,0.8-1.5,0.8c-1,0-1.2-0.7-1-1.6
		c0.4-1.7,1.7-1.7,3-1.7l0.1-0.4c0.1-0.4,0.1-0.7-0.4-0.7c-0.5,0-0.6,0.4-0.7,0.8h-1.4c0.1-0.6,0.4-1,0.8-1.2
		c0.4-0.2,0.8-0.3,1.4-0.3c1.8,0,1.9,0.8,1.7,1.7L112.2,58.3z M109.7,57.7c-0.1,0.4-0.1,0.8,0.3,0.8c0.8,0,0.9-1.1,1.1-1.7
		C110.4,56.8,109.9,56.8,109.7,57.7z"/>
	<path class="st0" d="M114.1,59.3l-0.3-5.1h1.4l0,3.5h0l1.5-3.5h1.4l-3.4,7h-1.5L114.1,59.3z"/>
	<path class="st0" d="M118.7,57.9l-0.3,1.3h-1.2l0.3-1.3H118.7z"/>
	<path class="st0" d="M122.7,56c0.2-0.8,0-1-0.4-1c-0.6,0-0.8,0.5-1,1.6c-0.3,1.5-0.3,1.9,0.2,1.9c0.4,0,0.7-0.4,0.9-1.1h1.4
		c-0.3,1.4-1.2,2-2.5,2c-1.8,0-1.8-1.1-1.5-2.7c0.3-1.4,0.7-2.6,2.6-2.6c1.3,0,1.9,0.6,1.6,1.9H122.7z"/>
	<path class="st0" d="M124.9,56.7c0.3-1.4,0.7-2.6,2.6-2.6c1.9,0,1.8,1.2,1.5,2.6c-0.3,1.6-0.8,2.7-2.6,2.7S124.6,58.2,124.9,56.7z
		 M127.6,56.6c0.2-1,0.3-1.6-0.3-1.6s-0.8,0.5-1,1.6c-0.3,1.5-0.3,1.9,0.2,1.9C127.1,58.4,127.3,58.1,127.6,56.6z"/>
	<path class="st0" d="M131.7,54.7L131.7,54.7c0.4-0.5,0.8-0.6,1.3-0.6c0.5,0,0.8,0.2,1,0.6c0.4-0.4,0.9-0.6,1.4-0.6
		c0.7,0,1.2,0.4,1,1.1l-0.9,4h-1.4l0.7-3.5c0.1-0.4,0.1-0.8-0.4-0.8c-0.5,0-0.6,0.3-0.7,0.8l-0.7,3.5h-1.4l0.7-3.5
		c0.1-0.4,0.1-0.8-0.4-0.8c-0.4,0-0.6,0.3-0.7,0.8l-0.7,3.5h-1.4l1.1-5h1.4L131.7,54.7z"/>
	<path class="st0" d="M139.2,54.2v-1c0-1,0.7-1.2,1.4-1.2c0.2,0,0.3,0,0.4,0v0.6c-0.9-0.1-1,0.3-1,0.7v0.9h1v0.6h-1v4.4h-0.8v-4.4
		h-0.8v-0.6H139.2z"/>
	<path class="st0" d="M141.7,56.8c0-1.5,0.2-2.7,1.9-2.7s1.9,1.2,1.9,2.7c0,2.2-0.8,2.5-1.9,2.5S141.7,59,141.7,56.8z M144.7,56.4
		c0-1.4-0.4-1.7-1.1-1.7c-0.6,0-1.1,0.3-1.1,1.7c0,1.6,0.2,2.2,1.1,2.2S144.7,58.1,144.7,56.4z"/>
	<path class="st0" d="M149.5,54.2h0.8v4c0,0.4,0,0.7,0.1,1h-0.9v-0.6h0c-0.3,0.5-0.7,0.7-1.3,0.7c-0.9,0-1.4-0.4-1.4-1.3v-3.8h0.8
		v3.5c0,0.6,0.3,1,0.9,1c0.4,0,1-0.3,1-1.2V54.2z"/>
	<path class="st0" d="M154.6,59.2v-3.5c0-0.5-0.2-1-0.9-1c-0.9,0-1,0.8-1,1.5v3h-0.8v-4c0-0.3,0-0.7,0-1h0.9v0.6h0
		c0.3-0.6,0.7-0.8,1.3-0.8c1.1,0,1.3,0.7,1.3,1.6v3.5H154.6z"/>
	<path class="st0" d="M159.5,52h0.8v7.2h-0.8v-0.6h0c-0.3,0.5-0.6,0.7-1.2,0.7c-0.8,0-1.6-0.3-1.6-2.5c0-1.3,0-2.7,1.7-2.7
		c0.5,0,0.8,0.2,1.1,0.6h0V52z M158.6,54.8c-0.9,0-1,0.7-1,2c0,0.8,0,1.9,1,1.9c0.9,0,0.9-1.1,0.9-2.2
		C159.5,55.8,159.5,54.8,158.6,54.8z"/>
	<path class="st0" d="M5.1,68.2v-1l0.8-0.4v1.3H7v0.6H5.9v3.1c0,0.3,0,0.7,0.8,0.7c0.1,0,0.2,0,0.4,0v0.6c-0.3,0-0.5,0.1-0.8,0.1
		c-0.8,0-1.1-0.3-1.1-0.9v-3.6H4.3v-0.6H5.1z"/>
	<path class="st0" d="M10.6,73.2v-3.4c0-0.6-0.2-1.1-0.9-1.1c-0.8,0-1,0.7-1,1.5v3H7.8V66h0.8v2.8h0c0.3-0.6,0.7-0.8,1.4-0.8
		c0.9,0,1.3,0.4,1.3,1.6v3.6H10.6z"/>
	<path class="st0" d="M15.4,72.5L15.4,72.5c-0.3,0.6-0.7,0.8-1.3,0.8c-1.1,0-1.4-0.7-1.4-1.7c0-1.5,1.5-1.6,2.6-1.6
		c0-0.7,0-1.4-0.8-1.4c-0.5,0-0.8,0.4-0.8,0.9h-0.9c0-1.1,0.6-1.5,1.7-1.5c1.3,0,1.6,0.7,1.6,1.5V72c0,0.4,0,0.8,0.1,1.2h-0.9V72.5z
		 M13.6,71.7c0,0.5,0.2,0.9,0.8,0.9c0.5,0,1.1-0.3,1-1.9C14.6,70.7,13.6,70.7,13.6,71.7z"/>
	<path class="st0" d="M17.9,68.2v-1l0.8-0.4v1.3h1.1v0.6h-1.1v3.1c0,0.3,0,0.7,0.8,0.7c0.1,0,0.2,0,0.4,0v0.6
		c-0.3,0-0.5,0.1-0.8,0.1c-0.8,0-1.1-0.3-1.1-0.9v-3.6h-0.8v-0.6H17.9z"/>
	<path class="st2" d="M22.6,70.6c0-1.3,0.2-2.4,1.5-2.8v0c-1.2-0.3-1.5-1.2-1.5-2.3c0-1.9,1-2.8,2.9-2.8c1.9,0,2.9,0.9,2.9,2.8
		c0,1.1-0.3,2-1.5,2.3v0c1.3,0.5,1.5,1.5,1.5,2.8c0,2-1.1,2.8-3,2.8C23.7,73.4,22.6,72.5,22.6,70.6z M24.8,70.4
		c0,0.6,0.1,1.4,0.9,1.4c0.8,0,0.9-0.8,0.9-1.4c0-0.6,0-1.9-0.9-1.9C24.7,68.6,24.8,69.8,24.8,70.4z M24.9,65.5
		c0,0.5,0.1,1.4,0.8,1.4s0.8-0.9,0.8-1.4c0-0.5-0.1-1.4-0.8-1.4C24.9,64.2,24.9,65,24.9,65.5z"/>
	<path class="st2" d="M31.6,67L31.6,67c0.4-0.5,0.9-0.7,1.5-0.7c1.7,0,2.2,1.2,2.2,3.5c0,2.8-1,3.6-3.2,3.6c-1.7,0-2.8-0.7-2.8-2.6
		h2.1c0,0.3,0,0.6,0.1,0.8c0.1,0.2,0.3,0.3,0.6,0.3c0.8,0,0.9-0.6,0.9-2.1c0-0.7,0.1-2.1-0.9-2.1c-0.6,0-0.8,0.7-0.8,1.2h-2v-6.1H35
		v1.6h-3.4V67z"/>
	<path class="st2" d="M36.1,65.6c0-1.6,0.3-2.8,2.2-2.8c1.8,0,2.2,1.3,2.2,2.8c0,1.8-0.5,2.7-2.2,2.7C36.6,68.3,36.1,67.4,36.1,65.6
		z M39,65.4c0-0.5,0-1.5-0.7-1.5c-0.8,0-0.7,1-0.7,1.5c0,1.2,0.1,1.7,0.7,1.7C39,67.1,39,66.7,39,65.4z M39.8,73.6h-1.1l4.4-11h1.1
		L39.8,73.6z M42.5,70.5c0-1.6,0.3-2.8,2.2-2.8s2.2,1.3,2.2,2.8c0,1.8-0.5,2.7-2.2,2.7C43,73.2,42.5,72.3,42.5,70.5z M45.4,70.4
		c0-0.5,0-1.5-0.7-1.5c-0.8,0-0.7,1-0.7,1.5c0,1.2,0.1,1.7,0.7,1.7C45.4,72.1,45.4,71.6,45.4,70.4z"/>
	<path class="st0" d="M50.1,70.8c0-1.5,0.2-2.7,1.9-2.7s1.9,1.2,1.9,2.7c0,2.2-0.8,2.5-1.9,2.5S50.1,73,50.1,70.8z M53.1,70.4
		c0-1.4-0.4-1.7-1.1-1.7c-0.6,0-1.1,0.3-1.1,1.7c0,1.6,0.2,2.2,1.1,2.2S53.1,72.1,53.1,70.4z"/>
	<path class="st0" d="M55.4,68.2v-1c0-1,0.7-1.2,1.4-1.2c0.2,0,0.3,0,0.4,0v0.6c-0.9-0.1-1,0.3-1,0.7v0.9h1v0.6h-1v4.4h-0.8v-4.4
		h-0.8v-0.6H55.4z"/>
	<path class="st0" d="M61.1,73.2h-0.8V66h0.8V73.2z"/>
	<path class="st0" d="M63.3,71c0,1.4,0.4,1.7,1,1.7c0.6,0,0.8-0.5,0.9-1h0.9c0,1.1-0.7,1.6-1.8,1.6c-1.1,0-1.9-0.3-1.9-2.5
		c0-1.5,0.2-2.7,1.9-2.7c1.4,0,1.8,0.8,1.8,2.5V71H63.3z M65.3,70.4c0-1.5-0.4-1.6-1-1.6c-0.5,0-0.9,0.2-1,1.6H65.3z"/>
	<path class="st0" d="M67.6,68.2v-1c0-1,0.7-1.2,1.4-1.2c0.2,0,0.3,0,0.4,0v0.6c-0.9-0.1-1,0.3-1,0.7v0.9h1v0.6h-1v4.4h-0.8v-4.4
		h-0.8v-0.6H67.6z"/>
	<path class="st0" d="M70.4,68.2v-1l0.8-0.4v1.3h1.1v0.6h-1.1v3.1c0,0.3,0,0.7,0.8,0.7c0.1,0,0.2,0,0.4,0v0.6
		c-0.3,0-0.5,0.1-0.8,0.1c-0.8,0-1.1-0.3-1.1-0.9v-3.6h-0.8v-0.6H70.4z"/>
	<path class="st0" d="M73,66h0.9v0.9H73V66z M73.9,73.2H73v-5h0.8V73.2z"/>
	<path class="st0" d="M76.1,71c0,1.4,0.4,1.7,1,1.7c0.6,0,0.8-0.5,0.9-1h0.9c0,1.1-0.7,1.6-1.8,1.6c-1.1,0-1.9-0.3-1.9-2.5
		c0-1.5,0.2-2.7,1.9-2.7c1.4,0,1.8,0.8,1.8,2.5V71H76.1z M78,70.4c0-1.5-0.4-1.6-1-1.6c-0.5,0-0.9,0.2-1,1.6H78z"/>
	<path class="st0" d="M81.8,73.3c-1.1,0-1.8-0.5-1.7-1.6H81c0,0.3,0,1,0.8,1c0.5,0,0.9-0.2,0.9-0.8c0-0.9-2.5-0.9-2.5-2.4
		c0-0.5,0.3-1.4,1.7-1.4c0.9,0,1.7,0.4,1.6,1.4h-0.9c0-0.5-0.3-0.8-0.8-0.8c-0.4,0-0.8,0.2-0.8,0.7c0,0.9,2.5,0.9,2.5,2.4
		C83.5,72.9,82.8,73.3,81.8,73.3z"/>
	<path class="st0" d="M89.6,69.8c0-0.8-0.4-1-0.7-1c-0.6,0-1.1,0.3-1.1,1.7c0,1.6,0.2,2.2,1.1,2.2c0.2,0,0.8-0.2,0.7-1.1h0.9
		c0,1.4-1,1.8-1.6,1.8c-1.1,0-1.9-0.3-1.9-2.5c0-1.5,0.2-2.7,1.9-2.7c1,0,1.6,0.6,1.5,1.7H89.6z"/>
	<path class="st0" d="M91.8,70.8c0-1.5,0.2-2.7,1.9-2.7s1.9,1.2,1.9,2.7c0,2.2-0.8,2.5-1.9,2.5S91.8,73,91.8,70.8z M94.8,70.4
		c0-1.4-0.4-1.7-1.1-1.7c-0.6,0-1.1,0.3-1.1,1.7c0,1.6,0.2,2.2,1.1,2.2S94.8,72.1,94.8,70.4z"/>
	<path class="st0" d="M99.7,73.2v-3.5c0-0.5-0.2-1-0.9-1c-0.9,0-1,0.8-1,1.5v3h-0.8v-4c0-0.3,0-0.7,0-1h0.9v0.6h0
		c0.3-0.6,0.7-0.8,1.3-0.8c1.1,0,1.3,0.7,1.3,1.6v3.5H99.7z"/>
	<path class="st0" d="M103.4,73.3c-1.1,0-1.8-0.5-1.7-1.6h0.9c0,0.3,0,1,0.8,1c0.5,0,0.9-0.2,0.9-0.8c0-0.9-2.5-0.9-2.5-2.4
		c0-0.5,0.3-1.4,1.7-1.4c0.9,0,1.7,0.4,1.6,1.4h-0.9c0-0.5-0.3-0.8-0.8-0.8c-0.4,0-0.8,0.2-0.8,0.7c0,0.9,2.5,0.9,2.5,2.4
		C105.2,72.9,104.4,73.3,103.4,73.3z"/>
	<path class="st0" d="M106.3,66h0.9v0.9h-0.9V66z M107.2,73.2h-0.8v-5h0.8V73.2z"/>
	<path class="st0" d="M111.3,66h0.8v7.2h-0.8v-0.6h0c-0.3,0.5-0.6,0.7-1.2,0.7c-0.8,0-1.6-0.3-1.6-2.5c0-1.3,0-2.7,1.7-2.7
		c0.5,0,0.8,0.2,1.1,0.6h0V66z M110.3,68.8c-0.9,0-1,0.7-1,2c0,0.8,0,1.9,1,1.9c0.9,0,0.9-1.1,0.9-2.2
		C111.3,69.8,111.2,68.8,110.3,68.8z"/>
	<path class="st0" d="M114.4,71c0,1.4,0.4,1.7,1,1.7c0.6,0,0.8-0.5,0.9-1h0.9c0,1.1-0.7,1.6-1.8,1.6c-1.1,0-1.9-0.3-1.9-2.5
		c0-1.5,0.2-2.7,1.9-2.7c1.4,0,1.8,0.8,1.8,2.5V71H114.4z M116.4,70.4c0-1.5-0.4-1.6-1-1.6c-0.5,0-0.9,0.2-1,1.6H116.4z"/>
	<path class="st0" d="M119.4,69L119.4,69c0.4-0.8,0.8-0.9,1.6-0.9v0.8c-0.1,0-0.2,0-0.2,0c-0.1,0-0.1,0-0.2,0
		c-0.9,0-1.1,0.7-1.1,1.4v3h-0.8v-5h0.8V69z"/>
	<path class="st0" d="M122.7,71c0,1.4,0.4,1.7,1,1.7c0.6,0,0.8-0.5,0.9-1h0.9c0,1.1-0.7,1.6-1.8,1.6c-1.1,0-1.9-0.3-1.9-2.5
		c0-1.5,0.2-2.7,1.9-2.7c1.4,0,1.8,0.8,1.8,2.5V71H122.7z M124.7,70.4c0-1.5-0.4-1.6-1-1.6c-0.5,0-0.9,0.2-1,1.6H124.7z"/>
	<path class="st0" d="M129.6,66h0.8v7.2h-0.8v-0.6h0c-0.3,0.5-0.6,0.7-1.2,0.7c-0.8,0-1.6-0.3-1.6-2.5c0-1.3,0-2.7,1.7-2.7
		c0.5,0,0.8,0.2,1.1,0.6h0V66z M128.6,68.8c-0.9,0-1,0.7-1,2c0,0.8,0,1.9,1,1.9c0.9,0,0.9-1.1,0.9-2.2
		C129.6,69.8,129.6,68.8,128.6,68.8z"/>
	<path class="st0" d="M134.2,68.2v-1l0.8-0.4v1.3h1.1v0.6h-1.1v3.1c0,0.3,0,0.7,0.8,0.7c0.1,0,0.2,0,0.4,0v0.6
		c-0.3,0-0.5,0.1-0.8,0.1c-0.8,0-1.1-0.3-1.1-0.9v-3.6h-0.8v-0.6H134.2z"/>
	<path class="st0" d="M139.7,73.2v-3.4c0-0.6-0.2-1.1-0.9-1.1c-0.8,0-1,0.7-1,1.5v3h-0.8V66h0.8v2.8h0c0.3-0.6,0.7-0.8,1.4-0.8
		c0.9,0,1.3,0.4,1.3,1.6v3.6H139.7z"/>
	<path class="st0" d="M142.7,71c0,1.4,0.4,1.7,1,1.7c0.6,0,0.8-0.5,0.9-1h0.9c0,1.1-0.7,1.6-1.8,1.6c-1.1,0-1.9-0.3-1.9-2.5
		c0-1.5,0.2-2.7,1.9-2.7c1.4,0,1.8,0.8,1.8,2.5V71H142.7z M144.7,70.4c0-1.5-0.4-1.6-1-1.6c-0.5,0-0.9,0.2-1,1.6H144.7z"/>
	<path class="st0" d="M149.4,73.2v-3.5c0-0.5-0.1-1-0.8-1c-0.2,0-0.6,0.2-0.7,0.3c-0.2,0.2-0.2,0.5-0.2,0.7v3.4h-0.8v-4
		c0-0.3,0-0.7,0-1h0.9v0.6h0c0.2-0.5,0.7-0.7,1.3-0.7c0.5,0,1,0.2,1.2,0.7c0.3-0.5,0.7-0.7,1.2-0.7c0.5,0,1.4,0.1,1.4,1.3v3.8h-0.8
		v-3.5c0-0.5-0.1-1-0.8-1c-0.3,0-0.4,0-0.6,0.2c-0.2,0.2-0.3,0.7-0.3,0.9v3.4H149.4z"/>
	<path class="st0" d="M155.6,73.3c-1.1,0-1.8-0.5-1.7-1.6h0.9c0,0.3,0,1,0.8,1c0.5,0,0.9-0.2,0.9-0.8c0-0.9-2.5-0.9-2.5-2.4
		c0-0.5,0.3-1.4,1.7-1.4c0.9,0,1.7,0.4,1.6,1.4h-0.9c0-0.5-0.3-0.8-0.8-0.8c-0.4,0-0.8,0.2-0.8,0.7c0,0.9,2.5,0.9,2.5,2.4
		C157.4,72.9,156.6,73.3,155.6,73.3z"/>
	<path class="st0" d="M159.4,71c0,1.4,0.4,1.7,1,1.7c0.6,0,0.8-0.5,0.9-1h0.9c0,1.1-0.7,1.6-1.8,1.6c-1.1,0-1.9-0.3-1.9-2.5
		c0-1.5,0.2-2.7,1.9-2.7c1.4,0,1.8,0.8,1.8,2.5V71H159.4z M161.4,70.4c0-1.5-0.4-1.6-1-1.6c-0.5,0-0.9,0.2-1,1.6H161.4z"/>
	<path class="st0" d="M164.4,73.2h-0.8V66h0.8V73.2z"/>
	<path class="st0" d="M165.2,68.2h0.9l1.1,4.3h0l1.2-4.3h0.9l-1.6,5h-1.1L165.2,68.2z"/>
	<path class="st0" d="M171,71c0,1.4,0.4,1.7,1,1.7c0.6,0,0.8-0.5,0.9-1h0.9c0,1.1-0.7,1.6-1.8,1.6c-1.1,0-1.9-0.3-1.9-2.5
		c0-1.5,0.2-2.7,1.9-2.7c1.4,0,1.8,0.8,1.8,2.5V71H171z M173,70.4c0-1.5-0.4-1.6-1-1.6c-0.5,0-0.9,0.2-1,1.6H173z"/>
	<path class="st0" d="M176.7,73.3c-1.1,0-1.8-0.5-1.7-1.6h0.9c0,0.3,0,1,0.8,1c0.5,0,0.9-0.2,0.9-0.8c0-0.9-2.5-0.9-2.5-2.4
		c0-0.5,0.3-1.4,1.7-1.4c0.9,0,1.7,0.4,1.6,1.4h-0.9c0-0.5-0.3-0.8-0.8-0.8c-0.4,0-0.8,0.2-0.8,0.7c0,0.9,2.5,0.9,2.5,2.4
		C178.5,72.9,177.7,73.3,176.7,73.3z"/>
	<path class="st0" d="M7.5,85.6v-3.5c0-0.5-0.1-1-0.8-1c-0.2,0-0.6,0.2-0.7,0.3c-0.1,0.2-0.2,0.5-0.2,0.7v3.4H5v-4c0-0.3,0-0.7,0-1
		h0.9v0.6h0c0.2-0.5,0.7-0.7,1.3-0.7c0.5,0,1,0.2,1.2,0.7c0.3-0.5,0.7-0.7,1.2-0.7c0.5,0,1.4,0.1,1.4,1.3v3.8H10v-3.5
		c0-0.5-0.1-1-0.8-1c-0.3,0-0.4,0-0.6,0.2c-0.2,0.2-0.3,0.7-0.3,0.9v3.4H7.5z"/>
	<path class="st0" d="M12.1,83.2c0-1.5,0.2-2.7,1.9-2.7s1.9,1.2,1.9,2.7c0,2.2-0.8,2.5-1.9,2.5S12.1,85.4,12.1,83.2z M15.1,82.8
		c0-1.4-0.4-1.7-1.1-1.7c-0.6,0-1.1,0.3-1.1,1.7c0,1.6,0.2,2.2,1.1,2.2S15.1,84.5,15.1,82.8z"/>
	<path class="st0" d="M18.1,81.4L18.1,81.4c0.4-0.8,0.8-0.9,1.6-0.9v0.8c-0.1,0-0.1,0-0.2,0c-0.1,0-0.1,0-0.2,0
		c-0.9,0-1.1,0.7-1.1,1.4v3h-0.8v-5h0.8V81.4z"/>
	<path class="st0" d="M21.4,83.4c0,1.4,0.4,1.7,1,1.7c0.6,0,0.8-0.5,0.9-1h0.9c0,1.1-0.7,1.6-1.8,1.6c-1.1,0-1.9-0.3-1.9-2.5
		c0-1.5,0.2-2.7,1.9-2.7c1.4,0,1.8,0.8,1.8,2.5v0.4H21.4z M23.4,82.8c0-1.5-0.4-1.6-1-1.6c-0.5,0-0.9,0.2-1,1.6H23.4z"/>
	<path class="st0" d="M32.8,84.4c0,0.4,0.1,0.8,0.1,1.2h-1.7l-0.1-0.9h0c-0.4,0.7-0.9,1-1.7,1c-1.3,0-1.7-0.9-1.7-2.1
		c0-2.2,1.7-2.3,3.4-2.2v-0.5c0-0.6-0.1-1-0.7-1c-0.6,0-0.7,0.5-0.7,1h-1.8c0-0.8,0.2-1.3,0.7-1.6c0.4-0.3,1-0.4,1.7-0.4
		c2.3,0,2.6,1,2.6,2.2V84.4z M29.4,83.6c0,0.5,0.1,1,0.7,1c1.1,0,0.9-1.5,0.9-2.2C30.1,82.5,29.4,82.4,29.4,83.6z"/>
	<path class="st0" d="M33.7,79.1h1.8l0.9,4.9h0l1.3-4.9h1.9l1.2,4.9h0l1-4.9h1.8l-1.8,6.6h-1.9l-1.2-4.5h0l-1.3,4.5h-1.9L33.7,79.1z
		"/>
	<path class="st0" d="M44.4,85.6v-9.4h1.8v5.6h0l1.7-2.8h1.9L48,82l2.1,3.6H48l-1.7-3.6h0v3.6H44.4z"/>
	<path class="st0" d="M50.3,79.1h1.8l0.9,4.9h0l1.3-4.9h1.9l1.2,4.9h0l1-4.9h1.8l-1.8,6.6h-1.9l-1.2-4.5h0l-1.3,4.5H52L50.3,79.1z"
		/>
	<path class="st0" d="M66,84.4c0,0.4,0.1,0.8,0.1,1.2h-1.7l-0.1-0.9h0c-0.4,0.7-0.9,1-1.7,1c-1.3,0-1.7-0.9-1.7-2.1
		c0-2.2,1.7-2.3,3.4-2.2v-0.5c0-0.6-0.1-1-0.7-1c-0.6,0-0.7,0.5-0.7,1H61c0-0.8,0.2-1.3,0.7-1.6c0.4-0.3,1-0.4,1.7-0.4
		c2.3,0,2.6,1,2.6,2.2V84.4z M62.6,83.6c0,0.5,0.1,1,0.7,1c1.1,0,0.9-1.5,0.9-2.2C63.3,82.5,62.6,82.4,62.6,83.6z"/>
	<path class="st0" d="M69.3,79.1v0.8h0c0.3-0.8,1-1,1.7-1v1.6c-1.6-0.1-1.6,0.8-1.6,1.5v3.6h-1.8v-6.6H69.3z"/>
	<path class="st0" d="M75.2,85.6v-0.7h0c-0.3,0.6-0.8,0.9-1.5,0.9c-1.9,0-1.8-2.1-1.8-3.5c0-1.3-0.1-3.4,1.8-3.4
		c0.7,0,1.1,0.2,1.5,0.8h0v-3.4h1.8v9.4H75.2z M75.1,82.3c0-1.3,0-2.2-0.7-2.2c-0.8,0-0.8,0.9-0.8,2.2c0,1.7,0.1,2.3,0.8,2.3
		C74.9,84.6,75.1,83.9,75.1,82.3z"/>
	<path class="st0" d="M80.4,83.2c0-1.5,0.2-2.7,1.9-2.7s1.9,1.2,1.9,2.7c0,2.2-0.8,2.5-1.9,2.5S80.4,85.4,80.4,83.2z M83.4,82.8
		c0-1.4-0.4-1.7-1.1-1.7c-0.6,0-1.1,0.3-1.1,1.7c0,1.6,0.2,2.2,1.1,2.2S83.4,84.5,83.4,82.8z"/>
	<path class="st0" d="M86.4,81.4L86.4,81.4c0.4-0.8,0.8-0.9,1.6-0.9v0.8c-0.1,0-0.2,0-0.2,0c-0.1,0-0.1,0-0.2,0
		c-0.9,0-1.1,0.7-1.1,1.4v3h-0.8v-5h0.8V81.4z"/>
	<path class="st0" d="M94.5,81.4c0-1-0.2-1.3-0.8-1.3c-0.8,0-0.8,0.7-0.8,2.1c0,2,0.2,2.4,0.8,2.4c0.6,0,0.8-0.5,0.8-1.4h1.8
		c0,1.8-1,2.5-2.7,2.5c-2.4,0-2.7-1.4-2.7-3.5c0-1.8,0.3-3.3,2.7-3.3c1.7,0,2.7,0.8,2.7,2.5H94.5z"/>
	<path class="st0" d="M99.6,76.3v9.4h-1.8v-9.4H99.6z"/>
	<path class="st0" d="M104.5,85L104.5,85c-0.2,0.3-0.4,0.5-0.7,0.6c-0.3,0.1-0.5,0.2-0.9,0.2c-0.9,0-1.6-0.5-1.6-1.4v-5.3h1.8v4.6
		c0,0.6,0.1,1,0.7,1s0.7-0.4,0.7-1v-4.6h1.8v5.3c0,0.4,0,0.9,0.1,1.3h-1.9V85z"/>
	<path class="st0" d="M109.4,79.7L109.4,79.7c0.4-0.6,0.9-0.8,1.6-0.8c0.7,0,1.2,0.3,1.5,0.8c0.4-0.6,0.9-0.8,1.7-0.8
		c0.9,0,1.6,0.5,1.6,1.4v5.3H114v-4.5c0-0.6-0.1-1-0.7-1s-0.7,0.5-0.7,1v4.5h-1.8v-4.5c0-0.6-0.1-1-0.7-1s-0.7,0.5-0.7,1v4.5h-1.8
		v-6.6h1.8V79.7z"/>
	<path class="st0" d="M118.6,83.5c0,0.3,0,0.6,0.1,0.8c0.1,0.2,0.3,0.3,0.7,0.3c0.4,0,0.7-0.2,0.7-0.7c0-1.4-3.2-1.1-3.2-3.2
		c0-1.4,1.4-1.8,2.6-1.8c1.2,0,2.4,0.6,2.3,2h-1.8c0-0.5-0.1-0.7-0.2-0.8c-0.1-0.1-0.3-0.1-0.5-0.1c-0.4,0-0.6,0.3-0.6,0.7
		c0,1,3.2,1,3.2,3.1c0,1.1-0.9,2-2.5,2c-1.6,0-2.7-0.4-2.6-2.2H118.6z"/>
	<path class="st0" d="M124.1,85.7l-1.8-6.6h1.8l0.9,4.6h0l1-4.6h1.8l-2.5,9h-1.9L124.1,85.7z"/>
	<path class="st0" d="M131,80.6v-1l0.8-0.4v1.3h1.1v0.6h-1.1v3.1c0,0.3,0,0.7,0.8,0.7c0.1,0,0.2,0,0.4,0v0.6c-0.3,0-0.5,0.1-0.8,0.1
		c-0.8,0-1.1-0.3-1.1-0.9v-3.6h-0.8v-0.6H131z"/>
	<path class="st0" d="M136.4,85.6v-3.4c0-0.6-0.2-1.1-0.9-1.1c-0.8,0-1,0.7-1,1.5v3h-0.8v-7.2h0.8v2.8h0c0.3-0.6,0.7-0.8,1.4-0.8
		c0.9,0,1.3,0.4,1.3,1.6v3.6H136.4z"/>
	<path class="st0" d="M141.3,84.9L141.3,84.9c-0.3,0.6-0.7,0.8-1.3,0.8c-1.1,0-1.4-0.7-1.4-1.7c0-1.5,1.5-1.6,2.6-1.6
		c0-0.7,0-1.4-0.8-1.4c-0.5,0-0.8,0.4-0.8,0.9h-0.9c0-1.1,0.6-1.5,1.7-1.5c1.3,0,1.6,0.7,1.6,1.5v2.4c0,0.4,0,0.8,0.1,1.2h-0.9V84.9
		z M139.4,84.1c0,0.5,0.2,0.9,0.8,0.9c0.5,0,1.1-0.3,1-1.9C140.5,83.1,139.4,83.1,139.4,84.1z"/>
	<path class="st0" d="M146.4,85.6v-3.5c0-0.5-0.2-1-0.9-1c-0.9,0-1,0.8-1,1.5v3h-0.8v-4c0-0.3,0-0.7,0-1h0.9v0.6h0
		c0.3-0.6,0.7-0.8,1.3-0.8c1.1,0,1.3,0.7,1.3,1.6v3.5H146.4z"/>
	<path class="st0" d="M153.5,84.9L153.5,84.9c-0.3,0.6-0.7,0.8-1.3,0.8c-1.1,0-1.4-0.7-1.4-1.7c0-1.5,1.5-1.6,2.6-1.6
		c0-0.7,0-1.4-0.8-1.4c-0.5,0-0.8,0.4-0.8,0.9h-0.9c0-1.1,0.6-1.5,1.7-1.5c1.3,0,1.6,0.7,1.6,1.5v2.4c0,0.4,0,0.8,0.1,1.2h-0.9V84.9
		z M151.6,84.1c0,0.5,0.2,0.9,0.8,0.9c0.5,0,1.1-0.3,1-1.9C152.7,83.1,151.6,83.1,151.6,84.1z"/>
	<path class="st0" d="M155.3,80.6h0.9l1.1,4.3h0l1.2-4.3h0.9l-1.6,5h-1.1L155.3,80.6z"/>
	<path class="st0" d="M161.1,83.4c0,1.4,0.4,1.7,1,1.7c0.6,0,0.8-0.5,0.9-1h0.9c0,1.1-0.7,1.6-1.8,1.6c-1.1,0-1.9-0.3-1.9-2.5
		c0-1.5,0.2-2.7,1.9-2.7c1.4,0,1.8,0.8,1.8,2.5v0.4H161.1z M163.1,82.8c0-1.5-0.4-1.6-1-1.6c-0.5,0-0.9,0.2-1,1.6H163.1z"/>
	<path class="st0" d="M166.2,81.4L166.2,81.4c0.4-0.8,0.8-0.9,1.6-0.9v0.8c-0.1,0-0.2,0-0.2,0c-0.1,0-0.1,0-0.2,0
		c-0.9,0-1.1,0.7-1.1,1.4v3h-0.8v-5h0.8V81.4z"/>
	<path class="st0" d="M171.3,84.9L171.3,84.9c-0.3,0.6-0.7,0.8-1.3,0.8c-1.1,0-1.4-0.7-1.4-1.7c0-1.5,1.5-1.6,2.6-1.6
		c0-0.7,0-1.4-0.8-1.4c-0.5,0-0.8,0.4-0.8,0.9h-0.9c0-1.1,0.6-1.5,1.7-1.5c1.3,0,1.6,0.7,1.6,1.5v2.4c0,0.4,0,0.8,0.1,1.2h-0.9V84.9
		z M169.4,84.1c0,0.5,0.2,0.9,0.8,0.9c0.5,0,1.1-0.3,1-1.9C170.5,83.1,169.4,83.1,169.4,84.1z"/>
	<path class="st0" d="M176.3,80.6h0.8v5.6c0,1.1-0.8,1.4-1.9,1.4c-0.8,0-1.6-0.4-1.5-1.3h0.9c0,0.5,0.3,0.7,0.8,0.7
		c0.6,0,0.9-0.3,0.9-0.9v-1h0c-0.2,0.4-0.7,0.6-1.1,0.6c-1.4,0-1.6-1.2-1.6-2.7c0-2.3,1.2-2.5,1.6-2.5c0.5,0,1,0.2,1.2,0.7h0V80.6z
		 M175.4,81.2c-0.9,0-1,1.1-1,1.8c0,1.6,0.4,2,1,2c1,0,1-1.2,1-1.9C176.4,82.3,176.4,81.2,175.4,81.2z"/>
	<path class="st0" d="M179.5,83.4c0,1.4,0.4,1.7,1,1.7c0.6,0,0.8-0.5,0.9-1h0.9c0,1.1-0.7,1.6-1.8,1.6c-1.1,0-1.9-0.3-1.9-2.5
		c0-1.5,0.2-2.7,1.9-2.7c1.4,0,1.8,0.8,1.8,2.5v0.4H179.5z M181.4,82.8c0-1.5-0.4-1.6-1-1.6c-0.5,0-0.9,0.2-1,1.6H181.4z"/>
	<path class="st0" d="M184.5,85.6h-0.9v-1h0.9V85.6z"/>
</g>
</svg>
