<?xml version="1.0" encoding="utf-8"?>
<!-- Generator: Adobe Illustrator 19.2.1, SVG Export Plug-In . SVG Version: 6.00 Build 0)  -->
<!DOCTYPE svg PUBLIC "-//W3C//DTD SVG 1.1//EN" "http://www.w3.org/Graphics/SVG/1.1/DTD/svg11.dtd">
<svg version="1.1" id="Layer_1" xmlns="http://www.w3.org/2000/svg" xmlns:xlink="http://www.w3.org/1999/xlink" x="0px" y="0px"
	 width="309.8px" height="187px" viewBox="0 0 309.8 187" style="enable-background:new 0 0 309.8 187;" xml:space="preserve">
<style type="text/css">
	.Drop_x0020_Shadow{fill:none;}
	.Outer_x0020_Glow_x0020_5_x0020_pt{fill:none;}
	.Blue_x0020_Neon{fill:none;stroke:#8AACDA;stroke-width:7;stroke-linecap:round;stroke-linejoin:round;}
	.Chrome_x0020_Highlight{fill:url(#SVGID_1_);stroke:#FFFFFF;stroke-width:0.3629;stroke-miterlimit:1;}
	.Jive_GS{fill:#FFDD00;}
	.Alyssa_GS{fill:#A6D0E4;}
	.st0{fill:#0A3656;}
	.st1{fill:#ECD177;}
	.st2{fill:#ED5A49;}
	.st3{fill:none;stroke:#0A3656;stroke-width:0.3467;stroke-linecap:round;stroke-linejoin:round;stroke-miterlimit:10;}
	.st4{fill:#ED5A49;stroke:#ED5A49;stroke-width:0.1444;stroke-miterlimit:10;}
	.st5{fill:#E9F5FC;}
	.st6{opacity:0.26;fill:#337D7D;}
	.st7{fill:none;}
	.st8{fill:#DDE8F0;stroke:#DDE8F0;stroke-width:0.5;stroke-miterlimit:10;}
	.st9{fill:none;stroke:#ECD177;stroke-width:0.9;stroke-miterlimit:10;}
	
		.st10{fill:none;stroke:#0A3656;stroke-width:2;stroke-linecap:round;stroke-linejoin:round;stroke-miterlimit:10;stroke-dasharray:0,8;}
	.st11{fill:none;stroke:#ECD177;stroke-width:0.9;stroke-linecap:round;stroke-linejoin:round;stroke-miterlimit:10;}
	.st12{fill:none;stroke:#ECD177;stroke-linecap:round;stroke-linejoin:round;stroke-miterlimit:10;}
</style>
<linearGradient id="SVGID_1_" gradientUnits="userSpaceOnUse" x1="494" y1="258" x2="494" y2="257">
	<stop  offset="0" style="stop-color:#656565"/>
	<stop  offset="0.618" style="stop-color:#1B1B1B"/>
	<stop  offset="0.6292" style="stop-color:#545454"/>
	<stop  offset="0.9831" style="stop-color:#3E3E3E"/>
</linearGradient>
<g>
	<path class="st0" d="M30.7,33.1h-0.9v-7.2h1.5l1.8,6.1h0l1.8-6.1h1.5v7.2h-0.9v-6.4h0l-2,6.4h-0.9l-2-6.4h0V33.1z"/>
	<path class="st0" d="M38,30.7c0-1.5,0.2-2.7,1.9-2.7s1.9,1.2,1.9,2.7c0,2.2-0.8,2.5-1.9,2.5S38,32.9,38,30.7z M41,30.3
		c0-1.4-0.4-1.7-1.1-1.7c-0.6,0-1.1,0.3-1.1,1.7c0,1.6,0.2,2.2,1.1,2.2S41,32,41,30.3z"/>
	<path class="st0" d="M44,28.8L44,28.8c0.4-0.8,0.8-0.9,1.6-0.9v0.8c-0.1,0-0.1,0-0.2,0c-0.1,0-0.1,0-0.2,0c-0.9,0-1.1,0.7-1.1,1.4
		v3h-0.8v-5H44V28.8z"/>
	<path class="st0" d="M47.2,30.9c0,1.4,0.4,1.7,1,1.7c0.6,0,0.8-0.4,0.9-1H50c0,1.1-0.7,1.6-1.8,1.6c-1.1,0-1.9-0.3-1.9-2.5
		c0-1.5,0.2-2.7,1.9-2.7c1.4,0,1.8,0.8,1.8,2.5v0.4H47.2z M49.2,30.2c0-1.5-0.4-1.6-1-1.6c-0.5,0-0.9,0.2-1,1.6H49.2z"/>
	<path class="st0" d="M53.8,28.1v-1l0.8-0.4v1.3h1.1v0.6h-1.1v3.1c0,0.3,0,0.7,0.8,0.7c0.1,0,0.2,0,0.4,0v0.6
		c-0.3,0-0.5,0.1-0.8,0.1c-0.8,0-1.1-0.3-1.1-0.9v-3.6h-0.8v-0.6H53.8z"/>
	<path class="st0" d="M59.2,33.1v-3.4c0-0.6-0.2-1.1-0.9-1.1c-0.8,0-1,0.7-1,1.5v3h-0.8v-7.2h0.8v2.8h0c0.3-0.6,0.7-0.7,1.4-0.7
		c0.9,0,1.3,0.4,1.3,1.6v3.6H59.2z"/>
	<path class="st0" d="M64,32.4L64,32.4c-0.3,0.6-0.7,0.8-1.3,0.8c-1.1,0-1.4-0.7-1.4-1.7c0-1.5,1.5-1.6,2.6-1.6c0-0.7,0-1.4-0.8-1.4
		c-0.5,0-0.8,0.4-0.8,0.9h-0.9c0-1.1,0.6-1.5,1.7-1.5c1.3,0,1.6,0.7,1.6,1.5v2.4c0,0.4,0,0.8,0.1,1.2H64V32.4z M62.2,31.6
		c0,0.5,0.2,0.9,0.8,0.9c0.5,0,1.1-0.3,1-1.9C63.2,30.6,62.2,30.6,62.2,31.6z"/>
	<path class="st0" d="M69.2,33.1v-3.5c0-0.5-0.2-1-0.9-1c-0.9,0-1,0.8-1,1.5v3h-0.8v-4c0-0.3,0-0.7-0.1-1h0.9v0.6h0
		c0.3-0.6,0.7-0.7,1.3-0.7c1.1,0,1.3,0.6,1.3,1.6v3.5H69.2z"/>
	<path class="st0" d="M73.4,27.2c0.5-0.3,1-0.6,1.3-1.1h1.3v7h-1.5v-5.4c-0.4,0.3-0.8,0.6-1.2,0.8V27.2z"/>
	<path class="st0" d="M80.1,27.7c0-0.2,0-0.3-0.1-0.5c-0.1-0.1-0.2-0.2-0.4-0.2C79,27,79,27.3,79,29.1c0.4-0.3,0.6-0.5,1.1-0.5
		c1.3,0,1.5,1.1,1.5,2.2c0,1.4-0.5,2.4-2.1,2.4c-1.8,0-1.9-1.6-1.9-3c0-2.8,0.1-4.2,2.1-4.2c1.1,0,1.8,0.4,1.8,1.6H80.1z M80.2,30.8
		c0-0.9-0.1-1.3-0.6-1.3C79,29.6,79,30.1,79,31c0,0.4,0,1.2,0.6,1.2C80,32.2,80.2,31.9,80.2,30.8z"/>
	<path class="st0" d="M86.1,29.6c0,2.2-0.1,3.6-2,3.6s-2-1.4-2-3.6c0-2.7,0.3-3.6,2-3.6S86.1,26.9,86.1,29.6z M83.4,29.6
		c0,2.1,0.1,2.6,0.6,2.6s0.6-0.4,0.6-2.6c0-2.1,0-2.6-0.6-2.6S83.4,27.5,83.4,29.6z"/>
	<path class="st0" d="M86.9,31.8h1.3l-0.8,2.3h-1L86.9,31.8z"/>
	<path class="st0" d="M92.7,29.6c0,2.2-0.1,3.6-2,3.6s-2-1.4-2-3.6c0-2.7,0.3-3.6,2-3.6S92.7,26.9,92.7,29.6z M90.1,29.6
		c0,2.1,0.1,2.6,0.6,2.6s0.6-0.4,0.6-2.6c0-2.1,0-2.6-0.6-2.6S90.1,27.5,90.1,29.6z"/>
	<path class="st0" d="M97.2,29.6c0,2.2-0.1,3.6-2,3.6s-2-1.4-2-3.6c0-2.7,0.3-3.6,2-3.6S97.2,26.9,97.2,29.6z M94.5,29.6
		c0,2.1,0.1,2.6,0.6,2.6s0.6-0.4,0.6-2.6c0-2.1,0-2.6-0.6-2.6S94.5,27.5,94.5,29.6z"/>
	<path class="st0" d="M101.6,29.6c0,2.2-0.1,3.6-2,3.6s-2-1.4-2-3.6c0-2.7,0.3-3.6,2-3.6S101.6,26.9,101.6,29.6z M99,29.6
		c0,2.1,0.1,2.6,0.6,2.6s0.6-0.4,0.6-2.6c0-2.1,0-2.6-0.6-2.6S99,27.5,99,29.6z"/>
	<path class="st0" d="M106.5,25.9h1.2l2.3,7.2h-1l-0.5-1.7h-2.8l-0.5,1.7h-0.9L106.5,25.9z M107,26.8L107,26.8l-1.1,3.8h2.3
		L107,26.8z"/>
	<path class="st0" d="M113.3,33.1v-3.5c0-0.5-0.1-1-0.8-1c-0.2,0-0.6,0.1-0.7,0.3c-0.1,0.2-0.2,0.5-0.2,0.7v3.4h-0.8v-4
		c0-0.3,0-0.7,0-1h0.9v0.6h0c0.2-0.5,0.7-0.7,1.3-0.7c0.5,0,1,0.2,1.2,0.6c0.3-0.5,0.7-0.6,1.2-0.6c0.5,0,1.4,0.1,1.4,1.3v3.8h-0.8
		v-3.5c0-0.5-0.1-1-0.8-1c-0.3,0-0.4,0-0.6,0.2c-0.2,0.2-0.3,0.7-0.3,0.9v3.4H113.3z"/>
	<path class="st0" d="M118.9,30.9c0,1.4,0.4,1.7,1,1.7c0.6,0,0.8-0.4,0.9-1h0.9c0,1.1-0.7,1.6-1.8,1.6c-1.1,0-1.9-0.3-1.9-2.5
		c0-1.5,0.2-2.7,1.9-2.7c1.4,0,1.8,0.8,1.8,2.5v0.4H118.9z M120.8,30.2c0-1.5-0.4-1.6-1-1.6c-0.5,0-0.9,0.2-1,1.6H120.8z"/>
	<path class="st0" d="M123.9,28.8L123.9,28.8c0.4-0.8,0.8-0.9,1.6-0.9v0.8c-0.1,0-0.1,0-0.2,0c-0.1,0-0.1,0-0.2,0
		c-0.9,0-1.1,0.7-1.1,1.4v3h-0.8v-5h0.8V28.8z"/>
	<path class="st0" d="M126.3,25.9h0.9v0.9h-0.9V25.9z M127.2,33.1h-0.8v-5h0.8V33.1z"/>
	<path class="st0" d="M131.3,29.7c0-0.8-0.4-1-0.7-1c-0.6,0-1.1,0.3-1.1,1.7c0,1.6,0.2,2.2,1.1,2.2c0.2,0,0.8-0.2,0.7-1.1h0.9
		c0,1.4-1,1.8-1.6,1.8c-1.1,0-1.9-0.3-1.9-2.5c0-1.5,0.2-2.7,1.9-2.7c1,0,1.6,0.6,1.5,1.7H131.3z"/>
	<path class="st0" d="M136.2,32.4L136.2,32.4c-0.3,0.6-0.7,0.8-1.3,0.8c-1.1,0-1.4-0.7-1.4-1.7c0-1.5,1.5-1.6,2.6-1.6
		c0-0.7,0-1.4-0.8-1.4c-0.5,0-0.8,0.4-0.8,0.9h-0.9c0-1.1,0.6-1.5,1.7-1.5c1.3,0,1.6,0.7,1.6,1.5v2.4c0,0.4,0,0.8,0.1,1.2h-0.9V32.4
		z M134.4,31.6c0,0.5,0.2,0.9,0.8,0.9c0.5,0,1.1-0.3,1-1.9C135.4,30.6,134.4,30.6,134.4,31.6z"/>
	<path class="st0" d="M141.4,33.1v-3.5c0-0.5-0.2-1-0.9-1c-0.9,0-1,0.8-1,1.5v3h-0.8v-4c0-0.3,0-0.7-0.1-1h0.9v0.6h0
		c0.3-0.6,0.7-0.7,1.3-0.7c1.1,0,1.3,0.6,1.3,1.6v3.5H141.4z"/>
	<path class="st0" d="M145.1,33.2c-1.1,0-1.8-0.5-1.7-1.6h0.9c0,0.3,0,1,0.8,1c0.5,0,0.9-0.2,0.9-0.8c0-0.9-2.5-0.9-2.5-2.4
		c0-0.5,0.3-1.4,1.7-1.4c0.9,0,1.7,0.4,1.6,1.4h-0.9c0-0.5-0.3-0.8-0.8-0.8c-0.4,0-0.8,0.2-0.8,0.7c0,0.9,2.5,0.9,2.5,2.4
		C146.9,32.8,146.1,33.2,145.1,33.2z"/>
	<path class="st0" d="M150.4,28.1v-1l0.8-0.4v1.3h1.1v0.6h-1.1v3.1c0,0.3,0,0.7,0.8,0.7c0.1,0,0.2,0,0.4,0v0.6
		c-0.3,0-0.5,0.1-0.8,0.1c-0.8,0-1.1-0.3-1.1-0.9v-3.6h-0.8v-0.6H150.4z"/>
	<path class="st0" d="M152.9,30.7c0-1.5,0.2-2.7,1.9-2.7s1.9,1.2,1.9,2.7c0,2.2-0.8,2.5-1.9,2.5S152.9,32.9,152.9,30.7z M155.9,30.3
		c0-1.4-0.4-1.7-1.1-1.7c-0.6,0-1.1,0.3-1.1,1.7c0,1.6,0.2,2.2,1.1,2.2S155.9,32,155.9,30.3z"/>
	<path class="st0" d="M157.9,30.7c0-1.5,0.2-2.7,1.9-2.7s1.9,1.2,1.9,2.7c0,2.2-0.8,2.5-1.9,2.5S157.9,32.9,157.9,30.7z M160.9,30.3
		c0-1.4-0.4-1.7-1.1-1.7c-0.6,0-1.1,0.3-1.1,1.7c0,1.6,0.2,2.2,1.1,2.2S160.9,32,160.9,30.3z"/>
	<path class="st0" d="M163.9,33.1h-0.8v-7.2h0.8v4.3h0l1.5-2.2h1l-1.7,2.2l2,2.9h-1l-1.8-2.8h0V33.1z"/>
	<path class="st0" d="M172.3,32.4L172.3,32.4c-0.3,0.6-0.7,0.8-1.3,0.8c-1.1,0-1.4-0.7-1.4-1.7c0-1.5,1.5-1.6,2.6-1.6
		c0-0.7,0-1.4-0.8-1.4c-0.5,0-0.8,0.4-0.8,0.9h-0.9c0-1.1,0.6-1.5,1.7-1.5c1.3,0,1.6,0.7,1.6,1.5v2.4c0,0.4,0,0.8,0.1,1.2h-0.9V32.4
		z M170.5,31.6c0,0.5,0.2,0.9,0.8,0.9c0.5,0,1.1-0.3,1-1.9C171.5,30.6,170.5,30.6,170.5,31.6z"/>
	<path class="st0" d="M178.4,33.2c-1.1,0-1.8-0.5-1.7-1.6h0.9c0,0.3,0,1,0.8,1c0.5,0,0.9-0.2,0.9-0.8c0-0.9-2.5-0.9-2.5-2.4
		c0-0.5,0.3-1.4,1.7-1.4c0.9,0,1.7,0.4,1.6,1.4h-0.9c0-0.5-0.3-0.8-0.8-0.8c-0.4,0-0.8,0.2-0.8,0.7c0,0.9,2.5,0.9,2.5,2.4
		C180.2,32.8,179.4,33.2,178.4,33.2z"/>
	<path class="st0" d="M182.3,28.7L182.3,28.7c0.3-0.5,0.6-0.7,1.2-0.7c0.8,0,1.6,0.3,1.6,2.5c0,1.3,0,2.7-1.7,2.7
		c-0.5,0-0.8-0.2-1.1-0.6h0V35h-0.8v-7h0.8V28.7z M184.2,30.5c0-0.8,0-1.9-1-1.9c-1,0-0.9,1.4-0.9,2.2c0,0.7,0,1.7,0.9,1.7
		C184.1,32.6,184.2,31.9,184.2,30.5z"/>
	<path class="st0" d="M187.2,30.9c0,1.4,0.4,1.7,1,1.7c0.6,0,0.8-0.4,0.9-1h0.9c0,1.1-0.7,1.6-1.8,1.6c-1.1,0-1.9-0.3-1.9-2.5
		c0-1.5,0.2-2.7,1.9-2.7c1.4,0,1.8,0.8,1.8,2.5v0.4H187.2z M189.2,30.2c0-1.5-0.4-1.6-1-1.6c-0.5,0-0.9,0.2-1,1.6H189.2z"/>
	<path class="st0" d="M194,29.7c0-0.8-0.4-1-0.7-1c-0.6,0-1.1,0.3-1.1,1.7c0,1.6,0.2,2.2,1.1,2.2c0.2,0,0.8-0.2,0.7-1.1h0.9
		c0,1.4-1,1.8-1.6,1.8c-1.1,0-1.9-0.3-1.9-2.5c0-1.5,0.2-2.7,1.9-2.7c1,0,1.6,0.6,1.5,1.7H194z"/>
	<path class="st0" d="M196.3,25.9h0.9v0.9h-0.9V25.9z M197.2,33.1h-0.8v-5h0.8V33.1z"/>
	<path class="st0" d="M201.2,32.4L201.2,32.4c-0.3,0.6-0.7,0.8-1.3,0.8c-1.1,0-1.4-0.7-1.4-1.7c0-1.5,1.5-1.6,2.6-1.6
		c0-0.7,0-1.4-0.8-1.4c-0.5,0-0.8,0.4-0.8,0.9h-0.9c0-1.1,0.6-1.5,1.7-1.5c1.3,0,1.6,0.7,1.6,1.5v2.4c0,0.4,0,0.8,0.1,1.2h-0.9V32.4
		z M199.4,31.6c0,0.5,0.2,0.9,0.8,0.9c0.5,0,1.1-0.3,1-1.9C200.4,30.6,199.4,30.6,199.4,31.6z"/>
	<path class="st0" d="M204.4,33.1h-0.8v-7.2h0.8V33.1z"/>
	<path class="st0" d="M208.9,33.1h-0.8v-7.2h0.8v2.7h0c0.3-0.4,0.6-0.6,1.1-0.6c1.6,0,1.7,1.4,1.7,2.7c0,2.2-0.8,2.5-1.6,2.5
		c-0.5,0-0.9-0.2-1.2-0.7h0V33.1z M209.9,32.6c1,0,1-1.1,1-1.9c0-1.3-0.1-2-1-2c-0.9,0-0.9,1.1-0.9,1.7
		C208.9,31.2,208.8,32.6,209.9,32.6z"/>
	<path class="st0" d="M213.9,28.8L213.9,28.8c0.4-0.8,0.8-0.9,1.6-0.9v0.8c-0.1,0-0.1,0-0.2,0c-0.1,0-0.1,0-0.2,0
		c-0.9,0-1.1,0.7-1.1,1.4v3h-0.8v-5h0.8V28.8z"/>
	<path class="st0" d="M219,32.4L219,32.4c-0.3,0.6-0.7,0.8-1.3,0.8c-1.1,0-1.4-0.7-1.4-1.7c0-1.5,1.5-1.6,2.6-1.6
		c0-0.7,0-1.4-0.8-1.4c-0.5,0-0.8,0.4-0.8,0.9h-0.9c0-1.1,0.6-1.5,1.7-1.5c1.3,0,1.6,0.7,1.6,1.5v2.4c0,0.4,0,0.8,0.1,1.2H219V32.4z
		 M217.1,31.6c0,0.5,0.2,0.9,0.8,0.9c0.5,0,1.1-0.3,1-1.9C218.2,30.6,217.1,30.6,217.1,31.6z"/>
	<path class="st0" d="M221.3,25.9h0.9v0.9h-0.9V25.9z M222.2,33.1h-0.8v-5h0.8V33.1z"/>
	<path class="st0" d="M226.3,33.1v-3.5c0-0.5-0.2-1-0.9-1c-0.9,0-1,0.8-1,1.5v3h-0.8v-4c0-0.3,0-0.7-0.1-1h0.9v0.6h0
		c0.3-0.6,0.7-0.7,1.3-0.7c1.1,0,1.3,0.6,1.3,1.6v3.5H226.3z"/>
	<path class="st0" d="M230.9,28.1v-1l0.8-0.4v1.3h1.1v0.6h-1.1v3.1c0,0.3,0,0.7,0.8,0.7c0.1,0,0.2,0,0.4,0v0.6
		c-0.3,0-0.5,0.1-0.8,0.1c-0.8,0-1.1-0.3-1.1-0.9v-3.6h-0.8v-0.6H230.9z"/>
	<path class="st0" d="M234.4,30.9c0,1.4,0.4,1.7,1,1.7c0.6,0,0.8-0.4,0.9-1h0.9c0,1.1-0.7,1.6-1.8,1.6c-1.1,0-1.9-0.3-1.9-2.5
		c0-1.5,0.2-2.7,1.9-2.7c1.4,0,1.8,0.8,1.8,2.5v0.4H234.4z M236.4,30.2c0-1.5-0.4-1.6-1-1.6c-0.5,0-0.9,0.2-1,1.6H236.4z"/>
	<path class="st0" d="M240.1,33.2c-1.1,0-1.8-0.5-1.7-1.6h0.9c0,0.3,0,1,0.8,1c0.5,0,0.9-0.2,0.9-0.8c0-0.9-2.5-0.9-2.5-2.4
		c0-0.5,0.3-1.4,1.7-1.4c0.9,0,1.7,0.4,1.6,1.4h-0.9c0-0.5-0.3-0.8-0.8-0.8c-0.4,0-0.8,0.2-0.8,0.7c0,0.9,2.5,0.9,2.5,2.4
		C241.8,32.8,241.1,33.2,240.1,33.2z"/>
	<path class="st0" d="M243.1,28.1v-1l0.8-0.4v1.3h1.1v0.6h-1.1v3.1c0,0.3,0,0.7,0.8,0.7c0.1,0,0.2,0,0.4,0v0.6
		c-0.3,0-0.5,0.1-0.8,0.1c-0.8,0-1.1-0.3-1.1-0.9v-3.6h-0.8v-0.6H243.1z"/>
	<path class="st0" d="M246.7,33.1h-0.9v-1h0.9V33.1z"/>
	<path class="st0" d="M33.9,37.9v0.8H32v6.4h-0.9v-6.4h-1.9v-0.8H33.9z"/>
	<path class="st0" d="M37.5,45.1v-3.4c0-0.6-0.2-1.1-0.9-1.1c-0.8,0-1,0.7-1,1.5v3h-0.8v-7.2h0.8v2.8h0C36,40.1,36.3,40,37,40
		c0.9,0,1.3,0.4,1.3,1.6v3.6H37.5z"/>
	<path class="st0" d="M40.6,42.9c0,1.4,0.4,1.7,1,1.7c0.6,0,0.8-0.4,0.9-1h0.9c0,1.1-0.7,1.6-1.8,1.6c-1.1,0-1.9-0.3-1.9-2.5
		c0-1.5,0.2-2.7,1.9-2.7c1.4,0,1.8,0.8,1.8,2.5v0.4H40.6z M42.6,42.2c0-1.5-0.4-1.6-1-1.6c-0.5,0-0.9,0.2-1,1.6H42.6z"/>
	<path class="st0" d="M47.9,40.8L47.9,40.8c0.4-0.8,0.8-0.9,1.6-0.9v0.8c-0.1,0-0.1,0-0.2,0c-0.1,0-0.1,0-0.2,0
		c-0.9,0-1.1,0.7-1.1,1.4v3H47v-5h0.8V40.8z"/>
	<path class="st0" d="M51.1,42.9c0,1.4,0.4,1.7,1,1.7c0.6,0,0.8-0.4,0.9-1h0.9c0,1.1-0.7,1.6-1.8,1.6c-1.1,0-1.9-0.3-1.9-2.5
		c0-1.5,0.2-2.7,1.9-2.7c1.4,0,1.8,0.8,1.8,2.5v0.4H51.1z M53.1,42.2c0-1.5-0.4-1.6-1-1.6c-0.5,0-0.9,0.2-1,1.6H53.1z"/>
	<path class="st0" d="M56.8,45.2c-1.1,0-1.8-0.5-1.7-1.6H56c0,0.3,0,1,0.8,1c0.5,0,0.9-0.2,0.9-0.8c0-0.9-2.5-0.9-2.5-2.4
		c0-0.5,0.3-1.4,1.7-1.4c0.9,0,1.7,0.4,1.6,1.4h-0.9c0-0.5-0.3-0.8-0.8-0.8c-0.4,0-0.8,0.2-0.8,0.7c0,0.9,2.5,0.9,2.5,2.4
		C58.6,44.8,57.8,45.2,56.8,45.2z"/>
	<path class="st0" d="M62.5,40.1h0.8v4c0,0.3,0,0.7,0,1h-0.9v-0.6h0c-0.3,0.5-0.7,0.7-1.3,0.7c-0.9,0-1.4-0.4-1.4-1.3v-3.8h0.8v3.5
		c0,0.6,0.3,1,0.9,1c0.4,0,1-0.3,1-1.2V40.1z"/>
	<path class="st0" d="M65.6,45.1h-0.8v-7.2h0.8V45.1z"/>
	<path class="st0" d="M67.1,40.1v-1l0.8-0.4v1.3H69v0.6h-1.1v3.1c0,0.3,0,0.7,0.8,0.7c0.1,0,0.2,0,0.4,0v0.6c-0.3,0-0.5,0.1-0.8,0.1
		c-0.8,0-1.1-0.3-1.1-0.9v-3.6h-0.8v-0.6H67.1z"/>
	<path class="st0" d="M71.3,45.2c-1.1,0-1.8-0.5-1.7-1.6h0.9c0,0.3,0,1,0.8,1c0.5,0,0.9-0.2,0.9-0.8c0-0.9-2.5-0.9-2.5-2.4
		c0-0.5,0.3-1.4,1.7-1.4c0.9,0,1.7,0.4,1.6,1.4h-0.9c0-0.5-0.3-0.8-0.8-0.8c-0.4,0-0.8,0.2-0.8,0.7c0,0.9,2.5,0.9,2.5,2.4
		C73,44.8,72.3,45.2,71.3,45.2z"/>
	<path class="st0" d="M77.9,45.2c-1.1,0-1.8-0.5-1.7-1.6h0.9c0,0.3,0,1,0.8,1c0.5,0,0.9-0.2,0.9-0.8c0-0.9-2.5-0.9-2.5-2.4
		c0-0.5,0.3-1.4,1.7-1.4c0.9,0,1.7,0.4,1.6,1.4h-0.9c0-0.5-0.3-0.8-0.8-0.8c-0.4,0-0.8,0.2-0.8,0.7c0,0.9,2.5,0.9,2.5,2.4
		C79.7,44.8,78.9,45.2,77.9,45.2z"/>
	<path class="st0" d="M83.6,45.1v-3.4c0-0.6-0.2-1.1-0.9-1.1c-0.8,0-1,0.7-1,1.5v3h-0.8v-7.2h0.8v2.8h0c0.3-0.6,0.7-0.7,1.4-0.7
		c0.9,0,1.3,0.4,1.3,1.6v3.6H83.6z"/>
	<path class="st0" d="M85.7,42.7c0-1.5,0.2-2.7,1.9-2.7s1.9,1.2,1.9,2.7c0,2.2-0.8,2.5-1.9,2.5S85.7,44.9,85.7,42.7z M88.7,42.3
		c0-1.4-0.4-1.7-1.1-1.7c-0.6,0-1.1,0.3-1.1,1.7c0,1.6,0.2,2.2,1.1,2.2S88.7,44,88.7,42.3z"/>
	<path class="st0" d="M90.2,40.1h0.9l0.9,4.3h0l1.1-4.3h1.2l1,4.3h0l1-4.3h0.9l-1.3,5h-1.1l-1.1-4.3h0l-1.1,4.3h-1.1L90.2,40.1z"/>
	<path class="st0" d="M98.9,42.9c0,1.4,0.4,1.7,1,1.7c0.6,0,0.8-0.4,0.9-1h0.9c0,1.1-0.7,1.6-1.8,1.6c-1.1,0-1.9-0.3-1.9-2.5
		c0-1.5,0.2-2.7,1.9-2.7c1.4,0,1.8,0.8,1.8,2.5v0.4H98.9z M100.9,42.2c0-1.5-0.4-1.6-1-1.6c-0.5,0-0.9,0.2-1,1.6H100.9z"/>
	<path class="st0" d="M105.8,37.9h0.8v7.2h-0.8v-0.6h0c-0.3,0.5-0.6,0.7-1.2,0.7c-0.8,0-1.6-0.3-1.6-2.5c0-1.3,0-2.7,1.7-2.7
		c0.5,0,0.8,0.2,1.1,0.6h0V37.9z M104.8,40.6c-0.9,0-1,0.7-1,2c0,0.8,0,1.9,1,1.9c0.9,0,0.9-1.1,0.9-2.2
		C105.8,41.7,105.7,40.6,104.8,40.6z"/>
	<path class="st0" d="M110.4,40.1v-1l0.8-0.4v1.3h1.1v0.6h-1.1v3.1c0,0.3,0,0.7,0.8,0.7c0.1,0,0.2,0,0.4,0v0.6
		c-0.3,0-0.5,0.1-0.8,0.1c-0.8,0-1.1-0.3-1.1-0.9v-3.6h-0.8v-0.6H110.4z"/>
	<path class="st0" d="M115.8,45.1v-3.4c0-0.6-0.2-1.1-0.9-1.1c-0.8,0-1,0.7-1,1.5v3h-0.8v-7.2h0.8v2.8h0c0.3-0.6,0.7-0.7,1.4-0.7
		c0.9,0,1.3,0.4,1.3,1.6v3.6H115.8z"/>
	<path class="st0" d="M120.7,44.4L120.7,44.4c-0.3,0.6-0.7,0.8-1.3,0.8c-1.1,0-1.4-0.7-1.4-1.7c0-1.5,1.5-1.6,2.6-1.6
		c0-0.7,0-1.4-0.8-1.4c-0.5,0-0.8,0.4-0.8,0.9h-0.9c0-1.1,0.6-1.5,1.7-1.5c1.3,0,1.6,0.7,1.6,1.5v2.4c0,0.4,0,0.8,0.1,1.2h-0.9V44.4
		z M118.8,43.6c0,0.5,0.2,0.9,0.8,0.9c0.5,0,1.1-0.3,1-1.9C119.9,42.6,118.8,42.6,118.8,43.6z"/>
	<path class="st0" d="M123.2,40.1v-1l0.8-0.4v1.3h1.1v0.6H124v3.1c0,0.3,0,0.7,0.8,0.7c0.1,0,0.2,0,0.4,0v0.6
		c-0.3,0-0.5,0.1-0.8,0.1c-0.8,0-1.1-0.3-1.1-0.9v-3.6h-0.8v-0.6H123.2z"/>
	<path class="st0" d="M126.7,41.1h-0.9v-1h0.9V41.1z M126.7,45.1h-0.9v-1h0.9V45.1z"/>
</g>
<g id="america">
	<path class="st2" d="M69.3,59.2c16.9,5.4,50.6,7.6,73,8.9c3.6,0.2,13.3-0.2,14.2,3.3c0.5,1.9-6.6,3.4-5.8,5.2c1,2,6.5-1.4,8.7-1.6
		c2.8-0.3,8.4-0.6,11.1,0c0.9,0.2,2.9,0.9,3.5,1.6c1.5,2.1,0.4,7.8,1,10.3c0.5,2,0.9,7,2.9,7.6c3.3,1.1,8.3-6.6,11.5-7.8
		c1.9-0.7,7.6-1,6.8-4.7c-0.8-3.7,9.8-5,12.4-7.6c2.1-2.1,0.3-10.3,3.1-11.3c2.9-1,5.9,4.1,8.7,8.7c0,0-8.1,6.7-8,9.9
		c0,0.5,0.5,1.2,1.1,1.9c1.3,1.5,1.1,3.8-0.6,4.9c-2.9,1.8-6.7,4.5-7.7,6.3c-1.7,3-2.2,10.4-1.6,13.8c0.4,2.4,3,6.5-0.2,9.7
		c-3.2,3.2-9.6,10.6-12.2,13.2c-2.6,2.6,2.3,11.1,4.3,16.3c2.1,5.2,5.2,17.1-0.6,11.3c-5.8-5.8-8.5-15.6-13.6-18.1
		c-2.5-1.2-8.4,0.8-11.1,1c-2.4,0.2-8.7-1.4-9.5,0.8c-0.5,1.4,4.6,2.8,4.1,4.1c-0.6,1.6-4.9,0.7-6.6,0.6c-2.6-0.1-7.7-2-10.3-1.9
		c-4.8,0.3-3.4,7.4-12.2,14.9c-1.1,1-4.7,0.8-6,0c-3.7-2.5-6.2-15.8-8.9-15.8s-3.5,3.1-4.9,3.3c-1.6,0.2-3.9-2.8-4.9-3.9
		c-1.7-1.9-3.4-7.1-5.6-8.5c-1.1-0.7-4.1-1.3-5.2-0.6c-0.5,0.3-0.3,2-0.8,2.3c-2.1,1.2-7.4-1.1-9.7-1.9c-2.8-0.9-9.3-2.6-10.7-5.2
		c-0.3-0.5,0.5-1.7,0.2-2.1c-1.4-1.7-7,0.6-8.7-0.8c-1.1-0.9-0.7-3-2.7-4.9c-2-2-5.8-4.4-7-6.4c-1-1.6-1.6-5.6-2.1-7.4
		c-1.4-5.5-3.5-15.7-1-22.7c2.5-7,5.2-12.5,6-16.9c0.4-2.4-2.2-8.8,0-9.7c1.6-0.7,3.3,5.5,4.9,4.9C69.9,63.7,68.1,58.8,69.3,59.2z"
		/>
	<path class="st12" d="M190.4,133.7l-70-30.1c-1.1-0.5-2.3,0.1-2.8,1.1l-12.3,30.5l27.3-68"/>
	<g>
		<path class="st8" d="M78.7,87.9c0,0.4,0.1,1.7,1.6,1.7c1,0,1.6-0.7,1.6-1.7c0-1.9-1.8-1.9-3.1-1.9v-2.1c1.3,0,3.1-0.1,3.1-1.9
			c0-1-0.7-1.5-1.5-1.5c-0.8,0-1.5,0.5-1.5,1.6h-2.8c0.1-0.6,0.1-1.4,0.7-2.1c0.8-1,2.2-1.4,3.5-1.4c3.2,0,4.2,2.1,4.2,3.4
			c0,2.1-1.9,2.7-2.4,2.8c0.4,0.1,0.9,0.3,1.5,0.8c0.9,0.7,1,1.7,1,2.3c0,2.1-1.9,3.7-4.6,3.7c-0.9,0-2.2-0.2-3-0.8
			C76,89.8,76,88.4,76,87.9H78.7z"/>
		<path class="st8" d="M86.3,78.7h8.5V81l-4.3,10.3h-3L92,80.8h-5.8V78.7z"/>
		<path class="st8" d="M99.5,77.6c2.5,0,2.9,1.6,2.9,3.3c0,0.9,0,3.6-3.1,3.6c-2.1,0-2.9-1.5-2.9-3.4C96.5,80.1,96.5,77.6,99.5,77.6
			z M99.4,83c0.6,0,1-0.4,1-2.1c0-0.7-0.1-1.9-1-1.9c-1.1,0-1.1,1.5-1.1,2C98.4,82.4,98.7,83,99.4,83z M107.6,77.4l-6.8,14.1h-1.4
			l6.8-14.1H107.6z M107.8,84.6c2.5,0,2.9,1.6,2.9,3.3c0,0.9,0,3.6-3.1,3.6c-2.1,0-2.9-1.5-2.9-3.4
			C104.8,87.1,104.8,84.6,107.8,84.6z M107.7,90c0.6,0,1-0.4,1-2.1c0-0.7-0.1-1.9-1-1.9c-1.1,0-1.1,1.4-1.1,2
			C106.7,89.3,106.9,90,107.7,90z"/>
	</g>
	<g>
		<path class="st5" d="M135.1,132.1l2.2-2c0.4-0.3,0.8-0.7,1.3-1.3c0.5-0.6,0.6-0.8,0.6-1.2c0-0.6-0.4-1.1-1-1.1c-1,0-1,1-1.1,1.2
			h-1.8c0-0.3,0-1,0.5-1.6c0.5-0.6,1.4-0.9,2.4-0.9c1.8,0,2.8,1,2.8,2.3c0,0.9-0.3,2-4,4.9c1.2,0,1.4,0,2.3,0c1.3,0,1.4,0,1.7,0v1.4
			h-5.9V132.1z"/>
		<path class="st5" d="M143.7,131.7c0,0.5,0.4,0.8,0.9,0.8c1.2,0,1.3-1.3,1.3-2.4c-0.6,0.5-1.1,0.6-1.5,0.6c-2.1,0-2.6-1.6-2.6-2.6
			c0-1.6,1.1-2.7,3-2.7c2.9,0,3,2.7,3,4.1c0,3.5-1.2,4.5-3.2,4.5c-0.5,0-2.6,0-2.6-2.2H143.7z M145.8,127.9c0-0.7-0.4-1.3-1.1-1.3
			c-0.9,0-1.2,0.7-1.2,1.3c0,0.3,0.1,1.3,1.1,1.3C145.6,129.3,145.8,128.5,145.8,127.9z"/>
		<path class="st5" d="M150.7,124.6c1.7,0,2,1.1,2,2.2c0,0.6,0,2.4-2,2.4c-1.4,0-1.9-1-1.9-2.3C148.7,126.3,148.8,124.6,150.7,124.6
			z M150.7,128.2c0.4,0,0.7-0.3,0.7-1.4c0-0.5,0-1.3-0.6-1.3c-0.7,0-0.7,1-0.7,1.3C150,127.8,150.2,128.2,150.7,128.2z M156.2,124.5
			l-4.6,9.4h-0.9l4.6-9.4H156.2z M156.3,129.3c1.7,0,2,1.1,2,2.2c0,0.6,0,2.4-2.1,2.4c-1.4,0-1.9-1-1.9-2.3
			C154.3,130.9,154.3,129.3,156.3,129.3z M156.2,132.9c0.4,0,0.7-0.3,0.7-1.4c0-0.5,0-1.3-0.7-1.3c-0.7,0-0.7,1-0.7,1.3
			C155.5,132.4,155.7,132.9,156.2,132.9z"/>
	</g>
	<g>
		<path class="st5" d="M164.5,105.1c0,0.3,0.1,1.1,1.1,1.1c0.7,0,1.1-0.5,1.1-1.1c0-1.2-1.2-1.2-2.1-1.2v-1.4c0.8,0,2.1,0,2.1-1.2
			c0-0.7-0.5-1-1-1c-0.5,0-1,0.3-1,1h-1.8c0-0.4,0.1-0.9,0.5-1.4c0.6-0.7,1.4-0.9,2.3-0.9c2.1,0,2.8,1.4,2.8,2.3
			c0,1.4-1.2,1.8-1.6,1.9c0.3,0.1,0.6,0.2,1,0.5c0.6,0.5,0.7,1.1,0.7,1.5c0,1.4-1.3,2.5-3,2.5c-0.6,0-1.5-0.1-2-0.6
			c-0.7-0.6-0.8-1.6-0.8-1.9H164.5z"/>
		<path class="st5" d="M169.2,105.5v-1.6l3.4-4.9h1.8l0,5.2h1.1v1.4h-1.1v1.8h-1.8v-1.8H169.2z M170.6,104.2h2.1V102
			c0-0.1,0-0.7,0-0.9L170.6,104.2z"/>
		<path class="st5" d="M178.3,98.2c1.7,0,2,1.1,2,2.2c0,0.6,0,2.4-2,2.4c-1.4,0-1.9-1-1.9-2.3C176.3,99.9,176.3,98.2,178.3,98.2z
			 M178.3,101.8c0.4,0,0.7-0.3,0.7-1.4c0-0.5,0-1.3-0.6-1.3c-0.7,0-0.7,1-0.7,1.3C177.6,101.4,177.8,101.8,178.3,101.8z M183.7,98.1
			l-4.6,9.4h-0.9l4.6-9.4H183.7z M183.8,102.8c1.7,0,2,1.1,2,2.2c0,0.6,0,2.4-2.1,2.4c-1.4,0-1.9-1-1.9-2.3
			C181.8,104.5,181.8,102.8,183.8,102.8z M183.8,106.5c0.4,0,0.7-0.3,0.7-1.4c0-0.5,0-1.3-0.7-1.3c-0.7,0-0.7,1-0.7,1.3
			C183.1,106,183.3,106.5,183.8,106.5z"/>
	</g>
	<line class="st10" x1="75.6" y1="94.4" x2="44.3" y2="125.7"/>
	<g>
		<path class="st0" d="M17.4,131.8c0-1.2,0.1-2.2,1.5-2.2c1.4,0,1.5,1,1.5,2.2c0,1.8-0.7,2-1.5,2S17.4,133.6,17.4,131.8z
			 M19.8,131.5c0-1.1-0.3-1.3-0.8-1.3c-0.5,0-0.8,0.2-0.8,1.3c0,1.3,0.2,1.8,0.8,1.8S19.8,132.8,19.8,131.5z"/>
		<path class="st0" d="M21.6,129.7v-0.8c0-0.8,0.6-1,1.2-1c0.1,0,0.2,0,0.3,0v0.5c-0.7,0-0.8,0.2-0.8,0.6v0.7h0.8v0.5h-0.8v3.5h-0.7
			v-3.5H21v-0.5H21.6z"/>
		<path class="st0" d="M26.9,128h0.9l1.9,5.8h-0.8l-0.4-1.4h-2.2l-0.4,1.4H25L26.9,128z M27.3,128.6L27.3,128.6l-0.9,3.1h1.8
			L27.3,128.6z"/>
		<path class="st0" d="M32.4,133.7v-2.8c0-0.4-0.1-0.8-0.6-0.8c-0.2,0-0.5,0.1-0.6,0.3c-0.1,0.2-0.2,0.4-0.2,0.6v2.7h-0.7v-3.2
			c0-0.3,0-0.6,0-0.8H31v0.5h0c0.2-0.4,0.5-0.6,1-0.6c0.4,0,0.8,0.2,0.9,0.5c0.2-0.4,0.6-0.5,1-0.5c0.4,0,1.1,0.1,1.1,1v3.1h-0.7
			v-2.8c0-0.4-0.1-0.8-0.6-0.8c-0.2,0-0.3,0-0.5,0.2c-0.2,0.2-0.2,0.6-0.2,0.7v2.7H32.4z"/>
		<path class="st0" d="M36.8,131.9c0,1.1,0.3,1.4,0.8,1.4c0.4,0,0.7-0.4,0.7-0.8H39c0,0.9-0.6,1.3-1.4,1.3c-0.9,0-1.5-0.3-1.5-2
			c0-1.2,0.1-2.2,1.5-2.2c1.2,0,1.4,0.6,1.4,2v0.3H36.8z M38.4,131.4c0-1.2-0.3-1.3-0.8-1.3c-0.4,0-0.8,0.2-0.8,1.3H38.4z"/>
		<path class="st0" d="M40.8,130.3L40.8,130.3c0.3-0.6,0.6-0.7,1.3-0.7v0.7c-0.1,0-0.1,0-0.2,0c-0.1,0-0.1,0-0.2,0
			c-0.7,0-0.9,0.6-0.9,1.1v2.4h-0.7v-4h0.7V130.3z"/>
		<path class="st0" d="M42.8,128h0.7v0.7h-0.7V128z M43.5,133.7h-0.7v-4h0.7V133.7z"/>
		<path class="st0" d="M46.7,131c0-0.7-0.3-0.8-0.6-0.8c-0.5,0-0.8,0.2-0.8,1.3c0,1.3,0.2,1.8,0.8,1.8c0.2,0,0.6-0.2,0.6-0.9h0.7
			c0,1.1-0.8,1.4-1.3,1.4c-0.9,0-1.5-0.3-1.5-2c0-1.2,0.1-2.2,1.5-2.2c0.8,0,1.3,0.5,1.2,1.4H46.7z"/>
		<path class="st0" d="M50.7,133.2L50.7,133.2c-0.2,0.5-0.5,0.7-1,0.7c-0.9,0-1.1-0.6-1.1-1.3c0-1.2,1.2-1.3,2.1-1.3
			c0-0.5,0-1.1-0.7-1.1c-0.4,0-0.7,0.3-0.6,0.7h-0.7c0-0.9,0.5-1.2,1.4-1.2c1,0,1.3,0.5,1.3,1.2v1.9c0,0.3,0,0.6,0.1,1h-0.7V133.2z
			 M49.2,132.5c0,0.4,0.2,0.7,0.6,0.7c0.4,0,0.9-0.2,0.8-1.6C50,131.7,49.2,131.7,49.2,132.5z"/>
		<path class="st0" d="M54.8,133.7v-2.8c0-0.4-0.2-0.8-0.7-0.8c-0.7,0-0.8,0.6-0.8,1.2v2.4h-0.7v-3.2c0-0.3,0-0.6,0-0.8h0.7v0.5h0
			c0.3-0.5,0.6-0.6,1.1-0.6c0.9,0,1.1,0.5,1.1,1.3v2.8H54.8z"/>
		<path class="st0" d="M57.8,133.8c-0.9,0-1.4-0.4-1.4-1.3h0.7c0,0.2,0,0.8,0.7,0.8c0.4,0,0.7-0.2,0.7-0.6c0-0.7-2-0.7-2-1.9
			c0-0.4,0.3-1.1,1.4-1.1c0.7,0,1.3,0.3,1.3,1.1h-0.7c0-0.4-0.2-0.6-0.6-0.6c-0.4,0-0.6,0.2-0.6,0.5c0,0.7,2,0.7,2,1.9
			C59.2,133.5,58.6,133.8,57.8,133.8z"/>
		<path class="st0" d="M19.6,142.8L19.6,142.8c-0.2,0.5-0.5,0.7-1,0.7c-0.9,0-1.1-0.6-1.1-1.3c0-1.2,1.2-1.3,2.1-1.3
			c0-0.5,0-1.1-0.7-1.1c-0.4,0-0.7,0.3-0.6,0.7h-0.7c0-0.9,0.5-1.2,1.4-1.2c1,0,1.3,0.5,1.3,1.2v1.9c0,0.3,0,0.6,0.1,1h-0.7V142.8z
			 M18.1,142.1c0,0.4,0.2,0.7,0.6,0.7c0.4,0,0.9-0.2,0.8-1.6C18.9,141.3,18.1,141.3,18.1,142.1z"/>
		<path class="st0" d="M22.2,139.9L22.2,139.9c0.3-0.6,0.6-0.7,1.3-0.7v0.7c-0.1,0-0.1,0-0.2,0c-0.1,0-0.1,0-0.2,0
			c-0.7,0-0.9,0.6-0.9,1.1v2.4h-0.7v-4h0.7V139.9z"/>
		<path class="st0" d="M24.8,141.5c0,1.1,0.3,1.4,0.8,1.4c0.4,0,0.7-0.4,0.7-0.8H27c0,0.9-0.6,1.3-1.4,1.3c-0.9,0-1.5-0.3-1.5-2
			c0-1.2,0.1-2.2,1.5-2.2c1.2,0,1.4,0.6,1.4,2v0.3H24.8z M26.4,141c0-1.2-0.3-1.3-0.8-1.3c-0.4,0-0.8,0.2-0.8,1.3H26.4z"/>
		<path class="st0" d="M30.6,143.3h-0.7v-5.8h0.7V143.3z"/>
		<path class="st0" d="M32.3,141.5c0,1.1,0.3,1.4,0.8,1.4c0.4,0,0.7-0.4,0.7-0.8h0.7c0,0.9-0.6,1.3-1.4,1.3c-0.9,0-1.5-0.3-1.5-2
			c0-1.2,0.1-2.2,1.5-2.2c1.2,0,1.4,0.6,1.4,2v0.3H32.3z M33.9,141c0-1.2-0.3-1.3-0.8-1.3c-0.4,0-0.8,0.2-0.8,1.3H33.9z"/>
		<path class="st0" d="M35.8,139.3v-0.8c0-0.8,0.6-1,1.2-1c0.1,0,0.2,0,0.3,0v0.5c-0.7,0-0.8,0.2-0.8,0.6v0.7h0.8v0.5h-0.8v3.5h-0.7
			v-3.5h-0.6v-0.5H35.8z"/>
		<path class="st0" d="M38,139.3v-0.8l0.7-0.3v1.1h0.9v0.5h-0.9v2.5c0,0.3,0,0.6,0.6,0.6c0,0,0.2,0,0.3,0v0.5
			c-0.2,0-0.4,0.1-0.6,0.1c-0.6,0-0.9-0.3-0.9-0.7v-2.9h-0.7v-0.5H38z"/>
		<path class="st0" d="M40,140.9h1.8v0.6H40V140.9z"/>
		<path class="st0" d="M43.5,143.3h-0.7v-5.8h0.7v2.1h0c0.2-0.3,0.5-0.5,0.9-0.5c1.3,0,1.3,1.2,1.3,2.2c0,1.8-0.7,2-1.3,2
			c-0.4,0-0.7-0.2-0.9-0.6h0V143.3z M44.3,142.9c0.8,0,0.8-0.9,0.8-1.5c0-1.1-0.1-1.6-0.8-1.6c-0.7,0-0.8,0.9-0.8,1.4
			C43.5,141.8,43.5,142.9,44.3,142.9z"/>
		<path class="st0" d="M47.5,139.9L47.5,139.9c0.3-0.6,0.6-0.7,1.3-0.7v0.7c-0.1,0-0.1,0-0.2,0c-0.1,0-0.1,0-0.2,0
			c-0.7,0-0.9,0.6-0.9,1.1v2.4h-0.7v-4h0.7V139.9z"/>
		<path class="st0" d="M51.6,142.8L51.6,142.8c-0.2,0.5-0.5,0.7-1,0.7c-0.9,0-1.1-0.6-1.1-1.3c0-1.2,1.2-1.3,2.1-1.3
			c0-0.5,0-1.1-0.7-1.1c-0.4,0-0.7,0.3-0.6,0.7h-0.7c0-0.9,0.5-1.2,1.4-1.2c1,0,1.3,0.5,1.3,1.2v1.9c0,0.3,0,0.6,0.1,1h-0.7V142.8z
			 M50.1,142.1c0,0.4,0.2,0.7,0.6,0.7c0.4,0,0.9-0.2,0.8-1.6C50.9,141.3,50.1,141.3,50.1,142.1z"/>
		<path class="st0" d="M53.4,137.6h0.7v0.7h-0.7V137.6z M54.1,143.3h-0.7v-4h0.7V143.3z"/>
		<path class="st0" d="M57.5,143.3v-2.8c0-0.4-0.2-0.8-0.7-0.8c-0.7,0-0.8,0.6-0.8,1.2v2.4h-0.7v-3.2c0-0.3,0-0.6,0-0.8h0.7v0.5h0
			c0.3-0.5,0.6-0.6,1.1-0.6c0.9,0,1.1,0.5,1.1,1.3v2.8H57.5z"/>
		<path class="st0" d="M59.9,141.5c0,1.1,0.3,1.4,0.8,1.4c0.4,0,0.7-0.4,0.7-0.8h0.7c0,0.9-0.6,1.3-1.4,1.3c-0.9,0-1.5-0.3-1.5-2
			c0-1.2,0.1-2.2,1.5-2.2c1.2,0,1.4,0.6,1.4,2v0.3H59.9z M61.5,141c0-1.2-0.3-1.3-0.8-1.3c-0.4,0-0.8,0.2-0.8,1.3H61.5z"/>
		<path class="st0" d="M65.4,137.6h0.7v5.8h-0.7v-0.5h0c-0.2,0.4-0.5,0.6-0.9,0.6c-0.6,0-1.3-0.3-1.3-2c0-1,0-2.2,1.3-2.2
			c0.4,0,0.7,0.2,0.9,0.5h0V137.6z M64.6,139.8c-0.7,0-0.8,0.6-0.8,1.6c0,0.6,0,1.5,0.8,1.5c0.7,0,0.7-0.9,0.7-1.7
			C65.4,140.6,65.4,139.8,64.6,139.8z"/>
	</g>
	<g>
		<path class="st0" d="M105,169.3L105,169.3c-0.2,0.5-0.5,0.7-1,0.7c-0.9,0-1.1-0.6-1.1-1.3c0-1.2,1.2-1.3,2.1-1.3
			c0-0.5,0-1.1-0.7-1.1c-0.4,0-0.7,0.3-0.6,0.7H103c0-0.9,0.5-1.2,1.4-1.2c1,0,1.3,0.5,1.3,1.2v1.9c0,0.3,0,0.6,0.1,1H105V169.3z
			 M103.6,168.7c0,0.4,0.2,0.7,0.6,0.7c0.4,0,0.9-0.2,0.8-1.6C104.4,167.9,103.6,167.8,103.6,168.7z"/>
		<path class="st0" d="M107.6,166.4L107.6,166.4c0.3-0.6,0.6-0.7,1.3-0.7v0.7c-0.1,0-0.1,0-0.2,0c-0.1,0-0.1,0-0.2,0
			c-0.7,0-0.9,0.6-0.9,1.1v2.4H107v-4h0.7V166.4z"/>
		<path class="st0" d="M110.3,168.1c0,1.1,0.3,1.4,0.8,1.4c0.4,0,0.7-0.4,0.7-0.8h0.7c0,0.9-0.6,1.3-1.4,1.3c-0.9,0-1.5-0.3-1.5-2
			c0-1.2,0.1-2.2,1.5-2.2c1.2,0,1.4,0.6,1.4,2v0.3H110.3z M111.8,167.6c0-1.2-0.3-1.3-0.8-1.3c-0.4,0-0.8,0.2-0.8,1.3H111.8z"/>
		<path class="st0" d="M116.1,166.4L116.1,166.4c0.3-0.6,0.6-0.7,1.3-0.7v0.7c-0.1,0-0.1,0-0.2,0c-0.1,0-0.1,0-0.2,0
			c-0.7,0-0.9,0.6-0.9,1.1v2.4h-0.7v-4h0.7V166.4z"/>
		<path class="st0" d="M118,164.1h0.7v0.7H118V164.1z M118.7,169.9H118v-4h0.7V169.9z"/>
		<path class="st0" d="M122,165.8h0.7v4.4c0,0.9-0.6,1.1-1.5,1.1c-0.7,0-1.3-0.3-1.2-1.1h0.7c0,0.4,0.3,0.6,0.6,0.6
			c0.5,0,0.7-0.3,0.7-0.7v-0.8h0c-0.2,0.3-0.5,0.5-0.9,0.5c-1.1,0-1.3-0.9-1.3-2.1c0-1.9,0.9-2,1.3-2c0.4,0,0.8,0.2,0.9,0.6h0V165.8
			z M121.2,166.3c-0.7,0-0.8,0.9-0.8,1.4c0,1.3,0.3,1.6,0.8,1.6c0.8,0,0.8-0.9,0.8-1.5C122,167.2,122,166.3,121.2,166.3z"/>
		<path class="st0" d="M126,169.9v-2.7c0-0.5-0.2-0.8-0.7-0.8c-0.7,0-0.8,0.5-0.8,1.2v2.4h-0.7v-5.8h0.7v2.3h0
			c0.3-0.5,0.6-0.6,1.1-0.6c0.7,0,1.1,0.3,1.1,1.3v2.9H126z"/>
		<path class="st0" d="M127.9,165.8v-0.8l0.7-0.3v1.1h0.9v0.5h-0.9v2.5c0,0.3,0,0.6,0.6,0.6c0,0,0.2,0,0.3,0v0.5
			c-0.2,0-0.4,0.1-0.6,0.1c-0.6,0-0.9-0.3-0.9-0.7v-2.9h-0.7v-0.5H127.9z"/>
		<path class="st0" d="M129.9,167.4h1.8v0.6h-1.8V167.4z"/>
		<path class="st0" d="M133.4,169.9h-0.7v-5.8h0.7v2.1h0c0.2-0.3,0.5-0.5,0.9-0.5c1.3,0,1.3,1.2,1.3,2.2c0,1.8-0.7,2-1.3,2
			c-0.4,0-0.7-0.2-0.9-0.6h0V169.9z M134.2,169.4c0.8,0,0.8-0.9,0.8-1.5c0-1.1-0.1-1.6-0.8-1.6c-0.7,0-0.8,0.9-0.8,1.4
			C133.4,168.3,133.4,169.4,134.2,169.4z"/>
		<path class="st0" d="M137.4,166.4L137.4,166.4c0.3-0.6,0.6-0.7,1.3-0.7v0.7c-0.1,0-0.1,0-0.2,0c-0.1,0-0.1,0-0.2,0
			c-0.7,0-0.9,0.6-0.9,1.1v2.4h-0.7v-4h0.7V166.4z"/>
		<path class="st0" d="M141.5,169.3L141.5,169.3c-0.2,0.5-0.5,0.7-1,0.7c-0.9,0-1.1-0.6-1.1-1.3c0-1.2,1.2-1.3,2.1-1.3
			c0-0.5,0-1.1-0.7-1.1c-0.4,0-0.7,0.3-0.6,0.7h-0.7c0-0.9,0.5-1.2,1.4-1.2c1,0,1.3,0.5,1.3,1.2v1.9c0,0.3,0,0.6,0.1,1h-0.7V169.3z
			 M140,168.7c0,0.4,0.2,0.7,0.6,0.7c0.4,0,0.9-0.2,0.8-1.6C140.8,167.9,140,167.8,140,168.7z"/>
		<path class="st0" d="M143.3,164.1h0.7v0.7h-0.7V164.1z M144,169.9h-0.7v-4h0.7V169.9z"/>
		<path class="st0" d="M147.4,169.9v-2.8c0-0.4-0.2-0.8-0.7-0.8c-0.7,0-0.8,0.6-0.8,1.2v2.4h-0.7v-3.2c0-0.3,0-0.6,0-0.8h0.7v0.5h0
			c0.3-0.5,0.6-0.6,1.1-0.6c0.9,0,1.1,0.5,1.1,1.3v2.8H147.4z"/>
		<path class="st0" d="M149.8,168.1c0,1.1,0.3,1.4,0.8,1.4c0.4,0,0.7-0.4,0.7-0.8h0.7c0,0.9-0.6,1.3-1.4,1.3c-0.9,0-1.5-0.3-1.5-2
			c0-1.2,0.1-2.2,1.5-2.2c1.2,0,1.4,0.6,1.4,2v0.3H149.8z M151.4,167.6c0-1.2-0.3-1.3-0.8-1.3c-0.4,0-0.8,0.2-0.8,1.3H151.4z"/>
		<path class="st0" d="M155.3,164.1h0.7v5.8h-0.7v-0.5h0c-0.2,0.4-0.5,0.6-0.9,0.6c-0.6,0-1.3-0.3-1.3-2c0-1,0-2.2,1.3-2.2
			c0.4,0,0.7,0.2,0.9,0.5h0V164.1z M154.5,166.3c-0.7,0-0.8,0.6-0.8,1.6c0,0.6,0,1.5,0.8,1.5c0.7,0,0.7-0.9,0.7-1.7
			C155.3,167.2,155.3,166.3,154.5,166.3z"/>
	</g>
	<line class="st10" x1="127.7" y1="127.8" x2="107.9" y2="162.1"/>
	<line class="st10" x1="185.2" y1="112.2" x2="212.9" y2="139.7"/>
	<g>
		<path class="st0" d="M203.7,143.2c0-1.2,0.1-2.2,1.5-2.2c1.4,0,1.5,1,1.5,2.2c0,1.8-0.7,2-1.5,2S203.7,144.9,203.7,143.2z
			 M206,142.9c0-1.1-0.3-1.3-0.8-1.3c-0.5,0-0.8,0.2-0.8,1.3c0,1.3,0.2,1.8,0.8,1.8S206,144.2,206,142.9z"/>
		<path class="st0" d="M207.9,141.1v-0.8c0-0.8,0.6-1,1.2-1c0.1,0,0.2,0,0.3,0v0.5c-0.7,0-0.8,0.2-0.8,0.6v0.7h0.8v0.5h-0.8v3.5
			h-0.7v-3.5h-0.6v-0.5H207.9z"/>
		<path class="st0" d="M212.5,141.6L212.5,141.6c0.2-0.4,0.5-0.6,0.9-0.6c0.6,0,1.3,0.3,1.3,2c0,1,0,2.2-1.3,2.2
			c-0.4,0-0.7-0.2-0.9-0.5h0v1.9h-0.7v-5.6h0.7V141.6z M214,143c0-0.6,0-1.5-0.8-1.5c-0.8,0-0.7,1.1-0.7,1.7c0,0.5,0,1.4,0.8,1.4
			C214,144.7,214,144.1,214,143z"/>
		<path class="st0" d="M217.9,144.5L217.9,144.5c-0.2,0.5-0.5,0.7-1,0.7c-0.9,0-1.1-0.6-1.1-1.3c0-1.2,1.2-1.3,2.1-1.3
			c0-0.5,0-1.1-0.7-1.1c-0.4,0-0.7,0.3-0.6,0.7h-0.7c0-0.9,0.5-1.2,1.4-1.2c1,0,1.3,0.5,1.3,1.2v1.9c0,0.3,0,0.6,0.1,1h-0.7V144.5z
			 M216.4,143.9c0,0.4,0.2,0.7,0.6,0.7c0.4,0,0.9-0.2,0.8-1.6C217.2,143.1,216.4,143.1,216.4,143.9z"/>
		<path class="st0" d="M220.5,141.7L220.5,141.7c0.3-0.6,0.6-0.7,1.3-0.7v0.7c-0.1,0-0.1,0-0.2,0c-0.1,0-0.1,0-0.2,0
			c-0.7,0-0.9,0.6-0.9,1.1v2.4h-0.7v-4h0.7V141.7z"/>
		<path class="st0" d="M222.5,141.1v-0.8l0.7-0.3v1.1h0.9v0.5h-0.9v2.5c0,0.3,0,0.6,0.6,0.6c0,0,0.2,0,0.3,0v0.5
			c-0.2,0-0.4,0.1-0.6,0.1c-0.6,0-0.9-0.3-0.9-0.7v-2.9h-0.7v-0.5H222.5z"/>
		<path class="st0" d="M224.6,139.3h0.7v0.7h-0.7V139.3z M225.3,145.1h-0.7v-4h0.7V145.1z"/>
		<path class="st0" d="M228.6,142.4c0-0.7-0.3-0.8-0.6-0.8c-0.5,0-0.8,0.2-0.8,1.3c0,1.3,0.2,1.8,0.8,1.8c0.2,0,0.6-0.2,0.6-0.9h0.7
			c0,1.1-0.8,1.4-1.3,1.4c-0.9,0-1.5-0.3-1.5-2c0-1.2,0.1-2.2,1.5-2.2c0.8,0,1.3,0.5,1.2,1.4H228.6z"/>
		<path class="st0" d="M230.4,139.3h0.7v0.7h-0.7V139.3z M231.1,145.1h-0.7v-4h0.7V145.1z"/>
		<path class="st0" d="M232.9,141.6L232.9,141.6c0.2-0.4,0.5-0.6,0.9-0.6c0.6,0,1.3,0.3,1.3,2c0,1,0,2.2-1.3,2.2
			c-0.4,0-0.7-0.2-0.9-0.5h0v1.9h-0.7v-5.6h0.7V141.6z M234.5,143c0-0.6,0-1.5-0.8-1.5c-0.8,0-0.7,1.1-0.7,1.7c0,0.5,0,1.4,0.8,1.4
			C234.4,144.7,234.5,144.1,234.5,143z"/>
		<path class="st0" d="M238.3,144.5L238.3,144.5c-0.2,0.5-0.5,0.7-1,0.7c-0.9,0-1.1-0.6-1.1-1.3c0-1.2,1.2-1.3,2.1-1.3
			c0-0.5,0-1.1-0.7-1.1c-0.4,0-0.7,0.3-0.6,0.7h-0.7c0-0.9,0.5-1.2,1.4-1.2c1,0,1.3,0.5,1.3,1.2v1.9c0,0.3,0,0.6,0.1,1h-0.7V144.5z
			 M236.8,143.9c0,0.4,0.2,0.7,0.6,0.7c0.4,0,0.9-0.2,0.8-1.6C237.7,143.1,236.8,143.1,236.8,143.9z"/>
		<path class="st0" d="M242.4,145.1v-2.8c0-0.4-0.2-0.8-0.7-0.8c-0.7,0-0.8,0.6-0.8,1.2v2.4h-0.7v-3.2c0-0.3,0-0.6,0-0.8h0.7v0.5h0
			c0.3-0.5,0.6-0.6,1.1-0.6c0.9,0,1.1,0.5,1.1,1.3v2.8H242.4z"/>
		<path class="st0" d="M244.3,141.1v-0.8l0.7-0.3v1.1h0.9v0.5h-0.9v2.5c0,0.3,0,0.6,0.6,0.6c0,0,0.2,0,0.3,0v0.5
			c-0.2,0-0.4,0.1-0.6,0.1c-0.6,0-0.9-0.3-0.9-0.7v-2.9h-0.7v-0.5H244.3z"/>
		<path class="st0" d="M247.6,145.2c-0.9,0-1.4-0.4-1.4-1.3h0.7c0,0.2,0,0.8,0.7,0.8c0.4,0,0.7-0.2,0.7-0.6c0-0.7-2-0.7-2-1.9
			c0-0.4,0.3-1.1,1.4-1.1c0.7,0,1.3,0.3,1.3,1.1h-0.7c0-0.4-0.2-0.6-0.6-0.6c-0.4,0-0.6,0.2-0.6,0.5c0,0.7,2,0.7,2,1.9
			C249,144.9,248.4,145.2,247.6,145.2z"/>
		<path class="st0" d="M250.1,144.3h0.8l-0.7,1.8h-0.5L250.1,144.3z"/>
		<path class="st0" d="M253.6,141.1v-0.8l0.7-0.3v1.1h0.9v0.5h-0.9v2.5c0,0.3,0,0.6,0.6,0.6c0,0,0.2,0,0.3,0v0.5
			c-0.2,0-0.4,0.1-0.6,0.1c-0.6,0-0.9-0.3-0.9-0.7v-2.9H253v-0.5H253.6z"/>
		<path class="st0" d="M258,145.1v-2.7c0-0.5-0.2-0.8-0.7-0.8c-0.7,0-0.8,0.5-0.8,1.2v2.4h-0.7v-5.8h0.7v2.3h0
			c0.3-0.5,0.6-0.6,1.1-0.6c0.7,0,1.1,0.3,1.1,1.3v2.9H258z"/>
		<path class="st0" d="M260.4,143.3c0,1.1,0.3,1.4,0.8,1.4c0.4,0,0.7-0.4,0.7-0.8h0.7c0,0.9-0.6,1.3-1.4,1.3c-0.9,0-1.5-0.3-1.5-2
			c0-1.2,0.1-2.2,1.5-2.2c1.2,0,1.4,0.6,1.4,2v0.3H260.4z M262,142.8c0-1.2-0.3-1.3-0.8-1.3c-0.4,0-0.8,0.2-0.8,1.3H262z"/>
		<path class="st0" d="M265.6,141.1v-0.8l0.7-0.3v1.1h0.9v0.5h-0.9v2.5c0,0.3,0,0.6,0.6,0.6c0,0,0.2,0,0.3,0v0.5
			c-0.2,0-0.4,0.1-0.6,0.1c-0.6,0-0.9-0.3-0.9-0.7v-2.9H265v-0.5H265.6z"/>
		<path class="st0" d="M267.3,141.1h0.7l0.7,3.5h0l0.9-3.5h0.9l0.8,3.5h0l0.8-3.5h0.7l-1.1,4h-0.9l-0.9-3.4h0l-0.9,3.4h-0.9
			L267.3,141.1z"/>
		<path class="st0" d="M273.4,143.2c0-1.2,0.1-2.2,1.5-2.2c1.4,0,1.5,1,1.5,2.2c0,1.8-0.7,2-1.5,2S273.4,144.9,273.4,143.2z
			 M275.8,142.9c0-1.1-0.3-1.3-0.8-1.3c-0.5,0-0.8,0.2-0.8,1.3c0,1.3,0.2,1.8,0.8,1.8S275.8,144.2,275.8,142.9z"/>
		<path class="st0" d="M206,154.7V152c0-0.5-0.2-0.8-0.7-0.8c-0.7,0-0.8,0.5-0.8,1.2v2.4h-0.7v-5.8h0.7v2.3h0
			c0.3-0.5,0.6-0.6,1.1-0.6c0.7,0,1.1,0.3,1.1,1.3v2.9H206z"/>
		<path class="st0" d="M208.4,152.9c0,1.1,0.3,1.4,0.8,1.4c0.4,0,0.7-0.4,0.7-0.8h0.7c0,0.9-0.6,1.3-1.4,1.3c-0.9,0-1.5-0.3-1.5-2
			c0-1.2,0.1-2.2,1.5-2.2c1.2,0,1.4,0.6,1.4,2v0.3H208.4z M210,152.4c0-1.2-0.3-1.3-0.8-1.3c-0.4,0-0.8,0.2-0.8,1.3H210z"/>
		<path class="st0" d="M213.8,154.7v-2.8c0-0.4-0.1-0.8-0.6-0.8c-0.2,0-0.5,0.1-0.6,0.3c-0.1,0.2-0.2,0.4-0.2,0.6v2.7h-0.7v-3.2
			c0-0.3,0-0.6,0-0.8h0.7v0.5h0c0.2-0.4,0.5-0.6,1-0.6c0.4,0,0.8,0.2,0.9,0.5c0.2-0.4,0.6-0.5,1-0.5c0.4,0,1.1,0.1,1.1,1v3.1h-0.7
			v-2.8c0-0.4-0.1-0.8-0.6-0.8c-0.2,0-0.3,0-0.5,0.2c-0.2,0.2-0.2,0.6-0.2,0.7v2.7H213.8z"/>
		<path class="st0" d="M217.5,148.9h0.7v0.7h-0.7V148.9z M218.2,154.7h-0.7v-4h0.7V154.7z"/>
		<path class="st0" d="M220.5,154.8c-0.9,0-1.4-0.4-1.4-1.3h0.7c0,0.2,0,0.8,0.7,0.8c0.4,0,0.7-0.2,0.7-0.6c0-0.7-2-0.7-2-1.9
			c0-0.4,0.3-1.1,1.4-1.1c0.7,0,1.3,0.3,1.3,1.1h-0.7c0-0.4-0.2-0.6-0.6-0.6c-0.4,0-0.6,0.2-0.6,0.5c0,0.7,2,0.7,2,1.9
			C221.9,154.5,221.3,154.8,220.5,154.8z"/>
		<path class="st0" d="M223.6,151.2L223.6,151.2c0.2-0.4,0.5-0.6,0.9-0.6c0.6,0,1.3,0.3,1.3,2c0,1,0,2.2-1.3,2.2
			c-0.4,0-0.7-0.2-0.9-0.5h0v1.9h-0.7v-5.6h0.7V151.2z M225.2,152.6c0-0.6,0-1.5-0.8-1.5c-0.8,0-0.7,1.1-0.7,1.7
			c0,0.5,0,1.4,0.8,1.4C225.1,154.3,225.2,153.7,225.2,152.6z"/>
		<path class="st0" d="M229.1,154.7V152c0-0.5-0.2-0.8-0.7-0.8c-0.7,0-0.8,0.5-0.8,1.2v2.4h-0.7v-5.8h0.7v2.3h0
			c0.3-0.5,0.6-0.6,1.1-0.6c0.7,0,1.1,0.3,1.1,1.3v2.9H229.1z"/>
		<path class="st0" d="M231.5,152.9c0,1.1,0.3,1.4,0.8,1.4c0.4,0,0.7-0.4,0.7-0.8h0.7c0,0.9-0.6,1.3-1.4,1.3c-0.9,0-1.5-0.3-1.5-2
			c0-1.2,0.1-2.2,1.5-2.2c1.2,0,1.4,0.6,1.4,2v0.3H231.5z M233.1,152.4c0-1.2-0.3-1.3-0.8-1.3c-0.4,0-0.8,0.2-0.8,1.3H233.1z"/>
		<path class="st0" d="M235.6,151.3L235.6,151.3c0.3-0.6,0.6-0.7,1.3-0.7v0.7c-0.1,0-0.1,0-0.2,0c-0.1,0-0.1,0-0.2,0
			c-0.7,0-0.9,0.6-0.9,1.1v2.4h-0.7v-4h0.7V151.3z"/>
		<path class="st0" d="M238.2,152.9c0,1.1,0.3,1.4,0.8,1.4c0.4,0,0.7-0.4,0.7-0.8h0.7c0,0.9-0.6,1.3-1.4,1.3c-0.9,0-1.5-0.3-1.5-2
			c0-1.2,0.1-2.2,1.5-2.2c1.2,0,1.4,0.6,1.4,2v0.3H238.2z M239.8,152.4c0-1.2-0.3-1.3-0.8-1.3c-0.4,0-0.8,0.2-0.8,1.3H239.8z"/>
		<path class="st0" d="M242.7,154.8c-0.9,0-1.4-0.4-1.4-1.3h0.7c0,0.2,0,0.8,0.7,0.8c0.4,0,0.7-0.2,0.7-0.6c0-0.7-2-0.7-2-1.9
			c0-0.4,0.3-1.1,1.4-1.1c0.7,0,1.3,0.3,1.3,1.1h-0.7c0-0.4-0.2-0.6-0.6-0.6c-0.4,0-0.6,0.2-0.6,0.5c0,0.7,2,0.7,2,1.9
			C244.1,154.5,243.5,154.8,242.7,154.8z"/>
		<path class="st0" d="M247.5,152.9c0,1.1,0.3,1.4,0.8,1.4c0.4,0,0.7-0.4,0.7-0.8h0.7c0,0.9-0.6,1.3-1.4,1.3c-0.9,0-1.5-0.3-1.5-2
			c0-1.2,0.1-2.2,1.5-2.2c1.2,0,1.4,0.6,1.4,2v0.3H247.5z M249.1,152.4c0-1.2-0.3-1.3-0.8-1.3c-0.4,0-0.8,0.2-0.8,1.3H249.1z"/>
		<path class="st0" d="M253.8,154.7h-0.9l-0.9-1.7l-0.9,1.7h-0.8l1.3-2.1l-1.2-1.9h0.8l0.8,1.4l0.8-1.4h0.8l-1.2,1.9L253.8,154.7z"
			/>
		<path class="st0" d="M255.1,152.9c0,1.1,0.3,1.4,0.8,1.4c0.4,0,0.7-0.4,0.7-0.8h0.7c0,0.9-0.6,1.3-1.4,1.3c-0.9,0-1.5-0.3-1.5-2
			c0-1.2,0.1-2.2,1.5-2.2c1.2,0,1.4,0.6,1.4,2v0.3H255.1z M256.6,152.4c0-1.2-0.3-1.3-0.8-1.3c-0.4,0-0.8,0.2-0.8,1.3H256.6z"/>
		<path class="st0" d="M259.1,151.3L259.1,151.3c0.3-0.6,0.6-0.7,1.3-0.7v0.7c-0.1,0-0.1,0-0.2,0c-0.1,0-0.1,0-0.2,0
			c-0.7,0-0.9,0.6-0.9,1.1v2.4h-0.7v-4h0.7V151.3z"/>
		<path class="st0" d="M261.2,150.7v-0.8l0.7-0.3v1.1h0.9v0.5h-0.9v2.5c0,0.3,0,0.6,0.6,0.6c0,0,0.2,0,0.3,0v0.5
			c-0.2,0-0.4,0.1-0.6,0.1c-0.6,0-0.9-0.3-0.9-0.7v-2.9h-0.7v-0.5H261.2z"/>
		<path class="st0" d="M265.7,152.9c0,1.1,0.3,1.4,0.8,1.4c0.4,0,0.7-0.4,0.7-0.8h0.7c0,0.9-0.6,1.3-1.4,1.3c-0.9,0-1.5-0.3-1.5-2
			c0-1.2,0.1-2.2,1.5-2.2c1.2,0,1.4,0.6,1.4,2v0.3H265.7z M267.3,152.4c0-1.2-0.3-1.3-0.8-1.3c-0.4,0-0.8,0.2-0.8,1.3H267.3z"/>
		<path class="st0" d="M271.2,150.7h0.7v5.6h-0.7v-1.9h0c-0.2,0.3-0.5,0.5-0.9,0.5c-1.3,0-1.3-1.2-1.3-2.2c0-1.8,0.7-2,1.3-2
			c0.4,0,0.7,0.2,0.9,0.6h0V150.7z M271.2,152.9c0-0.6,0.1-1.7-0.7-1.7c-0.8,0-0.8,0.9-0.8,1.5c0,1.1,0.1,1.6,0.8,1.6
			C271.2,154.3,271.2,153.4,271.2,152.9z"/>
		<path class="st0" d="M275.2,150.7h0.7v3.2c0,0.3,0,0.6,0,0.8h-0.7v-0.5h0c-0.2,0.4-0.6,0.6-1,0.6c-0.7,0-1.1-0.4-1.1-1v-3.1h0.7
			v2.8c0,0.5,0.2,0.8,0.7,0.8c0.4,0,0.8-0.3,0.8-0.9V150.7z"/>
		<path class="st0" d="M279.2,154.1L279.2,154.1c-0.2,0.5-0.5,0.7-1,0.7c-0.9,0-1.1-0.6-1.1-1.3c0-1.2,1.2-1.3,2.1-1.3
			c0-0.5,0-1.1-0.7-1.1c-0.4,0-0.7,0.3-0.6,0.7h-0.7c0-0.9,0.5-1.2,1.4-1.2c1,0,1.3,0.5,1.3,1.2v1.9c0,0.3,0,0.6,0.1,1h-0.7V154.1z
			 M277.7,153.5c0,0.4,0.2,0.7,0.6,0.7c0.4,0,0.9-0.2,0.8-1.6C278.5,152.7,277.7,152.7,277.7,153.5z"/>
		<path class="st0" d="M281.7,154.7h-0.7v-5.8h0.7V154.7z"/>
		<path class="st0" d="M203.7,158.5h0.7v0.7h-0.7V158.5z M204.4,164.3h-0.7v-4h0.7V164.3z"/>
		<path class="st0" d="M207.7,164.3v-2.8c0-0.4-0.2-0.8-0.7-0.8c-0.7,0-0.8,0.6-0.8,1.2v2.4h-0.7v-3.2c0-0.3,0-0.6,0-0.8h0.7v0.5h0
			c0.3-0.5,0.6-0.6,1.1-0.6c0.9,0,1.1,0.5,1.1,1.3v2.8H207.7z"/>
		<path class="st0" d="M209.7,160.3v-0.8c0-0.8,0.6-1,1.2-1c0.1,0,0.2,0,0.3,0v0.5c-0.7,0-0.8,0.2-0.8,0.6v0.7h0.8v0.5h-0.8v3.5
			h-0.7v-3.5H209v-0.5H209.7z M212.4,164.3h-0.7v-5.8h0.7V164.3z"/>
		<path class="st0" d="M215.7,160.3h0.7v3.2c0,0.3,0,0.6,0,0.8h-0.7v-0.5h0c-0.2,0.4-0.6,0.6-1,0.6c-0.7,0-1.1-0.4-1.1-1v-3.1h0.7
			v2.8c0,0.5,0.2,0.8,0.7,0.8c0.4,0,0.8-0.3,0.8-0.9V160.3z"/>
		<path class="st0" d="M218.2,162.5c0,1.1,0.3,1.4,0.8,1.4c0.4,0,0.7-0.4,0.7-0.8h0.7c0,0.9-0.6,1.3-1.4,1.3c-0.9,0-1.5-0.3-1.5-2
			c0-1.2,0.1-2.2,1.5-2.2c1.2,0,1.4,0.6,1.4,2v0.3H218.2z M219.8,162c0-1.2-0.3-1.3-0.8-1.3c-0.4,0-0.8,0.2-0.8,1.3H219.8z"/>
		<path class="st0" d="M223.7,164.3v-2.8c0-0.4-0.2-0.8-0.7-0.8c-0.7,0-0.8,0.6-0.8,1.2v2.4h-0.7v-3.2c0-0.3,0-0.6,0-0.8h0.7v0.5h0
			c0.3-0.5,0.6-0.6,1.1-0.6c0.9,0,1.1,0.5,1.1,1.3v2.8H223.7z"/>
		<path class="st0" d="M227.7,161.6c0-0.7-0.3-0.8-0.6-0.8c-0.5,0-0.8,0.2-0.8,1.3c0,1.3,0.2,1.8,0.8,1.8c0.2,0,0.6-0.2,0.6-0.9h0.7
			c0,1.1-0.8,1.4-1.3,1.4c-0.9,0-1.5-0.3-1.5-2c0-1.2,0.1-2.2,1.5-2.2c0.8,0,1.3,0.5,1.2,1.4H227.7z"/>
		<path class="st0" d="M230.2,162.5c0,1.1,0.3,1.4,0.8,1.4c0.4,0,0.7-0.4,0.7-0.8h0.7c0,0.9-0.6,1.3-1.4,1.3c-0.9,0-1.5-0.3-1.5-2
			c0-1.2,0.1-2.2,1.5-2.2c1.2,0,1.4,0.6,1.4,2v0.3H230.2z M231.8,162c0-1.2-0.3-1.3-0.8-1.3c-0.4,0-0.8,0.2-0.8,1.3H231.8z"/>
		<path class="st0" d="M235.2,162.4c0-1.2,0.1-2.2,1.5-2.2c1.4,0,1.5,1,1.5,2.2c0,1.8-0.7,2-1.5,2S235.2,164.1,235.2,162.4z
			 M237.6,162.1c0-1.1-0.3-1.3-0.8-1.3c-0.5,0-0.8,0.2-0.8,1.3c0,1.3,0.2,1.8,0.8,1.8S237.6,163.4,237.6,162.1z"/>
		<path class="st0" d="M241.5,164.3v-2.8c0-0.4-0.2-0.8-0.7-0.8c-0.7,0-0.8,0.6-0.8,1.2v2.4h-0.7v-3.2c0-0.3,0-0.6,0-0.8h0.7v0.5h0
			c0.3-0.5,0.6-0.6,1.1-0.6c0.9,0,1.1,0.5,1.1,1.3v2.8H241.5z"/>
		<path class="st0" d="M247.2,158.5h0.7v5.8h-0.7v-0.5h0c-0.2,0.4-0.5,0.6-0.9,0.6c-0.6,0-1.3-0.3-1.3-2c0-1,0-2.2,1.3-2.2
			c0.4,0,0.7,0.2,0.9,0.5h0V158.5z M246.5,160.7c-0.7,0-0.8,0.6-0.8,1.6c0,0.6,0,1.5,0.8,1.5c0.7,0,0.7-0.9,0.7-1.7
			C247.2,161.6,247.2,160.7,246.5,160.7z"/>
		<path class="st0" d="M249.7,162.5c0,1.1,0.3,1.4,0.8,1.4c0.4,0,0.7-0.4,0.7-0.8h0.7c0,0.9-0.6,1.3-1.4,1.3c-0.9,0-1.5-0.3-1.5-2
			c0-1.2,0.1-2.2,1.5-2.2c1.2,0,1.4,0.6,1.4,2v0.3H249.7z M251.3,162c0-1.2-0.3-1.3-0.8-1.3c-0.4,0-0.8,0.2-0.8,1.3H251.3z"/>
		<path class="st0" d="M255.2,161.6c0-0.7-0.3-0.8-0.6-0.8c-0.5,0-0.8,0.2-0.8,1.3c0,1.3,0.2,1.8,0.8,1.8c0.2,0,0.6-0.2,0.6-0.9h0.7
			c0,1.1-0.8,1.4-1.3,1.4c-0.9,0-1.5-0.3-1.5-2c0-1.2,0.1-2.2,1.5-2.2c0.8,0,1.3,0.5,1.2,1.4H255.2z"/>
		<path class="st0" d="M257,158.5h0.7v0.7H257V158.5z M257.7,164.3h-0.7v-4h0.7V164.3z"/>
		<path class="st0" d="M260.1,164.4c-0.9,0-1.4-0.4-1.4-1.3h0.7c0,0.2,0,0.8,0.7,0.8c0.4,0,0.7-0.2,0.7-0.6c0-0.7-2-0.7-2-1.9
			c0-0.4,0.3-1.1,1.4-1.1c0.7,0,1.3,0.3,1.3,1.1h-0.7c0-0.4-0.2-0.6-0.6-0.6c-0.4,0-0.6,0.2-0.6,0.5c0,0.7,2,0.7,2,1.9
			C261.5,164.1,260.9,164.4,260.1,164.4z"/>
		<path class="st0" d="M262.4,158.5h0.7v0.7h-0.7V158.5z M263.1,164.3h-0.7v-4h0.7V164.3z"/>
		<path class="st0" d="M264.1,162.4c0-1.2,0.1-2.2,1.5-2.2c1.4,0,1.5,1,1.5,2.2c0,1.8-0.7,2-1.5,2S264.1,164.1,264.1,162.4z
			 M266.5,162.1c0-1.1-0.3-1.3-0.8-1.3c-0.5,0-0.8,0.2-0.8,1.3c0,1.3,0.2,1.8,0.8,1.8S266.5,163.4,266.5,162.1z"/>
		<path class="st0" d="M270.4,164.3v-2.8c0-0.4-0.2-0.8-0.7-0.8c-0.7,0-0.8,0.6-0.8,1.2v2.4h-0.7v-3.2c0-0.3,0-0.6,0-0.8h0.7v0.5h0
			c0.3-0.5,0.6-0.6,1.1-0.6c0.9,0,1.1,0.5,1.1,1.3v2.8H270.4z"/>
		<path class="st0" d="M272.1,161.8h1.8v0.6h-1.8V161.8z"/>
		<path class="st0" d="M276.9,164.3v-2.8c0-0.4-0.1-0.8-0.6-0.8c-0.2,0-0.5,0.1-0.6,0.3c-0.1,0.2-0.2,0.4-0.2,0.6v2.7h-0.7v-3.2
			c0-0.3,0-0.6,0-0.8h0.7v0.5h0c0.2-0.4,0.5-0.6,1-0.6c0.4,0,0.8,0.2,0.9,0.5c0.2-0.4,0.6-0.5,1-0.5c0.4,0,1.1,0.1,1.1,1v3.1h-0.7
			v-2.8c0-0.4-0.1-0.8-0.6-0.8c-0.2,0-0.3,0-0.5,0.2c-0.2,0.2-0.2,0.6-0.2,0.7v2.7H276.9z"/>
		<path class="st0" d="M282.7,163.7L282.7,163.7c-0.2,0.5-0.5,0.7-1,0.7c-0.9,0-1.1-0.6-1.1-1.3c0-1.2,1.2-1.3,2.1-1.3
			c0-0.5,0-1.1-0.7-1.1c-0.4,0-0.7,0.3-0.6,0.7h-0.7c0-0.9,0.5-1.2,1.4-1.2c1,0,1.3,0.5,1.3,1.2v1.9c0,0.3,0,0.6,0.1,1h-0.7V163.7z
			 M281.2,163.1c0,0.4,0.2,0.7,0.6,0.7c0.4,0,0.9-0.2,0.8-1.6C282.1,162.3,281.2,162.3,281.2,163.1z"/>
		<path class="st0" d="M285.3,164.3h-0.7v-5.8h0.7v3.5h0l1.2-1.7h0.8L286,162l1.6,2.3h-0.8l-1.4-2.3h0V164.3z"/>
		<path class="st0" d="M288.1,158.5h0.7v0.7h-0.7V158.5z M288.8,164.3h-0.7v-4h0.7V164.3z"/>
		<path class="st0" d="M292.2,164.3v-2.8c0-0.4-0.2-0.8-0.7-0.8c-0.7,0-0.8,0.6-0.8,1.2v2.4H290v-3.2c0-0.3,0-0.6,0-0.8h0.7v0.5h0
			c0.3-0.5,0.6-0.6,1.1-0.6c0.9,0,1.1,0.5,1.1,1.3v2.8H292.2z"/>
		<path class="st0" d="M296.1,160.3h0.7v4.4c0,0.9-0.6,1.1-1.5,1.1c-0.7,0-1.3-0.3-1.2-1.1h0.7c0,0.4,0.3,0.6,0.6,0.6
			c0.5,0,0.7-0.3,0.7-0.7v-0.8h0c-0.2,0.3-0.5,0.5-0.9,0.5c-1.1,0-1.3-0.9-1.3-2.1c0-1.9,0.9-2,1.3-2c0.4,0,0.8,0.2,0.9,0.6h0V160.3
			z M295.3,160.7c-0.7,0-0.8,0.9-0.8,1.4c0,1.3,0.3,1.6,0.8,1.6c0.8,0,0.8-0.9,0.8-1.5C296.1,161.7,296.2,160.7,295.3,160.7z"/>
	</g>
</g>
</svg>
