<svg xmlns="http://www.w3.org/2000/svg" id="Layer_1" viewBox="0 0 177.3 364.4">
  <style>
    .Drop_x0020_Shadow{fill:none;} .Outer_x0020_Glow_x0020_5_x0020_pt{fill:none;} .Blue_x0020_Neon{fill:none;stroke:#8AACDA;stroke-width:7;stroke-linecap:round;stroke-linejoin:round;} .Chrome_x0020_Highlight{fill:url(#SVGID_1_);stroke:#FFFFFF;stroke-width:0.3629;stroke-miterlimit:1;} .Jive_GS{fill:#FFDD00;} .Alyssa_GS{fill:#A6D0E4;} .st0{opacity:0.5;fill:#ECD177;} .st1{fill:#ED5A49;} .st2{fill:#542337;} .st3{fill:#0A3656;} .st4{fill:none;stroke:#0A3656;stroke-width:0.556;stroke-linecap:round;stroke-linejoin:round;} .st5{fill:#6C869A;} .st6{fill:#A9B9C4;} .st7{fill:#FFFFFF;} .st8{fill:none;stroke:#85CCCB;stroke-width:0.2835;stroke-linecap:round;stroke-linejoin:round;stroke-miterlimit:10;} .st9{fill:#FFFFFF;stroke:#85CCCB;stroke-width:0.375;stroke-miterlimit:10;} .st10{fill:#0A3656;stroke:#0A3656;stroke-width:9.306000e-02;stroke-miterlimit:10;} .st11{fill:#E9F5FC;} .st12{fill:none;stroke:#0A3656;stroke-width:0.1296;stroke-linecap:round;stroke-linejoin:round;stroke-miterlimit:10;} .st13{opacity:0.5;fill:#337D7D;} .st14{fill:#00A14B;} .st15{fill:#224099;} .st16{fill:#FFDD15;} .st17{fill:#EC1C24;} .st18{fill:#C12944;} .st19{fill:#542337;stroke:#542337;stroke-width:0.84;stroke-miterlimit:10;} .st20{fill:none;stroke:#542337;stroke-width:0.672;stroke-miterlimit:10;} .st21{fill:#E9F5FC;stroke:#542337;stroke-width:0.672;stroke-miterlimit:10;} .st22{fill:#FFFFFF;stroke:#542337;stroke-width:0.3762;stroke-miterlimit:10;} .st23{fill:#FFFFFF;stroke:#542337;stroke-width:0.4251;stroke-miterlimit:10;} .st24{fill:#542337;stroke:#542337;stroke-width:4.252500e-02;stroke-miterlimit:10;} .st25{fill:#FFFFFF;stroke:#542337;stroke-width:3.937500e-02;stroke-miterlimit:10;} .st26{fill:#FFFFFF;stroke:#542337;stroke-width:0.1875;stroke-miterlimit:10;} .st27{fill:#F1F1F2;} .st28{fill:none;stroke:#542337;stroke-width:5.250000e-02;stroke-miterlimit:10;} .st29{fill:#DDE8F0;} .st30{fill:#CAD4DC;} .st31{fill:#ECD177;} .st32{fill:none;stroke:#542337;stroke-width:1.2875;stroke-linecap:round;stroke-linejoin:round;} .st33{fill:#337D7D;}
  </style>
  <linearGradient id="SVGID_1_" x1="-287" x2="-287" y1="-46.606" y2="-47.606" gradientUnits="userSpaceOnUse">
    <stop offset="0" stop-color="#656565"/>
    <stop offset=".618" stop-color="#1B1B1B"/>
    <stop offset=".629" stop-color="#545454"/>
    <stop offset=".983" stop-color="#3E3E3E"/>
  </linearGradient>
  <g id="r-art">
    <circle cx="40" cy="148.2" r="25.1" class="st13"/>
    <path d="M53.1 143c-1.9-4.2-7-7.2-13-7.2-7.6 0-13.8 4.8-13.8 10.8s6.2 10.8 13.8 10.8c3.4 0 6.4-.9 8.8-2.5.9-.6 1.1-1.9.3-2.7-1.2-1.2-2-1.9-2.4-3.4-.7-2.6.4-4.4 3.8-3.6.1 0 .3.1.4.1 1.5.5 2.7-1 2.1-2.3zm-9.2 7.2c-1 0-1.8-.7-1.8-1.5s.8-1.5 1.8-1.5 1.8.7 1.8 1.5-.8 1.5-1.8 1.5z" class="st2"/>
    <path d="M31.9 138.9c-.5.3.1 1.6 0 2.1-.1.4-.9 1.1-.7 1.5.3.6 2.1.7 2.8.5.5-.2 1.4-1.1 1.4-1.7 0-.3-.7-.6-.7-.8-.1-.5.5-1.9.1-2.1-.5-.3-1.3 1-1.8 1.1-.4 0-.9-.7-1.1-.6z" class="st14"/>
    <path d="M29.4 148.2c-.3.5.9 1.3 1.1 1.9.1.4-.2 1.4.1 1.7.6.4 2.2-.5 2.7-1 .3-.4.6-1.7.4-2.1-.1-.2-.9-.2-1-.4-.4-.4-.5-1.9-1-1.9s-.7 1.5-1.1 1.8c-.3.1-1.1-.2-1.2 0z" class="st15"/>
    <path d="M37.3 151.5c-.4.4.5 1.5.5 2.1 0 .4-.6 1.3-.3 1.6.5.5 2.3.2 2.8-.2.4-.3 1.1-1.4.9-2-.1-.3-.8-.4-.9-.6-.2-.5.1-1.9-.4-2.1-.5-.2-1 1.3-1.5 1.5-.3.1-.9-.5-1.1-.3z" class="st16"/>
    <path d="M42.4 137.2c-.5 0-.7 1.5-1.1 1.9-.3.3-1.3.5-1.4 1-.1.7 1.5 1.7 2.2 1.8.5.1 1.8-.3 2-.8.1-.2-.3-.8-.2-1.1.2-.5 1.4-1.3 1.1-1.8-.3-.5-1.6.2-2.1 0-.1-.1-.2-1-.5-1z" class="st17"/>
  </g>
  <path d="M72.1 131.8l2.4-8.7h2.4l2.4 8.7h-1.9l-.5-1.9h-2.5l-.5 1.9h-1.8zm3.5-7l-.9 3.7h1.7l-.8-3.7zm6.3 7h-1.8v-8.7h3.3c1.2 0 2 .8 2 2.3 0 1.1-.4 1.9-1.6 2.1.4 0 1.6.1 1.6 1.7 0 .6 0 2.2.2 2.5h-1.8c-.2-.5-.2-1.1-.2-1.7 0-1 .1-1.9-1.3-1.9h-.5v3.7zm0-4.9h.8c.7 0 .9-.7.9-1.3 0-.8-.3-1.1-.9-1.1h-.8v2.4zm10.1-3.7v1.4h-2v7.2h-1.8v-7.2h-2v-1.4H92zm.8 8.6v-8.7h1.8v8.7h-1.8zm5.7.2c-2.2 0-2.7-1.3-2.6-2.8h1.8c0 .8 0 1.5 1 1.5.6 0 .9-.4.9-1 0-1.6-3.6-1.7-3.6-4.2 0-1.4.6-2.4 2.9-2.4 1.8 0 2.6.8 2.5 2.6h-1.8c0-.6-.1-1.3-.8-1.3-.6 0-.9.3-.9.9 0 1.6 3.6 1.5 3.6 4.2 0 2.2-1.6 2.5-3 2.5zm9.5-8.8v1.4h-2v7.2h-1.8v-7.2h-2v-1.4h5.8zm.8 8.6v-8.7h1.8v8.7h-1.8zm3.3-4.3c0-2.3 0-4.5 3-4.5 1.8 0 2.6 1 2.5 2.9h-1.8c0-1.2-.2-1.6-.7-1.6-1 0-1.2 1-1.2 3.2s.1 3.2 1.2 3.2c.8 0 .8-1.1.8-1.8h1.8c0 2.3-.9 3.1-2.6 3.1-3 0-3-2.2-3-4.5zm13.9 3.2c0 .4 0 .8.1 1.1h-1.6l-.1-.8c-.4.6-.9.9-1.6.9-1.2 0-1.6-.9-1.6-1.9 0-2 1.5-2.1 3.1-2.1v-.5c0-.5-.1-.9-.7-.9s-.6.4-.6.9h-1.7c0-.7.2-1.2.6-1.5.4-.3.9-.4 1.6-.4 2.1 0 2.4.9 2.4 2v3.2zm-3.1-.7c0 .4.1 1 .6 1 1 0 .8-1.3.8-2-.8-.1-1.4-.1-1.4 1zm6.2-3.6c.2-.3.4-.5.6-.6.2-.1.5-.2.8-.2.8 0 1.5.5 1.5 1.3v4.9h-1.7v-4.2c0-.5-.1-1-.6-1s-.6.4-.6 1v4.2h-1.7v-6.1h1.7v.7zm7.3 5.4v-.7c-.3.6-.8.8-1.4.8-1.8 0-1.7-1.9-1.7-3.2 0-1.2 0-3.1 1.7-3.1.6 0 1 .2 1.4.7v-3.2h1.7v8.7h-1.7zm-.1-3c0-1.2 0-2.1-.7-2.1s-.7.8-.7 2.1c0 1.5.1 2.2.7 2.2.6-.1.7-.7.7-2.2zm-63.6 13.1c0-2.3 0-4.5 3-4.5 1.8 0 2.6 1 2.5 2.9h-1.8c0-1.2-.2-1.6-.7-1.6-1 0-1.2 1-1.2 3.2s.1 3.2 1.2 3.2c.8 0 .8-1.1.8-1.8h1.8c0 2.3-.9 3.1-2.6 3.1-3 0-3-2.2-3-4.5zm8.5 4.3h-1.8v-8.7h3.3c1.2 0 2 .8 2 2.3 0 1.1-.4 1.9-1.6 2.1.4 0 1.6.1 1.6 1.7 0 .6 0 2.2.2 2.5h-1.8c-.2-.5-.2-1.1-.2-1.7 0-1 .1-1.9-1.3-1.9h-.5v3.7zm0-4.9h.8c.7 0 .9-.7.9-1.3 0-.8-.3-1.1-.9-1.1h-.8v2.4zm4.9 4.9v-8.7h4.7v1.3h-2.9v2.1h2.7v1.3h-2.7v2.5h3v1.3h-4.8zm5.4 0l2.4-8.7h2.4l2.4 8.7h-1.9l-.5-1.9h-2.5l-.5 1.9h-1.8zm3.5-7l-.9 3.7h1.7l-.8-3.7zm8.9-1.6v1.4h-2v7.2h-1.8V139h-2v-1.4h5.8zm.8 8.6v-8.7h1.8v8.7h-1.8zm2.7-8.6h1.9l1.3 6.3 1.5-6.3h1.8l-2.3 8.7h-2.1l-2.1-8.7zm7.4 8.6v-8.7h4.7v1.3h-2.9v2.1h2.7v1.3h-2.7v2.5h3v1.3h-4.8zm-41.5 7.9c0 .4.1 1.1 1.4 1.1 1.2 0 1.4-.7 1.4-1 0-.6-.5-.8-1.3-1-.9-.2-1.3-.3-1.6-.5-.5-.3-.6-.8-.6-1.1 0-1.2 1.1-1.7 2.2-1.7.4 0 1.2.1 1.6.6.3.4.3.7.4 1H76c0-.7-.6-.9-1.2-.9-.8 0-1.3.4-1.3.9s.3.7 1 .9c1.4.4 1.5.4 1.9.6.5.4.6.9.6 1.2 0 1-.8 1.8-2.3 1.8-.4 0-1.3-.1-1.8-.7-.3-.4-.3-.9-.3-1.2h.7zM78 150h.7v3.4l1.5-1.6h1l-1.7 1.7 1.8 2.3h-1l-1.6-2.2v2.2H78V150zm4 .1h.9v.8H82v-.8zm.1 1.7h.8v4h-.8v-4zm2.2-1.7h.8v5.8h-.8v-5.8zm2.2 0h.8v5.8h-.8v-5.8zm2.7 3.9c0 .8.3 1.4 1.2 1.4.5 0 .9-.3.9-.8h.7c0 .2-.1.5-.3.8-.2.2-.6.5-1.4.5-1.3 0-1.9-.8-1.9-2.1 0-.8.2-1.4.8-1.9.4-.3.9-.3 1.1-.3 1.8 0 1.8 1.6 1.7 2.2h-2.8zm2.1-.6c0-.4-.1-1.2-1-1.2-.5 0-1.1.3-1.1 1.2h2.1zm4.7-3.3h.8v5.7H96v-.6c-.1.1-.2.3-.4.4-.3.2-.7.3-1 .3-.5 0-1.7-.3-1.7-2 0-1.5.9-2.2 1.8-2.2s1.2.5 1.2.7v-2.3zm-.3 2.6c-.2-.2-.5-.4-.9-.4-1.1 0-1.1 1.3-1.1 1.6 0 .7.2 1.5 1.1 1.5 1.2 0 1.2-1.3 1.2-1.6 0-.6-.1-.9-.3-1.1zm7.1 3.1c-.1-.2-.1-.4-.1-.6-.4.7-.9.7-1.2.7-.9 0-1.4-.5-1.4-1.2 0-.3.1-.8.7-1.2.4-.2 1.1-.3 1.4-.3h.5c0-.5 0-.7-.1-.9-.2-.2-.5-.3-.7-.3-.8 0-.8.5-.8.7h-.8c0-.2 0-.5.3-.8.3-.3.9-.4 1.3-.4.6 0 1.2.2 1.4.6.1.2.1.4.1.6v1.9c0 .1 0 .6.1 1h-.7zm-.6-1.9c-.3 0-1.4 0-1.4.8 0 .3.2.7.8.7.4 0 .7-.2.9-.4.2-.3.2-.5.2-1.1h-.5zm1.9-2.1h.7v-.8l.7-.2v1.1h.9v.6h-.9v2.4c0 .2 0 .5.5.5h.4v.6h-.6c-.7 0-1-.2-1-.9v-2.7h-.7v-.6zm6 2.8c0 .3.2.7.9.7.3 0 .5-.1.7-.3.1-.1.1-.2.1-.4 0-.4-.3-.5-.9-.6-.8-.2-1.5-.4-1.5-1.2 0-.7.6-1.2 1.6-1.2.5 0 1.2.1 1.4.6.1.2.1.4.1.6h-.8c0-.6-.5-.7-.8-.7-.1 0-.8 0-.8.6 0 .4.4.5.6.5 1.1.3 1.4.3 1.6.6.2.2.3.5.3.7 0 .4-.2.8-.5 1-.4.2-.8.3-1.2.3-.8 0-1.6-.3-1.6-1.3h.8zm3.5-2.1v-.7h.8v.7c.4-.6 1-.7 1.4-.7.9 0 1.7.6 1.7 2.1s-.9 2.2-1.8 2.2c-.6 0-1-.2-1.2-.6v2h-.7v-5zm1.9 2.9c.2 0 .6 0 .8-.4.3-.4.3-1 .3-1.3 0-.7-.2-1.5-1.1-1.5-1.2 0-1.2 1.3-1.2 1.6 0 .6.1 1.6 1.2 1.6zm4.8-3.7c1.6 0 2 1.3 2 2.1 0 1.2-.7 2.2-2 2.2s-2-.9-2-2.1c-.1-1 .4-2.2 2-2.2zm-.1 3.7c.6 0 1.2-.4 1.2-1.6 0-1-.5-1.5-1.2-1.5-.5 0-1.3.3-1.3 1.6.1.8.5 1.5 1.3 1.5zm3.3-2.8v-.8h.8v.8c.1-.6.6-.7 1-.8h.5v.7h-.3c-.9 0-1.1.5-1.1 1.2v2.1h-.8v-3.2z" class="st3"/>
  <path d="M125.7 151.8h.7v-.8l.7-.2v1.1h.9v.6h-.9v2.4c0 .2 0 .5.5.5h.4v.6h-.6c-.7 0-1-.2-1-.9v-2.7h-.7v-.6zm3.7 2.8c0 .3.2.7.9.7.3 0 .5-.1.7-.3.1-.1.1-.2.1-.4 0-.4-.3-.5-.9-.6-.8-.2-1.5-.4-1.5-1.2 0-.7.6-1.2 1.6-1.2.5 0 1.2.1 1.4.6.1.2.1.4.1.6h-.8c0-.6-.5-.7-.8-.7-.1 0-.8 0-.8.6 0 .4.4.5.6.5 1.1.3 1.4.3 1.6.6.2.2.3.5.3.7 0 .4-.2.8-.5 1-.4.2-.8.3-1.2.3-.8 0-1.6-.3-1.6-1.3h.8zm4.7.3l-.9 2h-.5l.5-2h.9zm3.6-3.1l1 3.2 1-3.2h1l.9 3.2 1-3.2h.8l-1.4 4h-1l-.9-3.3-1 3.3h-.9l-1.3-4h.8zm6.4.8v-.8h.8v.8c.1-.6.6-.7 1-.8h.5v.7h-.3c-.9 0-1.1.5-1.1 1.2v2.1h-.8v-3.2zm3-2.5h.9v.8h-.9v-.8zm.1 1.7h.8v4h-.8v-4zm1.6 0h.7v-.8l.7-.2v1.1h.9v.6h-.9v2.4c0 .2 0 .5.5.5h.4v.6h-.6c-.7 0-1-.2-1-.9v-2.7h-.7v-.6zm3.2-1.7h.9v.8h-.9v-.8zm.1 1.7h.8v4h-.8v-4zm2.3.5v-.5h.8v.6c.1-.2.4-.7 1.3-.7.4 0 1.5.1 1.5 1.4v2.7h-.8v-2.6c0-.3 0-.5-.2-.7-.2-.2-.5-.3-.7-.3-.5 0-1 .4-1 1.2v2.3h-.8v-3.4zm5.5 3.8c0 .4.2.8.9.8 1 0 1.1-.8 1.1-1.8-.3.7-1.1.7-1.3.7-.4 0-.9-.1-1.2-.5-.3-.4-.5-.9-.5-1.5 0-1.4.8-2 1.8-2 .8 0 1.1.4 1.3.6v-.6h.7v3.2c0 1 0 1.4-.2 1.7-.3.6-1.1.7-1.7.7-1.6 0-1.7-.8-1.7-1.3h.8zm1.8-1.3c.2-.2.3-.4.3-1.2 0-.5-.1-.8-.3-1-.2-.2-.5-.4-.9-.4-1 0-1.1 1-1.1 1.5 0 .6.2 1.4 1.1 1.4.4.1.7-.1.9-.3zm-87 5.4h-.4c-.6 0-.6.3-.6.6v.6h.9v.5h-.9v3.5H73V162h-.8v-.5h.8v-.5c0-.6 0-.8.2-1 .2-.3.5-.4 1-.4.2 0 .5 0 .6.1v.5zm.6-.5h.9v.8h-.9v-.8zm.1 5.7v-4h.7v4h-.7zm4.5-2.7c0-.2-.1-.8-.8-.8-1 0-1 1.2-1 1.5 0 .8.2 1.6 1 1.6.6 0 .9-.5.9-.9h.8c0 .8-.6 1.4-1.6 1.4-.3 0-.9-.1-1.3-.5-.2-.3-.5-.7-.5-1.5 0-1.7 1-2.2 1.8-2.2.3 0 .9.1 1.2.5.3.3.3.7.3.9h-.8zm1.1-1.3h.7v-.8l.7-.2v1.1h.9v.6h-.9v2.4c0 .2 0 .5.5.5h.4v.6h-.6c-.7 0-1-.2-1-.9V162H81v-.6zm3.2-1.7h.9v.8h-.9v-.8zm.1 1.7h.8v4h-.8v-4zm4-.1c1.6 0 2 1.3 2 2.1 0 1.2-.7 2.2-2 2.2s-2-.9-2-2.1c-.1-1 .4-2.2 2-2.2zm-.1 3.7c.6 0 1.2-.4 1.2-1.6 0-1-.5-1.5-1.2-1.5-.5 0-1.3.3-1.3 1.6.1.8.5 1.5 1.3 1.5zm3.2-3.1v-.5h.8v.6c.1-.2.4-.7 1.3-.7.4 0 1.5.1 1.5 1.4v2.7h-.8v-2.6c0-.3 0-.5-.2-.7-.2-.2-.5-.3-.7-.3-.5 0-1 .4-1 1.2v2.3h-.8v-3.4zm6 2.6l-.9 2H96l.5-2h.9zm6.1-4.8h.8v5.7h-.8v-.6c-.1.1-.2.3-.4.4-.3.2-.7.3-1 .3-.5 0-1.7-.3-1.7-2 0-1.5.9-2.2 1.8-2.2s1.2.5 1.2.7v-2.3zm-.3 2.6c-.2-.2-.5-.4-.9-.4-1.1 0-1.1 1.3-1.1 1.6 0 .7.2 1.5 1.1 1.5 1.2 0 1.2-1.3 1.2-1.6 0-.6-.1-.9-.3-1.1zm2.5-.1v-.8h.8v.8c.1-.6.6-.7 1-.8h.5v.7h-.3c-.9 0-1.1.5-1.1 1.2v2.1h-.8v-3.2zm5.5 3.2c-.1-.2-.1-.4-.1-.6-.4.7-.9.7-1.2.7-.9 0-1.4-.5-1.4-1.2 0-.3.1-.8.7-1.2.4-.2 1.1-.3 1.4-.3h.5c0-.5 0-.7-.1-.9-.2-.2-.5-.3-.7-.3-.8 0-.8.5-.8.7h-.8c0-.2 0-.5.3-.8.3-.3.9-.4 1.3-.4.6 0 1.2.2 1.4.6.1.2.1.4.1.6v1.9c0 .1 0 .6.1 1h-.7zm-.5-1.9c-.3 0-1.4 0-1.4.8 0 .3.2.7.8.7.4 0 .7-.2.9-.4.2-.3.2-.5.2-1.1h-.5zm2.7-2.1l1 3.2 1-3.2h1l.9 3.2 1-3.2h.8l-1.4 4h-.9l-.9-3.3-1 3.3h-.9l-1.3-4h.7zm6.4-1.7h.9v.8h-.9v-.8zm.1 1.7h.8v4h-.8v-4zm2.2.5v-.5h.8v.6c.1-.2.4-.7 1.3-.7.4 0 1.5.1 1.5 1.4v2.7h-.8v-2.6c0-.3 0-.5-.2-.7-.2-.2-.5-.3-.7-.3-.5 0-1 .4-1 1.2v2.3h-.8v-3.4zm5.6 3.8c0 .4.2.8.9.8 1 0 1.1-.8 1.1-1.8-.3.7-1.1.7-1.3.7-.4 0-.9-.1-1.2-.5-.3-.4-.5-.9-.5-1.5 0-1.4.8-2 1.8-2 .8 0 1.1.4 1.3.6v-.6h.7v3.2c0 1 0 1.4-.2 1.7-.3.6-1.1.7-1.7.7-1.6 0-1.7-.8-1.7-1.3h.8zm1.7-1.3c.2-.2.3-.4.3-1.2 0-.5-.1-.8-.3-1-.2-.2-.5-.4-.9-.4-1 0-1.1 1-1.1 1.5 0 .6.2 1.4 1.1 1.4.5.1.7-.1.9-.3zm3.6.1l-.9 2h-.5l.5-2h.9zm5-3.2c1.6 0 2 1.3 2 2.1 0 1.2-.7 2.2-2 2.2s-2-.9-2-2.1c0-1 .5-2.2 2-2.2zm0 3.7c.6 0 1.2-.4 1.2-1.6 0-1-.5-1.5-1.2-1.5-.5 0-1.3.3-1.3 1.6.1.8.4 1.5 1.3 1.5zm3.2-2.8v-.8h.8v.8c.1-.6.6-.7 1-.8h.5v.7h-.3c-.9 0-1.1.5-1.1 1.2v2.1h-.8v-3.2zm-68.5 9.5v-.7h.8v.7c.4-.6 1-.7 1.4-.7.9 0 1.7.6 1.7 2.1s-.9 2.2-1.8 2.2c-.6 0-1-.2-1.2-.6v2h-.7v-5zm1.9 2.9c.2 0 .6 0 .8-.4.3-.4.3-1 .3-1.3 0-.7-.2-1.5-1.1-1.5-1.2 0-1.2 1.3-1.2 1.6 0 .6.1 1.6 1.2 1.6zm3-5.3h.8v5.8h-.8v-5.8zm4.7 5.7c-.1-.2-.1-.4-.1-.6-.4.7-.9.7-1.2.7-.9 0-1.4-.5-1.4-1.2 0-.3.1-.8.7-1.2.4-.2 1.1-.3 1.4-.3h.5c0-.5 0-.7-.1-.9-.2-.2-.5-.3-.7-.3-.8 0-.8.5-.8.7h-.8c0-.2 0-.5.3-.8.3-.3.9-.4 1.3-.4.6 0 1.2.2 1.4.6.1.2.1.4.1.6v1.9c0 .1 0 .6.1 1h-.7zm-.5-1.9c-.3 0-1.4 0-1.4.8 0 .3.2.7.8.7.4 0 .7-.2.9-.4.2-.3.2-.5.2-1.1h-.5zm4.3 2l-.6 1.5h-.8l.6-1.5-1.7-4h.8l1.3 3.2 1.3-3.2h.8l-1.7 4zm2.6-5.8h.9v.8h-.9v-.8zm.1 1.7h.8v4h-.8v-4zm2.2.5v-.5h.8v.6c.1-.2.4-.7 1.3-.7.4 0 1.5.1 1.5 1.4v2.7h-.8v-2.6c0-.3 0-.5-.2-.7-.2-.2-.5-.3-.7-.3-.5 0-1 .4-1 1.2v2.3H91v-3.4zm5.6 3.8c0 .4.2.8.9.8 1 0 1.1-.8 1.1-1.8-.3.7-1.1.7-1.3.7-.4 0-.9-.1-1.2-.5-.3-.4-.5-.9-.5-1.5 0-1.4.8-2 1.8-2 .8 0 1.1.4 1.3.6v-.6h.7v3.2c0 1 0 1.4-.2 1.7-.3.6-1.1.7-1.7.7-1.6 0-1.7-.8-1.7-1.3h.8zm1.7-1.3c.2-.2.3-.4.3-1.2 0-.5-.1-.8-.3-1-.2-.2-.5-.4-.9-.4-1 0-1.1 1-1.1 1.5 0 .6.2 1.4 1.1 1.4.5.1.7-.1.9-.3zm4.7-2.4v-.5h.8v.6c.4-.6.9-.7 1.3-.7.9 0 1.2.5 1.3.8.1-.2.5-.8 1.4-.8.6 0 1.5.2 1.5 1.4v2.7h-.8v-2.6c0-.4-.1-.5-.1-.6-.1-.2-.4-.4-.8-.4-.5 0-.8.3-.9.4-.2.2-.2.7-.2.9v2.2h-.8v-2.7c0-.5-.3-.9-.9-.9-.5 0-.8.3-.9.4-.2.2-.2.6-.2.8v2.3h-.7v-3.3zm8.2-.6v2.6c0 .4.1.9.9.9.4 0 .7-.1.9-.4.2-.2.2-.6.2-.8V171h.8v4.1h-.8v-.7c-.1.3-.4.7-1.3.7-1 0-1.5-.6-1.5-1.4V171h.8zm4.6 2.8c0 .3.2.7.9.7.3 0 .5-.1.7-.3.1-.1.1-.2.1-.4 0-.4-.3-.5-.9-.6-.8-.2-1.5-.4-1.5-1.2 0-.7.6-1.2 1.6-1.2.5 0 1.2.1 1.4.6.1.2.1.4.1.6h-.8c0-.6-.5-.7-.8-.7-.1 0-.8 0-.8.6 0 .4.4.5.6.5 1.1.3 1.4.3 1.6.6.2.2.3.5.3.7 0 .4-.2.8-.5 1-.4.2-.8.3-1.2.3-.8 0-1.6-.3-1.6-1.3h.8zm3.5-4.5h.9v.8h-.9v-.8zm.1 1.7h.8v4h-.8v-4zm4.5 1.3c0-.2-.1-.8-.8-.8-1 0-1 1.2-1 1.5 0 .8.2 1.6 1 1.6.6 0 .9-.5.9-.9h.8c0 .8-.6 1.4-1.6 1.4-.3 0-.9-.1-1.3-.5-.2-.3-.5-.7-.5-1.5 0-1.7 1-2.2 1.8-2.2.3 0 .9.1 1.2.5.3.3.3.7.3.9h-.8z" class="st3"/>
  <g id="r-heart">
    <circle cx="40" cy="91.4" r="25.1" class="st13"/>
    <path d="M30.1 84.9c.2.1.4.1.6 0 1.3-1.1 3-3.2 3-4.3 0-.8-.2-1.2-1.2-1.7-.6-.3-1.5.4-1.9.8-.1.1-.3.1-.5 0-.4-.4-1-1.1-1.9-.8-.9.3-1.2.7-1.2 1.7.2 1.1 1.9 3.2 3.1 4.3zm5-8.2c.1.1.3.1.4 0 .9-.8 2.2-2.4 2.2-3.2 0-.6-.1-.9-.9-1.3-.5-.2-1.1.3-1.4.6-.1.1-.3.1-.3 0-.3-.3-.7-.8-1.4-.6-.7.2-.9.5-.9 1.3.1.9 1.4 2.4 2.3 3.2zm.9 7.1c.1.1.2.1.3 0 .6-.5 1.5-1.6 1.5-2.1 0-.4-.1-.6-.6-.9-.3-.2-.7.2-.9.4-.1.1-.2.1-.2 0-.2-.2-.5-.5-.9-.4-.5.2-.6.4-.6.9-.1.5.8 1.5 1.4 2.1z" class="st18"/>
    <path d="M30.3 78.7c.1.1.2.1.3 0 .6-.5 1.5-1.6 1.5-2.1 0-.4-.1-.6-.6-.9-.3-.2-.7.2-.9.4-.1.1-.2.1-.2 0-.2-.2-.5-.5-.9-.4-.5.2-.6.4-.6.9-.1.6.7 1.6 1.4 2.1zm9.9 31c.7.5 1.6.5 2.2 0 5.1-4.2 12-12.8 11.9-17.1 0-3.3-.7-4.9-4.6-6.9-2.6-1.3-5.9 1.5-7.5 3.1-.5.5-1.3.5-1.9 0-1.6-1.5-3.9-4.3-7.5-3.1-3.7 1.3-4.6 2.9-4.6 6.9.1 4.7 6.9 12.9 12 17.1z" class="st18"/>
  </g>
  <path d="M72.1 86.3v-8.7h4.7V79h-2.9v2.1h2.7v1.3h-2.7v2.5h3v1.3h-4.8zm6 0v-8.7H81l1.4 5.9 1.4-5.9h2.8v8.7h-1.8v-6.7l-1.7 6.7h-1.7l-1.6-6.7v6.7h-1.7zm9.9-4.4c0-2.3 0-4.5 3-4.5s3 2.2 3 4.5 0 4.5-3 4.5-3-2.2-3-4.5zm4.2 0c0-2.2-.1-3.2-1.2-3.2s-1.2 1-1.2 3.2.1 3.2 1.2 3.2 1.2-.9 1.2-3.2zm8.4-4.3V79h-2v7.2h-1.8V79h-2v-1.4h5.8zm.8 8.7v-8.7h1.8v8.7h-1.8zm3.3-4.4c0-2.3 0-4.5 3-4.5s3 2.2 3 4.5 0 4.5-3 4.5-3-2.2-3-4.5zm4.1 0c0-2.2-.1-3.2-1.2-3.2s-1.2 1-1.2 3.2.1 3.2 1.2 3.2 1.2-.9 1.2-3.2zm3.3 4.4v-8.7h2.4l2.3 6v-6h1.7v8.7h-2.4l-2.4-6.3v6.3h-1.6zm7.4 0l2.4-8.7h2.4l2.4 8.7h-1.9l-.5-1.9h-2.5l-.5 1.9h-1.8zm3.5-7l-.9 3.7h1.7l-.8-3.7zm4.5 7v-8.7h1.8v7.2h2.7v1.4h-4.5zm-54 9.6v-5.1h-1.9v-.7h4.7v.7h-1.9v5.1h-.9zm3-1.9c0 .8.3 1.4 1.2 1.4.5 0 .9-.3.9-.8h.8c0 .2-.1.5-.3.8-.2.2-.6.5-1.4.5-1.3 0-1.9-.8-1.9-2.1 0-.8.2-1.4.8-1.9.4-.3.9-.3 1.1-.3 1.8 0 1.8 1.6 1.7 2.2h-2.9zm2.1-.5c0-.4-.1-1.2-1-1.2-.5 0-1.1.3-1.1 1.2h2.1zm1.9-1.2v-.5h.8v.6c.1-.2.4-.7 1.3-.7.4 0 1.5.1 1.5 1.4v2.7h-.8v-2.6c0-.3 0-.5-.2-.7-.2-.2-.5-.3-.7-.3-.5 0-1 .4-1 1.2v2.3h-.8v-3.4zm7.7-2.2h.8v5.7h-.8v-.6c-.1.1-.2.3-.4.4-.3.2-.7.3-1 .3-.5 0-1.7-.3-1.7-2 0-1.5.9-2.2 1.8-2.2s1.2.5 1.2.7v-2.3zm-.3 2.6c-.2-.2-.5-.4-.9-.4-1.1 0-1.1 1.3-1.1 1.6 0 .7.2 1.5 1.1 1.5 1.2 0 1.2-1.3 1.2-1.6 0-.6-.2-.9-.3-1.1zm2.8 2c0 .3.2.7.9.7.3 0 .5-.1.7-.3.1-.1.1-.2.1-.4 0-.4-.3-.5-.9-.6-.8-.1-1.5-.3-1.5-1.1 0-.7.6-1.2 1.6-1.2.5 0 1.2.1 1.4.6.1.2.1.4.1.6h-.8c0-.6-.5-.7-.8-.7-.1 0-.8 0-.8.6 0 .4.4.5.6.5 1.1.3 1.4.3 1.6.6.2.2.3.5.3.7 0 .4-.2.8-.5 1-.4.2-.8.3-1.2.3-.8 0-1.6-.3-1.6-1.3h.8zm5.2-2.9h.7V91l.7-.2v1.1h.9v.6h-.9v2.4c0 .2 0 .5.5.5h.4v.6h-.6c-.7 0-1-.2-1-.9v-2.7h-.7v-.6zm5 0c1.6 0 2 1.3 2 2.1 0 1.2-.7 2.2-2 2.2s-2-.9-2-2.1c0-1.1.4-2.2 2-2.2zm-.1 3.7c.6 0 1.2-.4 1.2-1.6 0-1-.5-1.5-1.2-1.5-.5 0-1.3.3-1.3 1.6.1.7.5 1.5 1.3 1.5zm5.4-3v-.7h.8v.7c.4-.6 1-.7 1.4-.7.9 0 1.7.6 1.7 2.1s-.9 2.2-1.8 2.2c-.6 0-1-.2-1.2-.6v2h-.7v-5zm1.9 3c.2 0 .6 0 .8-.4.3-.4.3-1 .3-1.3 0-.7-.2-1.5-1.1-1.5-1.2 0-1.2 1.3-1.2 1.6.1.6.1 1.6 1.2 1.6zm4.8-3.7c1.6 0 2 1.3 2 2.1 0 1.2-.7 2.2-2 2.2s-2-.9-2-2.1c0-1.1.4-2.2 2-2.2zm-.1 3.7c.6 0 1.2-.4 1.2-1.6 0-1-.5-1.5-1.2-1.5-.5 0-1.3.3-1.3 1.6.1.7.5 1.5 1.3 1.5zm3.3-3.2v-.5h.8v.6c.1-.2.4-.7 1.3-.7.4 0 1.5.1 1.5 1.4v2.7h-.8v-2.6c0-.3 0-.5-.2-.7-.2-.2-.5-.3-.7-.3-.5 0-1 .4-1 1.2v2.3h-.8v-3.4zm7.6-2.2h.8v5.7h-.8v-.6c-.1.1-.2.3-.4.4-.3.2-.7.3-1 .3-.5 0-1.7-.3-1.7-2 0-1.5.9-2.2 1.8-2.2s1.2.5 1.2.7v-2.3zm-.3 2.6c-.2-.2-.5-.4-.9-.4-1.1 0-1.1 1.3-1.1 1.6 0 .7.2 1.5 1.1 1.5 1.2 0 1.2-1.3 1.2-1.6 0-.6-.1-.9-.3-1.1zm2.9 1.3c0 .8.3 1.4 1.2 1.4.5 0 .9-.3.9-.8h.8c0 .2-.1.5-.3.8-.2.2-.6.5-1.4.5-1.3 0-1.9-.8-1.9-2.1 0-.8.2-1.4.8-1.9.4-.3.9-.3 1.1-.3 1.8 0 1.8 1.6 1.7 2.2h-2.9zm2.1-.5c0-.4-.1-1.2-1-1.2-.5 0-1.1.3-1.1 1.2h2.1zm1.9-.8v-.8h.8v.8c.1-.6.6-.7 1-.8h.5v.7h-.3c-.9 0-1.1.5-1.1 1.2v2.1h-.8v-3.2zm7.7 3.2c-.1-.2-.1-.4-.1-.6-.4.7-.9.7-1.2.7-.9 0-1.4-.5-1.4-1.2 0-.3.1-.8.7-1.2.4-.2 1.1-.3 1.4-.3h.5c0-.5 0-.7-.1-.9-.2-.2-.5-.3-.7-.3-.8 0-.8.5-.8.7h-.8c0-.2 0-.5.3-.8.3-.3.9-.4 1.3-.4.6 0 1.2.2 1.4.6.1.2.1.4.1.6v1.9c0 .1 0 .6.1 1h-.7zm-.5-2c-.3 0-1.4 0-1.4.8 0 .3.2.7.8.7.4 0 .7-.2.9-.4.2-.3.2-.5.2-1.1h-.5zm2.6-1.6v-.5h.8v.6c.1-.2.4-.7 1.3-.7.4 0 1.5.1 1.5 1.4v2.7h-.8v-2.6c0-.3 0-.5-.2-.7-.2-.2-.5-.3-.7-.3-.5 0-1 .4-1 1.2v2.3h-.8v-3.4zm7.6-2.2h.8v5.7h-.8v-.6c-.1.1-.2.3-.4.4-.3.2-.7.3-1 .3-.5 0-1.7-.3-1.7-2 0-1.5.9-2.2 1.8-2.2s1.2.5 1.2.7v-2.3zm-.3 2.6c-.2-.2-.5-.4-.9-.4-1.1 0-1.1 1.3-1.1 1.6 0 .7.2 1.5 1.1 1.5 1.2 0 1.2-1.3 1.2-1.6 0-.6-.1-.9-.3-1.1zm-72.9 12.8c-.1-.2-.1-.4-.1-.6-.4.7-.9.7-1.2.7-.9 0-1.4-.5-1.4-1.2 0-.3.1-.8.7-1.2.4-.2 1.1-.3 1.4-.3h.5c0-.5 0-.7-.1-.9-.2-.2-.5-.3-.7-.3-.8 0-.8.5-.8.7H72c0-.2 0-.5.3-.8.3-.3.9-.4 1.3-.4.6 0 1.2.2 1.4.6.1.2.1.4.1.6v1.9c0 .1 0 .6.1 1h-.7zm-.5-2c-.3 0-1.4 0-1.4.8 0 .3.2.7.8.7.4 0 .7-.2.9-.4.2-.3.2-.5.2-1.1H74zm4.8-.7c0-.2-.1-.8-.8-.8-1 0-1 1.2-1 1.5 0 .8.2 1.6 1 1.6.6 0 .9-.5.9-.9h.8c0 .8-.6 1.4-1.6 1.4-.3 0-.9-.1-1.3-.5-.2-.3-.5-.7-.5-1.5 0-1.7 1-2.2 1.8-2.2.3 0 .9.1 1.2.5.3.3.3.7.3.9h-.8zm1.1-1.4h.7v-.8l.7-.2v1.1h.9v.6h-.9v2.4c0 .2 0 .5.5.5h.4v.6h-.6c-.7 0-1-.2-1-.9V102h-.7v-.6zm7.2 0c1.6 0 2 1.3 2 2.1 0 1.2-.7 2.2-2 2.2s-2-.9-2-2.1c0-1.1.5-2.2 2-2.2zm0 3.7c.6 0 1.2-.4 1.2-1.6 0-1-.5-1.5-1.2-1.5-.5 0-1.3.3-1.3 1.6.1.7.4 1.5 1.3 1.5zm3.2-3.2v-.5h.8v.6c.1-.2.4-.7 1.3-.7.4 0 1.5.1 1.5 1.4v2.7H93v-2.6c0-.3 0-.5-.2-.7-.2-.2-.5-.3-.7-.3-.5 0-1 .4-1 1.2v2.3h-.8v-3.4zm9.1-1.6H99c-.6 0-.6.3-.6.6v.6h.9v.5h-.9v3.5h-.7V102h-.8v-.5h.8v-.5c0-.6 0-.8.2-1 .2-.3.5-.4 1-.4.2 0 .5 0 .6.1v.6zm1.1 3.3c0 .8.3 1.4 1.2 1.4.5 0 .9-.3.9-.8h.8c0 .2-.1.5-.3.8-.2.2-.6.5-1.4.5-1.3 0-1.9-.8-1.9-2.1 0-.8.2-1.4.8-1.9.4-.3.9-.3 1.1-.3 1.8 0 1.8 1.6 1.7 2.2h-2.9zm2.1-.5c0-.4-.1-1.2-1-1.2-.5 0-1.1.3-1.1 1.2h2.1zm2.4.5c0 .8.3 1.4 1.2 1.4.5 0 .9-.3.9-.8h.8c0 .2-.1.5-.3.8-.2.2-.6.5-1.4.5-1.3 0-1.9-.8-1.9-2.1 0-.8.2-1.4.8-1.9.4-.3.9-.3 1.1-.3 1.8 0 1.8 1.6 1.7 2.2H105zm2.1-.5c0-.4-.1-1.2-1-1.2-.5 0-1.1.3-1.1 1.2h2.1zm1.9-3.4h.8v5.8h-.8v-5.8zm2.1 0h.9v.8h-.9v-.8zm.1 1.8h.8v4h-.8v-4zm2.2.4v-.5h.8v.6c.1-.2.4-.7 1.3-.7.4 0 1.5.1 1.5 1.4v2.7h-.8v-2.6c0-.3 0-.5-.2-.7-.2-.2-.5-.3-.7-.3-.5 0-1 .4-1 1.2v2.3h-.8v-3.4zm5.6 3.9c0 .4.2.8.9.8 1 0 1.1-.8 1.1-1.8-.3.7-1.1.7-1.3.7-.4 0-.9-.1-1.2-.5-.3-.4-.5-.9-.5-1.5 0-1.4.8-2 1.8-2 .8 0 1.1.4 1.3.6v-.6h.7v3.2c0 1 0 1.4-.2 1.7-.3.6-1.1.7-1.7.7-1.6 0-1.7-.8-1.7-1.3h.8zm1.8-1.4c.2-.2.3-.4.3-1.2 0-.5-.1-.8-.3-1-.2-.2-.5-.4-.9-.4-1 0-1.1 1-1.1 1.5 0 .6.2 1.4 1.1 1.4.4.1.7 0 .9-.3zm2.8-.1c0 .3.2.7.9.7.3 0 .5-.1.7-.3.1-.1.1-.2.1-.4 0-.4-.3-.5-.9-.6-.8-.2-1.5-.4-1.5-1.2 0-.7.6-1.2 1.6-1.2.5 0 1.2.1 1.4.6.1.2.1.4.1.6h-.8c0-.6-.5-.7-.8-.7-.1 0-.8 0-.8.6 0 .4.4.5.6.5 1.1.3 1.4.3 1.6.6.2.2.3.5.3.7 0 .4-.2.8-.5 1-.4.2-.8.3-1.2.3-.8 0-1.6-.3-1.6-1.3h.8z" class="st3"/>
  <g id="r-music">
    <circle cx="39.6" cy="325" r="25.1" class="st13"/>
    <path d="M53.3 321.4v11.2c0 1.1-.9 2-2 2h-2.8c-1.3 0-2.4-1.1-2.4-2.4v-7.6c0-1.3 1.1-2.4 2.4-2.4h2.3c.1 0 .1-.1.1-.1v-1.2c0-.1 0-.2-.1-.3-.4-1.2-3.5-8.1-11.6-7.8-6.2.3-8.2 3.6-10.9 7.2-.4.5-.6 1.1-.6 1.7v.5s0 .1.1.1h2.4c1.3 0 2.4 1.1 2.4 2.4v7.6c0 1.3-1.1 2.4-2.4 2.4h-2.8c-1.2 0-2.1-.9-2.1-2.1v-10.2c0-1.2.3-2.5.9-3.5 1.7-3 5.9-8.7 13-8.7 9.2 0 11.7 5.2 13.8 9.9.2.4.3.8.3 1.3z" class="st19"/>
  </g>
  <path d="M76.1 317c-2.2 0-2.7-1.3-2.6-2.8h1.8c0 .8 0 1.5 1 1.5.6 0 .9-.4.9-1 0-1.6-3.6-1.7-3.6-4.2 0-1.4.6-2.4 2.9-2.4 1.8 0 2.6.8 2.5 2.6h-1.8c0-.6-.1-1.3-.8-1.3-.6 0-.9.3-.9.9 0 1.6 3.6 1.5 3.6 4.2 0 2.2-1.7 2.5-3 2.5zm4.2-4.5c0-2.3 0-4.5 3-4.5s3 2.2 3 4.5 0 4.5-3 4.5-3-2.2-3-4.5zm4.1 0c0-2.2-.1-3.2-1.2-3.2s-1.2 1-1.2 3.2.1 3.2 1.2 3.2 1.2-1 1.2-3.2zm9.2-4.3v6.1c0 1.3-.7 2.7-2.9 2.7-2 0-3-1-3-2.7v-6.1h1.8v6c0 1.1.5 1.5 1.1 1.5.8 0 1.2-.5 1.2-1.5v-6h1.8zm1.5 8.6v-8.7h2.4l2.3 6v-6h1.7v8.7h-2.4l-2.4-6.3v6.3h-1.6zm8-8.6h3c2.4 0 2.8 1.6 2.8 4.3 0 1.3.2 4.4-2.9 4.4h-3v-8.7zm1.8 7.3h.9c1.1 0 1.3-.8 1.3-3 0-1.6 0-3-1.3-3h-.9v6zm-31.2 5.2h1.9c.7 0 1.2 0 1.6.5.3.3.4.7.4 1.1 0 .4-.1.8-.5 1.1-.3.3-.7.5-1.7.5h-.9v2.6h-.8v-5.8zm.8 2.5h1c.5 0 1.3 0 1.3-1 0-.9-.8-.9-1.2-.9h-1.1v1.9zm3.9 0v-.8h.8v.8c.1-.6.6-.7 1-.8h.5v.7h-.3c-.9 0-1.1.5-1.1 1.2v2.1h-.8v-3.2zm3.6 1.4c0 .8.3 1.4 1.2 1.4.5 0 .9-.3.9-.8h.8c0 .2-.1.5-.3.8-.2.2-.6.5-1.4.5-1.3 0-1.9-.8-1.9-2.1 0-.8.2-1.4.8-1.9.4-.3.9-.3 1.1-.3 1.8 0 1.8 1.6 1.7 2.2H82zm2.1-.6c0-.4-.1-1.2-1-1.2-.5 0-1.1.3-1.1 1.2h2.1zm3.9-2.8h-.4c-.6 0-.6.3-.6.6v.6h.9v.5H87v3.5h-.7V323h-.8v-.5h.8v-.5c0-.6 0-.8.2-1 .2-.3.5-.4 1-.4.2 0 .5 0 .6.1v.5zm1.1 3.4c0 .8.3 1.4 1.2 1.4.5 0 .9-.3.9-.8h.8c0 .2-.1.5-.3.8-.2.2-.6.5-1.4.5-1.3 0-1.9-.8-1.9-2.1 0-.8.2-1.4.8-1.9.4-.3.9-.3 1.1-.3 1.8 0 1.8 1.6 1.7 2.2h-2.9zm2.1-.6c0-.4-.1-1.2-1-1.2-.5 0-1.1.3-1.1 1.2h2.1zm1.9-.8v-.8h.8v.8c.1-.6.6-.7 1-.8h.5v.7h-.3c-.9 0-1.1.5-1.1 1.2v2.1h-.8v-3.2zm3.7 2c0 .3.2.7.9.7.3 0 .5-.1.7-.3.1-.1.1-.2.1-.4 0-.4-.3-.5-.9-.6-.8-.2-1.5-.4-1.5-1.2 0-.7.6-1.2 1.6-1.2.5 0 1.2.1 1.4.6.1.2.1.4.1.6h-.8c0-.6-.5-.7-.8-.7-.1 0-.8 0-.8.6 0 .4.4.5.6.5 1.1.3 1.4.3 1.6.6.2.2.3.5.3.7 0 .4-.2.8-.5 1-.4.2-.8.3-1.2.3-.8 0-1.6-.3-1.6-1.3h.8zm5.8-2v-.8h.8v.8c.1-.6.6-.7 1-.8h.5v.7h-.3c-.9 0-1.1.5-1.1 1.2v2.1h-.8v-3.2zm4.8-.9c1.6 0 2 1.3 2 2.1 0 1.2-.7 2.2-2 2.2s-2-.9-2-2.1c0-1 .4-2.2 2-2.2zm0 3.7c.6 0 1.2-.4 1.2-1.6 0-1-.5-1.5-1.2-1.5-.5 0-1.3.3-1.3 1.6.1.7.4 1.5 1.3 1.5zm5.4-2.3c0-.2-.1-.8-.8-.8-1 0-1 1.2-1 1.5 0 .8.2 1.6 1 1.6.6 0 .9-.5.9-.9h.8c0 .8-.6 1.4-1.6 1.4-.3 0-.9-.1-1.3-.5-.2-.3-.5-.7-.5-1.5 0-1.7 1-2.2 1.8-2.2.3 0 .9.1 1.2.5.3.3.3.7.3.9h-.8zm1.3-3.1h.7v3.4l1.5-1.6h1l-1.7 1.7 1.8 2.3h-1l-1.6-2.2v2.2h-.7v-5.8zm6.3 2.3v-.5h.8v.6c.4-.6.9-.7 1.3-.7.9 0 1.2.5 1.3.8.1-.2.5-.8 1.4-.8.6 0 1.5.2 1.5 1.4v2.7h-.8v-2.6c0-.4-.1-.5-.1-.6-.1-.2-.4-.4-.8-.4-.5 0-.8.3-.9.4-.2.2-.2.7-.2.9v2.2h-.8v-2.7c0-.5-.3-.9-.9-.9-.5 0-.8.3-.9.4-.2.2-.2.6-.2.8v2.3h-.8v-3.3zm8.2-.5v2.6c0 .4.1.9.9.9.4 0 .7-.1.9-.4.2-.2.2-.6.2-.8v-2.3h.8v4.1h-.8v-.7c-.1.3-.4.7-1.3.7-1 0-1.5-.6-1.5-1.4v-2.7h.8zm4.7 2.8c0 .3.2.7.9.7.3 0 .5-.1.7-.3.1-.1.1-.2.1-.4 0-.4-.3-.5-.9-.6-.8-.2-1.5-.4-1.5-1.2 0-.7.6-1.2 1.6-1.2.5 0 1.2.1 1.4.6.1.2.1.4.1.6h-.8c0-.6-.5-.7-.8-.7-.1 0-.8 0-.8.6 0 .4.4.5.6.5 1.1.3 1.4.3 1.6.6.2.2.3.5.3.7 0 .4-.2.8-.5 1-.4.2-.8.3-1.2.3-.8 0-1.6-.3-1.6-1.3h.8zm3.5-4.5h.9v.8h-.9v-.8zm0 1.7h.8v4h-.8v-4zm4.5 1.3c0-.2-.1-.8-.8-.8-1 0-1 1.2-1 1.5 0 .8.2 1.6 1 1.6.6 0 .9-.5.9-.9h.8c0 .8-.6 1.4-1.6 1.4-.3 0-.9-.1-1.3-.5-.2-.3-.5-.7-.5-1.5 0-1.7 1-2.2 1.8-2.2.3 0 .9.1 1.2.5.3.3.3.7.3.9h-.8zm6.4 2.7c-.1-.2-.1-.4-.1-.6-.4.7-.9.7-1.2.7-.9 0-1.4-.5-1.4-1.2 0-.3.1-.8.7-1.2.4-.2 1.1-.3 1.4-.3h.5c0-.5 0-.7-.1-.9-.2-.2-.5-.3-.7-.3-.8 0-.8.5-.8.7h-.8c0-.2 0-.5.3-.8.3-.3.9-.4 1.3-.4.6 0 1.2.2 1.4.6.1.2.1.4.1.6v1.9c0 .1 0 .6.1 1h-.7zm-.5-2c-.3 0-1.4 0-1.4.8 0 .3.2.7.8.7.4 0 .7-.2.9-.4.2-.3.2-.5.2-1.1-.2.1-.3 0-.5 0zm2.5-1.5v-.5h.8v.6c.1-.2.4-.7 1.3-.7.4 0 1.5.1 1.5 1.4v2.7h-.8v-2.6c0-.3 0-.5-.2-.7-.2-.2-.5-.3-.7-.3-.5 0-1 .4-1 1.2v2.3h-.8v-3.4zm7.7-2.2h.8v5.7h-.8v-.6c-.1.1-.2.3-.4.4-.3.2-.7.3-1 .3-.5 0-1.7-.3-1.7-2 0-1.5.9-2.2 1.8-2.2s1.2.5 1.2.7v-2.3zm-.3 2.5c-.2-.2-.5-.4-.9-.4-1.1 0-1.1 1.3-1.1 1.6 0 .7.2 1.5 1.1 1.5 1.2 0 1.2-1.3 1.2-1.6 0-.5-.1-.8-.3-1.1zm-81.2 10.1c0-.2-.1-.8-.8-.8-1 0-1 1.2-1 1.5 0 .8.2 1.6 1 1.6.6 0 .9-.5.9-.9h.8c0 .8-.6 1.4-1.6 1.4-.3 0-.9-.1-1.3-.5-.2-.3-.5-.7-.5-1.5 0-1.7 1-2.2 1.8-2.2.3 0 .9.1 1.2.5.3.3.3.7.3.9h-.8zm4.2 2.7c-.1-.2-.1-.4-.1-.6-.4.7-.9.7-1.2.7-.9 0-1.4-.5-1.4-1.2 0-.3.1-.8.7-1.2.4-.2 1.1-.3 1.4-.3h.5c0-.5 0-.7-.1-.9-.2-.2-.5-.3-.7-.3-.8 0-.8.5-.8.7h-.8c0-.2 0-.5.3-.8.3-.3.9-.4 1.3-.4.6 0 1.2.2 1.4.6.1.2.1.4.1.6v1.9c0 .1 0 .6.1 1h-.7zm-.5-2c-.3 0-1.4 0-1.4.8 0 .3.2.7.8.7.4 0 .7-.2.9-.4.2-.3.2-.5.2-1.1-.2.1-.3 0-.5 0zm2.5-1.5v-.5h.8v.6c.1-.2.4-.7 1.3-.7.4 0 1.5.1 1.5 1.4v2.7h-.8v-2.6c0-.3 0-.5-.2-.7-.2-.2-.5-.3-.7-.3-.5 0-1 .4-1 1.2v2.3h-.8v-3.4zm7.6 2.3c0 .3.2.7.9.7.3 0 .5-.1.7-.3.1-.1.1-.2.1-.4 0-.4-.3-.5-.9-.6-.8-.2-1.5-.4-1.5-1.2 0-.7.6-1.2 1.6-1.2.5 0 1.2.1 1.4.6.1.2.1.4.1.6h-.8c0-.6-.5-.7-.8-.7-.1 0-.8 0-.8.6 0 .4.4.5.6.5 1.1.3 1.4.3 1.6.6.2.2.3.5.3.7 0 .4-.2.8-.5 1-.4.2-.8.3-1.2.3-.8 0-1.6-.3-1.6-1.3h.8zm2.9-2.8h.7v-.8l.7-.2v1.1h1v.6h-.9v2.4c0 .2 0 .5.5.5h.4v.6h-.6c-.7 0-1-.2-1-.9v-2.7h-.7v-.6zm4 0v2.6c0 .4.1.9.9.9.4 0 .7-.1.9-.4.2-.2.2-.6.2-.8V332h.8v4.1h-.8v-.7c-.1.3-.4.7-1.3.7-1 0-1.5-.6-1.5-1.4V332h.8zm7-1.7h.8v5.7h-.8v-.6c-.1.1-.2.3-.4.4-.3.2-.7.3-1 .3-.5 0-1.7-.3-1.7-2 0-1.5.9-2.2 1.8-2.2s1.2.5 1.2.7v-2.3zm-.3 2.5c-.2-.2-.5-.4-.9-.4-1.1 0-1.1 1.3-1.1 1.6 0 .7.2 1.5 1.1 1.5 1.2 0 1.2-1.3 1.2-1.6 0-.5-.2-.8-.3-1.1zm4.2 3.2l-.6 1.5h-.8l.6-1.5-1.7-4h.8l1.3 3.2 1.3-3.2h.8l-1.7 4zm5.1-4l1 3.2 1-3.2h1l.9 3.2 1-3.2h.8l-1.4 4h-.9l-.9-3.3-1 3.3h-.9l-1.3-4h.7zm6.3-1.7h.9v.8h-.9v-.8zm.1 1.7h.8v4h-.8v-4zm1.6 0h.7v-.8l.7-.2v1.1h.9v.6h-.9v2.4c0 .2 0 .5.5.5h.4v.6h-.6c-.7 0-1-.2-1-.9v-2.7h-.7v-.6zm3.3-1.7h.8v2.3c.2-.4.7-.7 1.3-.7.4 0 1 .2 1.3.6.1.2.1.4.1.9v2.5h-.8v-2.4c0-.4 0-1.1-.9-1.1-.6 0-.8.3-.9.5-.1.2-.1.6-.1.8v2.1h-.8v-5.5zm7.1 2.2v-.5h.8v.6c.4-.6.9-.7 1.3-.7.9 0 1.2.5 1.3.8.1-.2.5-.8 1.4-.8.6 0 1.5.2 1.5 1.4v2.7h-.8v-2.6c0-.4-.1-.5-.1-.6-.1-.2-.4-.4-.8-.4-.5 0-.8.3-.9.4-.2.2-.2.7-.2.9v2.2h-.8v-2.7c0-.5-.3-.9-.9-.9-.5 0-.8.3-.9.4-.2.2-.2.6-.2.8v2.3h-.7v-3.3zm8.2-.5v2.6c0 .4.1.9.9.9.4 0 .7-.1.9-.4.2-.2.2-.6.2-.8V332h.8v4.1h-.8v-.7c-.1.3-.4.7-1.3.7-1 0-1.5-.6-1.5-1.4V332h.8zm4.7 2.8c0 .3.2.7.9.7.3 0 .5-.1.7-.3.1-.1.1-.2.1-.4 0-.4-.3-.5-.9-.6-.8-.2-1.5-.4-1.5-1.2 0-.7.6-1.2 1.6-1.2.5 0 1.2.1 1.4.6.1.2.1.4.1.6h-.8c0-.6-.5-.7-.8-.7-.1 0-.8 0-.8.6 0 .4.4.5.6.5 1.1.3 1.4.3 1.6.6.2.2.3.5.3.7 0 .4-.2.8-.5 1-.4.2-.8.3-1.2.3-.8 0-1.6-.3-1.6-1.3h.8zm3.5-4.5h.9v.8h-.9v-.8zm0 1.7h.8v4h-.8v-4zm4.5 1.3c0-.2-.1-.8-.8-.8-1 0-1 1.2-1 1.5 0 .8.2 1.6 1 1.6.6 0 .9-.5.9-.9h.8c0 .8-.6 1.4-1.6 1.4-.3 0-.9-.1-1.3-.5-.2-.3-.5-.7-.5-1.5 0-1.7 1-2.2 1.8-2.2.3 0 .9.1 1.2.5.3.3.3.7.3.9h-.8zm-76.5 8.2c1.6 0 2 1.3 2 2.1 0 1.2-.7 2.2-2 2.2s-2-.9-2-2.1c0-1 .4-2.2 2-2.2zm0 3.7c.6 0 1.2-.4 1.2-1.6 0-1-.5-1.5-1.2-1.5-.5 0-1.3.3-1.3 1.6.1.7.4 1.5 1.3 1.5zm3.2-2.8v-.8h.8v.8c.1-.6.6-.7 1-.8h.5v.7h-.3c-.9 0-1.1.5-1.1 1.2v2.1h-.8v-3.2zm4.7-.8h.7v-.8l.7-.2v1.1h.9v.6h-.9v2.4c0 .2 0 .5.5.5h.4v.6H85c-.7 0-1-.2-1-.9v-2.7h-.7v-.6zm3.7 2.2c0 .8.3 1.4 1.2 1.4.5 0 .9-.3.9-.8h.8c0 .2-.1.5-.3.8-.2.2-.6.5-1.4.5-1.3 0-1.9-.8-1.9-2.1 0-.8.2-1.4.8-1.9.4-.3.9-.3 1.1-.3 1.8 0 1.8 1.6 1.7 2.2H87zm2.1-.6c0-.4-.1-1.2-1-1.2-.5 0-1.1.3-1.1 1.2h2.1zm1.9-3.3h.8v5.8H91v-5.8zm2.7 3.9c0 .8.3 1.4 1.2 1.4.5 0 .9-.3.9-.8h.8c0 .2-.1.5-.3.8-.2.2-.6.5-1.4.5-1.3 0-1.9-.8-1.9-2.1 0-.8.2-1.4.8-1.9.4-.3.9-.3 1.1-.3 1.8 0 1.8 1.6 1.7 2.2h-2.9zm2.1-.6c0-.4-.1-1.2-1-1.2-.5 0-1.1.3-1.1 1.2h2.1zm1.3-1.6h.8l1.3 3.2 1.2-3.2h.8l-1.8 4h-.8l-1.5-4zm4.9-1.7h.9v.8h-.9v-.8zm.1 1.7h.8v4h-.8v-4zm2.7 2.8c0 .3.2.7.9.7.3 0 .5-.1.7-.3.1-.1.1-.2.1-.4 0-.4-.3-.5-.9-.6-.8-.2-1.5-.4-1.5-1.2 0-.7.6-1.2 1.6-1.2.5 0 1.2.1 1.4.6.1.2.1.4.1.6h-.8c0-.6-.5-.7-.8-.7-.1 0-.8 0-.8.6 0 .4.4.5.6.5 1.1.3 1.4.3 1.6.6.2.2.3.5.3.7 0 .4-.2.8-.5 1-.4.2-.8.3-1.2.3-.8 0-1.6-.3-1.6-1.3h.8zm3.5-4.5h.9v.8h-.9v-.8zm.1 1.7h.8v4h-.8v-4zm3.9-.1c1.6 0 2 1.3 2 2.1 0 1.2-.7 2.2-2 2.2s-2-.9-2-2.1c0-1 .4-2.2 2-2.2zm0 3.7c.6 0 1.2-.4 1.2-1.6 0-1-.5-1.5-1.2-1.5-.5 0-1.3.3-1.3 1.6.1.7.4 1.5 1.3 1.5zm3.2-3.1v-.5h.8v.6c.1-.2.4-.7 1.3-.7.4 0 1.5.1 1.5 1.4v2.7h-.8V343c0-.3 0-.5-.2-.7-.2-.2-.5-.3-.7-.3-.5 0-1 .4-1 1.2v2.3h-.8v-3.4zm8.8-.6c1.6 0 2 1.3 2 2.1 0 1.2-.7 2.2-2 2.2s-2-.9-2-2.1c0-1 .4-2.2 2-2.2zm0 3.7c.6 0 1.2-.4 1.2-1.6 0-1-.5-1.5-1.2-1.5-.5 0-1.3.3-1.3 1.6.1.7.4 1.5 1.3 1.5zm3.2-3.1v-.5h.8v.6c.1-.2.4-.7 1.3-.7.4 0 1.5.1 1.5 1.4v2.7h-.8V343c0-.3 0-.5-.2-.7-.2-.2-.5-.3-.7-.3-.5 0-1 .4-1 1.2v2.3h-.8v-3.4z" class="st3"/>
  <g id="r-psychic">
    <circle cx="40.6" cy="268.5" r="25.1" class="st13"/>
    <path d="M26.4 259.5l13.7 23.8c.2.4.9.4 1.1 0l13.7-23.8c.2-.4-.1-.9-.5-.9H26.9c-.5 0-.8.5-.5.9z" class="st20"/>
    <path d="M26.4 277.4L40 253.8c.3-.5.9-.5 1.2 0l13.6 23.6c.3.5-.1 1-.6 1H27c-.5 0-.8-.6-.6-1z" class="st21"/>
    <path d="M35 269.7c-.5-.5-.4-1.2.1-1.7 1.2-1 3.5-2.5 5.7-2.5 2.7 0 4.8 1.1 6.5 2.5.5.4.5 1.2 0 1.7-1 .9-3 2.2-6 2.6h-.2c-.7-.1-3.8-.3-6.1-2.6z" class="st22"/>
    <circle cx="41.2" cy="268.9" r="3" class="st23"/>
    <path d="M42 268.6c-.5 0-.9-.4-.9-.9 0-.2.1-.4.2-.5h-.2c-.9 0-1.7.8-1.7 1.7 0 .9.8 1.7 1.7 1.7.9 0 1.7-.8 1.7-1.7 0-.2-.1-.5-.1-.7-.1.2-.4.4-.7.4z" class="st2"/>
  </g>
  <path d="M71.8 248.4H75c1.7 0 2.3 1 2.3 2.6 0 1-.3 2.5-2.4 2.5h-1.3v3.5h-1.8v-8.6zm1.8 3.8h1c.5 0 .9-.6.9-1.2 0-.7-.2-1.3-1-1.3h-.9v2.5zm7.2 5c-2.2 0-2.7-1.3-2.6-2.8H80c0 .8 0 1.5 1 1.5.6 0 .9-.4.9-1 0-1.6-3.6-1.7-3.6-4.2 0-1.4.6-2.4 2.9-2.4 1.8 0 2.6.8 2.5 2.6h-1.8c0-.6-.1-1.3-.8-1.3-.6 0-.9.3-.9.9 0 1.6 3.6 1.5 3.6 4.2 0 2.3-1.6 2.5-3 2.5zm5.9-3.1l-2.3-5.7h2l1.3 3.7 1.4-3.7h1.8l-2.4 5.7v3h-1.8v-3zm5-1.3c0-2.3 0-4.5 3-4.5 1.8 0 2.6 1 2.5 2.9h-1.8c0-1.2-.2-1.6-.7-1.6-1 0-1.2 1-1.2 3.2s.1 3.2 1.2 3.2c.8 0 .8-1.1.8-1.8h1.8c0 2.3-.9 3.1-2.6 3.1-3-.1-3-2.3-3-4.5zm10.7-.9v-3.5h1.8v8.7h-1.8v-3.9h-2.1v3.9h-1.8v-8.7h1.8v3.5h2.1zm3.4 5.2v-8.7h1.8v8.7h-1.8zm3.2-4.3c0-2.3 0-4.5 3-4.5 1.8 0 2.6 1 2.5 2.9h-1.8c0-1.2-.2-1.6-.7-1.6-1 0-1.2 1-1.2 3.2s.1 3.2 1.2 3.2c.8 0 .8-1.1.8-1.8h1.8c0 2.3-.9 3.1-2.6 3.1-3-.1-3-2.3-3-4.5zm-37.3 8.1h.8v5.8h-.8v-5.8zm2.2 2.2v-.5h.8v.6c.1-.2.4-.7 1.3-.7.4 0 1.5.1 1.5 1.4v2.7h-.8V264c0-.3 0-.5-.2-.7-.2-.2-.5-.3-.7-.3-.5 0-1 .4-1 1.2v2.3H74v-3.4zm4.3-.4h.7v-.8l.7-.2v1.1h.9v.6h-.9v2.4c0 .2 0 .5.5.5h.4v.6h-.6c-.7 0-1-.2-1-.9v-2.7h-.7v-.6zm3.7 2.1c0 .8.3 1.4 1.2 1.4.5 0 .9-.3.9-.8h.8c0 .2-.1.5-.3.8-.2.2-.6.5-1.4.5-1.3 0-1.9-.8-1.9-2.1 0-.8.2-1.4.8-1.9.4-.3.9-.3 1.1-.3 1.8 0 1.8 1.6 1.7 2.2h-2.9zm2.2-.5c0-.4-.1-1.2-1-1.2-.5 0-1.1.3-1.1 1.2h2.1zm1.9-.8v-.8h.8v.8c.1-.6.6-.7 1-.8h.5v.7H88c-.9 0-1.1.5-1.1 1.2v2.1H86v-3.2zm3.5 1.3c0 .8.3 1.4 1.2 1.4.5 0 .9-.3.9-.8h.8c0 .2-.1.5-.3.8-.2.2-.6.5-1.4.5-1.3 0-1.9-.8-1.9-2.1 0-.8.2-1.4.8-1.9.4-.3.9-.3 1.1-.3 1.8 0 1.8 1.6 1.7 2.2h-2.9zm2.1-.5c0-.4-.1-1.2-1-1.2-.5 0-1.1.3-1.1 1.2h2.1zm2.3 1.2c0 .3.2.7.9.7.3 0 .5-.1.7-.3.1-.1.1-.2.1-.4 0-.4-.3-.5-.9-.6-.8-.2-1.5-.4-1.5-1.2 0-.7.6-1.2 1.6-1.2.5 0 1.2.1 1.4.6.1.2.1.4.1.6h-.8c0-.6-.5-.7-.8-.7-.1 0-.8 0-.8.6 0 .4.4.5.6.5 1.1.3 1.4.3 1.6.6.2.2.3.5.3.7 0 .4-.2.8-.5 1-.4.2-.8.3-1.2.3-.8 0-1.6-.3-1.6-1.3h.8zm3-2.8h.7v-.8l.7-.2v1.1h.9v.6h-.9v2.4c0 .2 0 .5.5.5h.4v.6h-.6c-.7 0-1-.2-1-.9v-2.7h-.7v-.6zm3.7 2.1c0 .8.3 1.4 1.2 1.4.5 0 .9-.3.9-.8h.8c0 .2-.1.5-.3.8-.2.2-.6.5-1.4.5-1.3 0-1.9-.8-1.9-2.1 0-.8.2-1.4.8-1.9.4-.3.9-.3 1.1-.3 1.8 0 1.8 1.6 1.7 2.2h-2.9zm2.1-.5c0-.4-.1-1.2-1-1.2-.5 0-1.1.3-1.1 1.2h2.1zm4.7-3.4h.8v5.7h-.8v-.6c-.1.1-.2.3-.4.4-.3.2-.7.3-1 .3-.5 0-1.7-.3-1.7-2 0-1.5.9-2.2 1.8-2.2s1.2.5 1.2.7v-2.3zm-.3 2.6c-.2-.2-.5-.4-.9-.4-1.1 0-1.1 1.3-1.1 1.6 0 .7.2 1.5 1.1 1.5 1.2 0 1.2-1.3 1.2-1.6 0-.6-.1-.9-.3-1.1zm4.5-2.6h.9v.8h-.9v-.8zm.1 1.8h.8v4h-.8v-4zm2.3.4v-.5h.8v.6c.1-.2.4-.7 1.3-.7.4 0 1.5.1 1.5 1.4v2.7h-.8V264c0-.3 0-.5-.2-.7-.2-.2-.5-.3-.7-.3-.5 0-1 .4-1 1.2v2.3h-.9v-3.4zm6.4-.4h.7v-.8l.7-.2v1.1h.9v.6h-.9v2.4c0 .2 0 .5.5.5h.4v.6h-.6c-.7 0-1-.2-1-.9v-2.7h-.7v-.6zm3.3-1.8h.8v2.3c.2-.4.7-.7 1.3-.7.4 0 1 .2 1.3.6.1.2.1.4.1.9v2.5h-.8v-2.4c0-.4 0-1.1-.9-1.1-.6 0-.8.3-.9.5-.1.2-.1.6-.1.8v2.1h-.8v-5.5zm5.4 3.9c0 .8.3 1.4 1.2 1.4.5 0 .9-.3.9-.8h.8c0 .2-.1.5-.3.8-.2.2-.6.5-1.4.5-1.3 0-1.9-.8-1.9-2.1 0-.8.2-1.4.8-1.9.4-.3.9-.3 1.1-.3 1.8 0 1.8 1.6 1.7 2.2h-2.9zm2.1-.5c0-.4-.1-1.2-1-1.2-.5 0-1.1.3-1.1 1.2h2.1zm-58.8 8v2.6c0 .4.1.9.9.9.4 0 .7-.1.9-.4.2-.2.2-.6.2-.8v-2.3h.8v4.1h-.8v-.7c-.1.3-.4.7-1.3.7-1 0-1.5-.6-1.5-1.4v-2.7h.8zm4.2.4v-.5h.8v.6c.1-.2.4-.7 1.3-.7.4 0 1.5.1 1.5 1.4v2.7h-.8v-2.6c0-.3 0-.5-.2-.7-.2-.2-.5-.3-.7-.3-.5 0-1 .4-1 1.2v2.3h-.8v-3.4zm5.3 1.7c0 .8.3 1.4 1.2 1.4.5 0 .9-.3.9-.8h.8c0 .2-.1.5-.3.8-.2.2-.6.5-1.4.5-1.3 0-1.9-.8-1.9-2.1 0-.8.2-1.4.8-1.9.4-.3.9-.3 1.1-.3 1.8 0 1.8 1.6 1.7 2.2h-2.9zm2.2-.5c0-.4-.1-1.2-1-1.2-.5 0-1.1.3-1.1 1.2h2.1zm5.4 2.4h-1l-1.1-1.6-1.1 1.6h-.9l1.6-2.1-1.5-1.9h1l1.1 1.5 1.1-1.5h.9l-1.6 2 1.5 2zm.8-3.4v-.7h.8v.7c.4-.6 1-.7 1.4-.7.9 0 1.7.6 1.7 2.1s-.9 2.2-1.8 2.2c-.6 0-1-.2-1.2-.6v2h-.7v-5zm1.9 3c.2 0 .6 0 .8-.4.3-.4.3-1 .3-1.3 0-.7-.2-1.5-1.1-1.5-1.2 0-1.2 1.3-1.2 1.6.1.6.1 1.6 1.2 1.6zm3.1-5.4h.7v5.8h-.8v-5.8zm4.6 5.8c-.1-.2-.1-.4-.1-.6-.4.7-.9.7-1.2.7-.9 0-1.4-.5-1.4-1.2 0-.3.1-.8.7-1.2.4-.2 1.1-.3 1.4-.3h.5c0-.5 0-.7-.1-.9-.2-.2-.5-.3-.7-.3-.8 0-.8.5-.8.7h-.8c0-.2 0-.5.3-.8.3-.3.9-.4 1.3-.4.6 0 1.2.2 1.4.6.1.2.1.4.1.6v1.9c0 .1 0 .6.1 1h-.7zm-.5-2c-.3 0-1.4 0-1.4.8 0 .3.2.7.8.7.4 0 .7-.2.9-.4.2-.3.2-.5.2-1.1h-.5zm2.5-3.8h.9v.8h-.9v-.8zm0 1.8h.8v4h-.8v-4zm2.3.4v-.5h.8v.6c.1-.2.4-.7 1.3-.7.4 0 1.5.1 1.5 1.4v2.7h-.8v-2.6c0-.3 0-.5-.2-.7-.2-.2-.5-.3-.7-.3-.5 0-1 .4-1 1.2v2.3h-.8v-3.4zm5.3 1.7c0 .8.3 1.4 1.2 1.4.5 0 .9-.3.9-.8h.8c0 .2-.1.5-.3.8-.2.2-.6.5-1.4.5-1.3 0-1.9-.8-1.9-2.1 0-.8.2-1.4.8-1.9.4-.3.9-.3 1.1-.3 1.8 0 1.8 1.6 1.7 2.2h-2.9zm2.1-.5c0-.4-.1-1.2-1-1.2-.5 0-1.1.3-1.1 1.2h2.1zm4.7-3.4h.8v5.7h-.8v-.6c-.1.1-.2.3-.4.4-.3.2-.7.3-1 .3-.5 0-1.7-.3-1.7-2 0-1.5.9-2.2 1.8-2.2s1.2.5 1.2.7v-2.3zm-.3 2.6c-.2-.2-.5-.4-.9-.4-1.1 0-1.1 1.3-1.1 1.6 0 .7.2 1.5 1.1 1.5 1.2 0 1.2-1.3 1.2-1.6 0-.6-.1-.9-.3-1.1zm7.1 3.2c-.1-.2-.1-.4-.1-.6-.4.7-.9.7-1.2.7-.9 0-1.4-.5-1.4-1.2 0-.3.1-.8.7-1.2.4-.2 1.1-.3 1.4-.3h.5c0-.5 0-.7-.1-.9-.2-.2-.5-.3-.7-.3-.8 0-.8.5-.8.7h-.8c0-.2 0-.5.3-.8.3-.3.9-.4 1.3-.4.6 0 1.2.2 1.4.6.1.2.1.4.1.6v1.9c0 .1 0 .6.1 1h-.7zm-.6-2c-.3 0-1.4 0-1.4.8 0 .3.2.7.8.7.4 0 .7-.2.9-.4.2-.3.2-.5.2-1.1h-.5zm2.6-1.6v-.5h.8v.6c.1-.2.4-.7 1.3-.7.4 0 1.5.1 1.5 1.4v2.7h-.8v-2.6c0-.3 0-.5-.2-.7-.2-.2-.5-.3-.7-.3-.5 0-1 .4-1 1.2v2.3h-.8v-3.4zm7.6-2.2h.8v5.7h-.8v-.6c-.1.1-.2.3-.4.4-.3.2-.7.3-1 .3-.5 0-1.7-.3-1.7-2 0-1.5.9-2.2 1.8-2.2s1.2.5 1.2.7v-2.3zm-.3 2.6c-.2-.2-.5-.4-.9-.4-1.1 0-1.1 1.3-1.1 1.6 0 .7.2 1.5 1.1 1.5 1.2 0 1.2-1.3 1.2-1.6 0-.6-.1-.9-.3-1.1zm-60.7 9.3v-.5h.8v.6c.4-.6.9-.7 1.3-.7.9 0 1.2.5 1.3.8.1-.2.5-.8 1.4-.8.6 0 1.5.2 1.5 1.4v2.7h-.8v-2.6c0-.4-.1-.5-.1-.6-.1-.2-.4-.4-.8-.4-.5 0-.8.3-.9.4-.2.2-.2.7-.2.9v2.2h-.8v-2.7c0-.5-.3-.9-.9-.9-.5 0-.8.3-.9.4-.2.2-.2.6-.2.8v2.3h-.8v-3.3zm9.2 3.5l-.6 1.5h-.8l.6-1.5-1.7-4h.8l1.3 3.2 1.3-3.2h.8l-1.7 4zm3.1-1.2c0 .3.2.7.9.7.3 0 .5-.1.7-.3.1-.1.1-.2.1-.4 0-.4-.3-.5-.9-.6-.8-.2-1.5-.4-1.5-1.2 0-.7.6-1.2 1.6-1.2.5 0 1.2.1 1.4.6.1.2.1.4.1.6h-.8c0-.6-.5-.7-.8-.7-.1 0-.8 0-.8.6 0 .4.4.5.6.5 1.1.3 1.4.3 1.6.6.2.2.3.5.3.7 0 .4-.2.8-.5 1-.4.2-.8.3-1.2.3-.8 0-1.6-.3-1.6-1.3h.8zm2.9-2.8h.7v-.9l.7-.2v1.1h.9v.6h-.9v2.4c0 .2 0 .5.5.5h.4v.6h-.6c-.7 0-1-.2-1-.9v-2.7h-.7v-.5zm3.8 2.1c0 .8.3 1.4 1.2 1.4.5 0 .9-.3.9-.8h.8c0 .2-.1.5-.3.8-.2.2-.6.5-1.4.5-1.3 0-1.9-.8-1.9-2.1 0-.8.2-1.4.8-1.9.4-.3.9-.3 1.1-.3 1.8 0 1.8 1.6 1.7 2.2h-2.9zm2.1-.5c0-.4-.1-1.2-1-1.2-.5 0-1.1.3-1.1 1.2h2.1zm1.9-.8v-.8h.8v.8c.1-.6.6-.7 1-.8h.5v.7h-.3c-.9 0-1.1.5-1.1 1.2v2.1h-.8v-3.2zm3-2.6h.9v.8h-.9v-.8zm.1 1.8h.8v4h-.8v-4zm3.9-.1c1.6 0 2 1.3 2 2.1 0 1.2-.7 2.2-2 2.2s-2-.9-2-2.1c0-1.1.5-2.2 2-2.2zm0 3.7c.6 0 1.2-.4 1.2-1.6 0-1-.5-1.5-1.2-1.5-.5 0-1.3.3-1.3 1.6.1.7.4 1.5 1.3 1.5zm3.9-3.6v2.6c0 .4.1.9.9.9.4 0 .7-.1.9-.4.2-.2.2-.6.2-.8v-2.3h.8v4.1h-.8v-.7c-.1.3-.4.7-1.3.7-1 0-1.5-.6-1.5-1.4v-2.7h.8zm4.6 2.8c0 .3.2.7.9.7.3 0 .5-.1.7-.3.1-.1.1-.2.1-.4 0-.4-.3-.5-.9-.6-.8-.2-1.5-.4-1.5-1.2 0-.7.6-1.2 1.6-1.2.5 0 1.2.1 1.4.6.1.2.1.4.1.6h-.8c0-.6-.5-.7-.8-.7-.1 0-.8 0-.8.6 0 .4.4.5.6.5 1.1.3 1.4.3 1.6.6.2.2.3.5.3.7 0 .4-.2.8-.5 1-.4.2-.8.3-1.2.3-.8 0-1.6-.3-1.6-1.3h.8zm6.2 0c0 .3.2.7.9.7.3 0 .5-.1.7-.3.1-.1.1-.2.1-.4 0-.4-.3-.5-.9-.6-.8-.2-1.5-.4-1.5-1.2 0-.7.6-1.2 1.6-1.2.5 0 1.2.1 1.4.6.1.2.1.4.1.6h-.8c0-.6-.5-.7-.8-.7-.1 0-.8 0-.8.6 0 .4.4.5.6.5 1.1.3 1.4.3 1.6.6.2.2.3.5.3.7 0 .4-.2.8-.5 1-.4.2-.8.3-1.2.3-.8 0-1.6-.3-1.6-1.3h.8zm3-2.8h.7v-.9l.7-.2v1.1h.9v.6h-.9v2.4c0 .2 0 .5.5.5h.4v.6h-.6c-.7 0-1-.2-1-.9v-2.7h-.7v-.5zm5-.1c1.6 0 2 1.3 2 2.1 0 1.2-.7 2.2-2 2.2s-2-.9-2-2.1c0-1.1.4-2.2 2-2.2zm-.1 3.7c.6 0 1.2-.4 1.2-1.6 0-1-.5-1.5-1.2-1.5-.5 0-1.3.3-1.3 1.6.1.7.5 1.5 1.3 1.5zm3.3-2.8v-.8h.8v.8c.1-.6.6-.7 1-.8h.5v.7h-.3c-.9 0-1.1.5-1.1 1.2v2.1h-.8v-3.2zm3-2.6h.9v.8h-.9v-.8zm.1 1.8h.8v4h-.8v-4zm2.6 2.1c0 .8.3 1.4 1.2 1.4.5 0 .9-.3.9-.8h.8c0 .2-.1.5-.3.8-.2.2-.6.5-1.4.5-1.3 0-1.9-.8-1.9-2.1 0-.8.2-1.4.8-1.9.4-.3.9-.3 1.1-.3 1.8 0 1.8 1.6 1.7 2.2h-2.9zm2.2-.5c0-.4-.1-1.2-1-1.2-.5 0-1.1.3-1.1 1.2h2.1zm2.3 1.2c0 .3.2.7.9.7.3 0 .5-.1.7-.3.1-.1.1-.2.1-.4 0-.4-.3-.5-.9-.6-.8-.2-1.5-.4-1.5-1.2 0-.7.6-1.2 1.6-1.2.5 0 1.2.1 1.4.6.1.2.1.4.1.6h-.8c0-.6-.5-.7-.8-.7-.1 0-.8 0-.8.6 0 .4.4.5.6.5 1.1.3 1.4.3 1.6.6.2.2.3.5.3.7 0 .4-.2.8-.5 1-.4.2-.8.3-1.2.3-.8 0-1.6-.3-1.6-1.3h.8z" class="st3"/>
  <g id="r-magnify">
    <circle cx="39.8" cy="207" r="25.1" class="st13"/>
    <path d="M45.2 228.4l-6.5-9.3c-.6-.9-.4-2.1.5-2.7l.2-.1c.9-.6 2.1-.4 2.7.5l6.5 9.3c.6.9.4 2.1-.5 2.7l-.2.1c-.9.6-2.1.4-2.7-.5z" class="st2"/>
    <path d="M38.1 216.5l-2.1-3.1c-.3-.4-.2-1 .2-1.3.4-.3 1-.2 1.3.2l2.1 3.1c.3.4.2 1-.2 1.3-.5.3-1 .2-1.3-.2z" class="st2"/>
    <ellipse cx="31.9" cy="206.4" transform="rotate(-60 31.934 206.395)" class="st24" rx="8.8" ry="8.8"/>
    <ellipse cx="31.9" cy="206.4" transform="rotate(-60 31.934 206.395)" class="st25" rx="8.2" ry="8.2"/>
    <path d="M42.6 186.6c-.4-.2-.8 0-.9.4l-4.5 10.2c-.2.4 0 .8.4.9.4.2.8 0 .9-.4l4.5-10.2c.1-.3 0-.8-.4-.9zm-5.5-1.8c-.4-.1-.7.2-.8.6l-2.1 10.9c-.1.4.2.7.6.8.4.1.7-.2.8-.6l2.1-10.9c.1-.4-.2-.7-.6-.8zm15.6 16.1c0-.4-.4-.7-.7-.7l-11.1.6c-.4 0-.7.4-.7.7 0 .4.4.7.7.7l11.1-.6c.4 0 .7-.3.7-.7zm-2.1-6.2c-.1-.4-.6-.5-.9-.4l-10.3 4.2c-.4.1-.5.6-.4.9.1.4.6.5.9.4l10.3-4.2c.4-.1.6-.5.4-.9z" class="st26"/>
  </g>
  <path d="M74 192.3v-8.7h1.8v8.7H74zm3.4 0v-8.7h2.4l2.3 6v-6h1.7v8.7h-2.4L79 186v6.3h-1.6zm13.1-8.6v1.4h-2v7.2h-1.8v-7.2h-2v-1.4h5.8zm6.7 0v6.1c0 1.3-.7 2.7-2.9 2.7-2 0-3-1-3-2.7v-6.1h1.8v6c0 1.1.5 1.5 1.1 1.5.8 0 1.2-.5 1.2-1.5v-6h1.8zm1.5 8.6v-8.7h1.8v8.7h-1.8zm8.5-8.6v1.4h-2v7.2h-1.8v-7.2h-2v-1.4h5.8zm.8 8.6v-8.7h1.8v8.7H108zm2.7-8.6h1.9l1.3 6.3 1.5-6.3h1.8l-2.3 8.7h-2.1l-2.1-8.7zm7.3 8.6v-8.7h4.7v1.3h-2.9v2.1h2.7v1.3h-2.7v2.5h3v1.3H118zm-43.4 8c0 .4.1 1.1 1.4 1.1 1.2 0 1.4-.7 1.4-1 0-.6-.5-.8-1.3-1-.9-.2-1.3-.3-1.6-.5-.5-.3-.6-.8-.6-1.1 0-1.2 1.1-1.7 2.2-1.7.4 0 1.2.1 1.6.6.3.4.3.7.4 1h-.8c0-.7-.6-.9-1.2-.9-.8 0-1.3.4-1.3.9s.3.7 1 .9c1.4.4 1.5.4 1.9.6.5.4.6.9.6 1.2 0 1-.8 1.8-2.3 1.8-.4 0-1.3-.1-1.8-.7-.3-.4-.3-.9-.3-1.2h.7zm6.3-2.5c1.6 0 2 1.3 2 2.1 0 1.2-.7 2.2-2 2.2s-2-.9-2-2.1c0-1 .4-2.2 2-2.2zm0 3.7c.6 0 1.2-.4 1.2-1.6 0-1-.5-1.5-1.2-1.5-.5 0-1.3.3-1.3 1.6 0 .8.4 1.5 1.3 1.5zm3.2-5.3h.8v5.8h-.8v-5.8zm1.6 1.7h.8l1.3 3.2 1.2-3.2h.8l-1.8 4h-.8l-1.5-4zm5.5 2.2c0 .8.3 1.4 1.2 1.4.5 0 .9-.3.9-.8h.7c0 .2-.1.5-.3.8-.2.2-.6.5-1.4.5-1.3 0-1.9-.8-1.9-2.1 0-.8.2-1.4.8-1.9.4-.3.9-.3 1.1-.3 1.8 0 1.8 1.6 1.7 2.2h-2.8zm2.1-.5c0-.4-.1-1.2-1-1.2-.5 0-1.1.3-1.1 1.2h2.1zm2.3 1.2c0 .3.2.7.9.7.3 0 .5-.1.7-.3.1-.1.1-.2.1-.4 0-.4-.3-.5-.9-.6-.8-.2-1.5-.4-1.5-1.2 0-.7.6-1.2 1.6-1.2.5 0 1.2.1 1.4.6.1.2.1.4.1.6h-.8c0-.6-.5-.7-.8-.7-.1 0-.8 0-.8.6 0 .4.4.5.6.5 1.1.3 1.4.3 1.6.6.2.2.3.5.3.7 0 .4-.2.8-.5 1-.4.2-.8.3-1.2.3-.8 0-1.6-.3-1.6-1.3h.8zm5.8-2.2v-.7h.8v.7c.4-.6 1-.7 1.4-.7.9 0 1.7.6 1.7 2.1s-.9 2.2-1.8 2.2c-.6 0-1-.2-1.2-.6v2h-.7v-5zm1.8 2.9c.2 0 .6 0 .8-.4.3-.4.3-1 .3-1.3 0-.7-.2-1.5-1.1-1.5-1.2 0-1.2 1.3-1.2 1.6.1.6.2 1.6 1.2 1.6zm3.1-2.7v-.8h.8v.8c.1-.6.6-.7 1-.8h.5v.7h-.3c-.9 0-1.1.5-1.1 1.2v2.1h-.8v-3.2zm4.8-1c1.6 0 2 1.3 2 2.1 0 1.2-.7 2.2-2 2.2s-2-.9-2-2.1c0-1 .5-2.2 2-2.2zm0 3.7c.6 0 1.2-.4 1.2-1.6 0-1-.5-1.5-1.2-1.5-.5 0-1.3.3-1.3 1.6.1.8.4 1.5 1.3 1.5zm3.9-3c.1-.2.4-.7 1.3-.7.4 0 .9.1 1.3.5.2.2.5.6.5 1.5 0 .8-.2 1.2-.4 1.5-.3.5-.9.7-1.4.7-.2 0-.6 0-.9-.3l-.4-.4v.6h-.7v-5.8h.8v2.4zm1.2-.2c-1.2 0-1.2 1.3-1.2 1.6 0 .3 0 1.5 1.1 1.5.9 0 1.2-.9 1.2-1.6 0-.3-.1-1.5-1.1-1.5zm3-2.1h.8v5.8h-.8v-5.8zm2.6 3.9c0 .8.3 1.4 1.2 1.4.5 0 .9-.3.9-.8h.8c0 .2-.1.5-.3.8-.2.2-.6.5-1.4.5-1.3 0-1.9-.8-1.9-2.1 0-.8.2-1.4.8-1.9.4-.3.9-.3 1.1-.3 1.8 0 1.8 1.6 1.7 2.2h-2.9zm2.2-.5c0-.4-.1-1.2-1-1.2-.5 0-1.1.3-1.1 1.2h2.1zm1.8-1.1v-.5h.8v.6c.4-.6.9-.7 1.3-.7.9 0 1.2.5 1.3.8.1-.2.5-.8 1.4-.8.6 0 1.5.2 1.5 1.4v2.7h-.8v-2.6c0-.4-.1-.5-.1-.6-.1-.2-.4-.4-.8-.4-.5 0-.8.3-.9.4-.2.2-.2.7-.2.9v2.2h-.8v-2.7c0-.5-.3-.9-.9-.9-.5 0-.8.3-.9.4-.2.2-.2.6-.2.8v2.3h-.8v-3.3zm8 2.3c0 .3.2.7.9.7.3 0 .5-.1.7-.3.1-.1.1-.2.1-.4 0-.4-.3-.5-.9-.6-.8-.2-1.5-.4-1.5-1.2 0-.7.6-1.2 1.6-1.2.5 0 1.2.1 1.4.6.1.2.1.4.1.6h-.8c0-.6-.5-.7-.8-.7-.1 0-.8 0-.8.6 0 .4.4.5.6.5 1.1.3 1.4.3 1.6.6.2.2.3.5.3.7 0 .4-.2.8-.5 1-.4.2-.8.3-1.2.3-.8 0-1.6-.3-1.6-1.3h.8zm-59.9 5h.9v.8h-.9v-.8zm.1 1.7h.8v4H74v-4zm2.2.5v-.5h.8v.6c.1-.2.4-.7 1.3-.7.4 0 1.5.1 1.5 1.4v2.7H79V209c0-.3 0-.5-.2-.7-.2-.2-.5-.3-.7-.3-.5 0-1 .4-1 1.2v2.3h-.8V208zm4.3-.5h.7v-.8l.7-.2v1.1h.9v.6h-.9v2.4c0 .2 0 .5.5.5h.4v.6h-.6c-.7 0-1-.2-1-.9v-2.7h-.7v-.6zm3.9 0v2.6c0 .4.1.9.9.9.4 0 .7-.1.9-.4.2-.2.2-.6.2-.8v-2.3h.8v4.1h-.8v-.7c-.1.3-.4.7-1.3.7-1 0-1.5-.6-1.5-1.4v-2.7h.8zm4.2-1.7h.9v.8h-.9v-.8zm.1 1.7h.8v4h-.8v-4zm1.6 0h.7v-.8l.7-.2v1.1h.9v.6h-.9v2.4c0 .2 0 .5.5.5h.4v.6H92c-.7 0-1-.2-1-.9v-2.7h-.7v-.6zm3.2-1.7h.9v.8h-.9v-.8zm0 1.7h.8v4h-.8v-4zm1.8 0h.8l1.3 3.2 1.2-3.2h.8l-1.8 4H97l-1.7-4zm5.5 2.2c0 .8.3 1.4 1.2 1.4.5 0 .9-.3.9-.8h.8c0 .2-.1.5-.3.8-.2.2-.6.5-1.4.5-1.3 0-1.9-.8-1.9-2.1 0-.8.2-1.4.8-1.9.4-.3.9-.3 1.1-.3 1.8 0 1.8 1.6 1.7 2.2h-2.9zm2.1-.6c0-.4-.1-1.2-1-1.2-.5 0-1.1.3-1.1 1.2h2.1zm1.9-3.3h.8v5.8h-.8v-5.8zm4 5.8l-.6 1.5h-.8l.6-1.5-1.7-4h.8l1.3 3.2 1.3-3.2h.8l-1.7 4zm7.4-.1c-.1-.2-.1-.4-.1-.6-.4.7-.9.7-1.2.7-.9 0-1.4-.5-1.4-1.2 0-.3.1-.8.7-1.2.4-.2 1.1-.3 1.4-.3h.5c0-.5 0-.7-.1-.9-.2-.2-.5-.3-.7-.3-.8 0-.8.5-.8.7h-.8c0-.2 0-.5.3-.8.3-.3.9-.4 1.3-.4.6 0 1.2.2 1.4.6.1.2.1.4.1.6v1.9c0 .1 0 .6.1 1h-.7zm-.6-1.9c-.3 0-1.4 0-1.4.8 0 .3.2.7.8.7.4 0 .7-.2.9-.4.2-.3.2-.5.2-1.1h-.5zm2.6-1.6v-.5h.8v.6c.1-.2.4-.7 1.3-.7.4 0 1.5.1 1.5 1.4v2.7h-.8V209c0-.3 0-.5-.2-.7-.2-.2-.5-.3-.7-.3-.5 0-1 .4-1 1.2v2.3h-.8V208zm7.6-2.2h.8v5.7h-.8v-.6c-.1.1-.2.3-.4.4-.3.2-.7.3-1 .3-.5 0-1.7-.3-1.7-2 0-1.5.9-2.2 1.8-2.2s1.2.5 1.2.7v-2.3zm-.3 2.6c-.2-.2-.5-.4-.9-.4-1.1 0-1.1 1.3-1.1 1.6 0 .7.2 1.5 1.1 1.5 1.2 0 1.2-1.3 1.2-1.6 0-.6-.1-.9-.3-1.1zm-48.7 7h.8v5.7h-.8v-.6c-.1.1-.2.3-.4.4-.3.2-.7.3-1 .3-.5 0-1.7-.3-1.7-2 0-1.5.9-2.2 1.8-2.2s1.2.5 1.2.7v-2.3zm-.3 2.6c-.2-.2-.5-.4-.9-.4-1.1 0-1.1 1.3-1.1 1.6 0 .7.2 1.5 1.1 1.5 1.2 0 1.2-1.3 1.2-1.6 0-.6-.1-.9-.3-1.1zm4.1-1c1.6 0 2 1.3 2 2.1 0 1.2-.7 2.2-2 2.2s-2-.9-2-2.1c0-1 .4-2.2 2-2.2zm0 3.7c.6 0 1.2-.4 1.2-1.6 0-1-.5-1.5-1.2-1.5-.5 0-1.3.3-1.3 1.6.1.8.4 1.5 1.3 1.5zm3.6-1.4c0 .8.3 1.4 1.2 1.4.5 0 .9-.3.9-.8h.8c0 .2-.1.5-.3.8-.2.2-.6.5-1.4.5-1.3 0-1.9-.8-1.9-2.1 0-.8.2-1.4.8-1.9.4-.3.9-.3 1.1-.3 1.8 0 1.8 1.6 1.7 2.2h-2.9zm2.1-.6c0-.4-.1-1.2-1-1.2-.5 0-1.1.3-1.1 1.2h2.1zm2.3 1.3c0 .3.2.7.9.7.3 0 .5-.1.7-.3.1-.1.1-.2.1-.4 0-.4-.3-.5-.9-.6-.8-.2-1.5-.4-1.5-1.2 0-.7.6-1.2 1.6-1.2.5 0 1.2.1 1.4.6.1.2.1.4.1.6h-.8c0-.6-.5-.7-.8-.7-.1 0-.8 0-.8.6 0 .4.4.5.6.5 1.1.3 1.4.3 1.6.6.2.2.3.5.3.7 0 .4-.2.8-.5 1-.4.2-.8.3-1.2.3-.8 0-1.6-.3-1.6-1.3h.8zm3.6-2.4v-.5h.8v.6c.1-.2.4-.7 1.3-.7.4 0 1.5.1 1.5 1.4v2.7H95v-2.6c0-.3 0-.5-.2-.7-.2-.2-.5-.3-.7-.3-.5 0-1 .4-1 1.2v2.3h-.8v-3.4zm5.8-2.2l-.9 2h-.5l.5-2h.9zm.7 1.7h.7v-.8l.7-.2v1.1h.9v.6h-.9v2.4c0 .2 0 .5.5.5h.4v.6h-.6c-.7 0-1-.2-1-.9v-2.7h-.7v-.6zm5.5-1.7h.8v5.8h-.8v-5.8zm2.2 0h.9v.8h-.9v-.8zm0 1.7h.8v4h-.8v-4zm2.2-1.8h.7v3.4l1.5-1.6h1l-1.7 1.7 1.8 2.3h-1l-1.6-2.2v2.2h-.7v-5.8zm4.7 4c0 .8.3 1.4 1.2 1.4.5 0 .9-.3.9-.8h.8c0 .2-.1.5-.3.8-.2.2-.6.5-1.4.5-1.3 0-1.9-.8-1.9-2.1 0-.8.2-1.4.8-1.9.4-.3.9-.3 1.1-.3 1.8 0 1.8 1.6 1.7 2.2h-2.9zm2.1-.6c0-.4-.1-1.2-1-1.2-.5 0-1.1.3-1.1 1.2h2.1zm4.1-.7v-.8h.8v.8c.1-.6.6-.7 1-.8h.5v.7h-.3c-.9 0-1.1.5-1.1 1.2v2.1h-.8V218zm3.6 1.3c0 .8.3 1.4 1.2 1.4.5 0 .9-.3.9-.8h.8c0 .2-.1.5-.3.8-.2.2-.6.5-1.4.5-1.3 0-1.9-.8-1.9-2.1 0-.8.2-1.4.8-1.9.4-.3.9-.3 1.1-.3 1.8 0 1.8 1.6 1.7 2.2h-2.9zm2.1-.6c0-.4-.1-1.2-1-1.2-.5 0-1.1.3-1.1 1.2h2.1zm4.3 2.4c-.1-.2-.1-.4-.1-.6-.4.7-.9.7-1.2.7-.9 0-1.4-.5-1.4-1.2 0-.3.1-.8.7-1.2.4-.2 1.1-.3 1.4-.3h.5c0-.5 0-.7-.1-.9-.2-.2-.5-.3-.7-.3-.8 0-.8.5-.8.7h-.8c0-.2 0-.5.3-.8.3-.3.9-.4 1.3-.4.6 0 1.2.2 1.4.6.1.2.1.4.1.6v1.9c0 .1 0 .6.1 1h-.7zm-.5-1.9c-.3 0-1.4 0-1.4.8 0 .3.2.7.8.7.4 0 .7-.2.9-.4.2-.3.2-.5.2-1.1h-.5zm5.3-3.8h.8v5.7h-.8v-.6c-.1.1-.2.3-.4.4-.3.2-.7.3-1 .3-.5 0-1.7-.3-1.7-2 0-1.5.9-2.2 1.8-2.2s1.2.5 1.2.7v-2.3zm-.3 2.6c-.2-.2-.5-.4-.9-.4-1.1 0-1.1 1.3-1.1 1.6 0 .7.2 1.5 1.1 1.5 1.2 0 1.2-1.3 1.2-1.6 0-.6-.1-.9-.3-1.1zm2.3-2.6h.9v.8h-.9v-.8zm.1 1.7h.8v4h-.8v-4zm2.2.5v-.5h.8v.6c.1-.2.4-.7 1.3-.7.4 0 1.5.1 1.5 1.4v2.7h-.8v-2.6c0-.3 0-.5-.2-.7-.2-.2-.5-.3-.7-.3-.5 0-1 .4-1 1.2v2.3h-.8v-3.4zm5.6 3.9c0 .4.2.8.9.8 1 0 1.1-.8 1.1-1.8-.3.7-1.1.7-1.3.7-.4 0-.9-.1-1.2-.5-.3-.4-.5-.9-.5-1.5 0-1.4.8-2 1.8-2 .8 0 1.1.4 1.3.6v-.6h.7v3.2c0 1 0 1.4-.2 1.7-.3.6-1.1.7-1.7.7-1.6 0-1.7-.8-1.7-1.3h.8zm1.8-1.4c.2-.2.3-.4.3-1.2 0-.5-.1-.8-.3-1-.2-.2-.5-.4-.9-.4-1 0-1.1 1-1.1 1.5 0 .6.2 1.4 1.1 1.4.4.1.7 0 .9-.3zM76.8 225h.8v5.7h-.8v-.6c-.1.1-.2.3-.4.4-.3.2-.7.3-1 .3-.5 0-1.7-.3-1.7-2 0-1.5.9-2.2 1.8-2.2s1.2.5 1.2.7V225zm-.3 2.6c-.2-.2-.5-.4-.9-.4-1.1 0-1.1 1.3-1.1 1.6 0 .7.2 1.5 1.1 1.5 1.2 0 1.2-1.3 1.2-1.6 0-.6-.1-.9-.3-1.1zm2.3-2.6h.9v.8h-.9v-.8zm.1 1.7h.8v4h-.8v-4zm2.2.9v-.8h.8v.8c.1-.6.6-.7 1-.8h.5v.7h-.3c-.9 0-1.1.5-1.1 1.2v2.1h-.8v-3.2zm3.6 1.3c0 .8.3 1.4 1.2 1.4.5 0 .9-.3.9-.8h.8c0 .2-.1.5-.3.8-.2.2-.6.5-1.4.5-1.3 0-1.9-.8-1.9-2.1 0-.8.2-1.4.8-1.9.4-.3.9-.3 1.1-.3 1.8 0 1.8 1.6 1.7 2.2h-2.9zm2.1-.6c0-.4-.1-1.2-1-1.2-.5 0-1.1.3-1.1 1.2h2.1zm4.1-.3c0-.2-.1-.8-.8-.8-1 0-1 1.2-1 1.5 0 .8.2 1.6 1 1.6.6 0 .9-.5.9-.9h.8c0 .8-.6 1.4-1.6 1.4-.3 0-.9-.1-1.3-.5-.2-.3-.5-.7-.5-1.5 0-1.7 1-2.2 1.8-2.2.3 0 .9.1 1.2.5.3.3.3.7.3.9h-.8zm1.1-1.3h.7v-.8l.7-.2v1.1h.9v.6h-.9v2.4c0 .2 0 .5.5.5h.4v.6h-.6c-.7 0-1-.2-1-.9v-2.7H92v-.6zm3.2-1.7h.9v.8h-.9v-.8zm.1 1.7h.8v4h-.8v-4zm4-.1c1.6 0 2 1.3 2 2.1 0 1.2-.7 2.2-2 2.2s-2-.9-2-2.1c-.1-1 .4-2.2 2-2.2zm-.1 3.7c.6 0 1.2-.4 1.2-1.6 0-1-.5-1.5-1.2-1.5-.5 0-1.3.3-1.3 1.6.1.8.5 1.5 1.3 1.5zm3.3-3.1v-.5h.8v.6c.1-.2.4-.7 1.3-.7.4 0 1.5.1 1.5 1.4v2.7h-.8v-2.6c0-.3 0-.5-.2-.7-.2-.2-.5-.3-.7-.3-.5 0-1 .4-1 1.2v2.3h-.8v-3.4zm5.2 2.4c0 .3.2.7.9.7.3 0 .5-.1.7-.3.1-.1.1-.2.1-.4 0-.4-.3-.5-.9-.6-.8-.2-1.5-.4-1.5-1.2 0-.7.6-1.2 1.6-1.2.5 0 1.2.1 1.4.6.1.2.1.4.1.6h-.8c0-.6-.5-.7-.8-.7-.1 0-.8 0-.8.6 0 .4.4.5.6.5 1.1.3 1.4.3 1.6.6.2.2.3.5.3.7 0 .4-.2.8-.5 1-.4.2-.8.3-1.2.3-.8 0-1.6-.3-1.6-1.3h.8z" class="st3"/>
  <g id="r-clock">
    <circle cx="40.7" cy="36.1" r="14.2" class="st2"/>
    <circle cx="40.7" cy="36.1" r="13.4" class="st27"/>
    <path d="M40.9 26.6c-.2 0-.4-.2-.4-.4v-2.4c0-.2.2-.4.4-.4s.4.2.4.4v2.4c.1.2-.1.4-.4.4zm0 22.2c-.2 0-.4-.2-.4-.4V46c0-.2.2-.4.4-.4s.4.2.4.4v2.4c.1.2-.1.4-.4.4zM28.1 36.1c0-.2.2-.4.4-.4h2.4c.2 0 .4.2.4.4s-.2.4-.4.4h-2.4c-.2 0-.4-.2-.4-.4zm21.8 0c0-.2.2-.4.4-.4h2.4c.2 0 .4.2.4.4s-.2.4-.4.4h-2.4c-.2 0-.4-.2-.4-.4z" class="st2"/>
    <path d="M40.9 28.3v7.8" class="st28"/>
    <path d="M40.9 28l-.2.5.2-.1.3.1z" class="st2"/>
    <path d="M40.9 36.1h6.6" class="st28"/>
    <path d="M47.9 36.1l-.5.2.1-.2-.1-.2z" class="st2"/>
    <path d="M40.9 36.1l-5.1 5.1" class="st28"/>
    <path d="M35.5 41.5l.2-.5.1.2.2.1z" class="st2"/>
    <path d="M40.9 36.1l-4.1-4.2" class="st28"/>
    <path d="M36.5 31.6l.5.3h-.2l-.1.3z" class="st2"/>
    <path d="M40.9 36.1l4.9 4.9" class="st28"/>
    <path d="M46.1 41.2l-.5-.2.2-.1.1-.2z" class="st2"/>
    <path d="M40.9 36.1h-6.1" class="st28"/>
    <path d="M34.4 36.1l.5-.2-.1.2.1.2z" class="st2"/>
    <circle cx="40.5" cy="36.1" r="25.1" class="st13"/>
  </g>
  <path d="M72.1 24.9v-8.7h1.8v8.7h-1.8zm3.3 0v-8.7h2.9l1.4 5.9 1.4-5.9H84v8.7h-1.8v-6.7l-1.7 6.7h-1.7l-1.6-6.7v6.7h-1.8zm10.1-8.6h3.3c1.7 0 2.3 1 2.3 2.6 0 1-.3 2.5-2.4 2.5h-1.3v3.5h-1.8v-8.6zm1.8 3.8h1c.5 0 .9-.6.9-1.2 0-.7-.2-1.3-1-1.3h-.9v2.5zM98 16.3v6.1c0 1.3-.7 2.7-2.9 2.7-2 0-3-1-3-2.7v-6.1h1.8v6c0 1.1.5 1.5 1.1 1.5.8 0 1.2-.5 1.2-1.5v-6H98zm1.5 8.6v-8.7h1.8v7.2h2.7v1.4h-4.5zm7.6.2c-2.2 0-2.7-1.3-2.6-2.8h1.8c0 .8 0 1.5 1 1.5.6 0 .9-.4.9-1 0-1.6-3.6-1.7-3.6-4.2 0-1.4.6-2.4 2.9-2.4 1.8 0 2.6.8 2.5 2.6h-1.8c0-.6-.1-1.3-.8-1.3-.6 0-.9.3-.9.9 0 1.6 3.6 1.5 3.6 4.2.1 2.2-1.6 2.5-3 2.5zm4.3-.2v-8.7h1.8v8.7h-1.8zm2.7-8.6h1.9l1.3 6.3 1.5-6.3h1.8l-2.3 8.7h-2.1l-2.1-8.7zm7.4 8.6v-8.7h4.7v1.3h-2.9v2.1h2.7v1.3h-2.7v2.5h3v1.3h-4.8zm-48 9.6v-5.1h-1.9v-.7h4.7v.7h-1.9v5.1h-.9zm3.4-5.7h.8v2.3c.2-.4.7-.7 1.3-.7.4 0 1 .2 1.3.6.1.2.1.4.1.9v2.5h-.8V32c0-.4 0-1.1-.9-1.1-.6 0-.8.3-.9.5-.1.2-.1.6-.1.8v2.1h-.8v-5.5zm4.9 0h.9v.8h-.9v-.8zm0 1.7h.8v4h-.8v-4zm2.3.5v-.5h.8v.6c.1-.2.4-.7 1.3-.7.4 0 1.5.1 1.5 1.4v2.7h-.8V32c0-.3 0-.5-.2-.7-.2-.2-.5-.3-.7-.3-.5 0-1 .4-1 1.2v2.3h-.8V31zm5.6 3.9c0 .4.2.8.9.8 1 0 1.1-.8 1.1-1.8-.3.7-1.1.7-1.3.7-.4 0-.9-.1-1.2-.5-.3-.4-.5-.9-.5-1.5 0-1.4.8-2 1.8-2 .8 0 1.1.4 1.3.6v-.6h.7v3.2c0 1 0 1.4-.2 1.7-.3.6-1.1.7-1.7.7-1.6 0-1.7-.8-1.7-1.3h.8zm1.7-1.4c.2-.2.3-.4.3-1.2 0-.5-.1-.8-.3-1-.2-.2-.5-.4-.9-.4-1 0-1.1 1-1.1 1.5 0 .6.2 1.4 1.1 1.4.5.1.7 0 .9-.3zm2.9-.1c0 .3.2.7.9.7.3 0 .5-.1.7-.3.1-.1.1-.2.1-.4 0-.4-.3-.5-.9-.6-.8-.2-1.5-.4-1.5-1.2 0-.7.6-1.2 1.6-1.2.5 0 1.2.1 1.4.6.1.2.1.4.1.6h-.8c0-.6-.5-.7-.8-.7-.1 0-.8 0-.8.6 0 .4.4.5.6.5 1.1.3 1.4.3 1.6.6.2.2.3.5.3.7 0 .4-.2.8-.5 1-.4.2-.8.3-1.2.3-.8 0-1.6-.3-1.6-1.3h.8zm8.2 1.1c-.1-.2-.1-.4-.1-.6-.4.7-.9.7-1.2.7-.9 0-1.4-.5-1.4-1.2 0-.3.1-.8.7-1.2.4-.2 1.1-.3 1.4-.3h.5c0-.5 0-.7-.1-.9-.2-.2-.5-.3-.7-.3-.8 0-.8.5-.8.7h-.8c0-.2 0-.5.3-.8.3-.3.9-.4 1.3-.4.6 0 1.2.2 1.4.6.1.2.1.4.1.6v1.9c0 .1 0 .6.1 1h-.7zm-.5-1.9c-.3 0-1.4 0-1.4.8 0 .3.2.7.8.7.4 0 .7-.2.9-.4.2-.3.2-.5.2-1.1h-.5zm2.5-1.3v-.8h.8v.8c.1-.6.6-.7 1-.8h.5v.7h-.3c-.9 0-1.1.5-1.1 1.2v2.1h-.8v-3.2zm3.6 1.4c0 .8.3 1.4 1.2 1.4.5 0 .9-.3.9-.8h.8c0 .2-.1.5-.3.8-.2.2-.6.5-1.4.5-1.3 0-1.9-.8-1.9-2.1 0-.8.2-1.4.8-1.9.4-.3.9-.3 1.1-.3 1.8 0 1.8 1.6 1.7 2.2h-2.9zm2.1-.6c0-.4-.1-1.2-1-1.2-.5 0-1.1.3-1.1 1.2h2.1zm6.9-3.3h.8v5.7h-.8v-.6c-.1.1-.2.3-.4.4-.3.2-.7.3-1 .3-.5 0-1.7-.3-1.7-2 0-1.5.9-2.2 1.8-2.2s1.2.5 1.2.7v-2.3zm-.3 2.6c-.2-.2-.5-.4-.9-.4-1.1 0-1.1 1.3-1.1 1.6 0 .7.2 1.5 1.1 1.5 1.2 0 1.2-1.3 1.2-1.6 0-.6-.1-.9-.3-1.1zm4.1-1c1.6 0 2 1.3 2 2.1 0 1.2-.7 2.2-2 2.2s-2-.9-2-2.1c0-1 .4-2.2 2-2.2zm0 3.7c.6 0 1.2-.4 1.2-1.6 0-1-.5-1.5-1.2-1.5-.5 0-1.3.3-1.3 1.6.1.8.4 1.5 1.3 1.5zm3.2-3.1v-.5h.8v.6c.1-.2.4-.7 1.3-.7.4 0 1.5.1 1.5 1.4v2.7h-.8V32c0-.3 0-.5-.2-.7-.2-.2-.5-.3-.7-.3-.5 0-1 .4-1 1.2v2.3h-.8V31zm5.3 1.7c0 .8.3 1.4 1.2 1.4.5 0 .9-.3.9-.8h.8c0 .2-.1.5-.3.8-.2.2-.6.5-1.4.5-1.3 0-1.9-.8-1.9-2.1 0-.8.2-1.4.8-1.9.4-.3.9-.3 1.1-.3 1.8 0 1.8 1.6 1.7 2.2h-2.9zm2.1-.6c0-.4-.1-1.2-1-1.2-.5 0-1.1.3-1.1 1.2h2.1zM72.5 43c0 .3.2.7.9.7.3 0 .5-.1.7-.3.1-.1.1-.2.1-.4 0-.4-.3-.5-.9-.6-.8-.2-1.5-.4-1.5-1.2 0-.7.6-1.2 1.6-1.2.5 0 1.2.1 1.4.6.1.2.1.4.1.6h-.8c0-.6-.5-.7-.8-.7-.1 0-.8 0-.8.6 0 .4.4.5.6.5 1.1.3 1.4.3 1.6.6.2.2.3.5.3.7 0 .4-.2.8-.5 1-.4.2-.8.3-1.2.3-.8 0-1.6-.3-1.6-1.3h.8zm3.5-2.2v-.7h.8v.7c.4-.6 1-.7 1.4-.7.9 0 1.7.6 1.7 2.1s-.9 2.2-1.8 2.2c-.6 0-1-.2-1.2-.6v2H76v-5zm1.9 2.9c.2 0 .6 0 .8-.4.3-.4.3-1 .3-1.3 0-.7-.2-1.5-1.1-1.5-1.2 0-1.2 1.3-1.2 1.6.1.6.1 1.6 1.2 1.6zm4.8-3.7c1.6 0 2 1.3 2 2.1 0 1.2-.7 2.2-2 2.2s-2-.9-2-2.1c0-1 .4-2.2 2-2.2zm-.1 3.7c.6 0 1.2-.4 1.2-1.6 0-1-.5-1.5-1.2-1.5-.5 0-1.3.3-1.3 1.6.1.8.5 1.5 1.3 1.5zm3.3-3.1v-.5h.8v.6c.1-.2.4-.7 1.3-.7.4 0 1.5.1 1.5 1.4v2.7h-.8v-2.6c0-.3 0-.5-.2-.7-.2-.2-.5-.3-.7-.3-.5 0-1 .4-1 1.2V44H86v-3.4zm4.2-.5h.7v-.8l.7-.2v1.1h.9v.6h-.9v2.4c0 .2 0 .5.5.5h.4v.6h-.6c-.7 0-1-.2-1-.9v-2.7h-.7v-.6zm5.7 4c-.1-.2-.1-.4-.1-.6-.4.7-.9.7-1.2.7-.9 0-1.4-.5-1.4-1.2 0-.3.1-.8.7-1.2.4-.2 1.1-.3 1.4-.3h.5c0-.5 0-.7-.1-.9-.2-.2-.5-.3-.7-.3-.8 0-.8.5-.8.7h-.8c0-.2 0-.5.3-.8.3-.3.9-.4 1.3-.4.6 0 1.2.2 1.4.6.1.2.1.4.1.6v1.9c0 .1 0 .6.1 1h-.7zm-.5-1.9c-.3 0-1.4 0-1.4.8 0 .3.2.7.8.7.4 0 .7-.2.9-.4.2-.3.2-.5.2-1.1h-.5zm2.6-1.6v-.5h.8v.6c.1-.2.4-.7 1.3-.7.4 0 1.5.1 1.5 1.4v2.7h-.8v-2.6c0-.3 0-.5-.2-.7-.2-.2-.5-.3-.7-.3-.5 0-1 .4-1 1.2V44H98v-3.4zm5.3 1.7c0 .8.3 1.4 1.2 1.4.5 0 .9-.3.9-.8h.8c0 .2-.1.5-.3.8-.2.2-.6.5-1.4.5-1.3 0-1.9-.8-1.9-2.1 0-.8.2-1.4.8-1.9.4-.3.9-.3 1.1-.3 1.8 0 1.8 1.6 1.7 2.2h-2.9zm2.1-.6c0-.4-.1-1.2-1-1.2-.5 0-1.1.3-1.1 1.2h2.1zm3.6-1.7c1.6 0 2 1.3 2 2.1 0 1.2-.7 2.2-2 2.2s-2-.9-2-2.1c0-1 .4-2.2 2-2.2zm0 3.7c.6 0 1.2-.4 1.2-1.6 0-1-.5-1.5-1.2-1.5-.5 0-1.3.3-1.3 1.6.1.8.4 1.5 1.3 1.5zm3.8-3.6v2.6c0 .4.1.9.9.9.4 0 .7-.1.9-.4.2-.2.2-.6.2-.8v-2.3h.8v4.1h-.8v-.7c-.1.3-.4.7-1.3.7-1 0-1.5-.6-1.5-1.4v-2.7h.8zm4.7 2.9c0 .3.2.7.9.7.3 0 .5-.1.7-.3.1-.1.1-.2.1-.4 0-.4-.3-.5-.9-.6-.8-.2-1.5-.4-1.5-1.2 0-.7.6-1.2 1.6-1.2.5 0 1.2.1 1.4.6.1.2.1.4.1.6h-.8c0-.6-.5-.7-.8-.7-.1 0-.8 0-.8.6 0 .4.4.5.6.5 1.1.3 1.4.3 1.6.6.2.2.3.5.3.7 0 .4-.2.8-.5 1-.4.2-.8.3-1.2.3-.8 0-1.6-.3-1.6-1.3h.8zm3.6-4.6h.8v5.8h-.8v-5.8zm4 5.8l-.6 1.5h-.8l.6-1.5-1.7-4h.8l1.3 3.2 1.3-3.2h.8l-1.7 4zm2.6-4.1h.9v.9h-.9v-.9zm0 3.1h.9v.9h-.9v-.9zM72 47.9h.7v3.4l1.5-1.6h1l-1.7 1.7 1.8 2.3h-1l-1.6-2.2v2.2H72v-5.8zm4.7 4c0 .8.3 1.4 1.2 1.4.5 0 .9-.3.9-.8h.8c0 .2-.1.5-.3.8-.2.2-.6.5-1.4.5-1.3 0-1.9-.8-1.9-2.1 0-.8.2-1.4.8-1.9.4-.3.9-.3 1.1-.3 1.8 0 1.8 1.6 1.7 2.2h-2.9zm2.1-.6c0-.4-.1-1.2-1-1.2-.5 0-1.1.3-1.1 1.2h2.1zm2.3.6c0 .8.3 1.4 1.2 1.4.5 0 .9-.3.9-.8h.8c0 .2-.1.5-.3.8-.2.2-.6.5-1.4.5-1.3 0-1.9-.8-1.9-2.1 0-.8.2-1.4.8-1.9.4-.3.9-.3 1.1-.3 1.8 0 1.8 1.6 1.7 2.2h-2.9zm2.1-.6c0-.4-.1-1.2-1-1.2-.5 0-1.1.3-1.1 1.2h2.1zm1.9-.9v-.7h.8v.7c.4-.6 1-.7 1.4-.7.9 0 1.7.6 1.7 2.1s-.9 2.2-1.8 2.2c-.6 0-1-.2-1.2-.6v2h-.7v-5zm1.8 2.9c.2 0 .6 0 .8-.4.3-.4.3-1 .3-1.3 0-.7-.2-1.5-1.1-1.5-1.2 0-1.2 1.3-1.2 1.6.1.6.2 1.6 1.2 1.6zm3-5.3h.9v.8h-.9V48zm.1 1.7h.8v4H90v-4zm2.3.5v-.5h.7v.6c.1-.2.4-.7 1.3-.7.4 0 1.5.1 1.5 1.4v2.7H95v-2.6c0-.3 0-.5-.2-.7-.2-.2-.5-.3-.7-.3-.5 0-1 .4-1 1.2v2.3h-.8v-3.4zm5.5 3.9c0 .4.2.8.9.8 1 0 1.1-.8 1.1-1.8-.3.7-1.1.7-1.3.7-.4 0-.9-.1-1.2-.5-.3-.4-.5-.9-.5-1.5 0-1.4.8-2 1.8-2 .8 0 1.1.4 1.3.6v-.6h.7V53c0 1 0 1.4-.2 1.7-.3.6-1.1.7-1.7.7-1.6 0-1.7-.8-1.7-1.3h.8zm1.8-1.4c.2-.2.3-.4.3-1.2 0-.5-.1-.8-.3-1-.2-.2-.5-.4-.9-.4-1 0-1.1 1-1.1 1.5 0 .6.2 1.4 1.1 1.4.4.1.7 0 .9-.3zm4-3h.7v-.8l.7-.2v1.1h.9v.6h-.9v2.4c0 .2 0 .5.5.5h.4v.6h-.6c-.7 0-1-.2-1-.9v-2.7h-.7v-.6zm3.3.8v-.8h.8v.8c.1-.6.6-.7 1-.8h.5v.7h-.3c-.9 0-1.1.5-1.1 1.2v2.1h-.8v-3.2zm5.6 3.2c-.1-.2-.1-.4-.1-.6-.4.7-.9.7-1.2.7-.9 0-1.4-.5-1.4-1.2 0-.3.1-.8.7-1.2.4-.2 1.1-.3 1.4-.3h.5c0-.5 0-.7-.1-.9-.2-.2-.5-.3-.7-.3-.8 0-.8.5-.8.7h-.8c0-.2 0-.5.3-.8.3-.3.9-.4 1.3-.4.6 0 1.2.2 1.4.6.1.2.1.4.1.6v1.9c0 .1 0 .6.1 1h-.7zm-.6-1.9c-.3 0-1.4 0-1.4.8 0 .3.2.7.8.7.4 0 .7-.2.9-.4.2-.3.2-.5.2-1.1h-.5zm4.8-.8c0-.2-.1-.8-.8-.8-1 0-1 1.2-1 1.5 0 .8.2 1.6 1 1.6.6 0 .9-.5.9-.9h.8c0 .8-.6 1.4-1.6 1.4-.3 0-.9-.1-1.3-.5-.2-.3-.5-.7-.5-1.5 0-1.7 1-2.2 1.8-2.2.3 0 .9.1 1.2.5.3.3.3.7.3.9h-.8zm1.3-3.1h.7v3.4l1.5-1.6h1l-1.7 1.7 1.8 2.3h-1l-1.6-2.2v2.2h-.7v-5.8zm8 1.7c1.6 0 2 1.3 2 2.1 0 1.2-.7 2.2-2 2.2s-2-.9-2-2.1c0-1 .4-2.2 2-2.2zm0 3.7c.6 0 1.2-.4 1.2-1.6 0-1-.5-1.5-1.2-1.5-.5 0-1.3.3-1.3 1.6.1.8.4 1.5 1.3 1.5zm5.2-4.8h-.4c-.6 0-.6.3-.6.6v.6h.9v.5h-.9v3.5h-.7v-3.5h-.8v-.5h.8v-.5c0-.6 0-.8.2-1 .2-.3.5-.4 1-.4.2 0 .5 0 .6.1v.6zm2.2 1.2h.7v-.8l.7-.2v1.1h.9v.6h-.9v2.4c0 .2 0 .5.5.5h.4v.6h-.6c-.7 0-1-.2-1-.9v-2.7h-.7v-.6zm3.2-1.7h.9v.8h-.9V48zm.1 1.7h.8v4h-.8v-4zm2.2.6v-.5h.8v.6c.4-.6.9-.7 1.3-.7.9 0 1.2.5 1.3.8.1-.2.5-.8 1.4-.8.6 0 1.5.2 1.5 1.4v2.7h-.8v-2.6c0-.4-.1-.5-.1-.6-.1-.2-.4-.4-.8-.4-.5 0-.8.3-.9.4-.2.2-.2.7-.2.9v2.2h-.8V51c0-.5-.3-.9-.9-.9-.5 0-.8.3-.9.4-.2.2-.2.6-.2.8v2.3h-.8v-3.3zm8 1.6c0 .8.3 1.4 1.2 1.4.5 0 .9-.3.9-.8h.8c0 .2-.1.5-.3.8-.2.2-.6.5-1.4.5-1.3 0-1.9-.8-1.9-2.1 0-.8.2-1.4.8-1.9.4-.3.9-.3 1.1-.3 1.8 0 1.8 1.6 1.7 2.2h-2.9zm2.2-.6c0-.4-.1-1.2-1-1.2-.5 0-1.1.3-1.1 1.2h2.1zM72 57.6h.9v.8H72v-.8zm.1 1.7h.8v4h-.8v-4zm2.6 2.9c0 .3.2.7.9.7.3 0 .5-.1.7-.3.1-.1.1-.2.1-.4 0-.4-.3-.5-.9-.6-.8-.2-1.5-.4-1.5-1.2 0-.7.6-1.2 1.6-1.2.5 0 1.2.1 1.4.6.1.2.1.4.1.6h-.8c0-.6-.5-.7-.8-.7-.1 0-.8 0-.8.6 0 .4.4.5.6.5 1.1.3 1.4.3 1.6.6.2.2.3.5.3.7 0 .4-.2.8-.5 1-.4.2-.8.3-1.2.3-.8 0-1.6-.3-1.6-1.3h.8zm5.8-2.4v-.5h.8v.6c.1-.2.4-.7 1.3-.7.4 0 1.5.1 1.5 1.4v2.7h-.8v-2.6c0-.3 0-.5-.2-.7-.2-.2-.5-.3-.7-.3-.5 0-1 .4-1 1.2v2.3h-.8v-3.4zm6.6-.6c1.6 0 2 1.3 2 2.1 0 1.2-.7 2.2-2 2.2s-2-.9-2-2.1c0-1 .5-2.2 2-2.2zm0 3.7c.6 0 1.2-.4 1.2-1.6 0-1-.5-1.5-1.2-1.5-.5 0-1.3.3-1.3 1.6.1.8.4 1.5 1.3 1.5zm2.6-3.6h.7v-.8l.7-.2v1.1h.9v.6h-.9v2.4c0 .2 0 .5.5.5h.4v.6h-.6c-.7 0-1-.2-1-.9v-2.7h-.7v-.6zm7.9 4c-.1-.2-.1-.4-.1-.6-.4.7-.9.7-1.2.7-.9 0-1.4-.5-1.4-1.2 0-.3.1-.8.7-1.2.4-.2 1.1-.3 1.4-.3h.5c0-.5 0-.7-.1-.9-.2-.2-.5-.3-.7-.3-.8 0-.8.5-.8.7h-.8c0-.2 0-.5.3-.8.3-.3.9-.4 1.3-.4.6 0 1.2.2 1.4.6.1.2.1.4.1.6v1.9c0 .1 0 .6.1 1h-.7zm-.5-1.9c-.3 0-1.4 0-1.4.8 0 .3.2.7.8.7.4 0 .7-.2.9-.4.2-.3.2-.5.2-1.1h-.5zm3 .8c0 .3.2.7.9.7.3 0 .5-.1.7-.3.1-.1.1-.2.1-.4 0-.4-.3-.5-.9-.6-.8-.2-1.5-.4-1.5-1.2 0-.7.6-1.2 1.6-1.2.5 0 1.2.1 1.4.6.1.2.1.4.1.6h-.8c0-.6-.5-.7-.8-.7-.1 0-.8 0-.8.6 0 .4.4.5.6.5 1.1.3 1.4.3 1.6.6.2.2.3.5.3.7 0 .4-.2.8-.5 1-.4.2-.8.3-1.2.3-.8 0-1.6-.3-1.6-1.3h.8zm5.7-4.6h.9v.8h-.9v-.8zm.1 1.7h.8v4h-.8v-4zm2.2.6v-.5h.8v.6c.4-.6.9-.7 1.3-.7.9 0 1.2.5 1.3.8.1-.2.5-.8 1.4-.8.6 0 1.5.2 1.5 1.4v2.7h-.8v-2.6c0-.4-.1-.5-.1-.6-.1-.2-.4-.4-.8-.4-.5 0-.8.3-.9.4-.2.2-.2.7-.2.9v2.2h-.8v-2.7c0-.5-.3-.9-.9-.9-.5 0-.8.3-.9.4-.2.2-.2.6-.2.8v2.3h-.8v-3.3zm7.5.1v-.7h.8v.7c.4-.6 1-.7 1.4-.7.9 0 1.7.6 1.7 2.1s-.9 2.2-1.8 2.2c-.6 0-1-.2-1.2-.6v2h-.7v-5zm1.8 2.9c.2 0 .6 0 .8-.4.3-.4.3-1 .3-1.3 0-.7-.2-1.5-1.1-1.5-1.2 0-1.2 1.3-1.2 1.6.1.6.2 1.6 1.2 1.6zm4.9-3.7c1.6 0 2 1.3 2 2.1 0 1.2-.7 2.2-2 2.2s-2-.9-2-2.1c-.1-1 .4-2.2 2-2.2zm-.1 3.7c.6 0 1.2-.4 1.2-1.6 0-1-.5-1.5-1.2-1.5-.5 0-1.3.3-1.3 1.6.1.8.4 1.5 1.3 1.5zm3.2-2.7v-.8h.8v.8c.1-.6.6-.7 1-.8h.5v.6h-.3c-.9 0-1.1.5-1.1 1.2v2.1h-.8v-3.1zm2.3-.9h.7v-.8l.7-.2v1.1h.9v.6h-.9v2.4c0 .2 0 .5.5.5h.4v.6h-.6c-.7 0-1-.2-1-.9v-2.7h-.7v-.6zm5.7 4c-.1-.2-.1-.4-.1-.6-.4.7-.9.7-1.2.7-.9 0-1.4-.5-1.4-1.2 0-.3.1-.8.7-1.2.4-.2 1.1-.3 1.4-.3h.5c0-.5 0-.7-.1-.9-.2-.2-.5-.3-.7-.3-.8 0-.8.5-.8.7h-.8c0-.2 0-.5.3-.8.3-.3.9-.4 1.3-.4.6 0 1.2.2 1.4.6.1.2.1.4.1.6v1.9c0 .1 0 .6.1 1h-.7zm-.5-1.9c-.3 0-1.4 0-1.4.8 0 .3.2.7.8.7.4 0 .7-.2.9-.4.2-.3.2-.5.2-1.1h-.5zm2.5-1.6v-.5h.8v.6c.1-.2.4-.7 1.3-.7.4 0 1.5.1 1.5 1.4v2.7h-.8v-2.6c0-.3 0-.5-.2-.7-.2-.2-.5-.3-.7-.3-.5 0-1 .4-1 1.2v2.3h-.8v-3.4zm4.3-.5h.7v-.8l.7-.2v1.1h.9v.6h-.9v2.4c0 .2 0 .5.5.5h.4v.6h-.6c-.7 0-1-.2-1-.9v-2.7h-.7v-.6z" class="st3"/>
</svg>
