<svg xmlns="http://www.w3.org/2000/svg" id="Layer_1" viewBox="0 0 191.7 365.3">
  <style>
    .Drop_x0020_Shadow{fill:none;} .Outer_x0020_Glow_x0020_5_x0020_pt{fill:none;} .Blue_x0020_Neon{fill:none;stroke:#8AACDA;stroke-width:7;stroke-linecap:round;stroke-linejoin:round;} .Chrome_x0020_Highlight{fill:url(#SVGID_1_);stroke:#FFFFFF;stroke-width:0.3629;stroke-miterlimit:1;} .Jive_GS{fill:#FFDD00;} .Alyssa_GS{fill:#A6D0E4;} .st0{opacity:0.5;fill:#ECD177;} .st1{fill:#ED5A49;} .st2{fill:#542337;} .st3{fill:#0A3656;} .st4{fill:none;stroke:#0A3656;stroke-width:0.556;stroke-linecap:round;stroke-linejoin:round;} .st5{fill:#6C869A;} .st6{fill:#A9B9C4;} .st7{fill:#FFFFFF;} .st8{fill:none;stroke:#85CCCB;stroke-width:0.2835;stroke-linecap:round;stroke-linejoin:round;stroke-miterlimit:10;} .st9{fill:#FFFFFF;stroke:#85CCCB;stroke-width:0.375;stroke-miterlimit:10;} .st10{fill:#0A3656;stroke:#0A3656;stroke-width:9.306000e-02;stroke-miterlimit:10;} .st11{fill:#E9F5FC;} .st12{fill:none;stroke:#0A3656;stroke-width:0.1296;stroke-linecap:round;stroke-linejoin:round;stroke-miterlimit:10;} .st13{opacity:0.5;fill:#337D7D;} .st14{fill:#00A14B;} .st15{fill:#224099;} .st16{fill:#FFDD15;} .st17{fill:#EC1C24;} .st18{fill:#C12944;} .st19{fill:#542337;stroke:#542337;stroke-width:0.84;stroke-miterlimit:10;} .st20{fill:none;stroke:#542337;stroke-width:0.672;stroke-miterlimit:10;} .st21{fill:#E9F5FC;stroke:#542337;stroke-width:0.672;stroke-miterlimit:10;} .st22{fill:#FFFFFF;stroke:#542337;stroke-width:0.3762;stroke-miterlimit:10;} .st23{fill:#FFFFFF;stroke:#542337;stroke-width:0.4251;stroke-miterlimit:10;} .st24{fill:#542337;stroke:#542337;stroke-width:4.252500e-02;stroke-miterlimit:10;} .st25{fill:#FFFFFF;stroke:#542337;stroke-width:3.937500e-02;stroke-miterlimit:10;} .st26{fill:#FFFFFF;stroke:#542337;stroke-width:0.1875;stroke-miterlimit:10;} .st27{fill:#F1F1F2;} .st28{fill:none;stroke:#542337;stroke-width:5.250000e-02;stroke-miterlimit:10;} .st29{fill:#DDE8F0;} .st30{fill:#CAD4DC;} .st31{fill:#ECD177;} .st32{fill:none;stroke:#542337;stroke-width:1.2875;stroke-linecap:round;stroke-linejoin:round;} .st33{fill:#337D7D;}
  </style>
  <linearGradient id="SVGID_1_" x1="-41.939" x2="-41.939" y1="-45.879" y2="-46.879" gradientUnits="userSpaceOnUse">
    <stop offset="0" stop-color="#656565"/>
    <stop offset=".618" stop-color="#1B1B1B"/>
    <stop offset=".629" stop-color="#545454"/>
    <stop offset=".983" stop-color="#3E3E3E"/>
  </linearGradient>
  <g id="l-precise">
    <circle cx="50.4" cy="209.5" r="25.1" class="st0"/>
    <g id="precise_1_">
      <circle cx="50.3" cy="208.7" r="3.3" class="st1"/>
      <path d="M50.3 202.4c3.5 0 6.3 2.8 6.3 6.3s-2.8 6.3-6.3 6.3-6.3-2.8-6.3-6.3c.1-3.5 2.9-6.3 6.3-6.3m0-.1c-3.6 0-6.4 2.9-6.4 6.4s2.9 6.4 6.4 6.4c3.6 0 6.4-2.9 6.4-6.4s-2.8-6.4-6.4-6.4z" class="st2"/>
      <path d="M50.3 196.2c6.9 0 12.5 5.6 12.5 12.5s-5.6 12.5-12.5 12.5-12.5-5.6-12.5-12.5 5.6-12.5 12.5-12.5m0-.2c-7 0-12.7 5.7-12.7 12.7s5.7 12.7 12.7 12.7c7 0 12.7-5.7 12.7-12.7S57.3 196 50.3 196z" class="st3"/>
      <path d="M50.3 192.4c9 0 16.3 7.3 16.3 16.3S59.3 225 50.3 225 34 217.7 34 208.7c.1-9 7.4-16.3 16.3-16.3m0-.2c-9.1 0-16.4 7.4-16.4 16.4 0 9.1 7.4 16.4 16.4 16.4s16.4-7.4 16.4-16.4c.1-9-7.3-16.4-16.4-16.4z" class="st3"/>
      <path d="M50.3 189.9c10.4 0 18.8 8.4 18.8 18.8s-8.4 18.8-18.8 18.8-18.8-8.4-18.8-18.8c.1-10.4 8.5-18.8 18.8-18.8m0-.2c-10.4 0-18.9 8.5-18.9 18.9s8.5 18.9 18.9 18.9 18.9-8.5 18.9-18.9-8.4-18.9-18.9-18.9z" class="st3"/>
      <path d="M50.3 186.8c12.1 0 21.9 9.8 21.9 21.9s-9.8 21.9-21.9 21.9-21.9-9.8-21.9-21.9 9.9-21.9 21.9-21.9m0-.2c-12.2 0-22.1 9.9-22.1 22.1 0 12.2 9.9 22.1 22.1 22.1 12.2 0 22.1-9.9 22.1-22.1 0-12.2-9.9-22.1-22.1-22.1z" class="st3"/>
      <path d="M28.7 233l21.2-22.3" class="st4"/>
      <path d="M28.5 233.1c-1.2.2-2.4.2-3.5 0l3.2-3.4c1.2.3 2.5.1 3.6-.2l-3.3 3.6z" class="st5"/>
      <path d="M31.9 229.6c-.3 1.2-.3 2.5 0 3.7l-3.2 3.4c-.3-1.2-.4-2.3-.2-3.5l3.4-3.6z" class="st6"/>
      <path d="M28.4 229.6c1.2.3 2.5.1 3.6-.2-.3 1.2-.3 2.5 0 3.7l-.4.5c-.3-1.2-.4-2.3-.2-3.5-1.2.2-2.4.2-3.5 0l.5-.5z" class="st3"/>
      <path d="M27.4 230.7c1.2.3 2.5.1 3.6-.2-.3 1.2-.3 2.5 0 3.7l-.4.5c-.3-1.2-.4-2.3-.2-3.5-1.2.2-2.4.2-3.5 0l.5-.5z" class="st3"/>
      <path d="M26.3 231.8c1.2.3 2.5.1 3.6-.2-.3 1.2-.3 2.5 0 3.7l-.4.5c-.3-1.2-.4-2.3-.2-3.5-1.2.2-2.4.2-3.5 0l.5-.5z" class="st3"/>
      <path d="M25.3 232.9c1.2.3 2.5.1 3.6-.2-.3 1.2-.3 2.5 0 3.7l-.4.5c-.3-1.2-.4-2.3-.2-3.5-1.2.2-2.4.2-3.5 0l.5-.5zm26.9-24.6c-.7 1.5-1.3 3.7-1.4 5.3l-1.3-2.5-2.6-1.1c1.7-.2 3.8-1 5.3-1.7z" class="st3"/>
    </g>
  </g>
  <path d="M82.4 187.6h3.3c1.7 0 2.3 1 2.3 2.6 0 1-.3 2.5-2.4 2.5h-1.3v3.5h-1.8v-8.6zm1.8 3.8h1c.5 0 .9-.6.9-1.2 0-.7-.2-1.3-1-1.3h-.9v2.5zm6.7 4.8h-1.8v-8.7h3.3c1.2 0 2 .8 2 2.3 0 1.1-.4 1.9-1.6 2.1.4 0 1.6.1 1.6 1.7 0 .6 0 2.2.2 2.5h-1.8c-.2-.5-.2-1.1-.2-1.7 0-1 .1-1.9-1.3-1.9h-.5v3.7zm0-4.9h.8c.7 0 .9-.7.9-1.3 0-.8-.3-1.1-.9-1.1h-.8v2.4zm4.9 4.9v-8.7h4.7v1.3h-2.9v2.1h2.7v1.3h-2.7v2.5h3v1.3h-4.8zm5.9-4.3c0-2.3 0-4.5 3-4.5 1.8 0 2.6 1 2.5 2.9h-1.8c0-1.2-.2-1.6-.7-1.6-1 0-1.2 1-1.2 3.2s.1 3.2 1.2 3.2c.8 0 .8-1.1.8-1.8h1.8c0 2.3-.9 3.1-2.6 3.1-3 0-3-2.2-3-4.5zm6.7 4.3v-8.7h1.8v8.7h-1.8zm5.7.2c-2.2 0-2.7-1.3-2.6-2.8h1.8c0 .8 0 1.5 1 1.5.6 0 .9-.4.9-1 0-1.6-3.6-1.7-3.6-4.2 0-1.4.6-2.4 2.9-2.4 1.8 0 2.6.8 2.5 2.6h-1.8c0-.6-.1-1.3-.8-1.3-.6 0-.9.3-.9.9 0 1.6 3.6 1.5 3.6 4.2 0 2.2-1.6 2.5-3 2.5zm4.3-.2v-8.7h4.7v1.3h-2.9v2.1h2.7v1.3h-2.7v2.5h3v1.3h-4.8zm-36 3.9h2.1c.3 0 .9 0 1.3.3s.6.7.6 1.2c0 .4-.2.8-.4 1-.2.2-.5.3-.7.4.6.1.8.4.9 1.1.1.7.1 1.2.4 1.8h-.9c-.1-.4-.2-1.1-.3-1.5-.1-.8-.3-1.1-1.3-1.1h-1v2.6h-.8v-5.8zm.7 2.5h1.3c.1 0 .5 0 .8-.1.1-.1.4-.3.4-.8 0-.9-.8-.9-1.2-.9h-1.3v1.8zM88 204c0 .8.3 1.4 1.2 1.4.5 0 .9-.3.9-.8h.8c0 .2-.1.5-.3.8-.2.2-.6.5-1.4.5-1.3 0-1.9-.8-1.9-2.1 0-.8.2-1.4.8-1.9.4-.3.9-.3 1.1-.3 1.8 0 1.8 1.6 1.7 2.2H88zm2.1-.6c0-.4-.1-1.2-1-1.2-.5 0-1.1.3-1.1 1.2h2.1zm2.3 1.2c0 .3.2.7.9.7.3 0 .5-.1.7-.3.1-.1.1-.2.1-.4 0-.4-.3-.5-.9-.6-.8-.2-1.5-.4-1.5-1.2 0-.7.6-1.2 1.6-1.2.5 0 1.2.1 1.4.6.1.2.1.4.1.6H94c0-.6-.5-.7-.8-.7-.1 0-.8 0-.8.6 0 .4.4.5.6.5 1.1.3 1.4.3 1.6.6.2.2.3.5.3.7 0 .4-.2.8-.5 1-.4.2-.8.3-1.2.3-.8 0-1.6-.3-1.6-1.3h.8zm4-.6c0 .8.3 1.4 1.2 1.4.5 0 .9-.3.9-.8h.8c0 .2-.1.5-.3.8-.2.2-.6.5-1.4.5-1.3 0-1.9-.8-1.9-2.1 0-.8.2-1.4.8-1.9.4-.3.9-.3 1.1-.3 1.8 0 1.8 1.6 1.7 2.2h-2.9zm2.2-.6c0-.4-.1-1.2-1-1.2-.5 0-1.1.3-1.1 1.2h2.1zm4.3 2.4c-.1-.2-.1-.4-.1-.6-.4.7-.9.7-1.2.7-.9 0-1.4-.5-1.4-1.2 0-.3.1-.8.7-1.2.4-.2 1.1-.3 1.4-.3h.5c0-.5 0-.7-.1-.9-.2-.2-.5-.3-.7-.3-.8 0-.8.5-.8.7h-.8c0-.2 0-.5.3-.8.3-.3.9-.4 1.3-.4.6 0 1.2.2 1.4.6.1.2.1.4.1.6v1.9c0 .1 0 .6.1 1h-.7zm-.5-1.9c-.3 0-1.4 0-1.4.8 0 .3.2.7.8.7.4 0 .7-.2.9-.4.2-.3.2-.5.2-1.1h-.5zm2.5-1.3v-.8h.8v.8c.1-.6.6-.7 1-.8h.5v.7h-.3c-.9 0-1.1.5-1.1 1.2v2.1h-.8v-3.2zm5.4.5c0-.2-.1-.8-.8-.8-1 0-1 1.2-1 1.5 0 .8.2 1.6 1 1.6.6 0 .9-.5.9-.9h.8c0 .8-.6 1.4-1.6 1.4-.3 0-.9-.1-1.3-.5-.2-.3-.5-.7-.5-1.5 0-1.7 1-2.2 1.8-2.2.3 0 .9.1 1.2.5.3.3.3.7.3.9h-.8zm1.3-3h.8v2.3c.2-.4.7-.7 1.3-.7.4 0 1 .2 1.3.6.1.2.1.4.1.9v2.5h-.8v-2.4c0-.4 0-1.1-.9-1.1-.6 0-.8.3-.9.5-.1.2-.1.6-.1.8v2.1h-.8v-5.5zm7 0h.9v.8h-.9v-.8zm.1 1.7h.8v4h-.8v-4zm2.7 2.8c0 .3.2.7.9.7.3 0 .5-.1.7-.3.1-.1.1-.2.1-.4 0-.4-.3-.5-.9-.6-.8-.2-1.5-.4-1.5-1.2 0-.7.6-1.2 1.6-1.2.5 0 1.2.1 1.4.6.1.2.1.4.1.6h-.8c0-.6-.5-.7-.8-.7-.1 0-.8 0-.8.6 0 .4.4.5.6.5 1.1.3 1.4.3 1.6.6.2.2.3.5.3.7 0 .4-.2.8-.5 1-.4.2-.8.3-1.2.3-.8 0-1.6-.3-1.6-1.3h.8zm6-2.8l1 3.2 1-3.2h1l.9 3.2 1-3.2h.8l-1.4 4h-.9l-.9-3.3-1 3.3h-.9l-1.3-4h.7zm6.9 2.2c0 .8.3 1.4 1.2 1.4.5 0 .9-.3.9-.8h.8c0 .2-.1.5-.3.8-.2.2-.6.5-1.4.5-1.3 0-1.9-.8-1.9-2.1 0-.8.2-1.4.8-1.9.4-.3.9-.3 1.1-.3 1.8 0 1.8 1.6 1.7 2.2h-2.9zm2.1-.6c0-.4-.1-1.2-1-1.2-.5 0-1.1.3-1.1 1.2h2.1zm1.9-3.3h.8v5.8h-.8v-5.8zm2.2 0h.8v5.8h-.8v-5.8zm-55.3 9.6h.8v5.7h-.8v-.6c-.1.1-.2.3-.4.4-.3.2-.7.3-1 .3-.5 0-1.7-.3-1.7-2 0-1.5.9-2.2 1.8-2.2s1.2.5 1.2.7v-2.3zm-.3 2.6c-.2-.2-.5-.4-.9-.4-1.1 0-1.1 1.3-1.1 1.6 0 .7.2 1.5 1.1 1.5 1.2 0 1.2-1.3 1.2-1.6 0-.6-.2-.9-.3-1.1zm4.1-1c1.6 0 2 1.3 2 2.1 0 1.2-.7 2.2-2 2.2s-2-.9-2-2.1c0-1 .4-2.2 2-2.2zm0 3.7c.6 0 1.2-.4 1.2-1.6 0-1-.5-1.5-1.2-1.5-.5 0-1.3.3-1.3 1.6 0 .8.4 1.5 1.3 1.5zm5.4-2.3c0-.2-.1-.8-.8-.8-1 0-1 1.2-1 1.5 0 .8.2 1.6 1 1.6.6 0 .9-.5.9-.9h.8c0 .8-.6 1.4-1.6 1.4-.3 0-.9-.1-1.3-.5-.2-.3-.5-.7-.5-1.5 0-1.7 1-2.2 1.8-2.2.3 0 .9.1 1.2.5.3.3.3.7.3.9h-.8zm2.4-1.3v2.6c0 .4.1.9.9.9.4 0 .7-.1.9-.4.2-.2.2-.6.2-.8v-2.3h.8v4.1h-.8v-.7c-.1.3-.4.7-1.3.7-1 0-1.5-.6-1.5-1.4v-2.7h.8zm4.2.6v-.5h.8v.6c.4-.6.9-.7 1.3-.7.9 0 1.2.5 1.3.8.1-.2.5-.8 1.4-.8.6 0 1.5.2 1.5 1.4v2.7h-.8v-2.6c0-.4-.1-.5-.1-.6-.1-.2-.4-.4-.8-.4-.5 0-.8.3-.9.4-.2.2-.2.7-.2.9v2.2h-.8v-2.7c0-.5-.3-.9-.9-.9-.5 0-.8.3-.9.4-.2.2-.2.6-.2.8v2.3h-.7V212zm8 1.6c0 .8.3 1.4 1.2 1.4.5 0 .9-.3.9-.8h.8c0 .2-.1.5-.3.8-.2.2-.6.5-1.4.5-1.3 0-1.9-.8-1.9-2.1 0-.8.2-1.4.8-1.9.4-.3.9-.3 1.1-.3 1.8 0 1.8 1.6 1.7 2.2H109zm2.2-.6c0-.4-.1-1.2-1-1.2-.5 0-1.1.3-1.1 1.2h2.1zm1.9-1.1v-.5h.8v.6c.1-.2.4-.7 1.3-.7.4 0 1.5.1 1.5 1.4v2.7h-.8v-2.6c0-.3 0-.5-.2-.7-.2-.2-.5-.3-.7-.3-.5 0-1 .4-1 1.2v2.3h-.8v-3.4zm4.2-.5h.7v-.8l.7-.2v1.1h.9v.6h-.9v2.4c0 .2 0 .5.5.5h.4v.6h-.6c-.7 0-1-.2-1-.9V212h-.7v-.6zm3.7 2.2c0 .8.3 1.4 1.2 1.4.5 0 .9-.3.9-.8h.8c0 .2-.1.5-.3.8-.2.2-.6.5-1.4.5-1.3 0-1.9-.8-1.9-2.1 0-.8.2-1.4.8-1.9.4-.3.9-.3 1.1-.3 1.8 0 1.8 1.6 1.7 2.2H121zm2.2-.6c0-.4-.1-1.2-1-1.2-.5 0-1.1.3-1.1 1.2h2.1zm4.6-3.3h.8v5.7h-.8v-.6c-.1.1-.2.3-.4.4-.3.2-.7.3-1 .3-.5 0-1.7-.3-1.7-2 0-1.5.9-2.2 1.8-2.2s1.2.5 1.2.7v-2.3zm-.3 2.6c-.2-.2-.5-.4-.9-.4-1.1 0-1.1 1.3-1.1 1.6 0 .7.2 1.5 1.1 1.5 1.2 0 1.2-1.3 1.2-1.6 0-.6-.1-.9-.3-1.1zm7.1 3.1c-.1-.2-.1-.4-.1-.6-.4.7-.9.7-1.2.7-.9 0-1.4-.5-1.4-1.2 0-.3.1-.8.7-1.2.4-.2 1.1-.3 1.4-.3h.5c0-.5 0-.7-.1-.9-.2-.2-.5-.3-.7-.3-.8 0-.8.5-.8.7h-.8c0-.2 0-.5.3-.8.3-.3.9-.4 1.3-.4.6 0 1.2.2 1.4.6.1.2.1.4.1.6v1.9c0 .1 0 .6.1 1h-.7zm-.5-1.9c-.3 0-1.4 0-1.4.8 0 .3.2.7.8.7.4 0 .7-.2.9-.4.2-.3.2-.5.2-1.1h-.5zm2.5-1.6v-.5h.8v.6c.1-.2.4-.7 1.3-.7.4 0 1.5.1 1.5 1.4v2.7h-.8v-2.6c0-.3 0-.5-.2-.7-.2-.2-.5-.3-.7-.3-.5 0-1 .4-1 1.2v2.3h-.8v-3.4zm7.7-2.2h.8v5.7h-.8v-.6c-.1.1-.2.3-.4.4-.3.2-.7.3-1 .3-.5 0-1.7-.3-1.7-2 0-1.5.9-2.2 1.8-2.2s1.2.5 1.2.7v-2.3zm-.3 2.6c-.2-.2-.5-.4-.9-.4-1.1 0-1.1 1.3-1.1 1.6 0 .7.2 1.5 1.1 1.5 1.2 0 1.2-1.3 1.2-1.6 0-.6-.1-.9-.3-1.1zm4.6-2.6h.8v5.8h-.8v-5.8zm2.1 0h.9v.8h-.9v-.8zm.1 1.7h.8v4h-.8v-4zm2.2-1.8h.7v3.4l1.5-1.6h1l-1.7 1.7 1.8 2.3h-1l-1.6-2.2v2.2h-.7v-5.8zm4.7 4c0 .8.3 1.4 1.2 1.4.5 0 .9-.3.9-.8h.8c0 .2-.1.5-.3.8-.2.2-.6.5-1.4.5-1.3 0-1.9-.8-1.9-2.1 0-.8.2-1.4.8-1.9.4-.3.9-.3 1.1-.3 1.8 0 1.8 1.6 1.7 2.2h-2.9zm2.1-.6c0-.4-.1-1.2-1-1.2-.5 0-1.1.3-1.1 1.2h2.1zm2.3 1.2c0 .3.2.7.9.7.3 0 .5-.1.7-.3.1-.1.1-.2.1-.4 0-.4-.3-.5-.9-.6-.8-.2-1.5-.4-1.5-1.2 0-.7.6-1.2 1.6-1.2.5 0 1.2.1 1.4.6.1.2.1.4.1.6h-.8c0-.6-.5-.7-.8-.7-.1 0-.8 0-.8.6 0 .4.4.5.6.5 1.1.3 1.4.3 1.6.6.2.2.3.5.3.7 0 .4-.2.8-.5 1-.4.2-.8.3-1.2.3-.8 0-1.6-.3-1.6-1.3h.8zM81.8 221h.7v-.8l.7-.2v1.1h.9v.6h-.9v2.4c0 .2 0 .5.5.5h.4v.6h-.6c-.7 0-1-.2-1-.9v-2.7h-.7v-.6zm5-.1c1.6 0 2 1.3 2 2.1 0 1.2-.7 2.2-2 2.2s-2-.9-2-2.1c-.1-1 .4-2.2 2-2.2zm-.1 3.7c.6 0 1.2-.4 1.2-1.6 0-1-.5-1.5-1.2-1.5-.5 0-1.3.3-1.3 1.6.1.8.5 1.5 1.3 1.5zm5.5-2.8v-.8h.8v.8c.1-.6.6-.7 1-.8h.5v.7h-.3c-.9 0-1.1.5-1.1 1.2v2.1h-.8v-3.2zm3.5 1.4c0 .8.3 1.4 1.2 1.4.5 0 .9-.3.9-.8h.8c0 .2-.1.5-.3.8-.2.2-.6.5-1.4.5-1.3 0-1.9-.8-1.9-2.1 0-.8.2-1.4.8-1.9.4-.3.9-.3 1.1-.3 1.8 0 1.8 1.6 1.7 2.2h-2.9zm2.1-.6c0-.4-.1-1.2-1-1.2-.5 0-1.1.3-1.1 1.2h2.1zm4.4 2.4c-.1-.2-.1-.4-.1-.6-.4.7-.9.7-1.2.7-.9 0-1.4-.5-1.4-1.2 0-.3.1-.8.7-1.2.4-.2 1.1-.3 1.4-.3h.5c0-.5 0-.7-.1-.9-.2-.2-.5-.3-.7-.3-.8 0-.8.5-.8.7h-.8c0-.2 0-.5.3-.8.3-.3.9-.4 1.3-.4.6 0 1.2.2 1.4.6.1.2.1.4.1.6v1.9c0 .1 0 .6.1 1h-.7zm-.6-1.9c-.3 0-1.4 0-1.4.8 0 .3.2.7.8.7.4 0 .7-.2.9-.4.2-.3.2-.5.2-1.1h-.5zm5.3-3.8h.8v5.7h-.7v-.6c-.1.1-.2.3-.4.4-.3.2-.7.3-1 .3-.5 0-1.7-.3-1.7-2 0-1.5.9-2.2 1.8-2.2s1.2.5 1.2.7v-2.3zm-.2 2.6c-.2-.2-.5-.4-.9-.4-1.1 0-1.1 1.3-1.1 1.6 0 .7.2 1.5 1.1 1.5 1.2 0 1.2-1.3 1.2-1.6 0-.6-.2-.9-.3-1.1zm7.3-2.6h.8v5.7h-.8v-.6c-.1.1-.2.3-.4.4-.3.2-.7.3-1 .3-.5 0-1.7-.3-1.7-2 0-1.5.9-2.2 1.8-2.2s1.2.5 1.2.7v-2.3zm-.2 2.6c-.2-.2-.5-.4-.9-.4-1.1 0-1.1 1.3-1.1 1.6 0 .7.2 1.5 1.1 1.5 1.2 0 1.2-1.3 1.2-1.6 0-.6-.2-.9-.3-1.1zm2.3-2.6h.9v.8h-.9v-.8zm.1 1.7h.8v4h-.8v-4zm2.2.8v-.8h.8v.8c.1-.6.6-.7 1-.8h.5v.7h-.3c-.9 0-1.1.5-1.1 1.2v2.1h-.8v-3.2zm3.5 1.4c0 .8.3 1.4 1.2 1.4.5 0 .9-.3.9-.8h.8c0 .2-.1.5-.3.8-.2.2-.6.5-1.4.5-1.3 0-1.9-.8-1.9-2.1 0-.8.2-1.4.8-1.9.4-.3.9-.3 1.1-.3 1.8 0 1.8 1.6 1.7 2.2h-2.9zm2.2-.6c0-.4-.1-1.2-1-1.2-.5 0-1.1.3-1.1 1.2h2.1zm4.1-.3c0-.2-.1-.8-.8-.8-1 0-1 1.2-1 1.5 0 .8.2 1.6 1 1.6.6 0 .9-.5.9-.9h.8c0 .8-.6 1.4-1.6 1.4-.3 0-.9-.1-1.3-.5-.2-.3-.5-.7-.5-1.5 0-1.7 1-2.2 1.8-2.2.3 0 .9.1 1.2.5.3.3.3.7.3.9h-.8zm1.1-1.3h.7v-.8l.7-.2v1.1h.9v.6h-.9v2.4c0 .2 0 .5.5.5h.4v.6h-.6c-.7 0-1-.2-1-.9v-2.7h-.7v-.6zm3.2-1.7h.9v.8h-.9v-.8zm.1 1.7h.8v4h-.8v-4zm4-.1c1.6 0 2 1.3 2 2.1 0 1.2-.7 2.2-2 2.2s-2-.9-2-2.1c-.1-1 .4-2.2 2-2.2zm-.1 3.7c.6 0 1.2-.4 1.2-1.6 0-1-.5-1.5-1.2-1.5-.5 0-1.3.3-1.3 1.6.1.8.5 1.5 1.3 1.5zm3.2-3.1v-.5h.8v.6c.1-.2.4-.7 1.3-.7.4 0 1.5.1 1.5 1.4v2.7h-.8v-2.6c0-.3 0-.5-.2-.7-.2-.2-.5-.3-.7-.3-.5 0-1 .4-1 1.2v2.3h-.8v-3.4zm5.3 2.3c0 .3.2.7.9.7.3 0 .5-.1.7-.3.1-.1.1-.2.1-.4 0-.4-.3-.5-.9-.6-.8-.2-1.5-.4-1.5-1.2 0-.7.6-1.2 1.6-1.2.5 0 1.2.1 1.4.6.1.2.1.4.1.6h-.8c0-.6-.5-.7-.8-.7-.1 0-.8 0-.8.6 0 .4.4.5.6.5 1.1.3 1.4.3 1.6.6.2.2.3.5.3.7 0 .4-.2.8-.5 1-.4.2-.8.3-1.2.3-.8 0-1.6-.3-1.6-1.3h.8z" class="st3"/>
  <g id="l-planner">
    <circle cx="50.2" cy="38.8" r="25.1" class="st0"/>
    <g id="planner_1_">
      <path d="M61.6 57H40.3c-1.5 0-2.8-1.2-2.8-2.8V22.7c0-1.5 1.2-2.8 2.8-2.8h21.3c1.5 0 2.8 1.2 2.8 2.8v31.5c0 1.5-1.2 2.8-2.8 2.8z" class="st7"/>
      <path d="M42.7 28.7l-.5.2-.1-.3.6-.3h.3v2.6h-.3v-2.2zm-.8 7v-.2l.3-.3c.7-.6 1-1 1-1.3 0-.3-.1-.5-.5-.5-.2 0-.4.1-.5.2l-.2-.3c.2-.2.4-.3.7-.3.6 0 .8.4.8.7 0 .5-.3.9-.9 1.4l-.2.2h1.2v.3h-1.7zm.1 4.4c.1.1.3.2.6.2.4 0 .6-.3.6-.5 0-.4-.3-.5-.7-.5h-.2V39h.2c.3 0 .6-.1.6-.4 0-.2-.1-.4-.5-.4-.2 0-.4.1-.5.2L42 38c.1-.1.4-.2.7-.2.5 0 .7.3.7.6s-.2.5-.5.6c.3.1.6.3.6.7 0 .4-.3.8-.9.8-.3 0-.5-.1-.7-.2l.1-.2zm1 5.1v-.7h-1.2v-.2l1.2-1.6h.4v1.6h.4v.3h-.4v.7H43zm0-.9V43c-.1.2-.1.3-.2.4l-.6.9h.8zm.5 3.4h-1l-.1.7h.2c.2 0 .4 0 .6.1.2.1.4.3.4.7 0 .5-.4.9-1 .9-.3 0-.5-.1-.6-.2l.1-.3c.1.1.3.1.6.1s.6-.2.6-.6c0-.3-.2-.6-.7-.6h-.4l.2-1.2h1.2v.4z" class="st3"/>
      <path d="M44.9 30.9h17.2m-17.2 4.7h17.2m-17.2 4.7h17.2m-17.3 4.6H62m-17.1 4.7h17.2" class="st8"/>
    </g>
  </g>
  <path d="M83.4 19.9h3.3c1.7 0 2.3 1 2.3 2.6 0 1-.3 2.5-2.4 2.5h-1.3v3.5h-1.8v-8.6zm1.8 3.8h1c.5 0 .9-.6.9-1.2 0-.7-.2-1.3-1-1.3h-.9v2.5zm4.9 4.9v-8.7h1.8v7.2h2.7v1.4h-4.5zm4.6 0l2.4-8.7h2.4l2.4 8.7H100l-.5-1.9H97l-.5 1.9h-1.8zm3.5-7l-.9 3.7H99l-.8-3.7zm4.5 7v-8.7h2.4l2.3 6v-6h1.7v8.7h-2.4l-2.4-6.3v6.3h-1.6zm8 0v-8.7h2.4l2.3 6v-6h1.7v8.7h-2.4l-2.4-6.3v6.3h-1.6zm8 0v-8.7h4.7v1.3h-2.9v2.1h2.7v1.3h-2.7v2.5h3v1.3h-4.8zm7.8 0h-1.8v-8.7h3.3c1.2 0 2 .8 2 2.3 0 1.1-.4 1.9-1.6 2.1.4 0 1.6.1 1.6 1.7 0 .6 0 2.2.2 2.5h-1.8c-.2-.5-.2-1.1-.2-1.7 0-1 .1-1.9-1.3-1.9h-.5v3.7zm0-5h.8c.7 0 .9-.7.9-1.3 0-.8-.3-1.1-.9-1.1h-.8v2.4zM85 39.4v-5.7h-2.2v-.8H88v.8h-2.2v5.7H85zm3.9-6.5h.9v2.6c.3-.5.8-.7 1.5-.7.5 0 1.2.2 1.4.7.1.2.2.4.2 1.1v2.8H92v-2.7c0-.4 0-1.3-1-1.3-.6 0-.9.4-1.1.6-.1.3-.1.7-.1 1v2.4h-.9v-6.5zm5.4 0h1v.9h-1v-.9zm.1 1.9h.8v4.5h-.8v-4.5zm2.6.6v-.5h.8v.7c.1-.2.4-.8 1.4-.8.4 0 1.6.2 1.6 1.5v3.1h-.8v-2.9c0-.3 0-.6-.2-.8-.2-.2-.5-.3-.8-.3-.6 0-1.2.4-1.2 1.4v2.6H97v-4zm6.2 4.3c0 .5.3.9 1.1.9 1.2 0 1.2-.9 1.2-2.1-.4.7-1.2.8-1.5.8-.4 0-1-.1-1.4-.6-.4-.5-.5-1.1-.5-1.7 0-1.5.9-2.3 2-2.3.9 0 1.2.5 1.4.7v-.6h.8v3.6c0 1.1 0 1.5-.2 1.9-.4.7-1.3.8-1.9.8-1.8 0-1.9-.8-1.9-1.5h.9zm2-1.5c.2-.2.3-.5.3-1.3 0-.6-.1-.9-.4-1.1-.2-.2-.6-.4-1-.4-1.1 0-1.2 1.1-1.2 1.7 0 .7.2 1.6 1.2 1.6.6-.1.9-.2 1.1-.5zm3.2-.2c0 .3.2.8 1 .8.4 0 .6-.1.8-.3.1-.1.1-.3.1-.4 0-.4-.3-.5-1-.7-.9-.2-1.7-.4-1.7-1.4 0-.8.7-1.4 1.8-1.4.6 0 1.4.2 1.6.7.1.3.1.5.1.7h-.9c0-.7-.6-.7-.9-.7-.1 0-.9 0-.9.6 0 .4.4.5.6.6 1.3.3 1.5.4 1.8.6.3.2.3.5.3.8 0 .5-.3.9-.6 1.1-.4.2-.9.3-1.3.3-.9 0-1.8-.4-1.8-1.5h1zm9.3 1.4c-.1-.2-.1-.4-.1-.7-.4.7-1 .8-1.4.8-1 0-1.6-.6-1.6-1.3 0-.4.1-.9.8-1.3.5-.3 1.2-.3 1.6-.3h.6c0-.6 0-.8-.2-1-.2-.2-.5-.3-.8-.3-.9 0-.9.6-.9.8h-.8c0-.2.1-.5.3-.9.3-.4 1-.5 1.5-.5.7 0 1.4.2 1.6.7.1.3.2.5.2.7v2.2c0 .1 0 .7.1 1.1h-.9zm-.6-2.3c-.3 0-1.6 0-1.6.9 0 .3.2.8.9.8.4 0 .8-.2 1-.5.2-.3.2-.6.2-1.2h-.5zm2.9-1.3v-.9h.9v.9c.2-.6.7-.8 1.1-.9h.6v.8h-.4c-1 0-1.2.6-1.2 1.4v2.4h-1v-3.7zm3.9 1.5c0 .9.4 1.6 1.3 1.6.5 0 1-.3 1.1-.9h.8c0 .2-.1.6-.4.9-.2.2-.6.6-1.6.6-1.4 0-2.1-.9-2.1-2.3 0-.9.2-1.6.9-2.1.4-.3 1-.3 1.2-.3 2 0 2 1.8 2 2.5h-3.2zm2.4-.6c0-.4-.1-1.3-1.1-1.3-.5 0-1.2.3-1.2 1.3h2.3zm7.8-3.8h.8v6.5h-.8v-.7c-.1.1-.2.3-.4.5-.4.3-.8.3-1.1.3-.6 0-1.9-.3-1.9-2.3 0-1.7 1-2.5 2-2.5s1.3.6 1.4.8v-2.6zm-.3 2.9c-.2-.2-.5-.5-1-.5-1.2 0-1.2 1.5-1.2 1.8 0 .8.2 1.7 1.2 1.7 1.3 0 1.3-1.5 1.3-1.8 0-.6-.2-1-.3-1.2zm4.6-1.1c1.8 0 2.2 1.4 2.2 2.4 0 1.3-.7 2.4-2.3 2.4-1.5 0-2.2-1-2.2-2.4 0-1.1.5-2.4 2.3-2.4zm-.1 4.2c.6 0 1.4-.5 1.4-1.8 0-1.1-.5-1.7-1.3-1.7-.5 0-1.4.3-1.4 1.8 0 .8.4 1.7 1.3 1.7zm3.7-3.5v-.5h.8v.7c.1-.2.4-.8 1.4-.8.4 0 1.6.2 1.6 1.5v3.1h-.8v-2.9c0-.3 0-.6-.2-.8-.2-.2-.5-.3-.8-.3-.6 0-1.2.4-1.2 1.4v2.6h-.8v-4zm6 1.9c0 .9.4 1.6 1.3 1.6.5 0 1-.3 1.1-.9h.8c0 .2-.1.6-.4.9-.2.2-.6.6-1.6.6-1.4 0-2.1-.9-2.1-2.3 0-.9.2-1.6.9-2.1.4-.3 1-.3 1.2-.3 2 0 2 1.8 2 2.5H148zm2.3-.6c0-.4-.1-1.3-1.1-1.3-.5 0-1.2.3-1.2 1.3h2.3zm4.6-3.8h1v.9h-1v-.9zm.1 1.9h.8v4.5h-.8v-4.5zm2.5.6v-.5h.8v.7c.1-.2.4-.8 1.4-.8.4 0 1.6.2 1.6 1.5v3.1h-.9v-2.9c0-.3 0-.6-.2-.8-.2-.2-.5-.3-.8-.3-.6 0-1.2.4-1.2 1.4v2.6h-.8v-4zm10.7 4c-.1-.2-.1-.4-.1-.7-.4.7-1 .8-1.4.8-1 0-1.6-.6-1.6-1.3 0-.4.1-.9.8-1.3.5-.3 1.2-.3 1.6-.3h.6c0-.6 0-.8-.2-1-.2-.2-.5-.3-.8-.3-.9 0-.9.6-.9.8h-.8c0-.2.1-.5.3-.9.3-.4 1-.5 1.5-.5.7 0 1.4.2 1.6.7.1.3.2.5.2.7v2.2c0 .1 0 .7.1 1.1h-.9zm-.6-2.3c-.3 0-1.6 0-1.6.9 0 .3.2.8.9.8.4 0 .8-.2 1-.5.2-.3.2-.6.2-1.2h-.5zm-84.2 9.3v-.7h.9v.7c.4-.7 1.2-.8 1.5-.8 1 0 1.9.7 1.9 2.3 0 1.7-1 2.4-2.1 2.4-.7 0-1.1-.3-1.4-.7v2.2h-.8v-5.4zm2.1 3.3c.2 0 .7 0 1-.4.3-.4.4-1.1.4-1.4 0-.8-.2-1.7-1.2-1.7-1.4 0-1.4 1.4-1.4 1.8-.1.6 0 1.7 1.2 1.7zm3.4-6h.8v6.5h-.8v-6.5zm5.3 6.5c-.1-.2-.1-.4-.1-.7-.4.7-1 .8-1.4.8-1 0-1.6-.6-1.6-1.3 0-.4.1-.9.8-1.3.5-.3 1.2-.3 1.6-.3h.6c0-.6 0-.8-.2-1-.2-.2-.5-.3-.8-.3-.9 0-.9.6-.9.8h-.8c0-.2.1-.5.3-.9.3-.4 1-.5 1.5-.5.7 0 1.4.2 1.6.7.1.3.2.5.2.7v2.2c0 .1 0 .7.1 1.1h-.9zm-.6-2.3c-.3 0-1.6 0-1.6.9 0 .3.2.8.9.8.4 0 .8-.2 1-.5.2-.3.2-.6.2-1.2h-.5zm2.9-1.7v-.5h.8v.7c.1-.2.4-.8 1.4-.8.4 0 1.6.2 1.6 1.5v3.1h-.9v-2.9c0-.3 0-.6-.2-.8-.2-.2-.5-.3-.8-.3-.6 0-1.2.4-1.2 1.4v2.6h-.8v-4zm5.5 0v-.5h.8v.7c.1-.2.4-.8 1.4-.8.4 0 1.6.2 1.6 1.5v3.1h-.8v-2.9c0-.3 0-.6-.2-.8-.2-.2-.5-.3-.8-.3-.6 0-1.2.4-1.2 1.4v2.6h-.8v-4zm5.9 1.9c0 .9.4 1.6 1.3 1.6.5 0 1-.3 1.1-.9h.8c0 .2-.1.6-.4.9-.2.2-.6.6-1.6.6-1.4 0-2.1-.9-2.1-2.3 0-.9.2-1.6.9-2.1.4-.3 1-.3 1.2-.3 2 0 2 1.8 2 2.5h-3.2zm2.4-.6c0-.4-.1-1.3-1.1-1.3-.5 0-1.2.3-1.2 1.3h2.3zm5.3-3.8h.8v6.5h-.8v-.7c-.1.1-.2.3-.4.5-.4.3-.8.3-1.1.3-.6 0-1.9-.3-1.9-2.3 0-1.7 1-2.5 2-2.5s1.3.6 1.4.8v-2.6zm-.3 2.9c-.2-.2-.5-.5-1-.5-1.2 0-1.2 1.5-1.2 1.8 0 .8.2 1.7 1.2 1.7 1.3 0 1.3-1.5 1.3-1.8 0-.6-.2-1-.3-1.2zm7.1-1.1c1.8 0 2.2 1.4 2.2 2.4 0 1.3-.7 2.4-2.3 2.4-1.5 0-2.2-1-2.2-2.4 0-1.1.5-2.4 2.3-2.4zm-.1 4.2c.6 0 1.4-.5 1.4-1.8 0-1.1-.5-1.7-1.3-1.7-.5 0-1.4.3-1.4 1.8 0 .8.4 1.7 1.3 1.7zm3.7-3.1v-.9h.9v.9c.2-.6.7-.8 1.1-.9h.6v.8h-.4c-1 0-1.2.6-1.2 1.4v2.4h-1v-3.7zm6.6-2.9h.8v6.5h-.8v-.7c-.1.1-.2.3-.4.5-.4.3-.8.3-1.1.3-.6 0-1.9-.3-1.9-2.3 0-1.7 1-2.5 2-2.5s1.3.6 1.4.8v-2.6zm-.3 2.9c-.2-.2-.5-.5-1-.5-1.2 0-1.2 1.5-1.2 1.8 0 .8.2 1.7 1.2 1.7 1.3 0 1.3-1.5 1.3-1.8 0-.6-.2-1-.3-1.2zm3.1 1.5c0 .9.4 1.6 1.3 1.6.5 0 1-.3 1.1-.9h.8c0 .2-.1.6-.4.9-.2.2-.6.6-1.6.6-1.4 0-2.1-.9-2.1-2.3 0-.9.2-1.6.9-2.1.4-.3 1-.3 1.2-.3 2 0 2 1.8 2 2.5h-3.2zm2.4-.6c0-.4-.1-1.3-1.1-1.3-.5 0-1.2.3-1.2 1.3h2.3zm2.2-.9v-.9h.9v.9c.2-.6.7-.8 1.1-.9h.6v.8h-.4c-1 0-1.2.6-1.2 1.4v2.4h-1v-3.7zm3.5-2.9h.8v6.5h-.8v-6.5zm4.5 6.5l-.6 1.7h-.9l.7-1.7-1.9-4.5h1l1.4 3.6 1.4-3.6h.9l-2 4.5zm5.7-4.6l1.1 3.6 1.1-3.6h1.1l1 3.6 1.1-3.6h.9l-1.6 4.5h-1l-1.1-3.7-1.2 3.7h-1l-1.5-4.5h1.1zm9.8 4.6c-.1-.2-.1-.4-.1-.7-.4.7-1 .8-1.4.8-1 0-1.6-.6-1.6-1.3 0-.4.1-.9.8-1.3.5-.3 1.2-.3 1.6-.3h.6c0-.6 0-.8-.2-1-.2-.2-.5-.3-.8-.3-.9 0-.9.6-.9.8h-.8c0-.2.1-.5.3-.9.3-.4 1-.5 1.5-.5.7 0 1.4.2 1.6.7.1.3.2.5.2.7v2.2c0 .1 0 .7.1 1.1h-.9zm-.6-2.3c-.3 0-1.6 0-1.6.9 0 .3.2.8.9.8.4 0 .8-.2 1-.5.2-.3.2-.6.2-1.2h-.5zm4.9 2.3l-.6 1.7h-.9l.7-1.7-1.9-4.5h1l1.4 3.6 1.4-3.6h.9l-2 4.5zm-84.4 4.3h.8V61h-.8v-6.5zm2.5 0h1v.9h-1v-.9zm0 1.9h.8V61h-.8v-4.6zm2.5-2h.8v3.9l1.7-1.8H92l-1.9 1.9 2 2.6H91l-1.8-2.4V61h-.8v-6.6zm5.2 4.5c0 .9.4 1.6 1.3 1.6.5 0 1-.3 1.1-.9h.8c0 .2-.1.6-.4.9-.2.2-.6.6-1.6.6-1.4 0-2.1-.9-2.1-2.3 0-.9.2-1.6.9-2.1.4-.3 1-.3 1.2-.3 2 0 2 1.8 2 2.5h-3.2zm2.4-.6c0-.4-.1-1.3-1.1-1.3-.5 0-1.2.3-1.2 1.3H96zm7.4 2.7c-.1-.2-.1-.4-.1-.7-.4.7-1 .8-1.4.8-1 0-1.6-.6-1.6-1.3 0-.4.1-.9.8-1.3.5-.3 1.2-.3 1.6-.3h.6c0-.6 0-.8-.2-1-.2-.2-.5-.3-.8-.3-.9 0-.9.6-.9.8h-.8c0-.2.1-.5.3-.9.3-.4 1-.5 1.5-.5.7 0 1.4.2 1.6.7.1.3.2.5.2.7v2.2c0 .1 0 .7.1 1.1h-.9zm-.6-2.3c-.3 0-1.6 0-1.6.9 0 .3.2.8.9.8.4 0 .8-.2 1-.5.2-.3.2-.6.2-1.2h-.5zm4.6-2.3h.8v-.9l.8-.3v1.2h1v.6h-1v2.7c0 .2 0 .6.6.6h.4v.7c-.2 0-.4.1-.7.1-.8 0-1.1-.2-1.1-1v-3h-.8v-.7zm5.7-.1c1.8 0 2.2 1.4 2.2 2.4 0 1.3-.7 2.4-2.3 2.4-1.5 0-2.2-1-2.2-2.4 0-1.1.5-2.4 2.3-2.4zm-.1 4.2c.6 0 1.4-.5 1.4-1.8 0-1.1-.5-1.7-1.3-1.7-.5 0-1.4.3-1.4 1.8 0 .8.4 1.7 1.3 1.7zm3.2-2.2h2.3v.7h-2.3v-.7zm6.6-3.8h.8V61h-.8v-.7c-.1.1-.2.3-.4.5-.4.3-.8.3-1.1.3-.6 0-1.9-.3-1.9-2.3 0-1.7 1-2.5 2-2.5s1.3.6 1.4.8v-2.6zm-.4 2.9c-.2-.2-.5-.5-1-.5-1.2 0-1.2 1.5-1.2 1.8 0 .8.2 1.7 1.2 1.7 1.3 0 1.3-1.5 1.3-1.8.1-.6-.1-1-.3-1.2zm4.7-1.1c1.8 0 2.2 1.4 2.2 2.4 0 1.3-.7 2.4-2.3 2.4-1.5 0-2.2-1-2.2-2.4 0-1.1.5-2.4 2.3-2.4zm-.1 4.2c.6 0 1.4-.5 1.4-1.8 0-1.1-.5-1.7-1.3-1.7-.5 0-1.4.3-1.4 1.8 0 .8.4 1.7 1.3 1.7zm6.1-6h.8V61h-.8v-6.5zm2.4 0h1v.9h-1v-.9zm.1 1.9h.8V61h-.8v-4.6zm3 3.2c0 .3.2.8 1 .8.4 0 .6-.1.8-.3.1-.1.1-.3.1-.4 0-.4-.3-.5-1-.7-.9-.2-1.7-.4-1.7-1.4 0-.8.7-1.4 1.8-1.4.6 0 1.4.2 1.6.7.1.3.1.5.1.7h-.9c0-.7-.6-.7-.9-.7-.1 0-.9 0-.9.6 0 .4.4.5.6.6 1.3.3 1.5.4 1.8.6.3.2.3.5.3.8 0 .5-.3.9-.6 1.1-.4.2-.9.3-1.3.3-.9 0-1.8-.4-1.8-1.5h1zm3.3-3.2h.8v-.9l.8-.3v1.2h1v.6h-1v2.7c0 .2 0 .6.6.6h.4v.7c-.2 0-.4.1-.7.1-.8 0-1.1-.2-1.1-1v-3h-.8v-.7z" class="st3"/>
  <g id="l-music">
    <circle cx="48.9" cy="329.1" r="25.1" class="st0"/>
    <path d="M44.3 316.1v24.7c0 2.6-2.1 4.7-4.7 4.7h-1.5c-2.6 0-4.7-2.1-4.7-4.7v-24.7h10.9zm10.8 0v24.7c0 2.6-2.1 4.7-4.7 4.7H49c-2.6 0-4.7-2.1-4.7-4.7v-24.7h10.8z" class="st9"/>
    <path d="M65.9 316.1v24.7c0 2.6-2.1 4.7-4.7 4.7h-1.5c-2.6 0-4.7-2.1-4.7-4.7v-24.7h10.9z" class="st9"/>
    <path d="M41.9 316.1h4.5v14.6h-4.5zm10.3 0h4.5v14.6h-4.5z" class="st3"/>
  </g>
  <path d="M82.5 321.3v-8.7h2.9l1.4 5.9 1.4-5.9H91v8.7h-1.8v-6.7l-1.7 6.7h-1.7l-1.6-6.7v6.7h-1.7zm15.9-8.7v6.1c0 1.3-.7 2.7-2.9 2.7-2 0-3-1-3-2.7v-6.1h1.8v6c0 1.1.5 1.5 1.1 1.5.8 0 1.2-.5 1.2-1.5v-6h1.8zm3.8 8.8c-2.2 0-2.7-1.3-2.6-2.8h1.8c0 .8 0 1.5 1 1.5.6 0 .9-.4.9-1 0-1.6-3.6-1.7-3.6-4.2 0-1.4.6-2.4 2.9-2.4 1.8 0 2.6.8 2.5 2.6h-1.8c0-.6-.1-1.3-.8-1.3-.6 0-.9.3-.9.9 0 1.6 3.6 1.5 3.6 4.2 0 2.3-1.6 2.5-3 2.5zm4.3-.1v-8.7h1.8v8.7h-1.8zm3.3-4.3c0-2.3 0-4.5 3-4.5 1.8 0 2.6 1 2.5 2.9h-1.8c0-1.2-.2-1.6-.7-1.6-1 0-1.2 1-1.2 3.2s.1 3.2 1.2 3.2c.8 0 .8-1.1.8-1.8h1.8c0 2.3-.9 3.1-2.6 3.1-3-.1-3-2.3-3-4.5zm9.3 0c0-2.3 0-4.5 3-4.5 1.8 0 2.6 1 2.5 2.9h-1.8c0-1.2-.2-1.6-.7-1.6-1 0-1.2 1-1.2 3.2s.1 3.2 1.2 3.2c.8 0 .8-1.1.8-1.8h1.8c0 2.3-.9 3.1-2.6 3.1-3-.1-3-2.3-3-4.5zm8.6 4.3h-1.8v-8.7h3.3c1.2 0 2 .8 2 2.3 0 1.1-.4 1.9-1.6 2.1.4 0 1.6.1 1.6 1.7 0 .6 0 2.2.2 2.5h-1.8c-.2-.5-.2-1.1-.2-1.7 0-1 .1-1.9-1.3-1.9h-.5v3.7zm0-4.9h.8c.7 0 .9-.7.9-1.3 0-.8-.3-1.1-.9-1.1h-.8v2.4zm4.9 4.9v-8.7h1.8v8.7h-1.8zm8.4-8.7v1.4h-2v7.2h-1.8V314h-2v-1.4h5.8zm.9 8.7v-8.7h1.8v8.7h-1.8zm3.2-4.3c0-2.3 0-4.5 3-4.5 1.8 0 2.6 1 2.5 2.9h-1.8c0-1.2-.2-1.6-.7-1.6-1 0-1.2 1-1.2 3.2s.1 3.2 1.2 3.2c.8 0 .8-1.1.8-1.8h1.8c0 2.3-.9 3.1-2.6 3.1-3-.1-3-2.3-3-4.5zm-62.6 8.1h1.9c.7 0 1.2 0 1.6.5.3.3.4.7.4 1.1 0 .4-.1.8-.5 1.1-.3.3-.7.5-1.7.5h-.9v2.6h-.8v-5.8zm.8 2.6h1c.5 0 1.3 0 1.3-1 0-.9-.8-.9-1.2-.9h-1.1v1.9zm4 0v-.8h.7v.8c.1-.6.6-.7 1-.8h.5v.7h-.3c-.9 0-1.1.5-1.1 1.2v2.1h-.8v-3.2zm3.5 1.3c0 .8.3 1.4 1.2 1.4.5 0 .9-.3.9-.8h.8c0 .2-.1.5-.3.8-.2.2-.6.5-1.4.5-1.3 0-1.9-.8-1.9-2.1 0-.8.2-1.4.8-1.9.4-.3.9-.3 1.1-.3 1.8 0 1.8 1.6 1.7 2.2h-2.9zm2.1-.5c0-.4-.1-1.2-1-1.2-.5 0-1.1.3-1.1 1.2h2.1zm3.9-2.8h-.4c-.6 0-.6.3-.6.6v.6h.9v.5h-.9v3.5H95v-3.5h-.8v-.5h.8v-.5c0-.6 0-.8.2-1 .2-.3.5-.4 1-.4.2 0 .5 0 .6.1v.6zm1.1 3.3c0 .8.3 1.4 1.2 1.4.5 0 .9-.3.9-.8h.8c0 .2-.1.5-.3.8-.2.2-.6.5-1.4.5-1.3 0-1.9-.8-1.9-2.1 0-.8.2-1.4.8-1.9.4-.3.9-.3 1.1-.3 1.8 0 1.8 1.6 1.7 2.2h-2.9zm2.1-.5c0-.4-.1-1.2-1-1.2-.5 0-1.1.3-1.1 1.2h2.1zm1.9-.8v-.8h.8v.8c.1-.6.6-.7 1-.8h.5v.7h-.3c-.9 0-1.1.5-1.1 1.2v2.1h-.8v-3.2zm3.7 2c0 .3.2.7.9.7.3 0 .5-.1.7-.3.1-.1.1-.2.1-.4 0-.4-.3-.5-.9-.6-.8-.2-1.5-.4-1.5-1.2 0-.7.6-1.2 1.6-1.2.5 0 1.2.1 1.4.6.1.2.1.4.1.6h-.8c0-.6-.5-.7-.8-.7-.1 0-.8 0-.8.6 0 .4.4.5.6.5 1.1.3 1.4.3 1.6.6.2.2.3.5.3.7 0 .4-.2.8-.5 1-.4.2-.8.3-1.2.3-.8 0-1.6-.3-1.6-1.3h.8zm8.1-1.5c0-.2-.1-.8-.8-.8-1 0-1 1.2-1 1.5 0 .8.2 1.6 1 1.6.6 0 .9-.5.9-.9h.8c0 .8-.6 1.4-1.6 1.4-.3 0-.9-.1-1.3-.5-.2-.3-.5-.7-.5-1.5 0-1.7 1-2.2 1.8-2.2.3 0 .9.1 1.2.5.3.3.3.7.3.9h-.8zm1.7-3.1h.8v5.8h-.8v-5.8zm4.7 5.8c-.1-.2-.1-.4-.1-.6-.4.7-.9.7-1.2.7-.9 0-1.4-.5-1.4-1.2 0-.3.1-.8.7-1.2.4-.2 1.1-.3 1.4-.3h.5c0-.5 0-.7-.1-.9-.2-.2-.5-.3-.7-.3-.8 0-.8.5-.8.7h-.8c0-.2 0-.5.3-.8.3-.3.9-.4 1.3-.4.6 0 1.2.2 1.4.6.1.2.1.4.1.6v1.9c0 .1 0 .6.1 1h-.7zm-.6-2c-.3 0-1.4 0-1.4.8 0 .3.2.7.8.7.4 0 .7-.2.9-.4.2-.3.2-.5.2-1.1h-.5zm3 .8c0 .3.2.7.9.7.3 0 .5-.1.7-.3.1-.1.1-.2.1-.4 0-.4-.3-.5-.9-.6-.8-.2-1.5-.4-1.5-1.2 0-.7.6-1.2 1.6-1.2.5 0 1.2.1 1.4.6.1.2.1.4.1.6h-.8c0-.6-.5-.7-.8-.7-.1 0-.8 0-.8.6 0 .4.4.5.6.5 1.1.3 1.4.3 1.6.6.2.2.3.5.3.7 0 .4-.2.8-.5 1-.4.2-.8.3-1.2.3-.8 0-1.6-.3-1.6-1.3h.8zm4 0c0 .3.2.7.9.7.3 0 .5-.1.7-.3.1-.1.1-.2.1-.4 0-.4-.3-.5-.9-.6-.8-.2-1.5-.4-1.5-1.2 0-.7.6-1.2 1.6-1.2.5 0 1.2.1 1.4.6.1.2.1.4.1.6h-.8c0-.6-.5-.7-.8-.7-.1 0-.8 0-.8.6 0 .4.4.5.6.5 1.1.3 1.4.3 1.6.6.2.2.3.5.3.7 0 .4-.2.8-.5 1-.4.2-.8.3-1.2.3-.8 0-1.6-.3-1.6-1.3h.8zm3.5-4.6h.9v.8h-.9v-.8zm.1 1.8h.8v4h-.8v-4zm4.5 1.3c0-.2-.1-.8-.8-.8-1 0-1 1.2-1 1.5 0 .8.2 1.6 1 1.6.6 0 .9-.5.9-.9h.8c0 .8-.6 1.4-1.6 1.4-.3 0-.9-.1-1.3-.5-.2-.3-.5-.7-.5-1.5 0-1.7 1-2.2 1.8-2.2.3 0 .9.1 1.2.5.3.3.3.7.3.9h-.8zm4.1 2.7c-.1-.2-.1-.4-.1-.6-.4.7-.9.7-1.2.7-.9 0-1.4-.5-1.4-1.2 0-.3.1-.8.7-1.2.4-.2 1.1-.3 1.4-.3h.5c0-.5 0-.7-.1-.9-.2-.2-.5-.3-.7-.3-.8 0-.8.5-.8.7h-.8c0-.2 0-.5.3-.8.3-.3.9-.4 1.3-.4.6 0 1.2.2 1.4.6.1.2.1.4.1.6v1.9c0 .1 0 .6.1 1h-.7zm-.5-2c-.3 0-1.4 0-1.4.8 0 .3.2.7.8.7.4 0 .7-.2.9-.4.2-.3.2-.5.2-1.1h-.5zm2.5-3.8h.8v5.8h-.8v-5.8zm4.5 2.3v-.5h.8v.6c.4-.6.9-.7 1.3-.7.9 0 1.2.5 1.3.8.1-.2.5-.8 1.4-.8.6 0 1.5.2 1.5 1.4v2.7h-.8v-2.6c0-.4-.1-.5-.1-.6-.1-.2-.4-.4-.8-.4-.5 0-.8.3-.9.4-.2.2-.2.7-.2.9v2.2h-.8v-2.7c0-.5-.3-.9-.9-.9-.5 0-.8.3-.9.4-.2.2-.2.6-.2.8v2.3h-.8v-3.3zm8.2-.5v2.6c0 .4.1.9.9.9.4 0 .7-.1.9-.4.2-.2.2-.6.2-.8v-2.3h.8v4.1h-.8v-.7c-.1.3-.4.7-1.3.7-1 0-1.5-.6-1.5-1.4v-2.7h.8zm4.6 2.8c0 .3.2.7.9.7.3 0 .5-.1.7-.3.1-.1.1-.2.1-.4 0-.4-.3-.5-.9-.6-.8-.2-1.5-.4-1.5-1.2 0-.7.6-1.2 1.6-1.2.5 0 1.2.1 1.4.6.1.2.1.4.1.6h-.8c0-.6-.5-.7-.8-.7-.1 0-.8 0-.8.6 0 .4.4.5.6.5 1.1.3 1.4.3 1.6.6.2.2.3.5.3.7 0 .4-.2.8-.5 1-.4.2-.8.3-1.2.3-.8 0-1.6-.3-1.6-1.3h.8zm3.5-4.6h.9v.8h-.9v-.8zm.1 1.8h.8v4h-.8v-4zm4.5 1.3c0-.2-.1-.8-.8-.8-1 0-1 1.2-1 1.5 0 .8.2 1.6 1 1.6.6 0 .9-.5.9-.9h.8c0 .8-.6 1.4-1.6 1.4-.3 0-.9-.1-1.3-.5-.2-.3-.5-.7-.5-1.5 0-1.7 1-2.2 1.8-2.2.3 0 .9.1 1.2.5.3.3.3.7.3.9h-.8z" class="st3"/>
  <g id="l-rational">
    <circle cx="50.2" cy="93.8" r="25.1" class="st0"/>
    <g id="rational_1_">
      <path d="M48.9 108.2c.7.6 1.7.6 2.3 0 5.3-4.4 12.5-13.3 12.4-17.8 0-3.5-.7-5.1-4.8-7.2-2.7-1.3-6.1 1.6-7.8 3.2-.5.5-1.4.5-1.9 0-1.6-1.6-4-4.5-7.8-3.2-3.8 1.3-4.8 3-4.8 7.2 0 4.8 7.2 13.4 12.4 17.8z" class="st1"/>
      <path d="M67.7 81.2L64.4 84c2 2.8 3.1 6.2 3.1 9.9 0 9.5-7.7 17.2-17.2 17.2-4.8 0-9.1-1.9-12.2-5.1l-3.1 2.6c-.1.1-.2.1-.3.2 3.9 4.1 9.4 6.6 15.5 6.6 11.8 0 21.5-9.6 21.5-21.5.1-4.8-1.4-9.2-4-12.7zM33.2 93.8c0-9.5 7.7-17.2 17.2-17.2 4.9 0 9.4 2.1 12.5 5.4l3.3-2.8c-3.9-4.3-9.6-7-15.8-7-11.8 0-21.5 9.6-21.5 21.5 0 4.9 1.7 9.5 4.5 13.1.1-.1.1-.2.2-.2l3-2.6c-2.1-2.7-3.4-6.3-3.4-10.2z" class="st10"/>
      <path d="M34.3 109.5c-.4 0-.8-.2-1.1-.5l-.1-.1c-.4-.5-.4-1.1-.1-1.7l.3-.3L66.5 79c.2-.2.6-.3.9-.3.4 0 .8.2 1.1.5l.1.1c.2.3.4.6.3 1 0 .4-.2.7-.5.9l-33.2 27.9c-.1.1-.2.1-.3.2-.2.2-.4.2-.6.2z" class="st3"/>
      <path d="M67.4 79c.3 0 .6.1.9.4l.1.1c.4.5.3 1.2-.1 1.6l-.7.6-3.3 2.8-26.2 22L35 109c-.1.1-.2.1-.3.2-.1.1-.3.1-.5.1-.3 0-.6-.1-.9-.4l-.1-.1c-.3-.4-.3-.9-.1-1.3.1-.1.1-.2.2-.2l3-2.6 26.3-22 3.3-2.8.6-.5c.4-.3.7-.4.9-.4m0-.5c-.4 0-.8.1-1.1.4l-.6.5-3.3 2.8-26.3 22-3 2.6c-.1.1-.2.2-.3.4-.4.6-.3 1.4.1 2l.1.1c.3.4.8.6 1.3.6.2 0 .5 0 .7-.1.1-.1.3-.1.4-.2l3.1-2.6 26.2-22 3.3-2.8.7-.6c.3-.3.6-.7.6-1.1 0-.4-.1-.9-.4-1.2l-.1-.1c-.4-.5-.9-.7-1.4-.7z" class="st3"/>
    </g>
  </g>
  <path d="M84.5 90.1h-1.8v-8.7H86c1.2 0 2 .8 2 2.3 0 1.1-.4 1.9-1.6 2.1.4 0 1.6.1 1.6 1.7 0 .6 0 2.2.2 2.5h-1.8c-.2-.5-.2-1.1-.2-1.7 0-1 .1-1.9-1.3-1.9h-.5v3.7zm0-4.9h.8c.7 0 .9-.7.9-1.3 0-.8-.3-1.1-.9-1.1h-.8v2.4zm4.3 4.9l2.4-8.7h2.4l2.4 8.7h-2l-.5-1.9H91l-.5 1.9h-1.7zm3.5-6.9l-.9 3.7h1.7l-.8-3.7zm8.9-1.7v1.4h-2v7.2h-1.8v-7.2h-2v-1.4h5.8zm.8 8.6v-8.7h1.8v8.7H102zm3.3-4.3c0-2.3 0-4.5 3-4.5s3 2.2 3 4.5 0 4.5-3 4.5-3-2.2-3-4.5zm4.1 0c0-2.2-.1-3.2-1.2-3.2-1 0-1.2 1-1.2 3.2s.1 3.2 1.2 3.2c1.1 0 1.2-1 1.2-3.2zm3.3 4.3v-8.7h2.4l2.3 6v-6h1.7v8.7h-2.4l-2.4-6.3v6.3h-1.6zm7.4 0l2.4-8.7h2.4l2.4 8.7h-1.9l-.5-1.9h-2.5l-.5 1.9h-1.8zm3.4-6.9l-.9 3.7h1.7l-.8-3.7zm4.6 6.9v-8.7h1.8v7.2h2.7V90h-4.5zM82.8 94h3.4v.7h-2.6v1.8H86v.7h-2.5v2.6h-.8V94zm4.6 3.9c0 .8.3 1.4 1.2 1.4.5 0 .9-.3.9-.8h.8c0 .2-.1.5-.3.8-.2.2-.6.5-1.4.5-1.3 0-1.9-.8-1.9-2.1 0-.8.2-1.4.8-1.9.4-.3.9-.3 1.1-.3 1.8 0 1.8 1.6 1.7 2.2h-2.9zm2.2-.6c0-.4-.1-1.2-1-1.2-.5 0-1.1.3-1.1 1.2h2.1zm2.3.6c0 .8.3 1.4 1.2 1.4.5 0 .9-.3.9-.8h.8c0 .2-.1.5-.3.8-.2.2-.6.5-1.4.5-1.3 0-1.9-.8-1.9-2.1 0-.8.2-1.4.8-1.9.4-.3.9-.3 1.1-.3 1.8 0 1.8 1.6 1.7 2.2h-2.9zm2.1-.6c0-.4-.1-1.2-1-1.2-.5 0-1.1.3-1.1 1.2H94zm1.9-3.3h.8v5.8h-.8V94zm2.1 0h.9v.8H98V94zm.1 1.7h.8v4h-.8v-4zm2.3.5v-.5h.8v.6c.1-.2.4-.7 1.3-.7.4 0 1.5.1 1.5 1.4v2.7h-.8v-2.6c0-.3 0-.5-.2-.7-.2-.2-.5-.3-.7-.3-.5 0-1 .4-1 1.2v2.3h-.8v-3.4zm5.5 3.9c0 .4.2.8.9.8 1 0 1.1-.8 1.1-1.8-.3.7-1.1.7-1.3.7-.4 0-.9-.1-1.2-.5-.3-.4-.5-.9-.5-1.5 0-1.4.8-2 1.8-2 .8 0 1.1.4 1.3.6v-.6h.7V99c0 1 0 1.4-.2 1.7-.3.6-1.1.7-1.7.7-1.6 0-1.7-.8-1.7-1.3h.8zm1.8-1.4c.2-.2.3-.4.3-1.2 0-.5-.1-.8-.3-1-.2-.2-.5-.4-.9-.4-1 0-1.1 1-1.1 1.5 0 .6.2 1.4 1.1 1.4.5.1.7 0 .9-.3zm2.8-.1c0 .3.2.7.9.7.3 0 .5-.1.7-.3.1-.1.1-.2.1-.4 0-.4-.3-.5-.9-.6-.8-.2-1.5-.4-1.5-1.2 0-.7.6-1.2 1.6-1.2.5 0 1.2.1 1.4.6.1.2.1.4.1.6h-.8c0-.6-.5-.7-.8-.7-.1 0-.8 0-.8.6 0 .4.4.5.6.5 1.1.3 1.4.3 1.6.6.2.2.3.5.3.7 0 .4-.2.8-.5 1-.4.2-.8.3-1.2.3-.8 0-1.6-.3-1.6-1.3h.8zm8.6-4.6h.8v5.7h-.8v-.6c-.1.1-.2.3-.4.4-.3.2-.7.3-1 .3-.5 0-1.7-.3-1.7-2 0-1.5.9-2.2 1.8-2.2s1.2.5 1.2.7V94zm-.3 2.6c-.2-.2-.5-.4-.9-.4-1.1 0-1.1 1.3-1.1 1.6 0 .7.2 1.5 1.1 1.5 1.2 0 1.2-1.3 1.2-1.6 0-.6-.1-.9-.3-1.1zm4.2-1c1.6 0 2 1.3 2 2.1 0 1.2-.7 2.2-2 2.2s-2-.9-2-2.1c-.1-1 .4-2.2 2-2.2zm-.1 3.7c.6 0 1.2-.4 1.2-1.6 0-1-.5-1.5-1.2-1.5-.5 0-1.3.3-1.3 1.6.1.8.5 1.5 1.3 1.5zm5.5-3.1v-.5h.8v.6c.1-.2.4-.7 1.3-.7.4 0 1.5.1 1.5 1.4v2.7h-.8v-2.6c0-.3 0-.5-.2-.7-.2-.2-.5-.3-.7-.3-.5 0-1 .4-1 1.2v2.3h-.8v-3.4zm6.6-.6c1.6 0 2 1.3 2 2.1 0 1.2-.7 2.2-2 2.2s-2-.9-2-2.1c-.1-1 .4-2.2 2-2.2zm-.1 3.7c.6 0 1.2-.4 1.2-1.6 0-1-.5-1.5-1.2-1.5-.5 0-1.3.3-1.3 1.6.1.8.5 1.5 1.3 1.5zm2.6-3.6h.7v-.8l.7-.2v1.1h.9v.6h-.8v2.4c0 .2 0 .5.5.5h.4v.6h-.6c-.7 0-1-.2-1-.9v-2.7h-.7v-.6zm6.2 4.4c0 .4.2.8.9.8 1 0 1.1-.8 1.1-1.8-.3.7-1.1.7-1.3.7-.4 0-.9-.1-1.2-.5-.3-.4-.5-.9-.5-1.5 0-1.4.8-2 1.8-2 .8 0 1.1.4 1.3.6v-.6h.7V99c0 1 0 1.4-.2 1.7-.3.6-1.1.7-1.7.7-1.6 0-1.7-.8-1.7-1.3h.8zm1.8-1.4c.2-.2.3-.4.3-1.2 0-.5-.1-.8-.3-1-.2-.2-.5-.4-.9-.4-1 0-1.1 1-1.1 1.5 0 .6.2 1.4 1.1 1.4.4.1.7 0 .9-.3zm2.8-.8c0 .8.3 1.4 1.2 1.4.5 0 .9-.3.9-.8h.8c0 .2-.1.5-.3.8-.2.2-.6.5-1.4.5-1.3 0-1.9-.8-1.9-2.1 0-.8.2-1.4.8-1.9.4-.3.9-.3 1.1-.3 1.8 0 1.8 1.6 1.7 2.2h-2.9zm2.2-.6c0-.4-.1-1.2-1-1.2-.5 0-1.1.3-1.1 1.2h2.1zm1.2-1.6h.7v-.8l.7-.2v1.1h.9v.6h-.9v2.4c0 .2 0 .5.5.5h.4v.6h-.6c-.7 0-1-.2-1-.9v-2.7h-.7v-.6zm5.5-1.7h.9v.8h-.9V94zm0 1.7h.8v4h-.8v-4zm2.3.5v-.5h.8v.6c.1-.2.4-.7 1.3-.7.4 0 1.5.1 1.5 1.4v2.7h-.8v-2.6c0-.3 0-.5-.2-.7-.2-.2-.5-.3-.7-.3-.5 0-1 .4-1 1.2v2.3h-.8v-3.4zm-77.4 9.1h.7v-.8l.7-.2v1.1h.9v.6h-.9v2.4c0 .2 0 .5.5.5h.4v.6h-.6c-.7 0-1-.2-1-.9v-2.7h-.7v-.6zm3.3-1.7h.8v2.3c.2-.4.7-.7 1.3-.7.4 0 1 .2 1.3.6.1.2.1.4.1.9v2.5h-.8V107c0-.4 0-1.1-.9-1.1-.6 0-.8.3-.9.5-.1.2-.1.6-.1.8v2.1h-.8v-5.7zm5.3 3.9c0 .8.3 1.4 1.2 1.4.5 0 .9-.3.9-.8h.8c0 .2-.1.5-.3.8-.2.2-.6.5-1.4.5-1.3 0-1.9-.8-1.9-2.1 0-.8.2-1.4.8-1.9.4-.3.9-.3 1.1-.3 1.8 0 1.8 1.6 1.7 2.2h-2.9zm2.1-.6c0-.4-.1-1.2-1-1.2-.5 0-1.1.3-1.1 1.2h2.1zm4.3-1.6l1 3.2 1-3.2h1l.9 3.2 1-3.2h.8l-1.4 4h-.9l-.9-3.3-1 3.3h-.9l-1.3-4h.7zm8.8 4c-.1-.2-.1-.4-.1-.6-.4.7-.9.7-1.2.7-.9 0-1.4-.5-1.4-1.2 0-.3.1-.8.7-1.2.4-.2 1.1-.3 1.4-.3h.5c0-.5 0-.7-.1-.9-.2-.2-.5-.3-.7-.3-.8 0-.8.5-.8.7h-.8c0-.2 0-.5.3-.8.3-.3.9-.4 1.3-.4.6 0 1.2.2 1.4.6.1.2.1.4.1.6v1.9c0 .1 0 .6.1 1h-.7zm-.5-1.9c-.3 0-1.4 0-1.4.8 0 .3.2.7.8.7.4 0 .7-.2.9-.4.2-.3.2-.5.2-1.1h-.5zm4.3 2l-.6 1.5h-.8l.6-1.5-1.7-4h.8l1.3 3.2 1.3-3.2h.8l-1.7 4zm5.1-4.1l1 3.2 1-3.2h1l.9 3.2 1-3.2h.8l-1.4 4h-.9l-.9-3.3-1 3.3h-.9l-1.3-4h.7zm6.4-1.7h.8v2.3c.2-.4.7-.7 1.3-.7.4 0 1 .2 1.3.6.1.2.1.4.1.9v2.5h-.8V107c0-.4 0-1.1-.9-1.1-.6 0-.8.3-.9.5-.1.2-.1.6-.1.8v2.1h-.8v-5.7zm5.4 3.9c0 .8.3 1.4 1.2 1.4.5 0 .9-.3.9-.8h.8c0 .2-.1.5-.3.8-.2.2-.6.5-1.4.5-1.3 0-1.9-.8-1.9-2.1 0-.8.2-1.4.8-1.9.4-.3.9-.3 1.1-.3 1.8 0 1.8 1.6 1.7 2.2h-2.9zm2.1-.6c0-.4-.1-1.2-1-1.2-.5 0-1.1.3-1.1 1.2h2.1zm1.9-1.1v-.5h.8v.6c.1-.2.4-.7 1.3-.7.4 0 1.5.1 1.5 1.4v2.7h-.8v-2.6c0-.3 0-.5-.2-.7-.2-.2-.5-.3-.7-.3-.5 0-1 .4-1 1.2v2.3h-.8v-3.4zm7.1.1v-.5h.8v.6c.4-.6.9-.7 1.3-.7.9 0 1.2.5 1.3.8.1-.2.5-.8 1.4-.8.6 0 1.5.2 1.5 1.4v2.7h-1v-2.6c0-.4-.1-.5-.1-.6-.1-.2-.4-.4-.8-.4-.5 0-.8.3-.9.4-.2.2-.2.7-.2.9v2.2h-.8v-2.7c0-.5-.3-.9-.9-.9-.5 0-.8.3-.9.4-.2.2-.2.6-.2.8v2.3h-.8v-3.3zm10 3.4c-.1-.2-.1-.4-.1-.6-.4.7-.9.7-1.2.7-.9 0-1.4-.5-1.4-1.2 0-.3.1-.8.7-1.2.4-.2 1.1-.3 1.4-.3h.5c0-.5 0-.7-.1-.9-.2-.2-.5-.3-.7-.3-.8 0-.8.5-.8.7h-.8c0-.2 0-.5.3-.8.3-.3.9-.4 1.3-.4.6 0 1.2.2 1.4.6.1.2.1.4.1.6v1.9c0 .1 0 .6.1 1h-.7zm-.6-1.9c-.3 0-1.4 0-1.4.8 0 .3.2.7.8.7.4 0 .7-.2.9-.4.2-.3.2-.5.2-1.1h-.5zm2.5-3.9h.7v3.4l1.5-1.6h1l-1.7 1.7 1.8 2.3h-1l-1.6-2.2v2.2h-.7v-5.8zm4 .1h.9v.8h-.9v-.8zm.1 1.7h.8v4h-.8v-4zm2.2.5v-.5h.8v.6c.1-.2.4-.7 1.3-.7.4 0 1.5.1 1.5 1.4v2.7h-.8v-2.6c0-.3 0-.5-.2-.7-.2-.2-.5-.3-.7-.3-.5 0-1 .4-1 1.2v2.3h-.8v-3.4zm5.6 3.9c0 .4.2.8.9.8 1 0 1.1-.8 1.1-1.8-.3.7-1.1.7-1.3.7-.4 0-.9-.1-1.2-.5-.3-.4-.5-.9-.5-1.5 0-1.4.8-2 1.8-2 .8 0 1.1.4 1.3.6v-.6h.7v3.2c0 1 0 1.4-.2 1.7-.3.6-1.1.7-1.7.7-1.6 0-1.7-.8-1.7-1.3h.8zm1.7-1.4c.2-.2.3-.4.3-1.2 0-.5-.1-.8-.3-1-.2-.2-.5-.4-.9-.4-1 0-1.1 1-1.1 1.5 0 .6.2 1.4 1.1 1.4.5.1.8 0 .9-.3zm-77.7 4.9h.8v5.7h-.8v-.6c-.1.1-.2.3-.4.4-.3.2-.7.3-1 .3-.5 0-1.7-.3-1.7-2 0-1.5.9-2.2 1.8-2.2s1.2.5 1.2.7v-2.3zm-.3 2.6c-.2-.2-.5-.4-.9-.4-1.1 0-1.1 1.3-1.1 1.6 0 .7.2 1.5 1.1 1.5 1.2 0 1.2-1.3 1.2-1.6 0-.6-.1-.9-.3-1.1zm2.8 1.3c0 .8.3 1.4 1.2 1.4.5 0 .9-.3.9-.8h.8c0 .2-.1.5-.3.8-.2.2-.6.5-1.4.5-1.3 0-1.9-.8-1.9-2.1 0-.8.2-1.4.8-1.9.4-.3.9-.3 1.1-.3 1.8 0 1.8 1.6 1.7 2.2H88zm2.2-.6c0-.4-.1-1.2-1-1.2-.5 0-1.1.3-1.1 1.2h2.1zm4.1-.3c0-.2-.1-.8-.8-.8-1 0-1 1.2-1 1.5 0 .8.2 1.6 1 1.6.6 0 .9-.5.9-.9h.8c0 .8-.6 1.4-1.6 1.4-.3 0-.9-.1-1.3-.5-.2-.3-.5-.7-.5-1.5 0-1.7 1-2.2 1.8-2.2.3 0 .9.1 1.2.5.3.3.3.7.3.9h-.8zm1.7-3h.9v.8H96v-.8zm0 1.7h.8v4H96v-4zm2.7 2.9c0 .3.2.7.9.7.3 0 .5-.1.7-.3.1-.1.1-.2.1-.4 0-.4-.3-.5-.9-.6-.8-.2-1.5-.4-1.5-1.2 0-.7.6-1.2 1.6-1.2.5 0 1.2.1 1.4.6.1.2.1.4.1.6h-.8c0-.6-.5-.7-.8-.7-.1 0-.8 0-.8.6 0 .4.4.5.6.5 1.1.3 1.4.3 1.6.6.2.2.3.5.3.7 0 .4-.2.8-.5 1-.4.2-.8.3-1.2.3-.8 0-1.6-.3-1.6-1.3h.8zm3.5-4.6h.9v.8h-.9v-.8zm.1 1.7h.8v4h-.8v-4zm3.9-.1c1.6 0 2 1.3 2 2.1 0 1.2-.7 2.2-2 2.2s-2-.9-2-2.1c0-1 .5-2.2 2-2.2zm0 3.7c.6 0 1.2-.4 1.2-1.6 0-1-.5-1.5-1.2-1.5-.5 0-1.3.3-1.3 1.6.1.8.4 1.5 1.3 1.5zm3.2-3.1v-.5h.8v.6c.1-.2.4-.7 1.3-.7.4 0 1.5.1 1.5 1.4v2.7h-.8v-2.6c0-.3 0-.5-.2-.7-.2-.2-.5-.3-.7-.3-.5 0-1 .4-1 1.2v2.3h-.8v-3.4zm5.3 2.4c0 .3.2.7.9.7.3 0 .5-.1.7-.3.1-.1.1-.2.1-.4 0-.4-.3-.5-.9-.6-.8-.2-1.5-.4-1.5-1.2 0-.7.6-1.2 1.6-1.2.5 0 1.2.1 1.4.6.1.2.1.4.1.6h-.8c0-.6-.5-.7-.8-.7-.1 0-.8 0-.8.6 0 .4.4.5.6.5 1.1.3 1.4.3 1.6.6.2.2.3.5.3.7 0 .4-.2.8-.5 1-.4.2-.8.3-1.2.3-.8 0-1.6-.3-1.6-1.3h.8zm-30.5 27.8V137H86v7.2h2.7v1.4h-4.5zm5.2-4.3c0-2.3 0-4.5 3-4.5s3 2.2 3 4.5 0 4.5-3 4.5-3-2.2-3-4.5zm4.1 0c0-2.2-.1-3.2-1.2-3.2-1 0-1.2 1-1.2 3.2s.1 3.2 1.2 3.2c1.1 0 1.2-1 1.2-3.2zm7.3-1.7c0-.8-.1-1.5-1.1-1.5-1.1 0-1.1 1.5-1.1 3.2 0 2.7.3 3.2 1.3 3.2.3 0 .6-.1.9-.2v-1.9h-1v-1.3h2.8v4.4c-.5.1-1.7.3-2.4.3-3 0-3.4-1.3-3.4-4.5 0-2.2.1-4.4 3.1-4.4 1.8 0 2.9 1 2.8 2.8h-1.9zm3.3 6V137h1.8v8.7h-1.8zm3.3-4.3c0-2.3 0-4.5 3-4.5 1.8 0 2.6 1 2.5 2.9h-1.8c0-1.2-.2-1.6-.7-1.6-1 0-1.2 1-1.2 3.2s.1 3.2 1.2 3.2c.8 0 .8-1.1.8-1.8h1.8c0 2.3-.9 3.1-2.6 3.1-3 0-3-2.2-3-4.5zm6.1 4.3l2.4-8.7h2.4l2.4 8.7h-1.9l-.5-1.9h-2.5l-.5 1.9h-1.8zm3.5-7l-.9 3.7h1.7l-.8-3.7zm4.5 7V137h1.8v7.2h2.7v1.4h-4.5zm-36.8 7.9c0 .4.1 1.1 1.4 1.1 1.2 0 1.4-.7 1.4-1 0-.6-.5-.8-1.3-1-.9-.2-1.3-.3-1.6-.5-.5-.3-.6-.8-.6-1.1 0-1.2 1.1-1.7 2.2-1.7.4 0 1.2.1 1.6.6.3.4.3.7.4 1h-.8c0-.7-.6-.9-1.2-.9-.8 0-1.3.4-1.3.9s.3.7 1 .9c1.4.4 1.5.4 1.9.6.5.4.6.9.6 1.2 0 1-.8 1.8-2.3 1.8-.4 0-1.3-.1-1.8-.7-.3-.4-.3-.9-.3-1.2h.7zm4.7-4.1h.7v3.4l1.5-1.6h1l-1.7 1.7 1.8 2.3h-1l-1.6-2.2v2.2h-.7v-5.8zm4 .1h.9v.8h-.9v-.8zm0 1.7h.8v4h-.8v-4zm2.3-1.7h.8v5.8h-.8v-5.8zm2.2 0h.8v5.8h-.8v-5.8zm2.7 3.9c0 .8.3 1.4 1.2 1.4.5 0 .9-.3.9-.8h.8c0 .2-.1.5-.3.8-.2.2-.6.5-1.4.5-1.3 0-1.9-.8-1.9-2.1 0-.8.2-1.4.8-1.9.4-.3.9-.3 1.1-.3 1.8 0 1.8 1.6 1.7 2.2h-2.9zm2.1-.6c0-.4-.1-1.2-1-1.2-.5 0-1.1.3-1.1 1.2h2.1zm4.6-3.3h.8v5.7h-.8v-.6c-.1.1-.2.3-.4.4-.3.2-.7.3-1 .3-.5 0-1.7-.3-1.7-2 0-1.5.9-2.2 1.8-2.2s1.2.5 1.2.7v-2.3zm-.2 2.5c-.2-.2-.5-.4-.9-.4-1.1 0-1.1 1.3-1.1 1.6 0 .7.2 1.5 1.1 1.5 1.2 0 1.2-1.3 1.2-1.6 0-.5-.2-.8-.3-1.1zm7 3.2c-.1-.2-.1-.4-.1-.6-.4.7-.9.7-1.2.7-.9 0-1.4-.5-1.4-1.2 0-.3.1-.8.7-1.2.4-.2 1.1-.3 1.4-.3h.5c0-.5 0-.7-.1-.9-.2-.2-.5-.3-.7-.3-.8 0-.8.5-.8.7h-.8c0-.2 0-.5.3-.8.3-.3.9-.4 1.3-.4.6 0 1.2.2 1.4.6.1.2.1.4.1.6v1.9c0 .1 0 .6.1 1h-.7zm-.5-2c-.3 0-1.4 0-1.4.8 0 .3.2.7.8.7.4 0 .7-.2.9-.4.2-.3.2-.5.2-1.1-.2.1-.3 0-.5 0zm1.9-2h.7v-.8l.7-.2v1.1h.9v.6h-.8v2.4c0 .2 0 .5.5.5h.4v.6h-.6c-.7 0-1-.2-1-.9v-2.7h-.7v-.6zm5.5.5v-.5h.8v.6c.4-.6.9-.7 1.3-.7.9 0 1.2.5 1.3.8.1-.2.5-.8 1.4-.8.6 0 1.5.2 1.5 1.4v2.7h-.8v-2.6c0-.4-.1-.5-.1-.6-.1-.2-.4-.4-.8-.4-.5 0-.8.3-.9.4-.2.2-.2.7-.2.9v2.2h-.8v-2.7c0-.5-.3-.9-.9-.9-.5 0-.8.3-.9.4-.2.2-.2.6-.2.8v2.3h-.7v-3.3zm10 3.5c-.1-.2-.1-.4-.1-.6-.4.7-.9.7-1.2.7-.9 0-1.4-.5-1.4-1.2 0-.3.1-.8.7-1.2.4-.2 1.1-.3 1.4-.3h.5c0-.5 0-.7-.1-.9-.2-.2-.5-.3-.7-.3-.8 0-.8.5-.8.7h-.8c0-.2 0-.5.3-.8.3-.3.9-.4 1.3-.4.6 0 1.2.2 1.4.6.1.2.1.4.1.6v1.9c0 .1 0 .6.1 1h-.7zm-.5-2c-.3 0-1.4 0-1.4.8 0 .3.2.7.8.7.4 0 .7-.2.9-.4.2-.3.2-.5.2-1.1-.2.1-.3 0-.5 0zm1.9-2h.7v-.8l.7-.2v1.1h.9v.6h-.9v2.4c0 .2 0 .5.5.5h.4v.6h-.6c-.7 0-1-.2-1-.9v-2.7h-.7v-.6zm3.3-1.7h.8v2.3c.2-.4.7-.7 1.3-.7.4 0 1 .2 1.3.6.1.2.1.4.1.9v2.5h-.8v-2.4c0-.4 0-1.1-.9-1.1-.6 0-.8.3-.9.5-.1.2-.1.6-.1.8v2.1h-.8v-5.5zm8.8 1.6c1.6 0 2 1.3 2 2.1 0 1.2-.7 2.2-2 2.2s-2-.9-2-2.1c0-1 .4-2.2 2-2.2zm0 3.7c.6 0 1.2-.4 1.2-1.6 0-1-.5-1.5-1.2-1.5-.5 0-1.3.3-1.3 1.6.1.7.4 1.5 1.3 1.5zm3.2-2.8v-.8h.8v.8c.1-.6.6-.7 1-.8h.5v.7h-.3c-.9 0-1.1.5-1.1 1.2v2.1h-.8V152zm5.7 2c0 .3.2.7.9.7.3 0 .5-.1.7-.3.1-.1.1-.2.1-.4 0-.4-.3-.5-.9-.6-.8-.2-1.5-.4-1.5-1.2 0-.7.6-1.2 1.6-1.2.5 0 1.2.1 1.4.6.1.2.1.4.1.6h-.8c0-.6-.5-.7-.8-.7-.1 0-.8 0-.8.6 0 .4.4.5.6.5 1.1.3 1.4.3 1.6.6.2.2.3.5.3.7 0 .4-.2.8-.5 1-.4.2-.8.3-1.2.3-.8 0-1.6-.3-1.6-1.3h.8zm5.9-1.5c0-.2-.1-.8-.8-.8-1 0-1 1.2-1 1.5 0 .8.2 1.6 1 1.6.6 0 .9-.5.9-.9h.8c0 .8-.6 1.4-1.6 1.4-.3 0-.9-.1-1.3-.5-.2-.3-.5-.7-.5-1.5 0-1.7 1-2.2 1.8-2.2.3 0 .9.1 1.2.5.3.3.3.7.3.9h-.8zm1.6-3h.9v.8h-.9v-.8zm.1 1.7h.8v4h-.8v-4zm2.7 2.2c0 .8.3 1.4 1.2 1.4.5 0 .9-.3.9-.8h.8c0 .2-.1.5-.3.8-.2.2-.6.5-1.4.5-1.3 0-1.9-.8-1.9-2.1 0-.8.2-1.4.8-1.9.4-.3.9-.3 1.1-.3 1.8 0 1.8 1.6 1.7 2.2h-2.9zm2.1-.6c0-.4-.1-1.2-1-1.2-.5 0-1.1.3-1.1 1.2h2.1zm1.9-1.1v-.5h.8v.6c.1-.2.4-.7 1.3-.7.4 0 1.5.1 1.5 1.4v2.7h-.8v-2.6c0-.3 0-.5-.2-.7-.2-.2-.5-.3-.7-.3-.5 0-1 .4-1 1.2v2.3h-.8v-3.4zm7.1.8c0-.2-.1-.8-.8-.8-1 0-1 1.2-1 1.5 0 .8.2 1.6 1 1.6.6 0 .9-.5.9-.9h.8c0 .8-.6 1.4-1.6 1.4-.3 0-.9-.1-1.3-.5-.2-.3-.5-.7-.5-1.5 0-1.7 1-2.2 1.8-2.2.3 0 .9.1 1.2.5.3.3.3.7.3.9h-.8zm2.2.9c0 .8.3 1.4 1.2 1.4.5 0 .9-.3.9-.8h.8c0 .2-.1.5-.3.8-.2.2-.6.5-1.4.5-1.3 0-1.9-.8-1.9-2.1 0-.8.2-1.4.8-1.9.4-.3.9-.3 1.1-.3 1.8 0 1.8 1.6 1.7 2.2H177zm2.1-.6c0-.4-.1-1.2-1-1.2-.5 0-1.1.3-1.1 1.2h2.1zm-92.6 12c-.1-.2-.1-.4-.1-.6-.4.7-.9.7-1.2.7-.9 0-1.4-.5-1.4-1.2 0-.3.1-.8.7-1.2.4-.2 1.1-.3 1.4-.3h.5c0-.5 0-.7-.1-.9-.2-.2-.5-.3-.7-.3-.8 0-.8.5-.8.7H84c0-.2 0-.5.3-.8.3-.3.9-.4 1.3-.4.6 0 1.2.2 1.4.6.1.2.1.4.1.6v1.9c0 .1 0 .6.1 1h-.7zm-.5-1.9c-.3 0-1.4 0-1.4.8 0 .3.2.7.8.7.4 0 .7-.2.9-.4.2-.3.2-.5.2-1.1H86zm2.6-1.6v-.5h.8v.6c.1-.2.4-.7 1.3-.7.4 0 1.5.1 1.5 1.4v2.7h-.8v-2.6c0-.3 0-.5-.2-.7-.2-.2-.5-.3-.7-.3-.5 0-1 .4-1 1.2v2.3h-.8v-3.4zm7.6-2.2h.8v5.7h-.8v-.6c-.1.1-.2.3-.4.4-.3.2-.7.3-1 .3-.5 0-1.7-.3-1.7-2 0-1.5.9-2.2 1.8-2.2s1.2.5 1.2.7v-2.3zm-.3 2.5c-.2-.2-.5-.4-.9-.4-1.1 0-1.1 1.3-1.1 1.6 0 .7.2 1.5 1.1 1.5 1.2 0 1.2-1.3 1.2-1.6 0-.5-.1-.8-.3-1.1zm5.1 2c0 .3.2.7.9.7.3 0 .5-.1.7-.3.1-.1.1-.2.1-.4 0-.4-.3-.5-.9-.6-.8-.2-1.5-.4-1.5-1.2 0-.7.6-1.2 1.6-1.2.5 0 1.2.1 1.4.6.1.2.1.4.1.6h-.8c0-.6-.5-.7-.8-.7-.1 0-.8 0-.8.6 0 .4.4.5.6.5 1.1.3 1.4.3 1.6.6.2.2.3.5.3.7 0 .4-.2.8-.5 1-.4.2-.8.3-1.2.3-.8 0-1.6-.3-1.6-1.3h.8zm4-.6c0 .8.3 1.4 1.2 1.4.5 0 .9-.3.9-.8h.8c0 .2-.1.5-.3.8-.2.2-.6.5-1.4.5-1.3 0-1.9-.8-1.9-2.1 0-.8.2-1.4.8-1.9.4-.3.9-.3 1.1-.3 1.8 0 1.8 1.6 1.7 2.2H105zm2.1-.6c0-.4-.1-1.2-1-1.2-.5 0-1.1.3-1.1 1.2h2.1zm5.4-1.6v5.6h-.8v-2c-.1.1-.1.2-.3.3-.3.2-.7.3-.9.3-1 0-1.8-.7-1.8-2.2 0-1.5.8-2.1 1.7-2.1.8 0 1.2.4 1.4.7v-.7h.7zm-1.9.5c-1.1 0-1.1 1.1-1.1 1.4 0 .3 0 .9.3 1.3.2.3.5.4.9.4.9 0 1.1-.7 1.1-1.5 0-.3 0-1.6-1.2-1.6zm4-.5v2.6c0 .4.1.9.9.9.4 0 .7-.1.9-.4.2-.2.2-.6.2-.8v-2.3h.8v4.1h-.8v-.7c-.1.3-.4.7-1.3.7-1 0-1.5-.6-1.5-1.4v-2.7h.8zm4.6 2.2c0 .8.3 1.4 1.2 1.4.5 0 .9-.3.9-.8h.8c0 .2-.1.5-.3.8-.2.2-.6.5-1.4.5-1.3 0-1.9-.8-1.9-2.1 0-.8.2-1.4.8-1.9.4-.3.9-.3 1.1-.3 1.8 0 1.8 1.6 1.7 2.2h-2.9zm2.1-.6c0-.4-.1-1.2-1-1.2-.5 0-1.1.3-1.1 1.2h2.1zm1.9-1.1v-.5h.8v.6c.1-.2.4-.7 1.3-.7.4 0 1.5.1 1.5 1.4v2.7h-.8v-2.6c0-.3 0-.5-.2-.7-.2-.2-.5-.3-.7-.3-.5 0-1 .4-1 1.2v2.3h-.8v-3.4zm7.2.8c0-.2-.1-.8-.8-.8-1 0-1 1.2-1 1.5 0 .8.2 1.6 1 1.6.6 0 .9-.5.9-.9h.8c0 .8-.6 1.4-1.6 1.4-.3 0-.9-.1-1.3-.5-.2-.3-.5-.7-.5-1.5 0-1.7 1-2.2 1.8-2.2.3 0 .9.1 1.2.5.3.3.3.7.3.9h-.8zm1.6-3h.9v.8h-.9v-.8zm.1 1.7h.8v4h-.8v-4zm2.3.5v-.5h.8v.6c.1-.2.4-.7 1.3-.7.4 0 1.5.1 1.5 1.4v2.7h-.8v-2.6c0-.3 0-.5-.2-.7-.2-.2-.5-.3-.7-.3-.5 0-1 .4-1 1.2v2.3h-.8v-3.4zm5.5 3.8c0 .4.2.8.9.8 1 0 1.1-.8 1.1-1.8-.3.7-1.1.7-1.3.7-.4 0-.9-.1-1.2-.5-.3-.4-.5-.9-.5-1.5 0-1.4.8-2 1.8-2 .8 0 1.1.4 1.3.6v-.6h.7v3.2c0 1 0 1.4-.2 1.7-.3.6-1.1.7-1.7.7-1.6 0-1.7-.8-1.7-1.3h.8zm1.8-1.3c.2-.2.3-.4.3-1.2 0-.5-.1-.8-.3-1-.2-.2-.5-.4-.9-.4-1 0-1.1 1-1.1 1.5 0 .6.2 1.4 1.1 1.4.4.1.7-.1.9-.3zm4.6-4.7h.9v.8h-.9v-.8zm0 1.7h.8v4h-.8v-4zm5-1.7h.8v5.7h-.8v-.6c-.1.1-.2.3-.4.4-.3.2-.7.3-1 .3-.5 0-1.7-.3-1.7-2 0-1.5.9-2.2 1.8-2.2s1.2.5 1.2.7v-2.3zm-.2 2.5c-.2-.2-.5-.4-.9-.4-1.1 0-1.1 1.3-1.1 1.6 0 .7.2 1.5 1.1 1.5 1.2 0 1.2-1.3 1.2-1.6 0-.5-.2-.8-.3-1.1zm2.8 1.4c0 .8.3 1.4 1.2 1.4.5 0 .9-.3.9-.8h.8c0 .2-.1.5-.3.8-.2.2-.6.5-1.4.5-1.3 0-1.9-.8-1.9-2.1 0-.8.2-1.4.8-1.9.4-.3.9-.3 1.1-.3 1.8 0 1.8 1.6 1.7 2.2h-2.9zm2.1-.6c0-.4-.1-1.2-1-1.2-.5 0-1.1.3-1.1 1.2h2.1zm4.3 2.4c-.1-.2-.1-.4-.1-.6-.4.7-.9.7-1.2.7-.9 0-1.4-.5-1.4-1.2 0-.3.1-.8.7-1.2.4-.2 1.1-.3 1.4-.3h.5c0-.5 0-.7-.1-.9-.2-.2-.5-.3-.7-.3-.8 0-.8.5-.8.7h-.8c0-.2 0-.5.3-.8.3-.3.9-.4 1.3-.4.6 0 1.2.2 1.4.6.1.2.1.4.1.6v1.9c0 .1 0 .6.1 1h-.7zm-.5-1.9c-.3 0-1.4 0-1.4.8 0 .3.2.7.8.7.4 0 .7-.2.9-.4.2-.3.2-.5.2-1.1h-.5zm3 .7c0 .3.2.7.9.7.3 0 .5-.1.7-.3.1-.1.1-.2.1-.4 0-.4-.3-.5-.9-.6-.8-.2-1.5-.4-1.5-1.2 0-.7.6-1.2 1.6-1.2.5 0 1.2.1 1.4.6.1.2.1.4.1.6h-.8c0-.6-.5-.7-.8-.7-.1 0-.8 0-.8.6 0 .4.4.5.6.5 1.1.3 1.4.3 1.6.6.2.2.3.5.3.7 0 .4-.2.8-.5 1-.4.2-.8.3-1.2.3-.8 0-1.6-.3-1.6-1.3h.8z" class="st3"/>
  <g id="l-logic">
    <circle cx="50.8" cy="151.1" r="25.1" class="st0"/>
    <path id="logical" d="M39.7 143.9h1.4v10.7h3.2v2H36v-.4.8-1.1h2.7v-7.7h-2.9v-1.8h3.7l.2-2.5zm.2.4h-2.6v1.2h.8H37h1.1v8.1h-2.8v1.3h8.8v-1.3 2.4h-2.6v-11.3h-1.6zm10.6 2.3h1.2v4.2h3.1v1.8h-3v3.3H50v-3.4h-4.3v-1.6 1.1-.1h3.6v-4.7h1l.2-.6zm.2.3H50v4.4h-4.1v1.4h3.9v3.4h1.4V154h4.1v-2H52v-4.6h-.4l-.9-.5zm10.5-3h1.5v10.7h2.5v2h-.5.3-7.5v-.4.8-1.1h2.8v-7.7h-2.6v-1.8H61l.2-2.5zm.2.4h-3.5v1.2h.3-.2 1.6v8.1H57h1-.1v1.3h7.8v-1.3 2.4h-2.6v-11.3h-1.7z" class="st3"/>
  </g>
  <g id="l-realistic">
    <circle cx="49.1" cy="271.9" r="25.1" class="st0"/>
    <path d="M48.9 286h12.3c2.2 0 4-1.8 4-4v-18c0-2.2-1.8-4-4-4h-8.7c-.8 0-1.5.2-2 .5-1 .5-2.3.5-3.3 0-.5-.3-1.2-.5-2-.5h-8.7c-2.2 0-4 1.8-4 4v18c0 2.2 1.8 4 4 4h12.4z" class="st3"/>
    <path d="M62.9 265.1v17.2c0 .7-.6 1.2-1.3 1.2-2.4-.1-7.6-.3-10.2.1-.8.1-1.6-.5-1.6-1.3v-17.2s.4-1.4 2.8-1.4h8.8c.9 0 1.5.6 1.5 1.4zm-27.6.1v17.2c0 .7.6 1.2 1.3 1.2 2.4-.1 7.6-.3 10.2.1.8.1 1.6-.5 1.6-1.3v-17.2s-.4-1.4-2.8-1.4h-8.8c-.8-.1-1.5.5-1.5 1.4z" class="st11"/>
    <path d="M37.1 270.1h9.5m-9.6 2.2h9.5m-9.6 2.2h9.5m-9.6 2.2h9.5m-9.6 2.2h9.5m5.7-8.8h9.4m-9.5 2.2h9.4m-9.5 2.2h9.5m-9.6 2.2h9.5m-9.6 2.2H61" class="st12"/>
  </g>
  <path d="M84.5 260.3h-1.8v-8.7H86c1.2 0 2 .8 2 2.3 0 1.1-.4 1.9-1.6 2.1.4 0 1.6.1 1.6 1.7 0 .6 0 2.2.2 2.5h-1.8c-.2-.5-.2-1.1-.2-1.7 0-1 .1-1.9-1.3-1.9h-.5v3.7zm0-4.9h.8c.7 0 .9-.7.9-1.3 0-.8-.3-1.1-.9-1.1h-.8v2.4zm4.9 4.9v-8.7h4.7v1.3h-2.9v2.1h2.7v1.3h-2.7v2.5h3v1.3h-4.8zm5.3 0l2.4-8.7h2.4l2.4 8.7H100l-.5-1.9H97l-.5 1.9h-1.8zm3.5-7l-.9 3.7H99l-.8-3.7zm4.5 7v-8.7h1.8v7.2h2.7v1.4h-4.5zm5.3 0v-8.7h1.8v8.7H108zm5.7.2c-2.2 0-2.7-1.3-2.6-2.8h1.8c0 .8 0 1.5 1 1.5.6 0 .9-.4.9-1 0-1.6-3.6-1.7-3.6-4.2 0-1.4.6-2.4 2.9-2.4 1.8 0 2.6.8 2.5 2.6h-1.8c0-.6-.1-1.3-.8-1.3-.6 0-.9.3-.9.9 0 1.6 3.6 1.5 3.6 4.2 0 2.2-1.6 2.5-3 2.5zm9.5-8.9v1.4h-2v7.2h-1.8V253h-2v-1.4h5.8zm.8 8.7v-8.7h1.8v8.7H124zm3.3-4.3c0-2.3 0-4.5 3-4.5 1.8 0 2.6 1 2.5 2.9H131c0-1.2-.2-1.6-.7-1.6-1 0-1.2 1-1.2 3.2s.1 3.2 1.2 3.2c.8 0 .8-1.1.8-1.8h1.8c0 2.3-.9 3.1-2.6 3.1-3 0-3-2.3-3-4.5zm-44.7 8.1h1.9c.7 0 1.2 0 1.6.5.3.3.4.7.4 1.1 0 .4-.1.8-.5 1.1-.3.3-.7.5-1.7.5h-.9v2.6h-.8v-5.8zm.8 2.6h1c.5 0 1.3 0 1.3-1 0-.9-.8-.9-1.2-.9h-1.1v1.9zm4 0v-.8h.8v.8c.1-.6.6-.7 1-.8h.5v.7h-.3c-.9 0-1.1.5-1.1 1.2v2.1h-.8v-3.2zm3.5 1.3c0 .8.3 1.4 1.2 1.4.5 0 .9-.3.9-.8h.8c0 .2-.1.5-.3.8-.2.2-.6.5-1.4.5-1.3 0-1.9-.8-1.9-2.1 0-.8.2-1.4.8-1.9.4-.3.9-.3 1.1-.3 1.8 0 1.8 1.6 1.7 2.2h-2.9zm2.2-.5c0-.4-.1-1.2-1-1.2-.5 0-1.1.3-1.1 1.2h2.1zm3.8-2.8h-.4c-.6 0-.6.3-.6.6v.6h.9v.5h-.9v3.5h-.7v-3.5h-.8v-.5h.8v-.5c0-.6 0-.8.2-1 .2-.3.5-.4 1-.4.2 0 .5 0 .6.1v.6zm1.2 3.3c0 .8.3 1.4 1.2 1.4.5 0 .9-.3.9-.8h.8c0 .2-.1.5-.3.8-.2.2-.6.5-1.4.5-1.3 0-1.9-.8-1.9-2.1 0-.8.2-1.4.8-1.9.4-.3.9-.3 1.1-.3 1.8 0 1.8 1.6 1.7 2.2h-2.9zm2.1-.5c0-.4-.1-1.2-1-1.2-.5 0-1.1.3-1.1 1.2h2.1zm1.9-.8v-.8h.8v.8c.1-.6.6-.7 1-.8h.5v.7h-.3c-.9 0-1.1.5-1.1 1.2v2.1h-.8v-3.2zm3.6 2c0 .3.2.7.9.7.3 0 .5-.1.7-.3.1-.1.1-.2.1-.4 0-.4-.3-.5-.9-.6-.8-.2-1.5-.4-1.5-1.2 0-.7.6-1.2 1.6-1.2.5 0 1.2.1 1.4.6.1.2.1.4.1.6h-.8c0-.6-.5-.7-.8-.7-.1 0-.8 0-.8.6 0 .4.4.5.6.5 1.1.3 1.4.3 1.6.6.2.2.3.5.3.7 0 .4-.2.8-.5 1-.4.2-.8.3-1.2.3-.8 0-1.6-.3-1.6-1.3h.8zm5.2-2.8h.7v-.9l.7-.2v1.1h.9v.6h-.9v2.4c0 .2 0 .5.5.5h.4v.6h-.6c-.7 0-1-.2-1-.9v-2.7h-.7v-.5zm5-.1c1.6 0 2 1.3 2 2.1 0 1.2-.7 2.2-2 2.2s-2-.9-2-2.1c0-1 .5-2.2 2-2.2zm0 3.7c.6 0 1.2-.4 1.2-1.6 0-1-.5-1.5-1.2-1.5-.5 0-1.3.3-1.3 1.6.1.7.4 1.5 1.3 1.5zm5.5-2.8v-.8h.8v.8c.1-.6.6-.7 1-.8h.5v.7h-.3c-.9 0-1.1.5-1.1 1.2v2.1h-.8v-3.2zm3.5 1.3c0 .8.3 1.4 1.2 1.4.5 0 .9-.3.9-.8h.8c0 .2-.1.5-.3.8-.2.2-.6.5-1.4.5-1.3 0-1.9-.8-1.9-2.1 0-.8.2-1.4.8-1.9.4-.3.9-.3 1.1-.3 1.8 0 1.8 1.6 1.7 2.2h-2.9zm2.1-.5c0-.4-.1-1.2-1-1.2-.5 0-1.1.3-1.1 1.2h2.1zm4.3 2.4c-.1-.2-.1-.4-.1-.6-.4.7-.9.7-1.2.7-.9 0-1.4-.5-1.4-1.2 0-.3.1-.8.7-1.2.4-.2 1.1-.3 1.4-.3h.5c0-.5 0-.7-.1-.9-.2-.2-.5-.3-.7-.3-.8 0-.8.5-.8.7h-.8c0-.2 0-.5.3-.8.3-.3.9-.4 1.3-.4.6 0 1.2.2 1.4.6.1.2.1.4.1.6v1.9c0 .1 0 .6.1 1h-.7zm-.5-2c-.3 0-1.4 0-1.4.8 0 .3.2.7.8.7.4 0 .7-.2.9-.4.2-.3.2-.5.2-1.1h-.5zm5.3-3.8h.8v5.7h-.8v-.6c-.1.1-.2.3-.4.4-.3.2-.7.3-1 .3-.5 0-1.7-.3-1.7-2 0-1.5.9-2.2 1.8-2.2s1.2.5 1.2.7v-2.3zm-.3 2.6c-.2-.2-.5-.4-.9-.4-1.1 0-1.1 1.3-1.1 1.6 0 .7.2 1.5 1.1 1.5 1.2 0 1.2-1.3 1.2-1.6 0-.5-.1-.9-.3-1.1zm4.7 0v-.8h.8v.8c.1-.6.6-.7 1-.8h.5v.7h-.3c-.9 0-1.1.5-1.1 1.2v2.1h-.8v-3.2zm3.5 1.3c0 .8.3 1.4 1.2 1.4.5 0 .9-.3.9-.8h.8c0 .2-.1.5-.3.8-.2.2-.6.5-1.4.5-1.3 0-1.9-.8-1.9-2.1 0-.8.2-1.4.8-1.9.4-.3.9-.3 1.1-.3 1.8 0 1.8 1.6 1.7 2.2H144zm2.1-.5c0-.4-.1-1.2-1-1.2-.5 0-1.1.3-1.1 1.2h2.1zm4.3 2.4c-.1-.2-.1-.4-.1-.6-.4.7-.9.7-1.2.7-.9 0-1.4-.5-1.4-1.2 0-.3.1-.8.7-1.2.4-.2 1.1-.3 1.4-.3h.5c0-.5 0-.7-.1-.9-.2-.2-.5-.3-.7-.3-.8 0-.8.5-.8.7h-.7c0-.2 0-.5.3-.8.3-.3.9-.4 1.3-.4.6 0 1.2.2 1.4.6.1.2.1.4.1.6v1.9c0 .1 0 .6.1 1h-.8zm-.5-2c-.3 0-1.4 0-1.4.8 0 .3.2.7.8.7.4 0 .7-.2.9-.4.2-.3.2-.5.2-1.1h-.5zm2.6-3.8h.8v5.8h-.8v-5.8zm2.1.1h.9v.8h-.9v-.8zm.1 1.7h.8v4h-.8v-4zm2.6 2.8c0 .3.2.7.9.7.3 0 .5-.1.7-.3.1-.1.1-.2.1-.4 0-.4-.3-.5-.9-.6-.8-.2-1.5-.4-1.5-1.2 0-.7.6-1.2 1.6-1.2.5 0 1.2.1 1.4.6.1.2.1.4.1.6h-.7c0-.6-.5-.7-.8-.7-.1 0-.8 0-.8.6 0 .4.4.5.6.5 1.1.3 1.4.3 1.6.6.2.2.3.5.3.7 0 .4-.2.8-.5 1-.4.2-.8.3-1.2.3-.8 0-1.6-.3-1.6-1.3h.7zm3-2.8h.7v-.9l.7-.2v1.1h.9v.6h-.9v2.4c0 .2 0 .5.5.5h.4v.6h-.6c-.7 0-1-.2-1-.9v-2.7h-.7v-.5zm3.2-1.7h.9v.8h-.9v-.8zm.1 1.7h.8v4h-.8v-4zm4.5 1.3c0-.2-.1-.8-.8-.8-1 0-1 1.2-1 1.5 0 .8.2 1.6 1 1.6.6 0 .9-.5.9-.9h.8c0 .8-.6 1.4-1.6 1.4-.3 0-.9-.1-1.3-.5-.2-.3-.5-.7-.5-1.5 0-1.7 1-2.2 1.8-2.2.3 0 .9.1 1.2.5.3.3.3.7.3.9h-.8zm-85 11.1c0 .3.2.7.9.7.3 0 .5-.1.7-.3.1-.1.1-.2.1-.4 0-.4-.3-.5-.9-.6-.8-.2-1.5-.4-1.5-1.2 0-.7.6-1.2 1.6-1.2.5 0 1.2.1 1.4.6.1.2.1.4.1.6h-.8c0-.6-.5-.7-.8-.7-.1 0-.8 0-.8.6 0 .4.4.5.6.5 1.1.3 1.4.3 1.6.6.2.2.3.5.3.7 0 .4-.2.8-.5 1-.4.2-.8.3-1.2.3-.8 0-1.6-.3-1.6-1.3h.8zm2.9-2.8h.7v-.8l.7-.2v1.1h.9v.6h-.9v2.4c0 .2 0 .5.5.5h.4v.6h-.6c-.7 0-1-.2-1-.9V276H86v-.5zm5.1-.1c1.6 0 2 1.3 2 2.1 0 1.2-.7 2.2-2 2.2s-2-.9-2-2.1c-.1-1 .4-2.2 2-2.2zm-.1 3.7c.6 0 1.2-.4 1.2-1.6 0-1-.5-1.5-1.2-1.5-.5 0-1.3.3-1.3 1.6.1.7.4 1.5 1.3 1.5zm3.2-2.8v-.8h.8v.8c.1-.6.6-.7 1-.8h.5v.7h-.3c-.9 0-1.1.5-1.1 1.2v2.1h-.8v-3.2zm3-2.5h.9v.8h-.9v-.8zm.1 1.7h.8v4h-.8v-4zm2.7 2.1c0 .8.3 1.4 1.2 1.4.5 0 .9-.3.9-.8h.8c0 .2-.1.5-.3.8-.2.2-.6.5-1.4.5-1.3 0-1.9-.8-1.9-2.1 0-.8.2-1.4.8-1.9.4-.3.9-.3 1.1-.3 1.8 0 1.8 1.6 1.7 2.2H100zm2.1-.5c0-.4-.1-1.2-1-1.2-.5 0-1.1.3-1.1 1.2h2.1zm2.3 1.2c0 .3.2.7.9.7.3 0 .5-.1.7-.3.1-.1.1-.2.1-.4 0-.4-.3-.5-.9-.6-.8-.2-1.5-.4-1.5-1.2 0-.7.6-1.2 1.6-1.2.5 0 1.2.1 1.4.6.1.2.1.4.1.6h-.8c0-.6-.5-.7-.8-.7-.1 0-.8 0-.8.6 0 .4.4.5.6.5 1.1.3 1.4.3 1.6.6.2.2.3.5.3.7 0 .4-.2.8-.5 1-.4.2-.8.3-1.2.3-.8 0-1.6-.3-1.6-1.3h.8zm8.3 1.2c-.1-.2-.1-.4-.1-.6-.4.7-.9.7-1.2.7-.9 0-1.4-.5-1.4-1.2 0-.3.1-.8.7-1.2.4-.2 1.1-.3 1.4-.3h.5c0-.5 0-.7-.1-.9-.2-.2-.5-.3-.7-.3-.8 0-.8.5-.8.7h-.8c0-.2 0-.5.3-.8.3-.3.9-.4 1.3-.4.6 0 1.2.2 1.4.6.1.2.1.4.1.6v1.9c0 .1 0 .6.1 1h-.7zm-.6-2c-.3 0-1.4 0-1.4.8 0 .3.2.7.8.7.4 0 .7-.2.9-.4.2-.3.2-.5.2-1.1h-.5zm2.6-1.5v-.5h.8v.6c.1-.2.4-.7 1.3-.7.4 0 1.5.1 1.5 1.4v2.7h-.8V277c0-.3 0-.5-.2-.7-.2-.2-.5-.3-.7-.3-.5 0-1 .4-1 1.2v2.3h-.8V276zm7.6-2.3h.8v5.7h-.8v-.6c-.1.1-.2.3-.4.4-.3.2-.7.3-1 .3-.5 0-1.7-.3-1.7-2 0-1.5.9-2.2 1.8-2.2s1.2.5 1.2.7v-2.3zm-.3 2.6c-.2-.2-.5-.4-.9-.4-1.1 0-1.1 1.3-1.1 1.6 0 .7.2 1.5 1.1 1.5 1.2 0 1.2-1.3 1.2-1.6 0-.5-.1-.9-.3-1.1zm4.9-.8l1 3.2 1-3.2h1l.9 3.2 1-3.2h.8l-1.4 4h-.9l-.9-3.3-1 3.3h-.9l-1.3-4h.7zm6.5.8v-.8h.8v.8c.1-.6.6-.7 1-.8h.5v.7h-.3c-.9 0-1.1.5-1.1 1.2v2.1h-.8v-3.2zm3-2.5h.9v.8h-.9v-.8zm0 1.7h.8v4h-.8v-4zm1.6 0h.7v-.8l.7-.2v1.1h.9v.6h-.9v2.4c0 .2 0 .5.5.5h.4v.6h-.6c-.7 0-1-.2-1-.9V276h-.7v-.5zm3.8 2.1c0 .8.3 1.4 1.2 1.4.5 0 .9-.3.9-.8h.8c0 .2-.1.5-.3.8-.2.2-.6.5-1.4.5-1.3 0-1.9-.8-1.9-2.1 0-.8.2-1.4.8-1.9.4-.3.9-.3 1.1-.3 1.8 0 1.8 1.6 1.7 2.2h-2.9zm2.1-.5c0-.4-.1-1.2-1-1.2-.5 0-1.1.3-1.1 1.2h2.1zm-61.2 8.5v-.5h.8v.6c.1-.2.4-.7 1.3-.7.4 0 1.5.1 1.5 1.4v2.7h-.8v-2.6c0-.3 0-.5-.2-.7-.2-.2-.5-.3-.7-.3-.5 0-1 .4-1 1.2v2.3h-.8v-3.4zm6.6-.6c1.6 0 2 1.3 2 2.1 0 1.2-.7 2.2-2 2.2s-2-.9-2-2.1c-.1-1 .4-2.2 2-2.2zm-.1 3.7c.6 0 1.2-.4 1.2-1.6 0-1-.5-1.5-1.2-1.5-.5 0-1.3.3-1.3 1.6.1.7.5 1.5 1.3 1.5zm3.2-3.1v-.5h.8v.6c.1-.2.4-.7 1.3-.7.4 0 1.5.1 1.5 1.4v2.7h-.8v-2.6c0-.3 0-.5-.2-.7-.2-.2-.5-.3-.7-.3-.5 0-1 .4-1 1.2v2.3h-.8v-3.4zm4.5 1.1h2v.6h-2v-.6zm5.1-2.8h-.4c-.6 0-.6.3-.6.6v.6h.9v.5h-.9v3.5h-.7v-3.5h-.8v-.5h.8v-.5c0-.6 0-.8.2-1 .2-.3.5-.4 1-.4.2 0 .5 0 .6.1v.6zm.6-.5h.9v.8h-.9v-.8zm0 5.7v-4h.7v4h-.7zm4.5-2.7c0-.2-.1-.8-.8-.8-1 0-1 1.2-1 1.5 0 .8.2 1.6 1 1.6.6 0 .9-.5.9-.9h.8c0 .8-.6 1.4-1.6 1.4-.3 0-.9-.1-1.3-.5-.2-.3-.5-.7-.5-1.5 0-1.7 1-2.2 1.8-2.2.3 0 .9.1 1.2.5.3.3.3.7.3.9h-.8zm1.1-1.3h.7v-.8l.7-.2v1.1h.9v.6h-.9v2.4c0 .2 0 .5.5.5h.4v.6h-.6c-.7 0-1-.2-1-.9v-2.7h-.7v-.6zm3.3-1.7h.9v.8h-.9v-.8zm0 1.7h.8v4h-.8v-4zm4-.1c1.6 0 2 1.3 2 2.1 0 1.2-.7 2.2-2 2.2s-2-.9-2-2.1c0-1 .4-2.2 2-2.2zm-.1 3.7c.6 0 1.2-.4 1.2-1.6 0-1-.5-1.5-1.2-1.5-.5 0-1.3.3-1.3 1.6.1.7.5 1.5 1.3 1.5zm3.3-3.1v-.5h.8v.6c.1-.2.4-.7 1.3-.7.4 0 1.5.1 1.5 1.4v2.7h-.8v-2.6c0-.3 0-.5-.2-.7-.2-.2-.5-.3-.7-.3-.5 0-1 .4-1 1.2v2.3h-.8v-3.4z" class="st3"/>
</svg>
