<?xml version="1.0" encoding="utf-8"?>
<!-- Generator: Adobe Illustrator 19.2.1, SVG Export Plug-In . SVG Version: 6.00 Build 0)  -->
<!DOCTYPE svg PUBLIC "-//W3C//DTD SVG 1.1//EN" "http://www.w3.org/Graphics/SVG/1.1/DTD/svg11.dtd">
<svg version="1.1" id="Layer_1" xmlns="http://www.w3.org/2000/svg" xmlns:xlink="http://www.w3.org/1999/xlink" x="0px" y="0px"
	 width="191.7px" height="365.3px" viewBox="0 0 191.7 365.3" style="enable-background:new 0 0 191.7 365.3;" xml:space="preserve"
	>
<style type="text/css">
	.Drop_x0020_Shadow{fill:none;}
	.Outer_x0020_Glow_x0020_5_x0020_pt{fill:none;}
	.Blue_x0020_Neon{fill:none;stroke:#8AACDA;stroke-width:7;stroke-linecap:round;stroke-linejoin:round;}
	.Chrome_x0020_Highlight{fill:url(#SVGID_1_);stroke:#FFFFFF;stroke-width:0.3629;stroke-miterlimit:1;}
	.Jive_GS{fill:#FFDD00;}
	.Alyssa_GS{fill:#A6D0E4;}
	.st0{opacity:0.5;fill:#ECD177;}
	.st1{fill:#ED5A49;}
	.st2{fill:#542337;}
	.st3{fill:#0A3656;}
	.st4{fill:none;stroke:#0A3656;stroke-width:0.556;stroke-linecap:round;stroke-linejoin:round;}
	.st5{fill:#6C869A;}
	.st6{fill:#A9B9C4;}
	.st7{fill:#FFFFFF;}
	.st8{fill:none;stroke:#85CCCB;stroke-width:0.2835;stroke-linecap:round;stroke-linejoin:round;stroke-miterlimit:10;}
	.st9{fill:#FFFFFF;stroke:#85CCCB;stroke-width:0.375;stroke-miterlimit:10;}
	.st10{fill:#0A3656;stroke:#0A3656;stroke-width:9.306000e-02;stroke-miterlimit:10;}
	.st11{fill:#E9F5FC;}
	.st12{fill:none;stroke:#0A3656;stroke-width:0.1296;stroke-linecap:round;stroke-linejoin:round;stroke-miterlimit:10;}
	.st13{opacity:0.5;fill:#337D7D;}
	.st14{fill:#00A14B;}
	.st15{fill:#224099;}
	.st16{fill:#FFDD15;}
	.st17{fill:#EC1C24;}
	.st18{fill:#C12944;}
	.st19{fill:#542337;stroke:#542337;stroke-width:0.84;stroke-miterlimit:10;}
	.st20{fill:none;stroke:#542337;stroke-width:0.672;stroke-miterlimit:10;}
	.st21{fill:#E9F5FC;stroke:#542337;stroke-width:0.672;stroke-miterlimit:10;}
	.st22{fill:#FFFFFF;stroke:#542337;stroke-width:0.3762;stroke-miterlimit:10;}
	.st23{fill:#FFFFFF;stroke:#542337;stroke-width:0.4251;stroke-miterlimit:10;}
	.st24{fill:#542337;stroke:#542337;stroke-width:4.252500e-02;stroke-miterlimit:10;}
	.st25{fill:#FFFFFF;stroke:#542337;stroke-width:3.937500e-02;stroke-miterlimit:10;}
	.st26{fill:#FFFFFF;stroke:#542337;stroke-width:0.1875;stroke-miterlimit:10;}
	.st27{fill:#F1F1F2;}
	.st28{fill:none;stroke:#542337;stroke-width:5.250000e-02;stroke-miterlimit:10;}
	.st29{fill:#DDE8F0;}
	.st30{fill:#CAD4DC;}
	.st31{fill:#ECD177;}
	.st32{fill:none;stroke:#542337;stroke-width:1.2875;stroke-linecap:round;stroke-linejoin:round;}
	.st33{fill:#337D7D;}
</style>
<linearGradient id="SVGID_1_" gradientUnits="userSpaceOnUse" x1="-41.9394" y1="-45.8788" x2="-41.9394" y2="-46.8788">
	<stop  offset="0" style="stop-color:#656565"/>
	<stop  offset="0.618" style="stop-color:#1B1B1B"/>
	<stop  offset="0.6292" style="stop-color:#545454"/>
	<stop  offset="0.9831" style="stop-color:#3E3E3E"/>
</linearGradient>
<g>
	<g id="l-precise">
		<circle class="st0" cx="50.4" cy="209.5" r="25.1"/>
		<g id="precise_1_">
			<circle class="st1" cx="50.3" cy="208.7" r="3.3"/>
			<g>
				<path class="st2" d="M50.3,202.4c3.5,0,6.3,2.8,6.3,6.3c0,3.5-2.8,6.3-6.3,6.3c-3.5,0-6.3-2.8-6.3-6.3
					C44.1,205.2,46.9,202.4,50.3,202.4 M50.3,202.3c-3.6,0-6.4,2.9-6.4,6.4s2.9,6.4,6.4,6.4c3.6,0,6.4-2.9,6.4-6.4
					S53.9,202.3,50.3,202.3L50.3,202.3z"/>
			</g>
			<g>
				<path class="st3" d="M50.3,196.2c6.9,0,12.5,5.6,12.5,12.5s-5.6,12.5-12.5,12.5c-6.9,0-12.5-5.6-12.5-12.5
					S43.4,196.2,50.3,196.2 M50.3,196c-7,0-12.7,5.7-12.7,12.7s5.7,12.7,12.7,12.7c7,0,12.7-5.7,12.7-12.7S57.3,196,50.3,196
					L50.3,196z"/>
			</g>
			<g>
				<path class="st3" d="M50.3,192.4c9,0,16.3,7.3,16.3,16.3c0,9-7.3,16.3-16.3,16.3c-9,0-16.3-7.3-16.3-16.3
					C34.1,199.7,41.4,192.4,50.3,192.4 M50.3,192.2c-9.1,0-16.4,7.4-16.4,16.4c0,9.1,7.4,16.4,16.4,16.4s16.4-7.4,16.4-16.4
					C66.8,199.6,59.4,192.2,50.3,192.2L50.3,192.2z"/>
			</g>
			<g>
				<path class="st3" d="M50.3,189.9c10.4,0,18.8,8.4,18.8,18.8c0,10.4-8.4,18.8-18.8,18.8s-18.8-8.4-18.8-18.8
					C31.6,198.3,40,189.9,50.3,189.9 M50.3,189.7c-10.4,0-18.9,8.5-18.9,18.9s8.5,18.9,18.9,18.9s18.9-8.5,18.9-18.9
					S60.8,189.7,50.3,189.7L50.3,189.7z"/>
			</g>
			<g>
				<path class="st3" d="M50.3,186.8c12.1,0,21.9,9.8,21.9,21.9s-9.8,21.9-21.9,21.9s-21.9-9.8-21.9-21.9S38.3,186.8,50.3,186.8
					 M50.3,186.6c-12.2,0-22.1,9.9-22.1,22.1c0,12.2,9.9,22.1,22.1,22.1c12.2,0,22.1-9.9,22.1-22.1
					C72.4,196.5,62.5,186.6,50.3,186.6L50.3,186.6z"/>
			</g>
			<g>
				<g>
					<line class="st4" x1="28.7" y1="233" x2="49.9" y2="210.7"/>
					<g>
						<g>
							<path class="st5" d="M28.5,233.1c-1.2,0.2-2.4,0.2-3.5,0l3.2-3.4c1.2,0.3,2.5,0.1,3.6-0.2L28.5,233.1z"/>
							<path class="st6" d="M31.9,229.6c-0.3,1.2-0.3,2.5,0,3.7l-3.2,3.4c-0.3-1.2-0.4-2.3-0.2-3.5L31.9,229.6z"/>
							<path class="st3" d="M28.4,229.6c1.2,0.3,2.5,0.1,3.6-0.2c-0.3,1.2-0.3,2.5,0,3.7l-0.4,0.5c-0.3-1.2-0.4-2.3-0.2-3.5
								c-1.2,0.2-2.4,0.2-3.5,0L28.4,229.6z"/>
							<path class="st3" d="M27.4,230.7c1.2,0.3,2.5,0.1,3.6-0.2c-0.3,1.2-0.3,2.5,0,3.7l-0.4,0.5c-0.3-1.2-0.4-2.3-0.2-3.5
								c-1.2,0.2-2.4,0.2-3.5,0L27.4,230.7z"/>
							<path class="st3" d="M26.3,231.8c1.2,0.3,2.5,0.1,3.6-0.2c-0.3,1.2-0.3,2.5,0,3.7l-0.4,0.5c-0.3-1.2-0.4-2.3-0.2-3.5
								c-1.2,0.2-2.4,0.2-3.5,0L26.3,231.8z"/>
							<path class="st3" d="M25.3,232.9c1.2,0.3,2.5,0.1,3.6-0.2c-0.3,1.2-0.3,2.5,0,3.7l-0.4,0.5c-0.3-1.2-0.4-2.3-0.2-3.5
								c-1.2,0.2-2.4,0.2-3.5,0L25.3,232.9z"/>
						</g>
					</g>
					<g>
						<path class="st3" d="M52.2,208.3c-0.7,1.5-1.3,3.7-1.4,5.3l-1.3-2.5l-2.6-1.1C48.6,209.8,50.7,209,52.2,208.3z"/>
					</g>
				</g>
			</g>
		</g>
	</g>
	<g>
		<path class="st3" d="M82.4,187.6h3.3c1.7,0,2.3,1,2.3,2.6c0,1-0.3,2.5-2.4,2.5h-1.3v3.5h-1.8V187.6z M84.2,191.4h1
			c0.5,0,0.9-0.6,0.9-1.2c0-0.7-0.2-1.3-1-1.3h-0.9V191.4z"/>
		<path class="st3" d="M90.9,196.2h-1.8v-8.7h3.3c1.2,0,2,0.8,2,2.3c0,1.1-0.4,1.9-1.6,2.1v0c0.4,0,1.6,0.1,1.6,1.7
			c0,0.6,0,2.2,0.2,2.5h-1.8c-0.2-0.5-0.2-1.1-0.2-1.7c0-1,0.1-1.9-1.3-1.9h-0.5V196.2z M90.9,191.3h0.8c0.7,0,0.9-0.7,0.9-1.3
			c0-0.8-0.3-1.1-0.9-1.1h-0.8V191.3z"/>
		<path class="st3" d="M95.8,196.2v-8.7h4.7v1.3h-2.9v2.1h2.7v1.3h-2.7v2.5h3v1.3H95.8z"/>
		<path class="st3" d="M101.7,191.9c0-2.3,0-4.5,3-4.5c1.8,0,2.6,1,2.5,2.9h-1.8c0-1.2-0.2-1.6-0.7-1.6c-1,0-1.2,1-1.2,3.2
			s0.1,3.2,1.2,3.2c0.8,0,0.8-1.1,0.8-1.8h1.8c0,2.3-0.9,3.1-2.6,3.1C101.7,196.4,101.7,194.2,101.7,191.9z"/>
		<path class="st3" d="M108.4,196.2v-8.7h1.8v8.7H108.4z"/>
		<path class="st3" d="M114.1,196.4c-2.2,0-2.7-1.3-2.6-2.8h1.8c0,0.8,0,1.5,1,1.5c0.6,0,0.9-0.4,0.9-1c0-1.6-3.6-1.7-3.6-4.2
			c0-1.4,0.6-2.4,2.9-2.4c1.8,0,2.6,0.8,2.5,2.6h-1.8c0-0.6-0.1-1.3-0.8-1.3c-0.6,0-0.9,0.3-0.9,0.9c0,1.6,3.6,1.5,3.6,4.2
			C117.1,196.1,115.5,196.4,114.1,196.4z"/>
		<path class="st3" d="M118.4,196.2v-8.7h4.7v1.3h-2.9v2.1h2.7v1.3h-2.7v2.5h3v1.3H118.4z"/>
		<path class="st3" d="M82.4,200.1h2.1c0.3,0,0.9,0,1.3,0.3c0.4,0.3,0.6,0.7,0.6,1.2c0,0.4-0.2,0.8-0.4,1c-0.2,0.2-0.5,0.3-0.7,0.4
			c0.6,0.1,0.8,0.4,0.9,1.1c0.1,0.7,0.1,1.2,0.4,1.8h-0.9c-0.1-0.4-0.2-1.1-0.3-1.5c-0.1-0.8-0.3-1.1-1.3-1.1h-1v2.6h-0.8V200.1z
			 M83.1,202.6h1.3c0.1,0,0.5,0,0.8-0.1c0.1-0.1,0.4-0.3,0.4-0.8c0-0.9-0.8-0.9-1.2-0.9h-1.3V202.6z"/>
		<path class="st3" d="M88,204c0,0.8,0.3,1.4,1.2,1.4c0.5,0,0.9-0.3,0.9-0.8h0.8c0,0.2-0.1,0.5-0.3,0.8c-0.2,0.2-0.6,0.5-1.4,0.5
			c-1.3,0-1.9-0.8-1.9-2.1c0-0.8,0.2-1.4,0.8-1.9c0.4-0.3,0.9-0.3,1.1-0.3c1.8,0,1.8,1.6,1.7,2.2H88z M90.1,203.4
			c0-0.4-0.1-1.2-1-1.2c-0.5,0-1.1,0.3-1.1,1.2H90.1z"/>
		<path class="st3" d="M92.4,204.6c0,0.3,0.2,0.7,0.9,0.7c0.3,0,0.5-0.1,0.7-0.3c0.1-0.1,0.1-0.2,0.1-0.4c0-0.4-0.3-0.5-0.9-0.6
			c-0.8-0.2-1.5-0.4-1.5-1.2c0-0.7,0.6-1.2,1.6-1.2c0.5,0,1.2,0.1,1.4,0.6c0.1,0.2,0.1,0.4,0.1,0.6h-0.8c0-0.6-0.5-0.7-0.8-0.7
			c-0.1,0-0.8,0-0.8,0.6c0,0.4,0.4,0.5,0.6,0.5c1.1,0.3,1.4,0.3,1.6,0.6c0.2,0.2,0.3,0.5,0.3,0.7c0,0.4-0.2,0.8-0.5,1
			c-0.4,0.2-0.8,0.3-1.2,0.3c-0.8,0-1.6-0.3-1.6-1.3H92.4z"/>
		<path class="st3" d="M96.4,204c0,0.8,0.3,1.4,1.2,1.4c0.5,0,0.9-0.3,0.9-0.8h0.8c0,0.2-0.1,0.5-0.3,0.8c-0.2,0.2-0.6,0.5-1.4,0.5
			c-1.3,0-1.9-0.8-1.9-2.1c0-0.8,0.2-1.4,0.8-1.9c0.4-0.3,0.9-0.3,1.1-0.3c1.8,0,1.8,1.6,1.7,2.2H96.4z M98.6,203.4
			c0-0.4-0.1-1.2-1-1.2c-0.5,0-1.1,0.3-1.1,1.2H98.6z"/>
		<path class="st3" d="M102.9,205.8c-0.1-0.2-0.1-0.4-0.1-0.6c-0.4,0.7-0.9,0.7-1.2,0.7c-0.9,0-1.4-0.5-1.4-1.2
			c0-0.3,0.1-0.8,0.7-1.2c0.4-0.2,1.1-0.3,1.4-0.3c0.2,0,0.3,0,0.5,0c0-0.5,0-0.7-0.1-0.9c-0.2-0.2-0.5-0.3-0.7-0.3
			c-0.8,0-0.8,0.5-0.8,0.7h-0.8c0-0.2,0-0.5,0.3-0.8c0.3-0.3,0.9-0.4,1.3-0.4c0.6,0,1.2,0.2,1.4,0.6c0.1,0.2,0.1,0.4,0.1,0.6l0,1.9
			c0,0.1,0,0.6,0.1,1H102.9z M102.4,203.9c-0.3,0-1.4,0-1.4,0.8c0,0.3,0.2,0.7,0.8,0.7c0.4,0,0.7-0.2,0.9-0.4
			c0.2-0.3,0.2-0.5,0.2-1.1C102.7,203.9,102.6,203.9,102.4,203.9z"/>
		<path class="st3" d="M104.9,202.6c0-0.3,0-0.6,0-0.8h0.8l0,0.8c0.1-0.6,0.6-0.7,1-0.8c0.2,0,0.4,0,0.5,0v0.7c0,0-0.1,0-0.1,0
			c-0.1,0-0.1,0-0.2,0c-0.9,0-1.1,0.5-1.1,1.2v2.1h-0.8V202.6z"/>
		<path class="st3" d="M110.3,203.1c0-0.2-0.1-0.8-0.8-0.8c-1,0-1,1.2-1,1.5c0,0.8,0.2,1.6,1,1.6c0.6,0,0.9-0.5,0.9-0.9h0.8
			c0,0.8-0.6,1.4-1.6,1.4c-0.3,0-0.9-0.1-1.3-0.5c-0.2-0.3-0.5-0.7-0.5-1.5c0-1.7,1-2.2,1.8-2.2c0.3,0,0.9,0.1,1.2,0.5
			c0.3,0.3,0.3,0.7,0.3,0.9H110.3z"/>
		<path class="st3" d="M111.6,200.1h0.8v2.3c0.2-0.4,0.7-0.7,1.3-0.7c0.4,0,1,0.2,1.3,0.6c0.1,0.2,0.1,0.4,0.1,0.9v2.5h-0.8v-2.4
			c0-0.4,0-1.1-0.9-1.1c-0.6,0-0.8,0.3-0.9,0.5c-0.1,0.2-0.1,0.6-0.1,0.8v2.1h-0.8V200.1z"/>
		<path class="st3" d="M118.6,200.1h0.9v0.8h-0.9V200.1z M118.7,201.8h0.8v4h-0.8V201.8z"/>
		<path class="st3" d="M121.4,204.6c0,0.3,0.2,0.7,0.9,0.7c0.3,0,0.5-0.1,0.7-0.3c0.1-0.1,0.1-0.2,0.1-0.4c0-0.4-0.3-0.5-0.9-0.6
			c-0.8-0.2-1.5-0.4-1.5-1.2c0-0.7,0.6-1.2,1.6-1.2c0.5,0,1.2,0.1,1.4,0.6c0.1,0.2,0.1,0.4,0.1,0.6H123c0-0.6-0.5-0.7-0.8-0.7
			c-0.1,0-0.8,0-0.8,0.6c0,0.4,0.4,0.5,0.6,0.5c1.1,0.3,1.4,0.3,1.6,0.6c0.2,0.2,0.3,0.5,0.3,0.7c0,0.4-0.2,0.8-0.5,1
			c-0.4,0.2-0.8,0.3-1.2,0.3c-0.8,0-1.6-0.3-1.6-1.3H121.4z"/>
		<path class="st3" d="M127.4,201.8l1,3.2l1-3.2h1l0.9,3.2l1-3.2h0.8l-1.4,4h-0.9l-0.9-3.3l-1,3.3h-0.9l-1.3-4H127.4z"/>
		<path class="st3" d="M134.3,204c0,0.8,0.3,1.4,1.2,1.4c0.5,0,0.9-0.3,0.9-0.8h0.8c0,0.2-0.1,0.5-0.3,0.8c-0.2,0.2-0.6,0.5-1.4,0.5
			c-1.3,0-1.9-0.8-1.9-2.1c0-0.8,0.2-1.4,0.8-1.9c0.4-0.3,0.9-0.3,1.1-0.3c1.8,0,1.8,1.6,1.7,2.2H134.3z M136.4,203.4
			c0-0.4-0.1-1.2-1-1.2c-0.5,0-1.1,0.3-1.1,1.2H136.4z"/>
		<path class="st3" d="M138.3,200.1h0.8v5.8h-0.8V200.1z"/>
		<path class="st3" d="M140.5,200.1h0.8v5.8h-0.8V200.1z"/>
		<path class="st3" d="M85.2,209.7h0.8v5.1c0,0.1,0,0.4,0,0.6h-0.8l0-0.6c-0.1,0.1-0.2,0.3-0.4,0.4c-0.3,0.2-0.7,0.3-1,0.3
			c-0.5,0-1.7-0.3-1.7-2c0-1.5,0.9-2.2,1.8-2.2c0.9,0,1.2,0.5,1.2,0.7V209.7z M84.9,212.3c-0.2-0.2-0.5-0.4-0.9-0.4
			c-1.1,0-1.1,1.3-1.1,1.6c0,0.7,0.2,1.5,1.1,1.5c1.2,0,1.2-1.3,1.2-1.6C85.2,212.8,85,212.5,84.9,212.3z"/>
		<path class="st3" d="M89,211.3c1.6,0,2,1.3,2,2.1c0,1.2-0.7,2.2-2,2.2c-1.3,0-2-0.9-2-2.1C87,212.5,87.4,211.3,89,211.3z M89,215
			c0.6,0,1.2-0.4,1.2-1.6c0-1-0.5-1.5-1.2-1.5c-0.5,0-1.3,0.3-1.3,1.6C87.7,214.3,88.1,215,89,215z"/>
		<path class="st3" d="M94.4,212.7c0-0.2-0.1-0.8-0.8-0.8c-1,0-1,1.2-1,1.5c0,0.8,0.2,1.6,1,1.6c0.6,0,0.9-0.5,0.9-0.9h0.8
			c0,0.8-0.6,1.4-1.6,1.4c-0.3,0-0.9-0.1-1.3-0.5c-0.2-0.3-0.5-0.7-0.5-1.5c0-1.7,1-2.2,1.8-2.2c0.3,0,0.9,0.1,1.2,0.5
			c0.3,0.3,0.3,0.7,0.3,0.9H94.4z"/>
		<path class="st3" d="M96.8,211.4v2.6c0,0.4,0.1,0.9,0.9,0.9c0.4,0,0.7-0.1,0.9-0.4c0.2-0.2,0.2-0.6,0.2-0.8v-2.3h0.8v3.3
			c0,0.1,0,0.5,0,0.8h-0.8l0-0.7c-0.1,0.3-0.4,0.7-1.3,0.7c-1,0-1.5-0.6-1.5-1.4v-2.7H96.8z"/>
		<path class="st3" d="M101,212l0-0.5h0.8v0.6c0.4-0.6,0.9-0.7,1.3-0.7c0.9,0,1.2,0.5,1.3,0.8c0.1-0.2,0.5-0.8,1.4-0.8
			c0.6,0,1.5,0.2,1.5,1.4v2.7h-0.8v-2.6c0-0.4-0.1-0.5-0.1-0.6c-0.1-0.2-0.4-0.4-0.8-0.4c-0.5,0-0.8,0.3-0.9,0.4
			c-0.2,0.2-0.2,0.7-0.2,0.9v2.2h-0.8v-2.7c0-0.5-0.3-0.9-0.9-0.9c-0.5,0-0.8,0.3-0.9,0.4c-0.2,0.2-0.2,0.6-0.2,0.8v2.3H101V212z"/>
		<path class="st3" d="M109,213.6c0,0.8,0.3,1.4,1.2,1.4c0.5,0,0.9-0.3,0.9-0.8h0.8c0,0.2-0.1,0.5-0.3,0.8c-0.2,0.2-0.6,0.5-1.4,0.5
			c-1.3,0-1.9-0.8-1.9-2.1c0-0.8,0.2-1.4,0.8-1.9c0.4-0.3,0.9-0.3,1.1-0.3c1.8,0,1.8,1.6,1.7,2.2H109z M111.2,213
			c0-0.4-0.1-1.2-1-1.2c-0.5,0-1.1,0.3-1.1,1.2H111.2z"/>
		<path class="st3" d="M113.1,211.9l0-0.5h0.8l0,0.6c0.1-0.2,0.4-0.7,1.3-0.7c0.4,0,1.5,0.1,1.5,1.4v2.7h-0.8v-2.6
			c0-0.3,0-0.5-0.2-0.7c-0.2-0.2-0.5-0.3-0.7-0.3c-0.5,0-1,0.4-1,1.2v2.3h-0.8V211.9z"/>
		<path class="st3" d="M117.3,211.4h0.7v-0.8l0.7-0.2v1.1h0.9v0.6h-0.9v2.4c0,0.2,0,0.5,0.5,0.5c0.2,0,0.3,0,0.4,0v0.6
			c-0.1,0-0.4,0-0.6,0c-0.7,0-1-0.2-1-0.9V212h-0.7V211.4z"/>
		<path class="st3" d="M121,213.6c0,0.8,0.3,1.4,1.2,1.4c0.5,0,0.9-0.3,0.9-0.8h0.8c0,0.2-0.1,0.5-0.3,0.8c-0.2,0.2-0.6,0.5-1.4,0.5
			c-1.3,0-1.9-0.8-1.9-2.1c0-0.8,0.2-1.4,0.8-1.9c0.4-0.3,0.9-0.3,1.1-0.3c1.8,0,1.8,1.6,1.7,2.2H121z M123.2,213
			c0-0.4-0.1-1.2-1-1.2c-0.5,0-1.1,0.3-1.1,1.2H123.2z"/>
		<path class="st3" d="M127.8,209.7h0.8v5.1c0,0.1,0,0.4,0,0.6h-0.8l0-0.6c-0.1,0.1-0.2,0.3-0.4,0.4c-0.3,0.2-0.7,0.3-1,0.3
			c-0.5,0-1.7-0.3-1.7-2c0-1.5,0.9-2.2,1.8-2.2c0.9,0,1.2,0.5,1.2,0.7V209.7z M127.5,212.3c-0.2-0.2-0.5-0.4-0.9-0.4
			c-1.1,0-1.1,1.3-1.1,1.6c0,0.7,0.2,1.5,1.1,1.5c1.2,0,1.2-1.3,1.2-1.6C127.8,212.8,127.7,212.5,127.5,212.3z"/>
		<path class="st3" d="M134.6,215.4c-0.1-0.2-0.1-0.4-0.1-0.6c-0.4,0.7-0.9,0.7-1.2,0.7c-0.9,0-1.4-0.5-1.4-1.2
			c0-0.3,0.1-0.8,0.7-1.2c0.4-0.2,1.1-0.3,1.4-0.3c0.2,0,0.3,0,0.5,0c0-0.5,0-0.7-0.1-0.9c-0.2-0.2-0.5-0.3-0.7-0.3
			c-0.8,0-0.8,0.5-0.8,0.7h-0.8c0-0.2,0-0.5,0.3-0.8c0.3-0.3,0.9-0.4,1.3-0.4c0.6,0,1.2,0.2,1.4,0.6c0.1,0.2,0.1,0.4,0.1,0.6l0,1.9
			c0,0.1,0,0.6,0.1,1H134.6z M134.1,213.5c-0.3,0-1.4,0-1.4,0.8c0,0.3,0.2,0.7,0.8,0.7c0.4,0,0.7-0.2,0.9-0.4
			c0.2-0.3,0.2-0.5,0.2-1.1C134.4,213.5,134.3,213.5,134.1,213.5z"/>
		<path class="st3" d="M136.6,211.9l0-0.5h0.8l0,0.6c0.1-0.2,0.4-0.7,1.3-0.7c0.4,0,1.5,0.1,1.5,1.4v2.7h-0.8v-2.6
			c0-0.3,0-0.5-0.2-0.7c-0.2-0.2-0.5-0.3-0.7-0.3c-0.5,0-1,0.4-1,1.2v2.3h-0.8V211.9z"/>
		<path class="st3" d="M144.3,209.7h0.8v5.1c0,0.1,0,0.4,0,0.6h-0.8l0-0.6c-0.1,0.1-0.2,0.3-0.4,0.4c-0.3,0.2-0.7,0.3-1,0.3
			c-0.5,0-1.7-0.3-1.7-2c0-1.5,0.9-2.2,1.8-2.2c0.9,0,1.2,0.5,1.2,0.7V209.7z M144,212.3c-0.2-0.2-0.5-0.4-0.9-0.4
			c-1.1,0-1.1,1.3-1.1,1.6c0,0.7,0.2,1.5,1.1,1.5c1.2,0,1.2-1.3,1.2-1.6C144.3,212.8,144.2,212.5,144,212.3z"/>
		<path class="st3" d="M148.6,209.7h0.8v5.8h-0.8V209.7z"/>
		<path class="st3" d="M150.7,209.7h0.9v0.8h-0.9V209.7z M150.8,211.4h0.8v4h-0.8V211.4z"/>
		<path class="st3" d="M153,209.6h0.7v3.4l1.5-1.6h1l-1.7,1.7l1.8,2.3h-1l-1.6-2.2v2.2H153V209.6z"/>
		<path class="st3" d="M157.7,213.6c0,0.8,0.3,1.4,1.2,1.4c0.5,0,0.9-0.3,0.9-0.8h0.8c0,0.2-0.1,0.5-0.3,0.8
			c-0.2,0.2-0.6,0.5-1.4,0.5c-1.3,0-1.9-0.8-1.9-2.1c0-0.8,0.2-1.4,0.8-1.9c0.4-0.3,0.9-0.3,1.1-0.3c1.8,0,1.8,1.6,1.7,2.2H157.7z
			 M159.8,213c0-0.4-0.1-1.2-1-1.2c-0.5,0-1.1,0.3-1.1,1.2H159.8z"/>
		<path class="st3" d="M162.1,214.2c0,0.3,0.2,0.7,0.9,0.7c0.3,0,0.5-0.1,0.7-0.3c0.1-0.1,0.1-0.2,0.1-0.4c0-0.4-0.3-0.5-0.9-0.6
			c-0.8-0.2-1.5-0.4-1.5-1.2c0-0.7,0.6-1.2,1.6-1.2c0.5,0,1.2,0.1,1.4,0.6c0.1,0.2,0.1,0.4,0.1,0.6h-0.8c0-0.6-0.5-0.7-0.8-0.7
			c-0.1,0-0.8,0-0.8,0.6c0,0.4,0.4,0.5,0.6,0.5c1.1,0.3,1.4,0.3,1.6,0.6c0.2,0.2,0.3,0.5,0.3,0.7c0,0.4-0.2,0.8-0.5,1
			c-0.4,0.2-0.8,0.3-1.2,0.3c-0.8,0-1.6-0.3-1.6-1.3H162.1z"/>
		<path class="st3" d="M81.8,221h0.7v-0.8l0.7-0.2v1.1h0.9v0.6h-0.9v2.4c0,0.2,0,0.5,0.5,0.5c0.2,0,0.3,0,0.4,0v0.6
			c-0.1,0-0.4,0-0.6,0c-0.7,0-1-0.2-1-0.9v-2.7h-0.7V221z"/>
		<path class="st3" d="M86.8,220.9c1.6,0,2,1.3,2,2.1c0,1.2-0.7,2.2-2,2.2c-1.3,0-2-0.9-2-2.1C84.7,222.1,85.2,220.9,86.8,220.9z
			 M86.7,224.6c0.6,0,1.2-0.4,1.2-1.6c0-1-0.5-1.5-1.2-1.5c-0.5,0-1.3,0.3-1.3,1.6C85.5,223.9,85.9,224.6,86.7,224.6z"/>
		<path class="st3" d="M92.2,221.8c0-0.3,0-0.6,0-0.8h0.8l0,0.8c0.1-0.6,0.6-0.7,1-0.8c0.2,0,0.4,0,0.5,0v0.7c0,0-0.1,0-0.1,0
			c-0.1,0-0.1,0-0.2,0c-0.9,0-1.1,0.5-1.1,1.2v2.1h-0.8V221.8z"/>
		<path class="st3" d="M95.7,223.2c0,0.8,0.3,1.4,1.2,1.4c0.5,0,0.9-0.3,0.9-0.8h0.8c0,0.2-0.1,0.5-0.3,0.8
			c-0.2,0.2-0.6,0.5-1.4,0.5c-1.3,0-1.9-0.8-1.9-2.1c0-0.8,0.2-1.4,0.8-1.9c0.4-0.3,0.9-0.3,1.1-0.3c1.8,0,1.8,1.6,1.7,2.2H95.7z
			 M97.8,222.6c0-0.4-0.1-1.2-1-1.2c-0.5,0-1.1,0.3-1.1,1.2H97.8z"/>
		<path class="st3" d="M102.2,225c-0.1-0.2-0.1-0.4-0.1-0.6c-0.4,0.7-0.9,0.7-1.2,0.7c-0.9,0-1.4-0.5-1.4-1.2c0-0.3,0.1-0.8,0.7-1.2
			c0.4-0.2,1.1-0.3,1.4-0.3c0.2,0,0.3,0,0.5,0c0-0.5,0-0.7-0.1-0.9c-0.2-0.2-0.5-0.3-0.7-0.3c-0.8,0-0.8,0.5-0.8,0.7h-0.8
			c0-0.2,0-0.5,0.3-0.8c0.3-0.3,0.9-0.4,1.3-0.4c0.6,0,1.2,0.2,1.4,0.6c0.1,0.2,0.1,0.4,0.1,0.6l0,1.9c0,0.1,0,0.6,0.1,1H102.2z
			 M101.6,223.1c-0.3,0-1.4,0-1.4,0.8c0,0.3,0.2,0.7,0.8,0.7c0.4,0,0.7-0.2,0.9-0.4c0.2-0.3,0.2-0.5,0.2-1.1
			C101.9,223.1,101.8,223.1,101.6,223.1z"/>
		<path class="st3" d="M106.9,219.3h0.8v5.1c0,0.1,0,0.4,0,0.6H107l0-0.6c-0.1,0.1-0.2,0.3-0.4,0.4c-0.3,0.2-0.7,0.3-1,0.3
			c-0.5,0-1.7-0.3-1.7-2c0-1.5,0.9-2.2,1.8-2.2c0.9,0,1.2,0.5,1.2,0.7V219.3z M106.7,221.9c-0.2-0.2-0.5-0.4-0.9-0.4
			c-1.1,0-1.1,1.3-1.1,1.6c0,0.7,0.2,1.5,1.1,1.5c1.2,0,1.2-1.3,1.2-1.6C107,222.4,106.8,222.1,106.7,221.9z"/>
		<path class="st3" d="M114,219.3h0.8v5.1c0,0.1,0,0.4,0,0.6h-0.8l0-0.6c-0.1,0.1-0.2,0.3-0.4,0.4c-0.3,0.2-0.7,0.3-1,0.3
			c-0.5,0-1.7-0.3-1.7-2c0-1.5,0.9-2.2,1.8-2.2c0.9,0,1.2,0.5,1.2,0.7V219.3z M113.8,221.9c-0.2-0.2-0.5-0.4-0.9-0.4
			c-1.1,0-1.1,1.3-1.1,1.6c0,0.7,0.2,1.5,1.1,1.5c1.2,0,1.2-1.3,1.2-1.6C114.1,222.4,113.9,222.1,113.8,221.9z"/>
		<path class="st3" d="M116.1,219.3h0.9v0.8h-0.9V219.3z M116.2,221h0.8v4h-0.8V221z"/>
		<path class="st3" d="M118.4,221.8c0-0.3,0-0.6,0-0.8h0.8l0,0.8c0.1-0.6,0.6-0.7,1-0.8c0.2,0,0.4,0,0.5,0v0.7c0,0-0.1,0-0.1,0
			c-0.1,0-0.1,0-0.2,0c-0.9,0-1.1,0.5-1.1,1.2v2.1h-0.8V221.8z"/>
		<path class="st3" d="M121.9,223.2c0,0.8,0.3,1.4,1.2,1.4c0.5,0,0.9-0.3,0.9-0.8h0.8c0,0.2-0.1,0.5-0.3,0.8
			c-0.2,0.2-0.6,0.5-1.4,0.5c-1.3,0-1.9-0.8-1.9-2.1c0-0.8,0.2-1.4,0.8-1.9c0.4-0.3,0.9-0.3,1.1-0.3c1.8,0,1.8,1.6,1.7,2.2H121.9z
			 M124.1,222.6c0-0.4-0.1-1.2-1-1.2c-0.5,0-1.1,0.3-1.1,1.2H124.1z"/>
		<path class="st3" d="M128.2,222.3c0-0.2-0.1-0.8-0.8-0.8c-1,0-1,1.2-1,1.5c0,0.8,0.2,1.6,1,1.6c0.6,0,0.9-0.5,0.9-0.9h0.8
			c0,0.8-0.6,1.4-1.6,1.4c-0.3,0-0.9-0.1-1.3-0.5c-0.2-0.3-0.5-0.7-0.5-1.5c0-1.7,1-2.2,1.8-2.2c0.3,0,0.9,0.1,1.2,0.5
			c0.3,0.3,0.3,0.7,0.3,0.9H128.2z"/>
		<path class="st3" d="M129.3,221h0.7v-0.8l0.7-0.2v1.1h0.9v0.6h-0.9v2.4c0,0.2,0,0.5,0.5,0.5c0.2,0,0.3,0,0.4,0v0.6
			c-0.1,0-0.4,0-0.6,0c-0.7,0-1-0.2-1-0.9v-2.7h-0.7V221z"/>
		<path class="st3" d="M132.5,219.3h0.9v0.8h-0.9V219.3z M132.6,221h0.8v4h-0.8V221z"/>
		<path class="st3" d="M136.6,220.9c1.6,0,2,1.3,2,2.1c0,1.2-0.7,2.2-2,2.2c-1.3,0-2-0.9-2-2.1C134.5,222.1,135,220.9,136.6,220.9z
			 M136.5,224.6c0.6,0,1.2-0.4,1.2-1.6c0-1-0.5-1.5-1.2-1.5c-0.5,0-1.3,0.3-1.3,1.6C135.3,223.9,135.7,224.6,136.5,224.6z"/>
		<path class="st3" d="M139.7,221.5l0-0.5h0.8l0,0.6c0.1-0.2,0.4-0.7,1.3-0.7c0.4,0,1.5,0.1,1.5,1.4v2.7h-0.8v-2.6
			c0-0.3,0-0.5-0.2-0.7c-0.2-0.2-0.5-0.3-0.7-0.3c-0.5,0-1,0.4-1,1.2v2.3h-0.8V221.5z"/>
		<path class="st3" d="M145,223.8c0,0.3,0.2,0.7,0.9,0.7c0.3,0,0.5-0.1,0.7-0.3c0.1-0.1,0.1-0.2,0.1-0.4c0-0.4-0.3-0.5-0.9-0.6
			c-0.8-0.2-1.5-0.4-1.5-1.2c0-0.7,0.6-1.2,1.6-1.2c0.5,0,1.2,0.1,1.4,0.6c0.1,0.2,0.1,0.4,0.1,0.6h-0.8c0-0.6-0.5-0.7-0.8-0.7
			c-0.1,0-0.8,0-0.8,0.6c0,0.4,0.4,0.5,0.6,0.5c1.1,0.3,1.4,0.3,1.6,0.6c0.2,0.2,0.3,0.5,0.3,0.7c0,0.4-0.2,0.8-0.5,1
			c-0.4,0.2-0.8,0.3-1.2,0.3c-0.8,0-1.6-0.3-1.6-1.3H145z"/>
	</g>
</g>
<g>
	<g id="l-planner">
		<circle class="st0" cx="50.2" cy="38.8" r="25.1"/>
		<g id="planner_1_">
			<path class="st7" d="M61.6,57H40.3c-1.5,0-2.8-1.2-2.8-2.8V22.7c0-1.5,1.2-2.8,2.8-2.8h21.3c1.5,0,2.8,1.2,2.8,2.8v31.5
				C64.4,55.7,63.2,57,61.6,57z"/>
			<g>
				<path class="st3" d="M42.7,28.7L42.7,28.7l-0.5,0.2l-0.1-0.3l0.6-0.3H43v2.6h-0.3V28.7z"/>
				<path class="st3" d="M41.9,35.7v-0.2l0.3-0.3c0.7-0.6,1-1,1-1.3c0-0.3-0.1-0.5-0.5-0.5c-0.2,0-0.4,0.1-0.5,0.2L42,33.3
					c0.2-0.2,0.4-0.3,0.7-0.3c0.6,0,0.8,0.4,0.8,0.7c0,0.5-0.3,0.9-0.9,1.4l-0.2,0.2v0h1.2v0.3H41.9z"/>
				<path class="st3" d="M42,40.1c0.1,0.1,0.3,0.2,0.6,0.2c0.4,0,0.6-0.3,0.6-0.5c0-0.4-0.3-0.5-0.7-0.5h-0.2V39h0.2
					c0.3,0,0.6-0.1,0.6-0.4c0-0.2-0.1-0.4-0.5-0.4c-0.2,0-0.4,0.1-0.5,0.2L42,38c0.1-0.1,0.4-0.2,0.7-0.2c0.5,0,0.7,0.3,0.7,0.6
					c0,0.3-0.2,0.5-0.5,0.6v0c0.3,0.1,0.6,0.3,0.6,0.7c0,0.4-0.3,0.8-0.9,0.8c-0.3,0-0.5-0.1-0.7-0.2L42,40.1z"/>
				<path class="st3" d="M43,45.2v-0.7h-1.2v-0.2l1.2-1.6h0.4v1.6h0.4v0.3h-0.4v0.7H43z M43,44.3v-0.9c0-0.1,0-0.3,0-0.4h0
					c-0.1,0.2-0.1,0.3-0.2,0.4l-0.6,0.9v0H43z"/>
				<path class="st3" d="M43.5,47.7h-1l-0.1,0.7c0.1,0,0.1,0,0.2,0c0.2,0,0.4,0,0.6,0.1c0.2,0.1,0.4,0.3,0.4,0.7
					c0,0.5-0.4,0.9-1,0.9c-0.3,0-0.5-0.1-0.6-0.2l0.1-0.3c0.1,0.1,0.3,0.1,0.6,0.1c0.3,0,0.6-0.2,0.6-0.6c0-0.3-0.2-0.6-0.7-0.6
					c-0.1,0-0.3,0-0.4,0l0.2-1.2h1.2V47.7z"/>
			</g>
			<line class="st8" x1="44.9" y1="30.9" x2="62.1" y2="30.9"/>
			<line class="st8" x1="44.9" y1="35.6" x2="62.1" y2="35.6"/>
			<line class="st8" x1="44.9" y1="40.3" x2="62.1" y2="40.3"/>
			<line class="st8" x1="44.8" y1="44.9" x2="62" y2="44.9"/>
			<line class="st8" x1="44.9" y1="49.6" x2="62.1" y2="49.6"/>
		</g>
	</g>
	<g>
		<path class="st3" d="M83.4,19.9h3.3c1.7,0,2.3,1,2.3,2.6c0,1-0.3,2.5-2.4,2.5h-1.3v3.5h-1.8V19.9z M85.2,23.7h1
			c0.5,0,0.9-0.6,0.9-1.2c0-0.7-0.2-1.3-1-1.3h-0.9V23.7z"/>
		<path class="st3" d="M90.1,28.6v-8.7h1.8v7.2h2.7v1.4H90.1z"/>
		<path class="st3" d="M94.7,28.6l2.4-8.7h2.4l2.4,8.7H100l-0.5-1.9H97l-0.5,1.9H94.7z M98.2,21.6L98.2,21.6l-0.9,3.7h1.7L98.2,21.6
			z"/>
		<path class="st3" d="M102.7,28.6v-8.7h2.4l2.3,6h0v-6h1.7v8.7h-2.4l-2.4-6.3h0v6.3H102.7z"/>
		<path class="st3" d="M110.7,28.6v-8.7h2.4l2.3,6h0v-6h1.7v8.7h-2.4l-2.4-6.3h0v6.3H110.7z"/>
		<path class="st3" d="M118.7,28.6v-8.7h4.7v1.3h-2.9v2.1h2.7v1.3h-2.7v2.5h3v1.3H118.7z"/>
		<path class="st3" d="M126.5,28.6h-1.8v-8.7h3.3c1.2,0,2,0.8,2,2.3c0,1.1-0.4,1.9-1.6,2.1v0c0.4,0,1.6,0.1,1.6,1.7
			c0,0.6,0,2.2,0.2,2.5h-1.8c-0.2-0.5-0.2-1.1-0.2-1.7c0-1,0.1-1.9-1.3-1.9h-0.5V28.6z M126.5,23.6h0.8c0.7,0,0.9-0.7,0.9-1.3
			c0-0.8-0.3-1.1-0.9-1.1h-0.8V23.6z"/>
		<path class="st3" d="M85,39.4v-5.7h-2.2v-0.8h5.2v0.8h-2.2v5.7H85z"/>
		<path class="st3" d="M88.9,32.9h0.9v2.6c0.3-0.5,0.8-0.7,1.5-0.7c0.5,0,1.2,0.2,1.4,0.7c0.1,0.2,0.2,0.4,0.2,1.1v2.8H92v-2.7
			c0-0.4,0-1.3-1-1.3c-0.6,0-0.9,0.4-1.1,0.6c-0.1,0.3-0.1,0.7-0.1,1v2.4h-0.9V32.9z"/>
		<path class="st3" d="M94.3,32.9h1v0.9h-1V32.9z M94.4,34.8h0.8v4.5h-0.8V34.8z"/>
		<path class="st3" d="M97,35.4l0-0.5h0.8l0,0.7c0.1-0.2,0.4-0.8,1.4-0.8c0.4,0,1.6,0.2,1.6,1.5v3.1H100v-2.9c0-0.3,0-0.6-0.2-0.8
			c-0.2-0.2-0.5-0.3-0.8-0.3c-0.6,0-1.2,0.4-1.2,1.4v2.6H97V35.4z"/>
		<path class="st3" d="M103.2,39.7c0,0.5,0.3,0.9,1.1,0.9c1.2,0,1.2-0.9,1.2-2.1c-0.4,0.7-1.2,0.8-1.5,0.8c-0.4,0-1-0.1-1.4-0.6
			c-0.4-0.5-0.5-1.1-0.5-1.7c0-1.5,0.9-2.3,2-2.3c0.9,0,1.2,0.5,1.4,0.7l0-0.6h0.8l0,0.8l0,2.8c0,1.1,0,1.5-0.2,1.9
			c-0.4,0.7-1.3,0.8-1.9,0.8c-1.8,0-1.9-0.8-1.9-1.5H103.2z M105.2,38.2c0.2-0.2,0.3-0.5,0.3-1.3c0-0.6-0.1-0.9-0.4-1.1
			c-0.2-0.2-0.6-0.4-1-0.4c-1.1,0-1.2,1.1-1.2,1.7c0,0.7,0.2,1.6,1.2,1.6C104.7,38.6,105,38.5,105.2,38.2z"/>
		<path class="st3" d="M108.4,38c0,0.3,0.2,0.8,1,0.8c0.4,0,0.6-0.1,0.8-0.3c0.1-0.1,0.1-0.3,0.1-0.4c0-0.4-0.3-0.5-1-0.7
			c-0.9-0.2-1.7-0.4-1.7-1.4c0-0.8,0.7-1.4,1.8-1.4c0.6,0,1.4,0.2,1.6,0.7c0.1,0.3,0.1,0.5,0.1,0.7h-0.9c0-0.7-0.6-0.7-0.9-0.7
			c-0.1,0-0.9,0-0.9,0.6c0,0.4,0.4,0.5,0.6,0.6c1.3,0.3,1.5,0.4,1.8,0.6c0.3,0.2,0.3,0.5,0.3,0.8c0,0.5-0.3,0.9-0.6,1.1
			c-0.4,0.2-0.9,0.3-1.3,0.3c-0.9,0-1.8-0.4-1.8-1.5H108.4z"/>
		<path class="st3" d="M117.7,39.4c-0.1-0.2-0.1-0.4-0.1-0.7c-0.4,0.7-1,0.8-1.4,0.8c-1,0-1.6-0.6-1.6-1.3c0-0.4,0.1-0.9,0.8-1.3
			c0.5-0.3,1.2-0.3,1.6-0.3c0.2,0,0.4,0,0.6,0c0-0.6,0-0.8-0.2-1c-0.2-0.2-0.5-0.3-0.8-0.3c-0.9,0-0.9,0.6-0.9,0.8h-0.8
			c0-0.2,0.1-0.5,0.3-0.9c0.3-0.4,1-0.5,1.5-0.5c0.7,0,1.4,0.2,1.6,0.7c0.1,0.3,0.2,0.5,0.2,0.7l0,2.2c0,0.1,0,0.7,0.1,1.1H117.7z
			 M117.1,37.1c-0.3,0-1.6,0-1.6,0.9c0,0.3,0.2,0.8,0.9,0.8c0.4,0,0.8-0.2,1-0.5c0.2-0.3,0.2-0.6,0.2-1.2
			C117.4,37.1,117.3,37.1,117.1,37.1z"/>
		<path class="st3" d="M120,35.8c0-0.3,0-0.6,0-0.9h0.9l0,0.9c0.2-0.6,0.7-0.8,1.1-0.9c0.3,0,0.4,0,0.6,0v0.8c0,0-0.1,0-0.2,0
			c-0.1,0-0.1,0-0.2,0c-1,0-1.2,0.6-1.2,1.4v2.4H120V35.8z"/>
		<path class="st3" d="M123.9,37.3c0,0.9,0.4,1.6,1.3,1.6c0.5,0,1-0.3,1.1-0.9h0.8c0,0.2-0.1,0.6-0.4,0.9c-0.2,0.2-0.6,0.6-1.6,0.6
			c-1.4,0-2.1-0.9-2.1-2.3c0-0.9,0.2-1.6,0.9-2.1c0.4-0.3,1-0.3,1.2-0.3c2,0,2,1.8,2,2.5H123.9z M126.3,36.7c0-0.4-0.1-1.3-1.1-1.3
			c-0.5,0-1.2,0.3-1.2,1.3H126.3z"/>
		<path class="st3" d="M134.1,32.9h0.8v5.8c0,0.1,0,0.5,0,0.7h-0.8l0-0.7c-0.1,0.1-0.2,0.3-0.4,0.5c-0.4,0.3-0.8,0.3-1.1,0.3
			c-0.6,0-1.9-0.3-1.9-2.3c0-1.7,1-2.5,2-2.5c1,0,1.3,0.6,1.4,0.8V32.9z M133.8,35.8c-0.2-0.2-0.5-0.5-1-0.5c-1.2,0-1.2,1.5-1.2,1.8
			c0,0.8,0.2,1.7,1.2,1.7c1.3,0,1.3-1.5,1.3-1.8C134.1,36.4,133.9,36,133.8,35.8z"/>
		<path class="st3" d="M138.4,34.7c1.8,0,2.2,1.4,2.2,2.4c0,1.3-0.7,2.4-2.3,2.4c-1.5,0-2.2-1-2.2-2.4
			C136.1,36,136.6,34.7,138.4,34.7z M138.3,38.9c0.6,0,1.4-0.5,1.4-1.8c0-1.1-0.5-1.7-1.3-1.7c-0.5,0-1.4,0.3-1.4,1.8
			C137,38,137.4,38.9,138.3,38.9z"/>
		<path class="st3" d="M142,35.4l0-0.5h0.8l0,0.7c0.1-0.2,0.4-0.8,1.4-0.8c0.4,0,1.6,0.2,1.6,1.5v3.1H145v-2.9c0-0.3,0-0.6-0.2-0.8
			c-0.2-0.2-0.5-0.3-0.8-0.3c-0.6,0-1.2,0.4-1.2,1.4v2.6H142V35.4z"/>
		<path class="st3" d="M148,37.3c0,0.9,0.4,1.6,1.3,1.6c0.5,0,1-0.3,1.1-0.9h0.8c0,0.2-0.1,0.6-0.4,0.9c-0.2,0.2-0.6,0.6-1.6,0.6
			c-1.4,0-2.1-0.9-2.1-2.3c0-0.9,0.2-1.6,0.9-2.1c0.4-0.3,1-0.3,1.2-0.3c2,0,2,1.8,2,2.5H148z M150.3,36.7c0-0.4-0.1-1.3-1.1-1.3
			c-0.5,0-1.2,0.3-1.2,1.3H150.3z"/>
		<path class="st3" d="M154.9,32.9h1v0.9h-1V32.9z M155,34.8h0.8v4.5H155V34.8z"/>
		<path class="st3" d="M157.5,35.4l0-0.5h0.8l0,0.7c0.1-0.2,0.4-0.8,1.4-0.8c0.4,0,1.6,0.2,1.6,1.5v3.1h-0.9v-2.9
			c0-0.3,0-0.6-0.2-0.8c-0.2-0.2-0.5-0.3-0.8-0.3c-0.6,0-1.2,0.4-1.2,1.4v2.6h-0.8V35.4z"/>
		<path class="st3" d="M168.2,39.4c-0.1-0.2-0.1-0.4-0.1-0.7c-0.4,0.7-1,0.8-1.4,0.8c-1,0-1.6-0.6-1.6-1.3c0-0.4,0.1-0.9,0.8-1.3
			c0.5-0.3,1.2-0.3,1.6-0.3c0.2,0,0.4,0,0.6,0c0-0.6,0-0.8-0.2-1c-0.2-0.2-0.5-0.3-0.8-0.3c-0.9,0-0.9,0.6-0.9,0.8h-0.8
			c0-0.2,0.1-0.5,0.3-0.9c0.3-0.4,1-0.5,1.5-0.5c0.7,0,1.4,0.2,1.6,0.7c0.1,0.3,0.2,0.5,0.2,0.7l0,2.2c0,0.1,0,0.7,0.1,1.1H168.2z
			 M167.6,37.1c-0.3,0-1.6,0-1.6,0.9c0,0.3,0.2,0.8,0.9,0.8c0.4,0,0.8-0.2,1-0.5c0.2-0.3,0.2-0.6,0.2-1.2
			C167.9,37.1,167.8,37.1,167.6,37.1z"/>
		<path class="st3" d="M83.4,46.4c0-0.2,0-0.3,0-0.7h0.9l0,0.7c0.4-0.7,1.2-0.8,1.5-0.8c1,0,1.9,0.7,1.9,2.3c0,1.7-1,2.4-2.1,2.4
			c-0.7,0-1.1-0.3-1.4-0.7v2.2h-0.8V46.4z M85.5,49.7c0.2,0,0.7,0,1-0.4c0.3-0.4,0.4-1.1,0.4-1.4c0-0.8-0.2-1.7-1.2-1.7
			c-1.4,0-1.4,1.4-1.4,1.8C84.2,48.6,84.3,49.7,85.5,49.7z"/>
		<path class="st3" d="M88.9,43.7h0.8v6.5h-0.8V43.7z"/>
		<path class="st3" d="M94.2,50.2c-0.1-0.2-0.1-0.4-0.1-0.7c-0.4,0.7-1,0.8-1.4,0.8c-1,0-1.6-0.6-1.6-1.3c0-0.4,0.1-0.9,0.8-1.3
			c0.5-0.3,1.2-0.3,1.6-0.3c0.2,0,0.4,0,0.6,0c0-0.6,0-0.8-0.2-1c-0.2-0.2-0.5-0.3-0.8-0.3c-0.9,0-0.9,0.6-0.9,0.8h-0.8
			c0-0.2,0.1-0.5,0.3-0.9c0.3-0.4,1-0.5,1.5-0.5c0.7,0,1.4,0.2,1.6,0.7c0.1,0.3,0.2,0.5,0.2,0.7l0,2.2c0,0.1,0,0.7,0.1,1.1H94.2z
			 M93.6,47.9c-0.3,0-1.6,0-1.6,0.9c0,0.3,0.2,0.8,0.9,0.8c0.4,0,0.8-0.2,1-0.5c0.2-0.3,0.2-0.6,0.2-1.2
			C93.9,47.9,93.8,47.9,93.6,47.9z"/>
		<path class="st3" d="M96.5,46.2l0-0.5h0.8l0,0.7c0.1-0.2,0.4-0.8,1.4-0.8c0.4,0,1.6,0.2,1.6,1.5v3.1h-0.9v-2.9
			c0-0.3,0-0.6-0.2-0.8c-0.2-0.2-0.5-0.3-0.8-0.3c-0.6,0-1.2,0.4-1.2,1.4v2.6h-0.8V46.2z"/>
		<path class="st3" d="M102,46.2l0-0.5h0.8l0,0.7c0.1-0.2,0.4-0.8,1.4-0.8c0.4,0,1.6,0.2,1.6,1.5v3.1H105v-2.9c0-0.3,0-0.6-0.2-0.8
			c-0.2-0.2-0.5-0.3-0.8-0.3c-0.6,0-1.2,0.4-1.2,1.4v2.6H102V46.2z"/>
		<path class="st3" d="M107.9,48.1c0,0.9,0.4,1.6,1.3,1.6c0.5,0,1-0.3,1.1-0.9h0.8c0,0.2-0.1,0.6-0.4,0.9c-0.2,0.2-0.6,0.6-1.6,0.6
			c-1.4,0-2.1-0.9-2.1-2.3c0-0.9,0.2-1.6,0.9-2.1c0.4-0.3,1-0.3,1.2-0.3c2,0,2,1.8,2,2.5H107.9z M110.3,47.5c0-0.4-0.1-1.3-1.1-1.3
			c-0.5,0-1.2,0.3-1.2,1.3H110.3z"/>
		<path class="st3" d="M115.6,43.7h0.8v5.8c0,0.1,0,0.5,0,0.7h-0.8l0-0.7c-0.1,0.1-0.2,0.3-0.4,0.5c-0.4,0.3-0.8,0.3-1.1,0.3
			c-0.6,0-1.9-0.3-1.9-2.3c0-1.7,1-2.5,2-2.5c1,0,1.3,0.6,1.4,0.8V43.7z M115.3,46.6c-0.2-0.2-0.5-0.5-1-0.5c-1.2,0-1.2,1.5-1.2,1.8
			c0,0.8,0.2,1.7,1.2,1.7c1.3,0,1.3-1.5,1.3-1.8C115.6,47.2,115.4,46.8,115.3,46.6z"/>
		<path class="st3" d="M122.4,45.5c1.8,0,2.2,1.4,2.2,2.4c0,1.3-0.7,2.4-2.3,2.4c-1.5,0-2.2-1-2.2-2.4
			C120.1,46.8,120.6,45.5,122.4,45.5z M122.3,49.7c0.6,0,1.4-0.5,1.4-1.8c0-1.1-0.5-1.7-1.3-1.7c-0.5,0-1.4,0.3-1.4,1.8
			C121,48.8,121.4,49.7,122.3,49.7z"/>
		<path class="st3" d="M126,46.6c0-0.3,0-0.6,0-0.9h0.9l0,0.9c0.2-0.6,0.7-0.8,1.1-0.9c0.3,0,0.4,0,0.6,0v0.8c0,0-0.1,0-0.2,0
			c-0.1,0-0.1,0-0.2,0c-1,0-1.2,0.6-1.2,1.4v2.4H126V46.6z"/>
		<path class="st3" d="M132.6,43.7h0.8v5.8c0,0.1,0,0.5,0,0.7h-0.8l0-0.7c-0.1,0.1-0.2,0.3-0.4,0.5c-0.4,0.3-0.8,0.3-1.1,0.3
			c-0.6,0-1.9-0.3-1.9-2.3c0-1.7,1-2.5,2-2.5c1,0,1.3,0.6,1.4,0.8V43.7z M132.3,46.6c-0.2-0.2-0.5-0.5-1-0.5c-1.2,0-1.2,1.5-1.2,1.8
			c0,0.8,0.2,1.7,1.2,1.7c1.3,0,1.3-1.5,1.3-1.8C132.6,47.2,132.4,46.8,132.3,46.6z"/>
		<path class="st3" d="M135.4,48.1c0,0.9,0.4,1.6,1.3,1.6c0.5,0,1-0.3,1.1-0.9h0.8c0,0.2-0.1,0.6-0.4,0.9c-0.2,0.2-0.6,0.6-1.6,0.6
			c-1.4,0-2.1-0.9-2.1-2.3c0-0.9,0.2-1.6,0.9-2.1c0.4-0.3,1-0.3,1.2-0.3c2,0,2,1.8,2,2.5H135.4z M137.8,47.5c0-0.4-0.1-1.3-1.1-1.3
			c-0.5,0-1.2,0.3-1.2,1.3H137.8z"/>
		<path class="st3" d="M140,46.6c0-0.3,0-0.6,0-0.9h0.9l0,0.9c0.2-0.6,0.7-0.8,1.1-0.9c0.3,0,0.4,0,0.6,0v0.8c0,0-0.1,0-0.2,0
			c-0.1,0-0.1,0-0.2,0c-1,0-1.2,0.6-1.2,1.4v2.4H140V46.6z"/>
		<path class="st3" d="M143.5,43.7h0.8v6.5h-0.8V43.7z"/>
		<path class="st3" d="M148,50.2l-0.6,1.7h-0.9l0.7-1.7l-1.9-4.5h1l1.4,3.6l1.4-3.6h0.9L148,50.2z"/>
		<path class="st3" d="M153.7,45.6l1.1,3.6l1.1-3.6h1.1l1,3.6l1.1-3.6h0.9l-1.6,4.5h-1l-1.1-3.7l-1.2,3.7h-1l-1.5-4.5H153.7z"/>
		<path class="st3" d="M163.5,50.2c-0.1-0.2-0.1-0.4-0.1-0.7c-0.4,0.7-1,0.8-1.4,0.8c-1,0-1.6-0.6-1.6-1.3c0-0.4,0.1-0.9,0.8-1.3
			c0.5-0.3,1.2-0.3,1.6-0.3c0.2,0,0.4,0,0.6,0c0-0.6,0-0.8-0.2-1c-0.2-0.2-0.5-0.3-0.8-0.3c-0.9,0-0.9,0.6-0.9,0.8h-0.8
			c0-0.2,0.1-0.5,0.3-0.9c0.3-0.4,1-0.5,1.5-0.5c0.7,0,1.4,0.2,1.6,0.7c0.1,0.3,0.2,0.5,0.2,0.7l0,2.2c0,0.1,0,0.7,0.1,1.1H163.5z
			 M162.9,47.9c-0.3,0-1.6,0-1.6,0.9c0,0.3,0.2,0.8,0.9,0.8c0.4,0,0.8-0.2,1-0.5c0.2-0.3,0.2-0.6,0.2-1.2
			C163.3,47.9,163.1,47.9,162.9,47.9z"/>
		<path class="st3" d="M167.8,50.2l-0.6,1.7h-0.9l0.7-1.7l-1.9-4.5h1l1.4,3.6l1.4-3.6h0.9L167.8,50.2z"/>
		<path class="st3" d="M83.4,54.5h0.8V61h-0.8V54.5z"/>
		<path class="st3" d="M85.9,54.5h1v0.9h-1V54.5z M85.9,56.4h0.8V61h-0.8V56.4z"/>
		<path class="st3" d="M88.4,54.4h0.8v3.9l1.7-1.8H92l-1.9,1.9l2,2.6H91l-1.8-2.4V61h-0.8V54.4z"/>
		<path class="st3" d="M93.6,58.9c0,0.9,0.4,1.6,1.3,1.6c0.5,0,1-0.3,1.1-0.9h0.8c0,0.2-0.1,0.6-0.4,0.9c-0.2,0.2-0.6,0.6-1.6,0.6
			c-1.4,0-2.1-0.9-2.1-2.3c0-0.9,0.2-1.6,0.9-2.1c0.4-0.3,1-0.3,1.2-0.3c2,0,2,1.8,2,2.5H93.6z M96,58.3c0-0.4-0.1-1.3-1.1-1.3
			c-0.5,0-1.2,0.3-1.2,1.3H96z"/>
		<path class="st3" d="M103.4,61c-0.1-0.2-0.1-0.4-0.1-0.7c-0.4,0.7-1,0.8-1.4,0.8c-1,0-1.6-0.6-1.6-1.3c0-0.4,0.1-0.9,0.8-1.3
			c0.5-0.3,1.2-0.3,1.6-0.3c0.2,0,0.4,0,0.6,0c0-0.6,0-0.8-0.2-1c-0.2-0.2-0.5-0.3-0.8-0.3c-0.9,0-0.9,0.6-0.9,0.8h-0.8
			c0-0.2,0.1-0.5,0.3-0.9c0.3-0.4,1-0.5,1.5-0.5c0.7,0,1.4,0.2,1.6,0.7c0.1,0.3,0.2,0.5,0.2,0.7l0,2.2c0,0.1,0,0.7,0.1,1.1H103.4z
			 M102.8,58.7c-0.3,0-1.6,0-1.6,0.9c0,0.3,0.2,0.8,0.9,0.8c0.4,0,0.8-0.2,1-0.5c0.2-0.3,0.2-0.6,0.2-1.2
			C103.1,58.7,103,58.7,102.8,58.7z"/>
		<path class="st3" d="M107.4,56.4h0.8v-0.9l0.8-0.3v1.2h1V57h-1v2.7c0,0.2,0,0.6,0.6,0.6c0.2,0,0.3,0,0.4,0V61
			c-0.2,0-0.4,0.1-0.7,0.1c-0.8,0-1.1-0.2-1.1-1v-3h-0.8V56.4z"/>
		<path class="st3" d="M113.1,56.3c1.8,0,2.2,1.4,2.2,2.4c0,1.3-0.7,2.4-2.3,2.4c-1.5,0-2.2-1-2.2-2.4
			C110.8,57.6,111.3,56.3,113.1,56.3z M113,60.5c0.6,0,1.4-0.5,1.4-1.8c0-1.1-0.5-1.7-1.3-1.7c-0.5,0-1.4,0.3-1.4,1.8
			C111.7,59.6,112.1,60.5,113,60.5z"/>
		<path class="st3" d="M116.2,58.3h2.3v0.7h-2.3V58.3z"/>
		<path class="st3" d="M122.8,54.5h0.8v5.8c0,0.1,0,0.5,0,0.7h-0.8l0-0.7c-0.1,0.1-0.2,0.3-0.4,0.5c-0.4,0.3-0.8,0.3-1.1,0.3
			c-0.6,0-1.9-0.3-1.9-2.3c0-1.7,1-2.5,2-2.5c1,0,1.3,0.6,1.4,0.8V54.5z M122.4,57.4c-0.2-0.2-0.5-0.5-1-0.5c-1.2,0-1.2,1.5-1.2,1.8
			c0,0.8,0.2,1.7,1.2,1.7c1.3,0,1.3-1.5,1.3-1.8C122.8,58,122.6,57.6,122.4,57.4z"/>
		<path class="st3" d="M127.1,56.3c1.8,0,2.2,1.4,2.2,2.4c0,1.3-0.7,2.4-2.3,2.4c-1.5,0-2.2-1-2.2-2.4
			C124.8,57.6,125.3,56.3,127.1,56.3z M127,60.5c0.6,0,1.4-0.5,1.4-1.8c0-1.1-0.5-1.7-1.3-1.7c-0.5,0-1.4,0.3-1.4,1.8
			C125.7,59.6,126.1,60.5,127,60.5z"/>
		<path class="st3" d="M133.1,54.5h0.8V61h-0.8V54.5z"/>
		<path class="st3" d="M135.5,54.5h1v0.9h-1V54.5z M135.6,56.4h0.8V61h-0.8V56.4z"/>
		<path class="st3" d="M138.6,59.6c0,0.3,0.2,0.8,1,0.8c0.4,0,0.6-0.1,0.8-0.3c0.1-0.1,0.1-0.3,0.1-0.4c0-0.4-0.3-0.5-1-0.7
			c-0.9-0.2-1.7-0.4-1.7-1.4c0-0.8,0.7-1.4,1.8-1.4c0.6,0,1.4,0.2,1.6,0.7c0.1,0.3,0.1,0.5,0.1,0.7h-0.9c0-0.7-0.6-0.7-0.9-0.7
			c-0.1,0-0.9,0-0.9,0.6c0,0.4,0.4,0.5,0.6,0.6c1.3,0.3,1.5,0.4,1.8,0.6c0.3,0.2,0.3,0.5,0.3,0.8c0,0.5-0.3,0.9-0.6,1.1
			c-0.4,0.2-0.9,0.3-1.3,0.3c-0.9,0-1.8-0.4-1.8-1.5H138.6z"/>
		<path class="st3" d="M141.9,56.4h0.8v-0.9l0.8-0.3v1.2h1V57h-1v2.7c0,0.2,0,0.6,0.6,0.6c0.2,0,0.3,0,0.4,0V61
			c-0.2,0-0.4,0.1-0.7,0.1c-0.8,0-1.1-0.2-1.1-1v-3h-0.8V56.4z"/>
	</g>
</g>
<g>
	<g id="l-music">
		<circle class="st0" cx="48.9" cy="329.1" r="25.1"/>
		<g>
			<path class="st9" d="M44.3,316.1v24.7c0,2.6-2.1,4.7-4.7,4.7h-1.5c-2.6,0-4.7-2.1-4.7-4.7v-24.7H44.3z"/>
			<path class="st9" d="M55.1,316.1v24.7c0,2.6-2.1,4.7-4.7,4.7H49c-2.6,0-4.7-2.1-4.7-4.7v-24.7H55.1z"/>
			<path class="st9" d="M65.9,316.1v24.7c0,2.6-2.1,4.7-4.7,4.7h-1.5c-2.6,0-4.7-2.1-4.7-4.7v-24.7H65.9z"/>
			<rect x="41.9" y="316.1" class="st3" width="4.5" height="14.6"/>
			<rect x="52.2" y="316.1" class="st3" width="4.5" height="14.6"/>
		</g>
	</g>
	<g>
		<path class="st3" d="M82.5,321.3v-8.7h2.9l1.4,5.9h0l1.4-5.9h2.8v8.7h-1.8v-6.7h0l-1.7,6.7h-1.7l-1.6-6.7h0v6.7H82.5z"/>
		<path class="st3" d="M98.4,312.6v6.1c0,1.3-0.7,2.7-2.9,2.7c-2,0-3-1-3-2.7v-6.1h1.8v6c0,1.1,0.5,1.5,1.1,1.5
			c0.8,0,1.2-0.5,1.2-1.5v-6H98.4z"/>
		<path class="st3" d="M102.2,321.4c-2.2,0-2.7-1.3-2.6-2.8h1.8c0,0.8,0,1.5,1,1.5c0.6,0,0.9-0.4,0.9-1c0-1.6-3.6-1.7-3.6-4.2
			c0-1.4,0.6-2.4,2.9-2.4c1.8,0,2.6,0.8,2.5,2.6h-1.8c0-0.6-0.1-1.3-0.8-1.3c-0.6,0-0.9,0.3-0.9,0.9c0,1.6,3.6,1.5,3.6,4.2
			C105.2,321.2,103.6,321.4,102.2,321.4z"/>
		<path class="st3" d="M106.5,321.3v-8.7h1.8v8.7H106.5z"/>
		<path class="st3" d="M109.8,317c0-2.3,0-4.5,3-4.5c1.8,0,2.6,1,2.5,2.9h-1.8c0-1.2-0.2-1.6-0.7-1.6c-1,0-1.2,1-1.2,3.2
			s0.1,3.2,1.2,3.2c0.8,0,0.8-1.1,0.8-1.8h1.8c0,2.3-0.9,3.1-2.6,3.1C109.8,321.4,109.8,319.2,109.8,317z"/>
		<path class="st3" d="M119.1,317c0-2.3,0-4.5,3-4.5c1.8,0,2.6,1,2.5,2.9h-1.8c0-1.2-0.2-1.6-0.7-1.6c-1,0-1.2,1-1.2,3.2
			s0.1,3.2,1.2,3.2c0.8,0,0.8-1.1,0.8-1.8h1.8c0,2.3-0.9,3.1-2.6,3.1C119.1,321.4,119.1,319.2,119.1,317z"/>
		<path class="st3" d="M127.7,321.3h-1.8v-8.7h3.3c1.2,0,2,0.8,2,2.3c0,1.1-0.4,1.9-1.6,2.1v0c0.4,0,1.6,0.1,1.6,1.7
			c0,0.6,0,2.2,0.2,2.5h-1.8c-0.2-0.5-0.2-1.1-0.2-1.7c0-1,0.1-1.9-1.3-1.9h-0.5V321.3z M127.7,316.4h0.8c0.7,0,0.9-0.7,0.9-1.3
			c0-0.8-0.3-1.1-0.9-1.1h-0.8V316.4z"/>
		<path class="st3" d="M132.6,321.3v-8.7h1.8v8.7H132.6z"/>
		<path class="st3" d="M141,312.6v1.4h-2v7.2h-1.8v-7.2h-2v-1.4H141z"/>
		<path class="st3" d="M141.9,321.3v-8.7h1.8v8.7H141.9z"/>
		<path class="st3" d="M145.1,317c0-2.3,0-4.5,3-4.5c1.8,0,2.6,1,2.5,2.9h-1.8c0-1.2-0.2-1.6-0.7-1.6c-1,0-1.2,1-1.2,3.2
			s0.1,3.2,1.2,3.2c0.8,0,0.8-1.1,0.8-1.8h1.8c0,2.3-0.9,3.1-2.6,3.1C145.1,321.4,145.1,319.2,145.1,317z"/>
		<path class="st3" d="M82.5,325.1h1.9c0.7,0,1.2,0,1.6,0.5c0.3,0.3,0.4,0.7,0.4,1.1c0,0.4-0.1,0.8-0.5,1.1
			c-0.3,0.3-0.7,0.5-1.7,0.5h-0.9v2.6h-0.8V325.1z M83.3,327.7h1c0.5,0,1.3,0,1.3-1c0-0.9-0.8-0.9-1.2-0.9h-1.1V327.7z"/>
		<path class="st3" d="M87.3,327.7c0-0.3,0-0.6,0-0.8H88l0,0.8c0.1-0.6,0.6-0.7,1-0.8c0.2,0,0.4,0,0.5,0v0.7c0,0-0.1,0-0.1,0
			c-0.1,0-0.1,0-0.2,0c-0.9,0-1.1,0.5-1.1,1.2v2.1h-0.8V327.7z"/>
		<path class="st3" d="M90.8,329c0,0.8,0.3,1.4,1.2,1.4c0.5,0,0.9-0.3,0.9-0.8h0.8c0,0.2-0.1,0.5-0.3,0.8c-0.2,0.2-0.6,0.5-1.4,0.5
			c-1.3,0-1.9-0.8-1.9-2.1c0-0.8,0.2-1.4,0.8-1.9c0.4-0.3,0.9-0.3,1.1-0.3c1.8,0,1.8,1.6,1.7,2.2H90.8z M92.9,328.5
			c0-0.4-0.1-1.2-1-1.2c-0.5,0-1.1,0.3-1.1,1.2H92.9z"/>
		<path class="st3" d="M96.8,325.7c-0.1,0-0.3,0-0.4,0c-0.6,0-0.6,0.3-0.6,0.6v0.6h0.9v0.5h-0.9v3.5H95v-3.5h-0.8v-0.5H95v-0.5
			c0-0.6,0-0.8,0.2-1c0.2-0.3,0.5-0.4,1-0.4c0.2,0,0.5,0,0.6,0.1V325.7z"/>
		<path class="st3" d="M97.9,329c0,0.8,0.3,1.4,1.2,1.4c0.5,0,0.9-0.3,0.9-0.8h0.8c0,0.2-0.1,0.5-0.3,0.8c-0.2,0.2-0.6,0.5-1.4,0.5
			c-1.3,0-1.9-0.8-1.9-2.1c0-0.8,0.2-1.4,0.8-1.9c0.4-0.3,0.9-0.3,1.1-0.3c1.8,0,1.8,1.6,1.7,2.2H97.9z M100,328.5
			c0-0.4-0.1-1.2-1-1.2c-0.5,0-1.1,0.3-1.1,1.2H100z"/>
		<path class="st3" d="M101.9,327.7c0-0.3,0-0.6,0-0.8h0.8l0,0.8c0.1-0.6,0.6-0.7,1-0.8c0.2,0,0.4,0,0.5,0v0.7c0,0-0.1,0-0.1,0
			c-0.1,0-0.1,0-0.2,0c-0.9,0-1.1,0.5-1.1,1.2v2.1h-0.8V327.7z"/>
		<path class="st3" d="M105.6,329.7c0,0.3,0.2,0.7,0.9,0.7c0.3,0,0.5-0.1,0.7-0.3c0.1-0.1,0.1-0.2,0.1-0.4c0-0.4-0.3-0.5-0.9-0.6
			c-0.8-0.2-1.5-0.4-1.5-1.2c0-0.7,0.6-1.2,1.6-1.2c0.5,0,1.2,0.1,1.4,0.6c0.1,0.2,0.1,0.4,0.1,0.6h-0.8c0-0.6-0.5-0.7-0.8-0.7
			c-0.1,0-0.8,0-0.8,0.6c0,0.4,0.4,0.5,0.6,0.5c1.1,0.3,1.4,0.3,1.6,0.6c0.2,0.2,0.3,0.5,0.3,0.7c0,0.4-0.2,0.8-0.5,1
			c-0.4,0.2-0.8,0.3-1.2,0.3c-0.8,0-1.6-0.3-1.6-1.3H105.6z"/>
		<path class="st3" d="M113.7,328.2c0-0.2-0.1-0.8-0.8-0.8c-1,0-1,1.2-1,1.5c0,0.8,0.2,1.6,1,1.6c0.6,0,0.9-0.5,0.9-0.9h0.8
			c0,0.8-0.6,1.4-1.6,1.4c-0.3,0-0.9-0.1-1.3-0.5c-0.2-0.3-0.5-0.7-0.5-1.5c0-1.7,1-2.2,1.8-2.2c0.3,0,0.9,0.1,1.2,0.5
			c0.3,0.3,0.3,0.7,0.3,0.9H113.7z"/>
		<path class="st3" d="M115.4,325.1h0.8v5.8h-0.8V325.1z"/>
		<path class="st3" d="M120.1,330.9c-0.1-0.2-0.1-0.4-0.1-0.6c-0.4,0.7-0.9,0.7-1.2,0.7c-0.9,0-1.4-0.5-1.4-1.2
			c0-0.3,0.1-0.8,0.7-1.2c0.4-0.2,1.1-0.3,1.4-0.3c0.2,0,0.3,0,0.5,0c0-0.5,0-0.7-0.1-0.9c-0.2-0.2-0.5-0.3-0.7-0.3
			c-0.8,0-0.8,0.5-0.8,0.7h-0.8c0-0.2,0-0.5,0.3-0.8c0.3-0.3,0.9-0.4,1.3-0.4c0.6,0,1.2,0.2,1.4,0.6c0.1,0.2,0.1,0.4,0.1,0.6l0,1.9
			c0,0.1,0,0.6,0.1,1H120.1z M119.5,328.9c-0.3,0-1.4,0-1.4,0.8c0,0.3,0.2,0.7,0.8,0.7c0.4,0,0.7-0.2,0.9-0.4
			c0.2-0.3,0.2-0.5,0.2-1.1C119.8,328.9,119.7,328.9,119.5,328.9z"/>
		<path class="st3" d="M122.5,329.7c0,0.3,0.2,0.7,0.9,0.7c0.3,0,0.5-0.1,0.7-0.3c0.1-0.1,0.1-0.2,0.1-0.4c0-0.4-0.3-0.5-0.9-0.6
			c-0.8-0.2-1.5-0.4-1.5-1.2c0-0.7,0.6-1.2,1.6-1.2c0.5,0,1.2,0.1,1.4,0.6c0.1,0.2,0.1,0.4,0.1,0.6h-0.8c0-0.6-0.5-0.7-0.8-0.7
			c-0.1,0-0.8,0-0.8,0.6c0,0.4,0.4,0.5,0.6,0.5c1.1,0.3,1.4,0.3,1.6,0.6c0.2,0.2,0.3,0.5,0.3,0.7c0,0.4-0.2,0.8-0.5,1
			c-0.4,0.2-0.8,0.3-1.2,0.3c-0.8,0-1.6-0.3-1.6-1.3H122.5z"/>
		<path class="st3" d="M126.5,329.7c0,0.3,0.2,0.7,0.9,0.7c0.3,0,0.5-0.1,0.7-0.3c0.1-0.1,0.1-0.2,0.1-0.4c0-0.4-0.3-0.5-0.9-0.6
			c-0.8-0.2-1.5-0.4-1.5-1.2c0-0.7,0.6-1.2,1.6-1.2c0.5,0,1.2,0.1,1.4,0.6c0.1,0.2,0.1,0.4,0.1,0.6h-0.8c0-0.6-0.5-0.7-0.8-0.7
			c-0.1,0-0.8,0-0.8,0.6c0,0.4,0.4,0.5,0.6,0.5c1.1,0.3,1.4,0.3,1.6,0.6c0.2,0.2,0.3,0.5,0.3,0.7c0,0.4-0.2,0.8-0.5,1
			c-0.4,0.2-0.8,0.3-1.2,0.3c-0.8,0-1.6-0.3-1.6-1.3H126.5z"/>
		<path class="st3" d="M130,325.1h0.9v0.8H130V325.1z M130.1,326.9h0.8v4h-0.8V326.9z"/>
		<path class="st3" d="M134.6,328.2c0-0.2-0.1-0.8-0.8-0.8c-1,0-1,1.2-1,1.5c0,0.8,0.2,1.6,1,1.6c0.6,0,0.9-0.5,0.9-0.9h0.8
			c0,0.8-0.6,1.4-1.6,1.4c-0.3,0-0.9-0.1-1.3-0.5c-0.2-0.3-0.5-0.7-0.5-1.5c0-1.7,1-2.2,1.8-2.2c0.3,0,0.9,0.1,1.2,0.5
			c0.3,0.3,0.3,0.7,0.3,0.9H134.6z"/>
		<path class="st3" d="M138.7,330.9c-0.1-0.2-0.1-0.4-0.1-0.6c-0.4,0.7-0.9,0.7-1.2,0.7c-0.9,0-1.4-0.5-1.4-1.2
			c0-0.3,0.1-0.8,0.7-1.2c0.4-0.2,1.1-0.3,1.4-0.3c0.2,0,0.3,0,0.5,0c0-0.5,0-0.7-0.1-0.9c-0.2-0.2-0.5-0.3-0.7-0.3
			c-0.8,0-0.8,0.5-0.8,0.7h-0.8c0-0.2,0-0.5,0.3-0.8c0.3-0.3,0.9-0.4,1.3-0.4c0.6,0,1.2,0.2,1.4,0.6c0.1,0.2,0.1,0.4,0.1,0.6l0,1.9
			c0,0.1,0,0.6,0.1,1H138.7z M138.2,328.9c-0.3,0-1.4,0-1.4,0.8c0,0.3,0.2,0.7,0.8,0.7c0.4,0,0.7-0.2,0.9-0.4
			c0.2-0.3,0.2-0.5,0.2-1.1C138.5,328.9,138.4,328.9,138.2,328.9z"/>
		<path class="st3" d="M140.7,325.1h0.8v5.8h-0.8V325.1z"/>
		<path class="st3" d="M145.2,327.4l0-0.5h0.8v0.6c0.4-0.6,0.9-0.7,1.3-0.7c0.9,0,1.2,0.5,1.3,0.8c0.1-0.2,0.5-0.8,1.4-0.8
			c0.6,0,1.5,0.2,1.5,1.4v2.7h-0.8v-2.6c0-0.4-0.1-0.5-0.1-0.6c-0.1-0.2-0.4-0.4-0.8-0.4c-0.5,0-0.8,0.3-0.9,0.4
			c-0.2,0.2-0.2,0.7-0.2,0.9v2.2h-0.8v-2.7c0-0.5-0.3-0.9-0.9-0.9c-0.5,0-0.8,0.3-0.9,0.4c-0.2,0.2-0.2,0.6-0.2,0.8v2.3h-0.8V327.4z
			"/>
		<path class="st3" d="M153.4,326.9v2.6c0,0.4,0.1,0.9,0.9,0.9c0.4,0,0.7-0.1,0.9-0.4c0.2-0.2,0.2-0.6,0.2-0.8v-2.3h0.8v3.3
			c0,0.1,0,0.5,0,0.8h-0.8l0-0.7c-0.1,0.3-0.4,0.7-1.3,0.7c-1,0-1.5-0.6-1.5-1.4v-2.7H153.4z"/>
		<path class="st3" d="M158,329.7c0,0.3,0.2,0.7,0.9,0.7c0.3,0,0.5-0.1,0.7-0.3c0.1-0.1,0.1-0.2,0.1-0.4c0-0.4-0.3-0.5-0.9-0.6
			c-0.8-0.2-1.5-0.4-1.5-1.2c0-0.7,0.6-1.2,1.6-1.2c0.5,0,1.2,0.1,1.4,0.6c0.1,0.2,0.1,0.4,0.1,0.6h-0.8c0-0.6-0.5-0.7-0.8-0.7
			c-0.1,0-0.8,0-0.8,0.6c0,0.4,0.4,0.5,0.6,0.5c1.1,0.3,1.4,0.3,1.6,0.6c0.2,0.2,0.3,0.5,0.3,0.7c0,0.4-0.2,0.8-0.5,1
			c-0.4,0.2-0.8,0.3-1.2,0.3c-0.8,0-1.6-0.3-1.6-1.3H158z"/>
		<path class="st3" d="M161.5,325.1h0.9v0.8h-0.9V325.1z M161.6,326.9h0.8v4h-0.8V326.9z"/>
		<path class="st3" d="M166.1,328.2c0-0.2-0.1-0.8-0.8-0.8c-1,0-1,1.2-1,1.5c0,0.8,0.2,1.6,1,1.6c0.6,0,0.9-0.5,0.9-0.9h0.8
			c0,0.8-0.6,1.4-1.6,1.4c-0.3,0-0.9-0.1-1.3-0.5c-0.2-0.3-0.5-0.7-0.5-1.5c0-1.7,1-2.2,1.8-2.2c0.3,0,0.9,0.1,1.2,0.5
			c0.3,0.3,0.3,0.7,0.3,0.9H166.1z"/>
	</g>
</g>
<g>
	<g id="l-rational">
		<circle class="st0" cx="50.2" cy="93.8" r="25.1"/>
		<g id="rational_1_">
			<path class="st1" d="M48.9,108.2c0.7,0.6,1.7,0.6,2.3,0c5.3-4.4,12.5-13.3,12.4-17.8c0-3.5-0.7-5.1-4.8-7.2
				c-2.7-1.3-6.1,1.6-7.8,3.2c-0.5,0.5-1.4,0.5-1.9,0c-1.6-1.6-4-4.5-7.8-3.2c-3.8,1.3-4.8,3-4.8,7.2
				C36.5,95.2,43.7,103.8,48.9,108.2z"/>
			<path class="st10" d="M67.7,81.2l-3.3,2.8c2,2.8,3.1,6.2,3.1,9.9c0,9.5-7.7,17.2-17.2,17.2c-4.8,0-9.1-1.9-12.2-5.1l-3.1,2.6
				c-0.1,0.1-0.2,0.1-0.3,0.2c3.9,4.1,9.4,6.6,15.5,6.6c11.8,0,21.5-9.6,21.5-21.5C71.8,89.1,70.3,84.7,67.7,81.2z M33.2,93.8
				c0-9.5,7.7-17.2,17.2-17.2c4.9,0,9.4,2.1,12.5,5.4l3.3-2.8c-3.9-4.3-9.6-7-15.8-7c-11.8,0-21.5,9.6-21.5,21.5
				c0,4.9,1.7,9.5,4.5,13.1c0.1-0.1,0.1-0.2,0.2-0.2l3-2.6C34.5,101.3,33.2,97.7,33.2,93.8z"/>
			<g>
				<path class="st3" d="M34.3,109.5c-0.4,0-0.8-0.2-1.1-0.5l-0.1-0.1c-0.4-0.5-0.4-1.1-0.1-1.7c0.1-0.1,0.2-0.2,0.3-0.3l33.2-27.9
					c0.2-0.2,0.6-0.3,0.9-0.3c0.4,0,0.8,0.2,1.1,0.5l0.1,0.1c0.2,0.3,0.4,0.6,0.3,1c0,0.4-0.2,0.7-0.5,0.9l-33.2,27.9
					c-0.1,0.1-0.2,0.1-0.3,0.2C34.7,109.5,34.5,109.5,34.3,109.5z"/>
				<path class="st3" d="M67.4,79c0.3,0,0.6,0.1,0.9,0.4l0.1,0.1c0.4,0.5,0.3,1.2-0.1,1.6l-0.7,0.6l-3.3,2.8l-26.2,22L35,109
					c-0.1,0.1-0.2,0.1-0.3,0.2c-0.1,0.1-0.3,0.1-0.5,0.1c-0.3,0-0.6-0.1-0.9-0.4l-0.1-0.1c-0.3-0.4-0.3-0.9-0.1-1.3
					c0.1-0.1,0.1-0.2,0.2-0.2l3-2.6l26.3-22l3.3-2.8l0.6-0.5C66.9,79.1,67.2,79,67.4,79 M67.4,78.5c-0.4,0-0.8,0.1-1.1,0.4l-0.6,0.5
					l-3.3,2.8l-26.3,22l-3,2.6c-0.1,0.1-0.2,0.2-0.3,0.4c-0.4,0.6-0.3,1.4,0.1,2l0.1,0.1c0.3,0.4,0.8,0.6,1.3,0.6
					c0.2,0,0.5,0,0.7-0.1c0.1-0.1,0.3-0.1,0.4-0.2l3.1-2.6l26.2-22l3.3-2.8l0.7-0.6c0.3-0.3,0.6-0.7,0.6-1.1c0-0.4-0.1-0.9-0.4-1.2
					l-0.1-0.1C68.4,78.7,67.9,78.5,67.4,78.5L67.4,78.5z"/>
			</g>
		</g>
	</g>
	<g>
		<path class="st3" d="M84.5,90.1h-1.8v-8.7h3.3c1.2,0,2,0.8,2,2.3c0,1.1-0.4,1.9-1.6,2.1v0c0.4,0,1.6,0.1,1.6,1.7
			c0,0.6,0,2.2,0.2,2.5h-1.8c-0.2-0.5-0.2-1.1-0.2-1.7c0-1,0.1-1.9-1.3-1.9h-0.5V90.1z M84.5,85.2h0.8c0.7,0,0.9-0.7,0.9-1.3
			c0-0.8-0.3-1.1-0.9-1.1h-0.8V85.2z"/>
		<path class="st3" d="M88.8,90.1l2.4-8.7h2.4l2.4,8.7H94l-0.5-1.9H91l-0.5,1.9H88.8z M92.3,83.2L92.3,83.2l-0.9,3.7h1.7L92.3,83.2z
			"/>
		<path class="st3" d="M101.2,81.5v1.4h-2v7.2h-1.8v-7.2h-2v-1.4H101.2z"/>
		<path class="st3" d="M102,90.1v-8.7h1.8v8.7H102z"/>
		<path class="st3" d="M105.3,85.8c0-2.3,0-4.5,3-4.5s3,2.2,3,4.5c0,2.3,0,4.5-3,4.5S105.3,88.1,105.3,85.8z M109.4,85.8
			c0-2.2-0.1-3.2-1.2-3.2c-1,0-1.2,1-1.2,3.2s0.1,3.2,1.2,3.2C109.3,89,109.4,88,109.4,85.8z"/>
		<path class="st3" d="M112.7,90.1v-8.7h2.4l2.3,6h0v-6h1.7v8.7h-2.4l-2.4-6.3h0v6.3H112.7z"/>
		<path class="st3" d="M120.1,90.1l2.4-8.7h2.4l2.4,8.7h-1.9l-0.5-1.9h-2.5l-0.5,1.9H120.1z M123.5,83.2L123.5,83.2l-0.9,3.7h1.7
			L123.5,83.2z"/>
		<path class="st3" d="M128.1,90.1v-8.7h1.8v7.2h2.7v1.4H128.1z"/>
		<path class="st3" d="M82.8,94h3.4v0.7h-2.6v1.8H86v0.7h-2.5v2.6h-0.8V94z"/>
		<path class="st3" d="M87.4,97.9c0,0.8,0.3,1.4,1.2,1.4c0.5,0,0.9-0.3,0.9-0.8h0.8c0,0.2-0.1,0.5-0.3,0.8c-0.2,0.2-0.6,0.5-1.4,0.5
			c-1.3,0-1.9-0.8-1.9-2.1c0-0.8,0.2-1.4,0.8-1.9c0.4-0.3,0.9-0.3,1.1-0.3c1.8,0,1.8,1.6,1.7,2.2H87.4z M89.6,97.3
			c0-0.4-0.1-1.2-1-1.2c-0.5,0-1.1,0.3-1.1,1.2H89.6z"/>
		<path class="st3" d="M91.9,97.9c0,0.8,0.3,1.4,1.2,1.4c0.5,0,0.9-0.3,0.9-0.8h0.8c0,0.2-0.1,0.5-0.3,0.8c-0.2,0.2-0.6,0.5-1.4,0.5
			c-1.3,0-1.9-0.8-1.9-2.1c0-0.8,0.2-1.4,0.8-1.9c0.4-0.3,0.9-0.3,1.1-0.3c1.8,0,1.8,1.6,1.7,2.2H91.9z M94,97.3
			c0-0.4-0.1-1.2-1-1.2c-0.5,0-1.1,0.3-1.1,1.2H94z"/>
		<path class="st3" d="M95.9,94h0.8v5.8h-0.8V94z"/>
		<path class="st3" d="M98,94h0.9v0.8H98V94z M98.1,95.7h0.8v4h-0.8V95.7z"/>
		<path class="st3" d="M100.4,96.2l0-0.5h0.8l0,0.6c0.1-0.2,0.4-0.7,1.3-0.7c0.4,0,1.5,0.1,1.5,1.4v2.7h-0.8v-2.6
			c0-0.3,0-0.5-0.2-0.7c-0.2-0.2-0.5-0.3-0.7-0.3c-0.5,0-1,0.4-1,1.2v2.3h-0.8V96.2z"/>
		<path class="st3" d="M105.9,100.1c0,0.4,0.2,0.8,0.9,0.8c1,0,1.1-0.8,1.1-1.8c-0.3,0.7-1.1,0.7-1.3,0.7c-0.4,0-0.9-0.1-1.2-0.5
			c-0.3-0.4-0.5-0.9-0.5-1.5c0-1.4,0.8-2,1.8-2c0.8,0,1.1,0.4,1.3,0.6l0-0.6h0.7l0,0.7l0,2.5c0,1,0,1.4-0.2,1.7
			c-0.3,0.6-1.1,0.7-1.7,0.7c-1.6,0-1.7-0.8-1.7-1.3H105.9z M107.7,98.7c0.2-0.2,0.3-0.4,0.3-1.2c0-0.5-0.1-0.8-0.3-1
			c-0.2-0.2-0.5-0.4-0.9-0.4c-1,0-1.1,1-1.1,1.5c0,0.6,0.2,1.4,1.1,1.4C107.3,99.1,107.5,99,107.7,98.7z"/>
		<path class="st3" d="M110.5,98.6c0,0.3,0.2,0.7,0.9,0.7c0.3,0,0.5-0.1,0.7-0.3c0.1-0.1,0.1-0.2,0.1-0.4c0-0.4-0.3-0.5-0.9-0.6
			c-0.8-0.2-1.5-0.4-1.5-1.2c0-0.7,0.6-1.2,1.6-1.2c0.5,0,1.2,0.1,1.4,0.6c0.1,0.2,0.1,0.4,0.1,0.6h-0.8c0-0.6-0.5-0.7-0.8-0.7
			c-0.1,0-0.8,0-0.8,0.6c0,0.4,0.4,0.5,0.6,0.5c1.1,0.3,1.4,0.3,1.6,0.6c0.2,0.2,0.3,0.5,0.3,0.7c0,0.4-0.2,0.8-0.5,1
			c-0.4,0.2-0.8,0.3-1.2,0.3c-0.8,0-1.6-0.3-1.6-1.3H110.5z"/>
		<path class="st3" d="M119.1,94h0.8v5.1c0,0.1,0,0.4,0,0.6h-0.8l0-0.6c-0.1,0.1-0.2,0.3-0.4,0.4c-0.3,0.2-0.7,0.3-1,0.3
			c-0.5,0-1.7-0.3-1.7-2c0-1.5,0.9-2.2,1.8-2.2c0.9,0,1.2,0.5,1.2,0.7V94z M118.8,96.6c-0.2-0.2-0.5-0.4-0.9-0.4
			c-1.1,0-1.1,1.3-1.1,1.6c0,0.7,0.2,1.5,1.1,1.5c1.2,0,1.2-1.3,1.2-1.6C119.1,97.1,119,96.8,118.8,96.6z"/>
		<path class="st3" d="M123,95.6c1.6,0,2,1.3,2,2.1c0,1.2-0.7,2.2-2,2.2c-1.3,0-2-0.9-2-2.1C120.9,96.8,121.4,95.6,123,95.6z
			 M122.9,99.3c0.6,0,1.2-0.4,1.2-1.6c0-1-0.5-1.5-1.2-1.5c-0.5,0-1.3,0.3-1.3,1.6C121.7,98.6,122.1,99.3,122.9,99.3z"/>
		<path class="st3" d="M128.4,96.2l0-0.5h0.8l0,0.6c0.1-0.2,0.4-0.7,1.3-0.7c0.4,0,1.5,0.1,1.5,1.4v2.7h-0.8v-2.6
			c0-0.3,0-0.5-0.2-0.7c-0.2-0.2-0.5-0.3-0.7-0.3c-0.5,0-1,0.4-1,1.2v2.3h-0.8V96.2z"/>
		<path class="st3" d="M135,95.6c1.6,0,2,1.3,2,2.1c0,1.2-0.7,2.2-2,2.2c-1.3,0-2-0.9-2-2.1C132.9,96.8,133.4,95.6,135,95.6z
			 M134.9,99.3c0.6,0,1.2-0.4,1.2-1.6c0-1-0.5-1.5-1.2-1.5c-0.5,0-1.3,0.3-1.3,1.6C133.7,98.6,134.1,99.3,134.9,99.3z"/>
		<path class="st3" d="M137.5,95.7h0.7v-0.8l0.7-0.2v1.1h0.9v0.6H139v2.4c0,0.2,0,0.5,0.5,0.5c0.2,0,0.3,0,0.4,0v0.6
			c-0.1,0-0.4,0-0.6,0c-0.7,0-1-0.2-1-0.9v-2.7h-0.7V95.7z"/>
		<path class="st3" d="M143.7,100.1c0,0.4,0.2,0.8,0.9,0.8c1,0,1.1-0.8,1.1-1.8c-0.3,0.7-1.1,0.7-1.3,0.7c-0.4,0-0.9-0.1-1.2-0.5
			c-0.3-0.4-0.5-0.9-0.5-1.5c0-1.4,0.8-2,1.8-2c0.8,0,1.1,0.4,1.3,0.6l0-0.6h0.7l0,0.7l0,2.5c0,1,0,1.4-0.2,1.7
			c-0.3,0.6-1.1,0.7-1.7,0.7c-1.6,0-1.7-0.8-1.7-1.3H143.7z M145.5,98.7c0.2-0.2,0.3-0.4,0.3-1.2c0-0.5-0.1-0.8-0.3-1
			c-0.2-0.2-0.5-0.4-0.9-0.4c-1,0-1.1,1-1.1,1.5c0,0.6,0.2,1.4,1.1,1.4C145,99.1,145.3,99,145.5,98.7z"/>
		<path class="st3" d="M148.3,97.9c0,0.8,0.3,1.4,1.2,1.4c0.5,0,0.9-0.3,0.9-0.8h0.8c0,0.2-0.1,0.5-0.3,0.8
			c-0.2,0.2-0.6,0.5-1.4,0.5c-1.3,0-1.9-0.8-1.9-2.1c0-0.8,0.2-1.4,0.8-1.9c0.4-0.3,0.9-0.3,1.1-0.3c1.8,0,1.8,1.6,1.7,2.2H148.3z
			 M150.5,97.3c0-0.4-0.1-1.2-1-1.2c-0.5,0-1.1,0.3-1.1,1.2H150.5z"/>
		<path class="st3" d="M151.7,95.7h0.7v-0.8l0.7-0.2v1.1h0.9v0.6h-0.9v2.4c0,0.2,0,0.5,0.5,0.5c0.2,0,0.3,0,0.4,0v0.6
			c-0.1,0-0.4,0-0.6,0c-0.7,0-1-0.2-1-0.9v-2.7h-0.7V95.7z"/>
		<path class="st3" d="M157.2,94h0.9v0.8h-0.9V94z M157.2,95.7h0.8v4h-0.8V95.7z"/>
		<path class="st3" d="M159.5,96.2l0-0.5h0.8l0,0.6c0.1-0.2,0.4-0.7,1.3-0.7c0.4,0,1.5,0.1,1.5,1.4v2.7h-0.8v-2.6
			c0-0.3,0-0.5-0.2-0.7c-0.2-0.2-0.5-0.3-0.7-0.3c-0.5,0-1,0.4-1,1.2v2.3h-0.8V96.2z"/>
		<path class="st3" d="M82.1,105.3h0.7v-0.8l0.7-0.2v1.1h0.9v0.6h-0.9v2.4c0,0.2,0,0.5,0.5,0.5c0.2,0,0.3,0,0.4,0v0.6
			c-0.1,0-0.4,0-0.6,0c-0.7,0-1-0.2-1-0.9v-2.7h-0.7V105.3z"/>
		<path class="st3" d="M85.4,103.6h0.8v2.3c0.2-0.4,0.7-0.7,1.3-0.7c0.4,0,1,0.2,1.3,0.6c0.1,0.2,0.1,0.4,0.1,0.9v2.5h-0.8V107
			c0-0.4,0-1.1-0.9-1.1c-0.6,0-0.8,0.3-0.9,0.5c-0.1,0.2-0.1,0.6-0.1,0.8v2.1h-0.8V103.6z"/>
		<path class="st3" d="M90.7,107.5c0,0.8,0.3,1.4,1.2,1.4c0.5,0,0.9-0.3,0.9-0.8h0.8c0,0.2-0.1,0.5-0.3,0.8
			c-0.2,0.2-0.6,0.5-1.4,0.5c-1.3,0-1.9-0.8-1.9-2.1c0-0.8,0.2-1.4,0.8-1.9c0.4-0.3,0.9-0.3,1.1-0.3c1.8,0,1.8,1.6,1.7,2.2H90.7z
			 M92.8,106.9c0-0.4-0.1-1.2-1-1.2c-0.5,0-1.1,0.3-1.1,1.2H92.8z"/>
		<path class="st3" d="M97.1,105.3l1,3.2l1-3.2h1l0.9,3.2l1-3.2h0.8l-1.4,4h-0.9l-0.9-3.3l-1,3.3h-0.9l-1.3-4H97.1z"/>
		<path class="st3" d="M105.9,109.3c-0.1-0.2-0.1-0.4-0.1-0.6c-0.4,0.7-0.9,0.7-1.2,0.7c-0.9,0-1.4-0.5-1.4-1.2
			c0-0.3,0.1-0.8,0.7-1.2c0.4-0.2,1.1-0.3,1.4-0.3c0.2,0,0.3,0,0.5,0c0-0.5,0-0.7-0.1-0.9c-0.2-0.2-0.5-0.3-0.7-0.3
			c-0.8,0-0.8,0.5-0.8,0.7h-0.8c0-0.2,0-0.5,0.3-0.8c0.3-0.3,0.9-0.4,1.3-0.4c0.6,0,1.2,0.2,1.4,0.6c0.1,0.2,0.1,0.4,0.1,0.6l0,1.9
			c0,0.1,0,0.6,0.1,1H105.9z M105.4,107.4c-0.3,0-1.4,0-1.4,0.8c0,0.3,0.2,0.7,0.8,0.7c0.4,0,0.7-0.2,0.9-0.4
			c0.2-0.3,0.2-0.5,0.2-1.1C105.7,107.4,105.5,107.4,105.4,107.4z"/>
		<path class="st3" d="M109.7,109.4l-0.6,1.5h-0.8l0.6-1.5l-1.7-4h0.8l1.3,3.2l1.3-3.2h0.8L109.7,109.4z"/>
		<path class="st3" d="M114.8,105.3l1,3.2l1-3.2h1l0.9,3.2l1-3.2h0.8l-1.4,4h-0.9l-0.9-3.3l-1,3.3h-0.9l-1.3-4H114.8z"/>
		<path class="st3" d="M121.2,103.6h0.8v2.3c0.2-0.4,0.7-0.7,1.3-0.7c0.4,0,1,0.2,1.3,0.6c0.1,0.2,0.1,0.4,0.1,0.9v2.5h-0.8V107
			c0-0.4,0-1.1-0.9-1.1c-0.6,0-0.8,0.3-0.9,0.5c-0.1,0.2-0.1,0.6-0.1,0.8v2.1h-0.8V103.6z"/>
		<path class="st3" d="M126.6,107.5c0,0.8,0.3,1.4,1.2,1.4c0.5,0,0.9-0.3,0.9-0.8h0.8c0,0.2-0.1,0.5-0.3,0.8
			c-0.2,0.2-0.6,0.5-1.4,0.5c-1.3,0-1.9-0.8-1.9-2.1c0-0.8,0.2-1.4,0.8-1.9c0.4-0.3,0.9-0.3,1.1-0.3c1.8,0,1.8,1.6,1.7,2.2H126.6z
			 M128.7,106.9c0-0.4-0.1-1.2-1-1.2c-0.5,0-1.1,0.3-1.1,1.2H128.7z"/>
		<path class="st3" d="M130.6,105.8l0-0.5h0.8l0,0.6c0.1-0.2,0.4-0.7,1.3-0.7c0.4,0,1.5,0.1,1.5,1.4v2.7h-0.8v-2.6
			c0-0.3,0-0.5-0.2-0.7c-0.2-0.2-0.5-0.3-0.7-0.3c-0.5,0-1,0.4-1,1.2v2.3h-0.8V105.8z"/>
		<path class="st3" d="M137.7,105.9l0-0.5h0.8v0.6c0.4-0.6,0.9-0.7,1.3-0.7c0.9,0,1.2,0.5,1.3,0.8c0.1-0.2,0.5-0.8,1.4-0.8
			c0.6,0,1.5,0.2,1.5,1.4v2.7H143v-2.6c0-0.4-0.1-0.5-0.1-0.6c-0.1-0.2-0.4-0.4-0.8-0.4c-0.5,0-0.8,0.3-0.9,0.4
			c-0.2,0.2-0.2,0.7-0.2,0.9v2.2h-0.8v-2.7c0-0.5-0.3-0.9-0.9-0.9c-0.5,0-0.8,0.3-0.9,0.4c-0.2,0.2-0.2,0.6-0.2,0.8v2.3h-0.8V105.9z
			"/>
		<path class="st3" d="M147.7,109.3c-0.1-0.2-0.1-0.4-0.1-0.6c-0.4,0.7-0.9,0.7-1.2,0.7c-0.9,0-1.4-0.5-1.4-1.2
			c0-0.3,0.1-0.8,0.7-1.2c0.4-0.2,1.1-0.3,1.4-0.3c0.2,0,0.3,0,0.5,0c0-0.5,0-0.7-0.1-0.9c-0.2-0.2-0.5-0.3-0.7-0.3
			c-0.8,0-0.8,0.5-0.8,0.7h-0.8c0-0.2,0-0.5,0.3-0.8c0.3-0.3,0.9-0.4,1.3-0.4c0.6,0,1.2,0.2,1.4,0.6c0.1,0.2,0.1,0.4,0.1,0.6l0,1.9
			c0,0.1,0,0.6,0.1,1H147.7z M147.1,107.4c-0.3,0-1.4,0-1.4,0.8c0,0.3,0.2,0.7,0.8,0.7c0.4,0,0.7-0.2,0.9-0.4
			c0.2-0.3,0.2-0.5,0.2-1.1C147.4,107.4,147.3,107.4,147.1,107.4z"/>
		<path class="st3" d="M149.6,103.5h0.7v3.4l1.5-1.6h1l-1.7,1.7l1.8,2.3h-1l-1.6-2.2v2.2h-0.7V103.5z"/>
		<path class="st3" d="M153.6,103.6h0.9v0.8h-0.9V103.6z M153.7,105.3h0.8v4h-0.8V105.3z"/>
		<path class="st3" d="M155.9,105.8l0-0.5h0.8l0,0.6c0.1-0.2,0.4-0.7,1.3-0.7c0.4,0,1.5,0.1,1.5,1.4v2.7h-0.8v-2.6
			c0-0.3,0-0.5-0.2-0.7c-0.2-0.2-0.5-0.3-0.7-0.3c-0.5,0-1,0.4-1,1.2v2.3h-0.8V105.8z"/>
		<path class="st3" d="M161.5,109.7c0,0.4,0.2,0.8,0.9,0.8c1,0,1.1-0.8,1.1-1.8c-0.3,0.7-1.1,0.7-1.3,0.7c-0.4,0-0.9-0.1-1.2-0.5
			c-0.3-0.4-0.5-0.9-0.5-1.5c0-1.4,0.8-2,1.8-2c0.8,0,1.1,0.4,1.3,0.6l0-0.6h0.7l0,0.7l0,2.5c0,1,0,1.4-0.2,1.7
			c-0.3,0.6-1.1,0.7-1.7,0.7c-1.6,0-1.7-0.8-1.7-1.3H161.5z M163.2,108.3c0.2-0.2,0.3-0.4,0.3-1.2c0-0.5-0.1-0.8-0.3-1
			c-0.2-0.2-0.5-0.4-0.9-0.4c-1,0-1.1,1-1.1,1.5c0,0.6,0.2,1.4,1.1,1.4C162.8,108.7,163.1,108.6,163.2,108.3z"/>
		<path class="st3" d="M85.5,113.2h0.8v5.1c0,0.1,0,0.4,0,0.6h-0.8l0-0.6c-0.1,0.1-0.2,0.3-0.4,0.4c-0.3,0.2-0.7,0.3-1,0.3
			c-0.5,0-1.7-0.3-1.7-2c0-1.5,0.9-2.2,1.8-2.2c0.9,0,1.2,0.5,1.2,0.7V113.2z M85.2,115.8c-0.2-0.2-0.5-0.4-0.9-0.4
			c-1.1,0-1.1,1.3-1.1,1.6c0,0.7,0.2,1.5,1.1,1.5c1.2,0,1.2-1.3,1.2-1.6C85.5,116.3,85.4,116,85.2,115.8z"/>
		<path class="st3" d="M88,117.1c0,0.8,0.3,1.4,1.2,1.4c0.5,0,0.9-0.3,0.9-0.8h0.8c0,0.2-0.1,0.5-0.3,0.8c-0.2,0.2-0.6,0.5-1.4,0.5
			c-1.3,0-1.9-0.8-1.9-2.1c0-0.8,0.2-1.4,0.8-1.9c0.4-0.3,0.9-0.3,1.1-0.3c1.8,0,1.8,1.6,1.7,2.2H88z M90.2,116.5
			c0-0.4-0.1-1.2-1-1.2c-0.5,0-1.1,0.3-1.1,1.2H90.2z"/>
		<path class="st3" d="M94.3,116.2c0-0.2-0.1-0.8-0.8-0.8c-1,0-1,1.2-1,1.5c0,0.8,0.2,1.6,1,1.6c0.6,0,0.9-0.5,0.9-0.9h0.8
			c0,0.8-0.6,1.4-1.6,1.4c-0.3,0-0.9-0.1-1.3-0.5c-0.2-0.3-0.5-0.7-0.5-1.5c0-1.7,1-2.2,1.8-2.2c0.3,0,0.9,0.1,1.2,0.5
			c0.3,0.3,0.3,0.7,0.3,0.9H94.3z"/>
		<path class="st3" d="M96,113.2h0.9v0.8H96V113.2z M96,114.9h0.8v4H96V114.9z"/>
		<path class="st3" d="M98.7,117.8c0,0.3,0.2,0.7,0.9,0.7c0.3,0,0.5-0.1,0.7-0.3c0.1-0.1,0.1-0.2,0.1-0.4c0-0.4-0.3-0.5-0.9-0.6
			c-0.8-0.2-1.5-0.4-1.5-1.2c0-0.7,0.6-1.2,1.6-1.2c0.5,0,1.2,0.1,1.4,0.6c0.1,0.2,0.1,0.4,0.1,0.6h-0.8c0-0.6-0.5-0.7-0.8-0.7
			c-0.1,0-0.8,0-0.8,0.6c0,0.4,0.4,0.5,0.6,0.5c1.1,0.3,1.4,0.3,1.6,0.6c0.2,0.2,0.3,0.5,0.3,0.7c0,0.4-0.2,0.8-0.5,1
			c-0.4,0.2-0.8,0.3-1.2,0.3c-0.8,0-1.6-0.3-1.6-1.3H98.7z"/>
		<path class="st3" d="M102.2,113.2h0.9v0.8h-0.9V113.2z M102.3,114.9h0.8v4h-0.8V114.9z"/>
		<path class="st3" d="M106.2,114.8c1.6,0,2,1.3,2,2.1c0,1.2-0.7,2.2-2,2.2c-1.3,0-2-0.9-2-2.1C104.2,116,104.7,114.8,106.2,114.8z
			 M106.2,118.5c0.6,0,1.2-0.4,1.2-1.6c0-1-0.5-1.5-1.2-1.5c-0.5,0-1.3,0.3-1.3,1.6C105,117.8,105.3,118.5,106.2,118.5z"/>
		<path class="st3" d="M109.4,115.4l0-0.5h0.8l0,0.6c0.1-0.2,0.4-0.7,1.3-0.7c0.4,0,1.5,0.1,1.5,1.4v2.7h-0.8v-2.6
			c0-0.3,0-0.5-0.2-0.7c-0.2-0.2-0.5-0.3-0.7-0.3c-0.5,0-1,0.4-1,1.2v2.3h-0.8V115.4z"/>
		<path class="st3" d="M114.7,117.8c0,0.3,0.2,0.7,0.9,0.7c0.3,0,0.5-0.1,0.7-0.3c0.1-0.1,0.1-0.2,0.1-0.4c0-0.4-0.3-0.5-0.9-0.6
			c-0.8-0.2-1.5-0.4-1.5-1.2c0-0.7,0.6-1.2,1.6-1.2c0.5,0,1.2,0.1,1.4,0.6c0.1,0.2,0.1,0.4,0.1,0.6h-0.8c0-0.6-0.5-0.7-0.8-0.7
			c-0.1,0-0.8,0-0.8,0.6c0,0.4,0.4,0.5,0.6,0.5c1.1,0.3,1.4,0.3,1.6,0.6c0.2,0.2,0.3,0.5,0.3,0.7c0,0.4-0.2,0.8-0.5,1
			c-0.4,0.2-0.8,0.3-1.2,0.3c-0.8,0-1.6-0.3-1.6-1.3H114.7z"/>
	</g>
</g>
<g>
	<g>
		<path class="st3" d="M84.2,145.6V137H86v7.2h2.7v1.4H84.2z"/>
		<path class="st3" d="M89.4,141.3c0-2.3,0-4.5,3-4.5c3,0,3,2.2,3,4.5c0,2.3,0,4.5-3,4.5C89.4,145.8,89.4,143.6,89.4,141.3z
			 M93.5,141.3c0-2.2-0.1-3.2-1.2-3.2c-1,0-1.2,1-1.2,3.2s0.1,3.2,1.2,3.2C93.4,144.5,93.5,143.5,93.5,141.3z"/>
		<path class="st3" d="M100.8,139.6c0-0.8-0.1-1.5-1.1-1.5c-1.1,0-1.1,1.5-1.1,3.2c0,2.7,0.3,3.2,1.3,3.2c0.3,0,0.6-0.1,0.9-0.2
			v-1.9h-1v-1.3h2.8v4.4c-0.5,0.1-1.7,0.3-2.4,0.3c-3,0-3.4-1.3-3.4-4.5c0-2.2,0.1-4.4,3.1-4.4c1.8,0,2.9,1,2.8,2.8H100.8z"/>
		<path class="st3" d="M104.1,145.6V137h1.8v8.7H104.1z"/>
		<path class="st3" d="M107.4,141.3c0-2.3,0-4.5,3-4.5c1.8,0,2.6,1,2.5,2.9h-1.8c0-1.2-0.2-1.6-0.7-1.6c-1,0-1.2,1-1.2,3.2
			s0.1,3.2,1.2,3.2c0.8,0,0.8-1.1,0.8-1.8h1.8c0,2.3-0.9,3.1-2.6,3.1C107.4,145.8,107.4,143.6,107.4,141.3z"/>
		<path class="st3" d="M113.5,145.6l2.4-8.7h2.4l2.4,8.7h-1.9l-0.5-1.9h-2.5l-0.5,1.9H113.5z M117,138.6L117,138.6l-0.9,3.7h1.7
			L117,138.6z"/>
		<path class="st3" d="M121.5,145.6V137h1.8v7.2h2.7v1.4H121.5z"/>
		<path class="st3" d="M84.7,153.5c0,0.4,0.1,1.1,1.4,1.1c1.2,0,1.4-0.7,1.4-1c0-0.6-0.5-0.8-1.3-1c-0.9-0.2-1.3-0.3-1.6-0.5
			c-0.5-0.3-0.6-0.8-0.6-1.1c0-1.2,1.1-1.7,2.2-1.7c0.4,0,1.2,0.1,1.6,0.6c0.3,0.4,0.3,0.7,0.4,1h-0.8c0-0.7-0.6-0.9-1.2-0.9
			c-0.8,0-1.3,0.4-1.3,0.9c0,0.5,0.3,0.7,1,0.9c1.4,0.4,1.5,0.4,1.9,0.6c0.5,0.4,0.6,0.9,0.6,1.2c0,1-0.8,1.8-2.3,1.8
			c-0.4,0-1.3-0.1-1.8-0.7c-0.3-0.4-0.3-0.9-0.3-1.2H84.7z"/>
		<path class="st3" d="M89.4,149.4h0.7v3.4l1.5-1.6h1l-1.7,1.7l1.8,2.3h-1l-1.6-2.2v2.2h-0.7V149.4z"/>
		<path class="st3" d="M93.4,149.5h0.9v0.8h-0.9V149.5z M93.4,151.2h0.8v4h-0.8V151.2z"/>
		<path class="st3" d="M95.7,149.5h0.8v5.8h-0.8V149.5z"/>
		<path class="st3" d="M97.9,149.5h0.8v5.8h-0.8V149.5z"/>
		<path class="st3" d="M100.6,153.4c0,0.8,0.3,1.4,1.2,1.4c0.5,0,0.9-0.3,0.9-0.8h0.8c0,0.2-0.1,0.5-0.3,0.8
			c-0.2,0.2-0.6,0.5-1.4,0.5c-1.3,0-1.9-0.8-1.9-2.1c0-0.8,0.2-1.4,0.8-1.9c0.4-0.3,0.9-0.3,1.1-0.3c1.8,0,1.8,1.6,1.7,2.2H100.6z
			 M102.7,152.8c0-0.4-0.1-1.2-1-1.2c-0.5,0-1.1,0.3-1.1,1.2H102.7z"/>
		<path class="st3" d="M107.3,149.5h0.8v5.1c0,0.1,0,0.4,0,0.6h-0.8l0-0.6c-0.1,0.1-0.2,0.3-0.4,0.4c-0.3,0.2-0.7,0.3-1,0.3
			c-0.5,0-1.7-0.3-1.7-2c0-1.5,0.9-2.2,1.8-2.2c0.9,0,1.2,0.5,1.2,0.7V149.5z M107.1,152c-0.2-0.2-0.5-0.4-0.9-0.4
			c-1.1,0-1.1,1.3-1.1,1.6c0,0.7,0.2,1.5,1.1,1.5c1.2,0,1.2-1.3,1.2-1.6C107.4,152.6,107.2,152.3,107.1,152z"/>
		<path class="st3" d="M114.1,155.2c-0.1-0.2-0.1-0.4-0.1-0.6c-0.4,0.7-0.9,0.7-1.2,0.7c-0.9,0-1.4-0.5-1.4-1.2
			c0-0.3,0.1-0.8,0.7-1.2c0.4-0.2,1.1-0.3,1.4-0.3c0.2,0,0.3,0,0.5,0c0-0.5,0-0.7-0.1-0.9c-0.2-0.2-0.5-0.3-0.7-0.3
			c-0.8,0-0.8,0.5-0.8,0.7h-0.8c0-0.2,0-0.5,0.3-0.8c0.3-0.3,0.9-0.4,1.3-0.4c0.6,0,1.2,0.2,1.4,0.6c0.1,0.2,0.1,0.4,0.1,0.6l0,1.9
			c0,0.1,0,0.6,0.1,1H114.1z M113.6,153.2c-0.3,0-1.4,0-1.4,0.8c0,0.3,0.2,0.7,0.8,0.7c0.4,0,0.7-0.2,0.9-0.4
			c0.2-0.3,0.2-0.5,0.2-1.1C113.9,153.3,113.8,153.2,113.6,153.2z"/>
		<path class="st3" d="M115.5,151.2h0.7v-0.8l0.7-0.2v1.1h0.9v0.6H117v2.4c0,0.2,0,0.5,0.5,0.5c0.2,0,0.3,0,0.4,0v0.6
			c-0.1,0-0.4,0-0.6,0c-0.7,0-1-0.2-1-0.9v-2.7h-0.7V151.2z"/>
		<path class="st3" d="M121,151.7l0-0.5h0.8v0.6c0.4-0.6,0.9-0.7,1.3-0.7c0.9,0,1.2,0.5,1.3,0.8c0.1-0.2,0.5-0.8,1.4-0.8
			c0.6,0,1.5,0.2,1.5,1.4v2.7h-0.8v-2.6c0-0.4-0.1-0.5-0.1-0.6c-0.1-0.2-0.4-0.4-0.8-0.4c-0.5,0-0.8,0.3-0.9,0.4
			c-0.2,0.2-0.2,0.7-0.2,0.9v2.2h-0.8v-2.7c0-0.5-0.3-0.9-0.9-0.9c-0.5,0-0.8,0.3-0.9,0.4c-0.2,0.2-0.2,0.6-0.2,0.8v2.3H121V151.7z"
			/>
		<path class="st3" d="M131,155.2c-0.1-0.2-0.1-0.4-0.1-0.6c-0.4,0.7-0.9,0.7-1.2,0.7c-0.9,0-1.4-0.5-1.4-1.2c0-0.3,0.1-0.8,0.7-1.2
			c0.4-0.2,1.1-0.3,1.4-0.3c0.2,0,0.3,0,0.5,0c0-0.5,0-0.7-0.1-0.9c-0.2-0.2-0.5-0.3-0.7-0.3c-0.8,0-0.8,0.5-0.8,0.7h-0.8
			c0-0.2,0-0.5,0.3-0.8c0.3-0.3,0.9-0.4,1.3-0.4c0.6,0,1.2,0.2,1.4,0.6c0.1,0.2,0.1,0.4,0.1,0.6l0,1.9c0,0.1,0,0.6,0.1,1H131z
			 M130.5,153.2c-0.3,0-1.4,0-1.4,0.8c0,0.3,0.2,0.7,0.8,0.7c0.4,0,0.7-0.2,0.9-0.4c0.2-0.3,0.2-0.5,0.2-1.1
			C130.8,153.3,130.7,153.2,130.5,153.2z"/>
		<path class="st3" d="M132.4,151.2h0.7v-0.8l0.7-0.2v1.1h0.9v0.6h-0.9v2.4c0,0.2,0,0.5,0.5,0.5c0.2,0,0.3,0,0.4,0v0.6
			c-0.1,0-0.4,0-0.6,0c-0.7,0-1-0.2-1-0.9v-2.7h-0.7V151.2z"/>
		<path class="st3" d="M135.7,149.5h0.8v2.3c0.2-0.4,0.7-0.7,1.3-0.7c0.4,0,1,0.2,1.3,0.6c0.1,0.2,0.1,0.4,0.1,0.9v2.5h-0.8v-2.4
			c0-0.4,0-1.1-0.9-1.1c-0.6,0-0.8,0.3-0.9,0.5c-0.1,0.2-0.1,0.6-0.1,0.8v2.1h-0.8V149.5z"/>
		<path class="st3" d="M144.5,151.1c1.6,0,2,1.3,2,2.1c0,1.2-0.7,2.2-2,2.2c-1.3,0-2-0.9-2-2.1C142.5,152.3,142.9,151.1,144.5,151.1
			z M144.5,154.8c0.6,0,1.2-0.4,1.2-1.6c0-1-0.5-1.5-1.2-1.5c-0.5,0-1.3,0.3-1.3,1.6C143.3,154,143.6,154.8,144.5,154.8z"/>
		<path class="st3" d="M147.7,152c0-0.3,0-0.6,0-0.8h0.8l0,0.8c0.1-0.6,0.6-0.7,1-0.8c0.2,0,0.4,0,0.5,0v0.7c0,0-0.1,0-0.1,0
			c-0.1,0-0.1,0-0.2,0c-0.9,0-1.1,0.5-1.1,1.2v2.1h-0.8V152z"/>
		<path class="st3" d="M153.4,154c0,0.3,0.2,0.7,0.9,0.7c0.3,0,0.5-0.1,0.7-0.3c0.1-0.1,0.1-0.2,0.1-0.4c0-0.4-0.3-0.5-0.9-0.6
			c-0.8-0.2-1.5-0.4-1.5-1.2c0-0.7,0.6-1.2,1.6-1.2c0.5,0,1.2,0.1,1.4,0.6c0.1,0.2,0.1,0.4,0.1,0.6h-0.8c0-0.6-0.5-0.7-0.8-0.7
			c-0.1,0-0.8,0-0.8,0.6c0,0.4,0.4,0.5,0.6,0.5c1.1,0.3,1.4,0.3,1.6,0.6c0.2,0.2,0.3,0.5,0.3,0.7c0,0.4-0.2,0.8-0.5,1
			c-0.4,0.2-0.8,0.3-1.2,0.3c-0.8,0-1.6-0.3-1.6-1.3H153.4z"/>
		<path class="st3" d="M159.3,152.5c0-0.2-0.1-0.8-0.8-0.8c-1,0-1,1.2-1,1.5c0,0.8,0.2,1.6,1,1.6c0.6,0,0.9-0.5,0.9-0.9h0.8
			c0,0.8-0.6,1.4-1.6,1.4c-0.3,0-0.9-0.1-1.3-0.5c-0.2-0.3-0.5-0.7-0.5-1.5c0-1.7,1-2.2,1.8-2.2c0.3,0,0.9,0.1,1.2,0.5
			c0.3,0.3,0.3,0.7,0.3,0.9H159.3z"/>
		<path class="st3" d="M160.9,149.5h0.9v0.8h-0.9V149.5z M161,151.2h0.8v4H161V151.2z"/>
		<path class="st3" d="M163.7,153.4c0,0.8,0.3,1.4,1.2,1.4c0.5,0,0.9-0.3,0.9-0.8h0.8c0,0.2-0.1,0.5-0.3,0.8
			c-0.2,0.2-0.6,0.5-1.4,0.5c-1.3,0-1.9-0.8-1.9-2.1c0-0.8,0.2-1.4,0.8-1.9c0.4-0.3,0.9-0.3,1.1-0.3c1.8,0,1.8,1.6,1.7,2.2H163.7z
			 M165.8,152.8c0-0.4-0.1-1.2-1-1.2c-0.5,0-1.1,0.3-1.1,1.2H165.8z"/>
		<path class="st3" d="M167.7,151.7l0-0.5h0.8l0,0.6c0.1-0.2,0.4-0.7,1.3-0.7c0.4,0,1.5,0.1,1.5,1.4v2.7h-0.8v-2.6
			c0-0.3,0-0.5-0.2-0.7c-0.2-0.2-0.5-0.3-0.7-0.3c-0.5,0-1,0.4-1,1.2v2.3h-0.8V151.7z"/>
		<path class="st3" d="M174.8,152.5c0-0.2-0.1-0.8-0.8-0.8c-1,0-1,1.2-1,1.5c0,0.8,0.2,1.6,1,1.6c0.6,0,0.9-0.5,0.9-0.9h0.8
			c0,0.8-0.6,1.4-1.6,1.4c-0.3,0-0.9-0.1-1.3-0.5c-0.2-0.3-0.5-0.7-0.5-1.5c0-1.7,1-2.2,1.8-2.2c0.3,0,0.9,0.1,1.2,0.5
			c0.3,0.3,0.3,0.7,0.3,0.9H174.8z"/>
		<path class="st3" d="M177,153.4c0,0.8,0.3,1.4,1.2,1.4c0.5,0,0.9-0.3,0.9-0.8h0.8c0,0.2-0.1,0.5-0.3,0.8c-0.2,0.2-0.6,0.5-1.4,0.5
			c-1.3,0-1.9-0.8-1.9-2.1c0-0.8,0.2-1.4,0.8-1.9c0.4-0.3,0.9-0.3,1.1-0.3c1.8,0,1.8,1.6,1.7,2.2H177z M179.1,152.8
			c0-0.4-0.1-1.2-1-1.2c-0.5,0-1.1,0.3-1.1,1.2H179.1z"/>
		<path class="st3" d="M86.5,164.8c-0.1-0.2-0.1-0.4-0.1-0.6c-0.4,0.7-0.9,0.7-1.2,0.7c-0.9,0-1.4-0.5-1.4-1.2
			c0-0.3,0.1-0.8,0.7-1.2c0.4-0.2,1.1-0.3,1.4-0.3c0.2,0,0.3,0,0.5,0c0-0.5,0-0.7-0.1-0.9c-0.2-0.2-0.5-0.3-0.7-0.3
			c-0.8,0-0.8,0.5-0.8,0.7h-0.8c0-0.2,0-0.5,0.3-0.8c0.3-0.3,0.9-0.4,1.3-0.4c0.6,0,1.2,0.2,1.4,0.6c0.1,0.2,0.1,0.4,0.1,0.6l0,1.9
			c0,0.1,0,0.6,0.1,1H86.5z M86,162.9c-0.3,0-1.4,0-1.4,0.8c0,0.3,0.2,0.7,0.8,0.7c0.4,0,0.7-0.2,0.9-0.4c0.2-0.3,0.2-0.5,0.2-1.1
			C86.3,162.9,86.2,162.9,86,162.9z"/>
		<path class="st3" d="M88.6,161.3l0-0.5h0.8l0,0.6c0.1-0.2,0.4-0.7,1.3-0.7c0.4,0,1.5,0.1,1.5,1.4v2.7h-0.8v-2.6
			c0-0.3,0-0.5-0.2-0.7c-0.2-0.2-0.5-0.3-0.7-0.3c-0.5,0-1,0.4-1,1.2v2.3h-0.8V161.3z"/>
		<path class="st3" d="M96.2,159.1H97v5.1c0,0.1,0,0.4,0,0.6h-0.8l0-0.6c-0.1,0.1-0.2,0.3-0.4,0.4c-0.3,0.2-0.7,0.3-1,0.3
			c-0.5,0-1.7-0.3-1.7-2c0-1.5,0.9-2.2,1.8-2.2c0.9,0,1.2,0.5,1.2,0.7V159.1z M95.9,161.6c-0.2-0.2-0.5-0.4-0.9-0.4
			c-1.1,0-1.1,1.3-1.1,1.6c0,0.7,0.2,1.5,1.1,1.5c1.2,0,1.2-1.3,1.2-1.6C96.2,162.2,96.1,161.9,95.9,161.6z"/>
		<path class="st3" d="M101,163.6c0,0.3,0.2,0.7,0.9,0.7c0.3,0,0.5-0.1,0.7-0.3c0.1-0.1,0.1-0.2,0.1-0.4c0-0.4-0.3-0.5-0.9-0.6
			c-0.8-0.2-1.5-0.4-1.5-1.2c0-0.7,0.6-1.2,1.6-1.2c0.5,0,1.2,0.1,1.4,0.6c0.1,0.2,0.1,0.4,0.1,0.6h-0.8c0-0.6-0.5-0.7-0.8-0.7
			c-0.1,0-0.8,0-0.8,0.6c0,0.4,0.4,0.5,0.6,0.5c1.1,0.3,1.4,0.3,1.6,0.6c0.2,0.2,0.3,0.5,0.3,0.7c0,0.4-0.2,0.8-0.5,1
			c-0.4,0.2-0.8,0.3-1.2,0.3c-0.8,0-1.6-0.3-1.6-1.3H101z"/>
		<path class="st3" d="M105,163c0,0.8,0.3,1.4,1.2,1.4c0.5,0,0.9-0.3,0.9-0.8h0.8c0,0.2-0.1,0.5-0.3,0.8c-0.2,0.2-0.6,0.5-1.4,0.5
			c-1.3,0-1.9-0.8-1.9-2.1c0-0.8,0.2-1.4,0.8-1.9c0.4-0.3,0.9-0.3,1.1-0.3c1.8,0,1.8,1.6,1.7,2.2H105z M107.1,162.4
			c0-0.4-0.1-1.2-1-1.2c-0.5,0-1.1,0.3-1.1,1.2H107.1z"/>
		<path class="st3" d="M112.5,160.8c0,0.2,0,0.5,0,0.7v4.9h-0.8v-2c-0.1,0.1-0.1,0.2-0.3,0.3c-0.3,0.2-0.7,0.3-0.9,0.3
			c-1,0-1.8-0.7-1.8-2.2c0-1.5,0.8-2.1,1.7-2.1c0.8,0,1.2,0.4,1.4,0.7l0-0.7H112.5z M110.6,161.3c-1.1,0-1.1,1.1-1.1,1.4
			c0,0.3,0,0.9,0.3,1.3c0.2,0.3,0.5,0.4,0.9,0.4c0.9,0,1.1-0.7,1.1-1.5C111.8,162.6,111.8,161.3,110.6,161.3z"/>
		<path class="st3" d="M114.6,160.8v2.6c0,0.4,0.1,0.9,0.9,0.9c0.4,0,0.7-0.1,0.9-0.4c0.2-0.2,0.2-0.6,0.2-0.8v-2.3h0.8v3.3
			c0,0.1,0,0.5,0,0.8h-0.8l0-0.7c-0.1,0.3-0.4,0.7-1.3,0.7c-1,0-1.5-0.6-1.5-1.4v-2.7H114.6z"/>
		<path class="st3" d="M119.2,163c0,0.8,0.3,1.4,1.2,1.4c0.5,0,0.9-0.3,0.9-0.8h0.8c0,0.2-0.1,0.5-0.3,0.8c-0.2,0.2-0.6,0.5-1.4,0.5
			c-1.3,0-1.9-0.8-1.9-2.1c0-0.8,0.2-1.4,0.8-1.9c0.4-0.3,0.9-0.3,1.1-0.3c1.8,0,1.8,1.6,1.7,2.2H119.2z M121.3,162.4
			c0-0.4-0.1-1.2-1-1.2c-0.5,0-1.1,0.3-1.1,1.2H121.3z"/>
		<path class="st3" d="M123.2,161.3l0-0.5h0.8l0,0.6c0.1-0.2,0.4-0.7,1.3-0.7c0.4,0,1.5,0.1,1.5,1.4v2.7H126v-2.6
			c0-0.3,0-0.5-0.2-0.7c-0.2-0.2-0.5-0.3-0.7-0.3c-0.5,0-1,0.4-1,1.2v2.3h-0.8V161.3z"/>
		<path class="st3" d="M130.4,162.1c0-0.2-0.1-0.8-0.8-0.8c-1,0-1,1.2-1,1.5c0,0.8,0.2,1.6,1,1.6c0.6,0,0.9-0.5,0.9-0.9h0.8
			c0,0.8-0.6,1.4-1.6,1.4c-0.3,0-0.9-0.1-1.3-0.5c-0.2-0.3-0.5-0.7-0.5-1.5c0-1.7,1-2.2,1.8-2.2c0.3,0,0.9,0.1,1.2,0.5
			c0.3,0.3,0.3,0.7,0.3,0.9H130.4z"/>
		<path class="st3" d="M132,159.1h0.9v0.8H132V159.1z M132.1,160.8h0.8v4h-0.8V160.8z"/>
		<path class="st3" d="M134.4,161.3l0-0.5h0.8l0,0.6c0.1-0.2,0.4-0.7,1.3-0.7c0.4,0,1.5,0.1,1.5,1.4v2.7h-0.8v-2.6
			c0-0.3,0-0.5-0.2-0.7c-0.2-0.2-0.5-0.3-0.7-0.3c-0.5,0-1,0.4-1,1.2v2.3h-0.8V161.3z"/>
		<path class="st3" d="M139.9,165.1c0,0.4,0.2,0.8,0.9,0.8c1,0,1.1-0.8,1.1-1.8c-0.3,0.7-1.1,0.7-1.3,0.7c-0.4,0-0.9-0.1-1.2-0.5
			c-0.3-0.4-0.5-0.9-0.5-1.5c0-1.4,0.8-2,1.8-2c0.8,0,1.1,0.4,1.3,0.6l0-0.6h0.7l0,0.7l0,2.5c0,1,0,1.4-0.2,1.7
			c-0.3,0.6-1.1,0.7-1.7,0.7c-1.6,0-1.7-0.8-1.7-1.3H139.9z M141.7,163.8c0.2-0.2,0.3-0.4,0.3-1.2c0-0.5-0.1-0.8-0.3-1
			c-0.2-0.2-0.5-0.4-0.9-0.4c-1,0-1.1,1-1.1,1.5c0,0.6,0.2,1.4,1.1,1.4C141.2,164.2,141.5,164,141.7,163.8z"/>
		<path class="st3" d="M146.3,159.1h0.9v0.8h-0.9V159.1z M146.3,160.8h0.8v4h-0.8V160.8z"/>
		<path class="st3" d="M151.3,159.1h0.8v5.1c0,0.1,0,0.4,0,0.6h-0.8l0-0.6c-0.1,0.1-0.2,0.3-0.4,0.4c-0.3,0.2-0.7,0.3-1,0.3
			c-0.5,0-1.7-0.3-1.7-2c0-1.5,0.9-2.2,1.8-2.2c0.9,0,1.2,0.5,1.2,0.7V159.1z M151.1,161.6c-0.2-0.2-0.5-0.4-0.9-0.4
			c-1.1,0-1.1,1.3-1.1,1.6c0,0.7,0.2,1.5,1.1,1.5c1.2,0,1.2-1.3,1.2-1.6C151.4,162.2,151.2,161.9,151.1,161.6z"/>
		<path class="st3" d="M153.9,163c0,0.8,0.3,1.4,1.2,1.4c0.5,0,0.9-0.3,0.9-0.8h0.8c0,0.2-0.1,0.5-0.3,0.8c-0.2,0.2-0.6,0.5-1.4,0.5
			c-1.3,0-1.9-0.8-1.9-2.1c0-0.8,0.2-1.4,0.8-1.9c0.4-0.3,0.9-0.3,1.1-0.3c1.8,0,1.8,1.6,1.7,2.2H153.9z M156,162.4
			c0-0.4-0.1-1.2-1-1.2c-0.5,0-1.1,0.3-1.1,1.2H156z"/>
		<path class="st3" d="M160.3,164.8c-0.1-0.2-0.1-0.4-0.1-0.6c-0.4,0.7-0.9,0.7-1.2,0.7c-0.9,0-1.4-0.5-1.4-1.2
			c0-0.3,0.1-0.8,0.7-1.2c0.4-0.2,1.1-0.3,1.4-0.3c0.2,0,0.3,0,0.5,0c0-0.5,0-0.7-0.1-0.9c-0.2-0.2-0.5-0.3-0.7-0.3
			c-0.8,0-0.8,0.5-0.8,0.7h-0.8c0-0.2,0-0.5,0.3-0.8c0.3-0.3,0.9-0.4,1.3-0.4c0.6,0,1.2,0.2,1.4,0.6c0.1,0.2,0.1,0.4,0.1,0.6l0,1.9
			c0,0.1,0,0.6,0.1,1H160.3z M159.8,162.9c-0.3,0-1.4,0-1.4,0.8c0,0.3,0.2,0.7,0.8,0.7c0.4,0,0.7-0.2,0.9-0.4
			c0.2-0.3,0.2-0.5,0.2-1.1C160.1,162.9,160,162.9,159.8,162.9z"/>
		<path class="st3" d="M162.8,163.6c0,0.3,0.2,0.7,0.9,0.7c0.3,0,0.5-0.1,0.7-0.3c0.1-0.1,0.1-0.2,0.1-0.4c0-0.4-0.3-0.5-0.9-0.6
			c-0.8-0.2-1.5-0.4-1.5-1.2c0-0.7,0.6-1.2,1.6-1.2c0.5,0,1.2,0.1,1.4,0.6c0.1,0.2,0.1,0.4,0.1,0.6h-0.8c0-0.6-0.5-0.7-0.8-0.7
			c-0.1,0-0.8,0-0.8,0.6c0,0.4,0.4,0.5,0.6,0.5c1.1,0.3,1.4,0.3,1.6,0.6c0.2,0.2,0.3,0.5,0.3,0.7c0,0.4-0.2,0.8-0.5,1
			c-0.4,0.2-0.8,0.3-1.2,0.3c-0.8,0-1.6-0.3-1.6-1.3H162.8z"/>
	</g>
	<g id="l-logic">
		<circle class="st0" cx="50.8" cy="151.1" r="25.1"/>
		<g id="logical">
			<g>
				<path class="st3" d="M39.7,143.9h0.8v0h0.2v0h0.1v0h0.1v0h0.1v0H41v0h0v0h0.1v0h0v0h0v0h0v0.1h0v0h0v0h0v0h0v0.1h0v0h0v0.1h0
					v0.1h0v0.1h0v0.1h0v0.3h0v0.5h0v2.4h0v6.9h1.9v0h0.2v0H44v0h0.1v0h0v0h0.1v0h0.1v0h0v0h0v0h0v0h0v0h0v0h0v0h0v0.1h0v0h0v0.1h0
					v0.1h0v0.1h0v0.1h0v0.2h0v0.5h0v0.3h0v0.1h0v0.1h0v0.1h0v0.1h0v0h0v0h0v0.1h0v0h0v0h0v0h0v0h-0.1v0h0v0h0v0h-0.1v0H44v0H44v0
					h-0.1v0h-0.3v0H43v0h-2.3v0h-1.1v0h-1.1v0h-0.8v0h-1.1v0h-0.2v0h-0.1v0h-0.1v0h-0.1v0h0v0h-0.1v0h0v0h0v0h0v0h0v0h0v0h0v0h0v0h0
					v-0.1h0v0h0v-0.1h0v-0.1h0v-0.1h0V157h0v-0.4h0v-0.3h0v-0.1h0v-0.1h0V156h0v0h0v-0.1h0v0h0v0h0v0h0v0h0v0h0v0h0v0h0v0h0v0h0.1v0
					h0v0h0.1v0h0.1v0h0.1v0h0.4v0h0.9v0h0.8v0h0.2V151h0v-2.8h0v0h0v0h0v0h-0.1v0h0v0h0v0h0v0h0v0h-0.1v0h0v0h0v0h0v0h0v0h-0.1v0h0
					v0h0v0h0v0h0v0h-0.1v0h0v0h0v0h0v0h-0.1v0h0v0h0v0h-0.1v0h-0.1v0h-0.1v0h-0.1v0H37v0h-0.7v0h-0.2v0h-0.1v0H36v0h-0.1v0h0v0h-0.1
					v0h0v0h0v0h0v0h0v0h0v0h0v0h0v0h0v-0.1h0v0h0v-0.1h0v-0.1h0v-0.1h0v-0.3h0v-0.5h0v-0.2h0v-0.1h0v-0.1h0v-0.1h0v-0.1h0v0h0v0h0v0
					h0v0h0v0h0v0h0v0h0v0h0v0h0v0h0v0h0v0h0v0H36v0h0v0h0v0h0v0h0v0h0v0h0v0h0.1v0h0v0h0v0h0v0h0v0h0v0h0.1v0h0v0h0v0h0v0h0v0h0.1v0
					h0v0h0v0h0v0h0v0h0.1v0h0v0h0v0h0v0h0v0h0.1v0h0v0h0v0h0v0h0.1v0h0v0h0v0h0.1v0h0v0h0v0h0v0H38v0h0v0h0v0h0.1v0h0v0h0v0h0.1v0h0
					v0h0v0h0.1v0h0v0h0v0h0.1v0h0v0h0.1v0h0v0h0v0h0.1v0H39v0h0v0h0.1v0h0.1v0h0.1v0h0.1v0h0.1v0L39.7,143.9L39.7,143.9z
					 M39.9,144.3L39.9,144.3l-0.2,0v0h-0.1v0h-0.1v0h-0.1v0h-0.1v0h0v0h-0.1v0h-0.1v0h0v0h0v0h-0.1v0h0v0h-0.1v0h0v0h0v0h-0.1v0h0v0
					h0v0h-0.1v0h0v0h-0.1v0h0v0h0v0h0v0h-0.1v0h0v0h0v0H38v0h0v0h0v0h-0.1v0h0v0h0v0h0v0h-0.1v0h0v0h0v0h0v0h0v0h-0.1v0h0v0h0v0h0v0
					h0v0h-0.1v0h0v0h0v0h0v0h0v0h-0.1v0h0v0h0v0h0v0h0v0h0v0h-0.1v0h0v0h0v0h0v0h0v0h0v0h0v0h-0.1v0h0v0h0v0h0v0h0v0h0v0h0v0h0v0h0
					v0h0v0h0v0h0v0h0v0.1h0v0.1h0v0.1h0v0.6h0v0.1h0v0.1h0v0h0v0.1h0v0h0v0h0v0h0v0h0v0h0v0h0.1v0h0v0h0.1v0h0.1v0h0.2v0h0.3v0H37v0
					h0.1v0h0.1v0h0.1v0h0v0h0.1v0h0v0h0v0h0v0h0.1v0h0v0h0v0h0v0h0v0h0.1v0h0v0h0v0h0v0h0v0h0.1v0h0v0h0v0h0v0h0v0h0.1v0h0v0h0v0h0
					v0h0v0h0.1v0h0v0h0v0h0v0h0v0h0.1v0h0v0h0v0h0v0h0v0h0.1v2.2h0v5.9h0v0h-0.2v0h-0.9v0h-0.9v0h-0.5v0h-0.1v0h-0.1v0h0v0h-0.1v0h0
					v0h0v0h0v0h0v0h0v0h0v0h0v0.1h0v0h0v0.1h0v0.2h0v0.6h0v0.1h0v0.1h0v0.1h0v0h0v0h0v0h0v0h0v0h0v0h0v0h0v0h0.1v0h0.1v0h0.1v0h0.2
					v0h0.7v0h0.8v0h1.1v0h1.1v0h3.3v0h0.1v0h0.1v0H44v0h0v0h0.1v0h0v0h0v0h0v0h0v-0.1h0v0h0v-0.1h0v-0.1h0v-0.1h0v-0.3h0v0h0v-0.3h0
					v-0.1h0v-0.1h0v-0.1h0V156h0v0h0v0h0v0h0v0h0v0h0v0H44v0h0v0h-0.1v0h-0.1v0h-0.3v0h-2v0h0v-6.1h0v-3.2h0v-0.5h0v-0.4h0v-0.1h0
					V145h0v-0.1h0v-0.1h0v0h0v0h0v-0.1h0v0h0v0h0v0h0v0h-0.1v0h0v0h-0.1v0h-0.1v0h-0.2v0H39.9z"/>
			</g>
			<g>
				<path class="st3" d="M50.5,146.6H51v0h0.2v0h0.1v0h0.1v0h0.1v0h0.1v0h0v0h0.1v0h0v0h0v0h0v0h0v0h0v0h0v0.1h0v0h0v0.1h0v0h0v0.1
					h0v0.1h0v0.2h0v1.1h0v1.3h0v1.2h2.6v0h0.1v0h0.1v0h0.1v0h0.1v0h0.1v0h0v0h0v0h0v0h0v0h0v0h0v0h0v0h0v0h0v0h0v0.1h0v0.1h0v0.1h0
					v0.1h0v0.2h0v0.6h0v0.2h0v0.1h0v0.1h0v0.1h0v0.1h0v0h0v0h0v0h0v0h0v0h0v0h0v0h0v0h0v0h0v0h-0.1v0h-0.1v0h-0.1v0h-0.1v0h-0.1v0
					h-1.5v0h-1v2.6h0v0.3h0v0.1h0v0.1h0v0.1h0v0.1h0v0h0v0h0v0h0v0h0v0h0v0h0v0h0v0h0v0h0v0h-0.1v0h0v0h-0.1v0h-0.1v0h-0.1v0h-0.3v0
					h-0.5v0h-0.2v0h-0.1v0h-0.1v0h-0.1v0h0v0H50v0h0v0h0v0h0v0h0v0h0v0h0v0h0v-0.1h0v0h0v0h0v-0.1h0v-0.1h0v-0.1h0v-0.2h0v-1.3h0
					v-1.5h-2.2v0h-1v0h-0.2v0H46v0h-0.1v0h-0.1v0h-0.1v0h0v0h0v0h0v0h0v0h0v0h0v0h0v0h0v0h0v0h0v-0.1h0v-0.1h0v-0.1h0v-0.1h0v-1h0
					v-0.1h0v-0.1h0v0h0V152h0v-0.1h0v0h0v0h0v0h0v0h0v0h0v0h0v0h0.1v0h0v0h0.1v0H46v0H46v0h0.1v0h3.2V151h0v-1.4h0v-1.3h0v-0.4h0
					v-0.3h0v-0.1h0v-0.1h0v-0.1h0v-0.1h0v0h0v0h0v0h0v0h0v0h0v0h0v0h0v0h0v0h0v0h0v0H50v0h0.1v0h0.1v0h0.1v0L50.5,146.6L50.5,146.6z
					 M50.7,146.9L50.7,146.9l-0.3,0v0h-0.1v0h-0.1v0h-0.1v0h0v0h-0.1v0h0v0h0v0h0v0.1h0v0h0v0h0v0.1h0v0.1h0v0.2h0v1.5h0v1.4h0v1h0
					v0h-3.4v0h-0.1v0h-0.1v0H46v0h0v0h-0.1v0h0v0h0v0h0v0h0v0h0v0.1h0v0h0v0.1h0v0.1h0v0.2h0v0.3h0v0.2h0v0.1h0v0.1h0v0.1h0v0h0v0h0
					v0.1h0.1v0h0v0h0v0h0v0h0.1v0h0.1v0h0.1v0h0.2v0h1.3v0H49v0h0.8v0h0v2.2h0v0.7h0v0.2h0v0.1h0v0.1h0v0h0v0.1h0v0h0v0h0v0h0v0h0v0
					h0v0h0.1v0h0v0h0.1v0h0.1v0h0.6v0h0.2v0h0.1v0h0.1v0h0v0h0v0h0.1v0h0v0h0v-0.1h0v0h0v0h0v-0.1h0v-0.1h0v-0.1h0v-0.5h0V154h0v0h1
					v0h1.7v0h0.2v0H55v0h0.1v0h0.1v0h0v0h0v0h0.1v0h0v-0.1h0v0h0v0h0v-0.1h0v-0.1h0v-0.1h0v-0.3h0v-0.1h0v-0.3h0v-0.1h0v-0.1h0v-0.1
					h0v0h0v0h0V152h0v0h-0.1v0h0v0h0v0h-0.1v0H55v0h-0.1v0h-0.2v0h-2v0H52v0h0v-1.2h0v-1.3h0V148h0v-0.3h0v-0.1h0v-0.1h0v0h0v-0.1h0
					v0h0v0h0v0h0v0h0v0h0v0h-0.1v0h-0.1v0h-0.1v0h-0.1v0L50.7,146.9L50.7,146.9L50.7,146.9z"/>
			</g>
			<g>
				<path class="st3" d="M61.2,143.9H62v0h0.2v0h0.1v0h0.1v0h0.1v0h0.1v0h0v0h0.1v0h0v0h0v0h0v0.1h0v0h0v0h0v0h0v0.1h0v0h0v0.1h0
					v0.1h0v0.1h0v0.1h0v0.3h0v0.5h0v2.4h0v6.9h1.9v0h0.2v0h0.1v0h0.1v0h0v0h0.1v0h0.1v0h0v0h0v0h0v0h0v0h0v0h0v0h0v0.1h0v0h0v0.1h0
					v0.1h0v0.1h0v0.1h0v0.2h0v0.5h0v0.3h0v0.1h0v0.1h0v0.1h0v0.1h0v0h0v0h0v0.1h0v0h0v0h0v0h0v0h-0.1v0h0v0h0v0h-0.1v0h-0.1v0h-0.1
					v0h-0.1v0H65v0h-0.5v0h-2.3v0h-1.1v0H60v0h-0.8v0h-1.1v0h-0.2v0h-0.1v0h-0.1v0h-0.1v0h0v0h-0.1v0h0v0h0v0h0v0h0v0h0v0h0v0h0v0h0
					v-0.1h0v0h0v-0.1h0v-0.1h0v-0.1h0V157h0v-0.4h0v-0.3h0v-0.1h0v-0.1h0V156h0v0h0v-0.1h0v0h0v0h0v0h0v0h0v0h0v0h0v0h0v0h0v0h0.1v0
					h0v0h0.1v0h0.1v0H58v0h0.4v0h0.9v0h0.8v0h0.2V151h0v-2.8h0v0h0v0h0v0H60v0h0v0h0v0h0v0h0v0h-0.1v0h0v0h0v0h0v0h0v0h-0.1v0h0v0h0
					v0h0v0h0v0h-0.1v0h0v0h0v0h0v0h-0.1v0h0v0h0v0h-0.1v0h-0.1v0h-0.1v0h-0.1v0h-0.2v0h-0.7v0h-0.2v0h-0.1v0h-0.1v0h-0.1v0h0v0h-0.1
					v0h0v0h0v0h0v0h0v0h0v0h0v0h0v0h0v-0.1h0v0h0v-0.1h0v-0.1h0v-0.1h0v-0.3h0v-0.5h0v-0.2h0v-0.1h0v-0.1h0v-0.1h0v-0.1h0v0h0v0h0v0
					h0v0h0v0h0v0h0v0h0v0h0v0h0v0h0v0h0v0h0v0h0.1v0h0v0h0v0h0v0h0v0h0v0h0v0h0.1v0h0v0h0v0h0v0h0v0h0v0h0.1v0h0v0h0v0h0v0h0v0h0.1
					v0h0v0h0v0h0v0h0v0h0.1v0h0v0h0v0h0v0h0v0h0.1v0h0v0h0v0h0v0h0.1v0h0v0h0v0h0.1v0h0v0h0v0h0v0h0.1v0h0v0h0v0h0.1v0h0v0h0v0h0.1
					v0h0v0h0v0H60v0h0v0h0v0h0.1v0h0v0h0.1v0h0v0h0v0h0.1v0h0.1v0h0v0h0.1v0h0.1v0h0.1v0h0.1v0H61v0L61.2,143.9L61.2,143.9z
					 M61.4,144.3L61.4,144.3l-0.2,0v0h-0.1v0H61v0h-0.1v0h-0.1v0h0v0h-0.1v0h-0.1v0h0v0h0v0h-0.1v0h0v0h-0.1v0h0v0h0v0h-0.1v0h0v0h0
					v0H60v0h0v0h-0.1v0h0v0h0v0h0v0h-0.1v0h0v0h0v0h-0.1v0h0v0h0v0h-0.1v0h0v0h0v0h0v0h-0.1v0h0v0h0v0h0v0h0v0h-0.1v0h0v0h0v0h0v0h0
					v0h-0.1v0h0v0h0v0h0v0h0v0h-0.1v0h0v0h0v0h0v0h0v0h0v0H58v0h0v0h0v0h0v0h0v0h0v0h0v0h-0.1v0h0v0h0v0h0v0h0v0h0v0h0v0h0v0h0v0h0
					v0h0v0h0v0h0v0.1h0v0.1h0v0.1h0v0.6h0v0.1h0v0.1h0v0h0v0.1h0v0h0v0h0v0h0v0h0v0h0v0h0.1v0h0v0h0.1v0h0.1v0H58v0h0.3v0h0.2v0h0.1
					v0h0.1v0h0.1v0h0v0h0.1v0h0v0h0v0h0v0h0.1v0h0v0h0v0h0v0h0v0h0.1v0h0v0h0v0h0v0h0v0h0.1v0h0v0h0v0h0v0h0v0h0.1v0h0v0h0v0h0v0h0
					v0h0.1v0h0v0h0v0h0v0h0v0h0.1v0h0v0h0v0h0v0h0v0h0.1v2.2h0v5.9h0v0h-0.2v0h-0.9v0h-0.9v0h-0.5v0h-0.1v0H58v0h0v0h-0.1v0h0v0h0v0
					h0v0h0v0h0v0h0v0h0v0.1h0v0h0v0.1h0v0.2h0v0.6h0v0.1h0v0.1h0v0.1h0v0h0v0h0v0h0v0h0v0h0v0h0v0h0v0h0.1v0H58v0h0.1v0h0.2v0h0.7v0
					h0.8v0h1.1v0h1.1v0h3.3v0h0.1v0h0.1v0h0.1v0h0v0h0.1v0h0v0h0v0h0v0h0v-0.1h0v0h0v-0.1h0v-0.1h0v-0.1h0v-0.3h0v0h0v-0.3h0v-0.1h0
					v-0.1h0v-0.1h0V156h0v0h0v0h0v0h0v0h0v0h0v0h-0.1v0h0v0h-0.1v0h-0.1v0h-0.3v0h-2v0h0v-6.1h0v-3.2h0v-0.5h0v-0.4h0v-0.1h0V145h0
					v-0.1h0v-0.1h0v0h0v0h0v-0.1h0v0h0v0h0v0h0v0h-0.1v0h0v0h-0.1v0H62v0h-0.2v0H61.4z"/>
			</g>
		</g>
	</g>
</g>
<g>
	<g id="l-realistic">
		<circle class="st0" cx="49.1" cy="271.9" r="25.1"/>
		<g>
			<path class="st3" d="M48.9,286h12.3c2.2,0,4-1.8,4-4v-18c0-2.2-1.8-4-4-4h-8.7c-0.8,0-1.5,0.2-2,0.5c-1,0.5-2.3,0.5-3.3,0
				c-0.5-0.3-1.2-0.5-2-0.5h-8.7c-2.2,0-4,1.8-4,4v18c0,2.2,1.8,4,4,4H48.9z"/>
			<path class="st11" d="M62.9,265.1v17.2c0,0.7-0.6,1.2-1.3,1.2c-2.4-0.1-7.6-0.3-10.2,0.1c-0.8,0.1-1.6-0.5-1.6-1.3v-17.2
				c0,0,0.4-1.4,2.8-1.4h8.8C62.3,263.7,62.9,264.3,62.9,265.1z"/>
			<path class="st11" d="M35.3,265.2v17.2c0,0.7,0.6,1.2,1.3,1.2c2.4-0.1,7.6-0.3,10.2,0.1c0.8,0.1,1.6-0.5,1.6-1.3l0-17.2
				c0,0-0.4-1.4-2.8-1.4h-8.8C36,263.7,35.3,264.3,35.3,265.2z"/>
			<line class="st12" x1="37.1" y1="270.1" x2="46.6" y2="270.1"/>
			<line class="st12" x1="37" y1="272.3" x2="46.5" y2="272.3"/>
			<line class="st12" x1="36.9" y1="274.5" x2="46.4" y2="274.5"/>
			<line class="st12" x1="36.8" y1="276.7" x2="46.3" y2="276.7"/>
			<line class="st12" x1="36.7" y1="278.9" x2="46.2" y2="278.9"/>
			<line class="st12" x1="51.9" y1="270.1" x2="61.3" y2="270.1"/>
			<line class="st12" x1="51.8" y1="272.3" x2="61.2" y2="272.3"/>
			<line class="st12" x1="51.7" y1="274.5" x2="61.2" y2="274.5"/>
			<line class="st12" x1="51.6" y1="276.7" x2="61.1" y2="276.7"/>
			<line class="st12" x1="51.5" y1="278.9" x2="61" y2="278.9"/>
		</g>
	</g>
	<g>
		<path class="st3" d="M84.5,260.3h-1.8v-8.7H86c1.2,0,2,0.8,2,2.3c0,1.1-0.4,1.9-1.6,2.1v0c0.4,0,1.6,0.1,1.6,1.7
			c0,0.6,0,2.2,0.2,2.5h-1.8c-0.2-0.5-0.2-1.1-0.2-1.7c0-1,0.1-1.9-1.3-1.9h-0.5V260.3z M84.5,255.4h0.8c0.7,0,0.9-0.7,0.9-1.3
			c0-0.8-0.3-1.1-0.9-1.1h-0.8V255.4z"/>
		<path class="st3" d="M89.4,260.3v-8.7h4.7v1.3h-2.9v2.1h2.7v1.3h-2.7v2.5h3v1.3H89.4z"/>
		<path class="st3" d="M94.7,260.3l2.4-8.7h2.4l2.4,8.7h-1.9l-0.5-1.9H97l-0.5,1.9H94.7z M98.2,253.3L98.2,253.3l-0.9,3.7h1.7
			L98.2,253.3z"/>
		<path class="st3" d="M102.7,260.3v-8.7h1.8v7.2h2.7v1.4H102.7z"/>
		<path class="st3" d="M108,260.3v-8.7h1.8v8.7H108z"/>
		<path class="st3" d="M113.7,260.5c-2.2,0-2.7-1.3-2.6-2.8h1.8c0,0.8,0,1.5,1,1.5c0.6,0,0.9-0.4,0.9-1c0-1.6-3.6-1.7-3.6-4.2
			c0-1.4,0.6-2.4,2.9-2.4c1.8,0,2.6,0.8,2.5,2.6h-1.8c0-0.6-0.1-1.3-0.8-1.3c-0.6,0-0.9,0.3-0.9,0.9c0,1.6,3.6,1.5,3.6,4.2
			C116.7,260.2,115.1,260.5,113.7,260.5z"/>
		<path class="st3" d="M123.2,251.6v1.4h-2v7.2h-1.8v-7.2h-2v-1.4H123.2z"/>
		<path class="st3" d="M124,260.3v-8.7h1.8v8.7H124z"/>
		<path class="st3" d="M127.3,256c0-2.3,0-4.5,3-4.5c1.8,0,2.6,1,2.5,2.9H131c0-1.2-0.2-1.6-0.7-1.6c-1,0-1.2,1-1.2,3.2
			c0,2.2,0.1,3.2,1.2,3.2c0.8,0,0.8-1.1,0.8-1.8h1.8c0,2.3-0.9,3.1-2.6,3.1C127.3,260.5,127.3,258.2,127.3,256z"/>
		<path class="st3" d="M82.6,264.1h1.9c0.7,0,1.2,0,1.6,0.5c0.3,0.3,0.4,0.7,0.4,1.1c0,0.4-0.1,0.8-0.5,1.1
			c-0.3,0.3-0.7,0.5-1.7,0.5h-0.9v2.6h-0.8V264.1z M83.4,266.7h1c0.5,0,1.3,0,1.3-1c0-0.9-0.8-0.9-1.2-0.9h-1.1V266.7z"/>
		<path class="st3" d="M87.4,266.7c0-0.3,0-0.6,0-0.8h0.8l0,0.8c0.1-0.6,0.6-0.7,1-0.8c0.2,0,0.4,0,0.5,0v0.7c0,0-0.1,0-0.1,0
			c-0.1,0-0.1,0-0.2,0c-0.9,0-1.1,0.5-1.1,1.2v2.1h-0.8V266.7z"/>
		<path class="st3" d="M90.9,268c0,0.8,0.3,1.4,1.2,1.4c0.5,0,0.9-0.3,0.9-0.8h0.8c0,0.2-0.1,0.5-0.3,0.8c-0.2,0.2-0.6,0.5-1.4,0.5
			c-1.3,0-1.9-0.8-1.9-2.1c0-0.8,0.2-1.4,0.8-1.9c0.4-0.3,0.9-0.3,1.1-0.3c1.8,0,1.8,1.6,1.7,2.2H90.9z M93.1,267.5
			c0-0.4-0.1-1.2-1-1.2c-0.5,0-1.1,0.3-1.1,1.2H93.1z"/>
		<path class="st3" d="M96.9,264.7c-0.1,0-0.3,0-0.4,0c-0.6,0-0.6,0.3-0.6,0.6v0.6h0.9v0.5h-0.9v3.5h-0.7v-3.5h-0.8v-0.5h0.8v-0.5
			c0-0.6,0-0.8,0.2-1c0.2-0.3,0.5-0.4,1-0.4c0.2,0,0.5,0,0.6,0.1V264.7z"/>
		<path class="st3" d="M98.1,268c0,0.8,0.3,1.4,1.2,1.4c0.5,0,0.9-0.3,0.9-0.8h0.8c0,0.2-0.1,0.5-0.3,0.8c-0.2,0.2-0.6,0.5-1.4,0.5
			c-1.3,0-1.9-0.8-1.9-2.1c0-0.8,0.2-1.4,0.8-1.9c0.4-0.3,0.9-0.3,1.1-0.3c1.8,0,1.8,1.6,1.7,2.2H98.1z M100.2,267.5
			c0-0.4-0.1-1.2-1-1.2c-0.5,0-1.1,0.3-1.1,1.2H100.2z"/>
		<path class="st3" d="M102.1,266.7c0-0.3,0-0.6,0-0.8h0.8l0,0.8c0.1-0.6,0.6-0.7,1-0.8c0.2,0,0.4,0,0.5,0v0.7c0,0-0.1,0-0.1,0
			c-0.1,0-0.1,0-0.2,0c-0.9,0-1.1,0.5-1.1,1.2v2.1h-0.8V266.7z"/>
		<path class="st3" d="M105.7,268.7c0,0.3,0.2,0.7,0.9,0.7c0.3,0,0.5-0.1,0.7-0.3c0.1-0.1,0.1-0.2,0.1-0.4c0-0.4-0.3-0.5-0.9-0.6
			c-0.8-0.2-1.5-0.4-1.5-1.2c0-0.7,0.6-1.2,1.6-1.2c0.5,0,1.2,0.1,1.4,0.6c0.1,0.2,0.1,0.4,0.1,0.6h-0.8c0-0.6-0.5-0.7-0.8-0.7
			c-0.1,0-0.8,0-0.8,0.6c0,0.4,0.4,0.5,0.6,0.5c1.1,0.3,1.4,0.3,1.6,0.6c0.2,0.2,0.3,0.5,0.3,0.7c0,0.4-0.2,0.8-0.5,1
			c-0.4,0.2-0.8,0.3-1.2,0.3c-0.8,0-1.6-0.3-1.6-1.3H105.7z"/>
		<path class="st3" d="M110.9,265.9h0.7V265l0.7-0.2v1.1h0.9v0.6h-0.9v2.4c0,0.2,0,0.5,0.5,0.5c0.2,0,0.3,0,0.4,0v0.6
			c-0.1,0-0.4,0-0.6,0c-0.7,0-1-0.2-1-0.9v-2.7h-0.7V265.9z"/>
		<path class="st3" d="M115.9,265.8c1.6,0,2,1.3,2,2.1c0,1.2-0.7,2.2-2,2.2c-1.3,0-2-0.9-2-2.1C113.9,267,114.4,265.8,115.9,265.8z
			 M115.9,269.5c0.6,0,1.2-0.4,1.2-1.6c0-1-0.5-1.5-1.2-1.5c-0.5,0-1.3,0.3-1.3,1.6C114.7,268.7,115,269.5,115.9,269.5z"/>
		<path class="st3" d="M121.4,266.7c0-0.3,0-0.6,0-0.8h0.8l0,0.8c0.1-0.6,0.6-0.7,1-0.8c0.2,0,0.4,0,0.5,0v0.7c0,0-0.1,0-0.1,0
			c-0.1,0-0.1,0-0.2,0c-0.9,0-1.1,0.5-1.1,1.2v2.1h-0.8V266.7z"/>
		<path class="st3" d="M124.9,268c0,0.8,0.3,1.4,1.2,1.4c0.5,0,0.9-0.3,0.9-0.8h0.8c0,0.2-0.1,0.5-0.3,0.8c-0.2,0.2-0.6,0.5-1.4,0.5
			c-1.3,0-1.9-0.8-1.9-2.1c0-0.8,0.2-1.4,0.8-1.9c0.4-0.3,0.9-0.3,1.1-0.3c1.8,0,1.8,1.6,1.7,2.2H124.9z M127,267.5
			c0-0.4-0.1-1.2-1-1.2c-0.5,0-1.1,0.3-1.1,1.2H127z"/>
		<path class="st3" d="M131.3,269.9c-0.1-0.2-0.1-0.4-0.1-0.6c-0.4,0.7-0.9,0.7-1.2,0.7c-0.9,0-1.4-0.5-1.4-1.2
			c0-0.3,0.1-0.8,0.7-1.2c0.4-0.2,1.1-0.3,1.4-0.3c0.2,0,0.3,0,0.5,0c0-0.5,0-0.7-0.1-0.9c-0.2-0.2-0.5-0.3-0.7-0.3
			c-0.8,0-0.8,0.5-0.8,0.7h-0.8c0-0.2,0-0.5,0.3-0.8c0.3-0.3,0.9-0.4,1.3-0.4c0.6,0,1.2,0.2,1.4,0.6c0.1,0.2,0.1,0.4,0.1,0.6l0,1.9
			c0,0.1,0,0.6,0.1,1H131.3z M130.8,267.9c-0.3,0-1.4,0-1.4,0.8c0,0.3,0.2,0.7,0.8,0.7c0.4,0,0.7-0.2,0.9-0.4
			c0.2-0.3,0.2-0.5,0.2-1.1C131.1,267.9,131,267.9,130.8,267.9z"/>
		<path class="st3" d="M136.1,264.1h0.8v5.1c0,0.1,0,0.4,0,0.6h-0.8l0-0.6c-0.1,0.1-0.2,0.3-0.4,0.4c-0.3,0.2-0.7,0.3-1,0.3
			c-0.5,0-1.7-0.3-1.7-2c0-1.5,0.9-2.2,1.8-2.2c0.9,0,1.2,0.5,1.2,0.7V264.1z M135.8,266.7c-0.2-0.2-0.5-0.4-0.9-0.4
			c-1.1,0-1.1,1.3-1.1,1.6c0,0.7,0.2,1.5,1.1,1.5c1.2,0,1.2-1.3,1.2-1.6C136.1,267.3,136,266.9,135.8,266.7z"/>
		<path class="st3" d="M140.5,266.7c0-0.3,0-0.6,0-0.8h0.8l0,0.8c0.1-0.6,0.6-0.7,1-0.8c0.2,0,0.4,0,0.5,0v0.7c0,0-0.1,0-0.1,0
			c-0.1,0-0.1,0-0.2,0c-0.9,0-1.1,0.5-1.1,1.2v2.1h-0.8V266.7z"/>
		<path class="st3" d="M144,268c0,0.8,0.3,1.4,1.2,1.4c0.5,0,0.9-0.3,0.9-0.8h0.8c0,0.2-0.1,0.5-0.3,0.8c-0.2,0.2-0.6,0.5-1.4,0.5
			c-1.3,0-1.9-0.8-1.9-2.1c0-0.8,0.2-1.4,0.8-1.9c0.4-0.3,0.9-0.3,1.1-0.3c1.8,0,1.8,1.6,1.7,2.2H144z M146.1,267.5
			c0-0.4-0.1-1.2-1-1.2c-0.5,0-1.1,0.3-1.1,1.2H146.1z"/>
		<path class="st3" d="M150.4,269.9c-0.1-0.2-0.1-0.4-0.1-0.6c-0.4,0.7-0.9,0.7-1.2,0.7c-0.9,0-1.4-0.5-1.4-1.2
			c0-0.3,0.1-0.8,0.7-1.2c0.4-0.2,1.1-0.3,1.4-0.3c0.2,0,0.3,0,0.5,0c0-0.5,0-0.7-0.1-0.9c-0.2-0.2-0.5-0.3-0.7-0.3
			c-0.8,0-0.8,0.5-0.8,0.7H148c0-0.2,0-0.5,0.3-0.8c0.3-0.3,0.9-0.4,1.3-0.4c0.6,0,1.2,0.2,1.4,0.6c0.1,0.2,0.1,0.4,0.1,0.6l0,1.9
			c0,0.1,0,0.6,0.1,1H150.4z M149.9,267.9c-0.3,0-1.4,0-1.4,0.8c0,0.3,0.2,0.7,0.8,0.7c0.4,0,0.7-0.2,0.9-0.4
			c0.2-0.3,0.2-0.5,0.2-1.1C150.2,267.9,150.1,267.9,149.9,267.9z"/>
		<path class="st3" d="M152.5,264.1h0.8v5.8h-0.8V264.1z"/>
		<path class="st3" d="M154.6,264.2h0.9v0.8h-0.9V264.2z M154.7,265.9h0.8v4h-0.8V265.9z"/>
		<path class="st3" d="M157.3,268.7c0,0.3,0.2,0.7,0.9,0.7c0.3,0,0.5-0.1,0.7-0.3c0.1-0.1,0.1-0.2,0.1-0.4c0-0.4-0.3-0.5-0.9-0.6
			c-0.8-0.2-1.5-0.4-1.5-1.2c0-0.7,0.6-1.2,1.6-1.2c0.5,0,1.2,0.1,1.4,0.6c0.1,0.2,0.1,0.4,0.1,0.6H159c0-0.6-0.5-0.7-0.8-0.7
			c-0.1,0-0.8,0-0.8,0.6c0,0.4,0.4,0.5,0.6,0.5c1.1,0.3,1.4,0.3,1.6,0.6c0.2,0.2,0.3,0.5,0.3,0.7c0,0.4-0.2,0.8-0.5,1
			c-0.4,0.2-0.8,0.3-1.2,0.3c-0.8,0-1.6-0.3-1.6-1.3H157.3z"/>
		<path class="st3" d="M160.3,265.9h0.7V265l0.7-0.2v1.1h0.9v0.6h-0.9v2.4c0,0.2,0,0.5,0.5,0.5c0.2,0,0.3,0,0.4,0v0.6
			c-0.1,0-0.4,0-0.6,0c-0.7,0-1-0.2-1-0.9v-2.7h-0.7V265.9z"/>
		<path class="st3" d="M163.5,264.2h0.9v0.8h-0.9V264.2z M163.6,265.9h0.8v4h-0.8V265.9z"/>
		<path class="st3" d="M168.1,267.2c0-0.2-0.1-0.8-0.8-0.8c-1,0-1,1.2-1,1.5c0,0.8,0.2,1.6,1,1.6c0.6,0,0.9-0.5,0.9-0.9h0.8
			c0,0.8-0.6,1.4-1.6,1.4c-0.3,0-0.9-0.1-1.3-0.5c-0.2-0.3-0.5-0.7-0.5-1.5c0-1.7,1-2.2,1.8-2.2c0.3,0,0.9,0.1,1.2,0.5
			c0.3,0.3,0.3,0.7,0.3,0.9H168.1z"/>
		<path class="st3" d="M83.1,278.3c0,0.3,0.2,0.7,0.9,0.7c0.3,0,0.5-0.1,0.7-0.3c0.1-0.1,0.1-0.2,0.1-0.4c0-0.4-0.3-0.5-0.9-0.6
			c-0.8-0.2-1.5-0.4-1.5-1.2c0-0.7,0.6-1.2,1.6-1.2c0.5,0,1.2,0.1,1.4,0.6c0.1,0.2,0.1,0.4,0.1,0.6h-0.8c0-0.6-0.5-0.7-0.8-0.7
			c-0.1,0-0.8,0-0.8,0.6c0,0.4,0.4,0.5,0.6,0.5c1.1,0.3,1.4,0.3,1.6,0.6c0.2,0.2,0.3,0.5,0.3,0.7c0,0.4-0.2,0.8-0.5,1
			c-0.4,0.2-0.8,0.3-1.2,0.3c-0.8,0-1.6-0.3-1.6-1.3H83.1z"/>
		<path class="st3" d="M86,275.5h0.7v-0.8l0.7-0.2v1.1h0.9v0.6h-0.9v2.4c0,0.2,0,0.5,0.5,0.5c0.2,0,0.3,0,0.4,0v0.6
			c-0.1,0-0.4,0-0.6,0c-0.7,0-1-0.2-1-0.9V276H86V275.5z"/>
		<path class="st3" d="M91.1,275.4c1.6,0,2,1.3,2,2.1c0,1.2-0.7,2.2-2,2.2c-1.3,0-2-0.9-2-2.1C89,276.6,89.5,275.4,91.1,275.4z
			 M91,279.1c0.6,0,1.2-0.4,1.2-1.6c0-1-0.5-1.5-1.2-1.5c-0.5,0-1.3,0.3-1.3,1.6C89.8,278.3,90.1,279.1,91,279.1z"/>
		<path class="st3" d="M94.2,276.3c0-0.3,0-0.6,0-0.8H95l0,0.8c0.1-0.6,0.6-0.7,1-0.8c0.2,0,0.4,0,0.5,0v0.7c0,0-0.1,0-0.1,0
			c-0.1,0-0.1,0-0.2,0c-0.9,0-1.1,0.5-1.1,1.2v2.1h-0.8V276.3z"/>
		<path class="st3" d="M97.2,273.8h0.9v0.8h-0.9V273.8z M97.3,275.5h0.8v4h-0.8V275.5z"/>
		<path class="st3" d="M100,277.6c0,0.8,0.3,1.4,1.2,1.4c0.5,0,0.9-0.3,0.9-0.8h0.8c0,0.2-0.1,0.5-0.3,0.8c-0.2,0.2-0.6,0.5-1.4,0.5
			c-1.3,0-1.9-0.8-1.9-2.1c0-0.8,0.2-1.4,0.8-1.9c0.4-0.3,0.9-0.3,1.1-0.3c1.8,0,1.8,1.6,1.7,2.2H100z M102.1,277.1
			c0-0.4-0.1-1.2-1-1.2c-0.5,0-1.1,0.3-1.1,1.2H102.1z"/>
		<path class="st3" d="M104.4,278.3c0,0.3,0.2,0.7,0.9,0.7c0.3,0,0.5-0.1,0.7-0.3c0.1-0.1,0.1-0.2,0.1-0.4c0-0.4-0.3-0.5-0.9-0.6
			c-0.8-0.2-1.5-0.4-1.5-1.2c0-0.7,0.6-1.2,1.6-1.2c0.5,0,1.2,0.1,1.4,0.6c0.1,0.2,0.1,0.4,0.1,0.6h-0.8c0-0.6-0.5-0.7-0.8-0.7
			c-0.1,0-0.8,0-0.8,0.6c0,0.4,0.4,0.5,0.6,0.5c1.1,0.3,1.4,0.3,1.6,0.6c0.2,0.2,0.3,0.5,0.3,0.7c0,0.4-0.2,0.8-0.5,1
			c-0.4,0.2-0.8,0.3-1.2,0.3c-0.8,0-1.6-0.3-1.6-1.3H104.4z"/>
		<path class="st3" d="M112.7,279.5c-0.1-0.2-0.1-0.4-0.1-0.6c-0.4,0.7-0.9,0.7-1.2,0.7c-0.9,0-1.4-0.5-1.4-1.2
			c0-0.3,0.1-0.8,0.7-1.2c0.4-0.2,1.1-0.3,1.4-0.3c0.2,0,0.3,0,0.5,0c0-0.5,0-0.7-0.1-0.9c-0.2-0.2-0.5-0.3-0.7-0.3
			c-0.8,0-0.8,0.5-0.8,0.7h-0.8c0-0.2,0-0.5,0.3-0.8c0.3-0.3,0.9-0.4,1.3-0.4c0.6,0,1.2,0.2,1.4,0.6c0.1,0.2,0.1,0.4,0.1,0.6l0,1.9
			c0,0.1,0,0.6,0.1,1H112.7z M112.1,277.5c-0.3,0-1.4,0-1.4,0.8c0,0.3,0.2,0.7,0.8,0.7c0.4,0,0.7-0.2,0.9-0.4
			c0.2-0.3,0.2-0.5,0.2-1.1C112.4,277.5,112.3,277.5,112.1,277.5z"/>
		<path class="st3" d="M114.7,276l0-0.5h0.8l0,0.6c0.1-0.2,0.4-0.7,1.3-0.7c0.4,0,1.5,0.1,1.5,1.4v2.7h-0.8V277c0-0.3,0-0.5-0.2-0.7
			c-0.2-0.2-0.5-0.3-0.7-0.3c-0.5,0-1,0.4-1,1.2v2.3h-0.8V276z"/>
		<path class="st3" d="M122.3,273.7h0.8v5.1c0,0.1,0,0.4,0,0.6h-0.8l0-0.6c-0.1,0.1-0.2,0.3-0.4,0.4c-0.3,0.2-0.7,0.3-1,0.3
			c-0.5,0-1.7-0.3-1.7-2c0-1.5,0.9-2.2,1.8-2.2c0.9,0,1.2,0.5,1.2,0.7V273.7z M122,276.3c-0.2-0.2-0.5-0.4-0.9-0.4
			c-1.1,0-1.1,1.3-1.1,1.6c0,0.7,0.2,1.5,1.1,1.5c1.2,0,1.2-1.3,1.2-1.6C122.3,276.9,122.2,276.5,122,276.3z"/>
		<path class="st3" d="M126.9,275.5l1,3.2l1-3.2h1l0.9,3.2l1-3.2h0.8l-1.4,4h-0.9l-0.9-3.3l-1,3.3h-0.9l-1.3-4H126.9z"/>
		<path class="st3" d="M133.4,276.3c0-0.3,0-0.6,0-0.8h0.8l0,0.8c0.1-0.6,0.6-0.7,1-0.8c0.2,0,0.4,0,0.5,0v0.7c0,0-0.1,0-0.1,0
			c-0.1,0-0.1,0-0.2,0c-0.9,0-1.1,0.5-1.1,1.2v2.1h-0.8V276.3z"/>
		<path class="st3" d="M136.4,273.8h0.9v0.8h-0.9V273.8z M136.4,275.5h0.8v4h-0.8V275.5z"/>
		<path class="st3" d="M138,275.5h0.7v-0.8l0.7-0.2v1.1h0.9v0.6h-0.9v2.4c0,0.2,0,0.5,0.5,0.5c0.2,0,0.3,0,0.4,0v0.6
			c-0.1,0-0.4,0-0.6,0c-0.7,0-1-0.2-1-0.9V276H138V275.5z"/>
		<path class="st3" d="M141.8,277.6c0,0.8,0.3,1.4,1.2,1.4c0.5,0,0.9-0.3,0.9-0.8h0.8c0,0.2-0.1,0.5-0.3,0.8
			c-0.2,0.2-0.6,0.5-1.4,0.5c-1.3,0-1.9-0.8-1.9-2.1c0-0.8,0.2-1.4,0.8-1.9c0.4-0.3,0.9-0.3,1.1-0.3c1.8,0,1.8,1.6,1.7,2.2H141.8z
			 M143.9,277.1c0-0.4-0.1-1.2-1-1.2c-0.5,0-1.1,0.3-1.1,1.2H143.9z"/>
		<path class="st3" d="M82.7,285.6l0-0.5h0.8l0,0.6c0.1-0.2,0.4-0.7,1.3-0.7c0.4,0,1.5,0.1,1.5,1.4v2.7h-0.8v-2.6
			c0-0.3,0-0.5-0.2-0.7c-0.2-0.2-0.5-0.3-0.7-0.3c-0.5,0-1,0.4-1,1.2v2.3h-0.8V285.6z"/>
		<path class="st3" d="M89.3,285c1.6,0,2,1.3,2,2.1c0,1.2-0.7,2.2-2,2.2c-1.3,0-2-0.9-2-2.1C87.2,286.2,87.7,285,89.3,285z
			 M89.2,288.7c0.6,0,1.2-0.4,1.2-1.6c0-1-0.5-1.5-1.2-1.5c-0.5,0-1.3,0.3-1.3,1.6C88,287.9,88.4,288.7,89.2,288.7z"/>
		<path class="st3" d="M92.4,285.6l0-0.5h0.8l0,0.6c0.1-0.2,0.4-0.7,1.3-0.7c0.4,0,1.5,0.1,1.5,1.4v2.7h-0.8v-2.6
			c0-0.3,0-0.5-0.2-0.7c-0.2-0.2-0.5-0.3-0.7-0.3c-0.5,0-1,0.4-1,1.2v2.3h-0.8V285.6z"/>
		<path class="st3" d="M96.9,286.7h2v0.6h-2V286.7z"/>
		<path class="st3" d="M102,283.9c-0.1,0-0.3,0-0.4,0c-0.6,0-0.6,0.3-0.6,0.6v0.6h0.9v0.5h-0.9v3.5h-0.7v-3.5h-0.8v-0.5h0.8v-0.5
			c0-0.6,0-0.8,0.2-1c0.2-0.3,0.5-0.4,1-0.4c0.2,0,0.5,0,0.6,0.1V283.9z M102.6,283.4h0.9v0.8h-0.9V283.4z M102.6,289.1v-4h0.7v4
			H102.6z"/>
		<path class="st3" d="M107.1,286.4c0-0.2-0.1-0.8-0.8-0.8c-1,0-1,1.2-1,1.5c0,0.8,0.2,1.6,1,1.6c0.6,0,0.9-0.5,0.9-0.9h0.8
			c0,0.8-0.6,1.4-1.6,1.4c-0.3,0-0.9-0.1-1.3-0.5c-0.2-0.3-0.5-0.7-0.5-1.5c0-1.7,1-2.2,1.8-2.2c0.3,0,0.9,0.1,1.2,0.5
			c0.3,0.3,0.3,0.7,0.3,0.9H107.1z"/>
		<path class="st3" d="M108.2,285.1h0.7v-0.8l0.7-0.2v1.1h0.9v0.6h-0.9v2.4c0,0.2,0,0.5,0.5,0.5c0.2,0,0.3,0,0.4,0v0.6
			c-0.1,0-0.4,0-0.6,0c-0.7,0-1-0.2-1-0.9v-2.7h-0.7V285.1z"/>
		<path class="st3" d="M111.5,283.4h0.9v0.8h-0.9V283.4z M111.5,285.1h0.8v4h-0.8V285.1z"/>
		<path class="st3" d="M115.5,285c1.6,0,2,1.3,2,2.1c0,1.2-0.7,2.2-2,2.2c-1.3,0-2-0.9-2-2.1C113.5,286.2,113.9,285,115.5,285z
			 M115.4,288.7c0.6,0,1.2-0.4,1.2-1.6c0-1-0.5-1.5-1.2-1.5c-0.5,0-1.3,0.3-1.3,1.6C114.2,287.9,114.6,288.7,115.4,288.7z"/>
		<path class="st3" d="M118.7,285.6l0-0.5h0.8l0,0.6c0.1-0.2,0.4-0.7,1.3-0.7c0.4,0,1.5,0.1,1.5,1.4v2.7h-0.8v-2.6
			c0-0.3,0-0.5-0.2-0.7c-0.2-0.2-0.5-0.3-0.7-0.3c-0.5,0-1,0.4-1,1.2v2.3h-0.8V285.6z"/>
	</g>
</g>
</svg>
