<?xml version="1.0" encoding="utf-8"?>
<!-- Generator: Adobe Illustrator 19.2.1, SVG Export Plug-In . SVG Version: 6.00 Build 0)  -->
<!DOCTYPE svg PUBLIC "-//W3C//DTD SVG 1.1//EN" "http://www.w3.org/Graphics/SVG/1.1/DTD/svg11.dtd">
<svg version="1.1" id="Layer_1" xmlns="http://www.w3.org/2000/svg" xmlns:xlink="http://www.w3.org/1999/xlink" x="0px" y="0px"
	 width="177.3px" height="364.4px" viewBox="0 0 177.3 364.4" style="enable-background:new 0 0 177.3 364.4;" xml:space="preserve"
	>
<style type="text/css">
	.Drop_x0020_Shadow{fill:none;}
	.Outer_x0020_Glow_x0020_5_x0020_pt{fill:none;}
	.Blue_x0020_Neon{fill:none;stroke:#8AACDA;stroke-width:7;stroke-linecap:round;stroke-linejoin:round;}
	.Chrome_x0020_Highlight{fill:url(#SVGID_1_);stroke:#FFFFFF;stroke-width:0.3629;stroke-miterlimit:1;}
	.Jive_GS{fill:#FFDD00;}
	.Alyssa_GS{fill:#A6D0E4;}
	.st0{opacity:0.5;fill:#ECD177;}
	.st1{fill:#ED5A49;}
	.st2{fill:#542337;}
	.st3{fill:#0A3656;}
	.st4{fill:none;stroke:#0A3656;stroke-width:0.556;stroke-linecap:round;stroke-linejoin:round;}
	.st5{fill:#6C869A;}
	.st6{fill:#A9B9C4;}
	.st7{fill:#FFFFFF;}
	.st8{fill:none;stroke:#85CCCB;stroke-width:0.2835;stroke-linecap:round;stroke-linejoin:round;stroke-miterlimit:10;}
	.st9{fill:#FFFFFF;stroke:#85CCCB;stroke-width:0.375;stroke-miterlimit:10;}
	.st10{fill:#0A3656;stroke:#0A3656;stroke-width:9.306000e-02;stroke-miterlimit:10;}
	.st11{fill:#E9F5FC;}
	.st12{fill:none;stroke:#0A3656;stroke-width:0.1296;stroke-linecap:round;stroke-linejoin:round;stroke-miterlimit:10;}
	.st13{opacity:0.5;fill:#337D7D;}
	.st14{fill:#00A14B;}
	.st15{fill:#224099;}
	.st16{fill:#FFDD15;}
	.st17{fill:#EC1C24;}
	.st18{fill:#C12944;}
	.st19{fill:#542337;stroke:#542337;stroke-width:0.84;stroke-miterlimit:10;}
	.st20{fill:none;stroke:#542337;stroke-width:0.672;stroke-miterlimit:10;}
	.st21{fill:#E9F5FC;stroke:#542337;stroke-width:0.672;stroke-miterlimit:10;}
	.st22{fill:#FFFFFF;stroke:#542337;stroke-width:0.3762;stroke-miterlimit:10;}
	.st23{fill:#FFFFFF;stroke:#542337;stroke-width:0.4251;stroke-miterlimit:10;}
	.st24{fill:#542337;stroke:#542337;stroke-width:4.252500e-02;stroke-miterlimit:10;}
	.st25{fill:#FFFFFF;stroke:#542337;stroke-width:3.937500e-02;stroke-miterlimit:10;}
	.st26{fill:#FFFFFF;stroke:#542337;stroke-width:0.1875;stroke-miterlimit:10;}
	.st27{fill:#F1F1F2;}
	.st28{fill:none;stroke:#542337;stroke-width:5.250000e-02;stroke-miterlimit:10;}
	.st29{fill:#DDE8F0;}
	.st30{fill:#CAD4DC;}
	.st31{fill:#ECD177;}
	.st32{fill:none;stroke:#542337;stroke-width:1.2875;stroke-linecap:round;stroke-linejoin:round;}
	.st33{fill:#337D7D;}
</style>
<linearGradient id="SVGID_1_" gradientUnits="userSpaceOnUse" x1="-287" y1="-46.6061" x2="-287" y2="-47.6061">
	<stop  offset="0" style="stop-color:#656565"/>
	<stop  offset="0.618" style="stop-color:#1B1B1B"/>
	<stop  offset="0.6292" style="stop-color:#545454"/>
	<stop  offset="0.9831" style="stop-color:#3E3E3E"/>
</linearGradient>
<g>
	<g id="r-art">
		<circle class="st13" cx="40" cy="148.2" r="25.1"/>
		<g>
			<path class="st2" d="M53.1,143c-1.9-4.2-7-7.2-13-7.2c-7.6,0-13.8,4.8-13.8,10.8s6.2,10.8,13.8,10.8c3.4,0,6.4-0.9,8.8-2.5
				c0.9-0.6,1.1-1.9,0.3-2.7c-1.2-1.2-2-1.9-2.4-3.4c-0.7-2.6,0.4-4.4,3.8-3.6c0.1,0,0.3,0.1,0.4,0.1
				C52.5,145.8,53.7,144.3,53.1,143z M43.9,150.2c-1,0-1.8-0.7-1.8-1.5s0.8-1.5,1.8-1.5c1,0,1.8,0.7,1.8,1.5S44.9,150.2,43.9,150.2z
				"/>
			<path class="st14" d="M31.9,138.9c-0.5,0.3,0.1,1.6,0,2.1c-0.1,0.4-0.9,1.1-0.7,1.5c0.3,0.6,2.1,0.7,2.8,0.5
				c0.5-0.2,1.4-1.1,1.4-1.7c0-0.3-0.7-0.6-0.7-0.8c-0.1-0.5,0.5-1.9,0.1-2.1c-0.5-0.3-1.3,1-1.8,1.1
				C32.6,139.5,32.1,138.8,31.9,138.9z"/>
			<path class="st15" d="M29.4,148.2c-0.3,0.5,0.9,1.3,1.1,1.9c0.1,0.4-0.2,1.4,0.1,1.7c0.6,0.4,2.2-0.5,2.7-1
				c0.3-0.4,0.6-1.7,0.4-2.1c-0.1-0.2-0.9-0.2-1-0.4c-0.4-0.4-0.5-1.9-1-1.9c-0.5,0-0.7,1.5-1.1,1.8C30.3,148.3,29.5,148,29.4,148.2
				z"/>
			<path class="st16" d="M37.3,151.5c-0.4,0.4,0.5,1.5,0.5,2.1c0,0.4-0.6,1.3-0.3,1.6c0.5,0.5,2.3,0.2,2.8-0.2
				c0.4-0.3,1.1-1.4,0.9-2c-0.1-0.3-0.8-0.4-0.9-0.6c-0.2-0.5,0.1-1.9-0.4-2.1c-0.5-0.2-1,1.3-1.5,1.5
				C38.1,151.9,37.5,151.3,37.3,151.5z"/>
			<path class="st17" d="M42.4,137.2c-0.5,0-0.7,1.5-1.1,1.9c-0.3,0.3-1.3,0.5-1.4,1c-0.1,0.7,1.5,1.7,2.2,1.8
				c0.5,0.1,1.8-0.3,2-0.8c0.1-0.2-0.3-0.8-0.2-1.1c0.2-0.5,1.4-1.3,1.1-1.8c-0.3-0.5-1.6,0.2-2.1,0
				C42.8,138.1,42.7,137.2,42.4,137.2z"/>
		</g>
	</g>
	<g>
		<path class="st3" d="M72.1,131.8l2.4-8.7h2.4l2.4,8.7h-1.9l-0.5-1.9h-2.5l-0.5,1.9H72.1z M75.6,124.8L75.6,124.8l-0.9,3.7h1.7
			L75.6,124.8z"/>
		<path class="st3" d="M81.9,131.8h-1.8v-8.7h3.3c1.2,0,2,0.8,2,2.3c0,1.1-0.4,1.9-1.6,2.1v0c0.4,0,1.6,0.1,1.6,1.7
			c0,0.6,0,2.2,0.2,2.5h-1.8c-0.2-0.5-0.2-1.1-0.2-1.7c0-1,0.1-1.9-1.3-1.9h-0.5V131.8z M81.9,126.9h0.8c0.7,0,0.9-0.7,0.9-1.3
			c0-0.8-0.3-1.1-0.9-1.1h-0.8V126.9z"/>
		<path class="st3" d="M92,123.2v1.4h-2v7.2h-1.8v-7.2h-2v-1.4H92z"/>
		<path class="st3" d="M92.8,131.8v-8.7h1.8v8.7H92.8z"/>
		<path class="st3" d="M98.5,132c-2.2,0-2.7-1.3-2.6-2.8h1.8c0,0.8,0,1.5,1,1.5c0.6,0,0.9-0.4,0.9-1c0-1.6-3.6-1.7-3.6-4.2
			c0-1.4,0.6-2.4,2.9-2.4c1.8,0,2.6,0.8,2.5,2.6h-1.8c0-0.6-0.1-1.3-0.8-1.3c-0.6,0-0.9,0.3-0.9,0.9c0,1.6,3.6,1.5,3.6,4.2
			C101.5,131.7,99.9,132,98.5,132z"/>
		<path class="st3" d="M108,123.2v1.4h-2v7.2h-1.8v-7.2h-2v-1.4H108z"/>
		<path class="st3" d="M108.8,131.8v-8.7h1.8v8.7H108.8z"/>
		<path class="st3" d="M112.1,127.5c0-2.3,0-4.5,3-4.5c1.8,0,2.6,1,2.5,2.9h-1.8c0-1.2-0.2-1.6-0.7-1.6c-1,0-1.2,1-1.2,3.2
			c0,2.2,0.1,3.2,1.2,3.2c0.8,0,0.8-1.1,0.8-1.8h1.8c0,2.3-0.9,3.1-2.6,3.1C112.1,132,112.1,129.8,112.1,127.5z"/>
		<path class="st3" d="M126,130.7c0,0.4,0,0.8,0.1,1.1h-1.6l-0.1-0.8h0c-0.4,0.6-0.9,0.9-1.6,0.9c-1.2,0-1.6-0.9-1.6-1.9
			c0-2,1.5-2.1,3.1-2.1v-0.5c0-0.5-0.1-0.9-0.7-0.9c-0.6,0-0.6,0.4-0.6,0.9h-1.7c0-0.7,0.2-1.2,0.6-1.5c0.4-0.3,0.9-0.4,1.6-0.4
			c2.1,0,2.4,0.9,2.4,2V130.7z M122.9,130c0,0.4,0.1,1,0.6,1c1,0,0.8-1.3,0.8-2C123.5,128.9,122.9,128.9,122.9,130z"/>
		<path class="st3" d="M129.1,126.4L129.1,126.4c0.2-0.3,0.4-0.5,0.6-0.6c0.2-0.1,0.5-0.2,0.8-0.2c0.8,0,1.5,0.5,1.5,1.3v4.9h-1.7
			v-4.2c0-0.5-0.1-1-0.6-1c-0.5,0-0.6,0.4-0.6,1v4.2h-1.7v-6.1h1.7V126.4z"/>
		<path class="st3" d="M136.4,131.8v-0.7h0c-0.3,0.6-0.8,0.8-1.4,0.8c-1.8,0-1.7-1.9-1.7-3.2c0-1.2,0-3.1,1.7-3.1
			c0.6,0,1,0.2,1.4,0.7h0v-3.2h1.7v8.7H136.4z M136.3,128.8c0-1.2,0-2.1-0.7-2.1c-0.7,0-0.7,0.8-0.7,2.1c0,1.5,0.1,2.2,0.7,2.2
			C136.2,130.9,136.3,130.3,136.3,128.8z"/>
		<path class="st3" d="M72.7,141.9c0-2.3,0-4.5,3-4.5c1.8,0,2.6,1,2.5,2.9h-1.8c0-1.2-0.2-1.6-0.7-1.6c-1,0-1.2,1-1.2,3.2
			c0,2.2,0.1,3.2,1.2,3.2c0.8,0,0.8-1.1,0.8-1.8h1.8c0,2.3-0.9,3.1-2.6,3.1C72.7,146.4,72.7,144.2,72.7,141.9z"/>
		<path class="st3" d="M81.2,146.2h-1.8v-8.7h3.3c1.2,0,2,0.8,2,2.3c0,1.1-0.4,1.9-1.6,2.1v0c0.4,0,1.6,0.1,1.6,1.7
			c0,0.6,0,2.2,0.2,2.5h-1.8c-0.2-0.5-0.2-1.1-0.2-1.7c0-1,0.1-1.9-1.3-1.9h-0.5V146.2z M81.2,141.3H82c0.7,0,0.9-0.7,0.9-1.3
			c0-0.8-0.3-1.1-0.9-1.1h-0.8V141.3z"/>
		<path class="st3" d="M86.1,146.2v-8.7h4.7v1.3h-2.9v2.1h2.7v1.3h-2.7v2.5h3v1.3H86.1z"/>
		<path class="st3" d="M91.5,146.2l2.4-8.7h2.4l2.4,8.7h-1.9l-0.5-1.9h-2.5l-0.5,1.9H91.5z M95,139.2L95,139.2l-0.9,3.7h1.7
			L95,139.2z"/>
		<path class="st3" d="M103.9,137.6v1.4h-2v7.2h-1.8V139h-2v-1.4H103.9z"/>
		<path class="st3" d="M104.7,146.2v-8.7h1.8v8.7H104.7z"/>
		<path class="st3" d="M107.4,137.6h1.9l1.3,6.3h0l1.5-6.3h1.8l-2.3,8.7h-2.1L107.4,137.6z"/>
		<path class="st3" d="M114.8,146.2v-8.7h4.7v1.3h-2.9v2.1h2.7v1.3h-2.7v2.5h3v1.3H114.8z"/>
		<path class="st3" d="M73.3,154.1c0,0.4,0.1,1.1,1.4,1.1c1.2,0,1.4-0.7,1.4-1c0-0.6-0.5-0.8-1.3-1c-0.9-0.2-1.3-0.3-1.6-0.5
			c-0.5-0.3-0.6-0.8-0.6-1.1c0-1.2,1.1-1.7,2.2-1.7c0.4,0,1.2,0.1,1.6,0.6c0.3,0.4,0.3,0.7,0.4,1h-0.8c0-0.7-0.6-0.9-1.2-0.9
			c-0.8,0-1.3,0.4-1.3,0.9c0,0.5,0.3,0.7,1,0.9c1.4,0.4,1.5,0.4,1.9,0.6c0.5,0.4,0.6,0.9,0.6,1.2c0,1-0.8,1.8-2.3,1.8
			c-0.4,0-1.3-0.1-1.8-0.7c-0.3-0.4-0.3-0.9-0.3-1.2H73.3z"/>
		<path class="st3" d="M78,150h0.7v3.4l1.5-1.6h1l-1.7,1.7l1.8,2.3h-1l-1.6-2.2v2.2H78V150z"/>
		<path class="st3" d="M82,150.1h0.9v0.8H82V150.1z M82.1,151.8h0.8v4h-0.8V151.8z"/>
		<path class="st3" d="M84.3,150.1h0.8v5.8h-0.8V150.1z"/>
		<path class="st3" d="M86.5,150.1h0.8v5.8h-0.8V150.1z"/>
		<path class="st3" d="M89.2,154c0,0.8,0.3,1.4,1.2,1.4c0.5,0,0.9-0.3,0.9-0.8H92c0,0.2-0.1,0.5-0.3,0.8c-0.2,0.2-0.6,0.5-1.4,0.5
			c-1.3,0-1.9-0.8-1.9-2.1c0-0.8,0.2-1.4,0.8-1.9c0.4-0.3,0.9-0.3,1.1-0.3c1.8,0,1.8,1.6,1.7,2.2H89.2z M91.3,153.4
			c0-0.4-0.1-1.2-1-1.2c-0.5,0-1.1,0.3-1.1,1.2H91.3z"/>
		<path class="st3" d="M96,150.1h0.8v5.1c0,0.1,0,0.4,0,0.6H96l0-0.6c-0.1,0.1-0.2,0.3-0.4,0.4c-0.3,0.2-0.7,0.3-1,0.3
			c-0.5,0-1.7-0.3-1.7-2c0-1.5,0.9-2.2,1.8-2.2c0.9,0,1.2,0.5,1.2,0.7V150.1z M95.7,152.7c-0.2-0.2-0.5-0.4-0.9-0.4
			c-1.1,0-1.1,1.3-1.1,1.6c0,0.7,0.2,1.5,1.1,1.5c1.2,0,1.2-1.3,1.2-1.6C96,153.2,95.9,152.9,95.7,152.7z"/>
		<path class="st3" d="M102.8,155.8c-0.1-0.2-0.1-0.4-0.1-0.6c-0.4,0.7-0.9,0.7-1.2,0.7c-0.9,0-1.4-0.5-1.4-1.2
			c0-0.3,0.1-0.8,0.7-1.2c0.4-0.2,1.1-0.3,1.4-0.3c0.2,0,0.3,0,0.5,0c0-0.5,0-0.7-0.1-0.9c-0.2-0.2-0.5-0.3-0.7-0.3
			c-0.8,0-0.8,0.5-0.8,0.7h-0.8c0-0.2,0-0.5,0.3-0.8c0.3-0.3,0.9-0.4,1.3-0.4c0.6,0,1.2,0.2,1.4,0.6c0.1,0.2,0.1,0.4,0.1,0.6l0,1.9
			c0,0.1,0,0.6,0.1,1H102.8z M102.2,153.9c-0.3,0-1.4,0-1.4,0.8c0,0.3,0.2,0.7,0.8,0.7c0.4,0,0.7-0.2,0.9-0.4
			c0.2-0.3,0.2-0.5,0.2-1.1C102.5,153.9,102.4,153.9,102.2,153.9z"/>
		<path class="st3" d="M104.1,151.8h0.7V151l0.7-0.2v1.1h0.9v0.6h-0.9v2.4c0,0.2,0,0.5,0.5,0.5c0.2,0,0.3,0,0.4,0v0.6
			c-0.1,0-0.4,0-0.6,0c-0.7,0-1-0.2-1-0.9v-2.7h-0.7V151.8z"/>
		<path class="st3" d="M110.1,154.6c0,0.3,0.2,0.7,0.9,0.7c0.3,0,0.5-0.1,0.7-0.3c0.1-0.1,0.1-0.2,0.1-0.4c0-0.4-0.3-0.5-0.9-0.6
			c-0.8-0.2-1.5-0.4-1.5-1.2c0-0.7,0.6-1.2,1.6-1.2c0.5,0,1.2,0.1,1.4,0.6c0.1,0.2,0.1,0.4,0.1,0.6h-0.8c0-0.6-0.5-0.7-0.8-0.7
			c-0.1,0-0.8,0-0.8,0.6c0,0.4,0.4,0.5,0.6,0.5c1.1,0.3,1.4,0.3,1.6,0.6c0.2,0.2,0.3,0.5,0.3,0.7c0,0.4-0.2,0.8-0.5,1
			c-0.4,0.2-0.8,0.3-1.2,0.3c-0.8,0-1.6-0.3-1.6-1.3H110.1z"/>
		<path class="st3" d="M113.6,152.5c0-0.2,0-0.3,0-0.7h0.8l0,0.7c0.4-0.6,1-0.7,1.4-0.7c0.9,0,1.7,0.6,1.7,2.1
			c0,1.5-0.9,2.2-1.8,2.2c-0.6,0-1-0.2-1.2-0.6v2h-0.7V152.5z M115.5,155.4c0.2,0,0.6,0,0.8-0.4c0.3-0.4,0.3-1,0.3-1.3
			c0-0.7-0.2-1.5-1.1-1.5c-1.2,0-1.2,1.3-1.2,1.6C114.3,154.4,114.4,155.4,115.5,155.4z"/>
		<path class="st3" d="M120.3,151.7c1.6,0,2,1.3,2,2.1c0,1.2-0.7,2.2-2,2.2c-1.3,0-2-0.9-2-2.1C118.2,152.9,118.7,151.7,120.3,151.7
			z M120.2,155.4c0.6,0,1.2-0.4,1.2-1.6c0-1-0.5-1.5-1.2-1.5c-0.5,0-1.3,0.3-1.3,1.6C119,154.7,119.4,155.4,120.2,155.4z"/>
		<path class="st3" d="M123.5,152.6c0-0.3,0-0.6,0-0.8h0.8l0,0.8c0.1-0.6,0.6-0.7,1-0.8c0.2,0,0.4,0,0.5,0v0.7c0,0-0.1,0-0.1,0
			c-0.1,0-0.1,0-0.2,0c-0.9,0-1.1,0.5-1.1,1.2v2.1h-0.8V152.6z"/>
		<path class="st3" d="M125.7,151.8h0.7V151l0.7-0.2v1.1h0.9v0.6h-0.9v2.4c0,0.2,0,0.5,0.5,0.5c0.2,0,0.3,0,0.4,0v0.6
			c-0.1,0-0.4,0-0.6,0c-0.7,0-1-0.2-1-0.9v-2.7h-0.7V151.8z"/>
		<path class="st3" d="M129.4,154.6c0,0.3,0.2,0.7,0.9,0.7c0.3,0,0.5-0.1,0.7-0.3c0.1-0.1,0.1-0.2,0.1-0.4c0-0.4-0.3-0.5-0.9-0.6
			c-0.8-0.2-1.5-0.4-1.5-1.2c0-0.7,0.6-1.2,1.6-1.2c0.5,0,1.2,0.1,1.4,0.6c0.1,0.2,0.1,0.4,0.1,0.6h-0.8c0-0.6-0.5-0.7-0.8-0.7
			c-0.1,0-0.8,0-0.8,0.6c0,0.4,0.4,0.5,0.6,0.5c1.1,0.3,1.4,0.3,1.6,0.6c0.2,0.2,0.3,0.5,0.3,0.7c0,0.4-0.2,0.8-0.5,1
			c-0.4,0.2-0.8,0.3-1.2,0.3c-0.8,0-1.6-0.3-1.6-1.3H129.4z"/>
		<path class="st3" d="M134.1,154.9l-0.9,2h-0.5l0.5-2H134.1z"/>
		<path class="st3" d="M137.7,151.8l1,3.2l1-3.2h1l0.9,3.2l1-3.2h0.8l-1.4,4H141l-0.9-3.3l-1,3.3h-0.9l-1.3-4H137.7z"/>
		<path class="st3" d="M144.1,152.6c0-0.3,0-0.6,0-0.8h0.8l0,0.8c0.1-0.6,0.6-0.7,1-0.8c0.2,0,0.4,0,0.5,0v0.7c0,0-0.1,0-0.1,0
			c-0.1,0-0.1,0-0.2,0c-0.9,0-1.1,0.5-1.1,1.2v2.1h-0.8V152.6z"/>
		<path class="st3" d="M147.1,150.1h0.9v0.8h-0.9V150.1z M147.2,151.8h0.8v4h-0.8V151.8z"/>
		<path class="st3" d="M148.8,151.8h0.7V151l0.7-0.2v1.1h0.9v0.6h-0.9v2.4c0,0.2,0,0.5,0.5,0.5c0.2,0,0.3,0,0.4,0v0.6
			c-0.1,0-0.4,0-0.6,0c-0.7,0-1-0.2-1-0.9v-2.7h-0.7V151.8z"/>
		<path class="st3" d="M152,150.1h0.9v0.8H152V150.1z M152.1,151.8h0.8v4h-0.8V151.8z"/>
		<path class="st3" d="M154.4,152.3l0-0.5h0.8l0,0.6c0.1-0.2,0.4-0.7,1.3-0.7c0.4,0,1.5,0.1,1.5,1.4v2.7h-0.8v-2.6
			c0-0.3,0-0.5-0.2-0.7c-0.2-0.2-0.5-0.3-0.7-0.3c-0.5,0-1,0.4-1,1.2v2.3h-0.8V152.3z"/>
		<path class="st3" d="M159.9,156.1c0,0.4,0.2,0.8,0.9,0.8c1,0,1.1-0.8,1.1-1.8c-0.3,0.7-1.1,0.7-1.3,0.7c-0.4,0-0.9-0.1-1.2-0.5
			c-0.3-0.4-0.5-0.9-0.5-1.5c0-1.4,0.8-2,1.8-2c0.8,0,1.1,0.4,1.3,0.6l0-0.6h0.7l0,0.7l0,2.5c0,1,0,1.4-0.2,1.7
			c-0.3,0.6-1.1,0.7-1.7,0.7c-1.6,0-1.7-0.8-1.7-1.3H159.9z M161.7,154.8c0.2-0.2,0.3-0.4,0.3-1.2c0-0.5-0.1-0.8-0.3-1
			c-0.2-0.2-0.5-0.4-0.9-0.4c-1,0-1.1,1-1.1,1.5c0,0.6,0.2,1.4,1.1,1.4C161.2,155.2,161.5,155,161.7,154.8z"/>
		<path class="st3" d="M74.7,160.2c-0.1,0-0.3,0-0.4,0c-0.6,0-0.6,0.3-0.6,0.6v0.6h0.9v0.5h-0.9v3.5H73V162h-0.8v-0.5H73V161
			c0-0.6,0-0.8,0.2-1c0.2-0.3,0.5-0.4,1-0.4c0.2,0,0.5,0,0.6,0.1V160.2z M75.3,159.7h0.9v0.8h-0.9V159.7z M75.4,165.4v-4h0.7v4H75.4
			z"/>
		<path class="st3" d="M79.9,162.7c0-0.2-0.1-0.8-0.8-0.8c-1,0-1,1.2-1,1.5c0,0.8,0.2,1.6,1,1.6c0.6,0,0.9-0.5,0.9-0.9h0.8
			c0,0.8-0.6,1.4-1.6,1.4c-0.3,0-0.9-0.1-1.3-0.5c-0.2-0.3-0.5-0.7-0.5-1.5c0-1.7,1-2.2,1.8-2.2c0.3,0,0.9,0.1,1.2,0.5
			c0.3,0.3,0.3,0.7,0.3,0.9H79.9z"/>
		<path class="st3" d="M81,161.4h0.7v-0.8l0.7-0.2v1.1h0.9v0.6h-0.9v2.4c0,0.2,0,0.5,0.5,0.5c0.2,0,0.3,0,0.4,0v0.6
			c-0.1,0-0.4,0-0.6,0c-0.7,0-1-0.2-1-0.9V162H81V161.4z"/>
		<path class="st3" d="M84.2,159.7h0.9v0.8h-0.9V159.7z M84.3,161.4h0.8v4h-0.8V161.4z"/>
		<path class="st3" d="M88.3,161.3c1.6,0,2,1.3,2,2.1c0,1.2-0.7,2.2-2,2.2c-1.3,0-2-0.9-2-2.1C86.2,162.5,86.7,161.3,88.3,161.3z
			 M88.2,165c0.6,0,1.2-0.4,1.2-1.6c0-1-0.5-1.5-1.2-1.5c-0.5,0-1.3,0.3-1.3,1.6C87,164.3,87.4,165,88.2,165z"/>
		<path class="st3" d="M91.4,161.9l0-0.5h0.8l0,0.6c0.1-0.2,0.4-0.7,1.3-0.7c0.4,0,1.5,0.1,1.5,1.4v2.7h-0.8v-2.6
			c0-0.3,0-0.5-0.2-0.7c-0.2-0.2-0.5-0.3-0.7-0.3c-0.5,0-1,0.4-1,1.2v2.3h-0.8V161.9z"/>
		<path class="st3" d="M97.4,164.5l-0.9,2H96l0.5-2H97.4z"/>
		<path class="st3" d="M103.5,159.7h0.8v5.1c0,0.1,0,0.4,0,0.6h-0.8l0-0.6c-0.1,0.1-0.2,0.3-0.4,0.4c-0.3,0.2-0.7,0.3-1,0.3
			c-0.5,0-1.7-0.3-1.7-2c0-1.5,0.9-2.2,1.8-2.2c0.9,0,1.2,0.5,1.2,0.7V159.7z M103.2,162.3c-0.2-0.2-0.5-0.4-0.9-0.4
			c-1.1,0-1.1,1.3-1.1,1.6c0,0.7,0.2,1.5,1.1,1.5c1.2,0,1.2-1.3,1.2-1.6C103.5,162.8,103.4,162.5,103.2,162.3z"/>
		<path class="st3" d="M105.7,162.2c0-0.3,0-0.6,0-0.8h0.8l0,0.8c0.1-0.6,0.6-0.7,1-0.8c0.2,0,0.4,0,0.5,0v0.7c0,0-0.1,0-0.1,0
			c-0.1,0-0.1,0-0.2,0c-0.9,0-1.1,0.5-1.1,1.2v2.1h-0.8V162.2z"/>
		<path class="st3" d="M111.2,165.4c-0.1-0.2-0.1-0.4-0.1-0.6c-0.4,0.7-0.9,0.7-1.2,0.7c-0.9,0-1.4-0.5-1.4-1.2
			c0-0.3,0.1-0.8,0.7-1.2c0.4-0.2,1.1-0.3,1.4-0.3c0.2,0,0.3,0,0.5,0c0-0.5,0-0.7-0.1-0.9c-0.2-0.2-0.5-0.3-0.7-0.3
			c-0.8,0-0.8,0.5-0.8,0.7h-0.8c0-0.2,0-0.5,0.3-0.8c0.3-0.3,0.9-0.4,1.3-0.4c0.6,0,1.2,0.2,1.4,0.6c0.1,0.2,0.1,0.4,0.1,0.6l0,1.9
			c0,0.1,0,0.6,0.1,1H111.2z M110.7,163.5c-0.3,0-1.4,0-1.4,0.8c0,0.3,0.2,0.7,0.8,0.7c0.4,0,0.7-0.2,0.9-0.4
			c0.2-0.3,0.2-0.5,0.2-1.1C111,163.5,110.9,163.5,110.7,163.5z"/>
		<path class="st3" d="M113.4,161.4l1,3.2l1-3.2h1l0.9,3.2l1-3.2h0.8l-1.4,4h-0.9l-0.9-3.3l-1,3.3h-0.9l-1.3-4H113.4z"/>
		<path class="st3" d="M119.8,159.7h0.9v0.8h-0.9V159.7z M119.9,161.4h0.8v4h-0.8V161.4z"/>
		<path class="st3" d="M122.1,161.9l0-0.5h0.8l0,0.6c0.1-0.2,0.4-0.7,1.3-0.7c0.4,0,1.5,0.1,1.5,1.4v2.7h-0.8v-2.6
			c0-0.3,0-0.5-0.2-0.7c-0.2-0.2-0.5-0.3-0.7-0.3c-0.5,0-1,0.4-1,1.2v2.3h-0.8V161.9z"/>
		<path class="st3" d="M127.7,165.7c0,0.4,0.2,0.8,0.9,0.8c1,0,1.1-0.8,1.1-1.8c-0.3,0.7-1.1,0.7-1.3,0.7c-0.4,0-0.9-0.1-1.2-0.5
			c-0.3-0.4-0.5-0.9-0.5-1.5c0-1.4,0.8-2,1.8-2c0.8,0,1.1,0.4,1.3,0.6l0-0.6h0.7l0,0.7l0,2.5c0,1,0,1.4-0.2,1.7
			c-0.3,0.6-1.1,0.7-1.7,0.7c-1.6,0-1.7-0.8-1.7-1.3H127.7z M129.4,164.4c0.2-0.2,0.3-0.4,0.3-1.2c0-0.5-0.1-0.8-0.3-1
			c-0.2-0.2-0.5-0.4-0.9-0.4c-1,0-1.1,1-1.1,1.5c0,0.6,0.2,1.4,1.1,1.4C129,164.8,129.2,164.6,129.4,164.4z"/>
		<path class="st3" d="M133,164.5l-0.9,2h-0.5l0.5-2H133z"/>
		<path class="st3" d="M138,161.3c1.6,0,2,1.3,2,2.1c0,1.2-0.7,2.2-2,2.2c-1.3,0-2-0.9-2-2.1C136,162.5,136.5,161.3,138,161.3z
			 M138,165c0.6,0,1.2-0.4,1.2-1.6c0-1-0.5-1.5-1.2-1.5c-0.5,0-1.3,0.3-1.3,1.6C136.8,164.3,137.1,165,138,165z"/>
		<path class="st3" d="M141.2,162.2c0-0.3,0-0.6,0-0.8h0.8l0,0.8c0.1-0.6,0.6-0.7,1-0.8c0.2,0,0.4,0,0.5,0v0.7c0,0-0.1,0-0.1,0
			c-0.1,0-0.1,0-0.2,0c-0.9,0-1.1,0.5-1.1,1.2v2.1h-0.8V162.2z"/>
		<path class="st3" d="M72.7,171.7c0-0.2,0-0.3,0-0.7h0.8l0,0.7c0.4-0.6,1-0.7,1.4-0.7c0.9,0,1.7,0.6,1.7,2.1c0,1.5-0.9,2.2-1.8,2.2
			c-0.6,0-1-0.2-1.2-0.6v2h-0.7V171.7z M74.6,174.6c0.2,0,0.6,0,0.8-0.4c0.3-0.4,0.3-1,0.3-1.3c0-0.7-0.2-1.5-1.1-1.5
			c-1.2,0-1.2,1.3-1.2,1.6C73.4,173.6,73.5,174.6,74.6,174.6z"/>
		<path class="st3" d="M77.6,169.3h0.8v5.8h-0.8V169.3z"/>
		<path class="st3" d="M82.3,175c-0.1-0.2-0.1-0.4-0.1-0.6c-0.4,0.7-0.9,0.7-1.2,0.7c-0.9,0-1.4-0.5-1.4-1.2c0-0.3,0.1-0.8,0.7-1.2
			c0.4-0.2,1.1-0.3,1.4-0.3c0.2,0,0.3,0,0.5,0c0-0.5,0-0.7-0.1-0.9c-0.2-0.2-0.5-0.3-0.7-0.3c-0.8,0-0.8,0.5-0.8,0.7h-0.8
			c0-0.2,0-0.5,0.3-0.8c0.3-0.3,0.9-0.4,1.3-0.4c0.6,0,1.2,0.2,1.4,0.6c0.1,0.2,0.1,0.4,0.1,0.6l0,1.9c0,0.1,0,0.6,0.1,1H82.3z
			 M81.8,173.1c-0.3,0-1.4,0-1.4,0.8c0,0.3,0.2,0.7,0.8,0.7c0.4,0,0.7-0.2,0.9-0.4c0.2-0.3,0.2-0.5,0.2-1.1
			C82.1,173.1,82,173.1,81.8,173.1z"/>
		<path class="st3" d="M86.1,175.1l-0.6,1.5h-0.8l0.6-1.5l-1.7-4h0.8l1.3,3.2l1.3-3.2h0.8L86.1,175.1z"/>
		<path class="st3" d="M88.7,169.3h0.9v0.8h-0.9V169.3z M88.8,171h0.8v4h-0.8V171z"/>
		<path class="st3" d="M91,171.5l0-0.5h0.8l0,0.6c0.1-0.2,0.4-0.7,1.3-0.7c0.4,0,1.5,0.1,1.5,1.4v2.7h-0.8v-2.6c0-0.3,0-0.5-0.2-0.7
			c-0.2-0.2-0.5-0.3-0.7-0.3c-0.5,0-1,0.4-1,1.2v2.3H91V171.5z"/>
		<path class="st3" d="M96.6,175.3c0,0.4,0.2,0.8,0.9,0.8c1,0,1.1-0.8,1.1-1.8c-0.3,0.7-1.1,0.7-1.3,0.7c-0.4,0-0.9-0.1-1.2-0.5
			c-0.3-0.4-0.5-0.9-0.5-1.5c0-1.4,0.8-2,1.8-2c0.8,0,1.1,0.4,1.3,0.6l0-0.6h0.7l0,0.7l0,2.5c0,1,0,1.4-0.2,1.7
			c-0.3,0.6-1.1,0.7-1.7,0.7c-1.6,0-1.7-0.8-1.7-1.3H96.6z M98.3,174c0.2-0.2,0.3-0.4,0.3-1.2c0-0.5-0.1-0.8-0.3-1
			c-0.2-0.2-0.5-0.4-0.9-0.4c-1,0-1.1,1-1.1,1.5c0,0.6,0.2,1.4,1.1,1.4C97.9,174.4,98.1,174.2,98.3,174z"/>
		<path class="st3" d="M103,171.6l0-0.5h0.8v0.6c0.4-0.6,0.9-0.7,1.3-0.7c0.9,0,1.2,0.5,1.3,0.8c0.1-0.2,0.5-0.8,1.4-0.8
			c0.6,0,1.5,0.2,1.5,1.4v2.7h-0.8v-2.6c0-0.4-0.1-0.5-0.1-0.6c-0.1-0.2-0.4-0.4-0.8-0.4c-0.5,0-0.8,0.3-0.9,0.4
			c-0.2,0.2-0.2,0.7-0.2,0.9v2.2h-0.8v-2.7c0-0.5-0.3-0.9-0.9-0.9c-0.5,0-0.8,0.3-0.9,0.4c-0.2,0.2-0.2,0.6-0.2,0.8v2.3H103V171.6z"
			/>
		<path class="st3" d="M111.2,171v2.6c0,0.4,0.1,0.9,0.9,0.9c0.4,0,0.7-0.1,0.9-0.4c0.2-0.2,0.2-0.6,0.2-0.8V171h0.8v3.3
			c0,0.1,0,0.5,0,0.8h-0.8l0-0.7c-0.1,0.3-0.4,0.7-1.3,0.7c-1,0-1.5-0.6-1.5-1.4V171H111.2z"/>
		<path class="st3" d="M115.8,173.8c0,0.3,0.2,0.7,0.9,0.7c0.3,0,0.5-0.1,0.7-0.3c0.1-0.1,0.1-0.2,0.1-0.4c0-0.4-0.3-0.5-0.9-0.6
			c-0.8-0.2-1.5-0.4-1.5-1.2c0-0.7,0.6-1.2,1.6-1.2c0.5,0,1.2,0.1,1.4,0.6c0.1,0.2,0.1,0.4,0.1,0.6h-0.8c0-0.6-0.5-0.7-0.8-0.7
			c-0.1,0-0.8,0-0.8,0.6c0,0.4,0.4,0.5,0.6,0.5c1.1,0.3,1.4,0.3,1.6,0.6c0.2,0.2,0.3,0.5,0.3,0.7c0,0.4-0.2,0.8-0.5,1
			c-0.4,0.2-0.8,0.3-1.2,0.3c-0.8,0-1.6-0.3-1.6-1.3H115.8z"/>
		<path class="st3" d="M119.3,169.3h0.9v0.8h-0.9V169.3z M119.4,171h0.8v4h-0.8V171z"/>
		<path class="st3" d="M123.9,172.3c0-0.2-0.1-0.8-0.8-0.8c-1,0-1,1.2-1,1.5c0,0.8,0.2,1.6,1,1.6c0.6,0,0.9-0.5,0.9-0.9h0.8
			c0,0.8-0.6,1.4-1.6,1.4c-0.3,0-0.9-0.1-1.3-0.5c-0.2-0.3-0.5-0.7-0.5-1.5c0-1.7,1-2.2,1.8-2.2c0.3,0,0.9,0.1,1.2,0.5
			c0.3,0.3,0.3,0.7,0.3,0.9H123.9z"/>
	</g>
</g>
<g>
	<g id="r-heart">
		<circle class="st13" cx="40" cy="91.4" r="25.1"/>
		<g>
			<path class="st18" d="M30.1,84.9c0.2,0.1,0.4,0.1,0.6,0c1.3-1.1,3-3.2,3-4.3c0-0.8-0.2-1.2-1.2-1.7c-0.6-0.3-1.5,0.4-1.9,0.8
				c-0.1,0.1-0.3,0.1-0.5,0c-0.4-0.4-1-1.1-1.9-0.8c-0.9,0.3-1.2,0.7-1.2,1.7C27.2,81.7,28.9,83.8,30.1,84.9z"/>
			<path class="st18" d="M35.1,76.7c0.1,0.1,0.3,0.1,0.4,0c0.9-0.8,2.2-2.4,2.2-3.2c0-0.6-0.1-0.9-0.9-1.3c-0.5-0.2-1.1,0.3-1.4,0.6
				c-0.1,0.1-0.3,0.1-0.3,0c-0.3-0.3-0.7-0.8-1.4-0.6c-0.7,0.2-0.9,0.5-0.9,1.3C32.9,74.4,34.2,75.9,35.1,76.7z"/>
			<path class="st18" d="M36,83.8c0.1,0.1,0.2,0.1,0.3,0c0.6-0.5,1.5-1.6,1.5-2.1c0-0.4-0.1-0.6-0.6-0.9c-0.3-0.2-0.7,0.2-0.9,0.4
				c-0.1,0.1-0.2,0.1-0.2,0c-0.2-0.2-0.5-0.5-0.9-0.4c-0.5,0.2-0.6,0.4-0.6,0.9C34.5,82.2,35.4,83.2,36,83.8z"/>
			<path class="st18" d="M30.3,78.7c0.1,0.1,0.2,0.1,0.3,0c0.6-0.5,1.5-1.6,1.5-2.1c0-0.4-0.1-0.6-0.6-0.9c-0.3-0.2-0.7,0.2-0.9,0.4
				c-0.1,0.1-0.2,0.1-0.2,0c-0.2-0.2-0.5-0.5-0.9-0.4c-0.5,0.2-0.6,0.4-0.6,0.9C28.8,77.2,29.6,78.2,30.3,78.7z"/>
			<path class="st18" d="M40.2,109.7c0.7,0.5,1.6,0.5,2.2,0c5.1-4.2,12-12.8,11.9-17.1c0-3.3-0.7-4.9-4.6-6.9
				c-2.6-1.3-5.9,1.5-7.5,3.1c-0.5,0.5-1.3,0.5-1.9,0c-1.6-1.5-3.9-4.3-7.5-3.1c-3.7,1.3-4.6,2.9-4.6,6.9
				C28.3,97.3,35.1,105.5,40.2,109.7z"/>
		</g>
	</g>
	<g>
		<path class="st3" d="M72.1,86.3v-8.7h4.7V79h-2.9v2.1h2.7v1.3h-2.7v2.5h3v1.3H72.1z"/>
		<path class="st3" d="M78.1,86.3v-8.7H81l1.4,5.9h0l1.4-5.9h2.8v8.7h-1.8v-6.7h0l-1.7,6.7h-1.7l-1.6-6.7h0v6.7H78.1z"/>
		<path class="st3" d="M88,81.9c0-2.3,0-4.5,3-4.5s3,2.2,3,4.5c0,2.3,0,4.5-3,4.5S88,84.2,88,81.9z M92.2,81.9
			c0-2.2-0.1-3.2-1.2-3.2s-1.2,1-1.2,3.2s0.1,3.2,1.2,3.2S92.2,84.2,92.2,81.9z"/>
		<path class="st3" d="M100.6,77.6v1.4h-2v7.2h-1.8v-7.2h-2v-1.4H100.6z"/>
		<path class="st3" d="M101.4,86.3v-8.7h1.8v8.7H101.4z"/>
		<path class="st3" d="M104.7,81.9c0-2.3,0-4.5,3-4.5s3,2.2,3,4.5c0,2.3,0,4.5-3,4.5S104.7,84.2,104.7,81.9z M108.8,81.9
			c0-2.2-0.1-3.2-1.2-3.2s-1.2,1-1.2,3.2s0.1,3.2,1.2,3.2S108.8,84.2,108.8,81.9z"/>
		<path class="st3" d="M112.1,86.3v-8.7h2.4l2.3,6h0v-6h1.7v8.7h-2.4l-2.4-6.3h0v6.3H112.1z"/>
		<path class="st3" d="M119.5,86.3l2.4-8.7h2.4l2.4,8.7h-1.9l-0.5-1.9h-2.5l-0.5,1.9H119.5z M123,79.3L123,79.3l-0.9,3.7h1.7
			L123,79.3z"/>
		<path class="st3" d="M127.5,86.3v-8.7h1.8v7.2h2.7v1.4H127.5z"/>
		<path class="st3" d="M73.5,95.9v-5.1h-1.9v-0.7h4.7v0.7h-1.9v5.1H73.5z"/>
		<path class="st3" d="M76.5,94c0,0.8,0.3,1.4,1.2,1.4c0.5,0,0.9-0.3,0.9-0.8h0.8c0,0.2-0.1,0.5-0.3,0.8c-0.2,0.2-0.6,0.5-1.4,0.5
			c-1.3,0-1.9-0.8-1.9-2.1c0-0.8,0.2-1.4,0.8-1.9c0.4-0.3,0.9-0.3,1.1-0.3c1.8,0,1.8,1.6,1.7,2.2H76.5z M78.6,93.5
			c0-0.4-0.1-1.2-1-1.2c-0.5,0-1.1,0.3-1.1,1.2H78.6z"/>
		<path class="st3" d="M80.5,92.3l0-0.5h0.8l0,0.6c0.1-0.2,0.4-0.7,1.3-0.7c0.4,0,1.5,0.1,1.5,1.4v2.7h-0.8v-2.6
			c0-0.3,0-0.5-0.2-0.7c-0.2-0.2-0.5-0.3-0.7-0.3c-0.5,0-1,0.4-1,1.2v2.3h-0.8V92.3z"/>
		<path class="st3" d="M88.2,90.1h0.8v5.1c0,0.1,0,0.4,0,0.6h-0.8l0-0.6c-0.1,0.1-0.2,0.3-0.4,0.4c-0.3,0.2-0.7,0.3-1,0.3
			c-0.5,0-1.7-0.3-1.7-2c0-1.5,0.9-2.2,1.8-2.2c0.9,0,1.2,0.5,1.2,0.7V90.1z M87.9,92.7c-0.2-0.2-0.5-0.4-0.9-0.4
			c-1.1,0-1.1,1.3-1.1,1.6c0,0.7,0.2,1.5,1.1,1.5c1.2,0,1.2-1.3,1.2-1.6C88.2,93.2,88,92.9,87.9,92.7z"/>
		<path class="st3" d="M90.7,94.7c0,0.3,0.2,0.7,0.9,0.7c0.3,0,0.5-0.1,0.7-0.3c0.1-0.1,0.1-0.2,0.1-0.4c0-0.4-0.3-0.5-0.9-0.6
			C90.7,94,90,93.8,90,93c0-0.7,0.6-1.2,1.6-1.2c0.5,0,1.2,0.1,1.4,0.6c0.1,0.2,0.1,0.4,0.1,0.6h-0.8c0-0.6-0.5-0.7-0.8-0.7
			c-0.1,0-0.8,0-0.8,0.6c0,0.4,0.4,0.5,0.6,0.5c1.1,0.3,1.4,0.3,1.6,0.6c0.2,0.2,0.3,0.5,0.3,0.7c0,0.4-0.2,0.8-0.5,1
			c-0.4,0.2-0.8,0.3-1.2,0.3c-0.8,0-1.6-0.3-1.6-1.3H90.7z"/>
		<path class="st3" d="M95.9,91.8h0.7V91l0.7-0.2v1.1h0.9v0.6h-0.9v2.4c0,0.2,0,0.5,0.5,0.5c0.2,0,0.3,0,0.4,0v0.6
			c-0.1,0-0.4,0-0.6,0c-0.7,0-1-0.2-1-0.9v-2.7h-0.7V91.8z"/>
		<path class="st3" d="M100.9,91.8c1.6,0,2,1.3,2,2.1c0,1.2-0.7,2.2-2,2.2c-1.3,0-2-0.9-2-2.1C98.9,92.9,99.3,91.8,100.9,91.8z
			 M100.8,95.5c0.6,0,1.2-0.4,1.2-1.6c0-1-0.5-1.5-1.2-1.5c-0.5,0-1.3,0.3-1.3,1.6C99.6,94.7,100,95.5,100.8,95.5z"/>
		<path class="st3" d="M106.2,92.5c0-0.2,0-0.3,0-0.7h0.8l0,0.7c0.4-0.6,1-0.7,1.4-0.7c0.9,0,1.7,0.6,1.7,2.1c0,1.5-0.9,2.2-1.8,2.2
			c-0.6,0-1-0.2-1.2-0.6v2h-0.7V92.5z M108.1,95.5c0.2,0,0.6,0,0.8-0.4c0.3-0.4,0.3-1,0.3-1.3c0-0.7-0.2-1.5-1.1-1.5
			c-1.2,0-1.2,1.3-1.2,1.6C107,94.5,107,95.5,108.1,95.5z"/>
		<path class="st3" d="M112.9,91.8c1.6,0,2,1.3,2,2.1c0,1.2-0.7,2.2-2,2.2c-1.3,0-2-0.9-2-2.1C110.9,92.9,111.3,91.8,112.9,91.8z
			 M112.8,95.5c0.6,0,1.2-0.4,1.2-1.6c0-1-0.5-1.5-1.2-1.5c-0.5,0-1.3,0.3-1.3,1.6C111.6,94.7,112,95.5,112.8,95.5z"/>
		<path class="st3" d="M116.1,92.3l0-0.5h0.8l0,0.6c0.1-0.2,0.4-0.7,1.3-0.7c0.4,0,1.5,0.1,1.5,1.4v2.7h-0.8v-2.6
			c0-0.3,0-0.5-0.2-0.7c-0.2-0.2-0.5-0.3-0.7-0.3c-0.5,0-1,0.4-1,1.2v2.3h-0.8V92.3z"/>
		<path class="st3" d="M123.7,90.1h0.8v5.1c0,0.1,0,0.4,0,0.6h-0.8l0-0.6c-0.1,0.1-0.2,0.3-0.4,0.4c-0.3,0.2-0.7,0.3-1,0.3
			c-0.5,0-1.7-0.3-1.7-2c0-1.5,0.9-2.2,1.8-2.2c0.9,0,1.2,0.5,1.2,0.7V90.1z M123.4,92.7c-0.2-0.2-0.5-0.4-0.9-0.4
			c-1.1,0-1.1,1.3-1.1,1.6c0,0.7,0.2,1.5,1.1,1.5c1.2,0,1.2-1.3,1.2-1.6C123.7,93.2,123.6,92.9,123.4,92.7z"/>
		<path class="st3" d="M126.3,94c0,0.8,0.3,1.4,1.2,1.4c0.5,0,0.9-0.3,0.9-0.8h0.8c0,0.2-0.1,0.5-0.3,0.8c-0.2,0.2-0.6,0.5-1.4,0.5
			c-1.3,0-1.9-0.8-1.9-2.1c0-0.8,0.2-1.4,0.8-1.9c0.4-0.3,0.9-0.3,1.1-0.3c1.8,0,1.8,1.6,1.7,2.2H126.3z M128.4,93.5
			c0-0.4-0.1-1.2-1-1.2c-0.5,0-1.1,0.3-1.1,1.2H128.4z"/>
		<path class="st3" d="M130.3,92.7c0-0.3,0-0.6,0-0.8h0.8l0,0.8c0.1-0.6,0.6-0.7,1-0.8c0.2,0,0.4,0,0.5,0v0.7c0,0-0.1,0-0.1,0
			c-0.1,0-0.1,0-0.2,0c-0.9,0-1.1,0.5-1.1,1.2v2.1h-0.8V92.7z"/>
		<path class="st3" d="M138,95.9c-0.1-0.2-0.1-0.4-0.1-0.6c-0.4,0.7-0.9,0.7-1.2,0.7c-0.9,0-1.4-0.5-1.4-1.2c0-0.3,0.1-0.8,0.7-1.2
			c0.4-0.2,1.1-0.3,1.4-0.3c0.2,0,0.3,0,0.5,0c0-0.5,0-0.7-0.1-0.9c-0.2-0.2-0.5-0.3-0.7-0.3c-0.8,0-0.8,0.5-0.8,0.7h-0.8
			c0-0.2,0-0.5,0.3-0.8c0.3-0.3,0.9-0.4,1.3-0.4c0.6,0,1.2,0.2,1.4,0.6c0.1,0.2,0.1,0.4,0.1,0.6l0,1.9c0,0.1,0,0.6,0.1,1H138z
			 M137.5,93.9c-0.3,0-1.4,0-1.4,0.8c0,0.3,0.2,0.7,0.8,0.7c0.4,0,0.7-0.2,0.9-0.4c0.2-0.3,0.2-0.5,0.2-1.1
			C137.8,93.9,137.7,93.9,137.5,93.9z"/>
		<path class="st3" d="M140.1,92.3l0-0.5h0.8l0,0.6c0.1-0.2,0.4-0.7,1.3-0.7c0.4,0,1.5,0.1,1.5,1.4v2.7h-0.8v-2.6
			c0-0.3,0-0.5-0.2-0.7c-0.2-0.2-0.5-0.3-0.7-0.3c-0.5,0-1,0.4-1,1.2v2.3h-0.8V92.3z"/>
		<path class="st3" d="M147.7,90.1h0.8v5.1c0,0.1,0,0.4,0,0.6h-0.8l0-0.6c-0.1,0.1-0.2,0.3-0.4,0.4c-0.3,0.2-0.7,0.3-1,0.3
			c-0.5,0-1.7-0.3-1.7-2c0-1.5,0.9-2.2,1.8-2.2c0.9,0,1.2,0.5,1.2,0.7V90.1z M147.4,92.7c-0.2-0.2-0.5-0.4-0.9-0.4
			c-1.1,0-1.1,1.3-1.1,1.6c0,0.7,0.2,1.5,1.1,1.5c1.2,0,1.2-1.3,1.2-1.6C147.7,93.2,147.6,92.9,147.4,92.7z"/>
		<path class="st3" d="M74.5,105.5c-0.1-0.2-0.1-0.4-0.1-0.6c-0.4,0.7-0.9,0.7-1.2,0.7c-0.9,0-1.4-0.5-1.4-1.2
			c0-0.3,0.1-0.8,0.7-1.2c0.4-0.2,1.1-0.3,1.4-0.3c0.2,0,0.3,0,0.5,0c0-0.5,0-0.7-0.1-0.9c-0.2-0.2-0.5-0.3-0.7-0.3
			c-0.8,0-0.8,0.5-0.8,0.7H72c0-0.2,0-0.5,0.3-0.8c0.3-0.3,0.9-0.4,1.3-0.4c0.6,0,1.2,0.2,1.4,0.6c0.1,0.2,0.1,0.4,0.1,0.6l0,1.9
			c0,0.1,0,0.6,0.1,1H74.5z M74,103.5c-0.3,0-1.4,0-1.4,0.8c0,0.3,0.2,0.7,0.8,0.7c0.4,0,0.7-0.2,0.9-0.4c0.2-0.3,0.2-0.5,0.2-1.1
			C74.3,103.5,74.2,103.5,74,103.5z"/>
		<path class="st3" d="M78.8,102.8c0-0.2-0.1-0.8-0.8-0.8c-1,0-1,1.2-1,1.5c0,0.8,0.2,1.6,1,1.6c0.6,0,0.9-0.5,0.9-0.9h0.8
			c0,0.8-0.6,1.4-1.6,1.4c-0.3,0-0.9-0.1-1.3-0.5c-0.2-0.3-0.5-0.7-0.5-1.5c0-1.7,1-2.2,1.8-2.2c0.3,0,0.9,0.1,1.2,0.5
			c0.3,0.3,0.3,0.7,0.3,0.9H78.8z"/>
		<path class="st3" d="M79.9,101.4h0.7v-0.8l0.7-0.2v1.1h0.9v0.6h-0.9v2.4c0,0.2,0,0.5,0.5,0.5c0.2,0,0.3,0,0.4,0v0.6
			c-0.1,0-0.4,0-0.6,0c-0.7,0-1-0.2-1-0.9V102h-0.7V101.4z"/>
		<path class="st3" d="M87.1,101.4c1.6,0,2,1.3,2,2.1c0,1.2-0.7,2.2-2,2.2c-1.3,0-2-0.9-2-2.1C85.1,102.5,85.6,101.4,87.1,101.4z
			 M87.1,105.1c0.6,0,1.2-0.4,1.2-1.6c0-1-0.5-1.5-1.2-1.5c-0.5,0-1.3,0.3-1.3,1.6C85.9,104.3,86.2,105.1,87.1,105.1z"/>
		<path class="st3" d="M90.3,101.9l0-0.5h0.8l0,0.6c0.1-0.2,0.4-0.7,1.3-0.7c0.4,0,1.5,0.1,1.5,1.4v2.7H93v-2.6c0-0.3,0-0.5-0.2-0.7
			c-0.2-0.2-0.5-0.3-0.7-0.3c-0.5,0-1,0.4-1,1.2v2.3h-0.8V101.9z"/>
		<path class="st3" d="M99.4,100.3c-0.1,0-0.3,0-0.4,0c-0.6,0-0.6,0.3-0.6,0.6v0.6h0.9v0.5h-0.9v3.5h-0.7V102h-0.8v-0.5h0.8V101
			c0-0.6,0-0.8,0.2-1c0.2-0.3,0.5-0.4,1-0.4c0.2,0,0.5,0,0.6,0.1V100.3z"/>
		<path class="st3" d="M100.5,103.6c0,0.8,0.3,1.4,1.2,1.4c0.5,0,0.9-0.3,0.9-0.8h0.8c0,0.2-0.1,0.5-0.3,0.8
			c-0.2,0.2-0.6,0.5-1.4,0.5c-1.3,0-1.9-0.8-1.9-2.1c0-0.8,0.2-1.4,0.8-1.9c0.4-0.3,0.9-0.3,1.1-0.3c1.8,0,1.8,1.6,1.7,2.2H100.5z
			 M102.6,103.1c0-0.4-0.1-1.2-1-1.2c-0.5,0-1.1,0.3-1.1,1.2H102.6z"/>
		<path class="st3" d="M105,103.6c0,0.8,0.3,1.4,1.2,1.4c0.5,0,0.9-0.3,0.9-0.8h0.8c0,0.2-0.1,0.5-0.3,0.8c-0.2,0.2-0.6,0.5-1.4,0.5
			c-1.3,0-1.9-0.8-1.9-2.1c0-0.8,0.2-1.4,0.8-1.9c0.4-0.3,0.9-0.3,1.1-0.3c1.8,0,1.8,1.6,1.7,2.2H105z M107.1,103.1
			c0-0.4-0.1-1.2-1-1.2c-0.5,0-1.1,0.3-1.1,1.2H107.1z"/>
		<path class="st3" d="M109,99.7h0.8v5.8H109V99.7z"/>
		<path class="st3" d="M111.1,99.7h0.9v0.8h-0.9V99.7z M111.2,101.5h0.8v4h-0.8V101.5z"/>
		<path class="st3" d="M113.4,101.9l0-0.5h0.8l0,0.6c0.1-0.2,0.4-0.7,1.3-0.7c0.4,0,1.5,0.1,1.5,1.4v2.7h-0.8v-2.6
			c0-0.3,0-0.5-0.2-0.7c-0.2-0.2-0.5-0.3-0.7-0.3c-0.5,0-1,0.4-1,1.2v2.3h-0.8V101.9z"/>
		<path class="st3" d="M119,105.8c0,0.4,0.2,0.8,0.9,0.8c1,0,1.1-0.8,1.1-1.8c-0.3,0.7-1.1,0.7-1.3,0.7c-0.4,0-0.9-0.1-1.2-0.5
			c-0.3-0.4-0.5-0.9-0.5-1.5c0-1.4,0.8-2,1.8-2c0.8,0,1.1,0.4,1.3,0.6l0-0.6h0.7l0,0.7l0,2.5c0,1,0,1.4-0.2,1.7
			c-0.3,0.6-1.1,0.7-1.7,0.7c-1.6,0-1.7-0.8-1.7-1.3H119z M120.8,104.4c0.2-0.2,0.3-0.4,0.3-1.2c0-0.5-0.1-0.8-0.3-1
			c-0.2-0.2-0.5-0.4-0.9-0.4c-1,0-1.1,1-1.1,1.5c0,0.6,0.2,1.4,1.1,1.4C120.3,104.8,120.6,104.7,120.8,104.4z"/>
		<path class="st3" d="M123.6,104.3c0,0.3,0.2,0.7,0.9,0.7c0.3,0,0.5-0.1,0.7-0.3c0.1-0.1,0.1-0.2,0.1-0.4c0-0.4-0.3-0.5-0.9-0.6
			c-0.8-0.2-1.5-0.4-1.5-1.2c0-0.7,0.6-1.2,1.6-1.2c0.5,0,1.2,0.1,1.4,0.6c0.1,0.2,0.1,0.4,0.1,0.6h-0.8c0-0.6-0.5-0.7-0.8-0.7
			c-0.1,0-0.8,0-0.8,0.6c0,0.4,0.4,0.5,0.6,0.5c1.1,0.3,1.4,0.3,1.6,0.6c0.2,0.2,0.3,0.5,0.3,0.7c0,0.4-0.2,0.8-0.5,1
			c-0.4,0.2-0.8,0.3-1.2,0.3c-0.8,0-1.6-0.3-1.6-1.3H123.6z"/>
	</g>
</g>
<g>
	<g id="r-music">
		<circle class="st13" cx="39.6" cy="325" r="25.1"/>
		<g>
			<path class="st19" d="M53.3,321.4v11.2c0,1.1-0.9,2-2,2h-2.8c-1.3,0-2.4-1.1-2.4-2.4v-7.6c0-1.3,1.1-2.4,2.4-2.4h2.3h0
				c0.1,0,0.1-0.1,0.1-0.1v-1.2c0-0.1,0-0.2-0.1-0.3c-0.4-1.2-3.5-8.1-11.6-7.8c-6.2,0.3-8.2,3.6-10.9,7.2c-0.4,0.5-0.6,1.1-0.6,1.7
				v0.5c0,0,0,0.1,0.1,0.1l0,0h2.4c1.3,0,2.4,1.1,2.4,2.4v7.6c0,1.3-1.1,2.4-2.4,2.4h-2.8c-1.2,0-2.1-0.9-2.1-2.1v-10.2
				c0-1.2,0.3-2.5,0.9-3.5c1.7-3,5.9-8.7,13-8.7c9.2,0,11.7,5.2,13.8,9.9C53.2,320.5,53.3,320.9,53.3,321.4z"/>
		</g>
	</g>
	<g>
		<path class="st3" d="M76.1,317c-2.2,0-2.7-1.3-2.6-2.8h1.8c0,0.8,0,1.5,1,1.5c0.6,0,0.9-0.4,0.9-1c0-1.6-3.6-1.7-3.6-4.2
			c0-1.4,0.6-2.4,2.9-2.4c1.8,0,2.6,0.8,2.5,2.6h-1.8c0-0.6-0.1-1.3-0.8-1.3c-0.6,0-0.9,0.3-0.9,0.9c0,1.6,3.6,1.5,3.6,4.2
			C79.1,316.7,77.4,317,76.1,317z"/>
		<path class="st3" d="M80.3,312.5c0-2.3,0-4.5,3-4.5s3,2.2,3,4.5c0,2.3,0,4.5-3,4.5S80.3,314.8,80.3,312.5z M84.4,312.5
			c0-2.2-0.1-3.2-1.2-3.2s-1.2,1-1.2,3.2s0.1,3.2,1.2,3.2S84.4,314.7,84.4,312.5z"/>
		<path class="st3" d="M93.6,308.2v6.1c0,1.3-0.7,2.7-2.9,2.7c-2,0-3-1-3-2.7v-6.1h1.8v6c0,1.1,0.5,1.5,1.1,1.5
			c0.8,0,1.2-0.5,1.2-1.5v-6H93.6z"/>
		<path class="st3" d="M95.1,316.8v-8.7h2.4l2.3,6h0v-6h1.7v8.7h-2.4l-2.4-6.3h0v6.3H95.1z"/>
		<path class="st3" d="M103.1,308.2h3c2.4,0,2.8,1.6,2.8,4.3c0,1.3,0.2,4.4-2.9,4.4h-3V308.2z M104.9,315.5h0.9c1.1,0,1.3-0.8,1.3-3
			c0-1.6,0-3-1.3-3h-0.9V315.5z"/>
		<path class="st3" d="M73.7,320.7h1.9c0.7,0,1.2,0,1.6,0.5c0.3,0.3,0.4,0.7,0.4,1.1c0,0.4-0.1,0.8-0.5,1.1
			c-0.3,0.3-0.7,0.5-1.7,0.5h-0.9v2.6h-0.8V320.7z M74.5,323.2h1c0.5,0,1.3,0,1.3-1c0-0.9-0.8-0.9-1.2-0.9h-1.1V323.2z"/>
		<path class="st3" d="M78.4,323.2c0-0.3,0-0.6,0-0.8h0.8l0,0.8c0.1-0.6,0.6-0.7,1-0.8c0.2,0,0.4,0,0.5,0v0.7c0,0-0.1,0-0.1,0
			c-0.1,0-0.1,0-0.2,0c-0.9,0-1.1,0.5-1.1,1.2v2.1h-0.8V323.2z"/>
		<path class="st3" d="M82,324.6c0,0.8,0.3,1.4,1.2,1.4c0.5,0,0.9-0.3,0.9-0.8h0.8c0,0.2-0.1,0.5-0.3,0.8c-0.2,0.2-0.6,0.5-1.4,0.5
			c-1.3,0-1.9-0.8-1.9-2.1c0-0.8,0.2-1.4,0.8-1.9c0.4-0.3,0.9-0.3,1.1-0.3c1.8,0,1.8,1.6,1.7,2.2H82z M84.1,324c0-0.4-0.1-1.2-1-1.2
			c-0.5,0-1.1,0.3-1.1,1.2H84.1z"/>
		<path class="st3" d="M88,321.2c-0.1,0-0.3,0-0.4,0c-0.6,0-0.6,0.3-0.6,0.6v0.6h0.9v0.5h-0.9v3.5h-0.7V323h-0.8v-0.5h0.8V322
			c0-0.6,0-0.8,0.2-1c0.2-0.3,0.5-0.4,1-0.4c0.2,0,0.5,0,0.6,0.1V321.2z"/>
		<path class="st3" d="M89.1,324.6c0,0.8,0.3,1.4,1.2,1.4c0.5,0,0.9-0.3,0.9-0.8h0.8c0,0.2-0.1,0.5-0.3,0.8
			c-0.2,0.2-0.6,0.5-1.4,0.5c-1.3,0-1.9-0.8-1.9-2.1c0-0.8,0.2-1.4,0.8-1.9c0.4-0.3,0.9-0.3,1.1-0.3c1.8,0,1.8,1.6,1.7,2.2H89.1z
			 M91.2,324c0-0.4-0.1-1.2-1-1.2c-0.5,0-1.1,0.3-1.1,1.2H91.2z"/>
		<path class="st3" d="M93.1,323.2c0-0.3,0-0.6,0-0.8h0.8l0,0.8c0.1-0.6,0.6-0.7,1-0.8c0.2,0,0.4,0,0.5,0v0.7c0,0-0.1,0-0.1,0
			c-0.1,0-0.1,0-0.2,0c-0.9,0-1.1,0.5-1.1,1.2v2.1h-0.8V323.2z"/>
		<path class="st3" d="M96.8,325.2c0,0.3,0.2,0.7,0.9,0.7c0.3,0,0.5-0.1,0.7-0.3c0.1-0.1,0.1-0.2,0.1-0.4c0-0.4-0.3-0.5-0.9-0.6
			c-0.8-0.2-1.5-0.4-1.5-1.2c0-0.7,0.6-1.2,1.6-1.2c0.5,0,1.2,0.1,1.4,0.6c0.1,0.2,0.1,0.4,0.1,0.6h-0.8c0-0.6-0.5-0.7-0.8-0.7
			c-0.1,0-0.8,0-0.8,0.6c0,0.4,0.4,0.5,0.6,0.5c1.1,0.3,1.4,0.3,1.6,0.6c0.2,0.2,0.3,0.5,0.3,0.7c0,0.4-0.2,0.8-0.5,1
			c-0.4,0.2-0.8,0.3-1.2,0.3c-0.8,0-1.6-0.3-1.6-1.3H96.8z"/>
		<path class="st3" d="M102.6,323.2c0-0.3,0-0.6,0-0.8h0.8l0,0.8c0.1-0.6,0.6-0.7,1-0.8c0.2,0,0.4,0,0.5,0v0.7c0,0-0.1,0-0.1,0
			c-0.1,0-0.1,0-0.2,0c-0.9,0-1.1,0.5-1.1,1.2v2.1h-0.8V323.2z"/>
		<path class="st3" d="M107.4,322.3c1.6,0,2,1.3,2,2.1c0,1.2-0.7,2.2-2,2.2c-1.3,0-2-0.9-2-2.1C105.4,323.5,105.8,322.3,107.4,322.3
			z M107.4,326c0.6,0,1.2-0.4,1.2-1.6c0-1-0.5-1.5-1.2-1.5c-0.5,0-1.3,0.3-1.3,1.6C106.2,325.2,106.5,326,107.4,326z"/>
		<path class="st3" d="M112.8,323.7c0-0.2-0.1-0.8-0.8-0.8c-1,0-1,1.2-1,1.5c0,0.8,0.2,1.6,1,1.6c0.6,0,0.9-0.5,0.9-0.9h0.8
			c0,0.8-0.6,1.4-1.6,1.4c-0.3,0-0.9-0.1-1.3-0.5c-0.2-0.3-0.5-0.7-0.5-1.5c0-1.7,1-2.2,1.8-2.2c0.3,0,0.9,0.1,1.2,0.5
			c0.3,0.3,0.3,0.7,0.3,0.9H112.8z"/>
		<path class="st3" d="M114.1,320.6h0.7v3.4l1.5-1.6h1l-1.7,1.7l1.8,2.3h-1l-1.6-2.2v2.2h-0.7V320.6z"/>
		<path class="st3" d="M120.4,322.9l0-0.5h0.8v0.6c0.4-0.6,0.9-0.7,1.3-0.7c0.9,0,1.2,0.5,1.3,0.8c0.1-0.2,0.5-0.8,1.4-0.8
			c0.6,0,1.5,0.2,1.5,1.4v2.7h-0.8v-2.6c0-0.4-0.1-0.5-0.1-0.6c-0.1-0.2-0.4-0.4-0.8-0.4c-0.5,0-0.8,0.3-0.9,0.4
			c-0.2,0.2-0.2,0.7-0.2,0.9v2.2h-0.8v-2.7c0-0.5-0.3-0.9-0.9-0.9c-0.5,0-0.8,0.3-0.9,0.4c-0.2,0.2-0.2,0.6-0.2,0.8v2.3h-0.8V322.9z
			"/>
		<path class="st3" d="M128.6,322.4v2.6c0,0.4,0.1,0.9,0.9,0.9c0.4,0,0.7-0.1,0.9-0.4c0.2-0.2,0.2-0.6,0.2-0.8v-2.3h0.8v3.3
			c0,0.1,0,0.5,0,0.8h-0.8l0-0.7c-0.1,0.3-0.4,0.7-1.3,0.7c-1,0-1.5-0.6-1.5-1.4v-2.7H128.6z"/>
		<path class="st3" d="M133.3,325.2c0,0.3,0.2,0.7,0.9,0.7c0.3,0,0.5-0.1,0.7-0.3c0.1-0.1,0.1-0.2,0.1-0.4c0-0.4-0.3-0.5-0.9-0.6
			c-0.8-0.2-1.5-0.4-1.5-1.2c0-0.7,0.6-1.2,1.6-1.2c0.5,0,1.2,0.1,1.4,0.6c0.1,0.2,0.1,0.4,0.1,0.6h-0.8c0-0.6-0.5-0.7-0.8-0.7
			c-0.1,0-0.8,0-0.8,0.6c0,0.4,0.4,0.5,0.6,0.5c1.1,0.3,1.4,0.3,1.6,0.6c0.2,0.2,0.3,0.5,0.3,0.7c0,0.4-0.2,0.8-0.5,1
			c-0.4,0.2-0.8,0.3-1.2,0.3c-0.8,0-1.6-0.3-1.6-1.3H133.3z"/>
		<path class="st3" d="M136.8,320.7h0.9v0.8h-0.9V320.7z M136.8,322.4h0.8v4h-0.8V322.4z"/>
		<path class="st3" d="M141.3,323.7c0-0.2-0.1-0.8-0.8-0.8c-1,0-1,1.2-1,1.5c0,0.8,0.2,1.6,1,1.6c0.6,0,0.9-0.5,0.9-0.9h0.8
			c0,0.8-0.6,1.4-1.6,1.4c-0.3,0-0.9-0.1-1.3-0.5c-0.2-0.3-0.5-0.7-0.5-1.5c0-1.7,1-2.2,1.8-2.2c0.3,0,0.9,0.1,1.2,0.5
			c0.3,0.3,0.3,0.7,0.3,0.9H141.3z"/>
		<path class="st3" d="M147.7,326.4c-0.1-0.2-0.1-0.4-0.1-0.6c-0.4,0.7-0.9,0.7-1.2,0.7c-0.9,0-1.4-0.5-1.4-1.2
			c0-0.3,0.1-0.8,0.7-1.2c0.4-0.2,1.1-0.3,1.4-0.3c0.2,0,0.3,0,0.5,0c0-0.5,0-0.7-0.1-0.9c-0.2-0.2-0.5-0.3-0.7-0.3
			c-0.8,0-0.8,0.5-0.8,0.7h-0.8c0-0.2,0-0.5,0.3-0.8c0.3-0.3,0.9-0.4,1.3-0.4c0.6,0,1.2,0.2,1.4,0.6c0.1,0.2,0.1,0.4,0.1,0.6l0,1.9
			c0,0.1,0,0.6,0.1,1H147.7z M147.2,324.4c-0.3,0-1.4,0-1.4,0.8c0,0.3,0.2,0.7,0.8,0.7c0.4,0,0.7-0.2,0.9-0.4
			c0.2-0.3,0.2-0.5,0.2-1.1C147.5,324.5,147.4,324.4,147.2,324.4z"/>
		<path class="st3" d="M149.7,322.9l0-0.5h0.8l0,0.6c0.1-0.2,0.4-0.7,1.3-0.7c0.4,0,1.5,0.1,1.5,1.4v2.7h-0.8v-2.6
			c0-0.3,0-0.5-0.2-0.7c-0.2-0.2-0.5-0.3-0.7-0.3c-0.5,0-1,0.4-1,1.2v2.3h-0.8V322.9z"/>
		<path class="st3" d="M157.4,320.7h0.8v5.1c0,0.1,0,0.4,0,0.6h-0.8l0-0.6c-0.1,0.1-0.2,0.3-0.4,0.4c-0.3,0.2-0.7,0.3-1,0.3
			c-0.5,0-1.7-0.3-1.7-2c0-1.5,0.9-2.2,1.8-2.2c0.9,0,1.2,0.5,1.2,0.7V320.7z M157.1,323.2c-0.2-0.2-0.5-0.4-0.9-0.4
			c-1.1,0-1.1,1.3-1.1,1.6c0,0.7,0.2,1.5,1.1,1.5c1.2,0,1.2-1.3,1.2-1.6C157.4,323.8,157.3,323.5,157.1,323.2z"/>
		<path class="st3" d="M75.9,333.3c0-0.2-0.1-0.8-0.8-0.8c-1,0-1,1.2-1,1.5c0,0.8,0.2,1.6,1,1.6c0.6,0,0.9-0.5,0.9-0.9h0.8
			c0,0.8-0.6,1.4-1.6,1.4c-0.3,0-0.9-0.1-1.3-0.5c-0.2-0.3-0.5-0.7-0.5-1.5c0-1.7,1-2.2,1.8-2.2c0.3,0,0.9,0.1,1.2,0.5
			c0.3,0.3,0.3,0.7,0.3,0.9H75.9z"/>
		<path class="st3" d="M80.1,336c-0.1-0.2-0.1-0.4-0.1-0.6c-0.4,0.7-0.9,0.7-1.2,0.7c-0.9,0-1.4-0.5-1.4-1.2c0-0.3,0.1-0.8,0.7-1.2
			c0.4-0.2,1.1-0.3,1.4-0.3c0.2,0,0.3,0,0.5,0c0-0.5,0-0.7-0.1-0.9c-0.2-0.2-0.5-0.3-0.7-0.3c-0.8,0-0.8,0.5-0.8,0.7h-0.8
			c0-0.2,0-0.5,0.3-0.8c0.3-0.3,0.9-0.4,1.3-0.4c0.6,0,1.2,0.2,1.4,0.6c0.1,0.2,0.1,0.4,0.1,0.6l0,1.9c0,0.1,0,0.6,0.1,1H80.1z
			 M79.6,334c-0.3,0-1.4,0-1.4,0.8c0,0.3,0.2,0.7,0.8,0.7c0.4,0,0.7-0.2,0.9-0.4c0.2-0.3,0.2-0.5,0.2-1.1
			C79.9,334.1,79.8,334,79.6,334z"/>
		<path class="st3" d="M82.1,332.5l0-0.5h0.8l0,0.6c0.1-0.2,0.4-0.7,1.3-0.7c0.4,0,1.5,0.1,1.5,1.4v2.7h-0.8v-2.6
			c0-0.3,0-0.5-0.2-0.7c-0.2-0.2-0.5-0.3-0.7-0.3c-0.5,0-1,0.4-1,1.2v2.3h-0.8V332.5z"/>
		<path class="st3" d="M89.7,334.8c0,0.3,0.2,0.7,0.9,0.7c0.3,0,0.5-0.1,0.7-0.3c0.1-0.1,0.1-0.2,0.1-0.4c0-0.4-0.3-0.5-0.9-0.6
			c-0.8-0.2-1.5-0.4-1.5-1.2c0-0.7,0.6-1.2,1.6-1.2c0.5,0,1.2,0.1,1.4,0.6c0.1,0.2,0.1,0.4,0.1,0.6h-0.8c0-0.6-0.5-0.7-0.8-0.7
			c-0.1,0-0.8,0-0.8,0.6c0,0.4,0.4,0.5,0.6,0.5c1.1,0.3,1.4,0.3,1.6,0.6c0.2,0.2,0.3,0.5,0.3,0.7c0,0.4-0.2,0.8-0.5,1
			c-0.4,0.2-0.8,0.3-1.2,0.3c-0.8,0-1.6-0.3-1.6-1.3H89.7z"/>
		<path class="st3" d="M92.6,332h0.7v-0.8l0.7-0.2v1.1H95v0.6h-0.9v2.4c0,0.2,0,0.5,0.5,0.5c0.2,0,0.3,0,0.4,0v0.6
			c-0.1,0-0.4,0-0.6,0c-0.7,0-1-0.2-1-0.9v-2.7h-0.7V332z"/>
		<path class="st3" d="M96.6,332v2.6c0,0.4,0.1,0.9,0.9,0.9c0.4,0,0.7-0.1,0.9-0.4c0.2-0.2,0.2-0.6,0.2-0.8V332h0.8v3.3
			c0,0.1,0,0.5,0,0.8h-0.8l0-0.7c-0.1,0.3-0.4,0.7-1.3,0.7c-1,0-1.5-0.6-1.5-1.4V332H96.6z"/>
		<path class="st3" d="M103.6,330.3h0.8v5.1c0,0.1,0,0.4,0,0.6h-0.8l0-0.6c-0.1,0.1-0.2,0.3-0.4,0.4c-0.3,0.2-0.7,0.3-1,0.3
			c-0.5,0-1.7-0.3-1.7-2c0-1.5,0.9-2.2,1.8-2.2c0.9,0,1.2,0.5,1.2,0.7V330.3z M103.3,332.8c-0.2-0.2-0.5-0.4-0.9-0.4
			c-1.1,0-1.1,1.3-1.1,1.6c0,0.7,0.2,1.5,1.1,1.5c1.2,0,1.2-1.3,1.2-1.6C103.6,333.4,103.4,333.1,103.3,332.8z"/>
		<path class="st3" d="M107.5,336l-0.6,1.5h-0.8l0.6-1.5l-1.7-4h0.8l1.3,3.2l1.3-3.2h0.8L107.5,336z"/>
		<path class="st3" d="M112.6,332l1,3.2l1-3.2h1l0.9,3.2l1-3.2h0.8l-1.4,4h-0.9l-0.9-3.3l-1,3.3h-0.9l-1.3-4H112.6z"/>
		<path class="st3" d="M118.9,330.3h0.9v0.8h-0.9V330.3z M119,332h0.8v4H119V332z"/>
		<path class="st3" d="M120.6,332h0.7v-0.8l0.7-0.2v1.1h0.9v0.6h-0.9v2.4c0,0.2,0,0.5,0.5,0.5c0.2,0,0.3,0,0.4,0v0.6
			c-0.1,0-0.4,0-0.6,0c-0.7,0-1-0.2-1-0.9v-2.7h-0.7V332z"/>
		<path class="st3" d="M123.9,330.3h0.8v2.3c0.2-0.4,0.7-0.7,1.3-0.7c0.4,0,1,0.2,1.3,0.6c0.1,0.2,0.1,0.4,0.1,0.9v2.5h-0.8v-2.4
			c0-0.4,0-1.1-0.9-1.1c-0.6,0-0.8,0.3-0.9,0.5c-0.1,0.2-0.1,0.6-0.1,0.8v2.1h-0.8V330.3z"/>
		<path class="st3" d="M131,332.5l0-0.5h0.8v0.6c0.4-0.6,0.9-0.7,1.3-0.7c0.9,0,1.2,0.5,1.3,0.8c0.1-0.2,0.5-0.8,1.4-0.8
			c0.6,0,1.5,0.2,1.5,1.4v2.7h-0.8v-2.6c0-0.4-0.1-0.5-0.1-0.6c-0.1-0.2-0.4-0.4-0.8-0.4c-0.5,0-0.8,0.3-0.9,0.4
			c-0.2,0.2-0.2,0.7-0.2,0.9v2.2h-0.8v-2.7c0-0.5-0.3-0.9-0.9-0.9c-0.5,0-0.8,0.3-0.9,0.4c-0.2,0.2-0.2,0.6-0.2,0.8v2.3H131V332.5z"
			/>
		<path class="st3" d="M139.2,332v2.6c0,0.4,0.1,0.9,0.9,0.9c0.4,0,0.7-0.1,0.9-0.4c0.2-0.2,0.2-0.6,0.2-0.8V332h0.8v3.3
			c0,0.1,0,0.5,0,0.8h-0.8l0-0.7c-0.1,0.3-0.4,0.7-1.3,0.7c-1,0-1.5-0.6-1.5-1.4V332H139.2z"/>
		<path class="st3" d="M143.9,334.8c0,0.3,0.2,0.7,0.9,0.7c0.3,0,0.5-0.1,0.7-0.3c0.1-0.1,0.1-0.2,0.1-0.4c0-0.4-0.3-0.5-0.9-0.6
			c-0.8-0.2-1.5-0.4-1.5-1.2c0-0.7,0.6-1.2,1.6-1.2c0.5,0,1.2,0.1,1.4,0.6c0.1,0.2,0.1,0.4,0.1,0.6h-0.8c0-0.6-0.5-0.7-0.8-0.7
			c-0.1,0-0.8,0-0.8,0.6c0,0.4,0.4,0.5,0.6,0.5c1.1,0.3,1.4,0.3,1.6,0.6c0.2,0.2,0.3,0.5,0.3,0.7c0,0.4-0.2,0.8-0.5,1
			c-0.4,0.2-0.8,0.3-1.2,0.3c-0.8,0-1.6-0.3-1.6-1.3H143.9z"/>
		<path class="st3" d="M147.4,330.3h0.9v0.8h-0.9V330.3z M147.4,332h0.8v4h-0.8V332z"/>
		<path class="st3" d="M151.9,333.3c0-0.2-0.1-0.8-0.8-0.8c-1,0-1,1.2-1,1.5c0,0.8,0.2,1.6,1,1.6c0.6,0,0.9-0.5,0.9-0.9h0.8
			c0,0.8-0.6,1.4-1.6,1.4c-0.3,0-0.9-0.1-1.3-0.5c-0.2-0.3-0.5-0.7-0.5-1.5c0-1.7,1-2.2,1.8-2.2c0.3,0,0.9,0.1,1.2,0.5
			c0.3,0.3,0.3,0.7,0.3,0.9H151.9z"/>
		<path class="st3" d="M75.4,341.5c1.6,0,2,1.3,2,2.1c0,1.2-0.7,2.2-2,2.2c-1.3,0-2-0.9-2-2.1C73.4,342.7,73.8,341.5,75.4,341.5z
			 M75.4,345.2c0.6,0,1.2-0.4,1.2-1.6c0-1-0.5-1.5-1.2-1.5c-0.5,0-1.3,0.3-1.3,1.6C74.2,344.4,74.5,345.2,75.4,345.2z"/>
		<path class="st3" d="M78.6,342.4c0-0.3,0-0.6,0-0.8h0.8l0,0.8c0.1-0.6,0.6-0.7,1-0.8c0.2,0,0.4,0,0.5,0v0.7c0,0-0.1,0-0.1,0
			c-0.1,0-0.1,0-0.2,0c-0.9,0-1.1,0.5-1.1,1.2v2.1h-0.8V342.4z"/>
		<path class="st3" d="M83.3,341.6H84v-0.8l0.7-0.2v1.1h0.9v0.6h-0.9v2.4c0,0.2,0,0.5,0.5,0.5c0.2,0,0.3,0,0.4,0v0.6
			c-0.1,0-0.4,0-0.6,0c-0.7,0-1-0.2-1-0.9v-2.7h-0.7V341.6z"/>
		<path class="st3" d="M87,343.8c0,0.8,0.3,1.4,1.2,1.4c0.5,0,0.9-0.3,0.9-0.8h0.8c0,0.2-0.1,0.5-0.3,0.8c-0.2,0.2-0.6,0.5-1.4,0.5
			c-1.3,0-1.9-0.8-1.9-2.1c0-0.8,0.2-1.4,0.8-1.9c0.4-0.3,0.9-0.3,1.1-0.3c1.8,0,1.8,1.6,1.7,2.2H87z M89.1,343.2
			c0-0.4-0.1-1.2-1-1.2c-0.5,0-1.1,0.3-1.1,1.2H89.1z"/>
		<path class="st3" d="M91,339.9h0.8v5.8H91V339.9z"/>
		<path class="st3" d="M93.7,343.8c0,0.8,0.3,1.4,1.2,1.4c0.5,0,0.9-0.3,0.9-0.8h0.8c0,0.2-0.1,0.5-0.3,0.8
			c-0.2,0.2-0.6,0.5-1.4,0.5c-1.3,0-1.9-0.8-1.9-2.1c0-0.8,0.2-1.4,0.8-1.9c0.4-0.3,0.9-0.3,1.1-0.3c1.8,0,1.8,1.6,1.7,2.2H93.7z
			 M95.8,343.2c0-0.4-0.1-1.2-1-1.2c-0.5,0-1.1,0.3-1.1,1.2H95.8z"/>
		<path class="st3" d="M97.1,341.6h0.8l1.3,3.2l1.2-3.2h0.8l-1.8,4h-0.8L97.1,341.6z"/>
		<path class="st3" d="M102,339.9h0.9v0.8H102V339.9z M102.1,341.6h0.8v4h-0.8V341.6z"/>
		<path class="st3" d="M104.8,344.4c0,0.3,0.2,0.7,0.9,0.7c0.3,0,0.5-0.1,0.7-0.3c0.1-0.1,0.1-0.2,0.1-0.4c0-0.4-0.3-0.5-0.9-0.6
			c-0.8-0.2-1.5-0.4-1.5-1.2c0-0.7,0.6-1.2,1.6-1.2c0.5,0,1.2,0.1,1.4,0.6c0.1,0.2,0.1,0.4,0.1,0.6h-0.8c0-0.6-0.5-0.7-0.8-0.7
			c-0.1,0-0.8,0-0.8,0.6c0,0.4,0.4,0.5,0.6,0.5c1.1,0.3,1.4,0.3,1.6,0.6c0.2,0.2,0.3,0.5,0.3,0.7c0,0.4-0.2,0.8-0.5,1
			c-0.4,0.2-0.8,0.3-1.2,0.3c-0.8,0-1.6-0.3-1.6-1.3H104.8z"/>
		<path class="st3" d="M108.3,339.9h0.9v0.8h-0.9V339.9z M108.4,341.6h0.8v4h-0.8V341.6z"/>
		<path class="st3" d="M112.3,341.5c1.6,0,2,1.3,2,2.1c0,1.2-0.7,2.2-2,2.2c-1.3,0-2-0.9-2-2.1C110.3,342.7,110.7,341.5,112.3,341.5
			z M112.3,345.2c0.6,0,1.2-0.4,1.2-1.6c0-1-0.5-1.5-1.2-1.5c-0.5,0-1.3,0.3-1.3,1.6C111.1,344.4,111.4,345.2,112.3,345.2z"/>
		<path class="st3" d="M115.5,342.1l0-0.5h0.8l0,0.6c0.1-0.2,0.4-0.7,1.3-0.7c0.4,0,1.5,0.1,1.5,1.4v2.7h-0.8v-2.6
			c0-0.3,0-0.5-0.2-0.7c-0.2-0.2-0.5-0.3-0.7-0.3c-0.5,0-1,0.4-1,1.2v2.3h-0.8V342.1z"/>
		<path class="st3" d="M124.3,341.5c1.6,0,2,1.3,2,2.1c0,1.2-0.7,2.2-2,2.2c-1.3,0-2-0.9-2-2.1C122.3,342.7,122.7,341.5,124.3,341.5
			z M124.3,345.2c0.6,0,1.2-0.4,1.2-1.6c0-1-0.5-1.5-1.2-1.5c-0.5,0-1.3,0.3-1.3,1.6C123.1,344.4,123.4,345.2,124.3,345.2z"/>
		<path class="st3" d="M127.5,342.1l0-0.5h0.8l0,0.6c0.1-0.2,0.4-0.7,1.3-0.7c0.4,0,1.5,0.1,1.5,1.4v2.7h-0.8v-2.6
			c0-0.3,0-0.5-0.2-0.7c-0.2-0.2-0.5-0.3-0.7-0.3c-0.5,0-1,0.4-1,1.2v2.3h-0.8V342.1z"/>
	</g>
</g>
<g>
	<g id="r-psychic">
		<circle class="st13" cx="40.6" cy="268.5" r="25.1"/>
		<g>
			<g>
				<path class="st20" d="M26.4,259.5l13.7,23.8c0.2,0.4,0.9,0.4,1.1,0l13.7-23.8c0.2-0.4-0.1-0.9-0.5-0.9H26.9
					C26.4,258.6,26.1,259.1,26.4,259.5z"/>
				<path class="st21" d="M26.4,277.4L40,253.8c0.3-0.5,0.9-0.5,1.2,0l13.6,23.6c0.3,0.5-0.1,1-0.6,1H27
					C26.5,278.4,26.2,277.8,26.4,277.4z"/>
			</g>
			<path class="st22" d="M35,269.7c-0.5-0.5-0.4-1.2,0.1-1.7c1.2-1,3.5-2.5,5.7-2.5c2.7,0,4.8,1.1,6.5,2.5c0.5,0.4,0.5,1.2,0,1.7
				c-1,0.9-3,2.2-6,2.6c-0.1,0-0.2,0-0.2,0C40.4,272.2,37.3,272,35,269.7z"/>
			<circle class="st23" cx="41.2" cy="268.9" r="3"/>
			<path class="st2" d="M42,268.6c-0.5,0-0.9-0.4-0.9-0.9c0-0.2,0.1-0.4,0.2-0.5c-0.1,0-0.1,0-0.2,0c-0.9,0-1.7,0.8-1.7,1.7
				c0,0.9,0.8,1.7,1.7,1.7c0.9,0,1.7-0.8,1.7-1.7c0-0.2-0.1-0.5-0.1-0.7C42.6,268.4,42.3,268.6,42,268.6z"/>
		</g>
	</g>
	<g>
		<path class="st3" d="M71.8,248.4H75c1.7,0,2.3,1,2.3,2.6c0,1-0.3,2.5-2.4,2.5h-1.3v3.5h-1.8V248.4z M73.6,252.2h1
			c0.5,0,0.9-0.6,0.9-1.2c0-0.7-0.2-1.3-1-1.3h-0.9V252.2z"/>
		<path class="st3" d="M80.8,257.2c-2.2,0-2.7-1.3-2.6-2.8H80c0,0.8,0,1.5,1,1.5c0.6,0,0.9-0.4,0.9-1c0-1.6-3.6-1.7-3.6-4.2
			c0-1.4,0.6-2.4,2.9-2.4c1.8,0,2.6,0.8,2.5,2.6h-1.8c0-0.6-0.1-1.3-0.8-1.3c-0.6,0-0.9,0.3-0.9,0.9c0,1.6,3.6,1.5,3.6,4.2
			C83.8,257,82.2,257.2,80.8,257.2z"/>
		<path class="st3" d="M86.7,254.1l-2.3-5.7h2l1.3,3.7l1.4-3.7h1.8l-2.4,5.7v3h-1.8V254.1z"/>
		<path class="st3" d="M91.7,252.8c0-2.3,0-4.5,3-4.5c1.8,0,2.6,1,2.5,2.9h-1.8c0-1.2-0.2-1.6-0.7-1.6c-1,0-1.2,1-1.2,3.2
			c0,2.2,0.1,3.2,1.2,3.2c0.8,0,0.8-1.1,0.8-1.8h1.8c0,2.3-0.9,3.1-2.6,3.1C91.7,257.2,91.7,255,91.7,252.8z"/>
		<path class="st3" d="M102.4,251.9v-3.5h1.8v8.7h-1.8v-3.9h-2.1v3.9h-1.8v-8.7h1.8v3.5H102.4z"/>
		<path class="st3" d="M105.8,257.1v-8.7h1.8v8.7H105.8z"/>
		<path class="st3" d="M109,252.8c0-2.3,0-4.5,3-4.5c1.8,0,2.6,1,2.5,2.9h-1.8c0-1.2-0.2-1.6-0.7-1.6c-1,0-1.2,1-1.2,3.2
			c0,2.2,0.1,3.2,1.2,3.2c0.8,0,0.8-1.1,0.8-1.8h1.8c0,2.3-0.9,3.1-2.6,3.1C109,257.2,109,255,109,252.8z"/>
		<path class="st3" d="M71.7,260.9h0.8v5.8h-0.8V260.9z"/>
		<path class="st3" d="M73.9,263.1l0-0.5h0.8l0,0.6c0.1-0.2,0.4-0.7,1.3-0.7c0.4,0,1.5,0.1,1.5,1.4v2.7h-0.8v-2.6
			c0-0.3,0-0.5-0.2-0.7c-0.2-0.2-0.5-0.3-0.7-0.3c-0.5,0-1,0.4-1,1.2v2.3h-0.8V263.1z"/>
		<path class="st3" d="M78.2,262.7h0.7v-0.8l0.7-0.2v1.1h0.9v0.6h-0.9v2.4c0,0.2,0,0.5,0.5,0.5c0.2,0,0.3,0,0.4,0v0.6
			c-0.1,0-0.4,0-0.6,0c-0.7,0-1-0.2-1-0.9v-2.7h-0.7V262.7z"/>
		<path class="st3" d="M81.9,264.8c0,0.8,0.3,1.4,1.2,1.4c0.5,0,0.9-0.3,0.9-0.8h0.8c0,0.2-0.1,0.5-0.3,0.8
			c-0.2,0.2-0.6,0.5-1.4,0.5c-1.3,0-1.9-0.8-1.9-2.1c0-0.8,0.2-1.4,0.8-1.9c0.4-0.3,0.9-0.3,1.1-0.3c1.8,0,1.8,1.6,1.7,2.2H81.9z
			 M84.1,264.3c0-0.4-0.1-1.2-1-1.2c-0.5,0-1.1,0.3-1.1,1.2H84.1z"/>
		<path class="st3" d="M86,263.5c0-0.3,0-0.6,0-0.8h0.8l0,0.8c0.1-0.6,0.6-0.7,1-0.8c0.2,0,0.4,0,0.5,0v0.7c0,0-0.1,0-0.1,0
			c-0.1,0-0.1,0-0.2,0c-0.9,0-1.1,0.5-1.1,1.2v2.1H86V263.5z"/>
		<path class="st3" d="M89.5,264.8c0,0.8,0.3,1.4,1.2,1.4c0.5,0,0.9-0.3,0.9-0.8h0.8c0,0.2-0.1,0.5-0.3,0.8
			c-0.2,0.2-0.6,0.5-1.4,0.5c-1.3,0-1.9-0.8-1.9-2.1c0-0.8,0.2-1.4,0.8-1.9c0.4-0.3,0.9-0.3,1.1-0.3c1.8,0,1.8,1.6,1.7,2.2H89.5z
			 M91.6,264.3c0-0.4-0.1-1.2-1-1.2c-0.5,0-1.1,0.3-1.1,1.2H91.6z"/>
		<path class="st3" d="M93.9,265.5c0,0.3,0.2,0.7,0.9,0.7c0.3,0,0.5-0.1,0.7-0.3c0.1-0.1,0.1-0.2,0.1-0.4c0-0.4-0.3-0.5-0.9-0.6
			c-0.8-0.2-1.5-0.4-1.5-1.2c0-0.7,0.6-1.2,1.6-1.2c0.5,0,1.2,0.1,1.4,0.6c0.1,0.2,0.1,0.4,0.1,0.6h-0.8c0-0.6-0.5-0.7-0.8-0.7
			c-0.1,0-0.8,0-0.8,0.6c0,0.4,0.4,0.5,0.6,0.5c1.1,0.3,1.4,0.3,1.6,0.6c0.2,0.2,0.3,0.5,0.3,0.7c0,0.4-0.2,0.8-0.5,1
			c-0.4,0.2-0.8,0.3-1.2,0.3c-0.8,0-1.6-0.3-1.6-1.3H93.9z"/>
		<path class="st3" d="M96.9,262.7h0.7v-0.8l0.7-0.2v1.1h0.9v0.6h-0.9v2.4c0,0.2,0,0.5,0.5,0.5c0.2,0,0.3,0,0.4,0v0.6
			c-0.1,0-0.4,0-0.6,0c-0.7,0-1-0.2-1-0.9v-2.7h-0.7V262.7z"/>
		<path class="st3" d="M100.6,264.8c0,0.8,0.3,1.4,1.2,1.4c0.5,0,0.9-0.3,0.9-0.8h0.8c0,0.2-0.1,0.5-0.3,0.8
			c-0.2,0.2-0.6,0.5-1.4,0.5c-1.3,0-1.9-0.8-1.9-2.1c0-0.8,0.2-1.4,0.8-1.9c0.4-0.3,0.9-0.3,1.1-0.3c1.8,0,1.8,1.6,1.7,2.2H100.6z
			 M102.7,264.3c0-0.4-0.1-1.2-1-1.2c-0.5,0-1.1,0.3-1.1,1.2H102.7z"/>
		<path class="st3" d="M107.4,260.9h0.8v5.1c0,0.1,0,0.4,0,0.6h-0.8l0-0.6c-0.1,0.1-0.2,0.3-0.4,0.4c-0.3,0.2-0.7,0.3-1,0.3
			c-0.5,0-1.7-0.3-1.7-2c0-1.5,0.9-2.2,1.8-2.2c0.9,0,1.2,0.5,1.2,0.7V260.9z M107.1,263.5c-0.2-0.2-0.5-0.4-0.9-0.4
			c-1.1,0-1.1,1.3-1.1,1.6c0,0.7,0.2,1.5,1.1,1.5c1.2,0,1.2-1.3,1.2-1.6C107.4,264,107.3,263.7,107.1,263.5z"/>
		<path class="st3" d="M111.6,260.9h0.9v0.8h-0.9V260.9z M111.7,262.7h0.8v4h-0.8V262.7z"/>
		<path class="st3" d="M114,263.1l0-0.5h0.8l0,0.6c0.1-0.2,0.4-0.7,1.3-0.7c0.4,0,1.5,0.1,1.5,1.4v2.7h-0.8v-2.6
			c0-0.3,0-0.5-0.2-0.7c-0.2-0.2-0.5-0.3-0.7-0.3c-0.5,0-1,0.4-1,1.2v2.3H114V263.1z"/>
		<path class="st3" d="M120.4,262.7h0.7v-0.8l0.7-0.2v1.1h0.9v0.6h-0.9v2.4c0,0.2,0,0.5,0.5,0.5c0.2,0,0.3,0,0.4,0v0.6
			c-0.1,0-0.4,0-0.6,0c-0.7,0-1-0.2-1-0.9v-2.7h-0.7V262.7z"/>
		<path class="st3" d="M123.7,260.9h0.8v2.3c0.2-0.4,0.7-0.7,1.3-0.7c0.4,0,1,0.2,1.3,0.6c0.1,0.2,0.1,0.4,0.1,0.9v2.5h-0.8v-2.4
			c0-0.4,0-1.1-0.9-1.1c-0.6,0-0.8,0.3-0.9,0.5c-0.1,0.2-0.1,0.6-0.1,0.8v2.1h-0.8V260.9z"/>
		<path class="st3" d="M129.1,264.8c0,0.8,0.3,1.4,1.2,1.4c0.5,0,0.9-0.3,0.9-0.8h0.8c0,0.2-0.1,0.5-0.3,0.8
			c-0.2,0.2-0.6,0.5-1.4,0.5c-1.3,0-1.9-0.8-1.9-2.1c0-0.8,0.2-1.4,0.8-1.9c0.4-0.3,0.9-0.3,1.1-0.3c1.8,0,1.8,1.6,1.7,2.2H129.1z
			 M131.2,264.3c0-0.4-0.1-1.2-1-1.2c-0.5,0-1.1,0.3-1.1,1.2H131.2z"/>
		<path class="st3" d="M72.4,272.3v2.6c0,0.4,0.1,0.9,0.9,0.9c0.4,0,0.7-0.1,0.9-0.4c0.2-0.2,0.2-0.6,0.2-0.8v-2.3h0.8v3.3
			c0,0.1,0,0.5,0,0.8h-0.8l0-0.7c-0.1,0.3-0.4,0.7-1.3,0.7c-1,0-1.5-0.6-1.5-1.4v-2.7H72.4z"/>
		<path class="st3" d="M76.6,272.7l0-0.5h0.8l0,0.6c0.1-0.2,0.4-0.7,1.3-0.7c0.4,0,1.5,0.1,1.5,1.4v2.7h-0.8v-2.6
			c0-0.3,0-0.5-0.2-0.7c-0.2-0.2-0.5-0.3-0.7-0.3c-0.5,0-1,0.4-1,1.2v2.3h-0.8V272.7z"/>
		<path class="st3" d="M81.9,274.4c0,0.8,0.3,1.4,1.2,1.4c0.5,0,0.9-0.3,0.9-0.8h0.8c0,0.2-0.1,0.5-0.3,0.8
			c-0.2,0.2-0.6,0.5-1.4,0.5c-1.3,0-1.9-0.8-1.9-2.1c0-0.8,0.2-1.4,0.8-1.9c0.4-0.3,0.9-0.3,1.1-0.3c1.8,0,1.8,1.6,1.7,2.2H81.9z
			 M84.1,273.9c0-0.4-0.1-1.2-1-1.2c-0.5,0-1.1,0.3-1.1,1.2H84.1z"/>
		<path class="st3" d="M89.5,276.3h-1l-1.1-1.6l-1.1,1.6h-0.9l1.6-2.1l-1.5-1.9h1l1.1,1.5l1.1-1.5h0.9l-1.6,2L89.5,276.3z"/>
		<path class="st3" d="M90.3,272.9c0-0.2,0-0.3,0-0.7h0.8l0,0.7c0.4-0.6,1-0.7,1.4-0.7c0.9,0,1.7,0.6,1.7,2.1c0,1.5-0.9,2.2-1.8,2.2
			c-0.6,0-1-0.2-1.2-0.6v2h-0.7V272.9z M92.2,275.9c0.2,0,0.6,0,0.8-0.4c0.3-0.4,0.3-1,0.3-1.3c0-0.7-0.2-1.5-1.1-1.5
			c-1.2,0-1.2,1.3-1.2,1.6C91.1,274.9,91.1,275.9,92.2,275.9z"/>
		<path class="st3" d="M95.3,270.5H96v5.8h-0.8V270.5z"/>
		<path class="st3" d="M99.9,276.3c-0.1-0.2-0.1-0.4-0.1-0.6c-0.4,0.7-0.9,0.7-1.2,0.7c-0.9,0-1.4-0.5-1.4-1.2
			c0-0.3,0.1-0.8,0.7-1.2c0.4-0.2,1.1-0.3,1.4-0.3c0.2,0,0.3,0,0.5,0c0-0.5,0-0.7-0.1-0.9c-0.2-0.2-0.5-0.3-0.7-0.3
			c-0.8,0-0.8,0.5-0.8,0.7h-0.8c0-0.2,0-0.5,0.3-0.8c0.3-0.3,0.9-0.4,1.3-0.4c0.6,0,1.2,0.2,1.4,0.6c0.1,0.2,0.1,0.4,0.1,0.6l0,1.9
			c0,0.1,0,0.6,0.1,1H99.9z M99.4,274.3c-0.3,0-1.4,0-1.4,0.8c0,0.3,0.2,0.7,0.8,0.7c0.4,0,0.7-0.2,0.9-0.4c0.2-0.3,0.2-0.5,0.2-1.1
			C99.7,274.3,99.6,274.3,99.4,274.3z"/>
		<path class="st3" d="M101.9,270.5h0.9v0.8h-0.9V270.5z M101.9,272.3h0.8v4h-0.8V272.3z"/>
		<path class="st3" d="M104.2,272.7l0-0.5h0.8l0,0.6c0.1-0.2,0.4-0.7,1.3-0.7c0.4,0,1.5,0.1,1.5,1.4v2.7h-0.8v-2.6
			c0-0.3,0-0.5-0.2-0.7c-0.2-0.2-0.5-0.3-0.7-0.3c-0.5,0-1,0.4-1,1.2v2.3h-0.8V272.7z"/>
		<path class="st3" d="M109.5,274.4c0,0.8,0.3,1.4,1.2,1.4c0.5,0,0.9-0.3,0.9-0.8h0.8c0,0.2-0.1,0.5-0.3,0.8
			c-0.2,0.2-0.6,0.5-1.4,0.5c-1.3,0-1.9-0.8-1.9-2.1c0-0.8,0.2-1.4,0.8-1.9c0.4-0.3,0.9-0.3,1.1-0.3c1.8,0,1.8,1.6,1.7,2.2H109.5z
			 M111.6,273.9c0-0.4-0.1-1.2-1-1.2c-0.5,0-1.1,0.3-1.1,1.2H111.6z"/>
		<path class="st3" d="M116.3,270.5h0.8v5.1c0,0.1,0,0.4,0,0.6h-0.8l0-0.6c-0.1,0.1-0.2,0.3-0.4,0.4c-0.3,0.2-0.7,0.3-1,0.3
			c-0.5,0-1.7-0.3-1.7-2c0-1.5,0.9-2.2,1.8-2.2c0.9,0,1.2,0.5,1.2,0.7V270.5z M116,273.1c-0.2-0.2-0.5-0.4-0.9-0.4
			c-1.1,0-1.1,1.3-1.1,1.6c0,0.7,0.2,1.5,1.1,1.5c1.2,0,1.2-1.3,1.2-1.6C116.3,273.6,116.2,273.3,116,273.1z"/>
		<path class="st3" d="M123.1,276.3c-0.1-0.2-0.1-0.4-0.1-0.6c-0.4,0.7-0.9,0.7-1.2,0.7c-0.9,0-1.4-0.5-1.4-1.2
			c0-0.3,0.1-0.8,0.7-1.2c0.4-0.2,1.1-0.3,1.4-0.3c0.2,0,0.3,0,0.5,0c0-0.5,0-0.7-0.1-0.9c-0.2-0.2-0.5-0.3-0.7-0.3
			c-0.8,0-0.8,0.5-0.8,0.7h-0.8c0-0.2,0-0.5,0.3-0.8c0.3-0.3,0.9-0.4,1.3-0.4c0.6,0,1.2,0.2,1.4,0.6c0.1,0.2,0.1,0.4,0.1,0.6l0,1.9
			c0,0.1,0,0.6,0.1,1H123.1z M122.5,274.3c-0.3,0-1.4,0-1.4,0.8c0,0.3,0.2,0.7,0.8,0.7c0.4,0,0.7-0.2,0.9-0.4
			c0.2-0.3,0.2-0.5,0.2-1.1C122.8,274.3,122.7,274.3,122.5,274.3z"/>
		<path class="st3" d="M125.1,272.7l0-0.5h0.8l0,0.6c0.1-0.2,0.4-0.7,1.3-0.7c0.4,0,1.5,0.1,1.5,1.4v2.7h-0.8v-2.6
			c0-0.3,0-0.5-0.2-0.7c-0.2-0.2-0.5-0.3-0.7-0.3c-0.5,0-1,0.4-1,1.2v2.3h-0.8V272.7z"/>
		<path class="st3" d="M132.7,270.5h0.8v5.1c0,0.1,0,0.4,0,0.6h-0.8l0-0.6c-0.1,0.1-0.2,0.3-0.4,0.4c-0.3,0.2-0.7,0.3-1,0.3
			c-0.5,0-1.7-0.3-1.7-2c0-1.5,0.9-2.2,1.8-2.2c0.9,0,1.2,0.5,1.2,0.7V270.5z M132.4,273.1c-0.2-0.2-0.5-0.4-0.9-0.4
			c-1.1,0-1.1,1.3-1.1,1.6c0,0.7,0.2,1.5,1.1,1.5c1.2,0,1.2-1.3,1.2-1.6C132.7,273.6,132.6,273.3,132.4,273.1z"/>
		<path class="st3" d="M71.7,282.4l0-0.5h0.8v0.6c0.4-0.6,0.9-0.7,1.3-0.7c0.9,0,1.2,0.5,1.3,0.8c0.1-0.2,0.5-0.8,1.4-0.8
			c0.6,0,1.5,0.2,1.5,1.4v2.7h-0.8v-2.6c0-0.4-0.1-0.5-0.1-0.6c-0.1-0.2-0.4-0.4-0.8-0.4c-0.5,0-0.8,0.3-0.9,0.4
			c-0.2,0.2-0.2,0.7-0.2,0.9v2.2h-0.8v-2.7c0-0.5-0.3-0.9-0.9-0.9c-0.5,0-0.8,0.3-0.9,0.4c-0.2,0.2-0.2,0.6-0.2,0.8v2.3h-0.8V282.4z
			"/>
		<path class="st3" d="M80.9,285.9l-0.6,1.5h-0.8l0.6-1.5l-1.7-4h0.8l1.3,3.2l1.3-3.2h0.8L80.9,285.9z"/>
		<path class="st3" d="M84,284.7c0,0.3,0.2,0.7,0.9,0.7c0.3,0,0.5-0.1,0.7-0.3c0.1-0.1,0.1-0.2,0.1-0.4c0-0.4-0.3-0.5-0.9-0.6
			c-0.8-0.2-1.5-0.4-1.5-1.2c0-0.7,0.6-1.2,1.6-1.2c0.5,0,1.2,0.1,1.4,0.6c0.1,0.2,0.1,0.4,0.1,0.6h-0.8c0-0.6-0.5-0.7-0.8-0.7
			c-0.1,0-0.8,0-0.8,0.6c0,0.4,0.4,0.5,0.6,0.5c1.1,0.3,1.4,0.3,1.6,0.6c0.2,0.2,0.3,0.5,0.3,0.7c0,0.4-0.2,0.8-0.5,1
			c-0.4,0.2-0.8,0.3-1.2,0.3c-0.8,0-1.6-0.3-1.6-1.3H84z"/>
		<path class="st3" d="M86.9,281.9h0.7V281l0.7-0.2v1.1h0.9v0.6h-0.9v2.4c0,0.2,0,0.5,0.5,0.5c0.2,0,0.3,0,0.4,0v0.6
			c-0.1,0-0.4,0-0.6,0c-0.7,0-1-0.2-1-0.9v-2.7h-0.7V281.9z"/>
		<path class="st3" d="M90.7,284c0,0.8,0.3,1.4,1.2,1.4c0.5,0,0.9-0.3,0.9-0.8h0.8c0,0.2-0.1,0.5-0.3,0.8c-0.2,0.2-0.6,0.5-1.4,0.5
			c-1.3,0-1.9-0.8-1.9-2.1c0-0.8,0.2-1.4,0.8-1.9c0.4-0.3,0.9-0.3,1.1-0.3c1.8,0,1.8,1.6,1.7,2.2H90.7z M92.8,283.5
			c0-0.4-0.1-1.2-1-1.2c-0.5,0-1.1,0.3-1.1,1.2H92.8z"/>
		<path class="st3" d="M94.7,282.7c0-0.3,0-0.6,0-0.8h0.8l0,0.8c0.1-0.6,0.6-0.7,1-0.8c0.2,0,0.4,0,0.5,0v0.7c0,0-0.1,0-0.1,0
			c-0.1,0-0.1,0-0.2,0c-0.9,0-1.1,0.5-1.1,1.2v2.1h-0.8V282.7z"/>
		<path class="st3" d="M97.7,280.1h0.9v0.8h-0.9V280.1z M97.8,281.9h0.8v4h-0.8V281.9z"/>
		<path class="st3" d="M101.7,281.8c1.6,0,2,1.3,2,2.1c0,1.2-0.7,2.2-2,2.2c-1.3,0-2-0.9-2-2.1C99.7,282.9,100.2,281.8,101.7,281.8z
			 M101.7,285.5c0.6,0,1.2-0.4,1.2-1.6c0-1-0.5-1.5-1.2-1.5c-0.5,0-1.3,0.3-1.3,1.6C100.5,284.7,100.8,285.5,101.7,285.5z"/>
		<path class="st3" d="M105.6,281.9v2.6c0,0.4,0.1,0.9,0.9,0.9c0.4,0,0.7-0.1,0.9-0.4c0.2-0.2,0.2-0.6,0.2-0.8v-2.3h0.8v3.3
			c0,0.1,0,0.5,0,0.8h-0.8l0-0.7c-0.1,0.3-0.4,0.7-1.3,0.7c-1,0-1.5-0.6-1.5-1.4v-2.7H105.6z"/>
		<path class="st3" d="M110.2,284.7c0,0.3,0.2,0.7,0.9,0.7c0.3,0,0.5-0.1,0.7-0.3c0.1-0.1,0.1-0.2,0.1-0.4c0-0.4-0.3-0.5-0.9-0.6
			c-0.8-0.2-1.5-0.4-1.5-1.2c0-0.7,0.6-1.2,1.6-1.2c0.5,0,1.2,0.1,1.4,0.6c0.1,0.2,0.1,0.4,0.1,0.6h-0.8c0-0.6-0.5-0.7-0.8-0.7
			c-0.1,0-0.8,0-0.8,0.6c0,0.4,0.4,0.5,0.6,0.5c1.1,0.3,1.4,0.3,1.6,0.6c0.2,0.2,0.3,0.5,0.3,0.7c0,0.4-0.2,0.8-0.5,1
			c-0.4,0.2-0.8,0.3-1.2,0.3c-0.8,0-1.6-0.3-1.6-1.3H110.2z"/>
		<path class="st3" d="M116.4,284.7c0,0.3,0.2,0.7,0.9,0.7c0.3,0,0.5-0.1,0.7-0.3c0.1-0.1,0.1-0.2,0.1-0.4c0-0.4-0.3-0.5-0.9-0.6
			c-0.8-0.2-1.5-0.4-1.5-1.2c0-0.7,0.6-1.2,1.6-1.2c0.5,0,1.2,0.1,1.4,0.6c0.1,0.2,0.1,0.4,0.1,0.6h-0.8c0-0.6-0.5-0.7-0.8-0.7
			c-0.1,0-0.8,0-0.8,0.6c0,0.4,0.4,0.5,0.6,0.5c1.1,0.3,1.4,0.3,1.6,0.6c0.2,0.2,0.3,0.5,0.3,0.7c0,0.4-0.2,0.8-0.5,1
			c-0.4,0.2-0.8,0.3-1.2,0.3c-0.8,0-1.6-0.3-1.6-1.3H116.4z"/>
		<path class="st3" d="M119.4,281.9h0.7V281l0.7-0.2v1.1h0.9v0.6h-0.9v2.4c0,0.2,0,0.5,0.5,0.5c0.2,0,0.3,0,0.4,0v0.6
			c-0.1,0-0.4,0-0.6,0c-0.7,0-1-0.2-1-0.9v-2.7h-0.7V281.9z"/>
		<path class="st3" d="M124.4,281.8c1.6,0,2,1.3,2,2.1c0,1.2-0.7,2.2-2,2.2c-1.3,0-2-0.9-2-2.1C122.4,282.9,122.8,281.8,124.4,281.8
			z M124.3,285.5c0.6,0,1.2-0.4,1.2-1.6c0-1-0.5-1.5-1.2-1.5c-0.5,0-1.3,0.3-1.3,1.6C123.1,284.7,123.5,285.5,124.3,285.5z"/>
		<path class="st3" d="M127.6,282.7c0-0.3,0-0.6,0-0.8h0.8l0,0.8c0.1-0.6,0.6-0.7,1-0.8c0.2,0,0.4,0,0.5,0v0.7c0,0-0.1,0-0.1,0
			c-0.1,0-0.1,0-0.2,0c-0.9,0-1.1,0.5-1.1,1.2v2.1h-0.8V282.7z"/>
		<path class="st3" d="M130.6,280.1h0.9v0.8h-0.9V280.1z M130.7,281.9h0.8v4h-0.8V281.9z"/>
		<path class="st3" d="M133.3,284c0,0.8,0.3,1.4,1.2,1.4c0.5,0,0.9-0.3,0.9-0.8h0.8c0,0.2-0.1,0.5-0.3,0.8c-0.2,0.2-0.6,0.5-1.4,0.5
			c-1.3,0-1.9-0.8-1.9-2.1c0-0.8,0.2-1.4,0.8-1.9c0.4-0.3,0.9-0.3,1.1-0.3c1.8,0,1.8,1.6,1.7,2.2H133.3z M135.5,283.5
			c0-0.4-0.1-1.2-1-1.2c-0.5,0-1.1,0.3-1.1,1.2H135.5z"/>
		<path class="st3" d="M137.8,284.7c0,0.3,0.2,0.7,0.9,0.7c0.3,0,0.5-0.1,0.7-0.3c0.1-0.1,0.1-0.2,0.1-0.4c0-0.4-0.3-0.5-0.9-0.6
			c-0.8-0.2-1.5-0.4-1.5-1.2c0-0.7,0.6-1.2,1.6-1.2c0.5,0,1.2,0.1,1.4,0.6c0.1,0.2,0.1,0.4,0.1,0.6h-0.8c0-0.6-0.5-0.7-0.8-0.7
			c-0.1,0-0.8,0-0.8,0.6c0,0.4,0.4,0.5,0.6,0.5c1.1,0.3,1.4,0.3,1.6,0.6c0.2,0.2,0.3,0.5,0.3,0.7c0,0.4-0.2,0.8-0.5,1
			c-0.4,0.2-0.8,0.3-1.2,0.3c-0.8,0-1.6-0.3-1.6-1.3H137.8z"/>
	</g>
</g>
<g>
	<g id="r-magnify">
		<circle class="st13" cx="39.8" cy="207" r="25.1"/>
		<g>
			<g>
				<path class="st2" d="M45.2,228.4l-6.5-9.3c-0.6-0.9-0.4-2.1,0.5-2.7l0.2-0.1c0.9-0.6,2.1-0.4,2.7,0.5l6.5,9.3
					c0.6,0.9,0.4,2.1-0.5,2.7l-0.2,0.1C47,229.5,45.8,229.3,45.2,228.4z"/>
				<path class="st2" d="M38.1,216.5l-2.1-3.1c-0.3-0.4-0.2-1,0.2-1.3l0,0c0.4-0.3,1-0.2,1.3,0.2l2.1,3.1c0.3,0.4,0.2,1-0.2,1.3l0,0
					C38.9,217,38.4,216.9,38.1,216.5z"/>
				<ellipse transform="matrix(0.5 -0.866 0.866 0.5 -162.771 130.8521)" class="st24" cx="31.9" cy="206.4" rx="8.8" ry="8.8"/>
				<ellipse transform="matrix(0.5 -0.866 0.866 0.5 -162.771 130.8521)" class="st25" cx="31.9" cy="206.4" rx="8.2" ry="8.2"/>
			</g>
			<path class="st26" d="M42.6,186.6L42.6,186.6c-0.4-0.2-0.8,0-0.9,0.4l-4.5,10.2c-0.2,0.4,0,0.8,0.4,0.9h0c0.4,0.2,0.8,0,0.9-0.4
				l4.5-10.2C43.1,187.2,43,186.7,42.6,186.6z"/>
			<path class="st26" d="M37.1,184.8L37.1,184.8c-0.4-0.1-0.7,0.2-0.8,0.6l-2.1,10.9c-0.1,0.4,0.2,0.7,0.6,0.8l0,0
				c0.4,0.1,0.7-0.2,0.8-0.6l2.1-10.9C37.8,185.2,37.5,184.9,37.1,184.8z"/>
			<path class="st26" d="M52.7,200.9L52.7,200.9c0-0.4-0.4-0.7-0.7-0.7l-11.1,0.6c-0.4,0-0.7,0.4-0.7,0.7v0c0,0.4,0.4,0.7,0.7,0.7
				l11.1-0.6C52.4,201.6,52.7,201.3,52.7,200.9z"/>
			<path class="st26" d="M50.6,194.7L50.6,194.7c-0.1-0.4-0.6-0.5-0.9-0.4l-10.3,4.2c-0.4,0.1-0.5,0.6-0.4,0.9l0,0
				c0.1,0.4,0.6,0.5,0.9,0.4l10.3-4.2C50.6,195.5,50.8,195.1,50.6,194.7z"/>
		</g>
	</g>
	<g>
		<path class="st3" d="M74,192.3v-8.7h1.8v8.7H74z"/>
		<path class="st3" d="M77.4,192.3v-8.7h2.4l2.3,6h0v-6h1.7v8.7h-2.4l-2.4-6.3h0v6.3H77.4z"/>
		<path class="st3" d="M90.5,183.7v1.4h-2v7.2h-1.8v-7.2h-2v-1.4H90.5z"/>
		<path class="st3" d="M97.2,183.7v6.1c0,1.3-0.7,2.7-2.9,2.7c-2,0-3-1-3-2.7v-6.1h1.8v6c0,1.1,0.5,1.5,1.1,1.5
			c0.8,0,1.2-0.5,1.2-1.5v-6H97.2z"/>
		<path class="st3" d="M98.7,192.3v-8.7h1.8v8.7H98.7z"/>
		<path class="st3" d="M107.2,183.7v1.4h-2v7.2h-1.8v-7.2h-2v-1.4H107.2z"/>
		<path class="st3" d="M108,192.3v-8.7h1.8v8.7H108z"/>
		<path class="st3" d="M110.7,183.7h1.9l1.3,6.3h0l1.5-6.3h1.8l-2.3,8.7h-2.1L110.7,183.7z"/>
		<path class="st3" d="M118,192.3v-8.7h4.7v1.3h-2.9v2.1h2.7v1.3h-2.7v2.5h3v1.3H118z"/>
		<path class="st3" d="M74.6,200.3c0,0.4,0.1,1.1,1.4,1.1c1.2,0,1.4-0.7,1.4-1c0-0.6-0.5-0.8-1.3-1c-0.9-0.2-1.3-0.3-1.6-0.5
			c-0.5-0.3-0.6-0.8-0.6-1.1c0-1.2,1.1-1.7,2.2-1.7c0.4,0,1.2,0.1,1.6,0.6c0.3,0.4,0.3,0.7,0.4,1h-0.8c0-0.7-0.6-0.9-1.2-0.9
			c-0.8,0-1.3,0.4-1.3,0.9c0,0.5,0.3,0.7,1,0.9c1.4,0.4,1.5,0.4,1.9,0.6c0.5,0.4,0.6,0.9,0.6,1.2c0,1-0.8,1.8-2.3,1.8
			c-0.4,0-1.3-0.1-1.8-0.7c-0.3-0.4-0.3-0.9-0.3-1.2H74.6z"/>
		<path class="st3" d="M80.9,197.8c1.6,0,2,1.3,2,2.1c0,1.2-0.7,2.2-2,2.2c-1.3,0-2-0.9-2-2.1C78.9,199,79.3,197.8,80.9,197.8z
			 M80.9,201.5c0.6,0,1.2-0.4,1.2-1.6c0-1-0.5-1.5-1.2-1.5c-0.5,0-1.3,0.3-1.3,1.6C79.6,200.8,80,201.5,80.9,201.5z"/>
		<path class="st3" d="M84.1,196.2h0.8v5.8h-0.8V196.2z"/>
		<path class="st3" d="M85.7,197.9h0.8l1.3,3.2l1.2-3.2h0.8l-1.8,4h-0.8L85.7,197.9z"/>
		<path class="st3" d="M91.2,200.1c0,0.8,0.3,1.4,1.2,1.4c0.5,0,0.9-0.3,0.9-0.8H94c0,0.2-0.1,0.5-0.3,0.8c-0.2,0.2-0.6,0.5-1.4,0.5
			c-1.3,0-1.9-0.8-1.9-2.1c0-0.8,0.2-1.4,0.8-1.9c0.4-0.3,0.9-0.3,1.1-0.3c1.8,0,1.8,1.6,1.7,2.2H91.2z M93.3,199.6
			c0-0.4-0.1-1.2-1-1.2c-0.5,0-1.1,0.3-1.1,1.2H93.3z"/>
		<path class="st3" d="M95.6,200.8c0,0.3,0.2,0.7,0.9,0.7c0.3,0,0.5-0.1,0.7-0.3c0.1-0.1,0.1-0.2,0.1-0.4c0-0.4-0.3-0.5-0.9-0.6
			c-0.8-0.2-1.5-0.4-1.5-1.2c0-0.7,0.6-1.2,1.6-1.2c0.5,0,1.2,0.1,1.4,0.6c0.1,0.2,0.1,0.4,0.1,0.6h-0.8c0-0.6-0.5-0.7-0.8-0.7
			c-0.1,0-0.8,0-0.8,0.6c0,0.4,0.4,0.5,0.6,0.5c1.1,0.3,1.4,0.3,1.6,0.6c0.2,0.2,0.3,0.5,0.3,0.7c0,0.4-0.2,0.8-0.5,1
			c-0.4,0.2-0.8,0.3-1.2,0.3c-0.8,0-1.6-0.3-1.6-1.3H95.6z"/>
		<path class="st3" d="M101.4,198.6c0-0.2,0-0.3,0-0.7h0.8l0,0.7c0.4-0.6,1-0.7,1.4-0.7c0.9,0,1.7,0.6,1.7,2.1
			c0,1.5-0.9,2.2-1.8,2.2c-0.6,0-1-0.2-1.2-0.6v2h-0.7V198.6z M103.2,201.5c0.2,0,0.6,0,0.8-0.4c0.3-0.4,0.3-1,0.3-1.3
			c0-0.7-0.2-1.5-1.1-1.5c-1.2,0-1.2,1.3-1.2,1.6C102.1,200.5,102.2,201.5,103.2,201.5z"/>
		<path class="st3" d="M106.3,198.8c0-0.3,0-0.6,0-0.8h0.8l0,0.8c0.1-0.6,0.6-0.7,1-0.8c0.2,0,0.4,0,0.5,0v0.7c0,0-0.1,0-0.1,0
			c-0.1,0-0.1,0-0.2,0c-0.9,0-1.1,0.5-1.1,1.2v2.1h-0.8V198.8z"/>
		<path class="st3" d="M111.1,197.8c1.6,0,2,1.3,2,2.1c0,1.2-0.7,2.2-2,2.2c-1.3,0-2-0.9-2-2.1C109.1,199,109.6,197.8,111.1,197.8z
			 M111.1,201.5c0.6,0,1.2-0.4,1.2-1.6c0-1-0.5-1.5-1.2-1.5c-0.5,0-1.3,0.3-1.3,1.6C109.9,200.8,110.2,201.5,111.1,201.5z"/>
		<path class="st3" d="M115,198.5c0.1-0.2,0.4-0.7,1.3-0.7c0.4,0,0.9,0.1,1.3,0.5c0.2,0.2,0.5,0.6,0.5,1.5c0,0.8-0.2,1.2-0.4,1.5
			c-0.3,0.5-0.9,0.7-1.4,0.7c-0.2,0-0.6,0-0.9-0.3c-0.2-0.2-0.3-0.3-0.4-0.4l0,0.6h-0.7l0-0.7v-5.1h0.8V198.5z M116.2,198.3
			c-1.2,0-1.2,1.3-1.2,1.6c0,0.3,0,1.5,1.1,1.5c0.9,0,1.2-0.9,1.2-1.6C117.3,199.5,117.2,198.3,116.2,198.3z"/>
		<path class="st3" d="M119.2,196.2h0.8v5.8h-0.8V196.2z"/>
		<path class="st3" d="M121.8,200.1c0,0.8,0.3,1.4,1.2,1.4c0.5,0,0.9-0.3,0.9-0.8h0.8c0,0.2-0.1,0.5-0.3,0.8
			c-0.2,0.2-0.6,0.5-1.4,0.5c-1.3,0-1.9-0.8-1.9-2.1c0-0.8,0.2-1.4,0.8-1.9c0.4-0.3,0.9-0.3,1.1-0.3c1.8,0,1.8,1.6,1.7,2.2H121.8z
			 M124,199.6c0-0.4-0.1-1.2-1-1.2c-0.5,0-1.1,0.3-1.1,1.2H124z"/>
		<path class="st3" d="M125.8,198.5l0-0.5h0.8v0.6c0.4-0.6,0.9-0.7,1.3-0.7c0.9,0,1.2,0.5,1.3,0.8c0.1-0.2,0.5-0.8,1.4-0.8
			c0.6,0,1.5,0.2,1.5,1.4v2.7h-0.8v-2.6c0-0.4-0.1-0.5-0.1-0.6c-0.1-0.2-0.4-0.4-0.8-0.4c-0.5,0-0.8,0.3-0.9,0.4
			c-0.2,0.2-0.2,0.7-0.2,0.9v2.2h-0.8v-2.7c0-0.5-0.3-0.9-0.9-0.9c-0.5,0-0.8,0.3-0.9,0.4c-0.2,0.2-0.2,0.6-0.2,0.8v2.3h-0.8V198.5z
			"/>
		<path class="st3" d="M133.8,200.8c0,0.3,0.2,0.7,0.9,0.7c0.3,0,0.5-0.1,0.7-0.3c0.1-0.1,0.1-0.2,0.1-0.4c0-0.4-0.3-0.5-0.9-0.6
			c-0.8-0.2-1.5-0.4-1.5-1.2c0-0.7,0.6-1.2,1.6-1.2c0.5,0,1.2,0.1,1.4,0.6c0.1,0.2,0.1,0.4,0.1,0.6h-0.8c0-0.6-0.5-0.7-0.8-0.7
			c-0.1,0-0.8,0-0.8,0.6c0,0.4,0.4,0.5,0.6,0.5c1.1,0.3,1.4,0.3,1.6,0.6c0.2,0.2,0.3,0.5,0.3,0.7c0,0.4-0.2,0.8-0.5,1
			c-0.4,0.2-0.8,0.3-1.2,0.3c-0.8,0-1.6-0.3-1.6-1.3H133.8z"/>
		<path class="st3" d="M73.9,205.8h0.9v0.8h-0.9V205.8z M74,207.5h0.8v4H74V207.5z"/>
		<path class="st3" d="M76.2,208l0-0.5H77l0,0.6c0.1-0.2,0.4-0.7,1.3-0.7c0.4,0,1.5,0.1,1.5,1.4v2.7H79V209c0-0.3,0-0.5-0.2-0.7
			c-0.2-0.2-0.5-0.3-0.7-0.3c-0.5,0-1,0.4-1,1.2v2.3h-0.8V208z"/>
		<path class="st3" d="M80.5,207.5h0.7v-0.8l0.7-0.2v1.1h0.9v0.6h-0.9v2.4c0,0.2,0,0.5,0.5,0.5c0.2,0,0.3,0,0.4,0v0.6
			c-0.1,0-0.4,0-0.6,0c-0.7,0-1-0.2-1-0.9v-2.7h-0.7V207.5z"/>
		<path class="st3" d="M84.4,207.5v2.6c0,0.4,0.1,0.9,0.9,0.9c0.4,0,0.7-0.1,0.9-0.4c0.2-0.2,0.2-0.6,0.2-0.8v-2.3h0.8v3.3
			c0,0.1,0,0.5,0,0.8h-0.8l0-0.7c-0.1,0.3-0.4,0.7-1.3,0.7c-1,0-1.5-0.6-1.5-1.4v-2.7H84.4z"/>
		<path class="st3" d="M88.6,205.8h0.9v0.8h-0.9V205.8z M88.7,207.5h0.8v4h-0.8V207.5z"/>
		<path class="st3" d="M90.3,207.5H91v-0.8l0.7-0.2v1.1h0.9v0.6h-0.9v2.4c0,0.2,0,0.5,0.5,0.5c0.2,0,0.3,0,0.4,0v0.6
			c-0.1,0-0.4,0-0.6,0c-0.7,0-1-0.2-1-0.9v-2.7h-0.7V207.5z"/>
		<path class="st3" d="M93.5,205.8h0.9v0.8h-0.9V205.8z M93.5,207.5h0.8v4h-0.8V207.5z"/>
		<path class="st3" d="M95.3,207.5h0.8l1.3,3.2l1.2-3.2h0.8l-1.8,4H97L95.3,207.5z"/>
		<path class="st3" d="M100.8,209.7c0,0.8,0.3,1.4,1.2,1.4c0.5,0,0.9-0.3,0.9-0.8h0.8c0,0.2-0.1,0.5-0.3,0.8
			c-0.2,0.2-0.6,0.5-1.4,0.5c-1.3,0-1.9-0.8-1.9-2.1c0-0.8,0.2-1.4,0.8-1.9c0.4-0.3,0.9-0.3,1.1-0.3c1.8,0,1.8,1.6,1.7,2.2H100.8z
			 M102.9,209.1c0-0.4-0.1-1.2-1-1.2c-0.5,0-1.1,0.3-1.1,1.2H102.9z"/>
		<path class="st3" d="M104.8,205.8h0.8v5.8h-0.8V205.8z"/>
		<path class="st3" d="M108.8,211.6l-0.6,1.5h-0.8l0.6-1.5l-1.7-4h0.8l1.3,3.2l1.3-3.2h0.8L108.8,211.6z"/>
		<path class="st3" d="M116.2,211.5c-0.1-0.2-0.1-0.4-0.1-0.6c-0.4,0.7-0.9,0.7-1.2,0.7c-0.9,0-1.4-0.5-1.4-1.2
			c0-0.3,0.1-0.8,0.7-1.2c0.4-0.2,1.1-0.3,1.4-0.3c0.2,0,0.3,0,0.5,0c0-0.5,0-0.7-0.1-0.9c-0.2-0.2-0.5-0.3-0.7-0.3
			c-0.8,0-0.8,0.5-0.8,0.7h-0.8c0-0.2,0-0.5,0.3-0.8c0.3-0.3,0.9-0.4,1.3-0.4c0.6,0,1.2,0.2,1.4,0.6c0.1,0.2,0.1,0.4,0.1,0.6l0,1.9
			c0,0.1,0,0.6,0.1,1H116.2z M115.6,209.6c-0.3,0-1.4,0-1.4,0.8c0,0.3,0.2,0.7,0.8,0.7c0.4,0,0.7-0.2,0.9-0.4
			c0.2-0.3,0.2-0.5,0.2-1.1C115.9,209.6,115.8,209.6,115.6,209.6z"/>
		<path class="st3" d="M118.2,208l0-0.5h0.8l0,0.6c0.1-0.2,0.4-0.7,1.3-0.7c0.4,0,1.5,0.1,1.5,1.4v2.7h-0.8V209c0-0.3,0-0.5-0.2-0.7
			c-0.2-0.2-0.5-0.3-0.7-0.3c-0.5,0-1,0.4-1,1.2v2.3h-0.8V208z"/>
		<path class="st3" d="M125.8,205.8h0.8v5.1c0,0.1,0,0.4,0,0.6h-0.8l0-0.6c-0.1,0.1-0.2,0.3-0.4,0.4c-0.3,0.2-0.7,0.3-1,0.3
			c-0.5,0-1.7-0.3-1.7-2c0-1.5,0.9-2.2,1.8-2.2c0.9,0,1.2,0.5,1.2,0.7V205.8z M125.5,208.4c-0.2-0.2-0.5-0.4-0.9-0.4
			c-1.1,0-1.1,1.3-1.1,1.6c0,0.7,0.2,1.5,1.1,1.5c1.2,0,1.2-1.3,1.2-1.6C125.8,208.9,125.7,208.6,125.5,208.4z"/>
		<path class="st3" d="M76.8,215.4h0.8v5.1c0,0.1,0,0.4,0,0.6h-0.8l0-0.6c-0.1,0.1-0.2,0.3-0.4,0.4c-0.3,0.2-0.7,0.3-1,0.3
			c-0.5,0-1.7-0.3-1.7-2c0-1.5,0.9-2.2,1.8-2.2c0.9,0,1.2,0.5,1.2,0.7V215.4z M76.5,218c-0.2-0.2-0.5-0.4-0.9-0.4
			c-1.1,0-1.1,1.3-1.1,1.6c0,0.7,0.2,1.5,1.1,1.5c1.2,0,1.2-1.3,1.2-1.6C76.8,218.5,76.7,218.2,76.5,218z"/>
		<path class="st3" d="M80.6,217c1.6,0,2,1.3,2,2.1c0,1.2-0.7,2.2-2,2.2c-1.3,0-2-0.9-2-2.1C78.6,218.2,79,217,80.6,217z
			 M80.6,220.7c0.6,0,1.2-0.4,1.2-1.6c0-1-0.5-1.5-1.2-1.5c-0.5,0-1.3,0.3-1.3,1.6C79.4,220,79.7,220.7,80.6,220.7z"/>
		<path class="st3" d="M84.2,219.3c0,0.8,0.3,1.4,1.2,1.4c0.5,0,0.9-0.3,0.9-0.8h0.8c0,0.2-0.1,0.5-0.3,0.8
			c-0.2,0.2-0.6,0.5-1.4,0.5c-1.3,0-1.9-0.8-1.9-2.1c0-0.8,0.2-1.4,0.8-1.9c0.4-0.3,0.9-0.3,1.1-0.3c1.8,0,1.8,1.6,1.7,2.2H84.2z
			 M86.3,218.7c0-0.4-0.1-1.2-1-1.2c-0.5,0-1.1,0.3-1.1,1.2H86.3z"/>
		<path class="st3" d="M88.6,220c0,0.3,0.2,0.7,0.9,0.7c0.3,0,0.5-0.1,0.7-0.3c0.1-0.1,0.1-0.2,0.1-0.4c0-0.4-0.3-0.5-0.9-0.6
			c-0.8-0.2-1.5-0.4-1.5-1.2c0-0.7,0.6-1.2,1.6-1.2c0.5,0,1.2,0.1,1.4,0.6c0.1,0.2,0.1,0.4,0.1,0.6h-0.8c0-0.6-0.5-0.7-0.8-0.7
			c-0.1,0-0.8,0-0.8,0.6c0,0.4,0.4,0.5,0.6,0.5c1.1,0.3,1.4,0.3,1.6,0.6c0.2,0.2,0.3,0.5,0.3,0.7c0,0.4-0.2,0.8-0.5,1
			c-0.4,0.2-0.8,0.3-1.2,0.3c-0.8,0-1.6-0.3-1.6-1.3H88.6z"/>
		<path class="st3" d="M92.2,217.6l0-0.5H93l0,0.6c0.1-0.2,0.4-0.7,1.3-0.7c0.4,0,1.5,0.1,1.5,1.4v2.7H95v-2.6c0-0.3,0-0.5-0.2-0.7
			c-0.2-0.2-0.5-0.3-0.7-0.3c-0.5,0-1,0.4-1,1.2v2.3h-0.8V217.6z"/>
		<path class="st3" d="M98,215.4l-0.9,2h-0.5l0.5-2H98z"/>
		<path class="st3" d="M98.7,217.1h0.7v-0.8l0.7-0.2v1.1h0.9v0.6h-0.9v2.4c0,0.2,0,0.5,0.5,0.5c0.2,0,0.3,0,0.4,0v0.6
			c-0.1,0-0.4,0-0.6,0c-0.7,0-1-0.2-1-0.9v-2.7h-0.7V217.1z"/>
		<path class="st3" d="M104.2,215.4h0.8v5.8h-0.8V215.4z"/>
		<path class="st3" d="M106.4,215.4h0.9v0.8h-0.9V215.4z M106.4,217.1h0.8v4h-0.8V217.1z"/>
		<path class="st3" d="M108.6,215.3h0.7v3.4l1.5-1.6h1l-1.7,1.7l1.8,2.3h-1l-1.6-2.2v2.2h-0.7V215.3z"/>
		<path class="st3" d="M113.3,219.3c0,0.8,0.3,1.4,1.2,1.4c0.5,0,0.9-0.3,0.9-0.8h0.8c0,0.2-0.1,0.5-0.3,0.8
			c-0.2,0.2-0.6,0.5-1.4,0.5c-1.3,0-1.9-0.8-1.9-2.1c0-0.8,0.2-1.4,0.8-1.9c0.4-0.3,0.9-0.3,1.1-0.3c1.8,0,1.8,1.6,1.7,2.2H113.3z
			 M115.4,218.7c0-0.4-0.1-1.2-1-1.2c-0.5,0-1.1,0.3-1.1,1.2H115.4z"/>
		<path class="st3" d="M119.5,218c0-0.3,0-0.6,0-0.8h0.8l0,0.8c0.1-0.6,0.6-0.7,1-0.8c0.2,0,0.4,0,0.5,0v0.7c0,0-0.1,0-0.1,0
			c-0.1,0-0.1,0-0.2,0c-0.9,0-1.1,0.5-1.1,1.2v2.1h-0.8V218z"/>
		<path class="st3" d="M123.1,219.3c0,0.8,0.3,1.4,1.2,1.4c0.5,0,0.9-0.3,0.9-0.8h0.8c0,0.2-0.1,0.5-0.3,0.8
			c-0.2,0.2-0.6,0.5-1.4,0.5c-1.3,0-1.9-0.8-1.9-2.1c0-0.8,0.2-1.4,0.8-1.9c0.4-0.3,0.9-0.3,1.1-0.3c1.8,0,1.8,1.6,1.7,2.2H123.1z
			 M125.2,218.7c0-0.4-0.1-1.2-1-1.2c-0.5,0-1.1,0.3-1.1,1.2H125.2z"/>
		<path class="st3" d="M129.5,221.1c-0.1-0.2-0.1-0.4-0.1-0.6c-0.4,0.7-0.9,0.7-1.2,0.7c-0.9,0-1.4-0.5-1.4-1.2
			c0-0.3,0.1-0.8,0.7-1.2c0.4-0.2,1.1-0.3,1.4-0.3c0.2,0,0.3,0,0.5,0c0-0.5,0-0.7-0.1-0.9c-0.2-0.2-0.5-0.3-0.7-0.3
			c-0.8,0-0.8,0.5-0.8,0.7H127c0-0.2,0-0.5,0.3-0.8c0.3-0.3,0.9-0.4,1.3-0.4c0.6,0,1.2,0.2,1.4,0.6c0.1,0.2,0.1,0.4,0.1,0.6l0,1.9
			c0,0.1,0,0.6,0.1,1H129.5z M129,219.2c-0.3,0-1.4,0-1.4,0.8c0,0.3,0.2,0.7,0.8,0.7c0.4,0,0.7-0.2,0.9-0.4c0.2-0.3,0.2-0.5,0.2-1.1
			C129.3,219.2,129.2,219.2,129,219.2z"/>
		<path class="st3" d="M134.3,215.4h0.8v5.1c0,0.1,0,0.4,0,0.6h-0.8l0-0.6c-0.1,0.1-0.2,0.3-0.4,0.4c-0.3,0.2-0.7,0.3-1,0.3
			c-0.5,0-1.7-0.3-1.7-2c0-1.5,0.9-2.2,1.8-2.2c0.9,0,1.2,0.5,1.2,0.7V215.4z M134,218c-0.2-0.2-0.5-0.4-0.9-0.4
			c-1.1,0-1.1,1.3-1.1,1.6c0,0.7,0.2,1.5,1.1,1.5c1.2,0,1.2-1.3,1.2-1.6C134.3,218.5,134.2,218.2,134,218z"/>
		<path class="st3" d="M136.3,215.4h0.9v0.8h-0.9V215.4z M136.4,217.1h0.8v4h-0.8V217.1z"/>
		<path class="st3" d="M138.6,217.6l0-0.5h0.8l0,0.6c0.1-0.2,0.4-0.7,1.3-0.7c0.4,0,1.5,0.1,1.5,1.4v2.7h-0.8v-2.6
			c0-0.3,0-0.5-0.2-0.7c-0.2-0.2-0.5-0.3-0.7-0.3c-0.5,0-1,0.4-1,1.2v2.3h-0.8V217.6z"/>
		<path class="st3" d="M144.2,221.5c0,0.4,0.2,0.8,0.9,0.8c1,0,1.1-0.8,1.1-1.8c-0.3,0.7-1.1,0.7-1.3,0.7c-0.4,0-0.9-0.1-1.2-0.5
			c-0.3-0.4-0.5-0.9-0.5-1.5c0-1.4,0.8-2,1.8-2c0.8,0,1.1,0.4,1.3,0.6l0-0.6h0.7l0,0.7l0,2.5c0,1,0,1.4-0.2,1.7
			c-0.3,0.6-1.1,0.7-1.7,0.7c-1.6,0-1.7-0.8-1.7-1.3H144.2z M146,220.1c0.2-0.2,0.3-0.4,0.3-1.2c0-0.5-0.1-0.8-0.3-1
			c-0.2-0.2-0.5-0.4-0.9-0.4c-1,0-1.1,1-1.1,1.5c0,0.6,0.2,1.4,1.1,1.4C145.5,220.5,145.8,220.4,146,220.1z"/>
		<path class="st3" d="M76.8,225h0.8v5.1c0,0.1,0,0.4,0,0.6h-0.8l0-0.6c-0.1,0.1-0.2,0.3-0.4,0.4c-0.3,0.2-0.7,0.3-1,0.3
			c-0.5,0-1.7-0.3-1.7-2c0-1.5,0.9-2.2,1.8-2.2c0.9,0,1.2,0.5,1.2,0.7V225z M76.5,227.6c-0.2-0.2-0.5-0.4-0.9-0.4
			c-1.1,0-1.1,1.3-1.1,1.6c0,0.7,0.2,1.5,1.1,1.5c1.2,0,1.2-1.3,1.2-1.6C76.8,228.1,76.7,227.8,76.5,227.6z"/>
		<path class="st3" d="M78.8,225h0.9v0.8h-0.9V225z M78.9,226.7h0.8v4h-0.8V226.7z"/>
		<path class="st3" d="M81.1,227.6c0-0.3,0-0.6,0-0.8h0.8l0,0.8c0.1-0.6,0.6-0.7,1-0.8c0.2,0,0.4,0,0.5,0v0.7c0,0-0.1,0-0.1,0
			c-0.1,0-0.1,0-0.2,0c-0.9,0-1.1,0.5-1.1,1.2v2.1h-0.8V227.6z"/>
		<path class="st3" d="M84.7,228.9c0,0.8,0.3,1.4,1.2,1.4c0.5,0,0.9-0.3,0.9-0.8h0.8c0,0.2-0.1,0.5-0.3,0.8
			c-0.2,0.2-0.6,0.5-1.4,0.5c-1.3,0-1.9-0.8-1.9-2.1c0-0.8,0.2-1.4,0.8-1.9c0.4-0.3,0.9-0.3,1.1-0.3c1.8,0,1.8,1.6,1.7,2.2H84.7z
			 M86.8,228.3c0-0.4-0.1-1.2-1-1.2c-0.5,0-1.1,0.3-1.1,1.2H86.8z"/>
		<path class="st3" d="M90.9,228c0-0.2-0.1-0.8-0.8-0.8c-1,0-1,1.2-1,1.5c0,0.8,0.2,1.6,1,1.6c0.6,0,0.9-0.5,0.9-0.9h0.8
			c0,0.8-0.6,1.4-1.6,1.4c-0.3,0-0.9-0.1-1.3-0.5c-0.2-0.3-0.5-0.7-0.5-1.5c0-1.7,1-2.2,1.8-2.2c0.3,0,0.9,0.1,1.2,0.5
			c0.3,0.3,0.3,0.7,0.3,0.9H90.9z"/>
		<path class="st3" d="M92,226.7h0.7v-0.8l0.7-0.2v1.1h0.9v0.6h-0.9v2.4c0,0.2,0,0.5,0.5,0.5c0.2,0,0.3,0,0.4,0v0.6
			c-0.1,0-0.4,0-0.6,0c-0.7,0-1-0.2-1-0.9v-2.7H92V226.7z"/>
		<path class="st3" d="M95.2,225h0.9v0.8h-0.9V225z M95.3,226.7h0.8v4h-0.8V226.7z"/>
		<path class="st3" d="M99.3,226.6c1.6,0,2,1.3,2,2.1c0,1.2-0.7,2.2-2,2.2c-1.3,0-2-0.9-2-2.1C97.2,227.8,97.7,226.6,99.3,226.6z
			 M99.2,230.3c0.6,0,1.2-0.4,1.2-1.6c0-1-0.5-1.5-1.2-1.5c-0.5,0-1.3,0.3-1.3,1.6C98,229.6,98.4,230.3,99.2,230.3z"/>
		<path class="st3" d="M102.5,227.2l0-0.5h0.8l0,0.6c0.1-0.2,0.4-0.7,1.3-0.7c0.4,0,1.5,0.1,1.5,1.4v2.7h-0.8v-2.6
			c0-0.3,0-0.5-0.2-0.7c-0.2-0.2-0.5-0.3-0.7-0.3c-0.5,0-1,0.4-1,1.2v2.3h-0.8V227.2z"/>
		<path class="st3" d="M107.7,229.6c0,0.3,0.2,0.7,0.9,0.7c0.3,0,0.5-0.1,0.7-0.3c0.1-0.1,0.1-0.2,0.1-0.4c0-0.4-0.3-0.5-0.9-0.6
			c-0.8-0.2-1.5-0.4-1.5-1.2c0-0.7,0.6-1.2,1.6-1.2c0.5,0,1.2,0.1,1.4,0.6c0.1,0.2,0.1,0.4,0.1,0.6h-0.8c0-0.6-0.5-0.7-0.8-0.7
			c-0.1,0-0.8,0-0.8,0.6c0,0.4,0.4,0.5,0.6,0.5c1.1,0.3,1.4,0.3,1.6,0.6c0.2,0.2,0.3,0.5,0.3,0.7c0,0.4-0.2,0.8-0.5,1
			c-0.4,0.2-0.8,0.3-1.2,0.3c-0.8,0-1.6-0.3-1.6-1.3H107.7z"/>
	</g>
</g>
<g>
	<g id="r-clock">
		<g>
			<circle class="st2" cx="40.7" cy="36.1" r="14.2"/>
			<circle class="st27" cx="40.7" cy="36.1" r="13.4"/>
			<path class="st2" d="M40.9,26.6L40.9,26.6c-0.2,0-0.4-0.2-0.4-0.4v-2.4c0-0.2,0.2-0.4,0.4-0.4l0,0c0.2,0,0.4,0.2,0.4,0.4v2.4
				C41.4,26.4,41.2,26.6,40.9,26.6z"/>
			<path class="st2" d="M40.9,48.8L40.9,48.8c-0.2,0-0.4-0.2-0.4-0.4V46c0-0.2,0.2-0.4,0.4-0.4l0,0c0.2,0,0.4,0.2,0.4,0.4v2.4
				C41.4,48.6,41.2,48.8,40.9,48.8z"/>
			<path class="st2" d="M28.1,36.1L28.1,36.1c0-0.2,0.2-0.4,0.4-0.4h2.4c0.2,0,0.4,0.2,0.4,0.4l0,0c0,0.2-0.2,0.4-0.4,0.4h-2.4
				C28.3,36.5,28.1,36.3,28.1,36.1z"/>
			<path class="st2" d="M49.9,36.1L49.9,36.1c0-0.2,0.2-0.4,0.4-0.4h2.4c0.2,0,0.4,0.2,0.4,0.4l0,0c0,0.2-0.2,0.4-0.4,0.4h-2.4
				C50.1,36.5,49.9,36.3,49.9,36.1z"/>
			<g>
				<g>
					<line class="st28" x1="40.9" y1="28.3" x2="40.9" y2="36.1"/>
					<g>
						<polygon class="st2" points="40.9,28 40.7,28.5 40.9,28.4 41.2,28.5 						"/>
					</g>
				</g>
			</g>
			<g>
				<g>
					<line class="st28" x1="40.9" y1="36.1" x2="47.5" y2="36.1"/>
					<g>
						<polygon class="st2" points="47.9,36.1 47.4,36.3 47.5,36.1 47.4,35.9 						"/>
					</g>
				</g>
			</g>
			<g>
				<g>
					<line class="st28" x1="40.9" y1="36.1" x2="35.8" y2="41.2"/>
					<g>
						<polygon class="st2" points="35.5,41.5 35.7,41 35.8,41.2 36,41.3 						"/>
					</g>
				</g>
			</g>
			<g>
				<g>
					<line class="st28" x1="40.9" y1="36.1" x2="36.8" y2="31.9"/>
					<g>
						<polygon class="st2" points="36.5,31.6 37,31.9 36.8,31.9 36.7,32.2 						"/>
					</g>
				</g>
			</g>
			<g>
				<g>
					<line class="st28" x1="40.9" y1="36.1" x2="45.8" y2="41"/>
					<g>
						<polygon class="st2" points="46.1,41.2 45.6,41 45.8,40.9 45.9,40.7 						"/>
					</g>
				</g>
			</g>
			<g>
				<g>
					<line class="st28" x1="40.9" y1="36.1" x2="34.8" y2="36.1"/>
					<g>
						<polygon class="st2" points="34.4,36.1 34.9,35.9 34.8,36.1 34.9,36.3 						"/>
					</g>
				</g>
			</g>
		</g>
		<circle class="st13" cx="40.5" cy="36.1" r="25.1"/>
	</g>
	<g>
		<path class="st3" d="M72.1,24.9v-8.7h1.8v8.7H72.1z"/>
		<path class="st3" d="M75.4,24.9v-8.7h2.9l1.4,5.9h0l1.4-5.9H84v8.7h-1.8v-6.7h0l-1.7,6.7h-1.7l-1.6-6.7h0v6.7H75.4z"/>
		<path class="st3" d="M85.5,16.3h3.3c1.7,0,2.3,1,2.3,2.6c0,1-0.3,2.5-2.4,2.5h-1.3v3.5h-1.8V16.3z M87.3,20.1h1
			c0.5,0,0.9-0.6,0.9-1.2c0-0.7-0.2-1.3-1-1.3h-0.9V20.1z"/>
		<path class="st3" d="M98,16.3v6.1c0,1.3-0.7,2.7-2.9,2.7c-2,0-3-1-3-2.7v-6.1h1.8v6c0,1.1,0.5,1.5,1.1,1.5c0.8,0,1.2-0.5,1.2-1.5
			v-6H98z"/>
		<path class="st3" d="M99.5,24.9v-8.7h1.8v7.2h2.7v1.4H99.5z"/>
		<path class="st3" d="M107.1,25.1c-2.2,0-2.7-1.3-2.6-2.8h1.8c0,0.8,0,1.5,1,1.5c0.6,0,0.9-0.4,0.9-1c0-1.6-3.6-1.7-3.6-4.2
			c0-1.4,0.6-2.4,2.9-2.4c1.8,0,2.6,0.8,2.5,2.6h-1.8c0-0.6-0.1-1.3-0.8-1.3c-0.6,0-0.9,0.3-0.9,0.9c0,1.6,3.6,1.5,3.6,4.2
			C110.2,24.8,108.5,25.1,107.1,25.1z"/>
		<path class="st3" d="M111.4,24.9v-8.7h1.8v8.7H111.4z"/>
		<path class="st3" d="M114.1,16.3h1.9l1.3,6.3h0l1.5-6.3h1.8l-2.3,8.7h-2.1L114.1,16.3z"/>
		<path class="st3" d="M121.5,24.9v-8.7h4.7v1.3h-2.9v2.1h2.7v1.3h-2.7v2.5h3v1.3H121.5z"/>
		<path class="st3" d="M73.5,34.5v-5.1h-1.9v-0.7h4.7v0.7h-1.9v5.1H73.5z"/>
		<path class="st3" d="M76.9,28.8h0.8v2.3c0.2-0.4,0.7-0.7,1.3-0.7c0.4,0,1,0.2,1.3,0.6c0.1,0.2,0.1,0.4,0.1,0.9v2.5h-0.8v-2.4
			c0-0.4,0-1.1-0.9-1.1c-0.6,0-0.8,0.3-0.9,0.5c-0.1,0.2-0.1,0.6-0.1,0.8v2.1h-0.8V28.8z"/>
		<path class="st3" d="M81.8,28.8h0.9v0.8h-0.9V28.8z M81.8,30.5h0.8v4h-0.8V30.5z"/>
		<path class="st3" d="M84.1,31l0-0.5h0.8l0,0.6c0.1-0.2,0.4-0.7,1.3-0.7c0.4,0,1.5,0.1,1.5,1.4v2.7h-0.8V32c0-0.3,0-0.5-0.2-0.7
			c-0.2-0.2-0.5-0.3-0.7-0.3c-0.5,0-1,0.4-1,1.2v2.3h-0.8V31z"/>
		<path class="st3" d="M89.7,34.9c0,0.4,0.2,0.8,0.9,0.8c1,0,1.1-0.8,1.1-1.8c-0.3,0.7-1.1,0.7-1.3,0.7c-0.4,0-0.9-0.1-1.2-0.5
			c-0.3-0.4-0.5-0.9-0.5-1.5c0-1.4,0.8-2,1.8-2c0.8,0,1.1,0.4,1.3,0.6l0-0.6h0.7l0,0.7l0,2.5c0,1,0,1.4-0.2,1.7
			c-0.3,0.6-1.1,0.7-1.7,0.7c-1.6,0-1.7-0.8-1.7-1.3H89.7z M91.4,33.5c0.2-0.2,0.3-0.4,0.3-1.2c0-0.5-0.1-0.8-0.3-1
			c-0.2-0.2-0.5-0.4-0.9-0.4c-1,0-1.1,1-1.1,1.5c0,0.6,0.2,1.4,1.1,1.4C91,33.9,91.2,33.8,91.4,33.5z"/>
		<path class="st3" d="M94.3,33.4c0,0.3,0.2,0.7,0.9,0.7c0.3,0,0.5-0.1,0.7-0.3c0.1-0.1,0.1-0.2,0.1-0.4c0-0.4-0.3-0.5-0.9-0.6
			c-0.8-0.2-1.5-0.4-1.5-1.2c0-0.7,0.6-1.2,1.6-1.2c0.5,0,1.2,0.1,1.4,0.6c0.1,0.2,0.1,0.4,0.1,0.6h-0.8c0-0.6-0.5-0.7-0.8-0.7
			c-0.1,0-0.8,0-0.8,0.6c0,0.4,0.4,0.5,0.6,0.5c1.1,0.3,1.4,0.3,1.6,0.6c0.2,0.2,0.3,0.5,0.3,0.7c0,0.4-0.2,0.8-0.5,1
			c-0.4,0.2-0.8,0.3-1.2,0.3c-0.8,0-1.6-0.3-1.6-1.3H94.3z"/>
		<path class="st3" d="M102.5,34.5c-0.1-0.2-0.1-0.4-0.1-0.6c-0.4,0.7-0.9,0.7-1.2,0.7c-0.9,0-1.4-0.5-1.4-1.2
			c0-0.3,0.1-0.8,0.7-1.2c0.4-0.2,1.1-0.3,1.4-0.3c0.2,0,0.3,0,0.5,0c0-0.5,0-0.7-0.1-0.9c-0.2-0.2-0.5-0.3-0.7-0.3
			c-0.8,0-0.8,0.5-0.8,0.7H100c0-0.2,0-0.5,0.3-0.8c0.3-0.3,0.9-0.4,1.3-0.4c0.6,0,1.2,0.2,1.4,0.6c0.1,0.2,0.1,0.4,0.1,0.6l0,1.9
			c0,0.1,0,0.6,0.1,1H102.5z M102,32.6c-0.3,0-1.4,0-1.4,0.8c0,0.3,0.2,0.7,0.8,0.7c0.4,0,0.7-0.2,0.9-0.4c0.2-0.3,0.2-0.5,0.2-1.1
			C102.3,32.6,102.2,32.6,102,32.6z"/>
		<path class="st3" d="M104.5,31.3c0-0.3,0-0.6,0-0.8h0.8l0,0.8c0.1-0.6,0.6-0.7,1-0.8c0.2,0,0.4,0,0.5,0v0.7c0,0-0.1,0-0.1,0
			c-0.1,0-0.1,0-0.2,0c-0.9,0-1.1,0.5-1.1,1.2v2.1h-0.8V31.3z"/>
		<path class="st3" d="M108.1,32.7c0,0.8,0.3,1.4,1.2,1.4c0.5,0,0.9-0.3,0.9-0.8h0.8c0,0.2-0.1,0.5-0.3,0.8
			c-0.2,0.2-0.6,0.5-1.4,0.5c-1.3,0-1.9-0.8-1.9-2.1c0-0.8,0.2-1.4,0.8-1.9c0.4-0.3,0.9-0.3,1.1-0.3c1.8,0,1.8,1.6,1.7,2.2H108.1z
			 M110.2,32.1c0-0.4-0.1-1.2-1-1.2c-0.5,0-1.1,0.3-1.1,1.2H110.2z"/>
		<path class="st3" d="M117.1,28.8h0.8v5.1c0,0.1,0,0.4,0,0.6h-0.8l0-0.6c-0.1,0.1-0.2,0.3-0.4,0.4c-0.3,0.2-0.7,0.3-1,0.3
			c-0.5,0-1.7-0.3-1.7-2c0-1.5,0.9-2.2,1.8-2.2c0.9,0,1.2,0.5,1.2,0.7V28.8z M116.8,31.4c-0.2-0.2-0.5-0.4-0.9-0.4
			c-1.1,0-1.1,1.3-1.1,1.6c0,0.7,0.2,1.5,1.1,1.5c1.2,0,1.2-1.3,1.2-1.6C117.1,31.9,117,31.6,116.8,31.4z"/>
		<path class="st3" d="M120.9,30.4c1.6,0,2,1.3,2,2.1c0,1.2-0.7,2.2-2,2.2c-1.3,0-2-0.9-2-2.1C118.9,31.6,119.3,30.4,120.9,30.4z
			 M120.9,34.1c0.6,0,1.2-0.4,1.2-1.6c0-1-0.5-1.5-1.2-1.5c-0.5,0-1.3,0.3-1.3,1.6C119.7,33.4,120,34.1,120.9,34.1z"/>
		<path class="st3" d="M124.1,31l0-0.5h0.8l0,0.6c0.1-0.2,0.4-0.7,1.3-0.7c0.4,0,1.5,0.1,1.5,1.4v2.7h-0.8V32c0-0.3,0-0.5-0.2-0.7
			c-0.2-0.2-0.5-0.3-0.7-0.3c-0.5,0-1,0.4-1,1.2v2.3h-0.8V31z"/>
		<path class="st3" d="M129.4,32.7c0,0.8,0.3,1.4,1.2,1.4c0.5,0,0.9-0.3,0.9-0.8h0.8c0,0.2-0.1,0.5-0.3,0.8
			c-0.2,0.2-0.6,0.5-1.4,0.5c-1.3,0-1.9-0.8-1.9-2.1c0-0.8,0.2-1.4,0.8-1.9c0.4-0.3,0.9-0.3,1.1-0.3c1.8,0,1.8,1.6,1.7,2.2H129.4z
			 M131.5,32.1c0-0.4-0.1-1.2-1-1.2c-0.5,0-1.1,0.3-1.1,1.2H131.5z"/>
		<path class="st3" d="M72.5,43c0,0.3,0.2,0.7,0.9,0.7c0.3,0,0.5-0.1,0.7-0.3c0.1-0.1,0.1-0.2,0.1-0.4c0-0.4-0.3-0.5-0.9-0.6
			c-0.8-0.2-1.5-0.4-1.5-1.2c0-0.7,0.6-1.2,1.6-1.2c0.5,0,1.2,0.1,1.4,0.6c0.1,0.2,0.1,0.4,0.1,0.6h-0.8c0-0.6-0.5-0.7-0.8-0.7
			c-0.1,0-0.8,0-0.8,0.6c0,0.4,0.4,0.5,0.6,0.5c1.1,0.3,1.4,0.3,1.6,0.6c0.2,0.2,0.3,0.5,0.3,0.7c0,0.4-0.2,0.8-0.5,1
			c-0.4,0.2-0.8,0.3-1.2,0.3c-0.8,0-1.6-0.3-1.6-1.3H72.5z"/>
		<path class="st3" d="M76,40.8c0-0.2,0-0.3,0-0.7h0.8l0,0.7c0.4-0.6,1-0.7,1.4-0.7c0.9,0,1.7,0.6,1.7,2.1c0,1.5-0.9,2.2-1.8,2.2
			c-0.6,0-1-0.2-1.2-0.6v2H76V40.8z M77.9,43.7c0.2,0,0.6,0,0.8-0.4c0.3-0.4,0.3-1,0.3-1.3c0-0.7-0.2-1.5-1.1-1.5
			c-1.2,0-1.2,1.3-1.2,1.6C76.8,42.7,76.8,43.7,77.9,43.7z"/>
		<path class="st3" d="M82.7,40c1.6,0,2,1.3,2,2.1c0,1.2-0.7,2.2-2,2.2c-1.3,0-2-0.9-2-2.1C80.7,41.2,81.1,40,82.7,40z M82.6,43.7
			c0.6,0,1.2-0.4,1.2-1.6c0-1-0.5-1.5-1.2-1.5c-0.5,0-1.3,0.3-1.3,1.6C81.4,43,81.8,43.7,82.6,43.7z"/>
		<path class="st3" d="M85.9,40.6l0-0.5h0.8l0,0.6c0.1-0.2,0.4-0.7,1.3-0.7c0.4,0,1.5,0.1,1.5,1.4v2.7h-0.8v-2.6
			c0-0.3,0-0.5-0.2-0.7c-0.2-0.2-0.5-0.3-0.7-0.3c-0.5,0-1,0.4-1,1.2v2.3h-0.8V40.6z"/>
		<path class="st3" d="M90.1,40.1h0.7v-0.8l0.7-0.2v1.1h0.9v0.6h-0.9v2.4c0,0.2,0,0.5,0.5,0.5c0.2,0,0.3,0,0.4,0v0.6
			c-0.1,0-0.4,0-0.6,0c-0.7,0-1-0.2-1-0.9v-2.7h-0.7V40.1z"/>
		<path class="st3" d="M95.8,44.1c-0.1-0.2-0.1-0.4-0.1-0.6c-0.4,0.7-0.9,0.7-1.2,0.7c-0.9,0-1.4-0.5-1.4-1.2c0-0.3,0.1-0.8,0.7-1.2
			c0.4-0.2,1.1-0.3,1.4-0.3c0.2,0,0.3,0,0.5,0c0-0.5,0-0.7-0.1-0.9c-0.2-0.2-0.5-0.3-0.7-0.3c-0.8,0-0.8,0.5-0.8,0.7h-0.8
			c0-0.2,0-0.5,0.3-0.8c0.3-0.3,0.9-0.4,1.3-0.4c0.6,0,1.2,0.2,1.4,0.6c0.1,0.2,0.1,0.4,0.1,0.6l0,1.9c0,0.1,0,0.6,0.1,1H95.8z
			 M95.3,42.2c-0.3,0-1.4,0-1.4,0.8c0,0.3,0.2,0.7,0.8,0.7c0.4,0,0.7-0.2,0.9-0.4c0.2-0.3,0.2-0.5,0.2-1.1
			C95.6,42.2,95.5,42.2,95.3,42.2z"/>
		<path class="st3" d="M97.9,40.6l0-0.5h0.8l0,0.6c0.1-0.2,0.4-0.7,1.3-0.7c0.4,0,1.5,0.1,1.5,1.4v2.7h-0.8v-2.6
			c0-0.3,0-0.5-0.2-0.7c-0.2-0.2-0.5-0.3-0.7-0.3c-0.5,0-1,0.4-1,1.2v2.3h-0.8V40.6z"/>
		<path class="st3" d="M103.2,42.3c0,0.8,0.3,1.4,1.2,1.4c0.5,0,0.9-0.3,0.9-0.8h0.8c0,0.2-0.1,0.5-0.3,0.8
			c-0.2,0.2-0.6,0.5-1.4,0.5c-1.3,0-1.9-0.8-1.9-2.1c0-0.8,0.2-1.4,0.8-1.9c0.4-0.3,0.9-0.3,1.1-0.3c1.8,0,1.8,1.6,1.7,2.2H103.2z
			 M105.3,41.7c0-0.4-0.1-1.2-1-1.2c-0.5,0-1.1,0.3-1.1,1.2H105.3z"/>
		<path class="st3" d="M108.9,40c1.6,0,2,1.3,2,2.1c0,1.2-0.7,2.2-2,2.2c-1.3,0-2-0.9-2-2.1C106.9,41.2,107.3,40,108.9,40z
			 M108.9,43.7c0.6,0,1.2-0.4,1.2-1.6c0-1-0.5-1.5-1.2-1.5c-0.5,0-1.3,0.3-1.3,1.6C107.7,43,108,43.7,108.9,43.7z"/>
		<path class="st3" d="M112.7,40.1v2.6c0,0.4,0.1,0.9,0.9,0.9c0.4,0,0.7-0.1,0.9-0.4c0.2-0.2,0.2-0.6,0.2-0.8v-2.3h0.8v3.3
			c0,0.1,0,0.5,0,0.8h-0.8l0-0.7c-0.1,0.3-0.4,0.7-1.3,0.7c-1,0-1.5-0.6-1.5-1.4v-2.7H112.7z"/>
		<path class="st3" d="M117.4,43c0,0.3,0.2,0.7,0.9,0.7c0.3,0,0.5-0.1,0.7-0.3c0.1-0.1,0.1-0.2,0.1-0.4c0-0.4-0.3-0.5-0.9-0.6
			c-0.8-0.2-1.5-0.4-1.5-1.2c0-0.7,0.6-1.2,1.6-1.2c0.5,0,1.2,0.1,1.4,0.6c0.1,0.2,0.1,0.4,0.1,0.6H119c0-0.6-0.5-0.7-0.8-0.7
			c-0.1,0-0.8,0-0.8,0.6c0,0.4,0.4,0.5,0.6,0.5c1.1,0.3,1.4,0.3,1.6,0.6c0.2,0.2,0.3,0.5,0.3,0.7c0,0.4-0.2,0.8-0.5,1
			c-0.4,0.2-0.8,0.3-1.2,0.3c-0.8,0-1.6-0.3-1.6-1.3H117.4z"/>
		<path class="st3" d="M121,38.4h0.8v5.8H121V38.4z"/>
		<path class="st3" d="M125,44.2l-0.6,1.5h-0.8l0.6-1.5l-1.7-4h0.8l1.3,3.2l1.3-3.2h0.8L125,44.2z"/>
		<path class="st3" d="M127.6,40.1h0.9V41h-0.9V40.1z M127.6,43.2h0.9v0.9h-0.9V43.2z"/>
		<path class="st3" d="M72,47.9h0.7v3.4l1.5-1.6h1l-1.7,1.7l1.8,2.3h-1l-1.6-2.2v2.2H72V47.9z"/>
		<path class="st3" d="M76.7,51.9c0,0.8,0.3,1.4,1.2,1.4c0.5,0,0.9-0.3,0.9-0.8h0.8c0,0.2-0.1,0.5-0.3,0.8c-0.2,0.2-0.6,0.5-1.4,0.5
			c-1.3,0-1.9-0.8-1.9-2.1c0-0.8,0.2-1.4,0.8-1.9c0.4-0.3,0.9-0.3,1.1-0.3c1.8,0,1.8,1.6,1.7,2.2H76.7z M78.8,51.3
			c0-0.4-0.1-1.2-1-1.2c-0.5,0-1.1,0.3-1.1,1.2H78.8z"/>
		<path class="st3" d="M81.1,51.9c0,0.8,0.3,1.4,1.2,1.4c0.5,0,0.9-0.3,0.9-0.8H84c0,0.2-0.1,0.5-0.3,0.8c-0.2,0.2-0.6,0.5-1.4,0.5
			c-1.3,0-1.9-0.8-1.9-2.1c0-0.8,0.2-1.4,0.8-1.9c0.4-0.3,0.9-0.3,1.1-0.3c1.8,0,1.8,1.6,1.7,2.2H81.1z M83.2,51.3
			c0-0.4-0.1-1.2-1-1.2c-0.5,0-1.1,0.3-1.1,1.2H83.2z"/>
		<path class="st3" d="M85.1,50.4c0-0.2,0-0.3,0-0.7h0.8l0,0.7c0.4-0.6,1-0.7,1.4-0.7c0.9,0,1.7,0.6,1.7,2.1c0,1.5-0.9,2.2-1.8,2.2
			c-0.6,0-1-0.2-1.2-0.6v2h-0.7V50.4z M86.9,53.3c0.2,0,0.6,0,0.8-0.4c0.3-0.4,0.3-1,0.3-1.3c0-0.7-0.2-1.5-1.1-1.5
			c-1.2,0-1.2,1.3-1.2,1.6C85.8,52.3,85.9,53.3,86.9,53.3z"/>
		<path class="st3" d="M89.9,48h0.9v0.8h-0.9V48z M90,49.7h0.8v4H90V49.7z"/>
		<path class="st3" d="M92.3,50.2l0-0.5H93l0,0.6c0.1-0.2,0.4-0.7,1.3-0.7c0.4,0,1.5,0.1,1.5,1.4v2.7H95v-2.6c0-0.3,0-0.5-0.2-0.7
			c-0.2-0.2-0.5-0.3-0.7-0.3c-0.5,0-1,0.4-1,1.2v2.3h-0.8V50.2z"/>
		<path class="st3" d="M97.8,54.1c0,0.4,0.2,0.8,0.9,0.8c1,0,1.1-0.8,1.1-1.8c-0.3,0.7-1.1,0.7-1.3,0.7c-0.4,0-0.9-0.1-1.2-0.5
			c-0.3-0.4-0.5-0.9-0.5-1.5c0-1.4,0.8-2,1.8-2c0.8,0,1.1,0.4,1.3,0.6l0-0.6h0.7l0,0.7l0,2.5c0,1,0,1.4-0.2,1.7
			c-0.3,0.6-1.1,0.7-1.7,0.7c-1.6,0-1.7-0.8-1.7-1.3H97.8z M99.6,52.7c0.2-0.2,0.3-0.4,0.3-1.2c0-0.5-0.1-0.8-0.3-1
			c-0.2-0.2-0.5-0.4-0.9-0.4c-1,0-1.1,1-1.1,1.5c0,0.6,0.2,1.4,1.1,1.4C99.1,53.1,99.4,53,99.6,52.7z"/>
		<path class="st3" d="M103.6,49.7h0.7v-0.8l0.7-0.2v1.1h0.9v0.6h-0.9v2.4c0,0.2,0,0.5,0.5,0.5c0.2,0,0.3,0,0.4,0v0.6
			c-0.1,0-0.4,0-0.6,0c-0.7,0-1-0.2-1-0.9v-2.7h-0.7V49.7z"/>
		<path class="st3" d="M106.9,50.5c0-0.3,0-0.6,0-0.8h0.8l0,0.8c0.1-0.6,0.6-0.7,1-0.8c0.2,0,0.4,0,0.5,0v0.7c0,0-0.1,0-0.1,0
			c-0.1,0-0.1,0-0.2,0c-0.9,0-1.1,0.5-1.1,1.2v2.1h-0.8V50.5z"/>
		<path class="st3" d="M112.5,53.7c-0.1-0.2-0.1-0.4-0.1-0.6c-0.4,0.7-0.9,0.7-1.2,0.7c-0.9,0-1.4-0.5-1.4-1.2
			c0-0.3,0.1-0.8,0.7-1.2c0.4-0.2,1.1-0.3,1.4-0.3c0.2,0,0.3,0,0.5,0c0-0.5,0-0.7-0.1-0.9c-0.2-0.2-0.5-0.3-0.7-0.3
			c-0.8,0-0.8,0.5-0.8,0.7H110c0-0.2,0-0.5,0.3-0.8c0.3-0.3,0.9-0.4,1.3-0.4c0.6,0,1.2,0.2,1.4,0.6c0.1,0.2,0.1,0.4,0.1,0.6l0,1.9
			c0,0.1,0,0.6,0.1,1H112.5z M111.9,51.8c-0.3,0-1.4,0-1.4,0.8c0,0.3,0.2,0.7,0.8,0.7c0.4,0,0.7-0.2,0.9-0.4
			c0.2-0.3,0.2-0.5,0.2-1.1C112.2,51.8,112.1,51.8,111.9,51.8z"/>
		<path class="st3" d="M116.7,51c0-0.2-0.1-0.8-0.8-0.8c-1,0-1,1.2-1,1.5c0,0.8,0.2,1.6,1,1.6c0.6,0,0.9-0.5,0.9-0.9h0.8
			c0,0.8-0.6,1.4-1.6,1.4c-0.3,0-0.9-0.1-1.3-0.5c-0.2-0.3-0.5-0.7-0.5-1.5c0-1.7,1-2.2,1.8-2.2c0.3,0,0.9,0.1,1.2,0.5
			c0.3,0.3,0.3,0.7,0.3,0.9H116.7z"/>
		<path class="st3" d="M118,47.9h0.7v3.4l1.5-1.6h1l-1.7,1.7l1.8,2.3h-1l-1.6-2.2v2.2H118V47.9z"/>
		<path class="st3" d="M126,49.6c1.6,0,2,1.3,2,2.1c0,1.2-0.7,2.2-2,2.2c-1.3,0-2-0.9-2-2.1C124,50.8,124.4,49.6,126,49.6z
			 M126,53.3c0.6,0,1.2-0.4,1.2-1.6c0-1-0.5-1.5-1.2-1.5c-0.5,0-1.3,0.3-1.3,1.6C124.8,52.6,125.1,53.3,126,53.3z"/>
		<path class="st3" d="M131.2,48.5c-0.1,0-0.3,0-0.4,0c-0.6,0-0.6,0.3-0.6,0.6v0.6h0.9v0.5h-0.9v3.5h-0.7v-3.5h-0.8v-0.5h0.8v-0.5
			c0-0.6,0-0.8,0.2-1c0.2-0.3,0.5-0.4,1-0.4c0.2,0,0.5,0,0.6,0.1V48.5z"/>
		<path class="st3" d="M133.4,49.7h0.7v-0.8l0.7-0.2v1.1h0.9v0.6h-0.9v2.4c0,0.2,0,0.5,0.5,0.5c0.2,0,0.3,0,0.4,0v0.6
			c-0.1,0-0.4,0-0.6,0c-0.7,0-1-0.2-1-0.9v-2.7h-0.7V49.7z"/>
		<path class="st3" d="M136.6,48h0.9v0.8h-0.9V48z M136.7,49.7h0.8v4h-0.8V49.7z"/>
		<path class="st3" d="M138.9,50.3l0-0.5h0.8v0.6c0.4-0.6,0.9-0.7,1.3-0.7c0.9,0,1.2,0.5,1.3,0.8c0.1-0.2,0.5-0.8,1.4-0.8
			c0.6,0,1.5,0.2,1.5,1.4v2.7h-0.8v-2.6c0-0.4-0.1-0.5-0.1-0.6c-0.1-0.2-0.4-0.4-0.8-0.4c-0.5,0-0.8,0.3-0.9,0.4
			c-0.2,0.2-0.2,0.7-0.2,0.9v2.2h-0.8v-2.7c0-0.5-0.3-0.9-0.9-0.9c-0.5,0-0.8,0.3-0.9,0.4c-0.2,0.2-0.2,0.6-0.2,0.8v2.3h-0.8V50.3z"
			/>
		<path class="st3" d="M146.9,51.9c0,0.8,0.3,1.4,1.2,1.4c0.5,0,0.9-0.3,0.9-0.8h0.8c0,0.2-0.1,0.5-0.3,0.8
			c-0.2,0.2-0.6,0.5-1.4,0.5c-1.3,0-1.9-0.8-1.9-2.1c0-0.8,0.2-1.4,0.8-1.9c0.4-0.3,0.9-0.3,1.1-0.3c1.8,0,1.8,1.6,1.7,2.2H146.9z
			 M149.1,51.3c0-0.4-0.1-1.2-1-1.2c-0.5,0-1.1,0.3-1.1,1.2H149.1z"/>
		<path class="st3" d="M72,57.6h0.9v0.8H72V57.6z M72.1,59.3h0.8v4h-0.8V59.3z"/>
		<path class="st3" d="M74.7,62.2c0,0.3,0.2,0.7,0.9,0.7c0.3,0,0.5-0.1,0.7-0.3c0.1-0.1,0.1-0.2,0.1-0.4c0-0.4-0.3-0.5-0.9-0.6
			c-0.8-0.2-1.5-0.4-1.5-1.2c0-0.7,0.6-1.2,1.6-1.2c0.5,0,1.2,0.1,1.4,0.6c0.1,0.2,0.1,0.4,0.1,0.6h-0.8c0-0.6-0.5-0.7-0.8-0.7
			c-0.1,0-0.8,0-0.8,0.6c0,0.4,0.4,0.5,0.6,0.5c1.1,0.3,1.4,0.3,1.6,0.6c0.2,0.2,0.3,0.5,0.3,0.7c0,0.4-0.2,0.8-0.5,1
			c-0.4,0.2-0.8,0.3-1.2,0.3c-0.8,0-1.6-0.3-1.6-1.3H74.7z"/>
		<path class="st3" d="M80.5,59.8l0-0.5h0.8l0,0.6c0.1-0.2,0.4-0.7,1.3-0.7c0.4,0,1.5,0.1,1.5,1.4v2.7h-0.8v-2.6
			c0-0.3,0-0.5-0.2-0.7c-0.2-0.2-0.5-0.3-0.7-0.3c-0.5,0-1,0.4-1,1.2v2.3h-0.8V59.8z"/>
		<path class="st3" d="M87.1,59.2c1.6,0,2,1.3,2,2.1c0,1.2-0.7,2.2-2,2.2c-1.3,0-2-0.9-2-2.1C85.1,60.4,85.6,59.2,87.1,59.2z
			 M87.1,62.9c0.6,0,1.2-0.4,1.2-1.6c0-1-0.5-1.5-1.2-1.5c-0.5,0-1.3,0.3-1.3,1.6C85.9,62.2,86.2,62.9,87.1,62.9z"/>
		<path class="st3" d="M89.7,59.3h0.7v-0.8l0.7-0.2v1.1H92v0.6h-0.9v2.4c0,0.2,0,0.5,0.5,0.5c0.2,0,0.3,0,0.4,0v0.6
			c-0.1,0-0.4,0-0.6,0c-0.7,0-1-0.2-1-0.9v-2.7h-0.7V59.3z"/>
		<path class="st3" d="M97.6,63.3c-0.1-0.2-0.1-0.4-0.1-0.6c-0.4,0.7-0.9,0.7-1.2,0.7c-0.9,0-1.4-0.5-1.4-1.2c0-0.3,0.1-0.8,0.7-1.2
			c0.4-0.2,1.1-0.3,1.4-0.3c0.2,0,0.3,0,0.5,0c0-0.5,0-0.7-0.1-0.9c-0.2-0.2-0.5-0.3-0.7-0.3c-0.8,0-0.8,0.5-0.8,0.7h-0.8
			c0-0.2,0-0.5,0.3-0.8c0.3-0.3,0.9-0.4,1.3-0.4c0.6,0,1.2,0.2,1.4,0.6c0.1,0.2,0.1,0.4,0.1,0.6l0,1.9c0,0.1,0,0.6,0.1,1H97.6z
			 M97.1,61.4c-0.3,0-1.4,0-1.4,0.8c0,0.3,0.2,0.7,0.8,0.7c0.4,0,0.7-0.2,0.9-0.4c0.2-0.3,0.2-0.5,0.2-1.1
			C97.4,61.4,97.3,61.4,97.1,61.4z"/>
		<path class="st3" d="M100.1,62.2c0,0.3,0.2,0.7,0.9,0.7c0.3,0,0.5-0.1,0.7-0.3c0.1-0.1,0.1-0.2,0.1-0.4c0-0.4-0.3-0.5-0.9-0.6
			c-0.8-0.2-1.5-0.4-1.5-1.2c0-0.7,0.6-1.2,1.6-1.2c0.5,0,1.2,0.1,1.4,0.6c0.1,0.2,0.1,0.4,0.1,0.6h-0.8c0-0.6-0.5-0.7-0.8-0.7
			c-0.1,0-0.8,0-0.8,0.6c0,0.4,0.4,0.5,0.6,0.5c1.1,0.3,1.4,0.3,1.6,0.6c0.2,0.2,0.3,0.5,0.3,0.7c0,0.4-0.2,0.8-0.5,1
			c-0.4,0.2-0.8,0.3-1.2,0.3c-0.8,0-1.6-0.3-1.6-1.3H100.1z"/>
		<path class="st3" d="M105.8,57.6h0.9v0.8h-0.9V57.6z M105.9,59.3h0.8v4h-0.8V59.3z"/>
		<path class="st3" d="M108.1,59.9l0-0.5h0.8v0.6c0.4-0.6,0.9-0.7,1.3-0.7c0.9,0,1.2,0.5,1.3,0.8c0.1-0.2,0.5-0.8,1.4-0.8
			c0.6,0,1.5,0.2,1.5,1.4v2.7h-0.8v-2.6c0-0.4-0.1-0.5-0.1-0.6c-0.1-0.2-0.4-0.4-0.8-0.4c-0.5,0-0.8,0.3-0.9,0.4
			c-0.2,0.2-0.2,0.7-0.2,0.9v2.2h-0.8v-2.7c0-0.5-0.3-0.9-0.9-0.9c-0.5,0-0.8,0.3-0.9,0.4c-0.2,0.2-0.2,0.6-0.2,0.8v2.3h-0.8V59.9z"
			/>
		<path class="st3" d="M115.6,60c0-0.2,0-0.3,0-0.7h0.8l0,0.7c0.4-0.6,1-0.7,1.4-0.7c0.9,0,1.7,0.6,1.7,2.1c0,1.5-0.9,2.2-1.8,2.2
			c-0.6,0-1-0.2-1.2-0.6v2h-0.7V60z M117.4,62.9c0.2,0,0.6,0,0.8-0.4c0.3-0.4,0.3-1,0.3-1.3c0-0.7-0.2-1.5-1.1-1.5
			c-1.2,0-1.2,1.3-1.2,1.6C116.3,61.9,116.4,62.9,117.4,62.9z"/>
		<path class="st3" d="M122.3,59.2c1.6,0,2,1.3,2,2.1c0,1.2-0.7,2.2-2,2.2c-1.3,0-2-0.9-2-2.1C120.2,60.4,120.7,59.2,122.3,59.2z
			 M122.2,62.9c0.6,0,1.2-0.4,1.2-1.6c0-1-0.5-1.5-1.2-1.5c-0.5,0-1.3,0.3-1.3,1.6C121,62.2,121.3,62.9,122.2,62.9z"/>
		<path class="st3" d="M125.4,60.2c0-0.3,0-0.6,0-0.8h0.8l0,0.8c0.1-0.6,0.6-0.7,1-0.8c0.2,0,0.4,0,0.5,0V60c0,0-0.1,0-0.1,0
			c-0.1,0-0.1,0-0.2,0c-0.9,0-1.1,0.5-1.1,1.2v2.1h-0.8V60.2z"/>
		<path class="st3" d="M127.7,59.3h0.7v-0.8l0.7-0.2v1.1h0.9v0.6h-0.9v2.4c0,0.2,0,0.5,0.5,0.5c0.2,0,0.3,0,0.4,0v0.6
			c-0.1,0-0.4,0-0.6,0c-0.7,0-1-0.2-1-0.9v-2.7h-0.7V59.3z"/>
		<path class="st3" d="M133.4,63.3c-0.1-0.2-0.1-0.4-0.1-0.6c-0.4,0.7-0.9,0.7-1.2,0.7c-0.9,0-1.4-0.5-1.4-1.2
			c0-0.3,0.1-0.8,0.7-1.2c0.4-0.2,1.1-0.3,1.4-0.3c0.2,0,0.3,0,0.5,0c0-0.5,0-0.7-0.1-0.9c-0.2-0.2-0.5-0.3-0.7-0.3
			c-0.8,0-0.8,0.5-0.8,0.7h-0.8c0-0.2,0-0.5,0.3-0.8c0.3-0.3,0.9-0.4,1.3-0.4c0.6,0,1.2,0.2,1.4,0.6c0.1,0.2,0.1,0.4,0.1,0.6l0,1.9
			c0,0.1,0,0.6,0.1,1H133.4z M132.9,61.4c-0.3,0-1.4,0-1.4,0.8c0,0.3,0.2,0.7,0.8,0.7c0.4,0,0.7-0.2,0.9-0.4
			c0.2-0.3,0.2-0.5,0.2-1.1C133.2,61.4,133.1,61.4,132.9,61.4z"/>
		<path class="st3" d="M135.4,59.8l0-0.5h0.8l0,0.6c0.1-0.2,0.4-0.7,1.3-0.7c0.4,0,1.5,0.1,1.5,1.4v2.7h-0.8v-2.6
			c0-0.3,0-0.5-0.2-0.7c-0.2-0.2-0.5-0.3-0.7-0.3c-0.5,0-1,0.4-1,1.2v2.3h-0.8V59.8z"/>
		<path class="st3" d="M139.7,59.3h0.7v-0.8l0.7-0.2v1.1h0.9v0.6h-0.9v2.4c0,0.2,0,0.5,0.5,0.5c0.2,0,0.3,0,0.4,0v0.6
			c-0.1,0-0.4,0-0.6,0c-0.7,0-1-0.2-1-0.9v-2.7h-0.7V59.3z"/>
	</g>
</g>
</svg>
